<svg xmlns="http://www.w3.org/2000/svg" viewBox="0 0 256 256" fill="currentColor"><path d="M256,216a8,8,0,0,1-8,8H104a8,8,0,0,1,0-16H248A8,8,0,0,1,256,216Zm-26.16-24.3L53.21,142.24A40.12,40.12,0,0,1,24,103.72V48A16,16,0,0,1,45.06,32.82l5.47,1.82a8,8,0,0,1,5,4.87L66.13,68.88,96,77.39V48a16,16,0,0,1,21.06-15.18l5.47,1.82a8,8,0,0,1,4.85,4.5l22.5,53.63,60.84,17A40.13,40.13,0,0,1,240,148.32V184a8,8,0,0,1-10.16,7.7ZM224,148.32a24.09,24.09,0,0,0-17.58-23.13l-64.57-18a8,8,0,0,1-5.23-4.61L114,48.67,112,48V88a8,8,0,0,1-10.19,7.7l-44-12.54a8,8,0,0,1-5.33-5L41.79,48.59,40,48v55.72a24.09,24.09,0,0,0,17.53,23.12L224,173.45Z"/></svg>