<svg xmlns="http://www.w3.org/2000/svg" viewBox="0 0 256 256" fill="currentColor"><path d="M240,136v24H61.06a32,32,0,0,1-30.65-22.8L16.34,90.3A8,8,0,0,1,24,80h8l24,24H92.91L80.42,66.53A8,8,0,0,1,88,56h8l48,48h64A32,32,0,0,1,240,136Z" opacity="0.2"/><path d="M208,96H147.32L101.66,50.34A8,8,0,0,0,96,48H88A16,16,0,0,0,72.83,69.06l9,26.94H59.32L37.66,74.34A8,8,0,0,0,32,72H24A16,16,0,0,0,8.69,92.6l14.07,46.89A39.75,39.75,0,0,0,61.07,168H240a8,8,0,0,0,8-8V136A40,40,0,0,0,208,96Zm24,56H61.07a23.85,23.85,0,0,1-23-17.1L24,88h4.68l21.66,21.66A8,8,0,0,0,56,112h36.9a8,8,0,0,0,7.59-10.53L88,64h4.68l45.66,45.66A8,8,0,0,0,144,112h64a24,24,0,0,1,24,24Zm-8,48a16,16,0,1,1-16-16A16,16,0,0,1,224,200Zm-96,0a16,16,0,1,1-16-16A16,16,0,0,1,128,200Z"/></svg>