<svg xmlns="http://www.w3.org/2000/svg" viewBox="0 0 256 256" fill="currentColor"><path d="M185.33,114.21l29.14-27.42.17-.17a32,32,0,0,0-45.26-45.26c0,.06-.11.11-.17.17L141.79,70.67l-83-30.2a8,8,0,0,0-8.39,1.86l-24,24a8,8,0,0,0,1.22,12.31l63.89,42.59L76.69,136H56a8,8,0,0,0-5.65,2.34l-24,24A8,8,0,0,0,29,175.42l36.82,14.73,14.7,36.75.06.16a8,8,0,0,0,13.18,2.47l23.87-23.88A8,8,0,0,0,120,200V179.31l14.76-14.76,42.59,63.89a8,8,0,0,0,12.31,1.22l24-24a8,8,0,0,0,1.86-8.39Zm-.07,97.23-42.59-63.88A8,8,0,0,0,136.8,144c-.27,0-.53,0-.79,0a8,8,0,0,0-5.66,2.35l-24,24A8,8,0,0,0,104,176v20.69L90.93,209.76,79.43,181A8,8,0,0,0,75,176.57l-28.74-11.5L59.32,152H80a8,8,0,0,0,5.66-2.34l24-24a8,8,0,0,0-1.22-12.32L44.56,70.74l13.5-13.49,83.22,30.26a8,8,0,0,0,8.56-2L180.78,52.6A16,16,0,0,1,203.4,75.23l-32.87,30.93a8,8,0,0,0-2,8.56l30.26,83.22Z"/></svg>