<svg xmlns="http://www.w3.org/2000/svg" viewBox="0 0 256 256" fill="currentColor"><path d="M183,113.65l30.1-28.32.13-.13A30,30,0,0,0,170.8,42.77l-.13.13L142.35,73,58.05,42.35a6,6,0,0,0-6.29,1.39l-24,24A6,6,0,0,0,28.67,77l65.92,43.94L77.52,138H56a6,6,0,0,0-4.24,1.76l-24,24a6,6,0,0,0,2,9.82l37.62,15,15,37.56,0,.12a6,6,0,0,0,7.81,3.27,5.94,5.94,0,0,0,2.07-1.41l23.91-23.91A6,6,0,0,0,118,200V178.48l17.07-17.07L179,227.33a6,6,0,0,0,9.23.91l24-24a6,6,0,0,0,1.39-6.29Zm1.94,100.93L141,148.66a6,6,0,0,0-4.4-2.64l-.59,0a6,6,0,0,0-4.24,1.76l-24,24A6,6,0,0,0,106,176v21.52L90.2,213.32,77.57,181.77a6,6,0,0,0-3.34-3.35L42.68,165.8,58.49,150H80a6,6,0,0,0,4.25-1.76l24-24a6,6,0,0,0-.92-9.23L41.42,71.06,57.54,54.93,142,85.63a6,6,0,0,0,6.42-1.53l31-32.9A18,18,0,0,1,204.8,76.66l-32.9,31a6,6,0,0,0-1.53,6.42l30.7,84.41Z"/></svg>