<svg xmlns="http://www.w3.org/2000/svg" viewBox="0 0 256 256" fill="currentColor"><path d="M208,98H146.49L100.25,51.76A6,6,0,0,0,96,50H88A14,14,0,0,0,74.73,68.43L84.59,98H58.49L36.25,75.76A6,6,0,0,0,32,74H24A14,14,0,0,0,10.6,92l14.07,46.9A37.77,37.77,0,0,0,61.07,166H240a6,6,0,0,0,6-6V136A38,38,0,0,0,208,98Zm26,56H61.07a25.86,25.86,0,0,1-24.91-18.53L22.1,88.57a1.91,1.91,0,0,1,.31-1.76A1.93,1.93,0,0,1,24,86h5.51l22.24,22.24A6,6,0,0,0,56,110H92.91a6,6,0,0,0,5.69-7.9L86.11,64.63A2,2,0,0,1,88,62h5.51l46.24,46.24A6,6,0,0,0,144,110h64a26,26,0,0,1,26,26Zm-12,46a14,14,0,1,1-14-14A14,14,0,0,1,222,200Zm-96,0a14,14,0,1,1-14-14A14,14,0,0,1,126,200Z"/></svg>