<svg xmlns="http://www.w3.org/2000/svg" viewBox="0 0 256 256" fill="currentColor"><path d="M64,104V64a8,8,0,0,1,8-8H184a8,8,0,0,1,8,8v40a8,8,0,0,1-8,8H72A8,8,0,0,1,64,104Zm144,40H48a8,8,0,0,0-8,8v40a8,8,0,0,0,8,8H208a8,8,0,0,0,8-8V152A8,8,0,0,0,208,144Z" opacity="0.2"/><path d="M208,136H136V120h48a16,16,0,0,0,16-16V64a16,16,0,0,0-16-16H136V32a8,8,0,0,0-16,0V48H72A16,16,0,0,0,56,64v40a16,16,0,0,0,16,16h48v16H48a16,16,0,0,0-16,16v40a16,16,0,0,0,16,16h72v16a8,8,0,0,0,16,0V208h72a16,16,0,0,0,16-16V152A16,16,0,0,0,208,136ZM72,64H184v40H72ZM208,192H48V152H208v40Z"/></svg>