<svg xmlns="http://www.w3.org/2000/svg" viewBox="0 0 256 256" fill="currentColor"><path d="M200,80v96a8,8,0,0,1-8,8H152a8,8,0,0,1-8-8V80a8,8,0,0,1,8-8h40A8,8,0,0,1,200,80Zm-96-8H64a8,8,0,0,0-8,8V216a8,8,0,0,0,8,8h40a8,8,0,0,0,8-8V80A8,8,0,0,0,104,72Z" opacity="0.2"/><path d="M224,40a8,8,0,0,1-8,8H40a8,8,0,0,1,0-16H216A8,8,0,0,1,224,40ZM208,80v96a16,16,0,0,1-16,16H152a16,16,0,0,1-16-16V80a16,16,0,0,1,16-16h40A16,16,0,0,1,208,80Zm-16,0H152v96h40Zm-72,0V216a16,16,0,0,1-16,16H64a16,16,0,0,1-16-16V80A16,16,0,0,1,64,64h40A16,16,0,0,1,120,80Zm-16,0H64V216h40Z"/></svg>