<svg xmlns="http://www.w3.org/2000/svg" viewBox="0 0 256 256" fill="currentColor"><path d="M200,72V184a8,8,0,0,1-8,8H152a8,8,0,0,1-8-8V72a8,8,0,0,1,8-8h40A8,8,0,0,1,200,72ZM104,40H64a8,8,0,0,0-8,8V208a8,8,0,0,0,8,8h40a8,8,0,0,0,8-8V48A8,8,0,0,0,104,40Z" opacity="0.2"/><path d="M224,120H208V72a16,16,0,0,0-16-16H152a16,16,0,0,0-16,16v48H120V48a16,16,0,0,0-16-16H64A16,16,0,0,0,48,48v72H32a8,8,0,0,0,0,16H48v72a16,16,0,0,0,16,16h40a16,16,0,0,0,16-16V136h16v48a16,16,0,0,0,16,16h40a16,16,0,0,0,16-16V136h16a8,8,0,0,0,0-16ZM104,208H64V48h40Zm88-24H152V72h40Z"/></svg>