<svg xmlns="http://www.w3.org/2000/svg" viewBox="0 0 256 256" fill="currentColor"><path d="M248,168v32a8,8,0,0,1-16,0V187.31l-2.21,2.22C226.69,192.9,189.44,232,128,232c-62.84,0-100.38-40.91-101.95-42.65A8,8,0,0,1,38,178.65C38.27,179,72.5,216,128,216s89.73-37,90.07-37.36a3.85,3.85,0,0,1,.27-.3l2.35-2.34H208a8,8,0,0,1,0-16h32A8,8,0,0,1,248,168ZM160,94.53V84A36,36,0,0,0,91.92,67.64a8,8,0,0,1-14.25-7.28A52,52,0,0,1,176,84v92a8,8,0,0,1-16,0v-6.53a52,52,0,1,1,0-74.94ZM160,132a36,36,0,1,0-36,36A36,36,0,0,0,160,132Z"/></svg>