<svg xmlns="http://www.w3.org/2000/svg" viewBox="0 0 256 256" fill="currentColor"><path d="M204.41,51.63a108,108,0,1,0,0,152.74A107.38,107.38,0,0,0,204.41,51.63Zm-17,17A83.85,83.85,0,0,1,196.26,79L169,111.09l-23.3-65.21A83.52,83.52,0,0,1,187.43,68.6Zm-118.85,0a83.44,83.44,0,0,1,51.11-24.2l14.16,39.65L65.71,71.61C66.64,70.59,67.59,69.59,68.58,68.6ZM48,153.7a84.48,84.48,0,0,1,3.4-60.3L92.84,101Zm20.55,33.7A83.94,83.94,0,0,1,59.74,177L87,144.91l23.3,65.21A83.53,83.53,0,0,1,68.58,187.4Zm36.36-63.61,15.18-17.85,23.06,4.21,7.88,22.06-15.17,17.85-23.06-4.21Zm82.49,63.61a83.49,83.49,0,0,1-51.11,24.2L122.15,172l68.14,12.44C189.36,185.41,188.41,186.41,187.43,187.4ZM163.16,155,208,102.3a84.43,84.43,0,0,1-3.41,60.3Z"/></svg>