<svg xmlns="http://www.w3.org/2000/svg" viewBox="0 0 256 256" fill="currentColor"><path d="M223.3,169.59a8.07,8.07,0,0,0-2.8-3.4C203.53,154.53,200,134.64,200,120c0-17.67,13.47-33.06,21.5-40.67a8,8,0,0,0,0-11.62C208.82,55.74,187.82,48,168,48a72.2,72.2,0,0,0-40,12.13,71.56,71.56,0,0,0-90.71,9.09A74.63,74.63,0,0,0,16,123.4a127.06,127.06,0,0,0,40.14,89.73A39.8,39.8,0,0,0,83.59,224h87.68a39.84,39.84,0,0,0,29.12-12.57,125,125,0,0,0,17.82-24.6C225.23,174,224.33,172,223.3,169.59Zm-34.63,30.94a23.76,23.76,0,0,1-17.4,7.47H83.59a23.82,23.82,0,0,1-16.44-6.51A111.14,111.14,0,0,1,32,123,58.5,58.5,0,0,1,48.65,80.47,54.81,54.81,0,0,1,88,64h.78A55.45,55.45,0,0,1,123,76.28a8,8,0,0,0,10,0A55.44,55.44,0,0,1,168,64a70.64,70.64,0,0,1,36,10.35c-13,14.52-20,30.47-20,45.65,0,23.77,7.64,42.73,22.18,55.3A105.82,105.82,0,0,1,188.67,200.53ZM128.23,30A40,40,0,0,1,167,0h1a8,8,0,0,1,0,16h-1a24,24,0,0,0-23.24,18,8,8,0,1,1-15.5-4Z"/></svg>