<svg xmlns="http://www.w3.org/2000/svg" viewBox="0 0 256 256" fill="currentColor"><path d="M214,90.48V72a38,38,0,0,0-38-38H80A38,38,0,0,0,42,72V90.48a38,38,0,0,0,0,75.05V200a14,14,0,0,0,14,14H200a14,14,0,0,0,14-14V165.53a38,38,0,0,0,0-75ZM80,46h96a26,26,0,0,1,26,26V90.48A38.05,38.05,0,0,0,170,128v2H86v-2A38.05,38.05,0,0,0,54,90.48V72A26,26,0,0,1,80,46ZM208.35,154H208a6,6,0,0,0-6,6v40a2,2,0,0,1-2,2H56a2,2,0,0,1-2-2V160h0a6,6,0,0,0-6-6h-.35A26,26,0,1,1,74,128v40a6,6,0,0,0,12,0V142h84v26a6,6,0,0,0,12,0V128a26,26,0,1,1,26.35,26Z"/></svg>