<svg xmlns="http://www.w3.org/2000/svg" viewBox="0 0 256 256" fill="currentColor"><path d="M216,88.8V72a40,40,0,0,0-40-40H80A40,40,0,0,0,40,72V88.8a40,40,0,0,0,0,78.4V200a16,16,0,0,0,16,16H200a16,16,0,0,0,16-16V167.2a40,40,0,0,0,0-78.4ZM80,48h96a24,24,0,0,1,24,24V88.8A40.07,40.07,0,0,0,168,128H88A40.07,40.07,0,0,0,56,88.8V72A24,24,0,0,1,80,48ZM208.39,152H208a8,8,0,0,0-8,8v40H56V160a8,8,0,0,0-8-8h-.39A24,24,0,1,1,72,128v40a8,8,0,0,0,16,0V144h80v24a8,8,0,0,0,16,0V128a24,24,0,1,1,24.39,24Z"/></svg>