<svg xmlns="http://www.w3.org/2000/svg" viewBox="0 0 256 256" fill="currentColor"><path d="M224,48V208a16,16,0,0,1-16,16H48a16,16,0,0,1-16-16V48A16,16,0,0,1,48,32H208A16,16,0,0,1,224,48Z" opacity="0.2"/><path d="M90.34,69.66a8,8,0,0,1,11.32-11.32L120,76.69V24a8,8,0,0,1,16,0V76.69l18.34-18.35a8,8,0,0,1,11.32,11.32l-32,32a8,8,0,0,1-11.32,0Zm43.32,84.68a8,8,0,0,0-11.32,0l-32,32a8,8,0,0,0,11.32,11.32L120,179.31V232a8,8,0,0,0,16,0V179.31l18.34,18.35a8,8,0,0,0,11.32-11.32ZM232,120H179.31l18.35-18.34a8,8,0,0,0-11.32-11.32l-32,32a8,8,0,0,0,0,11.32l32,32a8,8,0,0,0,11.32-11.32L179.31,136H232a8,8,0,0,0,0-16Zm-130.34,2.34-32-32a8,8,0,0,0-11.32,11.32L76.69,120H24a8,8,0,0,0,0,16H76.69L58.34,154.34a8,8,0,0,0,11.32,11.32l32-32A8,8,0,0,0,101.66,122.34Z"/></svg>