<svg xmlns="http://www.w3.org/2000/svg" viewBox="0 0 256 256" fill="currentColor"><path d="M88,104H40a8,8,0,0,1-8-8V48a8,8,0,0,1,16,0V76.69L62.63,62.06A95.43,95.43,0,0,1,130,33.94h.53a95.36,95.36,0,0,1,67.07,27.33,8,8,0,0,1-11.18,11.44,79.52,79.52,0,0,0-55.89-22.77h-.45A79.56,79.56,0,0,0,73.94,73.37L59.31,88H88a8,8,0,0,1,0,16Zm128,48H168a8,8,0,0,0,0,16h28.69l-14.63,14.63a79.56,79.56,0,0,1-56.13,23.43h-.45a79.52,79.52,0,0,1-55.89-22.77,8,8,0,1,0-11.18,11.44,95.36,95.36,0,0,0,67.07,27.33H126a95.43,95.43,0,0,0,67.36-28.12L208,179.31V208a8,8,0,0,0,16,0V160A8,8,0,0,0,216,152Z"/></svg>