<svg xmlns="http://www.w3.org/2000/svg" viewBox="0 0 256 256" fill="currentColor"><path d="M216,32V224a16,16,0,0,1-16,16H56a16,16,0,0,1-16-16V32A16,16,0,0,1,56,16H200A16,16,0,0,1,216,32Z" opacity="0.2"/><path d="M224,128a8,8,0,0,1-8,8H40a8,8,0,0,1,0-16H216A8,8,0,0,1,224,128ZM122.34,101.66a8,8,0,0,0,11.32,0l32-32a8,8,0,0,0-11.32-11.32L136,76.69V16a8,8,0,0,0-16,0V76.69L101.66,58.34A8,8,0,0,0,90.34,69.66Zm11.32,52.68a8,8,0,0,0-11.32,0l-32,32a8,8,0,0,0,11.32,11.32L120,179.31V240a8,8,0,0,0,16,0V179.31l18.34,18.35a8,8,0,0,0,11.32-11.32Z"/></svg>