<svg xmlns="http://www.w3.org/2000/svg" viewBox="0 0 256 256" fill="currentColor"><path d="M214,48V96a6,6,0,0,1-12,0V62.48l-45.76,45.76a6,6,0,0,1-8.48-8.48L193.52,54H160a6,6,0,0,1,0-12h48A6,6,0,0,1,214,48ZM99.76,147.76,54,193.52V160a6,6,0,0,0-12,0v48a6,6,0,0,0,6,6H96a6,6,0,0,0,0-12H62.48l45.76-45.76a6,6,0,0,0-8.48-8.48ZM208,154a6,6,0,0,0-6,6v33.52l-45.76-45.76a6,6,0,0,0-8.48,8.48L193.52,202H160a6,6,0,0,0,0,12h48a6,6,0,0,0,6-6V160A6,6,0,0,0,208,154ZM62.48,54H96a6,6,0,0,0,0-12H48a6,6,0,0,0-6,6V96a6,6,0,0,0,12,0V62.48l45.76,45.76a6,6,0,0,0,8.48-8.48Z"/></svg>