<svg xmlns="http://www.w3.org/2000/svg" viewBox="0 0 256 256" fill="currentColor"><path d="M212,48V96a4,4,0,0,1-8,0V57.66l-49.17,49.17a4,4,0,0,1-5.66-5.66L198.34,52H160a4,4,0,0,1,0-8h48A4,4,0,0,1,212,48ZM101.17,149.17,52,198.34V160a4,4,0,0,0-8,0v48a4,4,0,0,0,4,4H96a4,4,0,0,0,0-8H57.66l49.17-49.17a4,4,0,0,0-5.66-5.66ZM208,156a4,4,0,0,0-4,4v38.34l-49.17-49.17a4,4,0,0,0-5.66,5.66L198.34,204H160a4,4,0,0,0,0,8h48a4,4,0,0,0,4-4V160A4,4,0,0,0,208,156ZM57.66,52H96a4,4,0,0,0,0-8H48a4,4,0,0,0-4,4V96a4,4,0,0,0,8,0V57.66l49.17,49.17a4,4,0,0,0,5.66-5.66Z"/></svg>