<svg xmlns="http://www.w3.org/2000/svg" viewBox="0 0 256 256" fill="currentColor"><path d="M91.76,60.24a6,6,0,0,1,0-8.48l32-32a6,6,0,0,1,8.48,0l32,32a6,6,0,1,1-8.48,8.48L134,38.49V96a6,6,0,0,1-12,0V38.49L100.24,60.24A6,6,0,0,1,91.76,60.24Zm64,135.52L134,217.51V160a6,6,0,0,0-12,0v57.51l-21.76-21.75a6,6,0,0,0-8.48,8.48l32,32a6,6,0,0,0,8.48,0l32-32a6,6,0,0,0-8.48-8.48Zm80.48-72-32-32a6,6,0,0,0-8.48,8.48L217.51,122H160a6,6,0,0,0,0,12h57.51l-21.75,21.76a6,6,0,1,0,8.48,8.48l32-32A6,6,0,0,0,236.24,123.76ZM38.49,134H96a6,6,0,0,0,0-12H38.49l21.75-21.76a6,6,0,0,0-8.48-8.48l-32,32a6,6,0,0,0,0,8.48l32,32a6,6,0,0,0,8.48-8.48Z"/></svg>