<svg xmlns="http://www.w3.org/2000/svg" viewBox="0 0 256 256" fill="currentColor"><path d="M216,32V224a16,16,0,0,1-16,16H56a16,16,0,0,1-16-16V32A16,16,0,0,1,56,16H200A16,16,0,0,1,216,32Z" opacity="0.2"/><path d="M224,128a8,8,0,0,1-8,8H40a8,8,0,0,1,0-16H216A8,8,0,0,1,224,128ZM101.66,53.66,120,35.31V96a8,8,0,0,0,16,0V35.31l18.34,18.35a8,8,0,0,0,11.32-11.32l-32-32a8,8,0,0,0-11.32,0l-32,32a8,8,0,0,0,11.32,11.32Zm52.68,148.68L136,220.69V160a8,8,0,0,0-16,0v60.69l-18.34-18.35a8,8,0,0,0-11.32,11.32l32,32a8,8,0,0,0,11.32,0l32-32a8,8,0,0,0-11.32-11.32Z"/></svg>