<svg xmlns="http://www.w3.org/2000/svg" viewBox="0 0 256 256" fill="currentColor"><path d="M228,48V96a12,12,0,0,1-12,12H168a12,12,0,0,1,0-24h19l-7.8-7.8a75.55,75.55,0,0,0-53.32-22.26h-.43A75.49,75.49,0,0,0,72.39,75.57,12,12,0,1,1,55.61,58.41a99.38,99.38,0,0,1,69.87-28.47H126A99.42,99.42,0,0,1,196.2,59.23L204,67V48a12,12,0,0,1,24,0ZM183.61,180.43a75.49,75.49,0,0,1-53.09,21.63h-.43A75.55,75.55,0,0,1,76.77,179.8L69,172H88a12,12,0,0,0,0-24H40a12,12,0,0,0-12,12v48a12,12,0,0,0,24,0V189l7.8,7.8A99.42,99.42,0,0,0,130,226.06h.56a99.38,99.38,0,0,0,69.87-28.47,12,12,0,0,0-16.78-17.16Z"/></svg>