<svg xmlns="http://www.w3.org/2000/svg" viewBox="0 0 256 256" fill="currentColor"><path d="M240,56V200a16,16,0,0,1-16,16H32a16,16,0,0,1-16-16V56A16,16,0,0,1,32,40H224A16,16,0,0,1,240,56Z" opacity="0.2"/><path d="M136,40V216a8,8,0,0,1-16,0V40a8,8,0,0,1,16,0ZM96,120H35.31l18.35-18.34A8,8,0,0,0,42.34,90.34l-32,32a8,8,0,0,0,0,11.32l32,32a8,8,0,0,0,11.32-11.32L35.31,136H96a8,8,0,0,0,0-16Zm149.66,2.34-32-32a8,8,0,0,0-11.32,11.32L220.69,120H160a8,8,0,0,0,0,16h60.69l-18.35,18.34a8,8,0,0,0,11.32,11.32l32-32A8,8,0,0,0,245.66,122.34Z"/></svg>