<svg xmlns="http://www.w3.org/2000/svg" viewBox="0 0 256 256" fill="currentColor"><path d="M87.51,64.49a12,12,0,0,1,0-17l32-32a12,12,0,0,1,17,0l32,32a12,12,0,0,1-17,17L140,53V96a12,12,0,0,1-24,0V53L104.49,64.49A12,12,0,0,1,87.51,64.49Zm64,127L140,203V160a12,12,0,0,0-24,0v43l-11.51-11.52a12,12,0,0,0-17,17l32,32a12,12,0,0,0,17,0l32-32a12,12,0,0,0-17-17Zm89-72-32-32a12,12,0,0,0-17,17L203,116H160a12,12,0,0,0,0,24h43l-11.52,11.51a12,12,0,0,0,17,17l32-32A12,12,0,0,0,240.49,119.51ZM53,140H96a12,12,0,0,0,0-24H53l11.52-11.51a12,12,0,1,0-17-17l-32,32a12,12,0,0,0,0,17l32,32a12,12,0,1,0,17-17Z"/></svg>