<svg xmlns="http://www.w3.org/2000/svg" viewBox="0 0 256 256" fill="currentColor"><path d="M56,136a8,8,0,0,1-8,8H24a8,8,0,0,1,0-16h8V64H24a8,8,0,0,1,0-16H40v0a8,8,0,0,1,6.78,3.74L80,104.91l33.22-53.15A8,8,0,0,1,120,48v0h16a8,8,0,0,1,0,16h-8v64h8a8,8,0,0,1,0,16H112a8,8,0,0,1,0-16V83.89L86.78,124.24a8,8,0,0,1-13.56,0L48,83.89V128A8,8,0,0,1,56,136Zm112-24h64a8,8,0,0,0,0-16H168a8,8,0,0,0,0,16Zm64,16H168a8,8,0,0,0,0,16h64a8,8,0,0,0,0-16Zm0,32H80a8,8,0,0,0,0,16H232a8,8,0,0,0,0-16Zm0,32H80a8,8,0,0,0,0,16H232a8,8,0,0,0,0-16Z"/></svg>