<svg xmlns="http://www.w3.org/2000/svg" viewBox="0 0 256 256" fill="currentColor"><path d="M128,20a108,108,0,0,0,0,216c22.27,0,45.69-6.73,62.64-18a12,12,0,1,0-13.29-20c-13,8.63-31.89,14-49.35,14a84,84,0,1,1,84-84c0,9.29-1.67,17.08-4.69,21.95-2.64,4.24-6,6.05-11.31,6.05s-8.67-1.81-11.31-6.05c-3-4.87-4.69-12.66-4.69-21.95V88a12,12,0,0,0-23.49-3.46,52,52,0,1,0,8.86,79.57C172.3,174.3,182.81,180,196,180c24.67,0,40-19.92,40-52A108.12,108.12,0,0,0,128,20Zm0,136a28,28,0,1,1,28-28A28,28,0,0,1,128,156Z"/></svg>