<svg xmlns="http://www.w3.org/2000/svg" viewBox="0 0 256 256" fill="currentColor"><path d="M219.23,159.2a196.66,196.66,0,0,0-18-31.2,196.66,196.66,0,0,0,18-31.2c11.84-26.31,11.69-47.48-.43-59.6s-33.29-12.27-59.6-.43a196.66,196.66,0,0,0-31.2,18,196.66,196.66,0,0,0-31.2-18c-26.31-11.84-47.48-11.69-59.6.43s-12.27,33.29-.43,59.6a196.66,196.66,0,0,0,18,31.2,196.66,196.66,0,0,0-18,31.2c-11.84,26.31-11.69,47.48.43,59.6h0C43.33,224.93,51.78,228,62,228c10,0,21.77-2.92,34.76-8.77a196.66,196.66,0,0,0,31.2-18,196.66,196.66,0,0,0,31.2,18c13,5.85,24.74,8.77,34.76,8.77,10.26,0,18.71-3.07,24.84-9.2h0C230.92,206.68,231.07,185.51,219.23,159.2Zm-17.41-105c5.25,5.26,1.79,26-16,53.78-5.61-6.66-11.65-13.25-18.07-19.67S154.7,75.83,148,70.22C175.82,52.39,196.56,48.93,201.82,54.18ZM171.24,128a288.6,288.6,0,0,1-20.51,22.73A288.6,288.6,0,0,1,128,171.24a288.6,288.6,0,0,1-22.73-20.51A288.6,288.6,0,0,1,84.76,128,298.55,298.55,0,0,1,128,84.76a286.83,286.83,0,0,1,22.73,20.51A286.83,286.83,0,0,1,171.24,128ZM54.18,54.18c1.46-1.45,4.1-2.24,7.75-2.24,9.53,0,25.94,5.39,46,18.28-6.66,5.61-13.25,11.65-19.67,18.07S75.83,101.3,70.22,108C52.39,80.18,48.93,59.44,54.18,54.18Zm0,147.64c-5.25-5.26-1.79-26,16-53.78,5.61,6.66,11.65,13.25,18.07,19.67s13,12.46,19.67,18.07C80.18,203.61,59.44,207.07,54.18,201.82Zm147.64,0c-5.26,5.25-26,1.79-53.78-16,6.66-5.61,13.25-11.65,19.67-18.07s12.46-13,18.07-19.67C203.61,175.82,207.07,196.56,201.82,201.82ZM144,128a16,16,0,1,1-16-16A16,16,0,0,1,144,128Z"/></svg>