<svg xmlns="http://www.w3.org/2000/svg" viewBox="0 0 256 256" fill="currentColor"><path d="M251.36,99a12,12,0,0,0-9.86-8.09A141.13,141.13,0,0,1,184,69.67L197.86,55.8A21,21,0,0,0,168.2,26.14L152,42.39a107.24,107.24,0,0,1-7.47-9.27,12,12,0,0,0-18.29-1.61L87.51,70.18a12,12,0,0,0,1.61,18.3A107.24,107.24,0,0,1,98.39,96L10.14,184.2A21,21,0,0,0,39.8,213.86L125.67,128a141,141,0,0,1,21.24,57.52,12,12,0,0,0,20.38,7l81.19-81.19A11.89,11.89,0,0,0,251.36,99Zm-77.5-67.2A13,13,0,1,1,192.2,50.14l-15,15a156.72,156.72,0,0,1-19.81-16.88ZM34.14,208.2A13,13,0,1,1,15.8,189.86l88.43-88.43a156.72,156.72,0,0,1,16.88,19.81ZM242.82,105.64l-81.18,81.18a3.86,3.86,0,0,1-4.08,1,4,4,0,0,1-2.72-3.34C146.3,120.51,99.07,85.69,93.72,81.93A4,4,0,0,1,92,79a3.9,3.9,0,0,1,1.14-3.15l38.68-38.68a3.92,3.92,0,0,1,2.8-1.16l.35,0a4,4,0,0,1,2.94,1.7c3.76,5.35,38.58,52.58,102.52,61.11a4,4,0,0,1,3.33,2.73A3.86,3.86,0,0,1,242.82,105.64Z"/></svg>