<svg xmlns="http://www.w3.org/2000/svg" viewBox="0 0 256 256" fill="currentColor"><path d="M92,138a10,10,0,1,1,10-10A10,10,0,0,1,92,138Zm72-20a10,10,0,1,0,10,10A10,10,0,0,0,164,118Zm-11.2,44.92a47,47,0,0,1-49.6,0,6,6,0,0,0-6.4,10.16,59,59,0,0,0,62.4,0,6,6,0,1,0-6.4-10.16ZM230,128A102,102,0,1,1,128,26,102.12,102.12,0,0,1,230,128Zm-12,0a90.11,90.11,0,0,0-87.07-89.95C118.3,55.23,118,71.85,118,72a10,10,0,0,0,20,0,6,6,0,0,1,12,0,22,22,0,0,1-44,0c0-.75.15-15.82,10.14-33.22A90,90,0,1,0,218,128Z"/></svg>