<svg xmlns="http://www.w3.org/2000/svg" viewBox="0 0 256 256" fill="currentColor"><path d="M232,112H144V48a8,8,0,0,1,8-8h8A72,72,0,0,1,232,112Z" opacity="0.2"/><path d="M160,32h-8a16,16,0,0,0-16,16v56H55.2A40.07,40.07,0,0,0,16,72a8,8,0,0,0,0,16,24,24,0,0,1,24,24,80.09,80.09,0,0,0,80,80h40a80,80,0,0,0,0-160Zm63.48,72H166.81l41.86-33.49A63.73,63.73,0,0,1,223.48,104ZM160,48a63.59,63.59,0,0,1,36.69,11.61L152,95.35V48Zm0,128H120a64.09,64.09,0,0,1-63.5-56h167A64.09,64.09,0,0,1,160,176Zm-56,48a16,16,0,1,1-16-16A16,16,0,0,1,104,224Zm104,0a16,16,0,1,1-16-16A16,16,0,0,1,208,224Z"/></svg>