<svg xmlns="http://www.w3.org/2000/svg" viewBox="0 0 256 256" fill="currentColor"><path d="M216,40H68.53a16.08,16.08,0,0,0-13.72,7.77L9.14,123.88a8,8,0,0,0,0,8.24l45.67,76.11A16.08,16.08,0,0,0,68.53,216H216a16,16,0,0,0,16-16V56A16,16,0,0,0,216,40ZM61.67,204.12,68.53,200h0ZM216,200H68.53l-43.2-72,43.2-72H216ZM106.34,146.34,124.69,128l-18.35-18.34a8,8,0,0,1,11.32-11.32L136,116.69l18.34-18.35a8,8,0,0,1,11.32,11.32L147.31,128l18.35,18.34a8,8,0,0,1-11.32,11.32L136,139.31l-18.34,18.35a8,8,0,0,1-11.32-11.32Z"/></svg>