<svg xmlns="http://www.w3.org/2000/svg" viewBox="0 0 256 256" fill="currentColor"><path d="M178.91,128l30.55-30.54a36,36,0,0,0-50.92-50.92L128,77.09,97.46,46.54A36,36,0,0,0,46.54,97.46L77.09,128,46.54,158.54a36,36,0,0,0,50.92,50.92L128,178.91l30.54,30.55a36,36,0,0,0,50.92-50.92ZM164.2,52.2a28,28,0,0,1,39.6,39.6l-30.55,30.54L133.66,82.75Zm3.4,75.8L128,167.6,88.4,128,128,88.4ZM52.2,91.8A28,28,0,0,1,91.8,52.2l30.54,30.55L82.75,122.34Zm39.6,112a28,28,0,0,1-39.6-39.6l30.55-30.54,39.59,39.59Zm112,0a28,28,0,0,1-39.6,0l-30.54-30.55,39.59-39.59L203.8,164.2a28,28,0,0,1,0,39.6ZM120,128a8,8,0,1,1,8,8A8,8,0,0,1,120,128Z"/></svg>