<svg xmlns="http://www.w3.org/2000/svg" viewBox="0 0 256 256" fill="currentColor"><path d="M232,52V92a12,12,0,0,1-24,0V64H180a12,12,0,0,1,0-24h40A12,12,0,0,1,232,52ZM76,192H48V164a12,12,0,0,0-24,0v40a12,12,0,0,0,12,12H76a12,12,0,0,0,0-24Zm144-40a12,12,0,0,0-12,12v28H180a12,12,0,0,0,0,24h40a12,12,0,0,0,12-12V164A12,12,0,0,0,220,152ZM36,104A12,12,0,0,0,48,92V64H76a12,12,0,0,0,0-24H36A12,12,0,0,0,24,52V92A12,12,0,0,0,36,104ZM88,80A12,12,0,0,0,76,92v72a12,12,0,0,0,24,0V92A12,12,0,0,0,88,80Zm92,84V92a12,12,0,0,0-24,0v72a12,12,0,0,0,24,0ZM128,80a12,12,0,0,0-12,12v72a12,12,0,0,0,24,0V92A12,12,0,0,0,128,80Z"/></svg>