<svg xmlns="http://www.w3.org/2000/svg" viewBox="0 0 256 256" fill="currentColor"><path d="M128,28A100,100,0,1,0,228,128,100.11,100.11,0,0,0,128,28Zm67.31,162.64c-1.55-1.66-3.05-3.38-4.46-5.14a4,4,0,0,0-6.24,5c1.58,2,3.26,3.9,5,5.76a91.82,91.82,0,0,1-123.22,0c1.74-1.86,3.42-3.78,5-5.76a4,4,0,0,0-6.24-5c-1.41,1.76-2.91,3.48-4.46,5.14a91.81,91.81,0,0,1,0-125.28c1.55,1.66,3.05,3.38,4.46,5.14a4,4,0,0,0,6.24-5c-1.58-2-3.26-3.9-5-5.76a91.82,91.82,0,0,1,123.22,0c-1.74,1.86-3.42,3.78-5,5.76a4,4,0,1,0,6.24,5c1.41-1.76,2.91-3.48,4.46-5.14a91.81,91.81,0,0,1,0,125.28Zm-103.37-46a98.57,98.57,0,0,1-4.3,16.67A4,4,0,0,1,83.86,164a3.88,3.88,0,0,1-1.33-.23,4,4,0,0,1-2.44-5.1,92.07,92.07,0,0,0,4-15.33,4,4,0,0,1,7.88,1.32Zm0-33.32a4,4,0,0,1-3.28,4.6A3.77,3.77,0,0,1,88,116a4,4,0,0,1-3.94-3.34,92.07,92.07,0,0,0-4-15.33,4,4,0,0,1,7.55-2.66A98.57,98.57,0,0,1,91.94,111.34Zm84,47.33a4,4,0,0,1-2.44,5.1,3.88,3.88,0,0,1-1.33.23,4,4,0,0,1-3.78-2.67,98.57,98.57,0,0,1-4.3-16.67,4,4,0,0,1,7.88-1.32A92.07,92.07,0,0,0,175.91,158.67Zm0-61.34a92.07,92.07,0,0,0-4,15.33A4,4,0,0,1,168,116a3.68,3.68,0,0,1-.66-.06,4,4,0,0,1-3.28-4.6,98.57,98.57,0,0,1,4.3-16.67,4,4,0,0,1,7.55,2.66Z"/></svg>