<svg xmlns="http://www.w3.org/2000/svg" viewBox="0 0 256 256" fill="currentColor"><path d="M128,24A104,104,0,1,0,232,128,104.11,104.11,0,0,0,128,24ZM72.09,195.91c.82-1,1.64-1.93,2.42-2.91A8,8,0,1,0,62,183l-1.34,1.62a87.82,87.82,0,0,1,0-113.24L62,73A8,8,0,1,0,74.51,63c-.78-1-1.6-2-2.42-2.91a87.84,87.84,0,0,1,111.82,0c-.82,1-1.64,1.92-2.42,2.91A8,8,0,1,0,194,73l1.34-1.62a87.82,87.82,0,0,1,0,113.24L194,183a8,8,0,1,0-12.48,10c.78,1,1.6,1.95,2.42,2.91a87.84,87.84,0,0,1-111.82,0Zm23.8-50.59a104.5,104.5,0,0,1-4.48,17.35,8,8,0,0,1-15.09-5.34,87.1,87.1,0,0,0,3.79-14.65,8,8,0,1,1,15.78,2.64Zm0-34.64a8,8,0,0,1-6.57,9.21A8.52,8.52,0,0,1,88,120a8,8,0,0,1-7.88-6.68,87.1,87.1,0,0,0-3.79-14.65,8,8,0,0,1,15.09-5.34A104.5,104.5,0,0,1,95.89,110.68Zm78.91,56.86a8,8,0,0,1-10.21-4.87,104.5,104.5,0,0,1-4.48-17.35,8,8,0,1,1,15.78-2.64,87.1,87.1,0,0,0,3.79,14.65A8,8,0,0,1,174.8,167.54Zm-14.69-56.86a104.5,104.5,0,0,1,4.48-17.35,8,8,0,0,1,15.09,5.34,87.1,87.1,0,0,0-3.79,14.65A8,8,0,0,1,168,120a8.52,8.52,0,0,1-1.33-.11A8,8,0,0,1,160.11,110.68Z"/></svg>