<svg xmlns="http://www.w3.org/2000/svg" viewBox="0 0 256 256" fill="currentColor"><path d="M128,20A108,108,0,1,0,236,128,108.12,108.12,0,0,0,128,20ZM60,177.28A83.59,83.59,0,0,1,44.87,140H75.14A83.1,83.1,0,0,1,60,177.28ZM44.87,116A83.59,83.59,0,0,1,60,78.72,83.1,83.1,0,0,1,75.14,116ZM116,211.13a83.63,83.63,0,0,1-39-16.46A106.94,106.94,0,0,0,99.34,140H116ZM116,116H99.34A106.94,106.94,0,0,0,77,61.33a83.63,83.63,0,0,1,39-16.46Zm80-37.28A83.59,83.59,0,0,1,211.13,116H180.86A83.1,83.1,0,0,1,196,78.72ZM140,211.13V140h16.66A106.94,106.94,0,0,0,179,194.67,83.63,83.63,0,0,1,140,211.13ZM156.66,116H140V44.87a83.63,83.63,0,0,1,39,16.46A106.94,106.94,0,0,0,156.66,116ZM196,177.28A83.1,83.1,0,0,1,180.86,140h30.27A83.59,83.59,0,0,1,196,177.28Z"/></svg>