<svg xmlns="http://www.w3.org/2000/svg" viewBox="0 0 256 256" fill="currentColor"><path d="M128,26A102,102,0,1,0,230,128,102.12,102.12,0,0,0,128,26ZM60,69.09A89.23,89.23,0,0,1,81.78,122H38.2A89.65,89.65,0,0,1,60,69.09ZM38.2,134H81.78A89.23,89.23,0,0,1,60,186.91,89.65,89.65,0,0,1,38.2,134ZM122,217.8a89.66,89.66,0,0,1-53.5-22.34A101.18,101.18,0,0,0,93.82,134H122Zm0-95.8H93.82A101.18,101.18,0,0,0,68.5,60.54,89.66,89.66,0,0,1,122,38.2Zm95.8,0H174.22A89.23,89.23,0,0,1,196,69.09,89.65,89.65,0,0,1,217.8,122ZM134,38.2a89.66,89.66,0,0,1,53.5,22.34A101.18,101.18,0,0,0,162.18,122H134Zm0,179.6V134h28.18a101.18,101.18,0,0,0,25.32,61.46A89.66,89.66,0,0,1,134,217.8Zm62-30.89A89.23,89.23,0,0,1,174.22,134H217.8A89.65,89.65,0,0,1,196,186.91Z"/></svg>