<svg xmlns="http://www.w3.org/2000/svg" viewBox="0 0 256 256" fill="currentColor"><path d="M134,120v56a6,6,0,0,1-12,0V120a6,6,0,0,1,12,0Zm40.83-.6-5.6,56A6,6,0,0,0,174.6,182l.61,0a6,6,0,0,0,6-5.4l5.6-56a6,6,0,0,0-11.94-1.2Zm-93.66,0a6,6,0,0,0-11.94,1.2l5.6,56a6,6,0,0,0,6,5.4l.61,0a6,6,0,0,0,5.37-6.57ZM238,88.79,222.87,201.85A14,14,0,0,1,209,214H47a14,14,0,0,1-13.87-12.15L18.05,88.79A6,6,0,0,1,24,82H69.28l54.2-61.95a6,6,0,0,1,9,0l54.2,62H232A6,6,0,0,1,238,88.79ZM85.22,82h85.56L128,33.11ZM225.15,94H30.85L45,200.26A2,2,0,0,0,47,202H209a2,2,0,0,0,2-1.74Z"/></svg>