<svg xmlns="http://www.w3.org/2000/svg" viewBox="0 0 256 256" fill="currentColor"><path d="M240,104v40a48,48,0,0,1-48,48H64a48,48,0,0,1-48-48V104H136v40h64V104Z" opacity="0.2"/><path d="M240,96H208a8,8,0,0,0-8-8H136a8,8,0,0,0-8,8H64V52A12,12,0,0,1,76,40a12.44,12.44,0,0,1,12.16,9.59,8,8,0,0,0,15.68-3.18A28.32,28.32,0,0,0,76,24,28,28,0,0,0,48,52V96H16a8,8,0,0,0-8,8v40a56.06,56.06,0,0,0,56,56v16a8,8,0,0,0,16,0V200h96v16a8,8,0,0,0,16,0V200a56.06,56.06,0,0,0,56-56V104A8,8,0,0,0,240,96Zm-48,8v32H144V104Zm40,40a40,40,0,0,1-40,40H64a40,40,0,0,1-40-40V112H128v32a8,8,0,0,0,8,8h64a8,8,0,0,0,8-8V112h24Z"/></svg>