<svg xmlns="http://www.w3.org/2000/svg" viewBox="0 0 256 256" fill="currentColor"><path d="M92,12A12,12,0,0,1,104,0h48a12,12,0,0,1,0,24H104A12,12,0,0,1,92,12ZM204,60V228a28,28,0,0,1-28,28H80a28,28,0,0,1-28-28V60A28,28,0,0,1,80,32h96A28,28,0,0,1,204,60Zm-24,0a4,4,0,0,0-4-4H80a4,4,0,0,0-4,4V228a4,4,0,0,0,4,4h96a4,4,0,0,0,4-4ZM156,72H100a12,12,0,0,0,0,24h56a12,12,0,0,0,0-24Zm0,40H100a12,12,0,0,0,0,24h56a12,12,0,0,0,0-24Zm0,40H100a12,12,0,0,0,0,24h56a12,12,0,0,0,0-24Zm0,40H100a12,12,0,0,0,0,24h56a12,12,0,0,0,0-24Z"/></svg>