<svg xmlns="http://www.w3.org/2000/svg" viewBox="0 0 256 256" fill="currentColor"><path d="M128,20A108,108,0,1,0,236,128,108.12,108.12,0,0,0,128,20Zm84,108a84.26,84.26,0,0,1-1.32,14.74,204.79,204.79,0,0,0-18.52-31.49,176.78,176.78,0,0,1,19.08,5.62A85,85,0,0,1,212,128Zm-9.61-38.94a204.25,204.25,0,0,0-30-5.47,204.25,204.25,0,0,0-5.47-30A84.53,84.53,0,0,1,202.39,89.06Zm-63.26-44.3a176.78,176.78,0,0,1,5.62,19.08,204.79,204.79,0,0,0-31.49-18.52,82.49,82.49,0,0,1,25.87-.56ZM81.07,58.36a179.84,179.84,0,0,1,49.8,25.06,204.19,204.19,0,0,0-85.23,28.05A84.23,84.23,0,0,1,81.07,58.36ZM45,140.65a180.19,180.19,0,0,1,104.62-34.22,180.19,180.19,0,0,1-34.22,104.62A84.22,84.22,0,0,1,45,140.65Zm99.58,69.71a204.19,204.19,0,0,0,28.05-85.23,179.84,179.84,0,0,1,25.06,49.8A84.23,84.23,0,0,1,144.53,210.36Z"/></svg>