<svg xmlns="http://www.w3.org/2000/svg" viewBox="0 0 256 256" fill="currentColor"><path d="M244.24,43.76l-32-32a6,6,0,0,0-8.48,8.48l3.11,3.11-57.38,43-38.67,7.74a5.92,5.92,0,0,0-3.06,1.64L24.44,159.07a22,22,0,0,0,0,31.11l41.38,41.38a22,22,0,0,0,31.11,0l83.31-83.32a5.92,5.92,0,0,0,1.64-3.06l7.74-38.67,43-57.38,3.11,3.11a6,6,0,0,0,8.48-8.48ZM88.44,223.07a10,10,0,0,1-14.14,0L32.93,181.7a10,10,0,0,1,0-14.14L40,160.49,95.51,216ZM104,207.51,48.49,152,96,104.49,151.51,160ZM179.2,100.4a5.88,5.88,0,0,0-1.08,2.42L170.47,141,160,151.51,104.49,96,115,85.53l38.22-7.65a5.88,5.88,0,0,0,2.42-1.08l59.84-44.88,8.64,8.64Z"/></svg>