<svg xmlns="http://www.w3.org/2000/svg" viewBox="0 0 256 256" fill="currentColor"><path d="M192,72V208a8,8,0,0,1-8,8H56a8,8,0,0,1-8-8V72Z" opacity="0.2"/><path d="M104,104v80a8,8,0,0,1-16,0V104a8,8,0,0,1,16,0Zm40-8a8,8,0,0,0-8,8v80a8,8,0,0,0,16,0V104A8,8,0,0,0,144,96Zm96,16v64a24,24,0,0,1-24,24H200v8a16,16,0,0,1-16,16H56a16,16,0,0,1-16-16V72c0-30.88,28.71-56,64-56,16.77,0,32.91,5.8,44.82,16H160a40,40,0,0,1,40,40V88h16A24,24,0,0,1,240,112ZM57,64H182.62A24,24,0,0,0,160,48H145.74a8,8,0,0,1-5.53-2.22C131.06,37,117.87,32,104,32,80.82,32,61.43,45.76,57,64ZM184,208V192.17c0-.06,0-.11,0-.17s0-.11,0-.17V80H56V208H184Zm40-96a8,8,0,0,0-8-8H200v80h16a8,8,0,0,0,8-8Z"/></svg>