<svg xmlns="http://www.w3.org/2000/svg" viewBox="0 0 256 256" fill="currentColor"><path d="M208,192H48a8,8,0,0,1-6.88-12C47.71,168.6,56,139.81,56,104a72,72,0,0,1,144,0c0,35.82,8.3,64.6,14.9,76A8,8,0,0,1,208,192Z" opacity="0.2"/><path d="M168,224a8,8,0,0,1-8,8H96a8,8,0,1,1,0-16h64A8,8,0,0,1,168,224Zm53.85-32A15.8,15.8,0,0,1,208,200H48a16,16,0,0,1-13.8-24.06C39.75,166.38,48,139.34,48,104a80,80,0,1,1,160,0c0,35.33,8.26,62.38,13.81,71.94A15.89,15.89,0,0,1,221.84,192ZM208,184c-7.73-13.27-16-43.95-16-80a64,64,0,1,0-128,0c0,36.06-8.28,66.74-16,80Z"/></svg>