<svg xmlns="http://www.w3.org/2000/svg" viewBox="0 0 256 256" fill="currentColor"><path d="M52.44,36A6,6,0,0,0,43.56,44L61.31,63.56A77.45,77.45,0,0,0,50,104c0,35.74-8.42,63.2-14.08,72.94A14,14,0,0,0,48,198H183.53l20,22a6,6,0,0,0,8.88-8.08ZM48,186a1.9,1.9,0,0,1-1.7-1,2,2,0,0,1,0-2C53.86,170,62,139.69,62,104a65.63,65.63,0,0,1,7.78-31.12L172.62,186Zm118,38a6,6,0,0,1-6,6H96a6,6,0,0,1,0-12h64A6,6,0,0,1,166,224Zm47.27-46.62a5.88,5.88,0,0,1-2.2.42,6,6,0,0,1-5.58-3.81c-7.2-18.31-11.49-44.48-11.49-70A66,66,0,0,0,95.45,46.57a6,6,0,1,1-5.93-10.43A78,78,0,0,1,206,104c0,35.7,8.16,59.24,10.66,65.61A6,6,0,0,1,213.27,177.38Z"/></svg>