<svg xmlns="http://www.w3.org/2000/svg" viewBox="0 0 256 256" fill="currentColor"><path d="M216.88,207.93l-160-176A12,12,0,1,0,39.12,48.07l14.8,16.29A83.58,83.58,0,0,0,44,104c0,25.58-4.59,47-13.27,61.93A20.08,20.08,0,0,0,30.68,186,19.75,19.75,0,0,0,48,196H173.6l25.52,28.07a12,12,0,0,0,17.76-16.14ZM54.68,172C63.52,154,68,131.14,68,104a59.84,59.84,0,0,1,3.52-20.29L151.78,172ZM172,224a12,12,0,0,1-12,12H96a12,12,0,0,1,0-24h64A12,12,0,0,1,172,224ZM88.89,42.35a12,12,0,0,1,6.37-15.73A84,84,0,0,1,212,104c0,18.68,2.38,34.93,7.07,48.28a12,12,0,1,1-22.64,8C190.83,144.32,188,125.4,188,104a60,60,0,0,0-83.38-55.28A12,12,0,0,1,88.89,42.35Z"/></svg>