<svg xmlns="http://www.w3.org/2000/svg" viewBox="0 0 256 256" fill="currentColor"><path d="M208,116a43.66,43.66,0,0,0-18.62,4.15L159,68h33a12,12,0,0,1,12,12,4,4,0,0,0,8,0,20,20,0,0,0-20-20H152a4,4,0,0,0-3.46,6L163.7,92H97L79.46,62A4,4,0,0,0,76,60H48a4,4,0,0,0,0,8H73.7L89.89,95.76,70.57,122.25A44.21,44.21,0,1,0,77,127L94.29,103.3,128.54,162a4,4,0,0,0,3.46,2,4.11,4.11,0,0,0,2-.54,4,4,0,0,0,1.44-5.48l-33.83-58h66.74l14.11,24.19A44,44,0,1,0,208,116ZM84,160a36,36,0,1,1-18.16-31.25L44.77,157.64a4,4,0,0,0,6.46,4.72l21.07-28.9A35.92,35.92,0,0,1,84,160Zm124,36a36,36,0,0,1-21.47-64.88l18,30.9a4,4,0,0,0,3.46,2,4.11,4.11,0,0,0,2-.54,4,4,0,0,0,1.44-5.48l-18-30.89A36,36,0,1,1,208,196Z"/></svg>