<svg xmlns="http://www.w3.org/2000/svg" viewBox="0 0 256 256" fill="currentColor"><path d="M233,147.24,191.43,52.6a6,6,0,0,0-1.25-1.83,30,30,0,0,0-42.42,0A6,6,0,0,0,146,55V82H110V55a6,6,0,0,0-1.76-4.25,30,30,0,0,0-42.42,0,6,6,0,0,0-1.25,1.83L23,147.24A46,46,0,1,0,110,168V94h36v74a46,46,0,1,0,87-20.76ZM64,202a34,34,0,1,1,34-34A34,34,0,0,1,64,202Zm0-80a45.77,45.77,0,0,0-18.55,3.92L75.06,58.54A18,18,0,0,1,98,57.71V137A45.89,45.89,0,0,0,64,122Zm94-64.28a18,18,0,0,1,22.94.83l29.61,67.37A45.9,45.9,0,0,0,158,137ZM192,202a34,34,0,1,1,34-34A34,34,0,0,1,192,202Z"/></svg>