<svg xmlns="http://www.w3.org/2000/svg" viewBox="0 0 256 256" fill="currentColor"><path d="M183,108.08A60.22,60.22,0,0,0,178.06,99a56,56,0,0,0-24.21-74.73,4,4,0,1,0-3.7,7.09,48,48,0,0,1,22.37,60.49,59.91,59.91,0,0,0-89.05,0,48,48,0,0,1,22.38-60.5,4,4,0,0,0-3.7-7.1A56,56,0,0,0,77.93,99,60.85,60.85,0,0,0,73,108.08,56.07,56.07,0,0,0,20,164a4,4,0,0,0,8,0,48.06,48.06,0,0,1,42.08-47.62,60,60,0,0,0,45.75,74.38,48,48,0,0,1-65.67,13.7,4,4,0,1,0-4.32,6.73,56,56,0,0,0,78.69-19.3c1.15.07,2.3.11,3.47.11s2.32,0,3.47-.11a56,56,0,0,0,78.69,19.3,4,4,0,1,0-4.32-6.73,48,48,0,0,1-65.67-13.7,60,60,0,0,0,45.75-74.38A48.06,48.06,0,0,1,228,164a4,4,0,0,0,8,0A56.07,56.07,0,0,0,183,108.08Zm-8.75.21c-.79.08-1.56.19-2.34.3.5-.63,1-1.28,1.46-1.93C173.69,107.2,174,107.74,174.26,108.29ZM128,80a51.93,51.93,0,0,1,40.57,19.52,48,48,0,0,1-81.15,0A51.94,51.94,0,0,1,128,80Zm8.07,49.33A56.11,56.11,0,0,0,128,143.25a55.87,55.87,0,0,0-8.07-13.91,56.43,56.43,0,0,0,8.06.58A55.29,55.29,0,0,0,136.07,129.33Zm-52-20.74c-.77-.11-1.54-.22-2.32-.3q.42-.81.87-1.62C83.08,107.32,83.56,108,84.06,108.59ZM76,132a51.78,51.78,0,0,1,2.51-15.93,48,48,0,0,1,41.39,67.3A52.08,52.08,0,0,1,76,132Zm60.1,51.37a48,48,0,0,1,41.39-67.3,52,52,0,0,1-41.39,67.3Z"/></svg>