<svg xmlns="http://www.w3.org/2000/svg" viewBox="0 0 256 256" fill="currentColor"><path d="M185.68,104.28q-1.4-2.88-3.06-5.6a60,60,0,0,0-26.92-78,8,8,0,0,0-7.4,14.19A44,44,0,0,1,170.72,84.4a63.85,63.85,0,0,0-85.46,0A44,44,0,0,1,107.7,34.87a8,8,0,1,0-7.4-14.19,60,60,0,0,0-26.93,78,62.59,62.59,0,0,0-3.05,5.58A60.07,60.07,0,0,0,16,164a8,8,0,0,0,16,0,44.09,44.09,0,0,1,32.89-42.58A63.94,63.94,0,0,0,109,193.11a44,44,0,0,1-56.65,8,8,8,0,1,0-8.62,13.47A60,60,0,0,0,126.74,196l1.26,0,1.26,0a60,60,0,0,0,83.05,18.59,8,8,0,1,0-8.62-13.47,44,44,0,0,1-56.65-8,63.94,63.94,0,0,0,44.07-71.69A44.09,44.09,0,0,1,224,164a8,8,0,0,0,16,0A60.07,60.07,0,0,0,185.68,104.28ZM128,84a47.91,47.91,0,0,1,35.56,15.79,44,44,0,0,1-71.13,0A47.89,47.89,0,0,1,128,84Zm.12,49.92-.12.2-.12-.2h.24ZM80,132a47.6,47.6,0,0,1,1.44-11.65,44,44,0,0,1,36,58.46A48.07,48.07,0,0,1,80,132Zm58.57,46.81a44,44,0,0,1,36-58.46,48,48,0,0,1-36,58.46Z"/></svg>