<svg xmlns="http://www.w3.org/2000/svg" viewBox="0 0 256 256" fill="currentColor"><path d="M192,80l-64,48V32ZM128,224l64-48-64-48Z" opacity="0.2"/><path d="M196.8,169.6,141.33,128,196.8,86.4a8,8,0,0,0,0-12.8l-64-48A8,8,0,0,0,120,32v80L68.8,73.6a8,8,0,0,0-9.6,12.8L114.67,128,59.2,169.6a8,8,0,1,0,9.6,12.8L120,144v80a8,8,0,0,0,12.8,6.4l64-48a8,8,0,0,0,0-12.8ZM136,48l42.67,32L136,112Zm0,160V144l42.67,32ZM60,140a12,12,0,1,1,12-12A12,12,0,0,1,60,140Zm156-12a12,12,0,1,1-12-12A12,12,0,0,1,216,128Z"/></svg>