<svg xmlns="http://www.w3.org/2000/svg" viewBox="0 0 256 256" fill="currentColor"><path d="M232,60H68V40a4,4,0,0,0-4-4H48A28,28,0,0,0,20,64V176a28,28,0,0,0,28,28H232a4,4,0,0,0,4-4V64A4,4,0,0,0,232,60ZM28,64A20,20,0,0,1,48,44H60V148H48a27.94,27.94,0,0,0-20,8.42ZM228,196H48a20,20,0,0,1,0-40H64a4,4,0,0,0,4-4V68H228ZM104,140a4,4,0,0,0,0,8h20v12a4,4,0,0,0,8,0V148h32v12a4,4,0,0,0,8,0V148h20a4,4,0,0,0,0-8H172V116h20a4,4,0,0,0,0-8H172V96a4,4,0,0,0-8,0v12H132V96a4,4,0,0,0-8,0v12H104a4,4,0,0,0,0,8h20v24Zm28-24h32v24H132Z"/></svg>