<svg xmlns="http://www.w3.org/2000/svg" viewBox="0 0 256 256" fill="currentColor"><path d="M221.06,110.59,208,106.23V56a16,16,0,0,0-16-16H136V24a8,8,0,0,0-16,0V40H64A16,16,0,0,0,48,56v50.23l-13.06,4.36A16,16,0,0,0,24,125.77V152c0,61.54,97.89,86.72,102.06,87.76a8,8,0,0,0,3.88,0C134.11,238.72,232,213.54,232,152V125.77A16,16,0,0,0,221.06,110.59ZM64,56H192v44.9L130.53,80.41a8,8,0,0,0-5.06,0L64,100.9Zm152,96c0,24.91-23.68,43-43.55,53.83A228.13,228.13,0,0,1,128,223.72,226.85,226.85,0,0,1,83.81,206C47.6,186.35,40,165.79,40,152V125.77L120,99.1V168a8,8,0,0,0,16,0V99.1l80,26.67Z"/></svg>