<svg xmlns="http://www.w3.org/2000/svg" viewBox="0 0 256 256" fill="currentColor"><path d="M219.79,114.38,204,109.12V56a12,12,0,0,0-12-12H132V24a4,4,0,0,0-8,0V44H64A12,12,0,0,0,52,56v53.12l-15.8,5.26A12,12,0,0,0,28,125.77V152c0,24.46,17.32,46.77,50.09,64.52A233.22,233.22,0,0,0,127,235.88a4,4,0,0,0,1.94,0,233.22,233.22,0,0,0,48.94-19.36C210.68,198.77,228,176.46,228,152V125.77A12,12,0,0,0,219.79,114.38ZM60,56a4,4,0,0,1,4-4H192a4,4,0,0,1,4,4v50.45L129.26,84.21a3.89,3.89,0,0,0-2.52,0L60,106.45Zm160,96c0,49.32-82.08,73.16-92,75.86-9.92-2.7-92-26.54-92-75.86V125.77a4,4,0,0,1,2.73-3.8L124,93.55V168a4,4,0,0,0,8,0V93.55L217.26,122a4,4,0,0,1,2.74,3.8Z"/></svg>