<svg xmlns="http://www.w3.org/2000/svg" viewBox="0 0 256 256" fill="currentColor"><path d="M248,34a6,6,0,0,0-6,6,54.1,54.1,0,0,1-3.57,17.77C234.06,68.69,226.72,74,216,74c-12.91,0-21.76-12.38-31.12-25.49C174.67,34.21,163.09,18,144,18c-15.74,0-27.35,8.22-33.57,23.77a65.36,65.36,0,0,0-4,16.23H88A14,14,0,0,0,74,72V82.83A86,86,0,0,0,112,246h1.55A86,86,0,0,0,150,82.83V72a14,14,0,0,0-14-14H118.53a51.39,51.39,0,0,1,3.15-12c4.38-10.74,11.69-16,22.32-16,12.91,0,21.75,12.38,31.12,25.49C185.33,69.79,196.91,86,216,86c15.74,0,27.35-8.22,33.57-23.77A66.46,66.46,0,0,0,254,40,6,6,0,0,0,248,34ZM138,72V86.66a6,6,0,0,0,3.6,5.49,74,74,0,1,1-59.2,0A6,6,0,0,0,86,86.66V72a2,2,0,0,1,2-2h48A2,2,0,0,1,138,72ZM105,202.08A6,6,0,0,1,104,214a6.74,6.74,0,0,1-1-.08A55.48,55.48,0,0,1,58.08,169a6,6,0,1,1,11.84-2A43.29,43.29,0,0,0,105,202.08Z"/></svg>