<svg xmlns="http://www.w3.org/2000/svg" viewBox="0 0 256 256" fill="currentColor"><path d="M235.57,193.73,202.38,35.93a20,20,0,0,0-23.76-15.48L131.81,30.51a19.82,19.82,0,0,0-11,6.65A20,20,0,0,0,104,28H56A20,20,0,0,0,36,48V208a20,20,0,0,0,20,20h48a20,20,0,0,0,20-20V90.25l25.62,121.82A20,20,0,0,0,169.15,228a20.27,20.27,0,0,0,4.23-.45l46.81-10.06A20.1,20.1,0,0,0,235.57,193.73ZM148.19,88.65l39-8.38,2.53,12-39,8.38Zm7.46,35.5,39-8.38,9.16,43.58-39,8.38Zm24.06-79.39,2.53,12-39,8.38-2.53-12ZM60,88h40v80H60Zm40-36V64H60V52ZM60,204V192h40v12Zm112.29-.76-2.53-12,39-8.38,2.53,12Z"/></svg>