<svg xmlns="http://www.w3.org/2000/svg" viewBox="0 0 256 256" fill="currentColor"><path d="M192,116H156V56a12,12,0,0,0-12-12H32a4,4,0,0,0-3.73,5.43c9.29,24.23,11.46,77.22-.11,117.46A3.82,3.82,0,0,0,28,168v32a12,12,0,0,0,12,12H66.11a12.08,12.08,0,0,0,5.37-1.27l12.62-6.31a4.09,4.09,0,0,1,1.79-.42h16.22a4.09,4.09,0,0,1,1.79.42l12.62,6.31a12.08,12.08,0,0,0,5.37,1.27h28.22a12.08,12.08,0,0,0,5.37-1.27l12.62-6.31a4.09,4.09,0,0,1,1.79-.42h16.22a4.09,4.09,0,0,1,1.79.42l12.62,6.31a12.08,12.08,0,0,0,5.37,1.27H232a12,12,0,0,0,12-12V168A52.06,52.06,0,0,0,192,116ZM37.6,52H144a4,4,0,0,1,4,4V84H112a4,4,0,0,0,0,8h36v24H112a4,4,0,0,0,0,8h80a44.06,44.06,0,0,1,43.81,40H37.2C45.24,131.81,47,82.65,37.6,52ZM236,200a4,4,0,0,1-4,4H205.89a4.09,4.09,0,0,1-1.79-.42l-12.62-6.31a12.08,12.08,0,0,0-5.37-1.27H169.89a12.08,12.08,0,0,0-5.37,1.27l-12.62,6.31a4.09,4.09,0,0,1-1.79.42H121.89a4.09,4.09,0,0,1-1.79-.42l-12.62-6.31a12.08,12.08,0,0,0-5.37-1.27H85.89a12.08,12.08,0,0,0-5.37,1.27L67.9,203.58a4.09,4.09,0,0,1-1.79.42H40a4,4,0,0,1-4-4V172H236Z"/></svg>