<svg xmlns="http://www.w3.org/2000/svg" viewBox="0 0 256 256" fill="currentColor"><path d="M224,114H32a6,6,0,0,0-6,6,102.35,102.35,0,0,0,56,91.06V216a14,14,0,0,0,14,14h64a14,14,0,0,0,14-14v-4.94A102.35,102.35,0,0,0,230,120,6,6,0,0,0,224,114Zm-58.5,87.84a6,6,0,0,0-3.5,5.45V216a2,2,0,0,1-2,2H96a2,2,0,0,1-2-2v-8.71a6,6,0,0,0-3.5-5.45A90.35,90.35,0,0,1,38.2,126H217.8A90.35,90.35,0,0,1,165.5,201.84ZM83.32,56.24c5.05-6.28,7.41-11.73,6.48-15-.72-2.53-3.64-3.57-3.67-3.58A6,6,0,0,1,88,26a5.81,5.81,0,0,1,1.78.27c.91.28,8.9,3,11.48,11.44,2.26,7.39-.63,16.15-8.58,26.05-5.05,6.28-7.41,11.73-6.48,15,.72,2.53,3.64,3.57,3.67,3.58A6,6,0,0,1,88,94a5.81,5.81,0,0,1-1.78-.27c-.91-.28-8.9-3-11.48-11.44C72.48,74.9,75.37,66.14,83.32,56.24Zm40,0c5.05-6.28,7.41-11.73,6.48-15-.72-2.53-3.64-3.57-3.67-3.58A6,6,0,0,1,128,26a5.81,5.81,0,0,1,1.78.27c.91.28,8.9,3,11.48,11.44,2.26,7.39-.63,16.15-8.58,26.05-5.05,6.28-7.41,11.73-6.48,15,.72,2.53,3.64,3.57,3.67,3.58A6,6,0,0,1,128,94a5.81,5.81,0,0,1-1.78-.27c-.91-.28-8.9-3-11.48-11.44C112.48,74.9,115.37,66.14,123.32,56.24Zm40,0c5.05-6.28,7.41-11.73,6.48-15-.72-2.53-3.64-3.57-3.67-3.58A6,6,0,0,1,168,26a5.81,5.81,0,0,1,1.78.27c.91.28,8.9,3,11.48,11.44,2.26,7.39-.63,16.15-8.58,26.05-5.05,6.28-7.41,11.73-6.48,15,.72,2.53,3.64,3.57,3.67,3.58A6,6,0,0,1,168,94a5.81,5.81,0,0,1-1.78-.27c-.91-.28-8.9-3-11.48-11.44C152.48,74.9,155.37,66.14,163.32,56.24Z"/></svg>