<svg xmlns="http://www.w3.org/2000/svg" viewBox="0 0 256 256" fill="currentColor"><path d="M224,120a96,96,0,0,1-56,87.3V216a8,8,0,0,1-8,8H96a8,8,0,0,1-8-8v-8.7A96,96,0,0,1,32,120Z" opacity="0.2"/><path d="M81.77,55c5.35-6.66,6.67-11.16,6.12-13.14-.42-1.49-2.41-2.26-2.43-2.26A8,8,0,0,1,88,24a8.11,8.11,0,0,1,2.38.36c1,.31,9.91,3.33,12.79,12.76,2.46,8.07-.55,17.45-8.94,27.89-5.35,6.66-6.67,11.16-6.12,13.14.42,1.49,2.37,2.24,2.39,2.25A8,8,0,0,1,88,96a8.11,8.11,0,0,1-2.38-.36c-1-.31-9.91-3.33-12.79-12.76C70.37,74.81,73.38,65.43,81.77,55Zm31.06,27.89c2.88,9.43,11.79,12.45,12.79,12.76A8.11,8.11,0,0,0,128,96a8,8,0,0,0,2.5-15.6s-2-.76-2.39-2.25c-.55-2,.77-6.48,6.12-13.14,8.39-10.44,11.4-19.82,8.94-27.89-2.88-9.43-11.78-12.45-12.79-12.76A8.11,8.11,0,0,0,128,24a8,8,0,0,0-2.54,15.59s2,.77,2.43,2.26c.55,2-.77,6.48-6.12,13.14C113.38,65.43,110.37,74.81,112.83,82.88Zm40,0c2.88,9.43,11.79,12.45,12.79,12.76A8.11,8.11,0,0,0,168,96a8,8,0,0,0,2.5-15.6s-2-.76-2.39-2.25c-.55-2,.77-6.48,6.12-13.14,8.39-10.44,11.4-19.82,8.94-27.89-2.88-9.43-11.78-12.45-12.79-12.76A8.11,8.11,0,0,0,168,24a8,8,0,0,0-2.54,15.59s2,.77,2.43,2.26c.55,2-.77,6.48-6.12,13.14C153.38,65.43,150.37,74.81,152.83,82.88ZM232,120a104.35,104.35,0,0,1-56,92.28V216a16,16,0,0,1-16,16H96a16,16,0,0,1-16-16v-3.72A104.35,104.35,0,0,1,24,120a8,8,0,0,1,8-8H224A8,8,0,0,1,232,120Zm-16.37,8H40.37a88.29,88.29,0,0,0,51,72A8,8,0,0,1,96,207.29V216h64v-8.71a8,8,0,0,1,4.66-7.27A88.29,88.29,0,0,0,215.63,128Z"/></svg>