<svg xmlns="http://www.w3.org/2000/svg" viewBox="0 0 256 256" fill="currentColor"><path d="M224,100h-4.78a92,92,0,0,0-182.44,0H32a12,12,0,0,0-12,12,108.38,108.38,0,0,0,56,94.68V208a20,20,0,0,0,20,20h64a20,20,0,0,0,20-20v-1.32A108.38,108.38,0,0,0,236,112,12,12,0,0,0,224,100ZM170.29,60.06A92,92,0,0,0,127.19,100H106a68.27,68.27,0,0,1,62-40C168.76,60,169.52,60,170.29,60.06Zm17.22,19.08A67.66,67.66,0,0,1,194.92,100H156.13A67.91,67.91,0,0,1,187.51,79.14ZM128,44c.83,0,1.65,0,2.48.06A92.3,92.3,0,0,0,80.37,100H61.08A68.1,68.1,0,0,1,128,44Zm35,144.39a12,12,0,0,0-7,10.91V204H100v-4.7a12,12,0,0,0-7-10.91A84.32,84.32,0,0,1,44.87,124H211.13A84.32,84.32,0,0,1,163,188.39Z"/></svg>