<svg xmlns="http://www.w3.org/2000/svg" viewBox="0 0 256 256" fill="currentColor"><path d="M54.8,119.49A35.06,35.06,0,0,1,49.05,128a35.06,35.06,0,0,1,5.75,8.51C60,147.24,60,159.83,60,172c0,25.94,1.84,32,20,32a12,12,0,0,1,0,24c-19.14,0-32.2-6.9-38.8-20.51C36,196.76,36,184.17,36,172c0-25.94-1.84-32-20-32a12,12,0,0,1,0-24c18.16,0,20-6.06,20-32,0-12.17,0-24.76,5.2-35.49C47.8,34.9,60.86,28,80,28a12,12,0,0,1,0,24c-18.16,0-20,6.06-20,32C60,96.17,60,108.76,54.8,119.49ZM240,116c-18.16,0-20-6.06-20-32,0-12.17,0-24.76-5.2-35.49C208.2,34.9,195.14,28,176,28a12,12,0,0,0,0,24c18.16,0,20,6.06,20,32,0,12.17,0,24.76,5.2,35.49A35.06,35.06,0,0,0,207,128a35.06,35.06,0,0,0-5.75,8.51C196,147.24,196,159.83,196,172c0,25.94-1.84,32-20,32a12,12,0,0,0,0,24c19.14,0,32.2-6.9,38.8-20.51C220,196.76,220,184.17,220,172c0-25.94,1.84-32,20-32a12,12,0,0,0,0-24Z"/></svg>