<svg xmlns="http://www.w3.org/2000/svg" viewBox="0 0 256 256" fill="currentColor"><path d="M244,124a52.1,52.1,0,0,0-32-48V72a44,44,0,0,0-84-18.3A44,44,0,0,0,44,72v4a52,52,0,0,0,0,96v4a44,44,0,0,0,84,18.3A44,44,0,0,0,212,176v-4A52.07,52.07,0,0,0,244,124ZM88,212a36,36,0,0,1-36-36v-1.41A52.13,52.13,0,0,0,64,176h8a4,4,0,0,0,0-8H64A44,44,0,0,1,49.33,82.5,4,4,0,0,0,52,78.73V72a36,36,0,0,1,72,0v78.75A44,44,0,0,0,88,132a4,4,0,0,0,0,8,36,36,0,0,1,0,72Zm104-44h-8a4,4,0,0,0,0,8h8a52.13,52.13,0,0,0,12-1.41V176a36,36,0,1,1-36-36,4,4,0,0,0,0-8,44,44,0,0,0-36,18.75V72a36,36,0,0,1,72,0v6.73a4,4,0,0,0,2.67,3.77A44,44,0,0,1,192,168Zm12-56a4,4,0,0,1-4,4h-4a32,32,0,0,1-32-32V80a4,4,0,0,1,8,0v4a24,24,0,0,0,24,24h4A4,4,0,0,1,204,112ZM92,84a32,32,0,0,1-32,32H56a4,4,0,0,1,0-8h4A24,24,0,0,0,84,84V80a4,4,0,0,1,8,0Z"/></svg>