<svg xmlns="http://www.w3.org/2000/svg" viewBox="0 0 256 256" fill="currentColor"><path d="M128,90a38,38,0,1,0,38,38A38,38,0,0,0,128,90Zm0,64a26,26,0,1,1,26-26A26,26,0,0,1,128,154Zm78-26a77.74,77.74,0,0,1-19.86,52,6,6,0,0,1-8.94-8,65.93,65.93,0,0,0,0-88,6,6,0,1,1,8.94-8A77.74,77.74,0,0,1,206,128ZM67.18,102.31A65.93,65.93,0,0,0,78.8,172a6,6,0,0,1-.47,8.47,6,6,0,0,1-8.47-.47,77.93,77.93,0,0,1,0-104,6,6,0,1,1,8.94,8A66.21,66.21,0,0,0,67.18,102.31ZM246,128a117.71,117.71,0,0,1-33.71,82.58,6,6,0,0,1-8.58-8.4,105.88,105.88,0,0,0,0-148.36,6,6,0,0,1,8.58-8.4A117.71,117.71,0,0,1,246,128ZM52.29,202.18a6,6,0,0,1-8.58,8.4,117.92,117.92,0,0,1,0-165.16,6,6,0,1,1,8.58,8.4,105.88,105.88,0,0,0,0,148.36Z"/></svg>