<svg xmlns="http://www.w3.org/2000/svg" viewBox="0 0 256 256" fill="currentColor"><path d="M128,92a36,36,0,1,0,36,36A36,36,0,0,0,128,92Zm0,64a28,28,0,1,1,28-28A28,28,0,0,1,128,156Zm76-28a75.74,75.74,0,0,1-19.35,50.67,4,4,0,0,1-6-5.34,67.92,67.92,0,0,0,0-90.66,4,4,0,0,1,6-5.34A75.74,75.74,0,0,1,204,128ZM65.34,101.53a67.92,67.92,0,0,0,12,71.8,4,4,0,0,1-6,5.34,75.93,75.93,0,0,1,0-101.34,4,4,0,1,1,6,5.34A68,68,0,0,0,65.34,101.53ZM244,128a115.68,115.68,0,0,1-33.14,81.18,4,4,0,0,1-5.72-5.6,107.89,107.89,0,0,0,0-151.16,4,4,0,0,1,5.72-5.6A115.68,115.68,0,0,1,244,128ZM50.86,203.58a4,4,0,0,1-5.72,5.6,115.91,115.91,0,0,1,0-162.36,4,4,0,1,1,5.72,5.6,107.89,107.89,0,0,0,0,151.16Z"/></svg>