<svg xmlns="http://www.w3.org/2000/svg" viewBox="0 0 256 256" fill="currentColor"><path d="M234.62,218.6C211.35,207.29,198,183,198,152V134.7a14,14,0,0,0-8.82-13l-24.89-9.83a10,10,0,0,1-5.59-13L180,45.9a26,26,0,0,0-15-34.33c-12.95-4.83-27.88,1.84-33.31,15l-21,53.11a10,10,0,0,1-13,5.61L72.37,75a13.9,13.9,0,0,0-15.2,3.19C36.49,99.42,26,124.26,26,152a109.53,109.53,0,0,0,30.62,76.16A6,6,0,0,0,61,230H232a6,6,0,0,0,2.62-11.4ZM65.77,86.52a2,2,0,0,1,2.12-.43l25.4,10.29a22,22,0,0,0,28.63-12.32l21-53c3-7.13,11-10.81,18-8.21a14,14,0,0,1,8,18.54l-21.36,53.1A22.05,22.05,0,0,0,159.86,123l24.88,9.83A2,2,0,0,1,186,134.7V152c0,1.34,0,2.65.08,4L52.74,102.61A110.07,110.07,0,0,1,65.77,86.52ZM114.33,218a89.6,89.6,0,0,1-25.5-43.5,6,6,0,1,0-11.62,3A102.87,102.87,0,0,0,97.81,218H63.56A97.56,97.56,0,0,1,38,152a87.42,87.42,0,0,1,8.71-38.86L187.35,169.4c3.15,19.92,11.77,36.66,25,48.6Z"/></svg>