<svg xmlns="http://www.w3.org/2000/svg" viewBox="0 0 256 256" fill="currentColor"><path d="M140,88a16,16,0,1,1,16,16A16,16,0,0,1,140,88ZM100,72a16,16,0,1,0,16,16A16,16,0,0,0,100,72Zm120,72a91.84,91.84,0,0,1-2.34,20.64L236.81,173a12,12,0,0,1-9.62,22l-18-7.85a92,92,0,0,1-162.46,0l-18,7.85a12,12,0,1,1-9.62-22l19.15-8.36A91.84,91.84,0,0,1,36,144v-4H16a12,12,0,0,1,0-24H36v-4a91.84,91.84,0,0,1,2.34-20.64L19.19,83a12,12,0,0,1,9.62-22l18,7.85a92,92,0,0,1,162.46,0l18-7.85a12,12,0,1,1,9.62,22l-19.15,8.36A91.84,91.84,0,0,1,220,112v4h20a12,12,0,0,1,0,24H220ZM60,116H196v-4a68,68,0,0,0-136,0Zm56,94.92V140H60v4A68.1,68.1,0,0,0,116,210.92ZM196,144v-4H140v70.92A68.1,68.1,0,0,0,196,144Z"/></svg>