<svg xmlns="http://www.w3.org/2000/svg" viewBox="0 0 256 256" fill="currentColor"><path d="M146,92a10,10,0,1,1,10,10A10,10,0,0,1,146,92ZM100,82a10,10,0,1,0,10,10A10,10,0,0,0,100,82Zm146,46a6,6,0,0,1-6,6H214v10a85.88,85.88,0,0,1-3.45,24.08L234.4,178.5a6,6,0,0,1-4.8,11l-23.23-10.15a86,86,0,0,1-156.74,0L26.4,189.5a6,6,0,1,1-4.8-11l23.85-10.42A85.88,85.88,0,0,1,42,144V134H16a6,6,0,0,1,0-12H42V112a85.88,85.88,0,0,1,3.45-24.08L21.6,77.5a6,6,0,0,1,4.8-11L49.63,76.65a86,86,0,0,1,156.74,0L229.6,66.5a6,6,0,1,1,4.8,11L210.55,87.92A85.88,85.88,0,0,1,214,112v10h26A6,6,0,0,1,246,128ZM54,122H202V112a74,74,0,0,0-148,0Zm68,95.74V134H54v10A74.09,74.09,0,0,0,122,217.74ZM202,134H134v83.74A74.09,74.09,0,0,0,202,144Z"/></svg>