<svg xmlns="http://www.w3.org/2000/svg" viewBox="0 0 256 256" fill="currentColor"><path d="M144,92a12,12,0,1,1,12,12A12,12,0,0,1,144,92ZM100,80a12,12,0,1,0,12,12A12,12,0,0,0,100,80Zm116,64A87.76,87.76,0,0,1,213,167l22.24,9.72A8,8,0,0,1,232,192a7.89,7.89,0,0,1-3.2-.67L207.38,182a88,88,0,0,1-158.76,0L27.2,191.33A7.89,7.89,0,0,1,24,192a8,8,0,0,1-3.2-15.33L43,167A87.76,87.76,0,0,1,40,144v-8H16a8,8,0,0,1,0-16H40v-8a87.76,87.76,0,0,1,3-23L20.8,79.33a8,8,0,1,1,6.4-14.66L48.62,74a88,88,0,0,1,158.76,0l21.42-9.36a8,8,0,0,1,6.4,14.66L213,89.05a87.76,87.76,0,0,1,3,23v8h24a8,8,0,0,1,0,16H216ZM56,120H200v-8a72,72,0,0,0-144,0Zm64,95.54V136H56v8A72.08,72.08,0,0,0,120,215.54ZM200,144v-8H136v79.54A72.08,72.08,0,0,0,200,144Z"/></svg>