<svg xmlns="http://www.w3.org/2000/svg" viewBox="0 0 256 256" fill="currentColor"><path d="M240,204h-4V76a12,12,0,0,0-12-12H188V40a12,12,0,0,0-12-12H80A12,12,0,0,0,68,40v60H32a12,12,0,0,0-12,12v92H16a12,12,0,0,0,0,24H240a12,12,0,0,0,0-24ZM44,124H80a12,12,0,0,0,12-12V52h72V76a12,12,0,0,0,12,12h36V204H148V176a4,4,0,0,0-4-4H112a4,4,0,0,0-4,4v28H44Zm64-48a12,12,0,0,1,12-12h16a12,12,0,0,1,0,24H120A12,12,0,0,1,108,76Zm0,36a12,12,0,0,1,12-12h16a12,12,0,0,1,0,24H120A12,12,0,0,1,108,112Zm52,0a12,12,0,0,1,12-12h16a12,12,0,0,1,0,24H172A12,12,0,0,1,160,112ZM96,148a12,12,0,0,1-12,12H68a12,12,0,0,1,0-24H84A12,12,0,0,1,96,148Zm12,0a12,12,0,0,1,12-12h16a12,12,0,0,1,0,24H120A12,12,0,0,1,108,148Zm52,0a12,12,0,0,1,12-12h16a12,12,0,0,1,0,24H172A12,12,0,0,1,160,148Z"/></svg>