<svg xmlns="http://www.w3.org/2000/svg" viewBox="0 0 256 256" fill="currentColor"><path d="M232,224H208V32h8a8,8,0,0,0,0-16H40a8,8,0,0,0,0,16h8V224H24a8,8,0,0,0,0,16H232a8,8,0,0,0,0-16ZM64,32H192V224H160V184a8,8,0,0,0-8-8H104a8,8,0,0,0-8,8v40H64Zm80,192H112V192h32ZM88,64a8,8,0,0,1,8-8h16a8,8,0,0,1,0,16H96A8,8,0,0,1,88,64Zm48,0a8,8,0,0,1,8-8h16a8,8,0,0,1,0,16H144A8,8,0,0,1,136,64ZM88,104a8,8,0,0,1,8-8h16a8,8,0,0,1,0,16H96A8,8,0,0,1,88,104Zm48,0a8,8,0,0,1,8-8h16a8,8,0,0,1,0,16H144A8,8,0,0,1,136,104ZM88,144a8,8,0,0,1,8-8h16a8,8,0,0,1,0,16H96A8,8,0,0,1,88,144Zm48,0a8,8,0,0,1,8-8h16a8,8,0,0,1,0,16H144A8,8,0,0,1,136,144Z"/></svg>