<svg xmlns="http://www.w3.org/2000/svg" viewBox="0 0 256 256" fill="currentColor"><path d="M240,212H228V72a4,4,0,0,0-4-4H180V40a4,4,0,0,0-4-4H80a4,4,0,0,0-4,4v60H32a4,4,0,0,0-4,4V212H16a4,4,0,0,0,0,8H240a4,4,0,0,0,0-8ZM36,108H80a4,4,0,0,0,4-4V44h88V72a4,4,0,0,0,4,4h44V212H148V168a4,4,0,0,0-4-4H112a4,4,0,0,0-4,4v44H36ZM140,212H116V172h24ZM116,72a4,4,0,0,1,4-4h16a4,4,0,0,1,0,8H120A4,4,0,0,1,116,72Zm0,32a4,4,0,0,1,4-4h16a4,4,0,0,1,0,8H120A4,4,0,0,1,116,104Zm56,0a4,4,0,0,1,4-4h16a4,4,0,0,1,0,8H176A4,4,0,0,1,172,104ZM84,136a4,4,0,0,1-4,4H64a4,4,0,0,1,0-8H80A4,4,0,0,1,84,136Zm0,32a4,4,0,0,1-4,4H64a4,4,0,0,1,0-8H80A4,4,0,0,1,84,168Zm32-32a4,4,0,0,1,4-4h16a4,4,0,0,1,0,8H120A4,4,0,0,1,116,136Zm56,0a4,4,0,0,1,4-4h16a4,4,0,0,1,0,8H176A4,4,0,0,1,172,136Zm0,32a4,4,0,0,1,4-4h16a4,4,0,0,1,0,8H176A4,4,0,0,1,172,168Z"/></svg>