<svg xmlns="http://www.w3.org/2000/svg" viewBox="0 0 256 256" fill="currentColor"><path d="M248,208H232V96a8,8,0,0,0,0-16H184V48a8,8,0,0,0,0-16H40a8,8,0,0,0,0,16V208H24a8,8,0,0,0,0,16H248a8,8,0,0,0,0-16ZM216,96V208H184V96ZM56,48H168V208H144V160a8,8,0,0,0-8-8H88a8,8,0,0,0-8,8v48H56Zm72,160H96V168h32ZM72,80a8,8,0,0,1,8-8H96a8,8,0,0,1,0,16H80A8,8,0,0,1,72,80Zm48,0a8,8,0,0,1,8-8h16a8,8,0,0,1,0,16H128A8,8,0,0,1,120,80ZM72,120a8,8,0,0,1,8-8H96a8,8,0,0,1,0,16H80A8,8,0,0,1,72,120Zm48,0a8,8,0,0,1,8-8h16a8,8,0,0,1,0,16H128A8,8,0,0,1,120,120Z"/></svg>