<svg xmlns="http://www.w3.org/2000/svg" viewBox="0 0 256 256" fill="currentColor"><path d="M248,210H230V94h2a6,6,0,0,0,0-12H182V46h2a6,6,0,0,0,0-12H40a6,6,0,0,0,0,12h2V210H24a6,6,0,0,0,0,12H248a6,6,0,0,0,0-12ZM218,94V210H182V94ZM54,46H170V210H142V160a6,6,0,0,0-6-6H88a6,6,0,0,0-6,6v50H54Zm76,164H94V166h36ZM74,80a6,6,0,0,1,6-6H96a6,6,0,0,1,0,12H80A6,6,0,0,1,74,80Zm48,0a6,6,0,0,1,6-6h16a6,6,0,0,1,0,12H128A6,6,0,0,1,122,80ZM80,126a6,6,0,0,1,0-12H96a6,6,0,0,1,0,12Zm42-6a6,6,0,0,1,6-6h16a6,6,0,0,1,0,12H128A6,6,0,0,1,122,120Z"/></svg>