<svg xmlns="http://www.w3.org/2000/svg" viewBox="0 0 256 256" fill="currentColor"><path d="M232,226H206V30h10a6,6,0,0,0,0-12H40a6,6,0,0,0,0,12H50V226H24a6,6,0,0,0,0,12H232a6,6,0,0,0,0-12ZM62,30H194V226H158V184a6,6,0,0,0-6-6H104a6,6,0,0,0-6,6v42H62Zm84,196H110V190h36ZM90,64a6,6,0,0,1,6-6h16a6,6,0,0,1,0,12H96A6,6,0,0,1,90,64Zm48,0a6,6,0,0,1,6-6h16a6,6,0,0,1,0,12H144A6,6,0,0,1,138,64ZM90,104a6,6,0,0,1,6-6h16a6,6,0,0,1,0,12H96A6,6,0,0,1,90,104Zm48,0a6,6,0,0,1,6-6h16a6,6,0,0,1,0,12H144A6,6,0,0,1,138,104ZM96,150a6,6,0,0,1,0-12h16a6,6,0,0,1,0,12Zm42-6a6,6,0,0,1,6-6h16a6,6,0,0,1,0,12H144A6,6,0,0,1,138,144Z"/></svg>