<svg xmlns="http://www.w3.org/2000/svg" viewBox="0 0 256 256" fill="currentColor"><path d="M136,32V216H40V85.35a8,8,0,0,1,3.56-6.66l80-53.33A8,8,0,0,1,136,32Z" opacity="0.2"/><path d="M240,208H224V96a16,16,0,0,0-16-16H144V32a16,16,0,0,0-24.88-13.32L39.12,72A16,16,0,0,0,32,85.34V208H16a8,8,0,0,0,0,16H240a8,8,0,0,0,0-16ZM208,96V208H144V96ZM48,85.34,128,32V208H48ZM112,112v16a8,8,0,0,1-16,0V112a8,8,0,1,1,16,0Zm-32,0v16a8,8,0,0,1-16,0V112a8,8,0,1,1,16,0Zm0,56v16a8,8,0,0,1-16,0V168a8,8,0,0,1,16,0Zm32,0v16a8,8,0,0,1-16,0V168a8,8,0,0,1,16,0Z"/></svg>