<svg xmlns="http://www.w3.org/2000/svg" viewBox="0 0 256 256" fill="currentColor"><path d="M232,220H212V36h4a12,12,0,0,0,0-24H40a12,12,0,0,0,0,24h4V220H24a12,12,0,0,0,0,24H232a12,12,0,0,0,0-24ZM68,36H188V220H164V184a12,12,0,0,0-12-12H104a12,12,0,0,0-12,12v36H68Zm72,184H116V196h24ZM84,64A12,12,0,0,1,96,52h12a12,12,0,0,1,0,24H96A12,12,0,0,1,84,64Zm52,0a12,12,0,0,1,12-12h12a12,12,0,0,1,0,24H148A12,12,0,0,1,136,64ZM84,104A12,12,0,0,1,96,92h12a12,12,0,0,1,0,24H96A12,12,0,0,1,84,104Zm52,0a12,12,0,0,1,12-12h12a12,12,0,0,1,0,24H148A12,12,0,0,1,136,104ZM84,144a12,12,0,0,1,12-12h12a12,12,0,0,1,0,24H96A12,12,0,0,1,84,144Zm52,0a12,12,0,0,1,12-12h12a12,12,0,0,1,0,24H148A12,12,0,0,1,136,144Z"/></svg>