<svg xmlns="http://www.w3.org/2000/svg" viewBox="0 0 256 256" fill="currentColor"><path d="M224,72V216H144V168H112v48H32V104H80V40h96V72Z" opacity="0.2"/><path d="M240,208h-8V72a8,8,0,0,0-8-8H184V40a8,8,0,0,0-8-8H80a8,8,0,0,0-8,8V96H32a8,8,0,0,0-8,8V208H16a8,8,0,0,0,0,16H240a8,8,0,0,0,0-16ZM40,112H80a8,8,0,0,0,8-8V48h80V72a8,8,0,0,0,8,8h40V208H152V168a8,8,0,0,0-8-8H112a8,8,0,0,0-8,8v40H40Zm96,96H120V176h16ZM112,72a8,8,0,0,1,8-8h16a8,8,0,0,1,0,16H120A8,8,0,0,1,112,72Zm0,32a8,8,0,0,1,8-8h16a8,8,0,0,1,0,16H120A8,8,0,0,1,112,104Zm56,0a8,8,0,0,1,8-8h16a8,8,0,0,1,0,16H176A8,8,0,0,1,168,104ZM88,136a8,8,0,0,1-8,8H64a8,8,0,0,1,0-16H80A8,8,0,0,1,88,136Zm0,32a8,8,0,0,1-8,8H64a8,8,0,0,1,0-16H80A8,8,0,0,1,88,168Zm24-32a8,8,0,0,1,8-8h16a8,8,0,0,1,0,16H120A8,8,0,0,1,112,136Zm56,0a8,8,0,0,1,8-8h16a8,8,0,0,1,0,16H176A8,8,0,0,1,168,136Zm0,32a8,8,0,0,1,8-8h16a8,8,0,0,1,0,16H176A8,8,0,0,1,168,168Z"/></svg>