<svg xmlns="http://www.w3.org/2000/svg" viewBox="0 0 256 256" fill="currentColor"><path d="M184,28H72A36,36,0,0,0,36,64V208a20,20,0,0,0,20,20H84a20,20,0,0,0,20-20V192h48v16a20,20,0,0,0,20,20h28a20,20,0,0,0,20-20V64A36,36,0,0,0,184,28ZM60,168V112H196v56ZM72,52H184a12,12,0,0,1,12,12V88H60V64A12,12,0,0,1,72,52Zm8,152H60V192H80Zm96,0V192h20v12Zm-68-64a16,16,0,1,1-16-16A16,16,0,0,1,108,140Zm72,0a16,16,0,1,1-16-16A16,16,0,0,1,180,140Zm76-60v24a12,12,0,0,1-24,0V80a12,12,0,0,1,24,0ZM24,80v24a12,12,0,0,1-24,0V80a12,12,0,0,1,24,0Z"/></svg>