<svg xmlns="http://www.w3.org/2000/svg" viewBox="0 0 256 256" fill="currentColor"><path d="M236,112a28,28,0,0,0-28-28H140V81.94A36.07,36.07,0,0,0,164,48c0-31.06-29.38-46.11-30.63-46.73a12,12,0,0,0-10.74,0C121.38,1.89,92,16.94,92,48a36.07,36.07,0,0,0,24,33.94V84H48a28,28,0,0,0-28,28v23.33a44.7,44.7,0,0,0,8,25.49V200a28,28,0,0,0,28,28H200a28,28,0,0,0,28-28V160.82a44.7,44.7,0,0,0,8-25.49ZM124,29.93a42.49,42.49,0,0,1,4-3.57,41.26,41.26,0,0,1,4,3.57c5.33,5.52,8,11.6,8,18.07a12,12,0,0,1-24,0C116,41.53,118.71,35.45,124,29.93ZM44,112a4,4,0,0,1,4-4H208a4,4,0,0,1,4,4v23.33c0,11.1-8.72,20.37-19.43,20.66A20,20,0,0,1,172,136a12,12,0,0,0-24,0,20,20,0,0,1-40,0,12,12,0,0,0-24,0,20,20,0,0,1-20.57,20C52.72,155.7,44,146.43,44,135.33Zm156,92H56a4,4,0,0,1-4-4V178.29A42.65,42.65,0,0,0,62.77,180a43.68,43.68,0,0,0,31.91-12.44c.46-.44.9-.9,1.33-1.35a44,44,0,0,0,64,0c.43.45.87.91,1.33,1.35A43.66,43.66,0,0,0,192,180l1.25,0A42.65,42.65,0,0,0,204,178.29V200A4,4,0,0,1,200,204Z"/></svg>