<svg xmlns="http://www.w3.org/2000/svg" viewBox="0 0 256 256" fill="currentColor"><path d="M208,32H184V24a8,8,0,0,0-16,0v8H88V24a8,8,0,0,0-16,0v8H48A16,16,0,0,0,32,48V208a16,16,0,0,0,16,16H208a16,16,0,0,0,16-16V48A16,16,0,0,0,208,32Zm0,176H48V48H72v8a8,8,0,0,0,16,0V48h80v8a8,8,0,0,0,16,0V48h24V208ZM152,88a31.91,31.91,0,0,0-24,10.86A32,32,0,0,0,72,120c0,36.52,50.28,62.08,52.42,63.16a8,8,0,0,0,7.16,0C133.72,182.08,184,156.52,184,120A32,32,0,0,0,152,88Zm-24,78.93c-13.79-7.79-40-26.75-40-46.93a16,16,0,0,1,32,0,8,8,0,0,0,16,0,16,16,0,0,1,32,0C168,140.19,141.79,159.15,128,166.93Z"/></svg>