<svg xmlns="http://www.w3.org/2000/svg" viewBox="0 0 256 256" fill="currentColor"><path d="M208,34H182V24a6,6,0,0,0-12,0V34H86V24a6,6,0,0,0-12,0V34H48A14,14,0,0,0,34,48V208a14,14,0,0,0,14,14H208a14,14,0,0,0,14-14V48A14,14,0,0,0,208,34ZM48,46H74V56a6,6,0,0,0,12,0V46h84V56a6,6,0,0,0,12,0V46h26a2,2,0,0,1,2,2V82H46V48A2,2,0,0,1,48,46ZM208,210H48a2,2,0,0,1-2-2V94H210V208A2,2,0,0,1,208,210Zm-98-90v64a6,6,0,0,1-12,0V129.71l-7.32,3.66a6,6,0,1,1-5.36-10.74l16-8A6,6,0,0,1,110,120Zm59.57,29.25L148,178h20a6,6,0,0,1,0,12H136a6,6,0,0,1-4.8-9.6L160,142a10,10,0,1,0-16.65-11A6,6,0,1,1,133,125a22,22,0,1,1,36.62,24.26Z"/></svg>