<svg xmlns="http://www.w3.org/2000/svg" viewBox="0 0 256 256" fill="currentColor"><path d="M208,32H184V24a8,8,0,0,0-16,0v8H88V24a8,8,0,0,0-16,0v8H48A16,16,0,0,0,32,48V208a16,16,0,0,0,16,16H208a16,16,0,0,0,16-16V48A16,16,0,0,0,208,32Zm0,176H48V48H72v8a8,8,0,0,0,16,0V48h80v8a8,8,0,0,0,16,0V48h24V208Zm-31.38-94.36-29.84-2.31-11.43-26.5a8,8,0,0,0-14.7,0l-11.43,26.5-29.84,2.31a8,8,0,0,0-4.47,14.14l22.52,18.59-6.86,27.71a8,8,0,0,0,11.82,8.81L128,167.82l25.61,15.07a8,8,0,0,0,11.82-8.81l-6.86-27.71,22.52-18.59a8,8,0,0,0-4.47-14.14Zm-32.11,23.6a8,8,0,0,0-2.68,8.09l3.5,14.12-13.27-7.81a8,8,0,0,0-8.12,0l-13.27,7.81,3.5-14.12a8,8,0,0,0-2.68-8.09l-11.11-9.18,14.89-1.15a8,8,0,0,0,6.73-4.8l6-13.92,6,13.92a8,8,0,0,0,6.73,4.8l14.89,1.15Z"/></svg>