<svg xmlns="http://www.w3.org/2000/svg" viewBox="0 0 256 256" fill="currentColor"><path d="M208,28H188V24a12,12,0,0,0-24,0v4H92V24a12,12,0,0,0-24,0v4H48A20,20,0,0,0,28,48V208a20,20,0,0,0,20,20H208a20,20,0,0,0,20-20V48A20,20,0,0,0,208,28ZM68,52a12,12,0,0,0,24,0h72a12,12,0,0,0,24,0h16V76H52V52ZM52,204V100H204V204Zm60-80v56a12,12,0,0,1-24,0V143.32a12,12,0,0,1-9.37-22l16-8A12,12,0,0,1,112,124Zm61.49,33.88L163.9,168H168a12,12,0,0,1,0,24H136a12,12,0,0,1-8.71-20.25L155.45,142a4,4,0,0,0,.55-2,4,4,0,0,0-7.47-2,12,12,0,0,1-20.78-12A28,28,0,0,1,180,140a27.77,27.77,0,0,1-5.64,16.86A10.63,10.63,0,0,1,173.49,157.88Z"/></svg>