<svg xmlns="http://www.w3.org/2000/svg" viewBox="0 0 256 256" fill="currentColor"><path d="M208,28H188V24a12,12,0,0,0-24,0v4H92V24a12,12,0,0,0-24,0v4H48A20,20,0,0,0,28,48V208a20,20,0,0,0,20,20H208a20,20,0,0,0,20-20V48A20,20,0,0,0,208,28ZM68,52a12,12,0,0,0,24,0h72a12,12,0,0,0,24,0h16V76H52V52ZM52,204V100H204V204Zm92-76a16,16,0,1,1-16-16A16,16,0,0,1,144,128Zm48,0a16,16,0,1,1-16-16A16,16,0,0,1,192,128ZM96,176a16,16,0,1,1-16-16A16,16,0,0,1,96,176Zm48,0a16,16,0,1,1-16-16A16,16,0,0,1,144,176Zm48,0a16,16,0,1,1-16-16A16,16,0,0,1,192,176Z"/></svg>