<svg xmlns="http://www.w3.org/2000/svg" viewBox="0 0 256 256" fill="currentColor"><path d="M208,34H182V24a6,6,0,0,0-12,0V34H86V24a6,6,0,0,0-12,0V34H48A14,14,0,0,0,34,48V208a14,14,0,0,0,14,14H208a14,14,0,0,0,14-14V48A14,14,0,0,0,208,34ZM48,46H74V56a6,6,0,0,0,12,0V46h84V56a6,6,0,0,0,12,0V46h26a2,2,0,0,1,2,2V82H46V48A2,2,0,0,1,48,46ZM208,210H48a2,2,0,0,1-2-2V94H210V208A2,2,0,0,1,208,210Zm-39.76-86.24a6,6,0,0,1,0,8.48l-48,48a6,6,0,0,1-8.48,0l-24-24a6,6,0,0,1,8.48-8.48L116,167.51l43.76-43.75A6,6,0,0,1,168.24,123.76Z"/></svg>