<svg xmlns="http://www.w3.org/2000/svg" viewBox="0 0 256 256" fill="currentColor"><path d="M208,58H179.21L165,36.67A6,6,0,0,0,160,34H96a6,6,0,0,0-5,2.67L76.78,58H48A22,22,0,0,0,26,80V192a22,22,0,0,0,22,22H208a22,22,0,0,0,22-22V80A22,22,0,0,0,208,58Zm10,134a10,10,0,0,1-10,10H48a10,10,0,0,1-10-10V80A10,10,0,0,1,48,70H80a6,6,0,0,0,5-2.67L99.21,46h57.57L171,67.33A6,6,0,0,0,176,70h32a10,10,0,0,1,10,10ZM174,96v24a6,6,0,0,1-6,6H144a6,6,0,0,1,0-12h10l-2-2.09a34.12,34.12,0,0,0-44.38-3.12,6,6,0,1,1-7.22-9.59,46.2,46.2,0,0,1,60.14,4.27.47.47,0,0,0,.1.1L162,105V96a6,6,0,0,1,12,0Zm-17.2,60.4a6,6,0,0,1-1.19,8.4,46.18,46.18,0,0,1-60.14-4.27l-.1-.1L94,159v9a6,6,0,0,1-12,0V144a6,6,0,0,1,6-6h24a6,6,0,0,1,0,12H102l2,2.09a34.12,34.12,0,0,0,44.38,3.12A6,6,0,0,1,156.8,156.4Z"/></svg>