<svg xmlns="http://www.w3.org/2000/svg" viewBox="0 0 256 256" fill="currentColor"><path d="M224,80V192a16,16,0,0,1-16,16H48a16,16,0,0,1-16-16V80A16,16,0,0,1,48,64H80L96,40h64l16,24h32A16,16,0,0,1,224,80Z" opacity="0.2"/><path d="M208,56H180.28L166.65,35.56A8,8,0,0,0,160,32H96a8,8,0,0,0-6.65,3.56L75.71,56H48A24,24,0,0,0,24,80V192a24,24,0,0,0,24,24H208a24,24,0,0,0,24-24V80A24,24,0,0,0,208,56Zm8,136a8,8,0,0,1-8,8H48a8,8,0,0,1-8-8V80a8,8,0,0,1,8-8H80a8,8,0,0,0,6.66-3.56L100.28,48h55.43l13.63,20.44A8,8,0,0,0,176,72h32a8,8,0,0,1,8,8ZM176,96v24a8,8,0,0,1-8,8H144a8,8,0,0,1,0-16h5.15a32.12,32.12,0,0,0-40.34-1.61A8,8,0,0,1,99.19,97.6,48.21,48.21,0,0,1,160,100.23V96a8,8,0,0,1,16,0Zm-17.61,59.2a8,8,0,0,1-1.58,11.2A48.21,48.21,0,0,1,96,163.77V168a8,8,0,0,1-16,0V144a8,8,0,0,1,8-8h24a8,8,0,0,1,0,16h-5.15a32.12,32.12,0,0,0,40.34,1.61A8,8,0,0,1,158.39,155.2Z"/></svg>