<svg xmlns="http://www.w3.org/2000/svg" viewBox="0 0 256 256" fill="currentColor"><path d="M219.81,225.21A4,4,0,0,1,216,228a3.92,3.92,0,0,1-1.21-.19L128,200.2,41.21,227.81A3.92,3.92,0,0,1,40,228a4,4,0,0,1-1.21-7.81l76-24.19-76-24.19a4,4,0,1,1,2.42-7.62L128,191.8l86.79-27.61a4,4,0,1,1,2.42,7.62l-76,24.19,76,24.19A4,4,0,0,1,219.81,225.21ZM72,108c0-19,9.38-38.85,27.12-57.27A152,152,0,0,1,125.9,28.59a4,4,0,0,1,4.2,0,152,152,0,0,1,26.78,22.14C174.62,69.15,184,89,184,108a56,56,0,0,1-54.56,56c-.48,0-1,0-1.44,0s-1,0-1.44,0A56,56,0,0,1,72,108Zm56,48a20,20,0,0,0,20-20c0-17.39-14.37-30.53-20-35-5.63,4.48-20,17.62-20,35A20,20,0,0,0,128,156ZM80,108a48,48,0,0,0,23.28,41.13A27.83,27.83,0,0,1,100,136c0-25.84,24.73-42.63,25.78-43.33a4,4,0,0,1,4.44,0c1.05.7,25.78,17.49,25.78,43.33a27.83,27.83,0,0,1-3.28,13.13A48,48,0,0,0,176,108c0-36.37-38.49-64.76-48-71.21C118.5,43.25,80,71.68,80,108Z"/></svg>