<svg xmlns="http://www.w3.org/2000/svg" viewBox="0 0 256 256" fill="currentColor"><path d="M240,106H227.9L199.59,42.31A14,14,0,0,0,186.8,34H69.2a14,14,0,0,0-12.79,8.31L28.1,106H16a6,6,0,0,0,0,12H26v82a14,14,0,0,0,14,14H64a14,14,0,0,0,14-14V182H178v18a14,14,0,0,0,14,14h24a14,14,0,0,0,14-14V118h10a6,6,0,0,0,0-12ZM67.37,47.19A2,2,0,0,1,69.2,46H186.8a2,2,0,0,1,1.83,1.19L214.77,106H41.23ZM218,200a2,2,0,0,1-2,2H192a2,2,0,0,1-2-2V176a6,6,0,0,0-6-6H72a6,6,0,0,0-6,6v24a2,2,0,0,1-2,2H40a2,2,0,0,1-2-2V118H218Z"/></svg>