<svg xmlns="http://www.w3.org/2000/svg" viewBox="0 0 256 256" fill="currentColor"><path d="M240,106H227.9L199.59,42.31A14,14,0,0,0,186.8,34H69.2a14,14,0,0,0-12.79,8.31L28.1,106H16a6,6,0,0,0,0,12H26v82a14,14,0,0,0,14,14H64a14,14,0,0,0,14-14V182H178v18a14,14,0,0,0,14,14h24a14,14,0,0,0,14-14V118h10a6,6,0,0,0,0-12ZM67.37,47.19A2,2,0,0,1,69.2,46H186.8a2,2,0,0,1,1.83,1.19L214.77,106H41.23ZM66,200a2,2,0,0,1-2,2H40a2,2,0,0,1-2-2V182H66Zm150,2H192a2,2,0,0,1-2-2V182h28v18A2,2,0,0,1,216,202Zm2-32H38V118H218ZM58,144a6,6,0,0,1,6-6H80a6,6,0,0,1,0,12H64A6,6,0,0,1,58,144Zm112,0a6,6,0,0,1,6-6h16a6,6,0,0,1,0,12H176A6,6,0,0,1,170,144Z"/></svg>