<svg xmlns="http://www.w3.org/2000/svg" viewBox="0 0 256 256" fill="currentColor"><path d="M195.88,195.88a96,96,0,1,1,0-135.76A96,96,0,0,1,195.88,195.88Z" opacity="0.2"/><path d="M201.54,54.46A104,104,0,0,0,54.46,201.54,104,104,0,0,0,201.54,54.46ZM190.23,190.23a88,88,0,1,1,0-124.46A88.11,88.11,0,0,1,190.23,190.23Zm-64.57-67.89a8,8,0,0,1,0,11.32l-32,32a8,8,0,0,1-11.32-11.32L108.69,128,82.34,101.66A8,8,0,0,1,93.66,90.34Zm56,0a8,8,0,0,1,0,11.32l-32,32a8,8,0,0,1-11.32-11.32L164.69,128l-26.35-26.34a8,8,0,0,1,11.32-11.32Z"/></svg>