<svg xmlns="http://www.w3.org/2000/svg" viewBox="0 0 256 256" fill="currentColor"><path d="M239.76,158.06,217.28,68.12A16,16,0,0,0,201.75,56H136V40a16,16,0,0,0-16-16H80A16,16,0,0,0,64,40V56H54.25A16,16,0,0,0,38.72,68.12L16.24,158.06A7.93,7.93,0,0,0,16,160v32a16,16,0,0,0,16,16H224a16,16,0,0,0,16-16V160A7.93,7.93,0,0,0,239.76,158.06ZM80,40h40V56H80ZM54.25,72h147.5l20,80H34.25ZM32,192V168H224v24ZM64,96a8,8,0,0,1,8-8H88a8,8,0,0,1,0,16H72A8,8,0,0,1,64,96Zm48,0a8,8,0,0,1,8-8h16a8,8,0,0,1,0,16H120A8,8,0,0,1,112,96Zm48,0a8,8,0,0,1,8-8h16a8,8,0,0,1,0,16H168A8,8,0,0,1,160,96ZM64,128a8,8,0,0,1,8-8H88a8,8,0,0,1,0,16H72A8,8,0,0,1,64,128Zm48,0a8,8,0,0,1,8-8h16a8,8,0,0,1,0,16H120A8,8,0,0,1,112,128Zm48,0a8,8,0,0,1,8-8h16a8,8,0,0,1,0,16H168A8,8,0,0,1,160,128Z"/></svg>