<svg xmlns="http://www.w3.org/2000/svg" viewBox="0 0 256 256" fill="currentColor"><path d="M224,50H32A14,14,0,0,0,18,64V192a14,14,0,0,0,14,14H224a14,14,0,0,0,14-14V64A14,14,0,0,0,224,50ZM76,194l15-20h74l15,20Zm150-2a2,2,0,0,1-2,2H195l-22.2-29.6A6,6,0,0,0,168,162H88a6,6,0,0,0-4.8,2.4L61,194H32a2,2,0,0,1-2-2V64a2,2,0,0,1,2-2H224a2,2,0,0,1,2,2ZM176,82H80a30,30,0,0,0,0,60h96a30,30,0,0,0,0-60ZM152,94a29.92,29.92,0,0,0,0,36H104a29.92,29.92,0,0,0,0-36ZM62,112a18,18,0,1,1,18,18A18,18,0,0,1,62,112Zm114,18a18,18,0,1,1,18-18A18,18,0,0,1,176,130Z"/></svg>