<svg xmlns="http://www.w3.org/2000/svg" viewBox="0 0 256 256" fill="currentColor"><path d="M224,48v88c0,48.6-43,88-96,88s-96-39.4-96-88V48a8,8,0,0,1,13.66-5.66L67.6,67.6h0a102.87,102.87,0,0,1,120.8,0h0l21.94-25.24A8,8,0,0,1,224,48Z" opacity="0.2"/><path d="M96,140a12,12,0,1,1-12-12A12,12,0,0,1,96,140Zm76-12a12,12,0,1,0,12,12A12,12,0,0,0,172,128Zm60-80v88c0,52.93-46.65,96-104,96S24,188.93,24,136V48A16,16,0,0,1,51.31,36.69c.14.14.26.27.38.41L69,57a111.22,111.22,0,0,1,118.1,0L204.31,37.1c.12-.14.24-.27.38-.41A16,16,0,0,1,232,48Zm-16,0-21.56,24.8A8,8,0,0,1,183.63,74,88.86,88.86,0,0,0,168,64.75V88a8,8,0,1,1-16,0V59.05a97.43,97.43,0,0,0-16-2.72V88a8,8,0,1,1-16,0V56.33a97.43,97.43,0,0,0-16,2.72V88a8,8,0,1,1-16,0V64.75A88.86,88.86,0,0,0,72.37,74a8,8,0,0,1-10.81-1.17L40,48v88c0,41.66,35.21,76,80,79.67V195.31l-13.66-13.66a8,8,0,0,1,11.32-11.31L128,180.68l10.34-10.34a8,8,0,0,1,11.32,11.31L136,195.31v20.36c44.79-3.69,80-38,80-79.67Z"/></svg>