<svg xmlns="http://www.w3.org/2000/svg" viewBox="0 0 256 256" fill="currentColor"><path d="M220.59,36.94a11.83,11.83,0,0,0-13.08,2.61l-.19.2L187.77,62.24a107.1,107.1,0,0,0-119.54,0L48.68,39.75l-.19-.2A12,12,0,0,0,28,48v88c0,50.72,44.86,92,100,92s100-41.27,100-92V48A11.82,11.82,0,0,0,220.59,36.94ZM220,136c0,45.09-39.12,82-88,83.91V193.66l14.83-14.83a4,4,0,1,0-5.66-5.65L128,186.35l-13.17-13.17a4,4,0,1,0-5.66,5.65L124,193.66v26.26C75.12,218,36,181.1,36,136V48a3.93,3.93,0,0,1,2.47-3.7,4.39,4.39,0,0,1,1.6-.31,3.77,3.77,0,0,1,2.67,1.1L64.58,70.23a4,4,0,0,0,5.4.59A94,94,0,0,1,92,58.74V88a4,4,0,0,0,8,0V56a100.07,100.07,0,0,1,24-3.93V88a4,4,0,0,0,8,0V52.09A100.07,100.07,0,0,1,156,56V88a4,4,0,0,0,8,0V58.74a94,94,0,0,1,22,12.08,4,4,0,0,0,5.4-.59l21.84-25.11A4,4,0,0,1,220,48ZM92,140a8,8,0,1,1-8-8A8,8,0,0,1,92,140Zm88,0a8,8,0,1,1-8-8A8,8,0,0,1,180,140Z"/></svg>