<svg xmlns="http://www.w3.org/2000/svg" viewBox="0 0 256 256" fill="currentColor"><path d="M213.66,194.34a8,8,0,0,1-11.32,11.32L184,187.31l-18.34,18.35a8,8,0,0,1-11.32-11.32L172.69,176l-18.35-18.34a8,8,0,0,1,11.32-11.32L184,164.69l18.34-18.35a8,8,0,0,1,11.32,11.32L195.31,176ZM160,120a8,8,0,0,0,8-8V72a8,8,0,0,0-16,0v40A8,8,0,0,0,160,120Zm40,0a8,8,0,0,0,8-8V32a8,8,0,0,0-16,0v80A8,8,0,0,0,200,120Zm-80-16a8,8,0,0,0-8,8v88a8,8,0,0,0,16,0V112A8,8,0,0,0,120,104ZM80,144a8,8,0,0,0-8,8v48a8,8,0,0,0,16,0V152A8,8,0,0,0,80,144ZM40,184a8,8,0,0,0-8,8v8a8,8,0,0,0,16,0v-8A8,8,0,0,0,40,184Z"/></svg>