<svg xmlns="http://www.w3.org/2000/svg" viewBox="0 0 256 256" fill="currentColor"><path d="M192,80v96H104a32,32,0,1,0-32-32H64V80Z" opacity="0.2"/><path d="M216,40H40A16,16,0,0,0,24,56V200a16,16,0,0,0,16,16H53.39a8,8,0,0,0,7.23-4.57,48,48,0,0,1,86.76,0,8,8,0,0,0,7.23,4.57H216a16,16,0,0,0,16-16V56A16,16,0,0,0,216,40ZM80,144a24,24,0,1,1,24,24A24,24,0,0,1,80,144Zm136,56H159.43a64.39,64.39,0,0,0-28.83-26.16,40,40,0,1,0-53.2,0A64.39,64.39,0,0,0,48.57,200H40V56H216ZM56,96V80a8,8,0,0,1,8-8H192a8,8,0,0,1,8,8v96a8,8,0,0,1-8,8H176a8,8,0,0,1,0-16h8V88H72v8a8,8,0,0,1-16,0Z"/></svg>