<svg xmlns="http://www.w3.org/2000/svg" viewBox="0 0 256 256" fill="currentColor"><path d="M216,44H40A12,12,0,0,0,28,56V200a12,12,0,0,0,12,12H53.39A4,4,0,0,0,57,209.71a52,52,0,0,1,94,0,4,4,0,0,0,3.61,2.29H216a12,12,0,0,0,12-12V56A12,12,0,0,0,216,44Zm4,156a4,4,0,0,1-4,4H157.08a60.38,60.38,0,0,0-34.68-29.07,36,36,0,1,0-36.8,0A60.38,60.38,0,0,0,50.92,204H40a4,4,0,0,1-4-4V56a4,4,0,0,1,4-4H216a4,4,0,0,1,4,4ZM104,172a28,28,0,1,1,28-28A28,28,0,0,1,104,172Zm92-92v96a4,4,0,0,1-4,4H176a4,4,0,0,1,0-8h12V84H68V96a4,4,0,0,1-8,0V80a4,4,0,0,1,4-4H192A4,4,0,0,1,196,80Z"/></svg>