<svg xmlns="http://www.w3.org/2000/svg" viewBox="0 0 256 256" fill="currentColor"><path d="M153.7,12.29A12,12,0,0,0,142.29,4H97.69a12,12,0,0,0-11.41,8.29A453.85,453.85,0,0,0,71.92,72.58c-7.44,45.34-4.28,77.86,9.37,96.66A44.11,44.11,0,0,0,108,186.72V228H96a12,12,0,0,0,0,24h48a12,12,0,0,0,0-24H132V186.72a44.11,44.11,0,0,0,26.7-17.48c13.66-18.8,16.81-51.32,9.37-96.66A453.85,453.85,0,0,0,153.7,12.29ZM133.36,28c2.08,7.25,5.14,18.7,7.92,32H98.7c2.78-13.3,5.84-24.75,7.92-32Zm5.91,127.14c-4.4,6-10.52,8.86-19.28,8.86s-14.88-2.82-19.28-8.86C91.88,143,89.71,117.88,94.46,84h51.06C150.27,117.88,148.1,143,139.27,155.14ZM240,56a16,16,0,1,1-16-16A16,16,0,0,1,240,56ZM180,20a16,16,0,1,1,16,16A16,16,0,0,1,180,20Zm36,84a16,16,0,1,1-16-16A16,16,0,0,1,216,104Z"/></svg>