<svg xmlns="http://www.w3.org/2000/svg" viewBox="0 0 256 256" fill="currentColor"><path d="M184,20a12,12,0,1,1,12,12A12,12,0,0,1,184,20ZM164.12,73.23c7.26,44.25,4.35,75.76-8.66,93.66A39.94,39.94,0,0,1,128,183.42V232h16a8,8,0,0,1,0,16H96a8,8,0,0,1,0-16h16V183.42a40,40,0,0,1-27.46-16.53c-13-17.9-15.91-49.41-8.65-93.66A451,451,0,0,1,90.1,13.53,8,8,0,0,1,97.71,8H142.3a8,8,0,0,1,7.61,5.53A451,451,0,0,1,164.12,73.23ZM93.8,64h52.4c-3-15.58-6.72-29.81-9.78-40H103.59C100.53,34.19,96.83,48.42,93.8,64ZM149,80H91c-4.49,30-5.14,61.54,6.45,77.49C102.63,164.56,110,168,120,168s17.38-3.44,22.52-10.51C154.1,141.54,153.46,110,149,80Zm71-40a12,12,0,1,0,12,12A12,12,0,0,0,220,40ZM196,88a12,12,0,1,0,12,12A12,12,0,0,0,196,88Z"/></svg>