<svg xmlns="http://www.w3.org/2000/svg" viewBox="0 0 256 256" fill="currentColor"><path d="M184,128a56,56,0,1,1-56-56A56,56,0,0,1,184,128Z" opacity="0.2"/><path d="M128,24A104,104,0,1,0,232,128,104.11,104.11,0,0,0,128,24Zm87.63,96H191.48A64.1,64.1,0,0,0,136,64.52V40.37A88.13,88.13,0,0,1,215.63,120ZM120,120H80.68A48.09,48.09,0,0,1,120,80.68Zm0,16v39.32A48.09,48.09,0,0,1,80.68,136Zm16,0h39.32A48.09,48.09,0,0,1,136,175.32Zm0-16V80.68A48.09,48.09,0,0,1,175.32,120ZM120,40.37V64.52A64.1,64.1,0,0,0,64.52,120H40.37A88.13,88.13,0,0,1,120,40.37ZM40.37,136H64.52A64.1,64.1,0,0,0,120,191.48v24.15A88.13,88.13,0,0,1,40.37,136ZM136,215.63V191.48A64.1,64.1,0,0,0,191.48,136h24.15A88.13,88.13,0,0,1,136,215.63Z"/></svg>