<svg xmlns="http://www.w3.org/2000/svg" viewBox="0 0 256 256" fill="currentColor"><path d="M232,152v64a8,8,0,0,1-8,8H160a72,72,0,0,1-67.9-48H96a72,72,0,0,0,72-72h0a71.83,71.83,0,0,0-4.07-23.88h0A72,72,0,0,1,232,152Z" opacity="0.2"/><path d="M169.57,72.59A80,80,0,0,0,16,104v64a16,16,0,0,0,16,16H86.67A80.15,80.15,0,0,0,160,232h64a16,16,0,0,0,16-16V152A80,80,0,0,0,169.57,72.59ZM32,104a64,64,0,1,1,64,64H32ZM224,216H160a64.14,64.14,0,0,1-55.68-32.43A79.93,79.93,0,0,0,174.7,89.71,64,64,0,0,1,224,152Z"/></svg>