<svg xmlns="http://www.w3.org/2000/svg" viewBox="0 0 256 256" fill="currentColor"><path d="M231.66,213.73a8,8,0,0,1-9.93,9.93L194,215.5A72.05,72.05,0,0,1,92.06,175.89h0c1.31.07,2.62.11,3.94.11a72,72,0,0,0,67.93-95.88h0A72,72,0,0,1,223.5,186Z" opacity="0.2"/><path d="M232.07,186.76a80,80,0,0,0-62.5-114.17A80,80,0,1,0,23.93,138.76l-7.27,24.71a16,16,0,0,0,19.87,19.87l24.71-7.27a80.39,80.39,0,0,0,25.18,7.35,80,80,0,0,0,108.34,40.65l24.71,7.27a16,16,0,0,0,19.87-19.86ZM62,159.5a8.28,8.28,0,0,0-2.26.32L32,168l8.17-27.76a8,8,0,0,0-.63-6,64,64,0,1,1,26.26,26.26A8,8,0,0,0,62,159.5Zm153.79,28.73L224,216l-27.76-8.17a8,8,0,0,0-6,.63,64.05,64.05,0,0,1-85.87-24.88A79.93,79.93,0,0,0,174.7,89.71a64,64,0,0,1,41.75,92.48A8,8,0,0,0,215.82,188.23Z"/></svg>