<svg xmlns="http://www.w3.org/2000/svg" viewBox="0 0 256 256" fill="currentColor"><path d="M216,50H40A14,14,0,0,0,26,64V224a13.88,13.88,0,0,0,8.09,12.69A14.11,14.11,0,0,0,40,238a13.87,13.87,0,0,0,9-3.31l.06-.05L82.23,206H216a14,14,0,0,0,14-14V64A14,14,0,0,0,216,50Zm2,142a2,2,0,0,1-2,2H80a6,6,0,0,0-3.92,1.46L41.26,225.53A2,2,0,0,1,38,224V64a2,2,0,0,1,2-2H216a2,2,0,0,1,2,2Zm-52-80a6,6,0,0,1-6,6H96a6,6,0,0,1,0-12h64A6,6,0,0,1,166,112Zm0,32a6,6,0,0,1-6,6H96a6,6,0,0,1,0-12h64A6,6,0,0,1,166,144Z"/></svg>