<svg xmlns="http://www.w3.org/2000/svg" viewBox="0 0 256 256" fill="currentColor"><path d="M53.92,34.62A8,8,0,1,0,42.08,45.38L52.33,56.66A104.06,104.06,0,0,0,36.18,176.88L24.83,210.93a16,16,0,0,0,20.24,20.24l34.05-11.35a104,104,0,0,0,112.7-9.73l10.26,11.29a8,8,0,1,0,11.84-10.76ZM128,216a87.87,87.87,0,0,1-44.06-11.81,8,8,0,0,0-6.54-.66L40,216,52.47,178.6a8,8,0,0,0-.66-6.54A88,88,0,0,1,63.14,68.54L181,198.23A87.77,87.77,0,0,1,128,216Zm104-88a104.15,104.15,0,0,1-12.38,49.25,8,8,0,0,1-14.09-7.58A88,88,0,0,0,93.88,46.86a8,8,0,0,1-6.21-14.75A104.06,104.06,0,0,1,232,128Z"/></svg>