<svg xmlns="http://www.w3.org/2000/svg" viewBox="0 0 256 256" fill="currentColor"><path d="M224,56V184a8,8,0,0,1-8,8H150.93l-16,28a8,8,0,0,1-13.9,0l-16-28H40a8,8,0,0,1-8-8V56a8,8,0,0,1,8-8H216A8,8,0,0,1,224,56Z" opacity="0.2"/><path d="M88,104a8,8,0,0,1,8-8h64a8,8,0,0,1,0,16H96A8,8,0,0,1,88,104Zm8,40h64a8,8,0,0,0,0-16H96a8,8,0,0,0,0,16ZM232,56V184a16,16,0,0,1-16,16H155.57l-13.68,23.94a16,16,0,0,1-27.78,0L100.43,200H40a16,16,0,0,1-16-16V56A16,16,0,0,1,40,40H216A16,16,0,0,1,232,56Zm-16,0H40V184h65.07a8,8,0,0,1,7,4l16,28,16-28a8,8,0,0,1,7-4H216Z"/></svg>