<svg xmlns="http://www.w3.org/2000/svg" viewBox="0 0 256 256" fill="currentColor"><path d="M224,56V184a8,8,0,0,1-8,8H150.93l-16,28a8,8,0,0,1-13.9,0l-16-28H40a8,8,0,0,1-8-8V56a8,8,0,0,1,8-8H216A8,8,0,0,1,224,56Z" opacity="0.2"/><path d="M53.92,34.62A8,8,0,0,0,40,40h0A16,16,0,0,0,24,56V184a16,16,0,0,0,16,16h60.43l13.68,23.94a16,16,0,0,0,27.78,0L155.57,200h27.07l19.44,21.38a8,8,0,1,0,11.84-10.76Zm97,149.38a8,8,0,0,0-7,4l-16,28-16-28a8,8,0,0,0-7-4H40V56H51.73L168.1,184ZM232,56V186a8,8,0,0,1-16,0V56H98.52a8,8,0,1,1,0-16H216A16,16,0,0,1,232,56Z"/></svg>