<svg xmlns="http://www.w3.org/2000/svg" viewBox="0 0 256 256" fill="currentColor"><path d="M236.34,187.09A84,84,0,0,0,172.29,68.9,84,84,0,0,0,19.66,139.09l-6.84,23.26a20,20,0,0,0,24.83,24.83l23.26-6.84a83.94,83.94,0,0,0,22.76,6.74,84.06,84.06,0,0,0,111.42,41.26l23.26,6.84a20,20,0,0,0,24.83-24.83ZM62,155.5a11.88,11.88,0,0,0-3.39.49l-20.72,6.09L44,141.35a12,12,0,0,0-.93-9A60,60,0,1,1,67.7,156.92,12,12,0,0,0,62,155.5Zm150.89,24.8a12,12,0,0,0-.93,9l6.09,20.73L197.36,204a12,12,0,0,0-9.06.93A60,60,0,0,1,111,186.63a83.93,83.93,0,0,0,68.55-91.37,60,60,0,0,1,33.38,85Z"/></svg>