<svg xmlns="http://www.w3.org/2000/svg" viewBox="0 0 256 256" fill="currentColor"><path d="M224,64V192a8,8,0,0,1-8,8H80L45.15,230.11A8,8,0,0,1,32,224V64a8,8,0,0,1,8-8H216A8,8,0,0,1,224,64Z" opacity="0.2"/><path d="M116,128a12,12,0,1,1,12,12A12,12,0,0,1,116,128ZM84,140a12,12,0,1,0-12-12A12,12,0,0,0,84,140Zm88,0a12,12,0,1,0-12-12A12,12,0,0,0,172,140Zm60-76V192a16,16,0,0,1-16,16H83l-32.6,28.16-.09.07A15.89,15.89,0,0,1,40,240a16.13,16.13,0,0,1-6.8-1.52A15.85,15.85,0,0,1,24,224V64A16,16,0,0,1,40,48H216A16,16,0,0,1,232,64ZM40,224h0ZM216,64H40V224l34.77-30A8,8,0,0,1,80,192H216Z"/></svg>