<svg xmlns="http://www.w3.org/2000/svg" viewBox="0 0 256 256" fill="currentColor"><path d="M138,120a10,10,0,1,1-10-10A10,10,0,0,1,138,120ZM84,110a10,10,0,1,0,10,10A10,10,0,0,0,84,110Zm88,0a10,10,0,1,0,10,10A10,10,0,0,0,172,110Zm58-54V184a14,14,0,0,1-14,14H154.41L140.16,223a14,14,0,0,1-24.32,0L101.59,198H40a14,14,0,0,1-14-14V56A14,14,0,0,1,40,42H216A14,14,0,0,1,230,56Zm-12,0a2,2,0,0,0-2-2H40a2,2,0,0,0-2,2V184a2,2,0,0,0,2,2h65.07a6,6,0,0,1,5.21,3l16,28a2,2,0,0,0,3.48,0l16-28a6,6,0,0,1,5.21-3H216a2,2,0,0,0,2-2Z"/></svg>