<svg xmlns="http://www.w3.org/2000/svg" viewBox="0 0 256 256" fill="currentColor"><path d="M229.93,186.58A78,78,0,0,0,168.16,74.42,78,78,0,1,0,26.07,138.58L18.58,164A14,14,0,0,0,36,181.42l25.46-7.49a78,78,0,0,0,26.39,7.63,78,78,0,0,0,106.77,40.37L220,229.42A14,14,0,0,0,237.42,212ZM62,161.5a6.05,6.05,0,0,0-1.69.24l-27.77,8.17a2,2,0,0,1-2.48-2.48l8.17-27.77a6.05,6.05,0,0,0-.47-4.53,66,66,0,1,1,27.08,27.08A6,6,0,0,0,62,161.5Zm155.71,26.16,8.17,27.77a2,2,0,0,1-2.48,2.48l-27.77-8.17a6.06,6.06,0,0,0-4.53.47,66,66,0,0,1-90-28.4,77.92,77.92,0,0,0,71-94.68,66,66,0,0,1,46.07,96A6.05,6.05,0,0,0,217.74,187.66Z"/></svg>