<svg xmlns="http://www.w3.org/2000/svg" viewBox="0 0 256 256" fill="currentColor"><path d="M216,82H182V48a14,14,0,0,0-14-14H40A14,14,0,0,0,26,48V176a6,6,0,0,0,3.42,5.41A5.86,5.86,0,0,0,32,182a6,6,0,0,0,3.77-1.33L73.71,150H74v34a14,14,0,0,0,14,14h94.29l37.94,30.67A6,6,0,0,0,224,230a5.86,5.86,0,0,0,2.58-.59A6,6,0,0,0,230,224V96A14,14,0,0,0,216,82ZM71.58,138a6,6,0,0,0-3.77,1.33L38,163.43V48a2,2,0,0,1,2-2H168a2,2,0,0,1,2,2v88a2,2,0,0,1-2,2ZM218,211.43l-29.81-24.1a6,6,0,0,0-3.77-1.33H88a2,2,0,0,1-2-2V150h82a14,14,0,0,0,14-14V94h34a2,2,0,0,1,2,2Z"/></svg>