<svg xmlns="http://www.w3.org/2000/svg" viewBox="0 0 256 256" fill="currentColor"><path d="M51,37.31A4,4,0,0,0,45,42.69L57.83,56.76A100,100,0,0,0,40.53,176.5l-11.9,35.69a12,12,0,0,0,15.18,15.18l35.69-11.9a100,100,0,0,0,112.75-10.85L205,218.69a4,4,0,1,0,5.92-5.38ZM128,220a92,92,0,0,1-46.07-12.35,4,4,0,0,0-3.27-.33L41.28,219.78a4,4,0,0,1-5.06-5.06l12.46-37.38a4,4,0,0,0-.33-3.27A92,92,0,0,1,63.22,62.69l123.64,136A91.75,91.75,0,0,1,128,220Zm100-92a100.28,100.28,0,0,1-11.9,47.36,4,4,0,0,1-3.53,2.1,3.91,3.91,0,0,1-1.89-.48,4,4,0,0,1-1.63-5.42A92,92,0,0,0,92.33,43.17a4,4,0,0,1-3.11-7.37A100.05,100.05,0,0,1,228,128Z"/></svg>