<svg xmlns="http://www.w3.org/2000/svg" viewBox="0 0 256 256" fill="currentColor"><path d="M227.79,186.39a76,76,0,0,0-61-110.07A76,76,0,1,0,28.21,138.39L20.5,164.6a12,12,0,0,0,14.9,14.9l26.21-7.71a75.93,75.93,0,0,0,27.6,7.9,76,76,0,0,0,105.18,40.1l26.21,7.71a12,12,0,0,0,14.9-14.9ZM60.9,163.66l-27.76,8.17a4,4,0,0,1-5-5l8.17-27.76a4.07,4.07,0,0,0-.31-3A68,68,0,1,1,63.92,164,4.06,4.06,0,0,0,60.9,163.66Zm165.92,55.16a4,4,0,0,1-4,1l-27.76-8.17a4.07,4.07,0,0,0-3,.31A68,68,0,0,1,98,180a76,76,0,0,0,71.5-95.28A68,68,0,0,1,220,184.08a4.07,4.07,0,0,0-.31,3l8.17,27.76A4,4,0,0,1,226.82,218.82Z"/></svg>