<svg xmlns="http://www.w3.org/2000/svg" viewBox="0 0 256 256" fill="currentColor"><path d="M237.66,85.26l-128.4,128.4a8,8,0,0,1-11.32,0l-71.6-72a8,8,0,0,1,0-11.31l24-24a8,8,0,0,1,11.32,0L104,147.43l98.34-97.09a8,8,0,0,1,11.32,0l24,23.6A8,8,0,0,1,237.66,85.26Z" opacity="0.2"/><path d="M243.28,68.24l-24-23.56a16,16,0,0,0-22.59,0L104,136.23l-36.69-35.6a16,16,0,0,0-22.58.05l-24,24a16,16,0,0,0,0,22.61l71.62,72a16,16,0,0,0,22.63,0L243.33,90.91A16,16,0,0,0,243.28,68.24ZM103.62,208,32,136l24-24a.6.6,0,0,1,.08.08l42.35,41.09a8,8,0,0,0,11.19,0L208.06,56,232,79.6Z"/></svg>