<svg xmlns="http://www.w3.org/2000/svg" viewBox="0 0 256 256" fill="currentColor"><path d="M224,152v64H184V128ZM32,216H72V128L32,152Z" opacity="0.2"/><path d="M228.12,145.14,192,123.47V104a8,8,0,0,0-4-7L136,67.36V48h16a8,8,0,0,0,0-16H136V16a8,8,0,0,0-16,0V32H104a8,8,0,0,0,0,16h16V67.36L68,97.05a8,8,0,0,0-4,7v19.47L27.88,145.14A8,8,0,0,0,24,152v64a8,8,0,0,0,8,8h80a8,8,0,0,0,8-8V168a8,8,0,0,1,16,0v48a8,8,0,0,0,8,8h80a8,8,0,0,0,8-8V152A8,8,0,0,0,228.12,145.14ZM40,156.53l24-14.4V208H40ZM128,144a24,24,0,0,0-24,24v40H80V108.64l48-27.43,48,27.43V208H152V168A24,24,0,0,0,128,144Zm88,64H192V142.13l24,14.4Z"/></svg>