<svg xmlns="http://www.w3.org/2000/svg" viewBox="0 0 256 256" fill="currentColor"><path d="M208,40H48a8,8,0,0,0-8,8V208a8,8,0,0,0,8,8H208a8,8,0,0,0,8-8V48A8,8,0,0,0,208,40ZM88,184a16,16,0,1,1,16-16A16,16,0,0,1,88,184Zm80-64a16,16,0,1,1,16-16A16,16,0,0,1,168,120Z" opacity="0.2"/><path d="M208,32H48A16,16,0,0,0,32,48V208a16,16,0,0,0,16,16H208a16,16,0,0,0,16-16V48A16,16,0,0,0,208,32ZM88,160a8,8,0,1,1-8,8A8,8,0,0,1,88,160ZM48,48H80v97.38a24,24,0,1,0,16,0V115.31l48,48V208H48ZM208,208H160V160a8,8,0,0,0-2.34-5.66L96,92.69V48h32V72a8,8,0,0,0,2.34,5.66l16,16A23.74,23.74,0,0,0,144,104a24,24,0,1,0,24-24,23.74,23.74,0,0,0-10.34,2.35L144,68.69V48h64V208ZM168,96a8,8,0,1,1-8,8A8,8,0,0,1,168,96Z"/></svg>