<svg xmlns="http://www.w3.org/2000/svg" viewBox="0 0 256 256" fill="currentColor"><path d="M224,128a96,96,0,1,1-96-96A96,96,0,0,1,224,128Z" opacity="0.2"/><path d="M96.26,37A8,8,0,0,1,102,27.29a104.11,104.11,0,0,1,52,0,8,8,0,0,1-2,15.75,8.15,8.15,0,0,1-2-.26,88.09,88.09,0,0,0-44,0A8,8,0,0,1,96.26,37ZM53.79,55.14a104,104,0,0,0-26,45,8,8,0,1,0,15.42,4.26,87.91,87.91,0,0,1,22-38.08A8,8,0,0,0,53.79,55.14ZM43.21,151.55a8,8,0,1,0-15.42,4.28,104,104,0,0,0,26,45,8,8,0,1,0,11.41-11.21A88.14,88.14,0,0,1,43.21,151.55ZM150,213.22a88,88,0,0,1-44,0,8,8,0,1,0-4,15.49,104.11,104.11,0,0,0,52,0,8,8,0,0,0-4-15.49ZM222.65,146a8,8,0,0,0-9.85,5.57,87.88,87.88,0,0,1-22,38.09,8,8,0,1,0,11.42,11.21,104.05,104.05,0,0,0,26-45A8,8,0,0,0,222.65,146Zm-9.86-41.54a8,8,0,0,0,15.42-4.28,104,104,0,0,0-26-45,8,8,0,1,0-11.41,11.21A88.14,88.14,0,0,1,212.79,104.45Z"/></svg>