<svg xmlns="http://www.w3.org/2000/svg" viewBox="0 0 256 256" fill="currentColor"><path d="M155.87,36.06a4,4,0,0,1-3.87,3,4.29,4.29,0,0,1-1-.13,92,92,0,0,0-46,0,4,4,0,0,1-2-7.74,100.09,100.09,0,0,1,50,0A4,4,0,0,1,155.87,36.06ZM56.65,57.94a100.18,100.18,0,0,0-25,43.29,4,4,0,0,0,7.71,2.14,92.06,92.06,0,0,1,23-39.82,4,4,0,1,0-5.7-5.61ZM39.36,152.62a4,4,0,0,0-7.71,2.14,100.08,100.08,0,0,0,25,43.31,4,4,0,1,0,5.71-5.61A91.91,91.91,0,0,1,39.36,152.62ZM151,217.09a92,92,0,0,1-46,0,4,4,0,0,0-2,7.75,100,100,0,0,0,50,0,4,4,0,1,0-2-7.74Zm70.58-67.25a4,4,0,0,0-4.92,2.79,92.12,92.12,0,0,1-23,39.82,4,4,0,1,0,5.7,5.61,100.18,100.18,0,0,0,25-43.29A4,4,0,0,0,221.58,149.84Zm-4.94-46.46a4,4,0,0,0,7.71-2.14,100.08,100.08,0,0,0-25-43.31,4,4,0,1,0-5.71,5.61A91.91,91.91,0,0,1,216.64,103.38Z"/></svg>