<svg xmlns="http://www.w3.org/2000/svg" viewBox="0 0 256 256" fill="currentColor"><path d="M240,204h-4V88a12,12,0,0,0-12-12H152a12,12,0,0,0-12,12v36H116V40a12,12,0,0,0-12-12H32A12,12,0,0,0,20,40V204H16a12,12,0,0,0,0,24H240a12,12,0,0,0,0-24ZM164,100h48V204H164Zm-24,48v56H116V148ZM44,52H92V204H44ZM80,76v8a12,12,0,0,1-24,0V76a12,12,0,0,1,24,0Zm0,48v8a12,12,0,0,1-24,0v-8a12,12,0,0,1,24,0Zm0,48v8a12,12,0,0,1-24,0v-8a12,12,0,0,1,24,0Zm96,8v-8a12,12,0,0,1,24,0v8a12,12,0,0,1-24,0Zm0-48v-8a12,12,0,0,1,24,0v8a12,12,0,0,1-24,0Z"/></svg>