<svg xmlns="http://www.w3.org/2000/svg" viewBox="0 0 256 256" fill="currentColor"><path d="M164,152a4,4,0,0,1-4,4H96a4,4,0,0,1,0-8h64A4,4,0,0,1,164,152Zm-4-36H96a4,4,0,0,0,0,8h64a4,4,0,0,0,0-8Zm52-68V216a12,12,0,0,1-12,12H56a12,12,0,0,1-12-12V48A12,12,0,0,1,56,36H94.08a44,44,0,0,1,67.84,0H200A12,12,0,0,1,212,48ZM92,64v4h72V64a36,36,0,0,0-72,0ZM204,48a4,4,0,0,0-4-4H167.17A43.71,43.71,0,0,1,172,64v8a4,4,0,0,1-4,4H88a4,4,0,0,1-4-4V64a43.71,43.71,0,0,1,4.83-20H56a4,4,0,0,0-4,4V216a4,4,0,0,0,4,4H200a4,4,0,0,0,4-4Z"/></svg>