<svg xmlns="http://www.w3.org/2000/svg" viewBox="0 0 256 256" fill="currentColor"><path d="M166,152a6,6,0,0,1-6,6H96a6,6,0,0,1,0-12h64A6,6,0,0,1,166,152Zm-6-38H96a6,6,0,0,0,0,12h64a6,6,0,0,0,0-12Zm54-66V216a14,14,0,0,1-14,14H56a14,14,0,0,1-14-14V48A14,14,0,0,1,56,34H93.17a45.91,45.91,0,0,1,69.66,0H200A14,14,0,0,1,214,48ZM94,64v2h68V64a34,34,0,0,0-68,0ZM202,48a2,2,0,0,0-2-2H170.33A45.77,45.77,0,0,1,174,64v8a6,6,0,0,1-6,6H88a6,6,0,0,1-6-6V64a45.77,45.77,0,0,1,3.67-18H56a2,2,0,0,0-2,2V216a2,2,0,0,0,2,2H200a2,2,0,0,0,2-2Z"/></svg>