<svg xmlns="http://www.w3.org/2000/svg" viewBox="0 0 256 256" fill="currentColor"><path d="M224,128a95.6,95.6,0,0,1-9.09,40.82A24,24,0,1,0,191.5,200l0,0a33.15,33.15,0,0,0-29,17.6A96,96,0,1,1,224,128Z" opacity="0.2"/><path d="M136,72v43.05l36.42-18.21a8,8,0,0,1,7.16,14.31l-48,24A8,8,0,0,1,120,128V72a8,8,0,0,1,16,0Zm-8,144a88,88,0,1,1,88-88,8,8,0,0,0,16,0A104,104,0,1,0,128,232a8,8,0,0,0,0-16Zm103.73,5.94a8,8,0,1,1-15.46,4.11C213.44,215.42,203.46,208,192,208s-21.44,7.42-24.27,18.05A8,8,0,0,1,160,232a8.15,8.15,0,0,1-2.06-.27,8,8,0,0,1-5.67-9.79,40,40,0,0,1,17.11-23.32,32,32,0,1,1,45.23,0A40,40,0,0,1,231.73,221.94ZM176,176a16,16,0,1,0,16-16A16,16,0,0,0,176,176Z"/></svg>