<svg xmlns="http://www.w3.org/2000/svg" viewBox="0 0 256 256" fill="currentColor"><path d="M232,64V192a8,8,0,0,1-8,8H32a8,8,0,0,1-8-8V64a8,8,0,0,1,8-8H224A8,8,0,0,1,232,64Z" opacity="0.2"/><path d="M224,48H32A16,16,0,0,0,16,64V192a16,16,0,0,0,16,16H224a16,16,0,0,0,16-16V64A16,16,0,0,0,224,48Zm0,144H32V64H224V192ZM118.93,151.71A8,8,0,0,1,116,162.64a40,40,0,1,1,0-69.28,8,8,0,1,1-8,13.85,24,24,0,1,0,0,41.58A8,8,0,0,1,118.93,151.71Zm80,0A8,8,0,0,1,196,162.64a40,40,0,1,1,0-69.28,8,8,0,1,1-8,13.85,24,24,0,1,0,0,41.58A8,8,0,0,1,198.93,151.71Z"/></svg>