<svg xmlns="http://www.w3.org/2000/svg" viewBox="0 0 256 256" fill="currentColor"><path d="M164,68a80.39,80.39,0,0,0-18.46,2.15,59.87,59.87,0,0,0-6-7.42l7.57-10.82a12,12,0,0,0-19.66-13.77L119.87,49A59.85,59.85,0,0,0,97.61,44l-2.3-13a12,12,0,0,0-23.63,4.17l2.3,13A60,60,0,0,0,54.77,60.47L43.91,52.86A12,12,0,0,0,30.14,72.52L41,80.11A59.45,59.45,0,0,0,36,102.36l-13,2.3a12,12,0,0,0,2.07,23.82,12.59,12.59,0,0,0,2.1-.18l13-2.3a59.29,59.29,0,0,0,3.44,7.25A56,56,0,0,0,84,228h80a80,80,0,0,0,0-160ZM96,68a36,36,0,0,1,26.45,11.61,80.37,80.37,0,0,0-32.06,36.75A56.5,56.5,0,0,0,84,116a55.84,55.84,0,0,0-20.33,3.83A36,36,0,0,1,96,68Zm68,136H84a32,32,0,0,1,0-64h.28c-.11,1.1-.2,2.2-.26,3.3a12,12,0,0,0,24,1.4,55.78,55.78,0,0,1,1.74-11l.15-.55A56.06,56.06,0,1,1,164,204Z"/></svg>