<svg xmlns="http://www.w3.org/2000/svg" viewBox="0 0 256 256" fill="currentColor"><path d="M232,144a48,48,0,0,1-88.07,26.44L160,224H96l16.07-53.56a48,48,0,1,1-23.9-71.65,48,48,0,1,1,79.66,0A48,48,0,0,1,232,144Z" opacity="0.2"/><path d="M184,88c-.78,0-1.56,0-2.33,0a56,56,0,1,0-107.34,0c-.78,0-1.55,0-2.33,0A56,56,0,1,0,96.54,194.35l-8.2,27.35A8,8,0,0,0,96,232h64a8,8,0,0,0,7.66-10.3l-8.2-27.35A56,56,0,1,0,184,88Zm0,96a40,40,0,0,1-33.4-18,8,8,0,0,0-14.33,6.71l13,43.26h-42.5l13-43.26A8,8,0,0,0,105.4,166a40,40,0,1,1-19.93-59.71,8,8,0,0,0,9.33-12,40,40,0,1,1,66.4,0,8,8,0,0,0,9.33,12A40,40,0,1,1,184,184Z"/></svg>