<svg xmlns="http://www.w3.org/2000/svg" viewBox="0 0 256 256" fill="currentColor"><path d="M222.72,67.91l-88-48.18a13.9,13.9,0,0,0-13.44,0l-88,48.17A14,14,0,0,0,26,80.18v95.64a14,14,0,0,0,7.28,12.28l88,48.17a13.92,13.92,0,0,0,13.44,0l88-48.17A14,14,0,0,0,230,175.82V80.18A14,14,0,0,0,222.72,67.91ZM128,121.16,44.49,75.44,83.14,54.29l42,23a6,6,0,0,0,5.76,0l42-23,38.65,21.15Zm-1-90.91a2,2,0,0,1,1.92,0l31.4,17.2L128,65.16,95.63,47.45ZM38,175.82v-40l36,19.7v41.16L39,177.57A2,2,0,0,1,38,175.82Zm48,27.46V152a6,6,0,0,0-3.12-5.26L38,122.17V85.57l84,46V223ZM134,223V131.56l84-46v36.6l-44.88,24.57A6,6,0,0,0,170,152v51.28Zm83-45.42-35,19.14V155.55l36-19.7v40A2,2,0,0,1,217,177.57Z"/></svg>