<svg xmlns="http://www.w3.org/2000/svg" viewBox="0 0 256 256" fill="currentColor"><path d="M223.68,66.15,135.68,18a15.94,15.94,0,0,0-15.36,0l-88,48.18a16,16,0,0,0-8.32,14v95.64a16,16,0,0,0,8.32,14l88,48.17a15.88,15.88,0,0,0,15.36,0l88-48.17a16,16,0,0,0,8.32-14V80.18A16,16,0,0,0,223.68,66.15ZM168,152v50.09l-32,17.52V132.74l80-43.8v32l-43.84,24A8,8,0,0,0,168,152Zm-84.16-7L40,121v-32l80,43.8v86.87L88,202.09V152A8,8,0,0,0,83.84,145Zm-.7-88.41,41,22.45a8,8,0,0,0,7.68,0l41-22.45,34.48,18.87L128,118.88,48.66,75.44ZM128,32h0l28.2,15.44L128,62.89,99.8,47.45ZM40,139.22l32,17.52v36.59L40,175.82Zm144,54.11V156.74l32-17.52v36.6Z"/></svg>