<svg xmlns="http://www.w3.org/2000/svg" viewBox="0 0 256 256" fill="currentColor"><path d="M221.76,69.66l-88-48.18a12,12,0,0,0-11.52,0l-88,48.18A12,12,0,0,0,28,80.18v95.64a12,12,0,0,0,6.24,10.52l88,48.18a11.95,11.95,0,0,0,11.52,0l88-48.18A12,12,0,0,0,228,175.82V80.18A12,12,0,0,0,221.76,69.66ZM128,123.44l-87.67-48L83.14,52l42.94,23.5a4,4,0,0,0,3.84,0L172.86,52l42.81,23.43ZM126.08,28.5a3.94,3.94,0,0,1,3.84,0l34.61,19L128,67.44l-36.53-20ZM36,175.82V132.47l40,21.9v45.72L38.08,179.33A4,4,0,0,1,36,175.82Zm48,28.65V152a4,4,0,0,0-2.08-3.51L36,123.35V82.19l88,48.18v96Zm48,21.89v-96l88-48.18v41.16l-45.92,25.14A4,4,0,0,0,172,152v52.47Zm85.92-47L180,200.09V154.37l40-21.9v43.35A4,4,0,0,1,217.92,179.33Z"/></svg>