<svg xmlns="http://www.w3.org/2000/svg" viewBox="0 0 256 256" fill="currentColor"><path d="M211.75,44.25C195,27.47,170.37,20.79,142.46,25.44c-26.91,4.49-53.87,19.09-75.9,41.12s-36.63,49-41.12,75.9c-4.65,27.91,2,52.51,18.81,69.29C57.54,225.05,75.75,232,96.62,232a103.66,103.66,0,0,0,16.92-1.44c26.91-4.49,53.87-19.09,75.9-41.12s36.63-49,41.12-75.9C235.21,85.63,228.53,61,211.75,44.25ZM77.87,77.87C102.56,53.19,133,39.93,159.15,39.93a62.26,62.26,0,0,1,29,6.67A108.48,108.48,0,0,0,157.1,63.54c-19.2,15.16-31.63,36.32-36.94,62.89-9.72,48.58-44.7,65.18-67.48,70.84C28.71,168.76,39.4,116.35,77.87,77.87ZM178.13,178.13c-34.69,34.68-80.71,46.78-110.32,31.27A108.72,108.72,0,0,0,98.9,192.46c19.2-15.16,31.63-36.32,36.94-62.89,9.72-48.58,44.7-65.18,67.48-70.84C227.29,87.24,216.6,139.65,178.13,178.13Z"/></svg>