<svg xmlns="http://www.w3.org/2000/svg" viewBox="0 0 256 256" fill="currentColor"><path d="M188,86.11V84c0-14.62-10.83-27.55-30.51-36.4C140.87,40.12,119,36,96,36S51.13,40.12,34.51,47.6C14.83,56.45,4,69.38,4,84v40c0,14.62,10.83,27.55,30.51,36.4A131.67,131.67,0,0,0,68,169.88V172c0,14.62,10.83,27.55,30.51,36.4C115.13,215.88,137,220,160,220s44.87-4.12,61.49-11.6C241.17,199.55,252,186.62,252,172V132C252,109.86,226.71,92.08,188,86.11ZM228,132c0,7.75-21.77,22.48-61.81,23.88C180.33,147.4,188,136.3,188,124V110.44C213.88,115.15,228,125.48,228,132ZM107.37,147.63c-3.63.24-7.42.37-11.37.37-5.08,0-9.89-.22-14.43-.61a10.94,10.94,0,0,0-1.14-.09c-1.51-.14-3-.3-4.43-.48V130.93A187,187,0,0,0,96,132a187,187,0,0,0,20-1.07v15.89c-2.49.3-5.07.56-7.75.75C108,147.58,107.66,147.6,107.37,147.63ZM164,117.14V124c0,4.78-8.28,12.21-24,17.54v-15a115.32,115.32,0,0,0,17.49-6.13Q160.93,118.86,164,117.14ZM96,60c44,0,68,15.85,68,24s-24,24-68,24S28,92.15,28,84,52,60,96,60ZM28,124v-6.86q3.08,1.71,6.51,3.26A115.32,115.32,0,0,0,52,126.53v15C36.28,136.21,28,128.78,28,124Zm64,48v0c1.33,0,2.66,0,4,0q5.44,0,10.77-.32,4.45,1.57,9.23,2.86v15C100.28,184.21,92,176.78,92,172Zm48,22.82V178.94A186.45,186.45,0,0,0,160,180a187,187,0,0,0,20-1.07v15.89a170.08,170.08,0,0,1-40,0Zm64-5.28v-15a115.32,115.32,0,0,0,17.49-6.13q3.44-1.54,6.51-3.26V172C228,176.78,219.72,184.21,204,189.54Z"/></svg>