<svg xmlns="http://www.w3.org/2000/svg" viewBox="0 0 256 256" fill="currentColor"><path d="M196.78,57.09C185.08,37,169.18,26,152,26H104C86.82,26,70.92,37,59.22,57.09,48.12,76.13,42,101.31,42,128s6.12,51.87,17.22,70.91C70.92,219,86.82,230,104,230h48c17.18,0,33.08-11,44.78-31.09,11.1-19,17.22-44.22,17.22-70.91S207.88,76.13,196.78,57.09Zm5.1,64.91h-36c-.65-18.84-4.37-36.73-10.74-52H190C197.06,84.74,201.16,102.77,201.88,122ZM152,38c11.31,0,22.22,7.06,31.14,20H149.28l-.5-.91A76.8,76.8,0,0,0,133.49,38ZM69.58,192.86C59.54,175.63,54,152.6,54,128s5.54-47.63,15.58-64.86C79,46.93,91.26,38,104,38s25,8.93,34.42,25.14C148.46,80.37,154,103.4,154,128s-5.54,47.63-15.58,64.86C129,209.07,116.74,218,104,218S79,209.07,69.58,192.86ZM152,218H133.49a76.8,76.8,0,0,0,15.29-19.09l.5-.91h33.86C174.22,210.94,163.31,218,152,218Zm38-32H155.14c6.37-15.27,10.09-33.16,10.74-52h36C201.16,153.23,197.06,171.26,190,186Z"/></svg>