<svg xmlns="http://www.w3.org/2000/svg" viewBox="0 0 256 256" fill="currentColor"><path d="M152,20H104C65.87,20,36,67.44,36,128s29.87,108,68,108h48c38.13,0,68-47.44,68-108S190.13,20,152,20Zm37.21,152h-22.9a162.62,162.62,0,0,0,5.29-32h23.93A133.22,133.22,0,0,1,189.21,172ZM171.6,116a162.62,162.62,0,0,0-5.29-32h22.9a133.22,133.22,0,0,1,6.32,32Zm5.63-56h-20a98.26,98.26,0,0,0-10-16H152C157.37,44,167.25,46.25,177.23,60ZM74.77,189.84C65.24,173.51,60,151.55,60,128s5.24-45.51,14.77-61.84C86,46.88,97.91,44,104,44s18,2.88,29.23,22.16C142.76,82.49,148,104.45,148,128s-5.24,45.51-14.77,61.84C122,209.12,110.09,212,104,212S86,209.12,74.77,189.84ZM152,212h-4.79a98.26,98.26,0,0,0,10-16h20C167.25,209.75,157.37,212,152,212Z"/></svg>