<svg xmlns="http://www.w3.org/2000/svg" viewBox="0 0 256 256" fill="currentColor"><path d="M114.32,49.8A19.79,19.79,0,0,0,81.72,57L29.22,201.41A19.82,19.82,0,0,0,47.75,228a20,20,0,0,0,6.84-1.22L199,174.28a19.79,19.79,0,0,0,7.24-32.6ZM104.19,183.21l-31.4-31.4L82.94,123.9l49.16,49.16Zm-52.42,26.4Zm12-32.91L79.3,192.26l-24.45,8.89ZM157,164,92,99l10-27.58L184.57,154ZM128,40V16a12,12,0,0,1,24,0V40a12,12,0,0,1-24,0Zm116.48,83.51a12,12,0,0,1-17,17l-16-16a12,12,0,0,1,17-17Zm-.69-40.13-24,8a12,12,0,0,1-7.59-22.77l24-8a12,12,0,1,1,7.59,22.77ZM156.6,65.93C159.83,47.47,173.39,36,192,36c6.45,0,8.69-2.49,10-4.92a18,18,0,0,0,2-7.22V24a12,12,0,0,1,24,0c0,14.47-9.59,36-36,36-4.94,0-10.21,1.19-11.76,10.06A12,12,0,0,1,168.43,80a12.35,12.35,0,0,1-2.08-.18A12,12,0,0,1,156.6,65.93Z"/></svg>