<svg xmlns="http://www.w3.org/2000/svg" viewBox="0 0 256 256" fill="currentColor"><path d="M216,122a6,6,0,0,0-5.09,2.82,176.66,176.66,0,0,1-16.69,22.65l-17.87-94a14,14,0,0,0-22.5-8.35l-.1.08L129.22,65.59a2,2,0,0,1-2.44,0L102.25,45.16l-.1-.08a14,14,0,0,0-22.5,8.34L61.77,147.49a178.33,178.33,0,0,1-16.68-22.67A6,6,0,0,0,40,122a38,38,0,0,0,0,76H216a38,38,0,0,0,0-76ZM91.44,55.65a2,2,0,0,1,3.18-1.22l24.54,20.43.09.08a13.93,13.93,0,0,0,17.5,0l.09-.08,24.54-20.43a2,2,0,0,1,3.18,1.23L178.69,130H77.31ZM40,186a26,26,0,0,1-3.17-51.81C54.5,161.44,73.53,177.05,89.62,186Zm88,0c-.34,0-26.71-.41-56-27.91L75,142H181L184,158.05a115.79,115.79,0,0,1-28.89,20.19C139.38,185.81,128.08,186,128,186Zm88,0H166.38c16.09-8.95,35.12-24.56,52.79-51.81A26,26,0,0,1,216,186Z"/></svg>