<svg xmlns="http://www.w3.org/2000/svg" viewBox="0 0 256 256" fill="currentColor"><path d="M152,96H104a8,8,0,0,0-8,8v48a8,8,0,0,0,8,8h48a8,8,0,0,0,8-8V104A8,8,0,0,0,152,96Zm-8,48H112V112h32Zm88,0H216V112h16a8,8,0,0,0,0-16H216V56a16,16,0,0,0-16-16H160V24a8,8,0,0,0-16,0V40H112V24a8,8,0,0,0-16,0V40H56A16,16,0,0,0,40,56V96H24a8,8,0,0,0,0,16H40v32H24a8,8,0,0,0,0,16H40v40a16,16,0,0,0,16,16H96v16a8,8,0,0,0,16,0V216h32v16a8,8,0,0,0,16,0V216h40a16,16,0,0,0,16-16V160h16a8,8,0,0,0,0-16Zm-32,56H56V56H200v95.87s0,.09,0,.13,0,.09,0,.13V200Z"/></svg>