<svg xmlns="http://www.w3.org/2000/svg" viewBox="0 0 256 256" fill="currentColor"><path d="M208,88v32a8,8,0,0,1-8,8H152v96a8,8,0,0,1-8,8H112a8,8,0,0,1-8-8V128H56a8,8,0,0,1-8-8V88a8,8,0,0,1,8-8h48V32a8,8,0,0,1,8-8h32a8,8,0,0,1,8,8V80h48A8,8,0,0,1,208,88Z" opacity="0.2"/><path d="M200,72H160V32a16,16,0,0,0-16-16H112A16,16,0,0,0,96,32V72H56A16,16,0,0,0,40,88v32a16,16,0,0,0,16,16H96v88a16,16,0,0,0,16,16h32a16,16,0,0,0,16-16V136h40a16,16,0,0,0,16-16V88A16,16,0,0,0,200,72Zm0,48H152a8,8,0,0,0-8,8v96H112V128a8,8,0,0,0-8-8H56V88h48a8,8,0,0,0,8-8V32h32V80a8,8,0,0,0,8,8h48Z"/></svg>