<svg xmlns="http://www.w3.org/2000/svg" viewBox="0 0 256 256" fill="currentColor"><path d="M232,116h-4.72A100.21,100.21,0,0,0,140,28.72V24a12,12,0,0,0-24,0v4.72A100.21,100.21,0,0,0,28.72,116H24a12,12,0,0,0,0,24h4.72A100.21,100.21,0,0,0,116,227.28V232a12,12,0,0,0,24,0v-4.72A100.21,100.21,0,0,0,227.28,140H232a12,12,0,0,0,0-24Zm-92,87v-3a12,12,0,0,0-24,0v3a76.15,76.15,0,0,1-63-63h3a12,12,0,0,0,0-24H53a76.15,76.15,0,0,1,63-63v3a12,12,0,0,0,24,0V53a76.15,76.15,0,0,1,63,63h-3a12,12,0,0,0,0,24h3A76.15,76.15,0,0,1,140,203ZM128,84a44,44,0,1,0,44,44A44.05,44.05,0,0,0,128,84Zm0,64a20,20,0,1,1,20-20A20,20,0,0,1,128,148Z"/></svg>