<svg xmlns="http://www.w3.org/2000/svg" viewBox="0 0 256 256" fill="currentColor"><path d="M230.9,73.6A15.85,15.85,0,0,0,212,77.39l-33.67,36.29-35.8-80.29a1,1,0,0,1,0-.1,16,16,0,0,0-29.06,0,1,1,0,0,1,0,.1l-35.8,80.29L44,77.39A16,16,0,0,0,16.25,90.81c0,.11,0,.21.07.32L39,195a16,16,0,0,0,15.72,13H201.29A16,16,0,0,0,217,195L239.68,91.13c0-.11,0-.21.07-.32A15.85,15.85,0,0,0,230.9,73.6ZM201.35,191.68l-.06.32H54.71l-.06-.32L32,88l.14.16,42,45.24a8,8,0,0,0,13.18-2.18L128,40l40.69,91.25a8,8,0,0,0,13.18,2.18l42-45.24L224,88Z"/></svg>