<svg xmlns="http://www.w3.org/2000/svg" viewBox="0 0 256 256" fill="currentColor"><path d="M216.71,99.73l-15.6,93.59a8,8,0,0,1-7.89,6.68H62.78a8,8,0,0,1-7.89-6.68L39.29,99.73l.08,0a19.82,19.82,0,0,0,9.22-4.16h0L88,144l32-73.65h0a20,20,0,0,0,15.92,0h0L168,144l39.39-48.48h0a19.82,19.82,0,0,0,9.22,4.16Z" opacity="0.2"/><path d="M248,80a28,28,0,1,0-51.12,15.77l-26.79,33L146,73.4a28,28,0,1,0-36.06,0L85.91,128.74l-26.79-33a28,28,0,1,0-26.6,12L47,194.63A16,16,0,0,0,62.78,208H193.22A16,16,0,0,0,209,194.63l14.47-86.85A28,28,0,0,0,248,80ZM128,40a12,12,0,1,1-12,12A12,12,0,0,1,128,40ZM24,80A12,12,0,1,1,36,92,12,12,0,0,1,24,80ZM193.22,192H62.78L48.86,108.52,81.79,149A8,8,0,0,0,88,152a7.83,7.83,0,0,0,1.08-.07,8,8,0,0,0,6.26-4.74l29.3-67.4a27,27,0,0,0,6.72,0l29.3,67.4a8,8,0,0,0,6.26,4.74A7.83,7.83,0,0,0,168,152a8,8,0,0,0,6.21-3l32.93-40.52ZM220,92a12,12,0,1,1,12-12A12,12,0,0,1,220,92Z"/></svg>