<svg xmlns="http://www.w3.org/2000/svg" viewBox="0 0 256 256" fill="currentColor"><path d="M232.63,70a19.82,19.82,0,0,0-23.55,4.71l-29.52,31.82L146.22,31.76l-.06-.14a20,20,0,0,0-36.32,0l-.06.14L76.44,106.52,46.92,74.7a20,20,0,0,0-34.6,16.81c0,.16.06.31.09.47L35.07,195.76A20,20,0,0,0,54.71,212H201.29a20,20,0,0,0,19.64-16.24L243.59,92c0-.16.07-.31.09-.47A19.82,19.82,0,0,0,232.63,70ZM198.06,188H57.94L39.06,101.51,71.2,136.16A12,12,0,0,0,91,132.89l37-83.07,37,83.07a12,12,0,0,0,19.76,3.27l32.14-34.65Z"/></svg>