<svg xmlns="http://www.w3.org/2000/svg" viewBox="0 0 256 256" fill="currentColor"><path d="M50,136h52L76,200Zm52,0h52L128,72Zm52,0,26,64,26-64Z" opacity="0.2"/><path d="M240,128H217.89l21.52-53a8,8,0,1,0-14.82-6l-24,59H159.38l-24-59a8,8,0,0,0-14.82,0l-24,59H55.38l-24-59a8,8,0,0,0-14.82,6l21.52,53H16a8,8,0,0,0,0,16H44.61l24,59a8,8,0,0,0,14.82,0l24-59h41.24l24,59a8,8,0,0,0,14.82,0l24-59H240a8,8,0,0,0,0-16ZM76,178.75,61.88,144H90.12ZM113.88,128,128,93.26,142.12,128ZM180,178.75,165.88,144h28.24Z"/></svg>