<svg xmlns="http://www.w3.org/2000/svg" viewBox="0 0 256 256" fill="currentColor"><path d="M196,35.52C177.62,25.51,153.48,20,128,20S78.38,25.51,60,35.52C39.37,46.79,28,62.58,28,80v96c0,17.42,11.37,33.21,32,44.48,18.35,10,42.49,15.52,68,15.52s49.62-5.51,68-15.52c20.66-11.27,32-27.06,32-44.48V80C228,62.58,216.63,46.79,196,35.52ZM204,128c0,17-31.21,36-76,36s-76-19-76-36v-8.46a88.9,88.9,0,0,0,8,4.94c18.35,10,42.49,15.52,68,15.52s49.62-5.51,68-15.52a88.9,88.9,0,0,0,8-4.94ZM128,44c44.79,0,76,19,76,36s-31.21,36-76,36S52,97,52,80,83.21,44,128,44Zm0,168c-44.79,0-76-19-76-36v-8.46a88.9,88.9,0,0,0,8,4.94c18.35,10,42.49,15.52,68,15.52s49.62-5.51,68-15.52a88.9,88.9,0,0,0,8-4.94V176C204,193,172.79,212,128,212Z"/></svg>