<svg xmlns="http://www.w3.org/2000/svg" viewBox="0 0 256 256" fill="currentColor"><path d="M192.14,42.55C174.94,33.17,152.16,28,128,28S81.06,33.17,63.86,42.55C45.89,52.35,36,65.65,36,80v96c0,14.35,9.89,27.65,27.86,37.45,17.2,9.38,40,14.55,64.14,14.55s46.94-5.17,64.14-14.55c18-9.8,27.86-23.1,27.86-37.45V80C220,65.65,210.11,52.35,192.14,42.55ZM212,176c0,11.29-8.41,22.1-23.69,30.43C172.27,215.18,150.85,220,128,220s-44.27-4.82-60.31-13.57C52.41,198.1,44,187.29,44,176V149.48c4.69,5.93,11.37,11.34,19.86,16,17.2,9.38,40,14.55,64.14,14.55s46.94-5.17,64.14-14.55c8.49-4.63,15.17-10,19.86-16Zm0-48c0,11.29-8.41,22.1-23.69,30.43C172.27,167.18,150.85,172,128,172s-44.27-4.82-60.31-13.57C52.41,150.1,44,139.29,44,128V101.48c4.69,5.93,11.37,11.34,19.86,16,17.2,9.38,40,14.55,64.14,14.55s46.94-5.17,64.14-14.55c8.49-4.63,15.17-10,19.86-16Zm-23.69-17.57C172.27,119.18,150.85,124,128,124s-44.27-4.82-60.31-13.57C52.41,102.1,44,91.29,44,80s8.41-22.1,23.69-30.43C83.73,40.82,105.15,36,128,36s44.27,4.82,60.31,13.57C203.59,57.9,212,68.71,212,80S203.59,102.1,188.31,110.43Z"/></svg>