<svg xmlns="http://www.w3.org/2000/svg" viewBox="0 0 256 256" fill="currentColor"><path d="M224,72H212V64a28,28,0,0,0-28-28H40A28,28,0,0,0,12,64v88a28,28,0,0,0,28,28h96v12a28,28,0,0,0,28,28h60a28,28,0,0,0,28-28V100A28,28,0,0,0,224,72ZM40,156a4,4,0,0,1-4-4V64a4,4,0,0,1,4-4H184a4,4,0,0,1,4,4v8H164a28,28,0,0,0-28,28v56Zm188,36a4,4,0,0,1-4,4H164a4,4,0,0,1-4-4V100a4,4,0,0,1,4-4h60a4,4,0,0,1,4,4ZM124,208a12,12,0,0,1-12,12H88a12,12,0,0,1,0-24h24A12,12,0,0,1,124,208Zm88-84a12,12,0,0,1-12,12H188a12,12,0,0,1,0-24h12A12,12,0,0,1,212,124Z"/></svg>