<svg xmlns="http://www.w3.org/2000/svg" viewBox="0 0 256 256" fill="currentColor"><path d="M192,40V216a16,16,0,0,1-16,16H80a16,16,0,0,1-16-16V40A16,16,0,0,1,80,24h96A16,16,0,0,1,192,40Z" opacity="0.2"/><path d="M213.92,210.62l-160-176A8,8,0,1,0,42.08,45.38L56,60.69V216a24,24,0,0,0,24,24h96a24,24,0,0,0,23.82-21.11l2.26,2.49a8,8,0,1,0,11.84-10.76ZM184,216a8,8,0,0,1-8,8H80a8,8,0,0,1-8-8V78.29l112,123.2ZM68.7,24a8,8,0,0,1,8-8H176a24,24,0,0,1,24,24V150.83a8,8,0,1,1-16,0V40a8,8,0,0,0-8-8H76.7A8,8,0,0,1,68.7,24Z"/></svg>