<svg xmlns="http://www.w3.org/2000/svg" viewBox="0 0 256 256" fill="currentColor"><path d="M123.76,108.24a6,6,0,0,0,8.48,0l40-40a6,6,0,0,0,0-8.48l-40-40a6,6,0,0,0-8.48,0l-40,40a6,6,0,0,0,0,8.48ZM128,32.49,159.51,64,128,95.51,96.49,64Zm4.24,115.27a6,6,0,0,0-8.48,0l-40,40a6,6,0,0,0,0,8.48l40,40a6,6,0,0,0,8.48,0l40-40a6,6,0,0,0,0-8.48ZM128,223.51,96.49,192,128,160.49,159.51,192Zm108.24-99.75-40-40a6,6,0,0,0-8.48,0l-40,40a6,6,0,0,0,0,8.48l40,40a6,6,0,0,0,8.48,0l40-40A6,6,0,0,0,236.24,123.76ZM192,159.51,160.49,128,192,96.49,223.51,128Zm-83.76-35.75-40-40a6,6,0,0,0-8.48,0l-40,40a6,6,0,0,0,0,8.48l40,40a6,6,0,0,0,8.48,0l40-40A6,6,0,0,0,108.24,123.76ZM64,159.51,32.49,128,64,96.49,95.51,128Z"/></svg>