<svg xmlns="http://www.w3.org/2000/svg" viewBox="0 0 256 256" fill="currentColor"><path d="M192,28H64A36,36,0,0,0,28,64V192a36,36,0,0,0,36,36H192a36,36,0,0,0,36-36V64A36,36,0,0,0,192,28Zm12,164a12,12,0,0,1-12,12H64a12,12,0,0,1-12-12V64A12,12,0,0,1,64,52H192a12,12,0,0,1,12,12ZM112,84A16,16,0,1,1,96,68,16,16,0,0,1,112,84Zm64,0a16,16,0,1,1-16-16A16,16,0,0,1,176,84Zm-64,44a16,16,0,1,1-16-16A16,16,0,0,1,112,128Zm64,0a16,16,0,1,1-16-16A16,16,0,0,1,176,128Zm-64,44a16,16,0,1,1-16-16A16,16,0,0,1,112,172Zm64,0a16,16,0,1,1-16-16A16,16,0,0,1,176,172Z"/></svg>