<svg xmlns="http://www.w3.org/2000/svg" viewBox="0 0 256 256" fill="currentColor"><path d="M192,36H64A28,28,0,0,0,36,64V192a28,28,0,0,0,28,28H192a28,28,0,0,0,28-28V64A28,28,0,0,0,192,36Zm20,156a20,20,0,0,1-20,20H64a20,20,0,0,1-20-20V64A20,20,0,0,1,64,44H192a20,20,0,0,1,20,20ZM100,84a8,8,0,1,1-8-8A8,8,0,0,1,100,84Zm72,0a8,8,0,1,1-8-8A8,8,0,0,1,172,84Zm-72,44a8,8,0,1,1-8-8A8,8,0,0,1,100,128Zm72,0a8,8,0,1,1-8-8A8,8,0,0,1,172,128Zm-72,44a8,8,0,1,1-8-8A8,8,0,0,1,100,172Zm72,0a8,8,0,1,1-8-8A8,8,0,0,1,172,172Z"/></svg>