<svg xmlns="http://www.w3.org/2000/svg" viewBox="0 0 256 256" fill="currentColor"><path d="M100,140a8,8,0,1,1-8-8A8,8,0,0,1,100,140Zm64-8a8,8,0,1,0,8,8A8,8,0,0,0,164,132Zm72.83,57.25-67,29.71a12.36,12.36,0,0,1-5,1,12.13,12.13,0,0,1-11.38-7.88l-9.15-24.81c-5.36.45-10.81.69-16.34.69s-11-.24-16.34-.69l-9.15,24.81A12.13,12.13,0,0,1,91.13,220a12.36,12.36,0,0,1-5-1l-67-29.71a12,12,0,0,1-6.8-13.88L41.9,59a12.06,12.06,0,0,1,9.77-8.91l36.06-5.92a12.18,12.18,0,0,1,13.73,8.91l4.12,16.22a195.47,195.47,0,0,1,44.84,0l4.12-16.22a12.18,12.18,0,0,1,13.73-8.91l36.06,5.92A12.06,12.06,0,0,1,214.1,59l29.53,116.38A12,12,0,0,1,236.83,189.25Zm-1-11.91L206.35,61A4.07,4.07,0,0,0,203,58L167,52.05a4.15,4.15,0,0,0-4.69,3L158.4,70.38a166.74,166.74,0,0,1,18.68,4.08,4,4,0,1,1-2.16,7.7A176.21,176.21,0,0,0,128,76a176.21,176.21,0,0,0-46.92,6.16,4,4,0,1,1-2.16-7.7A166.74,166.74,0,0,1,97.6,70.38L93.71,55a4.15,4.15,0,0,0-4.69-3L53,58a4.07,4.07,0,0,0-3.31,3L20.12,177.34a4,4,0,0,0,2.29,4.59l67,29.71a4.16,4.16,0,0,0,3.35,0A4,4,0,0,0,95,209.35l8.45-22.88a171.49,171.49,0,0,1-24.53-4.92,4,4,0,0,1,2.16-7.71A176.21,176.21,0,0,0,128,180a176.21,176.21,0,0,0,46.92-6.16,4,4,0,0,1,2.16,7.71,171.49,171.49,0,0,1-24.53,4.92L161,209.35a4,4,0,0,0,2.23,2.32,4.16,4.16,0,0,0,3.35,0l67-29.71A4,4,0,0,0,235.88,177.34Z"/></svg>