<svg xmlns="http://www.w3.org/2000/svg" viewBox="0 0 256 256" fill="currentColor"><path d="M235.21,185.59l-67,29.7a8.15,8.15,0,0,1-11-4.56L147,183.06a190.5,190.5,0,0,1-19,.94,190.5,190.5,0,0,1-19-.94L98.75,210.73a8.15,8.15,0,0,1-11,4.56l-67-29.7a8,8,0,0,1-4.55-9.24L45.77,60A8.08,8.08,0,0,1,52.31,54l36.06-5.92a8.1,8.1,0,0,1,9.21,6l5,19.63a192.32,192.32,0,0,1,50.88,0l5-19.63a8.1,8.1,0,0,1,9.21-6L203.69,54A8.08,8.08,0,0,1,210.23,60l29.53,116.37A8,8,0,0,1,235.21,185.59Z" opacity="0.2"/><path d="M104,140a12,12,0,1,1-12-12A12,12,0,0,1,104,140Zm60-12a12,12,0,1,0,12,12A12,12,0,0,0,164,128Zm74.45,64.9-67,29.71a16.17,16.17,0,0,1-21.71-9.1l-8.11-22q-6.72.45-13.63.46t-13.63-.46l-8.11,22a16.18,16.18,0,0,1-21.71,9.1l-67-29.71a15.94,15.94,0,0,1-9.06-18.51L38,58A16.08,16.08,0,0,1,51,46.13l36.06-5.92a16.21,16.21,0,0,1,18.26,11.88l3.26,12.83Q118.11,64,128,64t19.4.92l3.26-12.83a16.22,16.22,0,0,1,18.26-11.88L205,46.13A16.08,16.08,0,0,1,218,58l29.53,116.38A15.94,15.94,0,0,1,238.45,192.9ZM232,178.28,202.47,62s0,0-.08,0L166.33,56a.17.17,0,0,0-.17,0l-2.83,11.14c5,.94,10,2.06,14.83,3.42A8,8,0,0,1,176,86.31a8.09,8.09,0,0,1-2.16-.3A172.25,172.25,0,0,0,128,80a172.25,172.25,0,0,0-45.84,6,8,8,0,1,1-4.32-15.4c4.82-1.36,9.78-2.48,14.82-3.42L89.83,56a.21.21,0,0,0-.12,0h0L53.61,61.92a.24.24,0,0,0-.09,0L24,178.33,91,208a.21.21,0,0,0,.22,0L98,189.72a173.2,173.2,0,0,1-20.14-4.32A8,8,0,0,1,82.16,170,171.85,171.85,0,0,0,128,176a171.85,171.85,0,0,0,45.84-6,8,8,0,0,1,4.32,15.41A173.2,173.2,0,0,1,158,189.72L164.75,208a.22.22,0,0,0,.21,0Z"/></svg>