<svg xmlns="http://www.w3.org/2000/svg" viewBox="0 0 256 256" fill="currentColor"><path d="M196,204.5V232a4,4,0,0,1-8,0V204.5a67.62,67.62,0,0,0-37.59-60.82L102,119.48a75.6,75.6,0,0,1-42-68V24a4,4,0,0,1,8,0V51.5a67.62,67.62,0,0,0,37.59,60.82l48.4,24.2A75.6,75.6,0,0,1,196,204.5Zm-36-.5H68a67.74,67.74,0,0,1,4.59-24h75.51a4,4,0,0,0,0-8H76.3a67.91,67.91,0,0,1,19.45-22.31A4,4,0,0,0,91,143.24,76.26,76.26,0,0,0,60,204.5V232a4,4,0,0,0,8,0V212h92a4,4,0,0,0,0-8ZM192,20a4,4,0,0,0-4,4V44H96a4,4,0,0,0,0,8h92a67.74,67.74,0,0,1-4.59,24H107.89a4,4,0,1,0,0,8H179.7a67.91,67.91,0,0,1-19.45,22.31,4,4,0,0,0,4.74,6.45A76.26,76.26,0,0,0,196,51.5V24A4,4,0,0,0,192,20Z"/></svg>