<svg xmlns="http://www.w3.org/2000/svg" viewBox="0 0 256 256" fill="currentColor"><path d="M152,128a24,24,0,1,1-24-24A24,24,0,0,1,152,128ZM48,104a24,24,0,1,0,24,24A24,24,0,0,0,48,104Zm160,0a24,24,0,1,0,24,24A24,24,0,0,0,208,104Z" opacity="0.2"/><path d="M128,96a32,32,0,1,0,32,32A32,32,0,0,0,128,96Zm0,48a16,16,0,1,1,16-16A16,16,0,0,1,128,144ZM48,96a32,32,0,1,0,32,32A32,32,0,0,0,48,96Zm0,48a16,16,0,1,1,16-16A16,16,0,0,1,48,144ZM208,96a32,32,0,1,0,32,32A32,32,0,0,0,208,96Zm0,48a16,16,0,1,1,16-16A16,16,0,0,1,208,144Z"/></svg>