<svg xmlns="http://www.w3.org/2000/svg" viewBox="0 0 256 256" fill="currentColor"><path d="M224,128a96,96,0,1,1-96-96A96,96,0,0,1,224,128Z" opacity="0.2"/><path d="M128,24A104,104,0,1,0,232,128,104.11,104.11,0,0,0,128,24Zm87.65,96.18Q211.83,120,208,120a168.58,168.58,0,0,0-43.94,5.84A166.52,166.52,0,0,0,150.61,96a168.32,168.32,0,0,0,38.2-31.55A87.78,87.78,0,0,1,215.65,120.18ZM176.28,54.46A151.75,151.75,0,0,1,142,82.52a169.22,169.22,0,0,0-38.63-39,88,88,0,0,1,73,10.94ZM85.65,50.88a153.13,153.13,0,0,1,42,39.18A151.82,151.82,0,0,1,64,104a154.19,154.19,0,0,1-20.28-1.35A88.39,88.39,0,0,1,85.65,50.88ZM40,128a87.73,87.73,0,0,1,.53-9.64A168.85,168.85,0,0,0,64,120a167.84,167.84,0,0,0,72.52-16.4,150.82,150.82,0,0,1,12.31,27.13,167.11,167.11,0,0,0-24.59,11.6,169.22,169.22,0,0,0-55.07,51.06A87.8,87.8,0,0,1,40,128Zm42,75a152.91,152.91,0,0,1,50.24-46.79,148.81,148.81,0,0,1,20.95-10,152.48,152.48,0,0,1,3.73,33.47,152.93,152.93,0,0,1-3.49,32.56A87.92,87.92,0,0,1,82,203Zm89.06,1.73a170,170,0,0,0,1.86-25,168.69,168.69,0,0,0-4.45-38.47A152.31,152.31,0,0,1,208,136q3.8,0,7.61.19A88.13,88.13,0,0,1,171.06,204.72Z"/></svg>