<svg xmlns="http://www.w3.org/2000/svg" viewBox="0 0 256 256" fill="currentColor"><path d="M128,26A102,102,0,1,0,230,128,102.12,102.12,0,0,0,128,26Zm89.81,96.3c-3.26-.19-6.54-.3-9.8-.3a166.44,166.44,0,0,0-45.25,6.29A164.28,164.28,0,0,0,148.33,96c-.14-.25-.3-.49-.44-.74a166.34,166.34,0,0,0,40.79-33.71A89.79,89.79,0,0,1,217.81,122.3ZM179.29,54.09a154.52,154.52,0,0,1-37.9,31.11A167,167,0,0,0,98.88,42.84a89.87,89.87,0,0,1,80.41,11.25ZM85.71,48.58a155,155,0,0,1,45,42.27A153.71,153.71,0,0,1,64,106a156.8,156.8,0,0,1-22.84-1.69A90.37,90.37,0,0,1,85.71,48.58ZM38,128a90.17,90.17,0,0,1,.79-11.92A167.23,167.23,0,0,0,64,118a165.69,165.69,0,0,0,73.29-17c.22.37.46.73.67,1.1A152.2,152.2,0,0,1,151.34,132a164.57,164.57,0,0,0-26.09,12.11A167,167,0,0,0,69.57,196.4,89.84,89.84,0,0,1,38,128Zm41.19,75.58a155.24,155.24,0,0,1,52.05-49.12,152.9,152.9,0,0,1,23.38-10.93,154.31,154.31,0,0,1,4.3,36.16,154.78,154.78,0,0,1-3.81,34.13,89.88,89.88,0,0,1-75.92-10.24Zm89.24,4.81a166.76,166.76,0,0,0,2.49-28.7,166.67,166.67,0,0,0-4.86-39.87A154.6,154.6,0,0,1,208,134c3.25,0,6.52.11,9.77.32A90.16,90.16,0,0,1,168.43,208.39Z"/></svg>