<svg xmlns="http://www.w3.org/2000/svg" viewBox="0 0 256 256" fill="currentColor"><path d="M172.53,49.06a252.86,252.86,0,0,0-41.09-38,6,6,0,0,0-6.88,0,252.86,252.86,0,0,0-41.09,38C56.34,80.26,42,113.09,42,144a86,86,0,0,0,172,0C214,113.09,199.66,80.26,172.53,49.06ZM128,218a74.09,74.09,0,0,1-74-74c0-59.62,59-108.93,74-120.51C143,35.07,202,84.38,202,144A74.09,74.09,0,0,1,128,218Zm53.92-65A55.58,55.58,0,0,1,137,197.92a7,7,0,0,1-1,.08,6,6,0,0,1-1-11.92c17.38-2.92,32.13-17.68,35.08-35.08a6,6,0,1,1,11.84,2Z"/></svg>