<svg xmlns="http://www.w3.org/2000/svg" viewBox="0 0 256 256" fill="currentColor"><path d="M208,144a80,80,0,0,1-160,0,100.8,100.8,0,0,1,1.3-16H206.7A100.8,100.8,0,0,1,208,144Z" opacity="0.2"/><path d="M174,47.75a254.19,254.19,0,0,0-41.45-38.3,8,8,0,0,0-9.18,0A254.19,254.19,0,0,0,82,47.75C54.51,79.32,40,112.6,40,144a88,88,0,0,0,176,0C216,112.6,201.49,79.32,174,47.75ZM128,26c14.16,11.1,56.86,47.74,68.84,94H59.16C71.14,73.76,113.84,37.12,128,26Zm0,190a72.08,72.08,0,0,1-72-72q0-4,.36-8H199.64q.36,4,.36,8A72.08,72.08,0,0,1,128,216Z"/></svg>