<svg xmlns="http://www.w3.org/2000/svg" viewBox="0 0 256 256" fill="currentColor"><path d="M212,104a4,4,0,0,1-8,0,76,76,0,0,0-152,0c0,28.4,9.55,37.61,18.79,46.52C79.25,158.67,88,167.11,88,188a40,40,0,0,0,40,40c11.37,0,20.83-4.76,28.92-14.55a4,4,0,0,1,6.16,5.1C153.52,230.13,141.71,236,128,236a48.05,48.05,0,0,1-48-48c0-17.49-6.84-24.09-14.76-31.72C55.28,146.68,44,135.79,44,104a84,84,0,0,1,168,0Zm-36.14,60.54A4,4,0,0,0,170.4,166a12,12,0,0,1-22.4-6c0-10.67,5.44-17.92,11.2-25.6C165.49,126,172,117.33,172,104a44,44,0,0,0-88,0,4,4,0,0,0,8,0,36,36,0,0,1,72,0c0,10.67-5.44,17.92-11.2,25.6C146.51,138,140,146.67,140,160a20,20,0,0,0,37.32,10A4,4,0,0,0,175.86,164.54Z"/></svg>