<svg xmlns="http://www.w3.org/2000/svg" viewBox="0 0 256 256" fill="currentColor"><path d="M214,104a6,6,0,0,1-12,0,74,74,0,0,0-148,0c0,27.55,8.83,36.06,18.18,45.08,4.31,4.15,8.77,8.45,12.16,14.47C88.15,170.31,90,178.3,90,188a38,38,0,0,0,38,38c10.74,0,19.69-4.52,27.37-13.82a6,6,0,0,1,9.26,7.64C154.66,231.88,142.34,238,128,238a50.06,50.06,0,0,1-50-50c0-16.64-6.24-22.66-14.15-30.29C54.12,148.33,42,136.64,42,104a86,86,0,0,1,172,0Zm-37.14,58.81a6,6,0,0,0-8.19,2.19A10,10,0,0,1,150,160c0-10,5-16.67,10.8-24.4C167,127.35,174,118,174,104a46,46,0,0,0-92,0,6,6,0,0,0,12,0,34,34,0,0,1,68,0c0,10-5,16.67-10.8,24.4C145,136.65,138,146,138,160a22,22,0,0,0,41.05,11A6,6,0,0,0,176.86,162.81Z"/></svg>