<svg xmlns="http://www.w3.org/2000/svg" viewBox="0 0 256 256" fill="currentColor"><path d="M232,64V192H24V80A16,16,0,0,1,40,64Z" opacity="0.2"/><path d="M80,96a8,8,0,0,1-8,8H24a8,8,0,0,1,0-16H72A8,8,0,0,1,80,96Zm-8,24H24a8,8,0,0,0,0,16H72a8,8,0,0,0,0-16Zm0,32H24a8,8,0,0,0,0,16H72a8,8,0,0,0,0-16Zm0,32H24a8,8,0,0,0,0,16H72a8,8,0,0,0,0-16Zm80-64H104a8,8,0,0,0,0,16h48a8,8,0,0,0,0-16Zm0,32H104a8,8,0,0,0,0,16h48a8,8,0,0,0,0-16Zm0,32H104a8,8,0,0,0,0,16h48a8,8,0,0,0,0-16Zm80-96H184a8,8,0,0,0,0,16h48a8,8,0,0,0,0-16ZM184,72h48a8,8,0,0,0,0-16H184a8,8,0,0,0,0,16Zm48,48H184a8,8,0,0,0,0,16h48a8,8,0,0,0,0-16Zm0,32H184a8,8,0,0,0,0,16h48a8,8,0,0,0,0-16Zm0,32H184a8,8,0,0,0,0,16h48a8,8,0,0,0,0-16Z"/></svg>