<svg xmlns="http://www.w3.org/2000/svg" viewBox="0 0 256 256" fill="currentColor"><path d="M80,108a12,12,0,0,1-12,12H28a12,12,0,0,1,0-24H68A12,12,0,0,1,80,108ZM68,136H28a12,12,0,0,0,0,24H68a12,12,0,0,0,0-24Zm0,40H28a12,12,0,0,0,0,24H68a12,12,0,0,0,0-24Zm80-40H108a12,12,0,0,0,0,24h40a12,12,0,0,0,0-24Zm0,40H108a12,12,0,0,0,0,24h40a12,12,0,0,0,0-24Zm40-96h40a12,12,0,0,0,0-24H188a12,12,0,0,0,0,24Zm40,16H188a12,12,0,0,0,0,24h40a12,12,0,0,0,0-24Zm0,40H188a12,12,0,0,0,0,24h40a12,12,0,0,0,0-24Zm0,40H188a12,12,0,0,0,0,24h40a12,12,0,0,0,0-24Z"/></svg>