<svg xmlns="http://www.w3.org/2000/svg" viewBox="0 0 256 256" fill="currentColor"><path d="M78,96a6,6,0,0,1-6,6H24a6,6,0,0,1,0-12H72A6,6,0,0,1,78,96Zm-6,26H24a6,6,0,0,0,0,12H72a6,6,0,0,0,0-12Zm0,32H24a6,6,0,0,0,0,12H72a6,6,0,0,0,0-12Zm0,32H24a6,6,0,0,0,0,12H72a6,6,0,0,0,0-12Zm80-64H104a6,6,0,0,0,0,12h48a6,6,0,0,0,0-12Zm0,32H104a6,6,0,0,0,0,12h48a6,6,0,0,0,0-12Zm0,32H104a6,6,0,0,0,0,12h48a6,6,0,0,0,0-12Zm80-96H184a6,6,0,0,0,0,12h48a6,6,0,0,0,0-12ZM184,70h48a6,6,0,0,0,0-12H184a6,6,0,0,0,0,12Zm48,52H184a6,6,0,0,0,0,12h48a6,6,0,0,0,0-12Zm0,32H184a6,6,0,0,0,0,12h48a6,6,0,0,0,0-12Zm0,32H184a6,6,0,0,0,0,12h48a6,6,0,0,0,0-12Z"/></svg>