<svg xmlns="http://www.w3.org/2000/svg" viewBox="0 0 256 256" fill="currentColor"><path d="M160,168l-48,48H66.75L36.69,185.94a16,16,0,0,1,0-22.63L96,104Z" opacity="0.2"/><path d="M225,80.4,183.6,39a24,24,0,0,0-33.94,0L31,157.66a24,24,0,0,0,0,33.94l30.06,30.06A8,8,0,0,0,66.74,224H216a8,8,0,0,0,0-16h-84.7L225,114.34A24,24,0,0,0,225,80.4ZM108.68,208H70.05L42.33,180.28a8,8,0,0,1,0-11.31L96,115.31,148.69,168Zm105-105L160,156.69,107.31,104,161,50.34a8,8,0,0,1,11.32,0l41.38,41.38a8,8,0,0,1,0,11.31Z"/></svg>