<svg xmlns="http://www.w3.org/2000/svg" viewBox="0 0 256 256" fill="currentColor"><path d="M232,160v40a8,8,0,0,1-8,8H168L72,104H32a8,8,0,0,1-8-8V56a8,8,0,0,1,8-8H88l96,104h40A8,8,0,0,1,232,160Z" opacity="0.2"/><path d="M170.34,85.66a8,8,0,0,1,11.32-11.32L192,84.69V48a8,8,0,0,1,16,0V84.69l10.34-10.35a8,8,0,0,1,11.32,11.32l-24,24a8,8,0,0,1-11.32,0ZM240,160v40a16,16,0,0,1-16,16H168a8,8,0,0,1-5.88-2.57L68.5,112H32A16,16,0,0,1,16,96V56A16,16,0,0,1,32,40H88a8,8,0,0,1,5.88,2.57L187.5,144H224A16,16,0,0,1,240,160Zm-16,0H184a8,8,0,0,1-5.88-2.57L84.5,56H32V96H72a8,8,0,0,1,5.88,2.57L171.5,200H224Z"/></svg>