<svg xmlns="http://www.w3.org/2000/svg" viewBox="0 0 256 256" fill="currentColor"><path d="M173.17,82.83a4,4,0,0,1,5.66-5.66L196,94.34V48a4,4,0,0,1,8,0V94.34l17.17-17.17a4,4,0,1,1,5.66,5.66l-24,24a4,4,0,0,1-5.66,0ZM236,160v40a12,12,0,0,1-12,12H168a4,4,0,0,1-2.94-1.29L70.25,108H32A12,12,0,0,1,20,96V56A12,12,0,0,1,32,44H88a4,4,0,0,1,2.94,1.29L185.75,148H224A12,12,0,0,1,236,160Zm-8,0a4,4,0,0,0-4-4H184a4,4,0,0,1-2.94-1.29L86.25,52H32a4,4,0,0,0-4,4V96a4,4,0,0,0,4,4H72a4,4,0,0,1,2.94,1.29L169.75,204H224a4,4,0,0,0,4-4Z"/></svg>