<svg xmlns="http://www.w3.org/2000/svg" viewBox="0 0 256 256" fill="currentColor"><path d="M52.44,36A6,6,0,0,0,43.56,44L64.44,67c-37.28,21.9-53.23,57-53.92,58.57a6,6,0,0,0,0,4.88c.34.77,8.66,19.22,27.24,37.8C55,185.47,84.62,206,128,206a124.91,124.91,0,0,0,52.57-11.25l23,25.29a6,6,0,0,0,8.88-8.08Zm48.62,71.32,45,49.52a34,34,0,0,1-45-49.52ZM128,194c-31.38,0-58.78-11.42-81.45-33.93A134.57,134.57,0,0,1,22.69,128c4.29-8.2,20.1-35.18,50-51.91L92.89,98.3a46,46,0,0,0,61.35,67.48l17.81,19.6A113.47,113.47,0,0,1,128,194Zm6.4-99.4a6,6,0,0,1,2.25-11.79,46.17,46.17,0,0,1,37.15,40.87,6,6,0,0,1-5.42,6.53l-.56,0a6,6,0,0,1-6-5.45A34.1,34.1,0,0,0,134.4,94.6Zm111.08,35.85c-.41.92-10.37,23-32.86,43.12a6,6,0,1,1-8-8.94A134.07,134.07,0,0,0,233.31,128a134.67,134.67,0,0,0-23.86-32.07C186.78,73.42,159.38,62,128,62a120.19,120.19,0,0,0-19.69,1.6,6,6,0,1,1-2-11.83A131.12,131.12,0,0,1,128,50c43.38,0,73,20.54,90.24,37.76,18.58,18.58,26.9,37,27.24,37.81A6,6,0,0,1,245.48,130.45Z"/></svg>