<svg xmlns="http://www.w3.org/2000/svg" viewBox="0 0 256 256" fill="currentColor"><path d="M243.66,126.38c-.34-.76-8.52-18.89-26.83-37.2C199.87,72.22,170.7,52,128,52S56.13,72.22,39.17,89.18c-18.31,18.31-26.49,36.44-26.83,37.2a4.08,4.08,0,0,0,0,3.25c.34.77,8.52,18.89,26.83,37.2,17,17,46.14,37.17,88.83,37.17s71.87-20.21,88.83-37.17c18.31-18.31,26.49-36.43,26.83-37.2A4.08,4.08,0,0,0,243.66,126.38Zm-32.7,35c-23.07,23-51,34.62-83,34.62s-59.89-11.65-83-34.62A135.71,135.71,0,0,1,20.44,128,135.69,135.69,0,0,1,45,94.62C68.11,71.65,96,60,128,60s59.89,11.65,83,34.62A135.79,135.79,0,0,1,235.56,128,135.71,135.71,0,0,1,211,161.38ZM128,84a44,44,0,1,0,44,44A44.05,44.05,0,0,0,128,84Zm0,80a36,36,0,1,1,36-36A36,36,0,0,1,128,164Z"/></svg>