<svg xmlns="http://www.w3.org/2000/svg" viewBox="0 0 256 256" fill="currentColor"><path d="M234.42,162A12,12,0,1,1,213.58,174l-16.86-29.5a127.19,127.19,0,0,1-30.17,13.86L171.84,190a12,12,0,0,1-9.87,13.8,11.22,11.22,0,0,1-2,.17,12,12,0,0,1-11.82-10L143,163.17a136.5,136.5,0,0,1-30.06,0L107.84,194A12,12,0,0,1,96,204a11.22,11.22,0,0,1-2-.17A12,12,0,0,1,84.16,190l5.29-31.72a127.19,127.19,0,0,1-30.17-13.86L42.42,174A12,12,0,1,1,21.58,162L40,129.85a159.73,159.73,0,0,1-17.31-18.31A12,12,0,0,1,41.34,96.46C57.38,116.32,85.44,140,128,140s70.62-23.68,86.66-43.54a12,12,0,0,1,18.67,15.08A159.73,159.73,0,0,1,216,129.85Z"/></svg>