<svg xmlns="http://www.w3.org/2000/svg" viewBox="0 0 256 256" fill="currentColor"><path d="M251,123.13c-.37-.81-9.13-20.26-28.48-39.61C196.63,57.67,164,44,128,44S59.37,57.67,33.51,83.52C14.16,102.87,5.4,122.32,5,123.13a12.08,12.08,0,0,0,0,9.75c.37.82,9.13,20.26,28.49,39.61C59.37,198.34,92,212,128,212s68.63-13.66,94.48-39.51c19.36-19.35,28.12-38.79,28.49-39.61A12.08,12.08,0,0,0,251,123.13Zm-46.06,33C183.47,177.27,157.59,188,128,188s-55.47-10.73-76.91-31.88A130.36,130.36,0,0,1,29.52,128,130.45,130.45,0,0,1,51.09,99.89C72.54,78.73,98.41,68,128,68s55.46,10.73,76.91,31.89A130.36,130.36,0,0,1,226.48,128,130.45,130.45,0,0,1,204.91,156.12ZM128,84a44,44,0,1,0,44,44A44.05,44.05,0,0,0,128,84Zm0,64a20,20,0,1,1,20-20A20,20,0,0,1,128,148Z"/></svg>