<svg xmlns="http://www.w3.org/2000/svg" viewBox="0 0 256 256" fill="currentColor"><path d="M220,67.37a31.82,31.82,0,0,0-10-22.82c-12.46-11.8-32.66-11.33-45,1.05L142.82,67.86l-2-2a20,20,0,0,0-28.28,0l-9,9a12,12,0,0,0,0,17l4.89,4.89L54.55,150.52A35.81,35.81,0,0,0,45.42,186l-8.6,19.7a9.7,9.7,0,0,0,2,10.79A12,12,0,0,0,52.15,219l18.72-8.18a35.9,35.9,0,0,0,34.59-9.37l53.86-53.87,4.88,4.89a12,12,0,0,0,17,0l9-9a20,20,0,0,0,0-28.3l-2.06-2.06,22.55-22.69A31.75,31.75,0,0,0,220,67.37ZM99.81,195.78a28,28,0,0,1-28,7,4,4,0,0,0-2.78.15l-20,8.75a4,4,0,0,1-4.43-.84,1.73,1.73,0,0,1-.36-1.93l9.19-21.06a4,4,0,0,0,.12-2.88,27.87,27.87,0,0,1,6.74-28.77l53.85-53.87,39.6,39.61Zm79.78-85.47a4,4,0,0,0,0,5.65l4.89,4.89a12,12,0,0,1,0,17l-9,9a4,4,0,0,1-5.66,0L109.18,86.1a4,4,0,0,1,0-5.66l9-9a12,12,0,0,1,17,0L140,76.36a4,4,0,0,0,2.83,1.17h0a4,4,0,0,0,2.83-1.18l25-25.1c9.33-9.34,24.52-9.73,33.87-.89A24,24,0,0,1,205,84.79Z"/></svg>