<svg xmlns="http://www.w3.org/2000/svg" viewBox="0 0 256 256" fill="currentColor"><path d="M222,67.34a33.81,33.81,0,0,0-10.64-24.25C198.12,30.56,176.68,31,163.54,44.18L142.82,65l-.63-.63a22,22,0,0,0-31.11,0l-9,9a14,14,0,0,0,0,19.81l3.47,3.47L53.14,149.1a37.79,37.79,0,0,0-9.84,36.73l-8.31,19a11.68,11.68,0,0,0,2.46,13A13.91,13.91,0,0,0,47.32,222,14.15,14.15,0,0,0,53,220.82L71,212.92a37.92,37.92,0,0,0,35.84-10.07l52.44-52.46,3.47,3.48a14,14,0,0,0,19.8,0l9-9a22,22,0,0,0,0-31.12l-.66-.66L212,91.85A33.76,33.76,0,0,0,222,67.34Zm-123.61,127a26,26,0,0,1-26,6.47,6,6,0,0,0-4.16.24l-20,8.75a2,2,0,0,1-2.09-.31l9.12-20.9a5.94,5.94,0,0,0,.19-4.31,25.88,25.88,0,0,1,6.26-26.72l52.44-52.45,36.76,36.78Zm105.16-111L178.17,108.9a6,6,0,0,0,0,8.47l4.88,4.89a10,10,0,0,1,0,14.15l-9,9a2,2,0,0,1-2.82,0l-60.69-60.7a2,2,0,0,1,0-2.83l9-9a10,10,0,0,1,14.14,0l4.89,4.89a6,6,0,0,0,4.24,1.75h0a6,6,0,0,0,4.25-1.77L172,52.66c8.58-8.58,22.52-9,31.08-.85a22,22,0,0,1,.44,31.57Z"/></svg>