<svg xmlns="http://www.w3.org/2000/svg" viewBox="0 0 256 256" fill="currentColor"><path d="M116,176a8,8,0,0,1-8,8H80a8,8,0,0,1,0-16h28A8,8,0,0,1,116,176Zm60-8H148a8,8,0,0,0,0,16h28a8,8,0,0,0,0-16Zm64,48a8,8,0,0,1-8,8H24a8,8,0,0,1,0-16h8V88a8,8,0,0,1,12.8-6.4L96,120V88a8,8,0,0,1,12.8-6.4l38.74,29.05L159.1,29.74A16.08,16.08,0,0,1,174.94,16h18.12A16.08,16.08,0,0,1,208.9,29.74l15,105.13s.08.78.08,1.13v72h8A8,8,0,0,1,240,216Zm-77.86-94.4,8.53,6.4h36.11L193.06,32H174.94ZM48,208H208V144H168a8,8,0,0,1-4.8-1.6l-14.4-10.8,0,0L112,104v32a8,8,0,0,1-12.8,6.4L48,104Z"/></svg>