<svg xmlns="http://www.w3.org/2000/svg" viewBox="0 0 256 256" fill="currentColor"><path d="M212,100a23.78,23.78,0,0,0-11.65,3L165.9,60a24,24,0,1,0-41.28-10.56L72.29,71.21A24,24,0,1,0,49,107.8l2.11,52.71A24,24,0,1,0,77.7,194.23l54.43,15.24c-.08.83-.13,1.68-.13,2.53a24,24,0,1,0,40.07-17.81l30.6-48.08A23.78,23.78,0,0,0,212,148a24,24,0,0,0,0-48Zm-23.82,21.13-55.06,2.62,13.29-55.81q.79.06,1.59.06a23.78,23.78,0,0,0,11.65-3L194.1,108A23.91,23.91,0,0,0,188.18,121.13Zm-116,45.19a23.9,23.9,0,0,0-13.16-6.12l-2.11-52.71a24.05,24.05,0,0,0,13.52-8.18l50.4,29.18ZM148,28a16,16,0,1,1-16,16A16,16,0,0,1,148,28ZM127.71,56.79a24,24,0,0,0,10.92,9.3l-13.28,55.76L74.48,92.39A23.83,23.83,0,0,0,76,84a24.12,24.12,0,0,0-.62-5.41ZM36,84a16,16,0,1,1,16,16A16,16,0,0,1,36,84ZM56,200a16,16,0,1,1,16-16A16,16,0,0,1,56,200Zm23.87-13.47c.08-.83.13-1.68.13-2.53a23.86,23.86,0,0,0-2.87-11.37l48.86-38,18.73,56.19a24.17,24.17,0,0,0-10.42,11ZM156,228a16,16,0,1,1,16-16A16,16,0,0,1,156,228Zm9.33-38.11A23.78,23.78,0,0,0,156,188a24.94,24.94,0,0,0-3.69.28l-18.85-56.54,55.1-2.62a23.92,23.92,0,0,0,7.37,12.69ZM212,140a16,16,0,1,1,16-16A16,16,0,0,1,212,140Z"/></svg>