<svg xmlns="http://www.w3.org/2000/svg" viewBox="0 0 256 256" fill="currentColor"><path d="M200,128a32,32,0,1,1-32-32A32,32,0,0,1,200,128ZM96,96h40V32H96a32,32,0,0,0,0,64ZM64,196a36,36,0,0,0,72,0V160H100A36,36,0,0,0,64,196Z" opacity="0.2"/><path d="M192,96a40,40,0,0,0-24-72H96A40,40,0,0,0,72,96a40,40,0,0,0,1.37,65A44,44,0,1,0,144,196V160a40,40,0,1,0,48-64Zm0-32a24,24,0,0,1-24,24H144V40h24A24,24,0,0,1,192,64ZM72,64A24,24,0,0,1,96,40h32V88H96A24,24,0,0,1,72,64Zm24,88a24,24,0,0,1,0-48h32v48H96Zm32,44a28,28,0,1,1-28-28h28Zm40-44a24,24,0,1,1,24-24A24,24,0,0,1,168,152Z"/></svg>