<svg xmlns="http://www.w3.org/2000/svg" viewBox="0 0 256 256" fill="currentColor"><path d="M210.83,69.17l-40-40A4,4,0,0,0,168,28H88A12,12,0,0,0,76,40V60H56A12,12,0,0,0,44,72V216a12,12,0,0,0,12,12H168a12,12,0,0,0,12-12V196h20a12,12,0,0,0,12-12V72A4,4,0,0,0,210.83,69.17ZM172,216a4,4,0,0,1-4,4H56a4,4,0,0,1-4-4V72a4,4,0,0,1,4-4h78.34L172,105.66Zm32-32a4,4,0,0,1-4,4H180V104a4,4,0,0,0-1.17-2.83l-40-40A4,4,0,0,0,136,60H84V40a4,4,0,0,1,4-4h78.34L204,73.66Zm-64-32a4,4,0,0,1-4,4H88a4,4,0,0,1,0-8h48A4,4,0,0,1,140,152Zm0,32a4,4,0,0,1-4,4H88a4,4,0,0,1,0-8h48A4,4,0,0,1,140,184Z"/></svg>