<svg xmlns="http://www.w3.org/2000/svg" viewBox="0 0 256 256" fill="currentColor"><path d="M208,88H152V32Z" opacity="0.2"/><path d="M214.51,156.65,197.83,180l16.68,23.35a8,8,0,0,1-13,9.3L188,193.76l-13.49,18.89a8,8,0,1,1-13-9.3L178.17,180l-16.68-23.35a8,8,0,0,1,13-9.3L188,166.24l13.49-18.89a8,8,0,0,1,13,9.3ZM123.6,171.31c-4-1.16-8.14-2.35-10.45-3.84-1.25-.82-1.23-1-1.11-1.9a4.54,4.54,0,0,1,2-3.67c4.6-3.12,15.34-1.73,19.83-.56A8,8,0,0,0,138,145.86c-2.12-.55-21-5.22-32.84,2.76a20.58,20.58,0,0,0-9,14.94c-2,15.89,13.65,20.42,23,23.12,12.06,3.49,13.12,4.92,12.78,7.59-.31,2.41-1.26,3.33-2.14,3.93-4.6,3.06-15.17,1.56-19.55.35A8,8,0,1,0,106,214a60.43,60.43,0,0,0,15.18,2c5.82,0,12.3-1,17.49-4.46a20.82,20.82,0,0,0,9.19-15.23C150,179,133.49,174.17,123.6,171.31ZM80,144H40a8,8,0,0,0,0,16H52v48a8,8,0,0,0,16,0V160H80a8,8,0,0,0,0-16ZM216,88v24a8,8,0,0,1-16,0V96H152a8,8,0,0,1-8-8V40H56v72a8,8,0,0,1-16,0V40A16,16,0,0,1,56,24h96a8,8,0,0,1,5.66,2.34l56,56A8,8,0,0,1,216,88Zm-27.31-8L160,51.31V80Z"/></svg>