<svg xmlns="http://www.w3.org/2000/svg" viewBox="0 0 256 256" fill="currentColor"><path d="M109,148.67a6,6,0,0,0-10,0L76.46,182.5,65.05,164.76a6,6,0,0,0-10.1,0l-36,56A6,6,0,0,0,24,230H152a6,6,0,0,0,5-9.33ZM35,218l25-38.9,11.32,17.6a6,6,0,0,0,10,.08l22.64-34L140.79,218ZM212.24,83.76l-56-56A6,6,0,0,0,152,26H56A14,14,0,0,0,42,40v88a6,6,0,0,0,12,0V40a2,2,0,0,1,2-2h90V88a6,6,0,0,0,6,6h50V216a2,2,0,0,1-2,2h-8a6,6,0,0,0,0,12h8a14,14,0,0,0,14-14V88A6,6,0,0,0,212.24,83.76ZM158,46.48,193.52,82H158Z"/></svg>