<svg xmlns="http://www.w3.org/2000/svg" viewBox="0 0 256 256" fill="currentColor"><path d="M216.49,79.51l-56-56A12,12,0,0,0,152,20H56A20,20,0,0,0,36,40v68a12,12,0,0,0,24,0V44h76V92a12,12,0,0,0,12,12h48V212H180a12,12,0,0,0,0,24h20a20,20,0,0,0,20-20V88A12,12,0,0,0,216.49,79.51ZM160,57l23,23H160Zm-4.22,139.85a24.75,24.75,0,0,1-10.95,18.06c-6,4-13.27,5.15-19.73,5.15a63.75,63.75,0,0,1-16.23-2.21,12,12,0,0,1,6.46-23.12c6.81,1.86,15,1.61,16.39.06a2.48,2.48,0,0,0,.21-.71c-1.94-1.23-6.83-2.64-9.88-3.52-5.39-1.56-11-3.18-15.75-6.27-7.62-4.92-11.21-12.45-10.11-21.2a24.45,24.45,0,0,1,10.69-17.75c6.06-4.09,14.17-5.83,24.1-5.18A68.53,68.53,0,0,1,143,142a12,12,0,0,1-6.1,23.21c-6.36-1.63-13.62-1.51-16.07-.33a79.5,79.5,0,0,0,7.91,2.59c5.48,1.58,11.68,3.37,16.8,6.82C153.33,179.55,157,187.55,155.78,196.82ZM92,152a12,12,0,0,1-12,12H72v44a12,12,0,0,1-24,0V164H40a12,12,0,0,1,0-24H80A12,12,0,0,1,92,152Z"/></svg>