<svg xmlns="http://www.w3.org/2000/svg" viewBox="0 0 256 256" fill="currentColor"><path d="M210.83,85.17l-56-56A4,4,0,0,0,152,28H56A12,12,0,0,0,44,40V216a12,12,0,0,0,12,12H200a12,12,0,0,0,12-12V88A4,4,0,0,0,210.83,85.17ZM156,41.65,198.34,84H156ZM200,220H56a4,4,0,0,1-4-4V40a4,4,0,0,1,4-4h92V88a4,4,0,0,0,4,4h52V216A4,4,0,0,1,200,220Zm-45.17-89.17L133.66,152l21.17,21.17a4,4,0,0,1-5.66,5.66L128,157.66l-21.17,21.17a4,4,0,0,1-5.66-5.66L122.34,152l-21.17-21.17a4,4,0,1,1,5.66-5.66L128,146.34l21.17-21.17a4,4,0,1,1,5.66,5.66Z"/></svg>