<svg xmlns="http://www.w3.org/2000/svg" viewBox="0 0 256 256" fill="currentColor"><path d="M48,180c0,8.67,5.49,16,12,16a10.27,10.27,0,0,0,7.33-3.43,12,12,0,1,1,17.34,16.6A34,34,0,0,1,60,220C40.15,220,24,202,24,180s16.15-40,36-40a34,34,0,0,1,24.67,10.83,12,12,0,1,1-17.34,16.6A10.27,10.27,0,0,0,60,164C53.49,164,48,171.31,48,180Zm97.51-5.71c-5.13-3.45-11.33-5.24-16.8-6.82a79.5,79.5,0,0,1-7.91-2.59c2.45-1.18,9.71-1.3,16.07.33A12,12,0,0,0,143,142a69.24,69.24,0,0,0-12-1.86c-9.93-.66-18,1.08-24.1,5.17a24.45,24.45,0,0,0-10.69,17.76c-1.1,8.74,2.48,16.27,10.11,21.19,4.78,3.09,10.36,4.7,15.75,6.26,3,.89,7.94,2.3,9.88,3.53a2,2,0,0,1-.22.71c-1.36,1.55-9.57,1.79-16.39-.06a12,12,0,0,0-6.45,23.11A63.73,63.73,0,0,0,125.09,220c6.47,0,13.74-1.17,19.74-5.15a24.73,24.73,0,0,0,10.95-18C157,187.53,153.32,179.53,145.51,174.27ZM216,140.68A12,12,0,0,0,200.7,148L192,172.3,183.3,148A12,12,0,1,0,160.7,156l20,56a12,12,0,0,0,22.6,0l20-56A12,12,0,0,0,216,140.68ZM36,108V40A20,20,0,0,1,56,20h96a12,12,0,0,1,8.49,3.51l56,56A12,12,0,0,1,220,88v20a12,12,0,1,1-24,0v-4H148a12,12,0,0,1-12-12V44H60v64a12,12,0,1,1-24,0ZM160,80h23L160,57Z"/></svg>