<svg xmlns="http://www.w3.org/2000/svg" viewBox="0 0 256 256" fill="currentColor"><path d="M220,152a4,4,0,0,1-4,4H200v52a4,4,0,0,1-8,0V156H176a4,4,0,0,1,0-8h40A4,4,0,0,1,220,152ZM88,172a24,24,0,0,1-24,24H52v12a4,4,0,0,1-8,0V152a4,4,0,0,1,4-4H64A24,24,0,0,1,88,172Zm-8,0a16,16,0,0,0-16-16H52v32H64A16,16,0,0,0,80,172Zm76,0a24,24,0,0,1-24,24H120v12a4,4,0,0,1-8,0V152a4,4,0,0,1,4-4h16A24,24,0,0,1,156,172Zm-8,0a16,16,0,0,0-16-16H120v32h12A16,16,0,0,0,148,172ZM44,112V40A12,12,0,0,1,56,28h96a4,4,0,0,1,2.83,1.17l56,56A4,4,0,0,1,212,88v24a4,4,0,0,1-8,0V92H152a4,4,0,0,1-4-4V36H56a4,4,0,0,0-4,4v72a4,4,0,0,1-8,0ZM156,84h42.34L156,41.65Z"/></svg>