<svg xmlns="http://www.w3.org/2000/svg" viewBox="0 0 256 256" fill="currentColor"><path d="M46,180c0,12.13,8.07,22,18,22a16.23,16.23,0,0,0,11.67-5.28,6,6,0,0,1,8.66,8.3A28.06,28.06,0,0,1,64,214c-16.54,0-30-15.25-30-34s13.46-34,30-34a28.06,28.06,0,0,1,20.33,9,6,6,0,0,1-8.66,8.3A16.23,16.23,0,0,0,64,158C54.07,158,46,167.87,46,180ZM214,88V216a14,14,0,0,1-14,14H120a6,6,0,0,1,0-12h80a2,2,0,0,0,2-2V94H152a6,6,0,0,1-6-6V38H56a2,2,0,0,0-2,2v72a6,6,0,0,1-12,0V40A14,14,0,0,1,56,26h96a6,6,0,0,1,4.25,1.76l56,56A6,6,0,0,1,214,88Zm-56-6h35.52L158,46.48Z"/></svg>