<svg xmlns="http://www.w3.org/2000/svg" viewBox="0 0 256 256" fill="currentColor"><path d="M180.24,147.76a6,6,0,0,1,0,8.48l-24,24a6,6,0,0,1-8.48-8.48L167.51,152l-19.75-19.76a6,6,0,1,1,8.48-8.48Zm-72-24a6,6,0,0,0-8.48,0l-24,24a6,6,0,0,0,0,8.48l24,24a6,6,0,1,0,8.48-8.48L88.49,152l19.75-19.76A6,6,0,0,0,108.24,123.76ZM214,88V216a14,14,0,0,1-14,14H56a14,14,0,0,1-14-14V40A14,14,0,0,1,56,26h96a6,6,0,0,1,4.25,1.76l56,56A6,6,0,0,1,214,88Zm-56-6h35.52L158,46.48Zm44,134V94H152a6,6,0,0,1-6-6V38H56a2,2,0,0,0-2,2V216a2,2,0,0,0,2,2H200A2,2,0,0,0,202,216Z"/></svg>