<svg xmlns="http://www.w3.org/2000/svg" viewBox="0 0 256 256" fill="currentColor"><path d="M184,146H168a6,6,0,0,0-6,6v56a6,6,0,0,0,12,0V198h10a26,26,0,0,0,0-52Zm0,40H174V158h10a14,14,0,0,1,0,28Zm-50-34v56a6,6,0,0,1-12,0V152a6,6,0,0,1,12,0ZM94,208a6,6,0,0,1-6,6H56a6,6,0,0,1-5.21-9l26.87-47H56a6,6,0,0,1,0-12H88a6,6,0,0,1,5.21,9L66.34,202H88A6,6,0,0,1,94,208ZM212.24,83.76l-56-56A6,6,0,0,0,152,26H56A14,14,0,0,0,42,40v72a6,6,0,0,0,12,0V40a2,2,0,0,1,2-2h90V88a6,6,0,0,0,6,6h50v18a6,6,0,0,0,12,0V88A6,6,0,0,0,212.24,83.76ZM158,82V46.48L193.52,82Z"/></svg>