<svg xmlns="http://www.w3.org/2000/svg" viewBox="0 0 256 256" fill="currentColor"><path d="M216.49,79.52l-56-56A12,12,0,0,0,152,20H56A20,20,0,0,0,36,40v68a12,12,0,0,0,24,0V44h76V92a12,12,0,0,0,12,12h48V212H172a12,12,0,0,0,0,24h28a20,20,0,0,0,20-20V88A12,12,0,0,0,216.49,79.52ZM160,57l23,23H160ZM64,140H48a12,12,0,0,0-12,12v56a12,12,0,0,0,24,0v-4h4a32,32,0,0,0,0-64Zm0,40H60V164h4a8,8,0,0,1,0,16Zm80,7.44V208a12,12,0,0,1-24,0V187.44l-18.18-29.08a12,12,0,0,1,20.36-12.72L132,161.36l9.82-15.72a12,12,0,0,1,20.36,12.72Z"/></svg>