<svg xmlns="http://www.w3.org/2000/svg" viewBox="0 0 256 256" fill="currentColor"><path d="M212.24,67.76l-40-40A6,6,0,0,0,168,26H88A14,14,0,0,0,74,40V58H56A14,14,0,0,0,42,72V216a14,14,0,0,0,14,14H168a14,14,0,0,0,14-14V198h18a14,14,0,0,0,14-14V72A6,6,0,0,0,212.24,67.76ZM170,216a2,2,0,0,1-2,2H56a2,2,0,0,1-2-2V72a2,2,0,0,1,2-2h77.51L170,106.49Zm32-32a2,2,0,0,1-2,2H182V104a6,6,0,0,0-1.76-4.24l-40-40A6,6,0,0,0,136,58H86V40a2,2,0,0,1,2-2h77.51L202,74.49Zm-60-32a6,6,0,0,1-6,6H88a6,6,0,0,1,0-12h48A6,6,0,0,1,142,152Zm0,32a6,6,0,0,1-6,6H88a6,6,0,0,1,0-12h48A6,6,0,0,1,142,184Z"/></svg>