<svg xmlns="http://www.w3.org/2000/svg" viewBox="0 0 256 256" fill="currentColor"><path d="M222,152a6,6,0,0,1-6,6H202v50a6,6,0,0,1-12,0V158H176a6,6,0,0,1,0-12h40A6,6,0,0,1,222,152ZM90,172a26,26,0,0,1-26,26H54v10a6,6,0,0,1-12,0V152a6,6,0,0,1,6-6H64A26,26,0,0,1,90,172Zm-12,0a14,14,0,0,0-14-14H54v28H64A14,14,0,0,0,78,172Zm80,0a26,26,0,0,1-26,26H122v10a6,6,0,0,1-12,0V152a6,6,0,0,1,6-6h16A26,26,0,0,1,158,172Zm-12,0a14,14,0,0,0-14-14H122v28h10A14,14,0,0,0,146,172ZM42,112V40A14,14,0,0,1,56,26h96a6,6,0,0,1,4.25,1.76l56,56A6,6,0,0,1,214,88v24a6,6,0,0,1-12,0V94H152a6,6,0,0,1-6-6V38H56a2,2,0,0,0-2,2v72a6,6,0,0,1-12,0ZM158,82h35.52L158,46.48Z"/></svg>