<svg xmlns="http://www.w3.org/2000/svg" viewBox="0 0 256 256" fill="currentColor"><path d="M212.24,83.76l-56-56A6,6,0,0,0,152,26H56A14,14,0,0,0,42,40V216a14,14,0,0,0,14,14H200a14,14,0,0,0,14-14V88A6,6,0,0,0,212.24,83.76ZM158,46.48,193.52,82H158ZM200,218H110V198h10a6,6,0,0,0,0-12H110V166h10a6,6,0,0,0,0-12H110V134h10a6,6,0,0,0,0-12H110V112a6,6,0,0,0-12,0v10H88a6,6,0,0,0,0,12H98v20H88a6,6,0,0,0,0,12H98v20H88a6,6,0,0,0,0,12H98v20H56a2,2,0,0,1-2-2V40a2,2,0,0,1,2-2h90V88a6,6,0,0,0,6,6h50V216A2,2,0,0,1,200,218Z"/></svg>