<svg xmlns="http://www.w3.org/2000/svg" viewBox="0 0 256 256" fill="currentColor"><path d="M120,146H104a6,6,0,0,0-6,6v56a6,6,0,0,0,12,0V198h10a26,26,0,0,0,0-52Zm0,40H110V158h10a14,14,0,0,1,0,28Zm94-2v16.87a6,6,0,0,1-1.67,4.15A28.06,28.06,0,0,1,192,214c-16.54,0-30-15.25-30-34s13.46-34,30-34a27.43,27.43,0,0,1,15.36,4.77,6,6,0,0,1-6.72,9.95A15.25,15.25,0,0,0,192,158c-9.93,0-18,9.87-18,22s8.07,22,18,22a15.75,15.75,0,0,0,10-3.73V190h-2a6,6,0,0,1,0-12h8A6,6,0,0,1,214,184ZM78,152v38a24,24,0,0,1-48,0,6,6,0,0,1,12,0,12,12,0,0,0,24,0V152a6,6,0,0,1,12,0ZM212.24,83.76l-56-56A6,6,0,0,0,152,26H56A14,14,0,0,0,42,40v72a6,6,0,0,0,12,0V40a2,2,0,0,1,2-2h90V88a6,6,0,0,0,6,6h50v18a6,6,0,0,0,12,0V88A6,6,0,0,0,212.24,83.76ZM158,82V46.48L193.52,82Z"/></svg>