<svg xmlns="http://www.w3.org/2000/svg" viewBox="0 0 256 256" fill="currentColor"><path d="M104,152l48,72H24l36-56,16.36,25.45ZM152,32V88h56Z" opacity="0.2"/><path d="M110.66,147.56a8,8,0,0,0-13.32,0L76.49,178.85l-9.76-15.18a8,8,0,0,0-13.46,0l-36,56A8,8,0,0,0,24,232H152a8,8,0,0,0,6.66-12.44ZM38.65,216,60,182.79l9.63,15a8,8,0,0,0,13.39.11l21-31.47L137.05,216Zm175-133.66-56-56A8,8,0,0,0,152,24H56A16,16,0,0,0,40,40v88a8,8,0,0,0,16,0V40h88V88a8,8,0,0,0,8,8h48V216h-8a8,8,0,0,0,0,16h8a16,16,0,0,0,16-16V88A8,8,0,0,0,213.66,82.34ZM160,51.31,188.69,80H160Z"/></svg>