<svg xmlns="http://www.w3.org/2000/svg" viewBox="0 0 256 256" fill="currentColor"><path d="M208,88H152V32Z" opacity="0.2"/><path d="M48,180c0,11,7.18,20,16,20a14.24,14.24,0,0,0,10.22-4.66A8,8,0,0,1,85.78,206.4,30.06,30.06,0,0,1,64,216c-17.65,0-32-16.15-32-36s14.35-36,32-36a30.06,30.06,0,0,1,21.78,9.6,8,8,0,0,1-11.56,11.06A14.24,14.24,0,0,0,64,160C55.18,160,48,169,48,180Zm79.6-8.69c-4-1.16-8.14-2.35-10.45-3.84-1.25-.81-1.23-1-1.12-1.9a4.57,4.57,0,0,1,2-3.67c4.6-3.12,15.34-1.73,19.83-.56A8,8,0,0,0,142,145.86c-2.12-.55-21-5.22-32.84,2.76a20.58,20.58,0,0,0-9,14.95c-2,15.88,13.65,20.41,23,23.11,12.06,3.49,13.12,4.92,12.78,7.59-.31,2.41-1.26,3.34-2.14,3.93-4.6,3.06-15.17,1.56-19.55.36A8,8,0,0,0,109.94,214a61.34,61.34,0,0,0,15.19,2c5.82,0,12.3-1,17.49-4.46a20.82,20.82,0,0,0,9.19-15.23C154,179,137.49,174.17,127.6,171.31Zm83.09-26.84a8,8,0,0,0-10.23,4.84L188,184.21l-12.47-34.9a8,8,0,0,0-15.07,5.38l20,56a8,8,0,0,0,15.07,0l20-56A8,8,0,0,0,210.69,144.47ZM216,88v24a8,8,0,0,1-16,0V96H152a8,8,0,0,1-8-8V40H56v72a8,8,0,0,1-16,0V40A16,16,0,0,1,56,24h96a8,8,0,0,1,5.66,2.34l56,56A8,8,0,0,1,216,88Zm-27.31-8L160,51.31V80Z"/></svg>