<svg xmlns="http://www.w3.org/2000/svg" viewBox="0 0 256 256" fill="currentColor"><path d="M48,180c0,11,7.18,20,16,20a14.24,14.24,0,0,0,10.22-4.66A8,8,0,0,1,85.78,206.4,30.06,30.06,0,0,1,64,216c-17.65,0-32-16.15-32-36s14.35-36,32-36a30.06,30.06,0,0,1,21.78,9.6,8,8,0,0,1-11.56,11.06A14.24,14.24,0,0,0,64,160C55.18,160,48,169,48,180ZM216,88V216a16,16,0,0,1-16,16H120a8,8,0,0,1,0-16h80V96H152a8,8,0,0,1-8-8V40H56v72a8,8,0,0,1-16,0V40A16,16,0,0,1,56,24h96a8,8,0,0,1,5.66,2.34l56,56A8,8,0,0,1,216,88Zm-56-8h28.69L160,51.31Z"/></svg>