<svg xmlns="http://www.w3.org/2000/svg" viewBox="0 0 256 256" fill="currentColor"><path d="M44,180c0,13.23,9,24,20,24a18.15,18.15,0,0,0,13.11-5.9,4,4,0,1,1,5.78,5.54A26.11,26.11,0,0,1,64,212c-15.44,0-28-14.35-28-32s12.56-32,28-32a26.11,26.11,0,0,1,18.89,8.36,4,4,0,1,1-5.78,5.54A18.15,18.15,0,0,0,64,156C53,156,44,166.77,44,180ZM204,92H152a4,4,0,0,1-4-4V36H56a4,4,0,0,0-4,4v72a4,4,0,0,1-8,0V40A12,12,0,0,1,56,28h96a4,4,0,0,1,2.83,1.17l56,56A4,4,0,0,1,212,88v24a4,4,0,0,1-8,0Zm-48-8h42.34L156,41.65Zm-8,92H132V160a4,4,0,0,0-8,0v16H108a4,4,0,0,0,0,8h16v16a4,4,0,0,0,8,0V184h16a4,4,0,0,0,0-8Zm68,0H200V160a4,4,0,0,0-8,0v16H176a4,4,0,0,0,0,8h16v16a4,4,0,0,0,8,0V184h16a4,4,0,0,0,0-8Z"/></svg>