<svg xmlns="http://www.w3.org/2000/svg" viewBox="0 0 256 256" fill="currentColor"><path d="M152,208a4,4,0,0,1-4,4H120a4,4,0,0,1-4-4V152a4,4,0,0,1,8,0v52h24A4,4,0,0,1,152,208ZM90.32,148.75a4,4,0,0,0-5.58.92L68,173.12,51.25,149.67a4,4,0,0,0-6.5,4.66L63.08,180,44.75,205.67a4,4,0,0,0,.93,5.58A3.91,3.91,0,0,0,48,212a4,4,0,0,0,3.25-1.67L68,186.88l16.74,23.45A4,4,0,0,0,88,212a3.91,3.91,0,0,0,2.32-.75,4,4,0,0,0,.93-5.58L72.91,180l18.34-25.67A4,4,0,0,0,90.32,148.75Zm100.17,26.4c-10.53-3-15.08-4.91-14.43-10.08a8.57,8.57,0,0,1,3.75-6.49c6.26-4.23,18.77-2.24,23.07-1.11a4,4,0,0,0,2-7.74,61.33,61.33,0,0,0-10.48-1.61c-8.11-.54-14.54.75-19.09,3.82a16.63,16.63,0,0,0-7.22,12.13c-1.59,12.49,10.46,16,20.14,18.77,11.25,3.25,16.46,5.49,15.63,11.94a8.93,8.93,0,0,1-3.9,6.75c-6.28,4.17-18.61,2.05-22.83.88a4,4,0,1,0-2.15,7.7A57.7,57.7,0,0,0,189.19,212c5.17,0,10.83-.86,15.22-3.77a17,17,0,0,0,7.43-12.41C213.63,181.84,200.26,178,190.49,175.15ZM204,92H152a4,4,0,0,1-4-4V36H56a4,4,0,0,0-4,4v72a4,4,0,0,1-8,0V40A12,12,0,0,1,56,28h96a4,4,0,0,1,2.83,1.17l56,56A4,4,0,0,1,212,88v24a4,4,0,0,1-8,0Zm-5.65-8L156,41.65V84Z"/></svg>