<svg xmlns="http://www.w3.org/2000/svg" viewBox="0 0 256 256" fill="currentColor"><path d="M208,88H152V32Z" opacity="0.2"/><path d="M213.66,82.34l-56-56A8,8,0,0,0,152,24H56A16,16,0,0,0,40,40v72a8,8,0,0,0,16,0V40h88V88a8,8,0,0,0,8,8h48V216H168a8,8,0,0,0,0,16h32a16,16,0,0,0,16-16V88A8,8,0,0,0,213.66,82.34ZM160,51.31,188.69,80H160ZM64,144H48a8,8,0,0,0-8,8v56a8,8,0,0,0,16,0v-8h8a28,28,0,0,0,0-56Zm0,40H56V160h8a12,12,0,0,1,0,24Zm90.78-27.76-18.78,30V208a8,8,0,0,1-16,0V186.29l-18.78-30a8,8,0,1,1,13.56-8.48L128,168.91l13.22-21.15a8,8,0,1,1,13.56,8.48Z"/></svg>