<svg xmlns="http://www.w3.org/2000/svg" viewBox="0 0 256 256" fill="currentColor"><path d="M214,120V88a6,6,0,0,0-1.76-4.24l-56-56A6,6,0,0,0,152,26H56A14,14,0,0,0,42,40v80a6,6,0,0,0,12,0V40a2,2,0,0,1,2-2h90V88a6,6,0,0,0,6,6h50v26a6,6,0,0,0,12,0ZM158,46.48,193.52,82H158ZM66,160v48a6,6,0,0,1-12,0V190H30v18a6,6,0,0,1-12,0V160a6,6,0,0,1,12,0v18H54V160a6,6,0,0,1,12,0Zm56,0a6,6,0,0,1-6,6H106v42a6,6,0,0,1-12,0V166H84a6,6,0,0,1,0-12h32A6,6,0,0,1,122,160Zm72,0v48a6,6,0,0,1-12,0V178l-13.2,17.6a6,6,0,0,1-9.6,0L146,178v30a6,6,0,0,1-12,0V160a6,6,0,0,1,10.8-3.6L164,182l19.2-25.6A6,6,0,0,1,194,160Zm56,48a6,6,0,0,1-6,6H216a6,6,0,0,1-6-6V160a6,6,0,0,1,12,0v42h22A6,6,0,0,1,250,208Z"/></svg>