<svg xmlns="http://www.w3.org/2000/svg" viewBox="0 0 256 256" fill="currentColor"><path d="M154,208a6,6,0,0,1-6,6H120a6,6,0,0,1-6-6V152a6,6,0,1,1,12,0v50h22A6,6,0,0,1,154,208ZM91.48,147.11a6,6,0,0,0-8.36,1.39L68,169.67,52.88,148.5a6,6,0,1,0-9.76,7L60.63,180,43.12,204.5a6,6,0,1,0,9.76,7L68,190.31l15.12,21.16A6,6,0,0,0,88,214a5.91,5.91,0,0,0,3.48-1.12,6,6,0,0,0,1.4-8.37L75.37,180l17.51-24.51A6,6,0,0,0,91.48,147.11ZM191,173.22c-10.85-3.13-13.41-4.69-13-7.91a6.59,6.59,0,0,1,2.88-5.08c5.6-3.79,17.65-1.83,21.44-.84a6,6,0,0,0,3.07-11.6c-2-.54-20.1-5-31.21,2.48a18.64,18.64,0,0,0-8.08,13.54c-1.8,14.19,12.26,18.25,21.57,20.94,12.12,3.5,14.77,5.33,14.2,9.76a6.85,6.85,0,0,1-3,5.34c-5.61,3.73-17.48,1.64-21.19.62A6,6,0,0,0,174.47,212a59.41,59.41,0,0,0,14.68,2c5.49,0,11.54-.95,16.36-4.14a18.89,18.89,0,0,0,8.31-13.81C215.83,180.39,200.91,176.08,191,173.22ZM42,112V40A14,14,0,0,1,56,26h96a6,6,0,0,1,4.24,1.76l56,56A6,6,0,0,1,214,88v24a6,6,0,1,1-12,0V94H152a6,6,0,0,1-6-6V38H56a2,2,0,0,0-2,2v72a6,6,0,1,1-12,0ZM158,82H193.5L158,46.48Z"/></svg>