<svg xmlns="http://www.w3.org/2000/svg" viewBox="0 0 256 256" fill="currentColor"><path d="M232,218H176a102,102,0,1,0-48,12H232a6,6,0,0,0,0-12ZM38,128a90,90,0,1,1,90,90A90.1,90.1,0,0,1,38,128Zm90-26a22,22,0,1,0-22-22A22,22,0,0,0,128,102Zm0-32a10,10,0,1,1-10,10A10,10,0,0,1,128,70Zm22,106a22,22,0,1,0-22,22A22,22,0,0,0,150,176Zm-32,0a10,10,0,1,1,10,10A10,10,0,0,1,118,176Zm58-26a22,22,0,1,0-22-22A22,22,0,0,0,176,150Zm0-32a10,10,0,1,1-10,10A10,10,0,0,1,176,118ZM80,106a22,22,0,1,0,22,22A22,22,0,0,0,80,106Zm0,32a10,10,0,1,1,10-10A10,10,0,0,1,80,138Z"/></svg>