<svg xmlns="http://www.w3.org/2000/svg" viewBox="0 0 256 256" fill="currentColor"><path d="M180,128a242.63,242.63,0,0,1-18.23,92.72,4,4,0,0,1-7.4-3A234.75,234.75,0,0,0,172,128a4,4,0,0,1,8,0ZM160.79,98.67a4,4,0,0,0,6-5.33A52,52,0,0,0,76,128,140,140,0,0,1,58.52,195.8a4,4,0,0,0,7,3.88A148.13,148.13,0,0,0,84,128a44,44,0,0,1,76.79-29.34ZM128,28a99.9,99.9,0,0,0-33.33,5.69,4,4,0,1,0,2.66,7.54A92.08,92.08,0,0,1,220,128a285.69,285.69,0,0,1-7,63.12,4,4,0,0,0,3,4.78,3.86,3.86,0,0,0,.89.1,4,4,0,0,0,3.89-3.12A293,293,0,0,0,228,128,100.11,100.11,0,0,0,128,28ZM66.67,59.43a4,4,0,0,0-5.34-6A100.17,100.17,0,0,0,28,128a91.3,91.3,0,0,1-8.34,38.33,4,4,0,0,0,2,5.3,3.93,3.93,0,0,0,1.66.37,4,4,0,0,0,3.64-2.33A99.15,99.15,0,0,0,36,128,92.16,92.16,0,0,1,66.67,59.43Zm45.58,144.94a4,4,0,0,0-5.31,2c-2,4.29-4.13,8.57-6.42,12.71a4,4,0,1,0,7,3.88c2.39-4.32,4.65-8.78,6.7-13.25A4,4,0,0,0,112.25,204.37ZM128,124a4,4,0,0,0-4,4,188.67,188.67,0,0,1-5.92,47,4,4,0,0,0,2.87,4.87,3.87,3.87,0,0,0,1,.13,4,4,0,0,0,3.87-3A196.62,196.62,0,0,0,132,128,4,4,0,0,0,128,124Z"/></svg>