<svg xmlns="http://www.w3.org/2000/svg" viewBox="0 0 256 256" fill="currentColor"><path d="M208,48a24,24,0,0,0-24,24H72a24,24,0,0,0-48,0v80a64,64,0,0,0,64,64h80a64,64,0,0,0,64-64V72A24,24,0,0,0,208,48Zm-8,104a32,32,0,0,1-32,32H88a32,32,0,0,1-32-32v-8a32,32,0,0,1,32-32h80a32,32,0,0,1,32,32Z" opacity="0.2"/><path d="M168,104H88a40,40,0,0,0-40,40v8a40,40,0,0,0,40,40h80a40,40,0,0,0,40-40v-8A40,40,0,0,0,168,104Zm24,48a24,24,0,0,1-24,24H88a24,24,0,0,1-24-24v-8a24,24,0,0,1,24-24h80a24,24,0,0,1,24,24ZM208,40a32.06,32.06,0,0,0-31,24H79a32,32,0,0,0-63,8v80a72.08,72.08,0,0,0,72,72h80a72.08,72.08,0,0,0,72-72V72A32,32,0,0,0,208,40Zm16,112a56.06,56.06,0,0,1-56,56H88a56.06,56.06,0,0,1-56-56V72a16,16,0,0,1,32,0,8,8,0,0,0,8,8H184a8,8,0,0,0,8-8,16,16,0,0,1,32,0Zm-120-4a12,12,0,1,1-12-12A12,12,0,0,1,104,148Zm72,0a12,12,0,1,1-12-12A12,12,0,0,1,176,148Z"/></svg>