<svg xmlns="http://www.w3.org/2000/svg" viewBox="0 0 256 256" fill="currentColor"><path d="M216,90H166V40a14,14,0,0,0-14-14H104A14,14,0,0,0,90,40V90H40a14,14,0,0,0-14,14v48a14,14,0,0,0,14,14H90v50a14,14,0,0,0,14,14h48a14,14,0,0,0,14-14V166h50a14,14,0,0,0,14-14V104A14,14,0,0,0,216,90Zm2,62a2,2,0,0,1-2,2H160a6,6,0,0,0-6,6v56a2,2,0,0,1-2,2H104a2,2,0,0,1-2-2V160a6,6,0,0,0-6-6H40a2,2,0,0,1-2-2V104a2,2,0,0,1,2-2H96a6,6,0,0,0,6-6V40a2,2,0,0,1,2-2h48a2,2,0,0,1,2,2V96a6,6,0,0,0,6,6h56a2,2,0,0,1,2,2Z"/></svg>