<svg xmlns="http://www.w3.org/2000/svg" viewBox="0 0 256 256" fill="currentColor"><path d="M172,76a16,16,0,1,1-16-16A16,16,0,0,1,172,76Zm48.22,69.58a102,102,0,0,1-26.78,31.29c-.24.2-.47.39-.72.56a109.52,109.52,0,0,1-13.55,8.83c-18.3,10.07-40.88,15.9-67.22,17.36L91,249a12,12,0,0,1-10.89,7q-.41,0-.81,0a12,12,0,0,1-10.66-8.44l-14.16-46-46-14.19A12,12,0,0,1,7,165l45.4-20.92c1.47-26.33,7.3-48.91,17.37-67.2A110.62,110.62,0,0,1,78.57,63.3c.16-.22.34-.44.51-.66A101.91,101.91,0,0,1,110.41,35.8c25.55-14.19,54.33-16.37,74-15.69,17.76.61,36.49,4,40.76,6.52a12.07,12.07,0,0,1,4.23,4.23c2.52,4.26,5.92,23,6.53,40.76C236.57,91.26,234.4,120,220.22,145.58Zm-68.7,26.66a56.92,56.92,0,0,1-11.12-8.64,55.81,55.81,0,0,1-15.9-32.1,55.81,55.81,0,0,1-32.1-15.9,56.63,56.63,0,0,1-8.63-11.13q-7,20.48-7.7,47.69a12,12,0,0,1-7,10.61L45.51,173.64l22.1,6.82a12,12,0,0,1,7.94,7.94l6.79,22.09L93.23,186.9a12,12,0,0,1,10.61-7Q131,179.29,151.52,172.24ZM209,47c-16.25-3.14-61.81-9-95,14.91a76.73,76.73,0,0,0-14,13,32,32,0,0,0,35,32.94,12,12,0,0,1,13.09,13.09,32,32,0,0,0,33,35,76.33,76.33,0,0,0,13-14C218.05,108.81,212.18,63.22,209,47Z"/></svg>