<svg xmlns="http://www.w3.org/2000/svg" viewBox="0 0 256 256" fill="currentColor"><path d="M166,76a10,10,0,1,1-10-10A10,10,0,0,1,166,76Zm42.38,77.9c-14.79,20.44-36.84,34.22-65.53,41-20.5,4.81-44.58,6-72,3.68q2.43,19,7.07,40.15a6,6,0,0,1-4.58,7.15,6.29,6.29,0,0,1-1.29.14,6,6,0,0,1-5.85-4.72q-5.07-23.13-7.57-44-20.8-2.51-43.94-7.57A6,6,0,1,1,17.29,178q21.14,4.63,40.12,7.07c-2.35-27.36-1.13-51.41,3.69-71.9C67.84,84.49,81.61,62.44,102,47.64c47.55-34.44,116.31-18,120-15.81a5.93,5.93,0,0,1,2.11,2.11C226.34,37.63,242.81,106.33,208.37,153.91Zm-17.94,2.69a110.06,110.06,0,0,1-91-91c-25.13,24.7-35.12,65.24-29.87,120.89C125.19,191.71,165.72,181.73,190.43,156.6ZM214.06,41.93c-12.78-2.84-65.42-12.17-103.69,14.52a97.92,97.92,0,0,0,89.16,89.17C226.21,107.37,216.89,54.72,214.06,41.93Z"/></svg>