<svg xmlns="http://www.w3.org/2000/svg" viewBox="0 0 256 256" fill="currentColor"><path d="M226.49,50.5a6,6,0,0,0-6.42.92c-29,25.11-53.28,13.08-81.41-.84-27.92-13.82-59.57-29.49-94.59.84A6,6,0,0,0,42,56V224a6,6,0,0,0,12,0V178.78c28.08-22.79,51.88-11,79.34,2.59,27.92,13.82,59.58,29.48,94.59-.85A6,6,0,0,0,230,176V56A6,6,0,0,0,226.49,50.5ZM218,68v45.2c-15.53,12.6-29.75,14.65-44,11.65V76.88C188,79.33,202.64,77.78,218,68Zm-56,5.87v47.4c-7.6-2.85-15.31-6.66-23.34-10.64-9.16-4.53-18.71-9.26-28.66-12.5V50.71a255.17,255.17,0,0,1,23.34,10.63C142.5,65.87,152.05,70.59,162,73.83ZM98,47.13V95c-14-2.45-28.64-.89-44,8.93V58.75C69.53,46.15,83.75,44.13,98,47.13ZM86.63,154C76.13,154,65.24,156.79,54,164V118.79c15.53-12.61,29.75-14.65,44-11.65v47.93A66.32,66.32,0,0,0,86.63,154ZM110,158.11V110.72c7.6,2.84,15.31,6.66,23.34,10.63,9.16,4.53,18.71,9.26,28.66,12.5v47.39c-7.6-2.85-15.31-6.66-23.34-10.63C129.5,166.07,120,161.35,110,158.11Zm64,26.7V136.89a66.32,66.32,0,0,0,11.37,1c10.5,0,21.39-2.78,32.63-10v45.24C202.47,185.79,188.25,187.81,174,184.81Z"/></svg>