<svg xmlns="http://www.w3.org/2000/svg" viewBox="0 0 256 256" fill="currentColor"><path d="M227.32,48.75A8,8,0,0,0,218.76,50c-28,24.22-51.72,12.48-79.21-1.13C111.07,34.76,78.78,18.79,42.76,50A8,8,0,0,0,40,56V224a8,8,0,0,0,16,0V179.77c26.79-21.16,49.87-9.75,76.45,3.41,28.49,14.09,60.77,30.06,96.79-1.13a8,8,0,0,0,2.76-6V56A8,8,0,0,0,227.32,48.75ZM216,71.6v40.65c-14,11.06-27,13.22-40,10.88V79.34A60.05,60.05,0,0,0,216,71.6Zm-56,3.76v43c-6.66-2.67-13.43-6-20.45-9.48-8.82-4.37-18-8.91-27.55-12.18v-43c6.66,2.66,13.43,6,20.45,9.48C141.27,67.55,150.46,72.09,160,75.36ZM96,48.91V92.69a60.06,60.06,0,0,0-40,7.75V59.78C70,48.72,83,46.57,96,48.91ZM86.58,152A60.06,60.06,0,0,0,56,160.43V119.78c14-11.06,27-13.22,40-10.88v43.8A65.61,65.61,0,0,0,86.58,152ZM112,156.67v-43c6.66,2.66,13.43,6,20.45,9.48,8.82,4.37,18,8.9,27.55,12.17v43c-6.66-2.67-13.43-6-20.45-9.48C130.73,164.47,121.54,159.94,112,156.67Zm64,26.45v-43.8a65.61,65.61,0,0,0,9.42.72A60.11,60.11,0,0,0,216,131.57v40.68C202,183.31,189,185.46,176,183.12Z"/></svg>