<svg xmlns="http://www.w3.org/2000/svg" viewBox="0 0 256 256" fill="currentColor"><path d="M208,40H176V80a8,8,0,0,1-8,8H88a8,8,0,0,1-8-8V40.73a8,8,0,0,0-2.34,1.61L42.34,77.66A8,8,0,0,0,40,83.31V208a8,8,0,0,0,8,8H208a8,8,0,0,0,8-8V48A8,8,0,0,0,208,40ZM128,184a32,32,0,1,1,32-32A32,32,0,0,1,128,184Z" opacity="0.2"/><path d="M208,32H83.31A15.86,15.86,0,0,0,72,36.69L36.69,72A15.86,15.86,0,0,0,32,83.31V208a16,16,0,0,0,16,16H208a16,16,0,0,0,16-16V48A16,16,0,0,0,208,32ZM88,48h80V80H88ZM208,208H48V83.31l24-24V80A16,16,0,0,0,88,96h80a16,16,0,0,0,16-16V48h24Zm-80-96a40,40,0,1,0,40,40A40,40,0,0,0,128,112Zm0,64a24,24,0,1,1,24-24A24,24,0,0,1,128,176Z"/></svg>