<svg xmlns="http://www.w3.org/2000/svg" viewBox="0 0 256 256" fill="currentColor"><path d="M208,44a91.55,91.55,0,0,0-33.77,6.42c-15.8-24.4-39.72-36.58-40.86-37.15a12,12,0,0,0-10.74,0c-1.14.57-25.06,12.75-40.86,37.15A91.55,91.55,0,0,0,48,44,12,12,0,0,0,36,56V96a92.14,92.14,0,0,0,80,91.22v25.36L85.37,197.27a12,12,0,0,0-10.74,21.46l48,24a12,12,0,0,0,10.74,0l48-24a12,12,0,1,0-10.74-21.46L140,212.58V187.22A92.14,92.14,0,0,0,220,96V56A12,12,0,0,0,208,44Zm-80-6.06c6.37,4.16,17.13,12.31,25.21,24.2A92.63,92.63,0,0,0,128,90.61a92.76,92.76,0,0,0-25.21-28.47C110.87,50.25,121.63,42.1,128,37.94ZM60,96V69.06A68.11,68.11,0,0,1,116,136v26.94A68.12,68.12,0,0,1,60,96Zm136,0a68.12,68.12,0,0,1-56,66.94V136a68.11,68.11,0,0,1,56-66.94Z"/></svg>