<svg xmlns="http://www.w3.org/2000/svg" viewBox="0 0 256 256" fill="currentColor"><path d="M249.3,119.63a19.51,19.51,0,0,0-12-9.2A76,76,0,0,0,218.92,108a92.19,92.19,0,0,0-3-42,20.15,20.15,0,0,0-23.44-13.57A88.39,88.39,0,0,0,166.3,62.8,98,98,0,0,0,140,32,20.07,20.07,0,0,0,116,32,98,98,0,0,0,89.7,62.8,88.39,88.39,0,0,0,63.55,52.42,20.15,20.15,0,0,0,40.11,66a92.19,92.19,0,0,0-3,42,76,76,0,0,0-18.41,2.43,19.51,19.51,0,0,0-12,9.2,20,20,0,0,0-2,15.31c3.55,13.16,14.4,38.16,47.14,57.72C84.16,212,112.76,212,128.08,212s43.76,0,76.07-19.34c32.74-19.56,43.59-44.56,47.14-57.72A20,20,0,0,0,249.3,119.63ZM64.16,172.05c-22.29-13.32-31.35-29.13-35-39.35a57.54,57.54,0,0,1,14.54-.46,134,134,0,0,0,8.55,17.69,142.54,142.54,0,0,0,19.59,26.32C69.3,175,66.74,173.6,64.16,172.05ZM79,147.27c-2.1-3-4.12-6-6-9.29C57.37,110.7,58.84,88.94,62,76.76A69,69,0,0,1,80.5,85.33,124.18,124.18,0,0,0,76,119.17,127.59,127.59,0,0,0,79,147.27Zm49,38c-9.72-8.07-28-28.28-28-66.13,0-37.42,18-57.7,28-66.08,10,8.38,28,28.66,28,66.08C156,157,137.72,177.23,128,185.3Zm49-38a127.59,127.59,0,0,0,3-28.1,124.18,124.18,0,0,0-4.5-33.84A69.08,69.08,0,0,1,194,76.75c3.13,12.19,4.6,34-11.06,61.23C181.1,141.23,179.08,144.32,177,147.27Zm14.86,24.78c-2.56,1.53-5.09,2.91-7.58,4.16a142.54,142.54,0,0,0,19.51-26.28,134,134,0,0,0,8.55-17.69,57.54,57.54,0,0,1,14.54.46C223.19,142.92,214.13,158.73,191.84,172.05Z"/></svg>