<svg xmlns="http://www.w3.org/2000/svg" viewBox="0 0 256 256" fill="currentColor"><path d="M208,50a85.52,85.52,0,0,0-36.17,8c-14.67-25.9-40-38.79-41.15-39.37a6,6,0,0,0-5.36,0C124.18,19.21,98.84,32.1,84.17,58A85.52,85.52,0,0,0,48,50a6,6,0,0,0-6,6V96a86.1,86.1,0,0,0,80,85.77v40.52L82.68,202.63a6,6,0,0,0-5.36,10.74l48,24a6,6,0,0,0,5.36,0l48-24a6,6,0,1,0-5.36-10.74L134,222.29V181.77A86.1,86.1,0,0,0,214,96V56A6,6,0,0,0,208,50ZM128,30.88c6.46,3.84,23.07,15,33.33,32.94A86.5,86.5,0,0,0,128,104.5,86.5,86.5,0,0,0,94.67,63.82C104.93,45.83,121.54,34.71,128,30.88ZM54,96V62.24A74.11,74.11,0,0,1,122,136v33.76A74.1,74.1,0,0,1,54,96Zm148,0a74.1,74.1,0,0,1-68,73.76V136a74.11,74.11,0,0,1,68-73.76Z"/></svg>