<svg xmlns="http://www.w3.org/2000/svg" viewBox="0 0 256 256" fill="currentColor"><path d="M216,76H129.33l-28.8-21.6a12.05,12.05,0,0,0-7.2-2.4H40A12,12,0,0,0,28,64V200a12,12,0,0,0,12,12H216.89A11.12,11.12,0,0,0,228,200.89V88A12,12,0,0,0,216,76Zm4,124.89a3.12,3.12,0,0,1-3.11,3.11H40a4,4,0,0,1-4-4V64a4,4,0,0,1,4-4H93.33a4,4,0,0,1,2.4.8L125.6,83.2a4,4,0,0,0,2.4.8h88a4,4,0,0,1,4,4ZM156,144a4,4,0,0,1-4,4H132v20a4,4,0,0,1-8,0V148H104a4,4,0,0,1,0-8h20V120a4,4,0,0,1,8,0v20h20A4,4,0,0,1,156,144Z"/></svg>