<svg xmlns="http://www.w3.org/2000/svg" viewBox="0 0 256 256" fill="currentColor"><path d="M230,88v16a6,6,0,0,1-12,0V88a2,2,0,0,0-2-2H130.67a14,14,0,0,1-8.4-2.8L94.53,62.4a2,2,0,0,0-1.2-.4H40a2,2,0,0,0-2,2V200a2,2,0,0,0,2,2h72a6,6,0,0,1,0,12H40a14,14,0,0,1-14-14V64A14,14,0,0,1,40,50H93.33a14,14,0,0,1,8.4,2.8l27.74,20.8a2,2,0,0,0,1.2.4H216A14,14,0,0,1,230,88Zm0,80v40a6,6,0,0,1-6,6H152a6,6,0,0,1-6-6V168a6,6,0,0,1,6-6h10v-6a26,26,0,0,1,52,0v6h10A6,6,0,0,1,230,168Zm-56-6h28v-6a14,14,0,0,0-28,0Zm44,12H158v28h60Z"/></svg>