<svg xmlns="http://www.w3.org/2000/svg" viewBox="0 0 256 256" fill="currentColor"><path d="M207.5,199.3a28,28,0,1,0-31,0A36.24,36.24,0,0,0,156.13,223a4,4,0,0,0,2.84,4.89,3.7,3.7,0,0,0,1,.14,4,4,0,0,0,3.87-3c3.29-12.38,14.85-21,28.13-21s24.84,8.65,28.13,21a4,4,0,1,0,7.73-2.05A36.22,36.22,0,0,0,207.5,199.3ZM172,176a20,20,0,1,1,20,20A20,20,0,0,1,172,176Zm56-88v32a4,4,0,0,1-8,0V88a4,4,0,0,0-4-4H130.67a12.05,12.05,0,0,1-7.2-2.4L95.73,60.8a4,4,0,0,0-2.4-.8H40a4,4,0,0,0-4,4V200a4,4,0,0,0,4,4h80a4,4,0,0,1,0,8H40a12,12,0,0,1-12-12V64A12,12,0,0,1,40,52H93.33a12.05,12.05,0,0,1,7.2,2.4l27.74,20.8a4,4,0,0,0,2.4.8H216A12,12,0,0,1,228,88Z"/></svg>