<svg xmlns="http://www.w3.org/2000/svg" viewBox="0 0 256 256" fill="currentColor"><path d="M214.61,198.62a32,32,0,1,0-45.23,0,40,40,0,0,0-17.11,23.32,8,8,0,0,0,5.67,9.79A8.15,8.15,0,0,0,160,232a8,8,0,0,0,7.73-5.95C170.56,215.42,180.54,208,192,208s21.44,7.42,24.27,18.05a8,8,0,1,0,15.46-4.11A40,40,0,0,0,214.61,198.62ZM192,160a16,16,0,1,1-16,16A16,16,0,0,1,192,160Zm24-88H131.31L104,44.69A15.86,15.86,0,0,0,92.69,40H40A16,16,0,0,0,24,56V200.61A15.4,15.4,0,0,0,39.38,216h81.18a8,8,0,0,0,0-16H40V88H216v32a8,8,0,0,0,16,0V88A16,16,0,0,0,216,72ZM92.69,56l16,16H40V56Z"/></svg>