<svg xmlns="http://www.w3.org/2000/svg" viewBox="0 0 256 256" fill="currentColor"><path d="M208,188H152a4,4,0,0,0-4,4v12a32,32,0,1,0,64,0V192A4,4,0,0,0,208,188Zm-4,16a24,24,0,1,1-48,0v-8h48ZM104,164H48a4,4,0,0,0-4,4v12a32,32,0,1,0,64,0V168A4,4,0,0,0,104,164Zm-4,16a24,24,0,1,1-48,0v-8h48ZM76,20c-9.82,0-20.07,9.75-28.12,26.75-13.39,28.27-18,70.05-.23,91.78a4,4,0,0,0,3.1,1.47h50.51a4,4,0,0,0,3.1-1.47c17.79-21.73,13.16-63.51-.23-91.78C96.08,29.75,85.83,20,76,20ZM99.3,132H52.71c-13.8-19-9.79-56.08,2.4-81.82C61.59,36.5,69.59,28,76,28s14.42,8.5,20.9,22.18C109.09,75.92,113.1,113,99.3,132Zm55.44,32h50.51a4,4,0,0,0,3.1-1.47c17.79-21.73,13.16-63.51-.23-91.78C200.07,53.75,189.82,44,180,44s-20.08,9.75-28.13,26.75c-13.39,28.27-18,70.05-.23,91.78A4,4,0,0,0,154.74,164Zm4.36-89.82C165.58,60.5,173.58,52,180,52s14.41,8.5,20.89,22.18c12.19,25.74,16.2,62.82,2.4,81.82H156.7C142.9,137,146.91,99.92,159.1,74.18Z"/></svg>