<svg xmlns="http://www.w3.org/2000/svg" viewBox="0 0 256 256" fill="currentColor"><path d="M92,164a8,8,0,1,1-8-8A8,8,0,0,1,92,164Zm136,12v32a12,12,0,0,1-12,12H180a12.08,12.08,0,0,1-11.51-8.6L156.83,172H126.55l5.09,17.13a2.13,2.13,0,0,1,.07.27A12,12,0,0,1,120,204H72.14a4,4,0,0,1-2.26-.7A96,96,0,0,1,28,124c0-52.19,42.47-95.23,94.63-96A96,96,0,0,1,220,124v4a4,4,0,0,1-4,4H153.35l9.46,32H216A12,12,0,0,1,228,176ZM123.93,191.25l-15.57-52.37a2.86,2.86,0,0,1-.07-.28A12,12,0,0,1,120,124h92a88,88,0,0,0-89.25-88C74.93,36.67,36,76.13,36,124a88,88,0,0,0,37.39,72H120a4,4,0,0,0,3.93-4.75ZM154.46,164,145,132H120a4,4,0,0,0-3.93,4.75l8.1,27.25ZM220,176a4,4,0,0,0-4-4H165.17l11,37.13A4,4,0,0,0,180,212h36a4,4,0,0,0,4-4Z"/></svg>