<svg xmlns="http://www.w3.org/2000/svg" viewBox="0 0 256 256" fill="currentColor"><path d="M216,156H168.79l-4.73-16H216a12,12,0,0,0,12-12v-4A104,104,0,0,0,122.52,20C66,20.8,20,67.43,20,124a104,104,0,0,0,45.37,85.94A12,12,0,0,0,72.14,212H116a20,20,0,0,0,19.52-24.34q-.09-.41-.21-.81l-2-6.85h17.58l10,33.67A20.11,20.11,0,0,0,180,228h36a20,20,0,0,0,20-20V176A20,20,0,0,0,216,156ZM100.4,123.48a19.94,19.94,0,0,0-3.92,16.86q.09.41.21.81L110.61,188H76a80,80,0,0,1-32-64c0-43.48,35.39-79.36,78.86-80H124a80,80,0,0,1,79.61,72H116A19.94,19.94,0,0,0,100.4,123.48ZM126.14,156l-4.75-16H139l4.73,16ZM212,204H183l-7.09-24H212Z"/></svg>