<svg xmlns="http://www.w3.org/2000/svg" viewBox="0 0 256 256" fill="currentColor"><path d="M68,88V40a12,12,0,0,1,24,0V88a12,12,0,0,1-24,0ZM220,40V224a12,12,0,0,1-24,0V180H152a12,12,0,0,1-12-12,273.23,273.23,0,0,1,7.33-57.82C157.42,68.42,176.76,40.33,203.27,29A12,12,0,0,1,220,40ZM196,62.92C182.6,77,175,98,170.77,115.38A254.41,254.41,0,0,0,164.55,156H196ZM128,39A12,12,0,0,0,104,41l4,47.46a28,28,0,0,1-56,0L56,41A12,12,0,1,0,32,39L28,87c0,.34,0,.67,0,1a52.1,52.1,0,0,0,40,50.59V224a12,12,0,0,0,24,0V138.59A52.1,52.1,0,0,0,132,88c0-.33,0-.66,0-1Z"/></svg>