<svg xmlns="http://www.w3.org/2000/svg" viewBox="0 0 256 256" fill="currentColor"><path d="M20,44A12,12,0,0,1,32,32H224a12,12,0,0,1,0,24H32A12,12,0,0,1,20,44ZM224,200H32a12,12,0,0,0,0,24H224a12,12,0,0,0,0-24ZM148,68a12,12,0,0,0-12,12v96a12,12,0,0,0,24,0V148.51l8.44-9.65,25.19,43.19A12,12,0,0,0,214.37,170l-29.26-50.14L213,87.9A12,12,0,1,0,195,72.1l-35,40V80A12,12,0,0,0,148,68ZM80,176V164H36a12,12,0,0,1-9.47-19.37l56-72A12,12,0,0,1,104,80v60h4a12,12,0,0,1,0,24h-4v12a12,12,0,0,1-24,0Zm0-36V115L60.54,140Z"/></svg>