<svg xmlns="http://www.w3.org/2000/svg" viewBox="0 0 256 256" fill="currentColor"><path d="M221.9,61.38,152,136v58.65a8,8,0,0,1-3.56,6.66l-32,21.33A8,8,0,0,1,104,216V136L34.1,61.38A8,8,0,0,1,40,48H216A8,8,0,0,1,221.9,61.38Z" opacity="0.2"/><path d="M227.82,66.76A16,16,0,0,0,216,40H40A16,16,0,0,0,28.19,66.76l.08.09L96,139.17V216a16,16,0,0,0,24.87,13.32l32-21.34A16,16,0,0,0,160,194.66V139.17l67.73-72.32ZM40,56h0Zm106.19,74.59A8,8,0,0,0,144,136v58.66L112,216V136a8,8,0,0,0-2.16-5.46L40,56H216Zm99.49,79.81a8,8,0,0,1-11.32,11.32L216,203.32l-18.34,18.35a8,8,0,0,1-11.31-11.32L204.69,192l-18.34-18.35a8,8,0,0,1,11.31-11.31L216,180.69l18.34-18.34a8,8,0,0,1,11.32,11.31L227.31,192Z"/></svg>