<svg xmlns="http://www.w3.org/2000/svg" viewBox="0 0 256 256" fill="currentColor"><path d="M232,152v24a8,8,0,0,1-8,8H32a8,8,0,0,1-8-8V153.13C24,95.65,70.15,48.2,127.63,48A104,104,0,0,1,232,152Z" opacity="0.2"/><path d="M207.06,72.67A111.24,111.24,0,0,0,128,40h-.4C66.07,40.21,16,91,16,153.13V176a16,16,0,0,0,16,16H224a16,16,0,0,0,16-16V152A111.25,111.25,0,0,0,207.06,72.67ZM224,176H119.71l54.76-75.3a8,8,0,0,0-12.94-9.42L99.92,176H32V153.13c0-3.08.15-6.12.43-9.13H56a8,8,0,0,0,0-16H35.27c10.32-38.86,44-68.24,84.73-71.66V80a8,8,0,0,0,16,0V56.33A96.14,96.14,0,0,1,221,128H200a8,8,0,0,0,0,16h23.67c.21,2.65.33,5.31.33,8Z"/></svg>