<svg xmlns="http://www.w3.org/2000/svg" viewBox="0 0 256 256" fill="currentColor"><path d="M241.91,118.1l-16-16a14,14,0,0,0-19.55-.23L154.13,49.64a14,14,0,0,0-.23-19.55l-16-16a14,14,0,0,0-19.8,0l-64,64a14,14,0,0,0,0,19.8l16,16a14,14,0,0,0,19.55.23L99.52,124,32.73,190.79a23,23,0,0,0,32.48,32.49L132,156.49l9.87,9.87a14,14,0,0,0,.23,19.55l16,16a14,14,0,0,0,19.8,0l64-64A14,14,0,0,0,241.91,118.1Zm-91.56,39.76-52.21-52.2,47.52-47.52,52.2,52.2ZM78.59,105.41l-16-16a2,2,0,0,1,0-2.83l64-64a2,2,0,0,1,2.83,0l16,16a2,2,0,0,1,0,2.83l-64,64A2,2,0,0,1,78.59,105.41ZM56.73,214.8a11,11,0,0,1-15.52-15.52L108,132.49,123.52,148Zm176.69-85.38-64,64a2,2,0,0,1-2.83,0l-16-16a2,2,0,0,1,0-2.83l64-64a2,2,0,0,1,2.83,0l16,16A2,2,0,0,1,233.42,129.42Z"/></svg>