<svg xmlns="http://www.w3.org/2000/svg" viewBox="0 0 256 256" fill="currentColor"><path d="M128,82a46,46,0,1,0,46,46A46.06,46.06,0,0,0,128,82Zm0,80a34,34,0,1,1,34-34A34,34,0,0,1,128,162Zm108-54.4a6,6,0,0,0-2.92-4L202.64,86.22l-.42-.71L202.1,51.2A6,6,0,0,0,200,46.64a110.12,110.12,0,0,0-36.07-20.31,6,6,0,0,0-4.84.45L128.46,43.86h-1L96.91,26.76a6,6,0,0,0-4.86-.44A109.92,109.92,0,0,0,56,46.68a6,6,0,0,0-2.12,4.55l-.16,34.34c-.14.23-.28.47-.41.71L22.91,103.57A6,6,0,0,0,20,107.62a104.81,104.81,0,0,0,0,40.78,6,6,0,0,0,2.92,4l30.42,17.33.42.71.12,34.31A6,6,0,0,0,56,209.36a110.12,110.12,0,0,0,36.07,20.31,6,6,0,0,0,4.84-.45l30.61-17.08h1l30.56,17.1A6.09,6.09,0,0,0,162,230a5.83,5.83,0,0,0,1.93-.32,109.92,109.92,0,0,0,36-20.36,6,6,0,0,0,2.12-4.55l.16-34.34c.14-.23.28-.47.41-.71l30.42-17.29a6,6,0,0,0,2.92-4.05A104.81,104.81,0,0,0,236,107.6Zm-11.25,35.79L195.32,160.1a6.07,6.07,0,0,0-2.28,2.3c-.59,1-1.21,2.11-1.86,3.14a6,6,0,0,0-.91,3.16l-.16,33.21a98.15,98.15,0,0,1-27.52,15.53L133,200.88a6,6,0,0,0-2.93-.77h-.14c-1.24,0-2.5,0-3.74,0a6,6,0,0,0-3.07.76L93.45,217.43a98,98,0,0,1-27.56-15.49l-.12-33.17a6,6,0,0,0-.91-3.16c-.64-1-1.27-2.08-1.86-3.14a6,6,0,0,0-2.27-2.3L31.3,143.4a93,93,0,0,1,0-30.79L60.68,95.9A6.07,6.07,0,0,0,63,93.6c.59-1,1.21-2.11,1.86-3.14a6,6,0,0,0,.91-3.16l.16-33.21A98.15,98.15,0,0,1,93.41,38.56L123,55.12a5.81,5.81,0,0,0,3.07.76c1.24,0,2.5,0,3.74,0a6,6,0,0,0,3.07-.76l29.65-16.56a98,98,0,0,1,27.56,15.49l.12,33.17a6,6,0,0,0,.91,3.16c.64,1,1.27,2.08,1.86,3.14a6,6,0,0,0,2.27,2.3L224.7,112.6A93,93,0,0,1,224.73,143.39Z"/></svg>