<svg xmlns="http://www.w3.org/2000/svg" viewBox="0 0 256 256" fill="currentColor"><path d="M232,124H211.9a83.35,83.35,0,0,0-9.27-34.47l17.44-10.07a4,4,0,0,0-4-6.92L198.62,82.61a84.54,84.54,0,0,0-25.23-25.23l10.07-17.45a4,4,0,0,0-6.92-4L166.47,53.37A83.35,83.35,0,0,0,132,44.1V24a4,4,0,0,0-8,0V44.1a83.35,83.35,0,0,0-34.47,9.27L79.46,35.93a4,4,0,0,0-6.92,4L82.61,57.38A84.54,84.54,0,0,0,57.38,82.61L39.93,72.54a4,4,0,1,0-4,6.92L53.37,89.53A83.35,83.35,0,0,0,44.1,124H24a4,4,0,0,0,0,8H44.1a83.35,83.35,0,0,0,9.27,34.47L35.93,176.54a4,4,0,0,0,2,7.46,3.9,3.9,0,0,0,2-.54l17.45-10.07a84.54,84.54,0,0,0,25.23,25.23L72.54,216.07A4,4,0,0,0,74,221.53a4,4,0,0,0,5.46-1.46l10.07-17.44A83.35,83.35,0,0,0,124,211.9V232a4,4,0,0,0,8,0V211.9a83.35,83.35,0,0,0,34.47-9.27l10.07,17.44a4,4,0,0,0,6.92-4l-10.07-17.45a84.54,84.54,0,0,0,25.23-25.23l17.45,10.07a3.9,3.9,0,0,0,2,.54,4,4,0,0,0,2-7.46l-17.44-10.07A83.35,83.35,0,0,0,211.9,132H232a4,4,0,0,0,0-8ZM128,52a76.09,76.09,0,0,1,75.89,72H130.31L93.53,60.3A75.59,75.59,0,0,1,128,52ZM52,128A76,76,0,0,1,86.61,64.31L123.38,128,86.61,191.69A76,76,0,0,1,52,128Zm76,76a75.59,75.59,0,0,1-34.47-8.3L130.31,132h73.58A76.09,76.09,0,0,1,128,204Z"/></svg>