<svg xmlns="http://www.w3.org/2000/svg" viewBox="0 0 256 256" fill="currentColor"><path d="M216,120v96l-29.33-24-29.34,24L128,192,98.67,216,69.33,192,40,216V120a88,88,0,0,1,176,0Z" opacity="0.2"/><path d="M112,116a12,12,0,1,1-12-12A12,12,0,0,1,112,116Zm44-12a12,12,0,1,0,12,12A12,12,0,0,0,156,104Zm68,16v96a8,8,0,0,1-13.07,6.19l-24.26-19.85L162.4,222.19a8,8,0,0,1-10.13,0L128,202.34l-24.27,19.85a8,8,0,0,1-10.13,0L69.33,202.34,45.07,222.19A8,8,0,0,1,32,216V120a96,96,0,0,1,192,0Zm-16,0a80,80,0,0,0-160,0v79.12l16.27-13.31a8,8,0,0,1,10.13,0l24.27,19.85,24.26-19.85a8,8,0,0,1,10.14,0l24.26,19.85,24.27-19.85a8,8,0,0,1,10.13,0L208,199.12Z"/></svg>