<svg xmlns="http://www.w3.org/2000/svg" viewBox="0 0 256 256" fill="currentColor"><path d="M216,74H174.74a46.41,46.41,0,0,0,6-4.48,27.56,27.56,0,0,0,9.22-20A30.63,30.63,0,0,0,158.5,18a27.56,27.56,0,0,0-20,9.22A57.1,57.1,0,0,0,128,45.76a57.1,57.1,0,0,0-10.48-18.53A27.56,27.56,0,0,0,97.5,18,30.63,30.63,0,0,0,66,49.51a27.56,27.56,0,0,0,9.22,20,45.74,45.74,0,0,0,6,4.48H40A14,14,0,0,0,26,88v32a14,14,0,0,0,14,14h2v66a14,14,0,0,0,14,14H200a14,14,0,0,0,14-14V134h2a14,14,0,0,0,14-14V88A14,14,0,0,0,216,74ZM135.77,63c2.25-12.12,6.29-21.75,11.69-27.85A15.68,15.68,0,0,1,158.86,30h.55A18.6,18.6,0,0,1,178,49.14a15.68,15.68,0,0,1-5.18,11.4C162.1,70,143.92,72.83,134.34,73.65,134.59,70.76,135,67.08,135.77,63ZM83.45,35.45A18.69,18.69,0,0,1,96.59,30h.55a15.68,15.68,0,0,1,11.4,5.18C118,45.9,120.83,64.08,121.65,73.66c-2.89-.25-6.57-.68-10.61-1.43C98.92,70,89.29,65.94,83.19,60.53A15.64,15.64,0,0,1,78,49.14,18.65,18.65,0,0,1,83.45,35.45ZM38,120V88a2,2,0,0,1,2-2h82v36H40A2,2,0,0,1,38,120Zm16,80V134h68v68H56A2,2,0,0,1,54,200Zm148,0a2,2,0,0,1-2,2H134V134h68Zm16-80a2,2,0,0,1-2,2H134V86h82a2,2,0,0,1,2,2Z"/></svg>