<svg xmlns="http://www.w3.org/2000/svg" viewBox="0 0 256 256" fill="currentColor"><path d="M216,76H166.81a50.54,50.54,0,0,0,12.63-8A25.53,25.53,0,0,0,188,49.44,28.62,28.62,0,0,0,158.56,20,25.53,25.53,0,0,0,140,28.56c-5.91,6.67-9.63,15.36-12,23.69-2.35-8.33-6.07-17-12-23.69A25.53,25.53,0,0,0,97.44,20,28.62,28.62,0,0,0,68,49.44,25.53,25.53,0,0,0,76.56,68a50.54,50.54,0,0,0,12.63,8H40A12,12,0,0,0,28,88v32a12,12,0,0,0,12,12h4v68a12,12,0,0,0,12,12H200a12,12,0,0,0,12-12V132h4a12,12,0,0,0,12-12V88A12,12,0,0,0,216,76ZM146,33.86A17.59,17.59,0,0,1,158.8,28h.61A20.62,20.62,0,0,1,180,49.2,17.6,17.6,0,0,1,174.14,62c-12.09,10.7-33.07,13.21-42,13.79C132.76,66.93,135.26,46,146,33.86ZM76,49.2A20.62,20.62,0,0,1,96.59,28h.61A17.59,17.59,0,0,1,110,33.86c10.71,12.09,13.21,33.07,13.79,42-8.89-.58-29.87-3.09-42-13.79A17.6,17.6,0,0,1,76,49.2ZM36,120V88a4,4,0,0,1,4-4h84v40H40A4,4,0,0,1,36,120Zm16,80V132h72v72H56A4,4,0,0,1,52,200Zm152,0a4,4,0,0,1-4,4H132V132h72Zm16-80a4,4,0,0,1-4,4H132V84h84a4,4,0,0,1,4,4Z"/></svg>