<svg xmlns="http://www.w3.org/2000/svg" viewBox="0 0 256 256" fill="currentColor"><path d="M208,104v8a48,48,0,0,1-48,48H136a32,32,0,0,1,32,32v40H104V192a32,32,0,0,1,32-32H112a48,48,0,0,1-48-48v-8a49.28,49.28,0,0,1,8.51-27.3A51.92,51.92,0,0,1,76,32a52,52,0,0,1,43.83,24h32.34A52,52,0,0,1,196,32a51.92,51.92,0,0,1,3.49,44.7A49.28,49.28,0,0,1,208,104Z" opacity="0.2"/><path d="M208.3,75.68A59.74,59.74,0,0,0,202.93,28,8,8,0,0,0,196,24a59.75,59.75,0,0,0-48,24H124A59.75,59.75,0,0,0,76,24a8,8,0,0,0-6.93,4,59.78,59.78,0,0,0-5.38,47.68A58.14,58.14,0,0,0,56,104v8a56.06,56.06,0,0,0,48.44,55.47A39.8,39.8,0,0,0,96,192v8H72a24,24,0,0,1-24-24A40,40,0,0,0,8,136a8,8,0,0,0,0,16,24,24,0,0,1,24,24,40,40,0,0,0,40,40H96v16a8,8,0,0,0,16,0V192a24,24,0,0,1,48,0v40a8,8,0,0,0,16,0V192a39.8,39.8,0,0,0-8.44-24.53A56.06,56.06,0,0,0,216,112v-8A58,58,0,0,0,208.3,75.68ZM200,112a40,40,0,0,1-40,40H112a40,40,0,0,1-40-40v-8a41.74,41.74,0,0,1,6.9-22.48A8,8,0,0,0,80,73.83a43.81,43.81,0,0,1,.79-33.58,43.88,43.88,0,0,1,32.32,20.06A8,8,0,0,0,119.82,64h32.35a8,8,0,0,0,6.74-3.69,43.87,43.87,0,0,1,32.32-20.06A43.81,43.81,0,0,1,192,73.83a8.09,8.09,0,0,0,1,7.65A41.76,41.76,0,0,1,200,104Z"/></svg>