<svg xmlns="http://www.w3.org/2000/svg" viewBox="0 0 256 256" fill="currentColor"><path d="M226.27,118.11,206.38,42a7.94,7.94,0,0,0-15.16-.75L172.57,92H83.43L64.78,41.24A7.94,7.94,0,0,0,49.62,42L29.73,118.11a53.16,53.16,0,0,0,20.44,56.68l73.27,51.76a7.9,7.9,0,0,0,9.12,0l73.27-51.76A53.16,53.16,0,0,0,226.27,118.11Zm-169-74L76.89,97.38A4,4,0,0,0,80.64,100h94.72a4,4,0,0,0,3.75-2.62l19.57-53.22,17,65L128,171.11,40.33,109.17Zm-19.84,76,.7-2.7L121.07,176,93.41,195.54,54.78,168.25A45.11,45.11,0,0,1,37.47,120.14ZM128,220l-27.66-19.54L128,180.9l27.66,19.54Zm73.22-51.73-38.63,27.29L134.93,176l82.9-58.56.7,2.7A45.11,45.11,0,0,1,201.22,168.25Z"/></svg>