<svg xmlns="http://www.w3.org/2000/svg" viewBox="0 0 256 256" fill="currentColor"><path d="M128,26A102,102,0,1,0,230,128,102.12,102.12,0,0,0,128,26Zm89.8,96H173.89c-1.54-40.77-18.48-68.23-30.43-82.67A90.19,90.19,0,0,1,217.8,122ZM128,215.83a110,110,0,0,1-15.19-19.45A128.37,128.37,0,0,1,94.13,134h67.74a128.37,128.37,0,0,1-18.68,62.38A110,110,0,0,1,128,215.83ZM94.13,122a128.37,128.37,0,0,1,18.68-62.38A110,110,0,0,1,128,40.17a110,110,0,0,1,15.19,19.45A128.37,128.37,0,0,1,161.87,122Zm18.41-82.67c-12,14.44-28.89,41.9-30.43,82.67H38.2A90.19,90.19,0,0,1,112.54,39.33ZM38.2,134H82.11c1.54,40.77,18.48,68.23,30.43,82.67A90.19,90.19,0,0,1,38.2,134Zm105.26,82.67c11.95-14.44,28.89-41.9,30.43-82.67H217.8A90.19,90.19,0,0,1,143.46,216.67Z"/></svg>