<svg xmlns="http://www.w3.org/2000/svg" viewBox="0 0 256 256" fill="currentColor"><path d="M128,20A108,108,0,1,0,236,128,108.12,108.12,0,0,0,128,20Zm83.13,96H179.56a144.3,144.3,0,0,0-21.35-66.36A84.22,84.22,0,0,1,211.13,116ZM128,207c-9.36-10.81-24.46-33.13-27.45-67h54.94a119.74,119.74,0,0,1-17.11,52.77A108.61,108.61,0,0,1,128,207Zm-27.45-91a119.74,119.74,0,0,1,17.11-52.77A108.61,108.61,0,0,1,128,49c9.36,10.81,24.46,33.13,27.45,67ZM97.79,49.64A144.3,144.3,0,0,0,76.44,116H44.87A84.22,84.22,0,0,1,97.79,49.64ZM44.87,140H76.44a144.3,144.3,0,0,0,21.35,66.36A84.22,84.22,0,0,1,44.87,140Zm113.34,66.36A144.3,144.3,0,0,0,179.56,140h31.57A84.22,84.22,0,0,1,158.21,206.36Z"/></svg>