<svg xmlns="http://www.w3.org/2000/svg" viewBox="0 0 256 256" fill="currentColor"><path d="M128,26A102,102,0,1,0,230,128,102.12,102.12,0,0,0,128,26Zm81.57,64H169.19a132.58,132.58,0,0,0-25.73-50.67A90.29,90.29,0,0,1,209.57,90ZM218,128a89.7,89.7,0,0,1-3.83,26H171.81a155.43,155.43,0,0,0,0-52h42.36A89.7,89.7,0,0,1,218,128Zm-90,87.83a110,110,0,0,1-15.19-19.45A124.24,124.24,0,0,1,99.35,166h57.3a124.24,124.24,0,0,1-13.46,30.38A110,110,0,0,1,128,215.83ZM96.45,154a139.18,139.18,0,0,1,0-52h63.1a139.18,139.18,0,0,1,0,52ZM38,128a89.7,89.7,0,0,1,3.83-26H84.19a155.43,155.43,0,0,0,0,52H41.83A89.7,89.7,0,0,1,38,128Zm90-87.83a110,110,0,0,1,15.19,19.45A124.24,124.24,0,0,1,156.65,90H99.35a124.24,124.24,0,0,1,13.46-30.38A110,110,0,0,1,128,40.17Zm-15.46-.84A132.58,132.58,0,0,0,86.81,90H46.43A90.29,90.29,0,0,1,112.54,39.33ZM46.43,166H86.81a132.58,132.58,0,0,0,25.73,50.67A90.29,90.29,0,0,1,46.43,166Zm97,50.67A132.58,132.58,0,0,0,169.19,166h40.38A90.29,90.29,0,0,1,143.46,216.67Z"/></svg>