<svg xmlns="http://www.w3.org/2000/svg" viewBox="0 0 256 256" fill="currentColor"><path d="M215,168.71a96.42,96.42,0,0,1-30.54,37l-9.36-9.37a8,8,0,0,0-3.63-2.09L150,188.59a8,8,0,0,1-5.88-8.9l2.38-16.2a8,8,0,0,1,4.84-6.22l30.46-12.66a8,8,0,0,1,8.47,1.49ZM159.89,105,182.06,79.2A8,8,0,0,0,184,74V50A96,96,0,0,0,50.49,184.65l9.92-6.52A8,8,0,0,0,64,171.49l.21-36.23a8.06,8.06,0,0,1,1.35-4.41l20.94-31.3a8,8,0,0,1,11.34-2l19.81,13a8.06,8.06,0,0,0,5.77,1.45l31.46-4.26A8,8,0,0,0,159.89,105Z" opacity="0.2"/><path d="M128,24A104,104,0,1,0,232,128,104.11,104.11,0,0,0,128,24Zm0,16a87.5,87.5,0,0,1,48,14.28V74L153.83,99.74,122.36,104l-.31-.22L102.38,90.92A16,16,0,0,0,79.87,95.1L58.93,126.4a16,16,0,0,0-2.7,8.81L56,171.44l-3.27,2.15A88,88,0,0,1,128,40ZM62.29,186.47l2.52-1.65A16,16,0,0,0,72,171.53l.21-36.23L93.17,104a3.62,3.62,0,0,0,.32.22l19.67,12.87a15.94,15.94,0,0,0,11.35,2.77L156,115.59a16,16,0,0,0,10-5.41l22.17-25.76A16,16,0,0,0,192,74V67.67A87.87,87.87,0,0,1,211.77,155l-16.14-14.76a16,16,0,0,0-16.93-3l-30.46,12.65a16.08,16.08,0,0,0-9.68,12.45l-2.39,16.19a16,16,0,0,0,11.77,17.81L169.4,202l2.36,2.37A87.88,87.88,0,0,1,62.29,186.47ZM185,195l-4.3-4.31a16,16,0,0,0-7.26-4.18L152,180.85l2.39-16.19L184.84,152,205,170.48A88.43,88.43,0,0,1,185,195Z"/></svg>