<svg xmlns="http://www.w3.org/2000/svg" viewBox="0 0 256 256" fill="currentColor"><path d="M128,20A108,108,0,1,0,236,128,108.12,108.12,0,0,0,128,20Zm0,187a113.4,113.4,0,0,1-20.39-35h40.82a116.94,116.94,0,0,1-10,20.77A108.61,108.61,0,0,1,128,207Zm-26.49-59a135.42,135.42,0,0,1,0-40h53a135.42,135.42,0,0,1,0,40ZM44,128a83.49,83.49,0,0,1,2.43-20H77.25a160.63,160.63,0,0,0,0,40H46.43A83.49,83.49,0,0,1,44,128Zm84-79a113.4,113.4,0,0,1,20.39,35H107.59a116.94,116.94,0,0,1,10-20.77A108.61,108.61,0,0,1,128,49Zm50.73,59h30.82a83.52,83.52,0,0,1,0,40H178.75a160.63,160.63,0,0,0,0-40Zm20.77-24H173.71a140.82,140.82,0,0,0-15.5-34.36A84.51,84.51,0,0,1,199.52,84ZM97.79,49.64A140.82,140.82,0,0,0,82.29,84H56.48A84.51,84.51,0,0,1,97.79,49.64ZM56.48,172H82.29a140.82,140.82,0,0,0,15.5,34.36A84.51,84.51,0,0,1,56.48,172Zm101.73,34.36A140.82,140.82,0,0,0,173.71,172h25.81A84.51,84.51,0,0,1,158.21,206.36Z"/></svg>