<svg xmlns="http://www.w3.org/2000/svg" viewBox="0 0 256 256" fill="currentColor"><path d="M128,28h0A100,100,0,1,0,228,128,100.11,100.11,0,0,0,128,28Zm0,190.61c-6.33-6.09-23-24.41-31.27-54.61h62.54C151,194.2,134.33,212.52,128,218.61ZM94.82,156a140.42,140.42,0,0,1,0-56h66.36a140.42,140.42,0,0,1,0,56ZM128,37.39c6.33,6.09,23,24.41,31.27,54.61H96.73C105,61.8,121.67,43.48,128,37.39ZM169.41,100h46.23a92.09,92.09,0,0,1,0,56H169.41a152.65,152.65,0,0,0,0-56Zm43.25-8h-45a129.39,129.39,0,0,0-29.19-55.4A92.25,92.25,0,0,1,212.66,92ZM117.54,36.6A129.39,129.39,0,0,0,88.35,92h-45A92.25,92.25,0,0,1,117.54,36.6ZM40.36,100H86.59a152.65,152.65,0,0,0,0,56H40.36a92.09,92.09,0,0,1,0-56Zm3,64h45a129.39,129.39,0,0,0,29.19,55.4A92.25,92.25,0,0,1,43.34,164Zm95.12,55.4A129.39,129.39,0,0,0,167.65,164h45A92.25,92.25,0,0,1,138.46,219.4Z"/></svg>