<svg xmlns="http://www.w3.org/2000/svg" viewBox="0 0 256 256" fill="currentColor"><path d="M224,56H32a8,8,0,0,0-8,8V192a8,8,0,0,0,8,8H96l26.34-26.34a8,8,0,0,1,11.32,0L160,200h64a8,8,0,0,0,8-8V64A8,8,0,0,0,224,56ZM80,152a24,24,0,1,1,24-24A24,24,0,0,1,80,152Zm96,0a24,24,0,1,1,24-24A24,24,0,0,1,176,152Z" opacity="0.2"/><path d="M224,48H32A16,16,0,0,0,16,64V192a16,16,0,0,0,16,16H96a8,8,0,0,0,5.66-2.34L128,179.31l26.34,26.35A8,8,0,0,0,160,208h64a16,16,0,0,0,16-16V64A16,16,0,0,0,224,48Zm0,144H163.31l-24-24a16,16,0,0,0-22.62,0l-24,24H32V64H224ZM80,160a32,32,0,1,0-32-32A32,32,0,0,0,80,160Zm0-48a16,16,0,1,1-16,16A16,16,0,0,1,80,112Zm96,48a32,32,0,1,0-32-32A32,32,0,0,0,176,160Zm0-48a16,16,0,1,1-16,16A16,16,0,0,1,176,112Z"/></svg>