<svg xmlns="http://www.w3.org/2000/svg" viewBox="0 0 256 256" fill="currentColor"><path d="M128,48a80,80,0,1,0,80,80A80,80,0,0,0,128,48Zm0,112a32,32,0,1,1,32-32A32,32,0,0,1,128,160Z" opacity="0.2"/><path d="M240,120H215.63A88.13,88.13,0,0,0,136,40.37V16a8,8,0,0,0-16,0V40.37A88.13,88.13,0,0,0,40.37,120H16a8,8,0,0,0,0,16H40.37A88.13,88.13,0,0,0,120,215.63V240a8,8,0,0,0,16,0V215.63A88.13,88.13,0,0,0,215.63,136H240a8,8,0,0,0,0-16ZM128,200a72,72,0,1,1,72-72A72.08,72.08,0,0,1,128,200Zm0-112a40,40,0,1,0,40,40A40,40,0,0,0,128,88Zm0,64a24,24,0,1,1,24-24A24,24,0,0,1,128,152Z"/></svg>