<svg xmlns="http://www.w3.org/2000/svg" viewBox="0 0 256 256" fill="currentColor"><path d="M216,113.07v53.22a8,8,0,0,1-2,5.31c-11.3,12.59-38.9,36.4-86,36.4s-74.68-23.81-86-36.4a8,8,0,0,1-2-5.31V113.07L128,160Z" opacity="0.2"/><path d="M251.76,88.94l-120-64a8,8,0,0,0-7.52,0l-120,64a8,8,0,0,0,0,14.12L32,117.87v48.42a15.91,15.91,0,0,0,4.06,10.65C49.16,191.53,78.51,216,128,216a130,130,0,0,0,48-8.76V240a8,8,0,0,0,16,0V199.51a115.63,115.63,0,0,0,27.94-22.57A15.91,15.91,0,0,0,224,166.29V117.87l27.76-14.81a8,8,0,0,0,0-14.12ZM128,200c-43.27,0-68.72-21.14-80-33.71V126.4l76.24,40.66a8,8,0,0,0,7.52,0L176,143.47v46.34C163.4,195.69,147.52,200,128,200Zm80-33.75a97.83,97.83,0,0,1-16,14.25V134.93l16-8.53ZM188,118.94l-.22-.13-56-29.87a8,8,0,0,0-7.52,14.12L171,128l-43,22.93L25,96,128,41.07,231,96Z"/></svg>