<svg xmlns="http://www.w3.org/2000/svg" viewBox="0 0 256 256" fill="currentColor"><path d="M249.8,85.49l-116-64a12,12,0,0,0-11.6,0l-116,64a12,12,0,0,0,0,21l21.8,12v47.76a19.89,19.89,0,0,0,5.09,13.32C46.63,194.7,77,220,128,220a136.88,136.88,0,0,0,40-5.75V240a12,12,0,0,0,24,0V204.12a119.53,119.53,0,0,0,30.91-24.51A19.89,19.89,0,0,0,228,166.29V118.53l21.8-12a12,12,0,0,0,0-21ZM128,45.71,219.16,96,186,114.3a1.88,1.88,0,0,1-.18-.12l-52-28.69a12,12,0,0,0-11.6,21l39,21.49L128,146.3,36.84,96ZM128,196c-40.42,0-64.65-19.07-76-31.27v-33l70.2,38.74a12,12,0,0,0,11.6,0L168,151.64v37.23A110.46,110.46,0,0,1,128,196Zm76-31.27a93.21,93.21,0,0,1-12,10.81V138.39l12-6.62Z"/></svg>