<svg xmlns="http://www.w3.org/2000/svg" viewBox="0 0 256 256" fill="currentColor"><path d="M53.92,34.62A8,8,0,1,0,42.08,45.38l9.73,10.71Q49.91,56,48,56a8,8,0,0,0-8,8v80a88.1,88.1,0,0,0,88,88h0a87.82,87.82,0,0,0,61.21-24.78l12.87,14.16a8,8,0,1,0,11.84-10.76ZM136.29,149A88.17,88.17,0,0,0,128,163.37a88.16,88.16,0,0,0-72-51V72.44a71.31,71.31,0,0,1,13.18,2.75ZM120,215.56A72.1,72.1,0,0,1,56,144V128.44A72.1,72.1,0,0,1,120,200Zm16,0V200a72.09,72.09,0,0,1,11.36-38.81l31.08,34.19A71.85,71.85,0,0,1,136,215.56ZM216,144a88.13,88.13,0,0,1-3.15,23.4,8,8,0,0,1-7.71,5.88A7.79,7.79,0,0,1,203,173a8,8,0,0,1-5.59-9.83A72.55,72.55,0,0,0,200,144V128.43a71.07,71.07,0,0,0-24.56,7.33,8,8,0,1,1-7.24-14.26,86.64,86.64,0,0,1,31.8-9.14V72.45a72.33,72.33,0,0,0-50.35,29.36,8,8,0,1,1-13-9.39,88.15,88.15,0,0,1,25.16-23.3C152.62,49.8,135.45,37.74,128,33.2A100.2,100.2,0,0,0,104.6,53.14,8,8,0,1,1,92.39,42.81a112.32,112.32,0,0,1,32-26,8,8,0,0,1,7.16,0c1.32.66,30.27,15.43,44.59,45.15A87.91,87.91,0,0,1,208,56a8,8,0,0,1,8,8Z"/></svg>