<svg xmlns="http://www.w3.org/2000/svg" viewBox="0 0 256 256" fill="currentColor"><path d="M200,152a35.77,35.77,0,0,0-16.46,4l-21.39-16.64A35.49,35.49,0,0,0,164,128.65l10.35-3.44A36,36,0,1,0,164,100c0,1.11.06,2.21.16,3.3l-7.78,2.59A36,36,0,0,0,128,92c-1,0-1.88,0-2.81.12l-4.45-10A36,36,0,1,0,96,92c1,0,1.88,0,2.81-.12l4.45,10a35.91,35.91,0,0,0-8.59,39.7L73.39,160.49a36,36,0,1,0,15.94,17.93l21.28-18.91a35.91,35.91,0,0,0,36.8-1.21L167,173.56A36,36,0,1,0,200,152Zm0-64a12,12,0,1,1-12,12A12,12,0,0,1,200,88ZM84,56A12,12,0,1,1,96,68,12,12,0,0,1,84,56ZM56,204a12,12,0,1,1,12-12A12,12,0,0,1,56,204Zm60-76a12,12,0,1,1,12,12A12,12,0,0,1,116,128Zm84,72a12,12,0,1,1,12-12A12,12,0,0,1,200,200Z"/></svg>