<svg xmlns="http://www.w3.org/2000/svg" viewBox="0 0 256 256" fill="currentColor"><path d="M92.49,187.5a12,12,0,1,1-17,17l-24-24a12,12,0,0,1,17-17ZM112,120a24,24,0,1,0,24,24A24,24,0,0,0,112,120ZM252.49,60.48a12,12,0,0,1-14.12,2.12L182,119a73.13,73.13,0,0,1,5.36,18.68c2.51,17.58-2.2,33.35-13.27,44.42a46.11,46.11,0,0,1-15.73,10.29,4.32,4.32,0,0,0-2.39,4c-.53,15.61-6.16,29.22-16.28,39.34C129,246.37,114.5,252,98.13,252a76.73,76.73,0,0,1-10.77-.78c-19.47-2.78-38.73-12.85-54.23-28.35S7.56,188.11,4.78,168.64c-3-20.75,2.56-39.34,15.55-52.33C30.45,106.19,44.06,100.56,59.67,100a4.32,4.32,0,0,0,4-2.39A46.11,46.11,0,0,1,73.93,81.91C85,70.84,100.77,66.13,118.35,68.64A73.13,73.13,0,0,1,137,74L193.4,17.63A12,12,0,0,1,212.49,3.51l40,40A12,12,0,0,1,252.49,60.48ZM221,46,210,35,191,54l11,11Zm-74.31,63.28C135.53,98.09,121.39,92,109.34,92c-7.29,0-13.81,2.21-18.44,6.85A22.16,22.16,0,0,0,86,106.47,28.23,28.23,0,0,1,60.48,124h0c-6.57.22-15.93,2-23.18,9.26-7.52,7.52-10.63,18.87-8.76,32,2.05,14.37,9.71,28.81,21.56,40.66s26.29,19.51,40.66,21.56c13.09,1.87,24.44-1.24,32-8.76,7.25-7.25,9-16.61,9.26-23.18A28.23,28.23,0,0,1,149.53,170a22.16,22.16,0,0,0,7.59-4.94C169.43,152.79,164.67,127.23,146.72,109.28ZM169,98.07,185,82,174,71,157.93,87c2,1.67,3.9,3.42,5.76,5.27S167.29,96.09,169,98.07Z"/></svg>