<svg xmlns="http://www.w3.org/2000/svg" viewBox="0 0 256 256" fill="currentColor"><path d="M155.2,100.8c-23-23-55.57-27.63-72.8-10.4a34.21,34.21,0,0,0-7.61,11.66,16.23,16.23,0,0,1-14.72,10C48,112.44,37,116.61,28.8,124.8,7.6,146,13.33,186.12,41.6,214.4s68.39,34,89.6,12.8C139.39,219,143.56,208,144,195.93a16.23,16.23,0,0,1,10-14.72,34.21,34.21,0,0,0,11.66-7.61C182.83,156.37,178.17,123.78,155.2,100.8ZM112,168a24,24,0,1,1,24-24A24,24,0,0,1,112,168Z" opacity="0.2"/><path d="M249.66,46.34l-40-40a8,8,0,0,0-11.31,11.32L200.69,20,140.52,80.16C117.73,68.3,92.21,69.29,76.75,84.74a42.27,42.27,0,0,0-9.39,14.37A8.24,8.24,0,0,1,59.81,104c-14.59.49-27.26,5.72-36.65,15.11C11.08,131.22,6,148.6,8.74,168.07,11.4,186.7,21.07,205.15,36,220s33.34,24.56,52,27.22A71.13,71.13,0,0,0,98.1,248c15.32,0,28.83-5.23,38.76-15.16,9.39-9.39,14.62-22.06,15.11-36.65a8.24,8.24,0,0,1,4.92-7.55,42.12,42.12,0,0,0,14.37-9.39c15.45-15.46,16.44-41,4.58-63.77L236,55.31l2.34,2.34a8,8,0,1,0,11.32-11.31ZM160,167.93a26.12,26.12,0,0,1-8.95,5.83,24.24,24.24,0,0,0-15,21.89c-.36,10.46-4,19.41-10.43,25.88-8.44,8.43-21,11.95-35.36,9.89C75,229.25,59.73,221.19,47.27,208.73S26.75,181,24.58,165.81c-2-14.37,1.46-26.92,9.89-35.36C40.94,124,49.89,120.37,60.35,120h0a24.22,24.22,0,0,0,21.89-15,26.12,26.12,0,0,1,5.83-9c5.49-5.49,13-8.13,21.38-8.13a49.38,49.38,0,0,1,19.13,4.19L108.5,112.19a32,32,0,1,0,35.31,35.31l20.08-20.08C170.41,142.71,169.47,158.41,160,167.93Zm-10.4-61.48a72.9,72.9,0,0,1,5.93,6.75l-15.42,15.42a32.22,32.22,0,0,0-12.68-12.68l15.42-15.43A73,73,0,0,1,149.55,106.45ZM112,128a16,16,0,0,1,16,16h0a16,16,0,1,1-16-16Zm48.85-32.85a86.94,86.94,0,0,0-6.68-6L176,67.31,188.69,80l-21.83,21.82A86.94,86.94,0,0,0,160.86,95.14ZM200,68.68,187.32,56,212,31.31,224.69,44ZM93.66,194.33a8,8,0,0,1-11.31,11.32l-32-32a8,8,0,0,1,11.32-11.31Z"/></svg>