<svg xmlns="http://www.w3.org/2000/svg" viewBox="0 0 256 256" fill="currentColor"><path d="M48.07,104H207.93a16,16,0,0,0,15.72-19.38C216.22,49.5,176,24,128,24S39.78,49.5,32.35,84.62A16,16,0,0,0,48.07,104ZM128,40c39.82,0,74.21,20.61,79.93,48H48.07L48,87.93C53.79,60.61,88.18,40,128,40ZM229.26,152.48l-41.13,15L151,152.57a8,8,0,0,0-5.94,0l-37,14.81L71,152.57a8,8,0,0,0-5.7-.09l-44,16a8,8,0,0,0,5.47,15L40,178.69V184a40,40,0,0,0,40,40h96a40,40,0,0,0,40-40v-9.67l18.73-6.81a8,8,0,1,0-5.47-15ZM200,184a24,24,0,0,1-24,24H80a24,24,0,0,1-24-24V172.88l11.87-4.32L105,183.43a8,8,0,0,0,5.94,0l37-14.81,37,14.81a8,8,0,0,0,5.7.09l9.27-3.37ZM16,128a8,8,0,0,1,8-8H232a8,8,0,0,1,0,16H24A8,8,0,0,1,16,128Z"/></svg>