<svg xmlns="http://www.w3.org/2000/svg" viewBox="0 0 256 256" fill="currentColor"><path d="M249.92,113.4,182.47,45.49a94.12,94.12,0,0,0-133,.06L35.68,59.78a6,6,0,0,0,8.63,8.35L58,54A82,82,0,0,1,78.55,39l49,49L30.09,185.4a14,14,0,0,0,0,19.81L50.78,225.9a14,14,0,0,0,19.8,0L168,128.46l33.42,33.42a14,14,0,0,0,19.8,0l28.68-28.69A14,14,0,0,0,249.92,113.4ZM62.1,217.41a2,2,0,0,1-2.83,0L38.58,196.72a2,2,0,0,1,0-2.83L108,124.46,131.51,148ZM163.76,115.73,140,139.49,116.48,116l23.76-23.76a6,6,0,0,0,0-8.49L90.54,34A82.07,82.07,0,0,1,174,54l45.62,45.93L188,131.49l-15.76-15.76A6,6,0,0,0,163.76,115.73Zm77.66,9-28.69,28.7a2,2,0,0,1-2.83,0L196.49,140l31.56-31.57,13.37,13.46A2,2,0,0,1,241.42,124.7Z"/></svg>