<svg xmlns="http://www.w3.org/2000/svg" viewBox="0 0 256 256" fill="currentColor"><path d="M218.44,101,201.13,71a26,26,0,0,0-45.58,1L136.47,39a26,26,0,0,0-46.14,2.19A26,26,0,0,0,49.88,73l3.29,5.7a26,26,0,0,0-23.69,39L69.5,187a85.44,85.44,0,0,0,52.21,40.08,86.71,86.71,0,0,0,22.4,3,86,86,0,0,0,74.33-129Zm-3,62.16A74,74,0,0,1,79.89,181l-40-69.32a14,14,0,0,1,24.25-14L83.36,131a6,6,0,0,0,10.39-6L60.27,67A14,14,0,1,1,84.52,53l31.17,54a6,6,0,0,0,5.2,3,5.9,5.9,0,0,0,3-.81,6,6,0,0,0,2.2-8.2L101.83,59a14,14,0,0,1,24.25-14l34.2,59.23a46,46,0,0,0-6.4,59.13,6,6,0,0,0,9.94-6.73,34,34,0,0,1,7.76-46.26,6,6,0,0,0,1.6-7.8L166.49,91a14,14,0,1,1,24.25-14l17.31,30A73.53,73.53,0,0,1,215.44,163.14ZM186.18,32.22A6,6,0,0,1,193.52,28a57.59,57.59,0,0,1,35.32,27l.33.57a6,6,0,1,1-10.39,6l-.33-.57a45.69,45.69,0,0,0-28-21.43A6,6,0,0,1,186.18,32.22ZM79.32,235.71a6,6,0,0,1-8.42,1A117.79,117.79,0,0,1,41.79,203a6,6,0,0,1,10.4-6,105.48,105.48,0,0,0,26.14,30.29A6,6,0,0,1,79.32,235.71Z"/></svg>