<svg xmlns="http://www.w3.org/2000/svg" viewBox="0 0 256 256" fill="currentColor"><path d="M216,140v36c0,25.59-8.49,42.85-8.85,43.58A8,8,0,0,1,200,224a7.9,7.9,0,0,1-3.57-.85,8,8,0,0,1-3.58-10.73c.06-.12,7.16-14.81,7.16-36.42V140a12,12,0,0,0-24,0v4a8,8,0,0,1-16,0V124a12,12,0,0,0-24,0v12a8,8,0,0,1-16,0V68a12,12,0,0,0-24,0V176a8,8,0,0,1-14.79,4.23l-18.68-30-.14-.23A12,12,0,1,0,41.6,162L70.89,212A8,8,0,1,1,57.08,220l-29.32-50a28,28,0,0,1,48.41-28.17L80,148V68a28,28,0,0,1,56,0V98.7a28,28,0,0,1,38.65,16.69A28,28,0,0,1,216,140Zm37.66-89.66-32-32a8,8,0,0,0-11.31,11.32L228.68,48H176a8,8,0,0,0,0,16h52.69L210.34,82.34a8,8,0,0,0,11.31,11.32l32-32A8,8,0,0,0,253.66,50.34Z"/></svg>