<svg xmlns="http://www.w3.org/2000/svg" viewBox="0 0 256 256" fill="currentColor"><path d="M224,112v16a96,96,0,0,1-192,0V88a24,24,0,0,1,48,0V64a24,24,0,0,1,48,0,24,24,0,0,1,48,0V88h24A24,24,0,0,1,224,112Z" opacity="0.2"/><path d="M200,80H184V64a32,32,0,0,0-56-21.13A32,32,0,0,0,72.21,60.42,32,32,0,0,0,24,88v40a104,104,0,0,0,208,0V112A32,32,0,0,0,200,80ZM152,48a16,16,0,0,1,16,16V80H136V64A16,16,0,0,1,152,48ZM88,64a16,16,0,0,1,32,0v40a16,16,0,0,1-32,0ZM40,88a16,16,0,0,1,32,0v16a16,16,0,0,1-32,0Zm176,40a88,88,0,0,1-175.92,3.75A31.93,31.93,0,0,0,80,125.13a31.93,31.93,0,0,0,44.58,3.35,32.21,32.21,0,0,0,11.8,11.44A47.88,47.88,0,0,0,120,176a8,8,0,0,0,16,0,32,32,0,0,1,32-32,8,8,0,0,0,0-16H152a16,16,0,0,1-16-16V96h64a16,16,0,0,1,16,16Z"/></svg>