<svg xmlns="http://www.w3.org/2000/svg" viewBox="0 0 256 256" fill="currentColor"><path d="M228,156v36c0,13.85-1.63,26.52-4.58,35.68a12,12,0,1,1-22.84-7.36c2.14-6.65,3.42-17.24,3.42-28.32V156a8,8,0,0,0-16,0v4a12,12,0,0,1-24,0V140a8,8,0,0,0-16,0v12a12,12,0,0,1-24,0V84a8,8,0,0,0-16,0V192a12,12,0,0,1-22.18,6.34l-18.68-30-.21-.34A8,8,0,0,0,53,175.92L78.27,217.8a12,12,0,0,1-20.56,12.39l-25.31-42-.12-.2A32,32,0,0,1,84,150.83V84a32,32,0,0,1,64,0v25a32,32,0,0,1,36.78,17A32,32,0,0,1,228,156ZM56,96A12,12,0,0,0,68,84a48,48,0,0,1,96,0,12,12,0,0,0,24,0A72,72,0,0,0,44,84,12,12,0,0,0,56,96Z"/></svg>