<svg xmlns="http://www.w3.org/2000/svg" viewBox="0 0 256 256" fill="currentColor"><path d="M188,88a27.75,27.75,0,0,0-12,2.71V60a28,28,0,0,0-41.36-24.6A28,28,0,0,0,80,44v6.71A27.75,27.75,0,0,0,68,48,28,28,0,0,0,40,76v76a88,88,0,0,0,176,0V116A28,28,0,0,0,188,88Zm12,64a72,72,0,0,1-144,0V76a12,12,0,0,1,24,0v36a8,8,0,0,0,16,0V44a12,12,0,0,1,24,0v60a8,8,0,0,0,16,0V60a12,12,0,0,1,24,0v60a8,8,0,0,0,16,0v-4a12,12,0,0,1,24,0Zm-60,16a12,12,0,1,1-12-12A12,12,0,0,1,140,168Zm-12-40c-36.52,0-54.41,34.94-55.16,36.42a8,8,0,0,0,0,7.16C73.59,173.06,91.48,208,128,208s54.41-34.94,55.16-36.42a8,8,0,0,0,0-7.16C182.41,162.94,164.52,128,128,128Zm0,64c-20.63,0-33.8-16.52-38.7-24,4.9-7.48,18.07-24,38.7-24s33.81,16.53,38.7,24C161.8,175.48,148.63,192,128,192Z"/></svg>