<svg xmlns="http://www.w3.org/2000/svg" viewBox="0 0 256 256" fill="currentColor"><path d="M196,88a27.86,27.86,0,0,0-13.35,3.39A28,28,0,0,0,144,74.7V44a28,28,0,0,0-56,0v80l-3.82-6.13A28,28,0,0,0,35.73,146l4.67,8.23C74.81,214.89,89.05,240,136,240a88.1,88.1,0,0,0,88-88V116A28,28,0,0,0,196,88Zm12,64a72.08,72.08,0,0,1-72,72c-37.63,0-47.84-18-81.68-77.68l-4.69-8.27,0-.05A12,12,0,0,1,54,121.61a11.88,11.88,0,0,1,6-1.6,12,12,0,0,1,10.41,6,1.76,1.76,0,0,0,.14.23l18.67,30A8,8,0,0,0,104,152V44a12,12,0,0,1,24,0v68a8,8,0,0,0,16,0V100a12,12,0,0,1,24,0v20a8,8,0,0,0,16,0v-4a12,12,0,0,1,24,0Z"/></svg>