<svg xmlns="http://www.w3.org/2000/svg" viewBox="0 0 256 256" fill="currentColor"><path d="M138,168a10,10,0,1,1-10-10A10,10,0,0,1,138,168Zm76-52v36a86,86,0,0,1-172,0V76A26,26,0,0,1,82,54.11V44a26,26,0,0,1,51.41-5.51A26,26,0,0,1,174,60V94.11A26,26,0,0,1,214,116Zm-12,0a14,14,0,0,0-28,0v4a6,6,0,0,1-12,0V60a14,14,0,0,0-28,0v44a6,6,0,0,1-12,0V44a14,14,0,0,0-28,0v68a6,6,0,0,1-12,0V76a14,14,0,0,0-28,0v76a74,74,0,0,0,148,0Zm-20.63,49.32a6,6,0,0,1,0,5.36C180.65,172.12,163.3,206,128,206s-52.65-33.88-53.37-35.32a6,6,0,0,1,0-5.36C75.35,163.88,92.7,130,128,130S180.65,163.88,181.37,165.32ZM169.08,168c-4.46-7.12-18.41-26-41.08-26s-36.65,18.85-41.08,26c4.46,7.13,18.41,26,41.08,26S164.65,175.15,169.08,168Z"/></svg>