<svg xmlns="http://www.w3.org/2000/svg" viewBox="0 0 256 256" fill="currentColor"><path d="M233.9,181.42l-36.59-36.6L160.71,24A19.75,19.75,0,0,0,128,15.62,19.75,19.75,0,0,0,95.29,24L58.69,144.82,22.1,181.42a14,14,0,0,0,0,19.79L54.79,233.9a14,14,0,0,0,19.79,0l48.29-48.28a38,38,0,0,0,5.13-6.38,38,38,0,0,0,5.13,6.38l48.29,48.28a14,14,0,0,0,19.79,0l32.69-32.69a14,14,0,0,0,0-19.79Zm-167.8,44a2,2,0,0,1-2.83,0L30.58,192.73a2,2,0,0,1,0-2.83l14.11-14.1L80.2,211.31Zm48.28-48.29-25.69,25.7L53.17,167.31l15.07-15.07a6,6,0,0,0,1.5-2.5l37-122.22A7.78,7.78,0,0,1,122,29.78v129A25.83,25.83,0,0,1,114.38,177.13ZM134,158.75v-129a7.78,7.78,0,0,1,15.22-2.26l37,122.22a6,6,0,0,0,1.5,2.5l15.93,15.94-36.28,34.74-25.79-25.79A25.83,25.83,0,0,1,134,158.75Zm91.42,34-32.69,32.69a2,2,0,0,1-2.83,0l-14-14,36.29-34.74,13.24,13.23A2,2,0,0,1,225.42,192.73Z"/></svg>