<svg xmlns="http://www.w3.org/2000/svg" viewBox="0 0 256 256" fill="currentColor"><path d="M229.12,142.65a22.43,22.43,0,0,0-19.55-3.88l-45.24,10.4A26,26,0,0,0,140,114H89.94a29.78,29.78,0,0,0-21.21,8.79L45.52,146H16A14,14,0,0,0,2,160v40a14,14,0,0,0,14,14H120a6,6,0,0,0,1.46-.18l64-16a7.16,7.16,0,0,0,.89-.3L225.17,181l.33-.15a22.6,22.6,0,0,0,3.62-38.18ZM14,200V160a2,2,0,0,1,2-2H42v44H16A2,2,0,0,1,14,200Zm206.28-30-38.2,16.27L119.26,202H54V154.49l23.21-23.22A17.88,17.88,0,0,1,89.94,126H140a14,14,0,0,1,0,28H112a6,6,0,0,0,0,12h32a6,6,0,0,0,1.34-.15l67-15.41.24-.06A10.6,10.6,0,0,1,220.28,170ZM155.76,76.24a6,6,0,0,1,8.48-8.48L186,89.51V24a6,6,0,0,1,12,0V89.51l21.76-21.75a6,6,0,0,1,8.48,8.48l-32,32a6,6,0,0,1-8.48,0Z"/></svg>