<svg xmlns="http://www.w3.org/2000/svg" viewBox="0 0 256 256" fill="currentColor"><path d="M184.63,23.14a12,12,0,0,1,15-8A72.34,72.34,0,0,1,228.4,32a12,12,0,0,1-16.58,17.35,48.31,48.31,0,0,0-19.2-11.2A12,12,0,0,1,184.63,23.14ZM232.85,167.8A92,92,0,0,1,64.31,190l-40-69.32A32,32,0,0,1,36,77a31.72,31.72,0,0,1,7.54-3.14A32,32,0,0,1,88.65,32.45a32,32,0,0,1,53,3.55l14.53,25.17A32,32,0,0,1,206.35,68l17.31,30A91.38,91.38,0,0,1,232.85,167.8Zm-30-57.81L185.57,80a8,8,0,0,0-13.86,8h0l6.68,11.57a12,12,0,0,1-3.18,15.59,28,28,0,0,0-6.41,38.1,12,12,0,1,1-19.86,13.46,52.05,52.05,0,0,1,3.9-63.4L120.9,48A8,8,0,0,0,107,56l24.25,42a12,12,0,1,1-20.78,12L79.33,56a8,8,0,0,0-13.85,8L99,122a12,12,0,0,1-20.78,12L58.93,100.67a8,8,0,1,0-13.85,8L85.1,178a68,68,0,0,0,117.78-68ZM50.46,198a12,12,0,1,0-20.78,12,132.79,132.79,0,0,0,20,26.38,12,12,0,1,0,17.17-16.76A109.2,109.2,0,0,1,50.46,198Z"/></svg>