<svg xmlns="http://www.w3.org/2000/svg" viewBox="0 0 256 256" fill="currentColor"><path d="M16,152H48v56H16a8,8,0,0,1-8-8V160A8,8,0,0,1,16,152ZM204,56a28,28,0,0,0-12,2.71h0A28,28,0,1,0,176,85.29h0A28,28,0,1,0,204,56Z" opacity="0.2"/><path d="M230.33,141.06a24.43,24.43,0,0,0-21.24-4.23l-41.84,9.62A28,28,0,0,0,140,112H89.94a31.82,31.82,0,0,0-22.63,9.37L44.69,144H16A16,16,0,0,0,0,160v40a16,16,0,0,0,16,16H120a7.93,7.93,0,0,0,1.94-.24l64-16a6.94,6.94,0,0,0,1.19-.4L226,182.82l.44-.2a24.6,24.6,0,0,0,3.93-41.56ZM16,160H40v40H16Zm203.43,8.21-38,16.18L119,200H56V155.31l22.63-22.62A15.86,15.86,0,0,1,89.94,128H140a12,12,0,0,1,0,24H112a8,8,0,0,0,0,16h32a8.32,8.32,0,0,0,1.79-.2l67-15.41.31-.08a8.6,8.6,0,0,1,6.3,15.9ZM164,96a36,36,0,0,0,5.9-.48,36,36,0,1,0,28.22-47A36,36,0,1,0,164,96Zm60-12a20,20,0,1,1-20-20A20,20,0,0,1,224,84ZM164,40a20,20,0,0,1,19.25,14.61,36,36,0,0,0-15,24.93A20.42,20.42,0,0,1,164,80a20,20,0,0,1,0-40Z"/></svg>