<svg xmlns="http://www.w3.org/2000/svg" viewBox="0 0 256 256" fill="currentColor"><path d="M227.9,144.24a20.45,20.45,0,0,0-17.84-3.53l-11.95,2.75C223.26,121.88,236,100.58,236,80c0-24.26-19.5-44-43.46-44A43.41,43.41,0,0,0,156,55.44,43.41,43.41,0,0,0,119.46,36C95.5,36,76,55.74,76,80c0,11.85,4.11,23.44,12.81,36a27.8,27.8,0,0,0-18.67,8.17L46.34,148H16A12,12,0,0,0,4,160v40a12,12,0,0,0,12,12H120a4,4,0,0,0,1-.12l64-16a4.69,4.69,0,0,0,.6-.2l38.82-16.54.22-.1a20.6,20.6,0,0,0,3.29-34.8ZM119.46,44A35.15,35.15,0,0,1,152.3,65.52a4,4,0,0,0,7.4,0A35.15,35.15,0,0,1,192.54,44C211.76,44,228,60.49,228,80c0,21.27-16.13,44-47.94,67.61L160.75,152A23.76,23.76,0,0,0,164,140a24,24,0,0,0-24-24H98.69C88.69,103,84,91.5,84,80,84,60.49,100.24,44,119.46,44ZM12,200V160a4,4,0,0,1,4-4H44v48H16A4,4,0,0,1,12,200Zm209.13-28.17L182.72,188.2,119.51,204H52V153.66l23.8-23.8A19.86,19.86,0,0,1,89.94,124H140a16,16,0,0,1,0,32H112a4,4,0,0,0,0,8h32a3.94,3.94,0,0,0,.9-.1l67-15.41.16,0a12.6,12.6,0,0,1,9,23.38Z"/></svg>