<svg xmlns="http://www.w3.org/2000/svg" viewBox="0 0 256 256" fill="currentColor"><path d="M223.92,208H32.08a8,8,0,0,1-8-8.93l14.25-120a8.06,8.06,0,0,1,8-7.07H209.67a8.06,8.06,0,0,1,8,7.07l14.25,120A8,8,0,0,1,223.92,208Z" opacity="0.2"/><path d="M239.89,198.12l-14.26-120a16,16,0,0,0-16-14.12H176a48,48,0,0,0-96,0H46.33a16,16,0,0,0-16,14.12l-14.26,120A16,16,0,0,0,20,210.6a16.13,16.13,0,0,0,12,5.4H223.92A16.13,16.13,0,0,0,236,210.6,16,16,0,0,0,239.89,198.12ZM128,32a32,32,0,0,1,32,32H96A32,32,0,0,1,128,32ZM32,200,46.33,80H209.75l14.17,120Z"/></svg>