<svg xmlns="http://www.w3.org/2000/svg" viewBox="0 0 256 256" fill="currentColor"><path d="M224,154h-2V136a94.37,94.37,0,0,0-64-89.1V40a14,14,0,0,0-14-14H112A14,14,0,0,0,98,40v6.9A94.37,94.37,0,0,0,34,136v18H32a14,14,0,0,0-14,14v24a14,14,0,0,0,14,14H224a14,14,0,0,0,14-14V168A14,14,0,0,0,224,154Zm-14-18v18H158V59.68A82.33,82.33,0,0,1,210,136ZM112,38h32a2,2,0,0,1,2,2V154H110V40A2,2,0,0,1,112,38ZM46,136A82.33,82.33,0,0,1,98,59.68V154H46Zm180,56a2,2,0,0,1-2,2H32a2,2,0,0,1-2-2V168a2,2,0,0,1,2-2H224a2,2,0,0,1,2,2Z"/></svg>