<svg xmlns="http://www.w3.org/2000/svg" viewBox="0 0 256 256" fill="currentColor"><path d="M216,152v48a8,8,0,0,1-8,8H48a8,8,0,0,1-8-8V152a8,8,0,0,1,8-8H208A8,8,0,0,1,216,152ZM208,48H48a8,8,0,0,0-8,8v48a8,8,0,0,0,8,8H208a8,8,0,0,0,8-8V56A8,8,0,0,0,208,48Z" opacity="0.2"/><path d="M208,136H48a16,16,0,0,0-16,16v48a16,16,0,0,0,16,16H208a16,16,0,0,0,16-16V152A16,16,0,0,0,208,136Zm0,64H48V152H208v48Zm0-160H48A16,16,0,0,0,32,56v48a16,16,0,0,0,16,16H208a16,16,0,0,0,16-16V56A16,16,0,0,0,208,40Zm0,64H48V56H208v48ZM192,80a12,12,0,1,1-12-12A12,12,0,0,1,192,80Zm0,96a12,12,0,1,1-12-12A12,12,0,0,1,192,176Z"/></svg>