<svg xmlns="http://www.w3.org/2000/svg" viewBox="0 0 256 256" fill="currentColor"><path d="M208,140H48a12,12,0,0,0-12,12v48a12,12,0,0,0,12,12H208a12,12,0,0,0,12-12V152A12,12,0,0,0,208,140Zm4,60a4,4,0,0,1-4,4H48a4,4,0,0,1-4-4V152a4,4,0,0,1,4-4H208a4,4,0,0,1,4,4ZM208,44H48A12,12,0,0,0,36,56v48a12,12,0,0,0,12,12H208a12,12,0,0,0,12-12V56A12,12,0,0,0,208,44Zm4,60a4,4,0,0,1-4,4H48a4,4,0,0,1-4-4V56a4,4,0,0,1,4-4H208a4,4,0,0,1,4,4Zm-24,72a8,8,0,1,1-8-8A8,8,0,0,1,188,176Zm0-96a8,8,0,1,1-8-8A8,8,0,0,1,188,80Z"/></svg>