<svg xmlns="http://www.w3.org/2000/svg" viewBox="0 0 256 256" fill="currentColor"><path d="M208,138H48a14,14,0,0,0-14,14v48a14,14,0,0,0,14,14H208a14,14,0,0,0,14-14V152A14,14,0,0,0,208,138Zm2,62a2,2,0,0,1-2,2H48a2,2,0,0,1-2-2V152a2,2,0,0,1,2-2H208a2,2,0,0,1,2,2ZM208,42H48A14,14,0,0,0,34,56v48a14,14,0,0,0,14,14H208a14,14,0,0,0,14-14V56A14,14,0,0,0,208,42Zm2,62a2,2,0,0,1-2,2H48a2,2,0,0,1-2-2V56a2,2,0,0,1,2-2H208a2,2,0,0,1,2,2ZM190,80a10,10,0,1,1-10-10A10,10,0,0,1,190,80Zm0,96a10,10,0,1,1-10-10A10,10,0,0,1,190,176Z"/></svg>