<svg xmlns="http://www.w3.org/2000/svg" viewBox="0 0 256 256" fill="currentColor"><path d="M199.05,57.48A100.07,100.07,0,0,0,28,128v56a20,20,0,0,0,20,20H64a20,20,0,0,0,20-20V144a20,20,0,0,0-20-20H36.08A92,92,0,0,1,128,36h.7a91.75,91.75,0,0,1,91.22,88H192a20,20,0,0,0-20,20v40a20,20,0,0,0,20,20h28v4a28,28,0,0,1-28,28H136a4,4,0,0,0,0,8h56a36,36,0,0,0,36-36V128A99.44,99.44,0,0,0,199.05,57.48ZM64,132a12,12,0,0,1,12,12v40a12,12,0,0,1-12,12H48a12,12,0,0,1-12-12V132Zm116,52V144a12,12,0,0,1,12-12h28v64H192A12,12,0,0,1,180,184Z"/></svg>