<svg xmlns="http://www.w3.org/2000/svg" viewBox="0 0 256 256" fill="currentColor"><path d="M199.05,57.48A100.07,100.07,0,0,0,28,128v56a20,20,0,0,0,20,20H64a20,20,0,0,0,20-20V144a20,20,0,0,0-20-20H36.08A92,92,0,0,1,128,36h.7a91.75,91.75,0,0,1,91.22,88H192a20,20,0,0,0-20,20v40a20,20,0,0,0,20,20h16a20,20,0,0,0,20-20V128A99.43,99.43,0,0,0,199.05,57.48ZM64,132a12,12,0,0,1,12,12v40a12,12,0,0,1-12,12H48a12,12,0,0,1-12-12V132Zm156,52a12,12,0,0,1-12,12H192a12,12,0,0,1-12-12V144a12,12,0,0,1,12-12h28Z"/></svg>