<svg xmlns="http://www.w3.org/2000/svg" viewBox="0 0 256 256" fill="currentColor"><path d="M200.47,56.07A101.37,101.37,0,0,0,128.77,26H128A102,102,0,0,0,26,128v56a22,22,0,0,0,22,22H64a22,22,0,0,0,22-22V144a22,22,0,0,0-22-22H38.2A90.12,90.12,0,0,1,192,64.52,89.41,89.41,0,0,1,217.81,122H192a22,22,0,0,0-22,22v40a22,22,0,0,0,22,22h16a22,22,0,0,0,22-22V128A101.44,101.44,0,0,0,200.47,56.07ZM64,134a10,10,0,0,1,10,10v40a10,10,0,0,1-10,10H48a10,10,0,0,1-10-10V134Zm154,50a10,10,0,0,1-10,10H192a10,10,0,0,1-10-10V144a10,10,0,0,1,10-10h26Z"/></svg>