<svg xmlns="http://www.w3.org/2000/svg" viewBox="0 0 256 256" fill="currentColor"><path d="M201.89,54.66A103.43,103.43,0,0,0,128.79,24H128A104,104,0,0,0,24,128v56a24,24,0,0,0,24,24H64a24,24,0,0,0,24-24V144a24,24,0,0,0-24-24H40.36A88,88,0,0,1,128,40h.67a87.71,87.71,0,0,1,87,80H192a24,24,0,0,0-24,24v40a24,24,0,0,0,24,24h16a24,24,0,0,0,24-24V128A103.41,103.41,0,0,0,201.89,54.66ZM64,136a8,8,0,0,1,8,8v40a8,8,0,0,1-8,8H48a8,8,0,0,1-8-8V136Zm152,48a8,8,0,0,1-8,8H192a8,8,0,0,1-8-8V144a8,8,0,0,1,8-8h24Z"/></svg>