<svg xmlns="http://www.w3.org/2000/svg" viewBox="0 0 256 256" fill="currentColor"><path d="M178,44a57.59,57.59,0,0,0-41,17l-9,9-9-9a58,58,0,0,0-99,41c0,28.59,18,58.47,53.4,88.79a333.81,333.81,0,0,0,52.7,36.73,4,4,0,0,0,3.8,0,333.81,333.81,0,0,0,52.7-36.73C218,160.47,236,130.59,236,102A58.07,58.07,0,0,0,178,44ZM128,219.42c-14-8-100-59.35-100-117.42a50,50,0,0,1,85.36-35.36l9,9L109.17,88.8a4,4,0,0,0,0,5.66l27.36,27.36-19.36,19.35a4,4,0,0,0,5.66,5.66L145,124.64a4,4,0,0,0,0-5.65L117.66,91.63l13.16-13.16h0l11.8-11.81A50,50,0,0,1,228,102C228,160,142,211.46,128,219.42Z"/></svg>