<svg xmlns="http://www.w3.org/2000/svg" viewBox="0 0 256 256" fill="currentColor"><path d="M178,42c-21,0-39.26,9.47-50,25.34C117.26,51.47,99,42,78,42a60.07,60.07,0,0,0-60,60c0,29.2,18.2,59.59,54.1,90.31a334.68,334.68,0,0,0,53.06,37,6,6,0,0,0,5.68,0,334.68,334.68,0,0,0,53.06-37C219.8,161.59,238,131.2,238,102A60.07,60.07,0,0,0,178,42ZM128,217.11C111.59,207.64,30,157.72,30,102A48.05,48.05,0,0,1,78,54c20.28,0,37.31,10.83,44.45,28.27a6,6,0,0,0,11.1,0C140.69,64.83,157.72,54,178,54a48.05,48.05,0,0,1,48,48C226,157.72,144.41,207.64,128,217.11Z"/></svg>