<svg xmlns="http://www.w3.org/2000/svg" viewBox="0 0 256 256" fill="currentColor"><path d="M178,40a61.6,61.6,0,0,0-43.84,18.16L128,64.32l-6.16-6.16A62,62,0,0,0,16,102c0,70,103.79,126.67,108.21,129a8,8,0,0,0,7.58,0C136.21,228.67,240,172,240,102A62.07,62.07,0,0,0,178,40ZM128,214.8C109.74,204.16,32,155.69,32,102a46,46,0,0,1,78.53-32.53l6.16,6.16L106.34,86a8,8,0,0,0,0,11.31l24.53,24.53-16.53,16.52a8,8,0,0,0,11.32,11.32l22.18-22.19a8,8,0,0,0,0-11.31L123.31,91.63l22.16-22.16A46,46,0,0,1,224,102C224,155.61,146.24,204.15,128,214.8Z"/></svg>