<svg xmlns="http://www.w3.org/2000/svg" viewBox="0 0 256 256" fill="currentColor"><path d="M230.09,160.09,178,148.35,66.83,37.17A4,4,0,0,0,63.91,36a4,4,0,0,0-2.86,1.3C39.74,60.6,28,90,28,120v72a12,12,0,0,0,12,12H72a12,12,0,0,0,12-12V136.36a116.73,116.73,0,0,1,55.59,60.23A11.93,11.93,0,0,0,150.72,204H240a12,12,0,0,0,12-12v-4.73A27.74,27.74,0,0,0,230.09,160.09ZM76,192a4,4,0,0,1-4,4H40a4,4,0,0,1-4-4V124.08a114.9,114.9,0,0,1,40,8.62Zm168,0a4,4,0,0,1-4,4H150.72a4,4,0,0,1-3.71-2.42,124.36,124.36,0,0,0-44.87-55.76,123.1,123.1,0,0,0-66.07-21.75c.93-25.33,10.8-50,28.11-70.23l109,109a4,4,0,0,0,2,1.07l53.22,12A19.79,19.79,0,0,1,244,187.31Z"/></svg>