<svg xmlns="http://www.w3.org/2000/svg" viewBox="0 0 256 256" fill="currentColor"><path d="M252.24,107.76a6,6,0,0,0-8.48,0L193.41,158.1a2,2,0,0,1-2.82,0L105.9,73.41a2,2,0,0,1,0-2.82l50.34-50.35a6,6,0,0,0-8.48-8.48L97.41,62.1A14,14,0,0,0,95.7,79.81L73.41,102.1a14,14,0,0,0,0,19.8l6.1,6.1L19.76,187.76a6,6,0,0,0,2.34,9.93l72,24a6,6,0,0,0,6.14-1.45L136,184.49l6.1,6.1a14,14,0,0,0,19.8,0l22.28-22.29a14,14,0,0,0,17.72-1.71l50.34-50.35A6,6,0,0,0,252.24,107.76ZM94.38,209.14,35.11,189.38,88,136.49,127.51,176Zm59-27a2,2,0,0,1-2.82,0l-10.35-10.34h0l-48-48h0L81.9,113.41a2,2,0,0,1,0-2.82L104,88.49,175.51,160Z"/></svg>