<svg xmlns="http://www.w3.org/2000/svg" viewBox="0 0 256 256" fill="currentColor"><path d="M196,75.64V40a12,12,0,0,0-12-12H72A12,12,0,0,0,60,40V76a12,12,0,0,0,4.8,9.6L121.33,128,64.8,170.4A12,12,0,0,0,60,180v36a12,12,0,0,0,12,12H184a12,12,0,0,0,12-12V180.36a12.05,12.05,0,0,0-4.76-9.57L134.63,128l56.61-42.79A12.05,12.05,0,0,0,196,75.64ZM184,220H72a4,4,0,0,1-4-4V188H188v28A4,4,0,0,1,184,220Zm4-40H68a4,4,0,0,1,1.6-3.2L128,133l58.42,44.16A4,4,0,0,1,188,180Zm0-104.36a4,4,0,0,1-1.59,3.19L128,123,69.6,79.2A4,4,0,0,1,68,76V40a4,4,0,0,1,4-4H184a4,4,0,0,1,4,4Z"/></svg>