<svg xmlns="http://www.w3.org/2000/svg" viewBox="0 0 256 256" fill="currentColor"><path d="M133.78,128l74.68-71.51A12,12,0,0,0,200,36H56a12,12,0,0,0-8.49,20.49l.07.06L122.22,128,47.61,199.45l-.07.06A12,12,0,0,0,56,220H200a12,12,0,0,0,8.42-20.55ZM87.84,84h80.32L128,122.46ZM52.33,46.47A3.93,3.93,0,0,1,56,44H200a4,4,0,0,1,2.89,6.77L176.51,76h-97L53.17,50.8A3.92,3.92,0,0,1,52.33,46.47ZM203.67,209.53A3.93,3.93,0,0,1,200,212H56a4,4,0,0,1-2.86-6.8L124,137.37V168a4,4,0,0,0,8,0V137.37l70.8,67.8A3.93,3.93,0,0,1,203.67,209.53Z"/></svg>