<svg xmlns="http://www.w3.org/2000/svg" viewBox="0 0 256 256" fill="currentColor"><path d="M198,75.64V40a14,14,0,0,0-14-14H72A14,14,0,0,0,58,40V76a14.06,14.06,0,0,0,5.6,11.2L118,128,63.6,168.8A14.06,14.06,0,0,0,58,180v36a14,14,0,0,0,14,14H184a14,14,0,0,0,14-14V180.36a14.08,14.08,0,0,0-5.56-11.17L138,128l54.49-41.19A14.08,14.08,0,0,0,198,75.64ZM184.2,178H71.33L128,135.51Zm-.2,40H72a2,2,0,0,1-2-2V190H186v26A2,2,0,0,1,184,218Zm2-142.36a2,2,0,0,1-.79,1.6L128,120.49,70.8,77.6A2,2,0,0,1,70,76V40a2,2,0,0,1,2-2H184a2,2,0,0,1,2,2Z"/></svg>