<svg xmlns="http://www.w3.org/2000/svg" viewBox="0 0 256 256" fill="currentColor"><path d="M128,92a36,36,0,1,0,36,36A36,36,0,0,0,128,92Zm0,48a12,12,0,1,1,12-12A12,12,0,0,1,128,140Zm35.37-97,8.14-27.65A12,12,0,0,0,157.89.19,194,194,0,0,0,97.77,23.74C57.36,48.28,36,84.33,36,128a92.15,92.15,0,0,0,56.63,85l-8.14,27.65A12,12,0,0,0,96,256a11.58,11.58,0,0,0,2.11-.19,194,194,0,0,0,60.12-23.55C198.64,207.72,220,171.67,220,128A92.15,92.15,0,0,0,163.37,43Zm-17,168.35a168.74,168.74,0,0,1-32.74,15.28l5.28-18a12,12,0,0,0-8.42-15A68,68,0,0,1,60,128c0-35.12,16.7-63.18,49.65-83.39a168.84,168.84,0,0,1,32.74-15.29l-5.28,18a12,12,0,0,0,8.42,15A68,68,0,0,1,196,128C196,163.12,179.3,191.17,146.35,211.39Z"/></svg>