<svg xmlns="http://www.w3.org/2000/svg" viewBox="0 0 256 256" fill="currentColor"><path d="M198,112a6,6,0,0,1-6,6H152a6,6,0,0,1,0-12h40A6,6,0,0,1,198,112Zm-6,26H152a6,6,0,0,0,0,12h40a6,6,0,0,0,0-12Zm38-82V200a14,14,0,0,1-14,14H40a14,14,0,0,1-14-14V56A14,14,0,0,1,40,42H216A14,14,0,0,1,230,56Zm-12,0a2,2,0,0,0-2-2H40a2,2,0,0,0-2,2V200a2,2,0,0,0,2,2H216a2,2,0,0,0,2-2ZM133.81,166.51a6,6,0,0,1-11.62,3C119.34,158.38,108.08,150,96,150s-23.33,8.38-26.19,19.5a6,6,0,0,1-11.62-3A38,38,0,0,1,76.78,143a30,30,0,1,1,38.45,0A38,38,0,0,1,133.81,166.51ZM96,138a18,18,0,1,0-18-18A18,18,0,0,0,96,138Z"/></svg>