<svg xmlns="http://www.w3.org/2000/svg" viewBox="0 0 256 256" fill="currentColor"><path d="M216,42H40A14,14,0,0,0,26,56V200a14,14,0,0,0,14,14H216a14,14,0,0,0,14-14V56A14,14,0,0,0,216,42ZM40,54H216a2,2,0,0,1,2,2V163.57L188.53,134.1a14,14,0,0,0-19.8,0l-21.42,21.42L101.9,110.1a14,14,0,0,0-19.8,0L38,154.2V56A2,2,0,0,1,40,54ZM38,200V171.17l52.58-52.58a2,2,0,0,1,2.84,0L176.83,202H40A2,2,0,0,1,38,200Zm178,2H193.8l-38-38,21.41-21.42a2,2,0,0,1,2.83,0l38,38V200A2,2,0,0,1,216,202ZM146,100a10,10,0,1,1,10,10A10,10,0,0,1,146,100Z"/></svg>