<svg xmlns="http://www.w3.org/2000/svg" viewBox="0 0 256 256" fill="currentColor"><path d="M208,34H80A14,14,0,0,0,66,48V66H48A14,14,0,0,0,34,80V208a14,14,0,0,0,14,14H176a14,14,0,0,0,14-14V190h18a14,14,0,0,0,14-14V48A14,14,0,0,0,208,34ZM78,48a2,2,0,0,1,2-2H208a2,2,0,0,1,2,2v74.2l-20.1-20.1a14,14,0,0,0-19.8,0L94.2,178H80a2,2,0,0,1-2-2ZM178,208a2,2,0,0,1-2,2H48a2,2,0,0,1-2-2V80a2,2,0,0,1,2-2H66v98a14,14,0,0,0,14,14h98Zm30-30H111.17l67.41-67.41a2,2,0,0,1,2.83,0L210,139.17V176A2,2,0,0,1,208,178Zm-88-68A22,22,0,1,0,98,88,22,22,0,0,0,120,110Zm0-32a10,10,0,1,1-10,10A10,10,0,0,1,120,78Z"/></svg>