<svg xmlns="http://www.w3.org/2000/svg" viewBox="0 0 256 256" fill="currentColor"><path d="M216,44H72A12,12,0,0,0,60,56V76H40A12,12,0,0,0,28,88V200a12,12,0,0,0,12,12H184a12,12,0,0,0,12-12V180h20a12,12,0,0,0,12-12V56A12,12,0,0,0,216,44ZM68,56a4,4,0,0,1,4-4H216a4,4,0,0,1,4,4v72.4l-16.89-16.89a12,12,0,0,0-17,0l-22.83,22.83L116.49,87.51a12,12,0,0,0-17,0L68,119ZM188,200a4,4,0,0,1-4,4H40a4,4,0,0,1-4-4V88a4,4,0,0,1,4-4H60v84a12,12,0,0,0,12,12H188Zm28-28H72a4,4,0,0,1-4-4V130.34l37.17-37.17a4,4,0,0,1,5.66,0l49.66,49.66a4,4,0,0,0,5.65,0l25.66-25.66a4,4,0,0,1,5.66,0L220,139.71V168A4,4,0,0,1,216,172ZM164,84a8,8,0,1,1,8,8A8,8,0,0,1,164,84Z"/></svg>