<svg xmlns="http://www.w3.org/2000/svg" viewBox="0 0 256 256" fill="currentColor"><path d="M225.94,161.94a48,48,0,0,1-67.88,0L128,128l30.06-33.94a48,48,0,0,1,67.88,67.88ZM30.06,94.06a48,48,0,0,0,67.88,67.88L128,128,97.94,94.06A48,48,0,0,0,30.06,94.06Z" opacity="0.2"/><path d="M248,128a56,56,0,0,1-95.6,39.6l-.33-.35L92.12,99.55a40,40,0,1,0,0,56.9l8.52-9.62a8,8,0,1,1,12,10.61l-8.69,9.81-.33.35a56,56,0,1,1,0-79.2l.33.35,59.95,67.7a40,40,0,1,0,0-56.9l-8.52,9.62a8,8,0,1,1-12-10.61l8.69-9.81.33-.35A56,56,0,0,1,248,128Z"/></svg>