<svg xmlns="http://www.w3.org/2000/svg" viewBox="0 0 256 256" fill="currentColor"><path d="M193.78,97.13c.13-1.69.22-3.4.22-5.13A66,66,0,0,0,62,92c0,1.73.09,3.44.22,5.13A66,66,0,1,0,128,211.27,66,66,0,1,0,193.78,97.13ZM74,92a54,54,0,0,1,108,0c0,.17,0,.34,0,.51a65.75,65.75,0,0,0-54,8.22,65.75,65.75,0,0,0-54-8.22C74,92.34,74,92.17,74,92Zm72,64a53.88,53.88,0,0,1-18,40.21A53.88,53.88,0,0,1,110,156c0-.17,0-.34,0-.51a65.73,65.73,0,0,0,36,0C146,155.66,146,155.83,146,156Zm-18-10a53.61,53.61,0,0,1-16.5-2.59A54.09,54.09,0,0,1,128,115.79a54.09,54.09,0,0,1,16.5,27.62A53.61,53.61,0,0,1,128,146Zm-27.6-7.61a54.14,54.14,0,0,1-24.9-33.8A53.85,53.85,0,0,1,118,108.71,66.09,66.09,0,0,0,100.4,138.39ZM138,108.71a53.85,53.85,0,0,1,42.53-4.12,54.14,54.14,0,0,1-24.9,33.8A66.09,66.09,0,0,0,138,108.71ZM92,210A54,54,0,0,1,64.4,109.61a66.29,66.29,0,0,0,33.82,41.26c-.13,1.69-.22,3.4-.22,5.13a65.8,65.8,0,0,0,20,47.29A53.64,53.64,0,0,1,92,210Zm72,0a53.64,53.64,0,0,1-26-6.71A65.8,65.8,0,0,0,158,156c0-1.73-.09-3.44-.22-5.13a66.29,66.29,0,0,0,33.82-41.26A54,54,0,0,1,164,210Z"/></svg>