<svg xmlns="http://www.w3.org/2000/svg" viewBox="0 0 256 256" fill="currentColor"><path d="M168,96a72,72,0,0,1-72,72,73.37,73.37,0,0,1-7.6-.4A73.37,73.37,0,0,1,88,160a72,72,0,0,1,72-72,73.37,73.37,0,0,1,7.6.4A73.37,73.37,0,0,1,168,96Z" opacity="0.2"/><path d="M174.63,81.37a80,80,0,1,0-93.26,93.26,80,80,0,1,0,93.26-93.26ZM32,96a64,64,0,0,1,126-16A80.08,80.08,0,0,0,80.05,158,64.11,64.11,0,0,1,32,96Zm128,0a64.07,64.07,0,0,1-64,64A64.07,64.07,0,0,1,160,96Zm0,128A64.11,64.11,0,0,1,98,176,80.08,80.08,0,0,0,176,98,64,64,0,0,1,160,224Z"/></svg>