<svg xmlns="http://www.w3.org/2000/svg" viewBox="0 0 256 256" fill="currentColor"><path d="M224,104v88a8,8,0,0,1-8,8H168V104Z" opacity="0.2"/><path d="M28,128a8,8,0,0,1,0-16H56a8,8,0,0,0,0-16H40a24,24,0,0,1,0-48,8,8,0,0,1,16,0h8a8,8,0,0,1,0,16H40a8,8,0,0,0,0,16H56a24,24,0,0,1,0,48,8,8,0,0,1-16,0ZM232,56V192a16,16,0,0,1-16,16H40a16,16,0,0,1-16-16V152a8,8,0,0,1,16,0v40H160V160H80a8,8,0,0,1,0-16h80V112H104a8,8,0,0,1,0-16H216V64H96a8,8,0,0,1,0-16H224A8,8,0,0,1,232,56Zm-56,88h40V112H176Zm40,48V160H176v32Z"/></svg>