<svg xmlns="http://www.w3.org/2000/svg" viewBox="0 0 256 256" fill="currentColor"><path d="M236.69,227.75a6,6,0,0,1-8.44.94C227.87,228.38,189,198,128,198c-61.19,0-99.87,30.38-100.25,30.69a6,6,0,0,1-7.5-9.38c1.63-1.3,39-30.65,99.59-33.14A118.31,118.31,0,0,1,116,146.53c1.76-22.07,11.39-51.75,45.8-73.43A70.48,70.48,0,0,0,140.19,70c-19.74.64-32.65,12.56-38.37,35.43A6,6,0,0,1,96,110a6.14,6.14,0,0,1-1.46-.18,6,6,0,0,1-4.36-7.28c8.95-35.74,31.92-43.93,49.63-44.5a83,83,0,0,1,25.64,3.61C161.55,54,155,44.69,145,40.41c-10.55-4.51-23.36-2.62-38.09,5.59a6,6,0,1,1-5.84-10.47c18.17-10.14,34.56-12.2,48.71-6.12,13.42,5.76,21.77,17.64,26.57,27.16,4.65-8.13,12.14-17.51,23.1-21.08,11.2-3.65,23.37-.6,36.16,9.07a6,6,0,1,1-7.24,9.57c-9.46-7.15-17.93-9.59-25.17-7.24-9.3,3-15.45,13.07-18.7,20A68.92,68.92,0,0,1,207,74.8c14.15,8.09,31,25.27,31,61.21a6,6,0,0,1-12,0c0-37.92-21.2-51-36-55.59a54.08,54.08,0,0,1,7.38,36.49,57.2,57.2,0,0,1-8.51,22.56,6,6,0,0,1-9.82-6.91c.78-1.12,17.81-26.37-4.39-53.06C146.19,95,130.5,117.69,128,147.05a106.68,106.68,0,0,0,4.3,39c62.82,1.35,101.77,31.92,103.43,33.25A6,6,0,0,1,236.69,227.75ZM26,140a26,26,0,1,1,26,26A26,26,0,0,1,26,140Zm12,0a14,14,0,1,0,14-14A14,14,0,0,0,38,140Z"/></svg>