<svg xmlns="http://www.w3.org/2000/svg" viewBox="0 0 256 256" fill="currentColor"><path d="M215.15,40.85A78,78,0,0,0,86.2,121.31l-56.1,56.1a13.94,13.94,0,0,0-4.1,9.9V216a14,14,0,0,0,14,14H72a6,6,0,0,0,6-6V206H96a6,6,0,0,0,6-6V182h18a6,6,0,0,0,4.24-1.76l10.45-10.44A77.59,77.59,0,0,0,160,174h.1A78,78,0,0,0,215.15,40.85ZM226,98.16c-1.12,35.16-30.67,63.8-65.88,63.84a65.93,65.93,0,0,1-24.51-4.67,6,6,0,0,0-6.64,1.26L117.51,170H96a6,6,0,0,0-6,6v18H72a6,6,0,0,0-6,6v18H40a2,2,0,0,1-2-2V187.31a2,2,0,0,1,.58-1.41l58.83-58.83a6,6,0,0,0,1.26-6.64A65.61,65.61,0,0,1,94,95.92C94,60.71,122.68,31.16,157.83,30A66,66,0,0,1,226,98.16ZM190,76a10,10,0,1,1-10-10A10,10,0,0,1,190,76Z"/></svg>