<svg xmlns="http://www.w3.org/2000/svg" viewBox="0 0 256 256" fill="currentColor"><path d="M224,52H32A12,12,0,0,0,20,64V192a12,12,0,0,0,12,12H224a12,12,0,0,0,12-12V64A12,12,0,0,0,224,52Zm4,140a4,4,0,0,1-4,4H32a4,4,0,0,1-4-4V64a4,4,0,0,1,4-4H224a4,4,0,0,1,4,4Zm-24-64a4,4,0,0,1-4,4H56a4,4,0,0,1,0-8H200A4,4,0,0,1,204,128Zm0-32a4,4,0,0,1-4,4H56a4,4,0,0,1,0-8H200A4,4,0,0,1,204,96ZM68,160a4,4,0,0,1-4,4H56a4,4,0,0,1,0-8h8A4,4,0,0,1,68,160Zm96,0a4,4,0,0,1-4,4H96a4,4,0,0,1,0-8h64A4,4,0,0,1,164,160Zm40,0a4,4,0,0,1-4,4h-8a4,4,0,0,1,0-8h8A4,4,0,0,1,204,160Z"/></svg>