<svg xmlns="http://www.w3.org/2000/svg" viewBox="0 0 256 256" fill="currentColor"><path d="M144,139.72,160,176H96l16-36.28a32,32,0,1,1,32,0Z" opacity="0.2"/><path d="M128,24A104,104,0,1,0,232,128,104.11,104.11,0,0,0,128,24Zm0,192a88,88,0,1,1,88-88A88.1,88.1,0,0,1,128,216Zm40-104a40,40,0,1,0-65.94,30.44L88.68,172.77A8,8,0,0,0,96,184h64a8,8,0,0,0,7.32-11.23l-13.38-30.33A40.14,40.14,0,0,0,168,112ZM136.68,143l11,25.05H108.27l11-25.05A8,8,0,0,0,116,132.79a24,24,0,1,1,24,0A8,8,0,0,0,136.68,143Z"/></svg>