<svg xmlns="http://www.w3.org/2000/svg" viewBox="0 0 256 256" fill="currentColor"><path d="M234.7,29.3a31.83,31.83,0,0,0-45,0L15.52,203.56a12,12,0,0,0,5.78,20.19A164.85,164.85,0,0,0,58.42,228c33.71,0,67.41-10.42,99.1-30.87,32.32-20.86,51.16-44.7,51.94-45.7a12,12,0,0,0-1-15.89L191,118,234.7,74.29A31.86,31.86,0,0,0,234.7,29.3ZM143.87,177.36C113,197.12,81.28,206,49.28,203.74L146,107l19.5,19.51,0,0h0l18,18A216.69,216.69,0,0,1,143.87,177.36Zm73.86-120L174,101,163,90,206.7,46.28a7.8,7.8,0,0,1,11,11Z"/></svg>