<svg xmlns="http://www.w3.org/2000/svg" viewBox="0 0 256 256" fill="currentColor"><path d="M207.83,56.53C186.32,43.29,158,36,128,36S69.68,43.29,48.17,56.53C24.85,70.89,12,90.6,12,112s12.85,41.14,36.17,55.5c18.48,11.37,42,18.34,67.29,20.08-2,11.07-9.09,17.75-15.22,21.54-13.48,8.31-32.75,9.18-46.86,2.1A12,12,0,1,0,42.62,232.7a71.76,71.76,0,0,0,32,7.3,73.2,73.2,0,0,0,38.18-10.43c15.45-9.54,25-24.58,26.83-41.9,25.6-1.64,49.47-8.65,68.16-20.15C231.15,153.16,244,133.45,244,112S231.15,70.89,207.83,56.53Zm-134.44,97a21,21,0,0,1,20.16-9.35c10.36,1.39,16.54,9.43,19.72,19.13A135.3,135.3,0,0,1,73.39,153.56Zm64.87,10.14a61.84,61.84,0,0,0-10.76-24.82,46.08,46.08,0,0,0-30.75-18.46c-18-2.41-34.52,5.89-44.1,21C42.2,133,36,122.84,36,112c0-28.19,42.13-52,92-52s92,23.82,92,52C220,138.26,183.51,160.71,138.26,163.7Z"/></svg>