<svg xmlns="http://www.w3.org/2000/svg" viewBox="0 0 256 256" fill="currentColor"><path d="M246,160a38,38,0,0,1-38,38H190.57a54.21,54.21,0,0,1-48.94-31.16l-30.14-64.6A42.14,42.14,0,0,0,73.43,78H64a42,42,0,0,0-42,42v24a42,42,0,0,0,42,42h8a34,34,0,0,0,31.17-20.4,6,6,0,0,1,11,4.8A46,46,0,0,1,72,198H64a54.06,54.06,0,0,1-54-54V120A54.06,54.06,0,0,1,64,66h9.43a54.21,54.21,0,0,1,48.94,31.16l30.14,64.6A42.14,42.14,0,0,0,190.57,186H208a26,26,0,0,0,0-52H188a34,34,0,0,1,0-68h20a30,30,0,0,1,30,30,6,6,0,0,1-12,0,18,18,0,0,0-18-18H188a22,22,0,0,0,0,44h20A38,38,0,0,1,246,160Z"/></svg>