<svg xmlns="http://www.w3.org/2000/svg" viewBox="0 0 256 256" fill="currentColor"><path d="M227.42,39.86a12,12,0,0,0-11.28-11.28c-39.6-2.33-74.59,2.34-104,13.87C84,53.48,62.31,70.58,49.39,91.9c-17.62,29.11-17.66,64.45-.45,98.19L31.51,207.52a12,12,0,0,0,17,17l17.43-17.43c16.74,8.54,33.88,12.85,50.45,12.85a91.31,91.31,0,0,0,47.74-13.3c21.32-12.92,38.42-34.62,49.45-62.75C225.08,114.46,229.75,79.46,227.42,39.86ZM151.66,186.08C131.57,198.25,108,199.17,83.94,189l84.54-84.54a12,12,0,1,0-17-17L67,172.06c-10.14-24-9.22-47.63,3-67.72,20.91-34.53,70.54-53.72,134-52.25C205.38,115.53,186.19,165.17,151.66,186.08Z"/></svg>