<svg xmlns="http://www.w3.org/2000/svg" viewBox="0 0 256 256" fill="currentColor"><path d="M221.45,40.19a6,6,0,0,0-5.64-5.64C140.43,30.11,80.14,52.71,54.53,95c-17.44,28.79-16.76,62.8,1.79,96.2L35.76,211.76a6,6,0,1,0,8.48,8.48L64.8,199.68c17.27,9.59,34.7,14.41,51.49,14.41A85.38,85.38,0,0,0,161,201.47C203.29,175.86,225.88,115.57,221.45,40.19Zm-66.66,151c-24.08,14.58-52.64,14.37-81.13-.39l90.59-90.59a6,6,0,0,0-8.48-8.48L65.18,182.34c-14.76-28.49-15-57-.39-81.13,22.68-37.43,76.63-57.8,145-54.95C212.59,114.58,192.22,168.54,154.79,191.21Z"/></svg>