<svg xmlns="http://www.w3.org/2000/svg" viewBox="0 0 256 256" fill="currentColor"><path d="M100,122a10,10,0,1,1,10-10A10,10,0,0,1,100,122Zm56-20a10,10,0,1,0,10,10A10,10,0,0,0,156,102Zm-3.2,44.92a47,47,0,0,1-49.6,0,6,6,0,0,0-6.4,10.16,59,59,0,0,0,62.4,0,6,6,0,1,0-6.4-10.16ZM214,80v96a30.05,30.05,0,0,1-24,29.4V224a14,14,0,0,1-14,14H80a14,14,0,0,1-14-14V205.4A30.05,30.05,0,0,1,42,176V80A30,30,0,0,1,72,50H90V32a14,14,0,0,1,14-14h48a14,14,0,0,1,14,14V50h18A30,30,0,0,1,214,80ZM102,50h52V32a2,2,0,0,0-2-2H104a2,2,0,0,0-2,2Zm76,174V206H78v18a2,2,0,0,0,2,2h96A2,2,0,0,0,178,224ZM202,80a18,18,0,0,0-18-18H72A18,18,0,0,0,54,80v96a18,18,0,0,0,18,18H184a18,18,0,0,0,18-18Z"/></svg>