<svg xmlns="http://www.w3.org/2000/svg" viewBox="0 0 256 256" fill="currentColor"><path d="M100,120a8,8,0,1,1,8-8A8,8,0,0,1,100,120Zm56-16a8,8,0,1,0,8,8A8,8,0,0,0,156,104Zm-2.13,44.62a49,49,0,0,1-51.74,0,4,4,0,0,0-4.26,6.77,57,57,0,0,0,60.26,0,4,4,0,0,0-4.26-6.76ZM212,80v96a28,28,0,0,1-24,27.71V224a12,12,0,0,1-12,12H80a12,12,0,0,1-12-12V203.71A28,28,0,0,1,44,176V80A28,28,0,0,1,72,52H92V32a12,12,0,0,1,12-12h48a12,12,0,0,1,12,12V52h20A28,28,0,0,1,212,80ZM100,52h56V32a4,4,0,0,0-4-4H104a4,4,0,0,0-4,4Zm80,172V204H76v20a4,4,0,0,0,4,4h96A4,4,0,0,0,180,224ZM204,80a20,20,0,0,0-20-20H72A20,20,0,0,0,52,80v96a20,20,0,0,0,20,20H184a20,20,0,0,0,20-20Z"/></svg>