<svg xmlns="http://www.w3.org/2000/svg" viewBox="0 0 256 256" fill="currentColor"><path d="M128,28A100,100,0,1,0,228,128,100.11,100.11,0,0,0,128,28Zm67.79,162.13-34-34a43.92,43.92,0,0,0,0-56.28l34-34a91.83,91.83,0,0,1,0,124.26ZM92,128a36,36,0,1,1,36,36A36,36,0,0,1,92,128Zm98.13-67.79-34,34a43.92,43.92,0,0,0-56.28,0l-34-34a91.83,91.83,0,0,1,124.26,0ZM60.21,65.87l34,34a43.92,43.92,0,0,0,0,56.28l-34,34a91.83,91.83,0,0,1,0-124.26Zm5.66,129.92,34-34a43.92,43.92,0,0,0,56.28,0l34,34a91.83,91.83,0,0,1-124.26,0Z"/></svg>