<svg xmlns="http://www.w3.org/2000/svg" viewBox="0 0 256 256" fill="currentColor"><path d="M208,82a6,6,0,0,0-6,6v18H187L182,55.4a6,6,0,0,0-2-3.88L137.11,13.37l-.15-.12a14,14,0,0,0-17.92,0l-.15.12L76,51.52a6,6,0,0,0-2,3.88L69,106H54V88a6,6,0,0,0-12,0v24a6,6,0,0,0,6,6H67.75l-9.69,96.67A14,14,0,0,0,72,230H184a14,14,0,0,0,13.93-15.36L188.25,118H208a6,6,0,0,0,6-6V88A6,6,0,0,0,208,82ZM126.77,22.42a2,2,0,0,1,2.46,0l31,27.58H95.77ZM85.43,62h85.14L175,106H134V88a6,6,0,0,0-12,0v18H81Zm100,155.35A2,2,0,0,1,184,218H72a2,2,0,0,1-2-2.16L74.2,174H181.8L186,215.81A2,2,0,0,1,185.48,217.35ZM180.6,162H75.4l4.41-44h96.38Z"/></svg>