<svg xmlns="http://www.w3.org/2000/svg" viewBox="0 0 256 256" fill="currentColor"><path d="M72.8,216,88,152,32,126.86,127.2,24,112,88l56,25.14Z" opacity="0.2"/><path d="M175.84,111.54a8,8,0,0,0-4.56-5.7l-50-22.43L135,25.85a8,8,0,0,0-13.65-7.28L26.13,121.42a8,8,0,0,0,2.59,12.73l50,22.44L65,214.15a8,8,0,0,0,13.65,7.28l95.2-102.85A8,8,0,0,0,175.84,111.54ZM87.62,188.21l8.16-34.36a8,8,0,0,0-4.5-9.15L45.43,124.12l66.95-72.33-8.16,34.36a8,8,0,0,0,4.5,9.15l45.84,20.58Zm151.53,24.21-36-72a8,8,0,0,0-14.31,0l-36,72a8,8,0,0,0,14.31,7.16L176.94,200h38.11l9.79,19.58A8,8,0,0,0,232,224a8,8,0,0,0,7.15-11.58ZM184.94,184,196,161.89,207.05,184Z"/></svg>