<svg xmlns="http://www.w3.org/2000/svg" viewBox="0 0 256 256" fill="currentColor"><path d="M174,232a6,6,0,0,1-6,6H88a6,6,0,0,1,0-12h80A6,6,0,0,1,174,232Zm40-128a85.56,85.56,0,0,1-32.88,67.64A18.23,18.23,0,0,0,174,186v6a14,14,0,0,1-14,14H96a14,14,0,0,1-14-14v-6a18,18,0,0,0-7-14.23h0a85.59,85.59,0,0,1-33-67.25C41.74,57.91,79.39,19.12,125.93,18A86,86,0,0,1,214,104Zm-12,0a74,74,0,0,0-75.79-74C86.17,31,53.78,64.34,54,104.42a73.67,73.67,0,0,0,28.4,57.87A29.92,29.92,0,0,1,94,186v6a2,2,0,0,0,2,2h26V146.49L91.76,116.24a6,6,0,0,1,8.48-8.48L128,135.52l27.76-27.76a6,6,0,0,1,8.48,8.48L134,146.49V194h26a2,2,0,0,0,2-2v-6a30.18,30.18,0,0,1,11.7-23.78A73.59,73.59,0,0,0,202,104Z"/></svg>