<svg xmlns="http://www.w3.org/2000/svg" viewBox="0 0 256 256" fill="currentColor"><path d="M171.92,112.34a4,4,0,0,0-2.28-2.85l-53-23.78,14.43-60.79a4,4,0,0,0-6.83-3.64L29.06,124.14a4,4,0,0,0,1.3,6.37l53,23.78L68.91,215.07a4,4,0,0,0,2,4.46,3.94,3.94,0,0,0,1.88.47,4,4,0,0,0,2.94-1.28l95.2-102.86A4,4,0,0,0,171.92,112.34ZM80.21,202.1l11.68-49.18a4,4,0,0,0-2.25-4.57L38.72,125.49,119.79,37.9,108.11,87.08a4,4,0,0,0,2.25,4.57l50.92,22.86Zm155.37,12.11-36-72a4,4,0,0,0-7.16,0l-36,72a4,4,0,1,0,7.16,3.58L174.47,196h43.06l10.89,21.79A4,4,0,0,0,232,220a4.12,4.12,0,0,0,1.79-.42A4,4,0,0,0,235.58,214.21ZM178.47,188,196,152.94,213.53,188Z"/></svg>