<svg xmlns="http://www.w3.org/2000/svg" viewBox="0 0 256 256" fill="currentColor"><path d="M181.61,112H74.39L80,56h96ZM192,215.24,187.23,168H68.77L64,215.24A8,8,0,0,0,72,224H184A8,8,0,0,0,192,215.24Z" opacity="0.2"/><path d="M208,80a8,8,0,0,0-8,8v16H188.85L184,55.2A8,8,0,0,0,181.32,50L138.44,11.88l-.2-.17a16,16,0,0,0-20.48,0l-.2.17L74.68,50A8,8,0,0,0,72,55.2L67.15,104H56V88a8,8,0,0,0-16,0v24a8,8,0,0,0,8,8H65.54l-9.47,94.48A16,16,0,0,0,72,232H184a16,16,0,0,0,15.92-17.56L190.46,120H208a8,8,0,0,0,8-8V88A8,8,0,0,0,208,80ZM128,24l27,24H101ZM87.24,64h81.52l4,40H136V88a8,8,0,0,0-16,0v16H83.23ZM72,216l4-40H180l4,40Zm106.39-56H77.61l4-40h92.76Z"/></svg>