<svg xmlns="http://www.w3.org/2000/svg" viewBox="0 0 256 256" fill="currentColor"><path d="M236,88.12a50.44,50.44,0,0,1-14.81,34.31l-34.75,34.74A50.33,50.33,0,0,1,150.62,172h-.05A50.63,50.63,0,0,1,100,120a4,4,0,0,1,4-3.89h.11a4,4,0,0,1,3.89,4.11A42.64,42.64,0,0,0,150.58,164h0a42.32,42.32,0,0,0,30.14-12.49l34.75-34.74a42.63,42.63,0,1,0-60.29-60.28l-11,11a4,4,0,0,1-5.66-5.65l11-11A50.64,50.64,0,0,1,236,88.12ZM111.78,188.49l-11,11A42.33,42.33,0,0,1,70.6,212h0a42.63,42.63,0,0,1-30.11-72.77l34.75-34.74A42.63,42.63,0,0,1,148,135.82a4,4,0,0,0,8,.23A50.64,50.64,0,0,0,69.55,98.83L34.8,133.57A50.63,50.63,0,0,0,70.56,220h0a50.33,50.33,0,0,0,35.81-14.83l11-11a4,4,0,1,0-5.65-5.66Z"/></svg>