<svg xmlns="http://www.w3.org/2000/svg" viewBox="0 0 256 256" fill="currentColor"><path d="M164.25,91.75a6,6,0,0,1,0,8.49l-64,64a6,6,0,0,1-8.49-8.48l64-64A6,6,0,0,1,164.25,91.75ZM214.2,41.8a54.07,54.07,0,0,0-76.38,0L107.75,71.85a6,6,0,0,0,8.49,8.49l30.07-30.06a42,42,0,0,1,59.41,59.41l-30.08,30.07a6,6,0,1,0,8.49,8.49l30.07-30.07A54,54,0,0,0,214.2,41.8ZM139.76,175.64l-30.07,30.08a42,42,0,0,1-59.41-59.41l30.06-30.07a6,6,0,0,0-8.49-8.49l-30,30.07a54,54,0,0,0,76.38,76.39l30.07-30.08a6,6,0,0,0-8.49-8.49Z"/></svg>