<svg xmlns="http://www.w3.org/2000/svg" viewBox="0 0 256 256" fill="currentColor"><path d="M162.84,93.16a4,4,0,0,1,0,5.66l-64,64a4,4,0,0,1-5.66-5.66l64-64A4,4,0,0,1,162.84,93.16Zm49.95-49.95a52.07,52.07,0,0,0-73.56,0L109.17,73.27a4,4,0,0,0,5.65,5.66l30.07-30.06a44,44,0,0,1,62.24,62.24l-30.07,30.06a4,4,0,0,0,5.66,5.66l30.07-30.06A52.07,52.07,0,0,0,212.79,43.21ZM141.17,177.06l-30.06,30.07a44,44,0,0,1-62.24-62.24l30.06-30.06a4,4,0,0,0-5.66-5.66L43.21,139.23a52,52,0,0,0,73.56,73.56l30.06-30.07a4,4,0,1,0-5.66-5.66Z"/></svg>