<svg xmlns="http://www.w3.org/2000/svg" viewBox="0 0 256 256" fill="currentColor"><path d="M231.49,217.38a12,12,0,0,1-16.89-1.9C213.19,213.72,180,171.24,180,88A52,52,0,1,0,76,88c0,83.24-33.21,125.72-34.62,127.48A12,12,0,0,1,22.6,200.53C23,200,52,162.06,52,88a76,76,0,1,1,152,0c0,74.19,29.1,112.16,29.4,112.54A12,12,0,0,1,231.49,217.38ZM104,120a16,16,0,1,0-16-16A16,16,0,0,0,104,120Zm64-16a16,16,0,1,0-16,16A16,16,0,0,0,168,104ZM95.26,155l28,12a12,12,0,0,0,9.45,0l28-12A12,12,0,0,0,151.26,133l-23.27,10-23.27-10A12,12,0,0,0,95.26,155ZM128,184a57.12,57.12,0,0,0-38.66,15.15,12,12,0,0,0,16.23,17.69,32.86,32.86,0,0,1,44.85,0,12,12,0,1,0,16.23-17.69A57.1,57.1,0,0,0,128,184Z"/></svg>