<svg xmlns="http://www.w3.org/2000/svg" viewBox="0 0 256 256" fill="currentColor"><path d="M28,64A12,12,0,0,1,40,52H216a12,12,0,0,1,0,24H40A12,12,0,0,1,28,64Zm12,76H88a12,12,0,0,0,0-24H40a12,12,0,0,0,0,24Zm64,40H40a12,12,0,0,0,0,24h64a12,12,0,0,0,0-24Zm135.64-33.13-20.58,17,6.25,25.26a12,12,0,0,1-17.73,13.22L184,188.46l-23.58,13.88a12,12,0,0,1-17.73-13.22l6.25-25.26-20.58-17a12,12,0,0,1,6.72-21.22l27.42-2.12L173,99.25a12,12,0,0,1,22,0l10.48,24.28,27.42,2.12a12,12,0,0,1,6.72,21.22Zm-38.21.42-5-.39a12,12,0,0,1-10.09-7.21l-2.33-5.4-2.33,5.4a12,12,0,0,1-10.1,7.21l-5,.39,3.48,2.87a12,12,0,0,1,4,12.13l-1.21,4.89,5.07-3a12.06,12.06,0,0,1,12.18,0l5.07,3L194,162.29a12,12,0,0,1,4-12.13Z"/></svg>