<svg xmlns="http://www.w3.org/2000/svg" viewBox="0 0 256 256" fill="currentColor"><path d="M34,64a6,6,0,0,1,6-6H216a6,6,0,0,1,0,12H40A6,6,0,0,1,34,64Zm6,70h64a6,6,0,0,0,0-12H40a6,6,0,0,0,0,12Zm80,52H40a6,6,0,0,0,0,12h80a6,6,0,0,0,0-12Zm126-42c0,35.3-49.22,60.32-51.32,61.37a6,6,0,0,1-5.36,0C187.22,204.32,138,179.3,138,144a30,30,0,0,1,54-18,30,30,0,0,1,54,18Zm-12,0a18,18,0,0,0-36,0,6,6,0,0,1-12,0,18,18,0,0,0-36,0c0,14.15,11.78,27,21.67,35.25A138.82,138.82,0,0,0,192,193.19a138,138,0,0,0,20.33-13.94C222.22,171,234,158.15,234,144Z"/></svg>