<svg xmlns="http://www.w3.org/2000/svg" viewBox="0 0 256 256" fill="currentColor"><path d="M228,128a12,12,0,0,1-12,12H128a12,12,0,0,1,0-24h88A12,12,0,0,1,228,128ZM128,76h88a12,12,0,0,0,0-24H128a12,12,0,0,0,0,24Zm88,104H128a12,12,0,0,0,0,24h88a12,12,0,0,0,0-24ZM79.51,39.51,56,63l-7.51-7.52a12,12,0,0,0-17,17l16,16a12,12,0,0,0,17,0l32-32a12,12,0,0,0-17-17Zm0,64L56,127l-7.51-7.52a12,12,0,1,0-17,17l16,16a12,12,0,0,0,17,0l32-32a12,12,0,0,0-17-17Zm0,64L56,191l-7.51-7.52a12,12,0,1,0-17,17l16,16a12,12,0,0,0,17,0l32-32a12,12,0,0,0-17-17Z"/></svg>