<svg xmlns="http://www.w3.org/2000/svg" viewBox="0 0 256 256" fill="currentColor"><path d="M228,128a12,12,0,0,1-12,12H116a12,12,0,0,1,0-24H216A12,12,0,0,1,228,128ZM116,76H216a12,12,0,0,0,0-24H116a12,12,0,0,0,0,24ZM216,180H116a12,12,0,0,0,0,24H216a12,12,0,0,0,0-24ZM44,59.31V104a12,12,0,0,0,24,0V40A12,12,0,0,0,50.64,29.27l-16,8a12,12,0,0,0,9.36,22Zm39.73,96.86a27.7,27.7,0,0,0-11.2-18.63A28.89,28.89,0,0,0,32.9,143a27.71,27.71,0,0,0-4.17,7.54,12,12,0,0,0,22.55,8.21,4,4,0,0,1,.58-1,4.78,4.78,0,0,1,6.5-.82,3.82,3.82,0,0,1,1.61,2.6,3.63,3.63,0,0,1-.77,2.77l-.13.17L30.39,200.82A12,12,0,0,0,40,220H72a12,12,0,0,0,0-24H64l14.28-19.11A27.48,27.48,0,0,0,83.73,156.17Z"/></svg>