<svg xmlns="http://www.w3.org/2000/svg" viewBox="0 0 256 256" fill="currentColor"><path d="M222,128a6,6,0,0,1-6,6H104a6,6,0,0,1,0-12H216A6,6,0,0,1,222,128ZM104,70H216a6,6,0,0,0,0-12H104a6,6,0,0,0,0,12ZM216,186H104a6,6,0,0,0,0,12H216a6,6,0,0,0,0-12ZM42.68,53.37,50,49.71V104a6,6,0,0,0,12,0V40a6,6,0,0,0-8.68-5.37l-16,8a6,6,0,0,0,5.36,10.74ZM72,202H52l21.48-28.74A21.5,21.5,0,0,0,77.79,157,21.75,21.75,0,0,0,69,142.38a22.86,22.86,0,0,0-31.35,4.31,22.18,22.18,0,0,0-3.28,5.92,6,6,0,0,0,11.28,4.11,9.87,9.87,0,0,1,1.48-2.67,10.78,10.78,0,0,1,14.78-2,9.89,9.89,0,0,1,4,6.61,9.64,9.64,0,0,1-2,7.28l-.06.09L35.2,204.41A6,6,0,0,0,40,214H72a6,6,0,0,0,0-12Z"/></svg>