<svg xmlns="http://www.w3.org/2000/svg" viewBox="0 0 256 256" fill="currentColor"><path d="M222,128a6,6,0,0,1-6,6H128a6,6,0,0,1,0-12h88A6,6,0,0,1,222,128ZM128,70h88a6,6,0,0,0,0-12H128a6,6,0,0,0,0,12Zm88,116H128a6,6,0,0,0,0,12h88a6,6,0,0,0,0-12ZM83.76,43.76,56,71.51,44.24,59.76a6,6,0,0,0-8.48,8.48l16,16a6,6,0,0,0,8.48,0l32-32a6,6,0,0,0-8.48-8.48Zm0,64L56,135.51,44.24,123.76a6,6,0,1,0-8.48,8.48l16,16a6,6,0,0,0,8.48,0l32-32a6,6,0,0,0-8.48-8.48Zm0,64L56,199.51,44.24,187.76a6,6,0,0,0-8.48,8.48l16,16a6,6,0,0,0,8.48,0l32-32a6,6,0,0,0-8.48-8.48Z"/></svg>