<svg xmlns="http://www.w3.org/2000/svg" viewBox="0 0 256 256" fill="currentColor"><path d="M244,152a4,4,0,0,1-4,4H220v20a4,4,0,0,1-8,0V156H192a4,4,0,0,1,0-8h20V128a4,4,0,0,1,8,0v20h20A4,4,0,0,1,244,152ZM56,68H76V88a4,4,0,0,0,8,0V68h20a4,4,0,0,0,0-8H84V40a4,4,0,0,0-8,0V60H56a4,4,0,0,0,0,8ZM184,196H172V184a4,4,0,0,0-8,0v12H152a4,4,0,0,0,0,8h12v12a4,4,0,0,0,8,0V204h12a4,4,0,0,0,0-8ZM216.48,77.17,77.17,216.49a12,12,0,0,1-17,0L39.51,195.8a12,12,0,0,1,0-17L178.83,39.51a12,12,0,0,1,17,0L216.48,60.2A12,12,0,0,1,216.48,77.17ZM170.34,112,144,85.66,45.17,184.49a4,4,0,0,0,0,5.65l20.68,20.69a4,4,0,0,0,5.66,0Zm40.49-46.14L190.14,45.17a4,4,0,0,0-5.66,0L149.65,80,176,106.34l34.83-34.83A4,4,0,0,0,210.83,65.86Z"/></svg>