<svg xmlns="http://www.w3.org/2000/svg" viewBox="0 0 256 256" fill="currentColor"><path d="M246,152a6,6,0,0,1-6,6H222v18a6,6,0,0,1-12,0V158H192a6,6,0,0,1,0-12h18V128a6,6,0,0,1,12,0v18h18A6,6,0,0,1,246,152ZM56,70H74V88a6,6,0,0,0,12,0V70h18a6,6,0,0,0,0-12H86V40a6,6,0,0,0-12,0V58H56a6,6,0,0,0,0,12ZM184,194H174V184a6,6,0,0,0-12,0v10H152a6,6,0,0,0,0,12h10v10a6,6,0,0,0,12,0V206h10a6,6,0,0,0,0-12ZM217.9,78.59,78.58,217.9a14,14,0,0,1-19.8,0L38.09,197.21a14,14,0,0,1,0-19.8L177.41,38.1a14,14,0,0,1,19.8,0L217.9,58.79A14,14,0,0,1,217.9,78.59ZM167.51,112,144,88.49,46.58,185.9a2,2,0,0,0,0,2.83l20.69,20.68a2,2,0,0,0,2.82,0h0Zm41.9-44.73L188.73,46.59a2,2,0,0,0-2.83,0L152.48,80,176,103.52,209.41,70.1A2,2,0,0,0,209.41,67.27Z"/></svg>