<svg xmlns="http://www.w3.org/2000/svg" viewBox="0 0 256 256" fill="currentColor"><path d="M252,152a12,12,0,0,1-12,12H228v12a12,12,0,0,1-24,0V164H192a12,12,0,0,1,0-24h12V128a12,12,0,0,1,24,0v12h12A12,12,0,0,1,252,152ZM56,76H68V88a12,12,0,0,0,24,0V76h12a12,12,0,1,0,0-24H92V40a12,12,0,0,0-24,0V52H56a12,12,0,0,0,0,24ZM184,188h-4v-4a12,12,0,0,0-24,0v4h-4a12,12,0,0,0,0,24h4v4a12,12,0,0,0,24,0v-4h4a12,12,0,0,0,0-24ZM222.14,82.83,82.82,222.14a20,20,0,0,1-28.28,0L33.85,201.46a20,20,0,0,1,0-28.29L173.17,33.86a20,20,0,0,1,28.28,0l20.69,20.68A20,20,0,0,1,222.14,82.83ZM159,112,144,97,53.65,187.31l15,15Zm43.31-43.31-15-15L161,80l15,15Z"/></svg>