<svg xmlns="http://www.w3.org/2000/svg" viewBox="0 0 256 256" fill="currentColor"><path d="M204.13,53.06A83.41,83.41,0,0,0,144.59,28h-.32A83.46,83.46,0,0,0,84.85,52.62L23.46,114.8a12,12,0,0,0,0,16.92l28.67,28.66a11.89,11.89,0,0,0,8.48,3.51h.07a12,12,0,0,0,8.52-3.61l60.89-62.42a20.1,20.1,0,0,1,28-.27,19.54,19.54,0,0,1,6,14,20.87,20.87,0,0,1-6,14.86L95.76,186.75a12,12,0,0,0-.12,17.09L124.3,232.5a12,12,0,0,0,16.89.08L203,172.12C235.88,139.21,236.4,85.8,204.13,53.06ZM63.51,154.69a3.93,3.93,0,0,1-2.83,1.2h0a4,4,0,0,1-2.83-1.17L29.16,126.06a4,4,0,0,1,0-5.64l26.63-27L89.94,127.6Zm72.08,72.18a4,4,0,0,1-5.63,0l-28.67-28.66a4,4,0,0,1,0-5.69l27.2-26.3,34.16,34.15Zm61.76-60.44-28.94,28.32-34.12-34.12,29.41-28.44a29,29,0,0,0,8.4-20.64,27.51,27.51,0,0,0-8.41-19.72,28.14,28.14,0,0,0-39.25.41L95.53,121.87,61.4,87.75,90.52,58.26A75.51,75.51,0,0,1,144.27,36h.29a75.53,75.53,0,0,1,53.87,22.67C227.63,88.3,227.13,136.65,197.35,166.43Z"/></svg>