<svg xmlns="http://www.w3.org/2000/svg" viewBox="0 0 256 256" fill="currentColor"><path d="M128,68a36,36,0,1,0,36,36A36,36,0,0,0,128,68Zm0,64a28,28,0,1,1,28-28A28,28,0,0,1,128,132Zm0-112a84.09,84.09,0,0,0-84,84c0,30.42,14.17,62.79,41,93.62a250,250,0,0,0,40.73,37.66,4,4,0,0,0,4.58,0A250,250,0,0,0,171,197.62c26.81-30.83,41-63.2,41-93.62A84.09,84.09,0,0,0,128,20Zm37.1,172.23A254.62,254.62,0,0,1,128,227a254.62,254.62,0,0,1-37.1-34.81C73.15,171.8,52,139.9,52,104a76,76,0,0,1,152,0C204,139.9,182.85,171.8,165.1,192.23Z"/></svg>