<svg xmlns="http://www.w3.org/2000/svg" viewBox="0 0 256 256" fill="currentColor"><path d="M208,104c0,72-80,128-80,128S48,176,48,104a80,80,0,0,1,160,0Z" opacity="0.2"/><path d="M128,16a88.1,88.1,0,0,0-88,88c0,31.4,14.51,64.68,42,96.25a254.19,254.19,0,0,0,41.45,38.3,8,8,0,0,0,9.18,0A254.19,254.19,0,0,0,174,200.25c27.45-31.57,42-64.85,42-96.25A88.1,88.1,0,0,0,128,16Zm0,206c-16.53-13-72-60.75-72-118a72,72,0,0,1,144,0C200,161.23,144.53,209,128,222Zm40-118a8,8,0,0,1-8,8H136v24a8,8,0,0,1-16,0V112H96a8,8,0,0,1,0-16h24V72a8,8,0,0,1,16,0V96h24A8,8,0,0,1,168,104Z"/></svg>