<svg xmlns="http://www.w3.org/2000/svg" viewBox="0 0 256 256" fill="currentColor"><path d="M128,24a80,80,0,0,0-80,80c0,72,80,128,80,128s80-56,80-128A80,80,0,0,0,128,24Zm0,112a32,32,0,1,1,32-32A32,32,0,0,1,128,136Z" opacity="0.2"/><path d="M200,224H150.54A266.56,266.56,0,0,0,174,200.25c27.45-31.57,42-64.85,42-96.25a88,88,0,0,0-176,0c0,31.4,14.51,64.68,42,96.25A266.56,266.56,0,0,0,105.46,224H56a8,8,0,0,0,0,16H200a8,8,0,0,0,0-16ZM56,104a72,72,0,0,1,144,0c0,57.23-55.47,105-72,118C111.47,209,56,161.23,56,104Zm112,0a40,40,0,1,0-40,40A40,40,0,0,0,168,104Zm-64,0a24,24,0,1,1,24,24A24,24,0,0,1,104,104Z"/></svg>