<svg xmlns="http://www.w3.org/2000/svg" viewBox="0 0 256 256" fill="currentColor"><path d="M108,80a20,20,0,1,1,20,20A20,20,0,0,1,108,80ZM60,80a68,68,0,0,1,136,0c0,62.25-59.51,97-62.05,98.42a12,12,0,0,1-11.9,0C119.51,177,60,142.25,60,80Zm24,0c0,38.2,30.71,64.2,44,73.64C141.21,144.15,172,118,172,80a44,44,0,0,0-88,0Zm124.57,65.6a12,12,0,1,0-9.14,22.19C213.56,173.61,220,180.27,220,184c0,4-7.13,11.07-22.77,17.08-18.3,7-42.89,10.92-69.23,10.92s-50.93-3.88-69.23-10.92C43.12,195.07,36,188,36,184c0-3.73,6.44-10.39,20.57-16.21a12,12,0,1,0-9.14-22.19C31.27,152.25,12,164.31,12,184c0,34.14,58.36,52,116,52,29.22,0,56.86-4.44,77.85-12.52C220.1,218,244,205.59,244,184,244,164.31,224.73,152.25,208.57,145.6Z"/></svg>