<svg xmlns="http://www.w3.org/2000/svg" viewBox="0 0 256 256" fill="currentColor"><path d="M176,211.16Zm-96,0ZM224,128A96,96,0,1,0,80,211.16V176a8,8,0,0,1,8-8h8V144a8,8,0,0,1,8-8h4.16l12-57.63c1.77-8.49,13.89-8.49,15.66,0l12,57.63H152a8,8,0,0,1,8,8v24h8a8,8,0,0,1,8,8v35.16A96,96,0,0,0,224,128Z" opacity="0.2"/><path d="M201.54,54.46A104,104,0,0,0,54.46,201.54,104,104,0,0,0,201.54,54.46ZM88,206.37V176h80v30.37A88.38,88.38,0,0,1,88,206.37ZM104,144h48v16H104Zm14-16,10-48h0l10,48Zm72.22,62.23c-2,2-4.08,3.87-6.22,5.64V176a16,16,0,0,0-16-16V144a16,16,0,0,0-13.61-15.8L143.66,76.74a16,16,0,0,0-31.32,0L101.61,128.2A16,16,0,0,0,88,144v16a16,16,0,0,0-16,16v19.87c-2.14-1.77-4.22-3.64-6.22-5.64a88,88,0,1,1,124.44,0Z"/></svg>