<svg xmlns="http://www.w3.org/2000/svg" viewBox="0 0 256 256" fill="currentColor"><path d="M168,192a40,40,0,1,1-40-40A40,40,0,0,1,168,192ZM207,48H168v85.82l42.72-19.42a9,9,0,0,0,5.28-8.2V57A9,9,0,0,0,207,48ZM88,48H49a9,9,0,0,0-9,9v49.2a9,9,0,0,0,5.28,8.2L88,133.82Z" opacity="0.2"/><path d="M207,40H49A17,17,0,0,0,32,57v49.21a17,17,0,0,0,10,15.47l62.6,28.45a48,48,0,1,0,46.88,0L214,121.68a17,17,0,0,0,10-15.47V57A17,17,0,0,0,207,40ZM160,56v72.67l-32,14.54L96,128.67V56ZM48,106.21V57a1,1,0,0,1,1-1H80v65.39L48.59,107.12A1,1,0,0,1,48,106.21ZM128,224a32,32,0,1,1,32-32A32,32,0,0,1,128,224Zm80-117.79a1,1,0,0,1-.59.91L176,121.39V56h31a1,1,0,0,1,1,1Z"/></svg>