<svg xmlns="http://www.w3.org/2000/svg" viewBox="0 0 256 256" fill="currentColor"><path d="M227.41,90.5l-176-54A12,12,0,0,0,36,48V192a12,12,0,0,0,12,12,12.41,12.41,0,0,0,3.45-.5L140,176.32V192a12,12,0,0,0,12,12h32a12,12,0,0,0,12-12V159.14l31.39-9.63A12.06,12.06,0,0,0,236,138V102A12,12,0,0,0,227.41,90.5ZM49.12,195.84A4,4,0,0,1,44,192V48a4,4,0,0,1,1.6-3.2A4,4,0,0,1,48,44a3.89,3.89,0,0,1,1.07.15L140,72.05V168ZM188,192a4,4,0,0,1-4,4H152a4,4,0,0,1-4-4V173.87l40-12.27Zm40-54a4,4,0,0,1-2.88,3.84l-.05,0L148,165.5v-91l77.12,23.66A4,4,0,0,1,228,102Z"/></svg>