<svg xmlns="http://www.w3.org/2000/svg" viewBox="0 0 256 256" fill="currentColor"><path d="M232,56H24A16,16,0,0,0,8,72V200a8,8,0,0,0,16,0V184H40v16a8,8,0,0,0,16,0V184H72v16a8,8,0,0,0,16,0V184h16v16a8,8,0,0,0,16,0V184h16v16a8,8,0,0,0,16,0V184h16v16a8,8,0,0,0,16,0V184h16v16a8,8,0,0,0,16,0V184h16v16a8,8,0,0,0,16,0V72A16,16,0,0,0,232,56ZM24,72H232v96H24Zm88,80a8,8,0,0,0,8-8V96a8,8,0,0,0-8-8H48a8,8,0,0,0-8,8v48a8,8,0,0,0,8,8ZM56,104h48v32H56Zm88,48h64a8,8,0,0,0,8-8V96a8,8,0,0,0-8-8H144a8,8,0,0,0-8,8v48A8,8,0,0,0,144,152Zm8-48h48v32H152Z"/></svg>