<svg xmlns="http://www.w3.org/2000/svg" viewBox="0 0 256 256" fill="currentColor"><path d="M232,58H24A14,14,0,0,0,10,72V200a6,6,0,0,0,12,0V182H42v18a6,6,0,0,0,12,0V182H74v18a6,6,0,0,0,12,0V182h20v18a6,6,0,0,0,12,0V182h20v18a6,6,0,0,0,12,0V182h20v18a6,6,0,0,0,12,0V182h20v18a6,6,0,0,0,12,0V182h20v18a6,6,0,0,0,12,0V72A14,14,0,0,0,232,58ZM22,72a2,2,0,0,1,2-2H232a2,2,0,0,1,2,2v98H22Zm90,78a6,6,0,0,0,6-6V96a6,6,0,0,0-6-6H48a6,6,0,0,0-6,6v48a6,6,0,0,0,6,6ZM54,102h52v36H54Zm90,48h64a6,6,0,0,0,6-6V96a6,6,0,0,0-6-6H144a6,6,0,0,0-6,6v48A6,6,0,0,0,144,150Zm6-48h52v36H150Z"/></svg>