<svg xmlns="http://www.w3.org/2000/svg" viewBox="0 0 256 256" fill="currentColor"><path d="M224,128A96,96,0,0,1,79.93,211.11h0L42.54,223.58a8,8,0,0,1-10.12-10.12l12.47-37.39h0A96,96,0,1,1,224,128Z" opacity="0.2"/><path d="M181.66,106.34a8,8,0,0,1,0,11.32l-32,32a8,8,0,0,1-11.32,0L112,123.31,85.66,149.66a8,8,0,0,1-11.32-11.32l32-32a8,8,0,0,1,11.32,0L144,132.69l26.34-26.35A8,8,0,0,1,181.66,106.34ZM232,128A104,104,0,0,1,79.12,219.82L45.07,231.17a16,16,0,0,1-20.24-20.24l11.35-34.05A104,104,0,1,1,232,128Zm-16,0A88,88,0,1,0,51.81,172.06a8,8,0,0,1,.66,6.54L40,216,77.4,203.52a8,8,0,0,1,6.54.67A88,88,0,0,0,216,128Z"/></svg>