<svg xmlns="http://www.w3.org/2000/svg" viewBox="0 0 256 256" fill="currentColor"><path d="M180.24,107.76a6,6,0,0,1,0,8.48l-32,32a6,6,0,0,1-8.48,0L112,120.49,84.24,148.24a6,6,0,0,1-8.48-8.48l32-32a6,6,0,0,1,8.48,0L144,135.51l27.76-27.75A6,6,0,0,1,180.24,107.76ZM230,128A102,102,0,0,1,79.31,217.65L44.44,229.27a14,14,0,0,1-17.71-17.71l11.62-34.87A102,102,0,1,1,230,128Zm-12,0A90,90,0,1,0,50.08,173.06a6,6,0,0,1,.5,4.91L38.12,215.35a2,2,0,0,0,2.53,2.53L78,205.42a6.2,6.2,0,0,1,1.9-.31,6.09,6.09,0,0,1,3,.81A90,90,0,0,0,218,128Z"/></svg>