<svg xmlns="http://www.w3.org/2000/svg" viewBox="0 0 256 256" fill="currentColor"><path d="M178.83,109.17a4,4,0,0,1,0,5.66l-32,32a4,4,0,0,1-5.66,0L112,117.66,82.83,146.83a4,4,0,0,1-5.66-5.66l32-32a4,4,0,0,1,5.66,0L144,138.34l29.17-29.17A4,4,0,0,1,178.83,109.17ZM228,128A100,100,0,0,1,79.5,215.47l-35.69,11.9a12,12,0,0,1-15.18-15.18l11.9-35.69A100,100,0,1,1,228,128Zm-8,0A92,92,0,1,0,48.35,174.07a4,4,0,0,1,.33,3.27L36.22,214.72a4,4,0,0,0,5.06,5.06l37.38-12.46a3.93,3.93,0,0,1,1.27-.21,4.05,4.05,0,0,1,2,.54A92,92,0,0,0,220,128Z"/></svg>