<svg xmlns="http://www.w3.org/2000/svg" viewBox="0 0 256 256" fill="currentColor"><path d="M212.44,220,52.44,44A6,6,0,0,0,43.56,52L82,94.32V128a46,46,0,0,0,67.56,40.64l13.75,15.12A65.26,65.26,0,0,1,128,194a66.08,66.08,0,0,1-66-66,6,6,0,0,0-12,0,78.09,78.09,0,0,0,72,77.75V240a6,6,0,0,0,12,0V205.77a76.93,76.93,0,0,0,37.48-13L203.56,228a6,6,0,0,0,8.88-8.08ZM128,162a34,34,0,0,1-34-34V107.52l47.12,51.84A33.82,33.82,0,0,1,128,162Zm59.32-5A65.38,65.38,0,0,0,194,128a6,6,0,0,1,12,0,77.33,77.33,0,0,1-7.9,34.25A6,6,0,1,1,187.32,157ZM85.8,45.67A46,46,0,0,1,174,64v64a45.17,45.17,0,0,1-.25,4.81,6,6,0,0,1-6,5.38q-.31,0-.63,0a6,6,0,0,1-5.34-6.59A35.41,35.41,0,0,0,162,128V64A34,34,0,0,0,96.8,50.45a6,6,0,0,1-11-4.78Z"/></svg>