<svg xmlns="http://www.w3.org/2000/svg" viewBox="0 0 256 256" fill="currentColor"><path d="M168,16A72.07,72.07,0,0,0,96,88a73.29,73.29,0,0,0,.63,9.42L27.12,192.22A15.93,15.93,0,0,0,28.71,213L43,227.29a15.93,15.93,0,0,0,20.78,1.59l94.81-69.53A73.29,73.29,0,0,0,168,160a72,72,0,1,0,0-144Zm56,72a55.72,55.72,0,0,1-11.16,33.52L134.49,43.16A56,56,0,0,1,224,88ZM54.32,216,40,201.68,102.14,117A72.37,72.37,0,0,0,139,153.86ZM112,88a55.67,55.67,0,0,1,11.16-33.51l78.34,78.34A56,56,0,0,1,112,88Zm-2.35,58.34a8,8,0,0,1,0,11.31l-8,8a8,8,0,1,1-11.31-11.31l8-8A8,8,0,0,1,109.67,146.33Z"/></svg>