<svg xmlns="http://www.w3.org/2000/svg" viewBox="0 0 256 256" fill="currentColor"><path d="M211,221.31,51,45.31A4,4,0,0,0,45,50.69L84,93.55V128a44,44,0,0,0,66,38.12l16.38,18A67.21,67.21,0,0,1,128,196a68.07,68.07,0,0,1-68-68,4,4,0,0,0-8,0,76.09,76.09,0,0,0,72,75.89V240a4,4,0,0,0,8,0V203.89a75.1,75.1,0,0,0,39.79-13.77L205,226.69a4,4,0,1,0,5.92-5.38ZM128,164a36,36,0,0,1-36-36V102.35L144.43,160A35.83,35.83,0,0,1,128,164Zm61.12-6.15A67.44,67.44,0,0,0,196,128a4,4,0,0,1,8,0,75.28,75.28,0,0,1-7.7,33.37,4,4,0,0,1-7.18-3.52ZM87.63,46.46A44,44,0,0,1,172,64v64a44.2,44.2,0,0,1-.24,4.61,4,4,0,0,1-4,3.58l-.42,0a4,4,0,0,1-3.57-4.39A36.67,36.67,0,0,0,164,128V64A36,36,0,0,0,95,49.66a4,4,0,0,1-7.34-3.2Z"/></svg>