<svg xmlns="http://www.w3.org/2000/svg" viewBox="0 0 256 256" fill="currentColor"><path d="M152,80v96a8,8,0,0,1-8,8H40a8,8,0,0,1-8-8V80a8,8,0,0,1,8-8H144A8,8,0,0,1,152,80Z" opacity="0.2"/><path d="M200,24H72A16,16,0,0,0,56,40V64H40A16,16,0,0,0,24,80v96a16,16,0,0,0,16,16H56v24a16,16,0,0,0,16,16H200a16,16,0,0,0,16-16V40A16,16,0,0,0,200,24Zm-40,80h40v48H160Zm40-16H160V80a16,16,0,0,0-16-16V40h56ZM72,40h56V64H72ZM40,80H144v79.83c0,.06,0,.11,0,.17s0,.11,0,.17V176H40ZM72,192h56v24H72Zm72,24V192a16,16,0,0,0,16-16v-8h40v48ZM65.85,146.88,81.59,128,65.85,109.12a8,8,0,0,1,12.3-10.24L92,115.5l13.85-16.62a8,8,0,1,1,12.3,10.24L102.41,128l15.74,18.88a8,8,0,0,1-12.3,10.24L92,140.5,78.15,157.12a8,8,0,0,1-12.3-10.24Z"/></svg>