<svg xmlns="http://www.w3.org/2000/svg" viewBox="0 0 256 256" fill="currentColor"><path d="M128,88a40,40,0,1,0,40,40A40,40,0,0,0,128,88Zm0,64a24,24,0,1,1,24-24A24,24,0,0,1,128,152ZM240,56H16a8,8,0,0,0-8,8V192a8,8,0,0,0,8,8H240a8,8,0,0,0,8-8V64A8,8,0,0,0,240,56ZM193.65,184H62.35A56.78,56.78,0,0,0,24,145.65v-35.3A56.78,56.78,0,0,0,62.35,72h131.3A56.78,56.78,0,0,0,232,110.35v35.3A56.78,56.78,0,0,0,193.65,184ZM232,93.37A40.81,40.81,0,0,1,210.63,72H232ZM45.37,72A40.81,40.81,0,0,1,24,93.37V72ZM24,162.63A40.81,40.81,0,0,1,45.37,184H24ZM210.63,184A40.81,40.81,0,0,1,232,162.63V184Z"/></svg>