<svg xmlns="http://www.w3.org/2000/svg" viewBox="0 0 256 256" fill="currentColor"><path d="M240,52H16A12,12,0,0,0,4,64V192a12,12,0,0,0,12,12H240a12,12,0,0,0,12-12V64A12,12,0,0,0,240,52ZM181.21,180H74.79A60.18,60.18,0,0,0,28,133.21V122.79A60.18,60.18,0,0,0,74.79,76H181.21A60.18,60.18,0,0,0,228,122.79v10.42A60.18,60.18,0,0,0,181.21,180ZM228,97.94A36.23,36.23,0,0,1,206.06,76H228ZM49.94,76A36.23,36.23,0,0,1,28,97.94V76ZM28,158.06A36.23,36.23,0,0,1,49.94,180H28ZM206.06,180A36.23,36.23,0,0,1,228,158.06V180ZM128,88a40,40,0,1,0,40,40A40,40,0,0,0,128,88Zm0,56a16,16,0,1,1,16-16A16,16,0,0,1,128,144Z"/></svg>