<svg xmlns="http://www.w3.org/2000/svg" viewBox="0 0 256 256" fill="currentColor"><path d="M128,166a38,38,0,1,0-38-38A38,38,0,0,0,128,166Zm0-64a26,26,0,1,1-26,26A26,26,0,0,1,128,102ZM240,58H16a6,6,0,0,0-6,6V192a6,6,0,0,0,6,6H240a6,6,0,0,0,6-6V64A6,6,0,0,0,240,58ZM22,108.82A54.73,54.73,0,0,0,60.82,70H195.18A54.73,54.73,0,0,0,234,108.82v38.36A54.73,54.73,0,0,0,195.18,186H60.82A54.73,54.73,0,0,0,22,147.18ZM234,96.29A42.8,42.8,0,0,1,207.71,70H234ZM48.29,70A42.8,42.8,0,0,1,22,96.29V70ZM22,159.71A42.8,42.8,0,0,1,48.29,186H22ZM207.71,186A42.8,42.8,0,0,1,234,159.71V186Z"/></svg>