<svg xmlns="http://www.w3.org/2000/svg" viewBox="0 0 256 256" fill="currentColor"><path d="M244,96a12,12,0,0,1-12,12H220v12a12,12,0,0,1-24,0V108H184a12,12,0,0,1,0-24h12V72a12,12,0,0,1,24,0V84h12A12,12,0,0,1,244,96ZM144,60h4v4a12,12,0,0,0,24,0V60h4a12,12,0,0,0,0-24h-4V32a12,12,0,0,0-24,0v4h-4a12,12,0,0,0,0,24Zm75.81,90.38A12,12,0,0,1,222,162.3,100,100,0,1,1,93.7,34a12,12,0,0,1,15.89,13.6A85.12,85.12,0,0,0,108,64a84.09,84.09,0,0,0,84,84,85.22,85.22,0,0,0,16.37-1.59A12,12,0,0,1,219.81,150.38ZM190,172A108.13,108.13,0,0,1,84,66,76,76,0,1,0,190,172Z"/></svg>