<svg xmlns="http://www.w3.org/2000/svg" viewBox="0 0 256 256" fill="currentColor"><path d="M216,132a35.7,35.7,0,0,0-8.82,1.1L171.75,38.6A4,4,0,0,0,168,36H136a4,4,0,0,0,0,8h29.23l34.47,91.92A36.06,36.06,0,0,0,180.23,164H133.77l-26-69.4A4,4,0,0,0,104,92H24a4,4,0,0,0,0,8H36v20A52.1,52.1,0,0,0,4,168a4,4,0,0,0,4,4H20.23a36,36,0,0,0,71.54,0h88.46A36,36,0,1,0,216,132ZM41.33,126.5A4,4,0,0,0,44,122.73V100h57.23l24,64h-113A44.1,44.1,0,0,1,41.33,126.5ZM56,196a28,28,0,0,1-27.71-24H83.71A28,28,0,0,1,56,196Zm160,0a28,28,0,0,1-13.47-52.54l9.72,25.94a4,4,0,1,0,7.5-2.8L210,140.65A28,28,0,1,1,216,196Z"/></svg>