<svg xmlns="http://www.w3.org/2000/svg" viewBox="0 0 256 256" fill="currentColor"><path d="M208,42H165.52a38,38,0,0,0-75,0H48a6,6,0,0,0,0,12H90.48a38,38,0,0,0,14.71,24.37A62.09,62.09,0,0,0,66,136v64a14,14,0,0,0,14,14H98v2a30,30,0,0,0,60,0v-2h18a14,14,0,0,0,14-14V136a62.09,62.09,0,0,0-39.19-57.63A38,38,0,0,0,165.52,54H208a6,6,0,0,0,0-12ZM146,216a18,18,0,0,1-36,0V168a18,18,0,0,1,36,0Zm32-80v64a2,2,0,0,1-2,2H158V168a30,30,0,0,0-60,0v34H80a2,2,0,0,1-2-2V136a50,50,0,0,1,100,0ZM128,74a26,26,0,1,1,26-26A26,26,0,0,1,128,74Z"/></svg>