<svg xmlns="http://www.w3.org/2000/svg" viewBox="0 0 256 256" fill="currentColor"><path d="M208,128H48c0-64,80-72,80-104C128,56,208,64,208,128Z" opacity="0.2"/><path d="M224,128a23.84,23.84,0,0,0-8,1.38V128c0-41.78-31.07-62.46-53.76-77.56C148.16,41.06,136,33,136,24a8,8,0,0,0-16,0c0,9-12.16,17.06-26.24,26.44C71.07,65.54,40,86.22,40,128v1.38A24,24,0,0,0,8,152v56a8,8,0,0,0,8,8H80a8,8,0,0,0,8-8V176a8,8,0,0,1,16,0v32a8,8,0,0,0,8,8h32a8,8,0,0,0,8-8V176a8,8,0,0,1,16,0v32a8,8,0,0,0,8,8h64a8,8,0,0,0,8-8V152A24,24,0,0,0,224,128ZM40,200H24V152a8,8,0,0,1,16,0ZM102.63,63.76c9.67-6.44,19-12.68,25.37-20,6.34,7.35,15.7,13.59,25.37,20,20,13.32,42.48,28.29,46.11,56.24h-143C60.15,92.05,82.6,77.08,102.63,63.76ZM200,200H184V176a24,24,0,0,0-48,0v24H120V176a24,24,0,0,0-48,0v24H56V136H200Zm32,0H216V152a8,8,0,0,1,16,0Z"/></svg>