<svg xmlns="http://www.w3.org/2000/svg" viewBox="0 0 256 256" fill="currentColor"><path d="M144,20H112A60.07,60.07,0,0,0,52,80v96a60.07,60.07,0,0,0,60,60h32a60.07,60.07,0,0,0,60-60V80A60.07,60.07,0,0,0,144,20Zm52,60v28H153.66l40.75-40.75A51.55,51.55,0,0,1,196,80Zm-4.51-21.15L142.34,108H132V81.66l43.22-43.22A52.5,52.5,0,0,1,191.49,58.85ZM168.3,34.05,132,70.34V28h12A51.61,51.61,0,0,1,168.3,34.05ZM112,28h12v80H60V80A52.06,52.06,0,0,1,112,28Zm32,200H112a52.06,52.06,0,0,1-52-52V116H196v60A52.06,52.06,0,0,1,144,228Z"/></svg>