<svg xmlns="http://www.w3.org/2000/svg" viewBox="0 0 256 256" fill="currentColor"><path d="M144,18H112A62.07,62.07,0,0,0,50,80v96a62.07,62.07,0,0,0,62,62h32a62.07,62.07,0,0,0,62-62V80A62.07,62.07,0,0,0,144,18Zm50,158a50.06,50.06,0,0,1-50,50H112a50.06,50.06,0,0,1-50-50V80a50.06,50.06,0,0,1,50-50h32a50.06,50.06,0,0,1,50,50ZM134,78.49v99l13.76-13.75a6,6,0,0,1,8.48,8.48l-24,24a6,6,0,0,1-8.48,0l-24-24a6,6,0,0,1,8.48-8.48L122,177.51v-99L108.24,92.24a6,6,0,0,1-8.48-8.48l24-24a6,6,0,0,1,8.48,0l24,24a6,6,0,1,1-8.48,8.48Z"/></svg>