<svg xmlns="http://www.w3.org/2000/svg" viewBox="0 0 256 256" fill="currentColor"><path d="M144,18H112A62.07,62.07,0,0,0,50,80v96a62.07,62.07,0,0,0,62,62h32a62.07,62.07,0,0,0,62-62V80A62.07,62.07,0,0,0,144,18Zm50,62v26H150V88a14,14,0,0,0-14-14h-2V30h10A50.06,50.06,0,0,1,194,80Zm-76,8a2,2,0,0,1,2-2h16a2,2,0,0,1,2,2v48a2,2,0,0,1-2,2H120a2,2,0,0,1-2-2Zm-6-58h10V74h-2a14,14,0,0,0-14,14v18H62V80A50.06,50.06,0,0,1,112,30Zm32,196H112a50.06,50.06,0,0,1-50-50V118h44v18a14,14,0,0,0,14,14h16a14,14,0,0,0,14-14V118h44v58A50.06,50.06,0,0,1,144,226Z"/></svg>