<svg xmlns="http://www.w3.org/2000/svg" viewBox="0 0 256 256" fill="currentColor"><path d="M144,12H112A68.07,68.07,0,0,0,44,80v96a68.07,68.07,0,0,0,68,68h32a68.07,68.07,0,0,0,68-68V80A68.07,68.07,0,0,0,144,12Zm44,164a44.05,44.05,0,0,1-44,44H112a44.05,44.05,0,0,1-44-44V80a44.05,44.05,0,0,1,44-44h32a44.05,44.05,0,0,1,44,44ZM140,93V163l3.51-3.52a12,12,0,0,1,17,17l-24,24a12,12,0,0,1-17,0l-24-24a12,12,0,0,1,17-17L116,163V93l-3.51,3.52a12,12,0,0,1-17-17l24-24a12,12,0,0,1,17,0l24,24a12,12,0,0,1-17,17Z"/></svg>