<svg xmlns="http://www.w3.org/2000/svg" viewBox="0 0 256 256" fill="currentColor"><path d="M144,20H112A60.07,60.07,0,0,0,52,80v96a60.07,60.07,0,0,0,60,60h32a60.07,60.07,0,0,0,60-60V80A60.07,60.07,0,0,0,144,20Zm52,60v28H148V88a12,12,0,0,0-12-12h-4V28h12A52.06,52.06,0,0,1,196,80Zm-80,8a4,4,0,0,1,4-4h16a4,4,0,0,1,4,4v48a4,4,0,0,1-4,4H120a4,4,0,0,1-4-4Zm-4-60h12V76h-4a12,12,0,0,0-12,12v20H60V80A52.06,52.06,0,0,1,112,28Zm32,200H112a52.06,52.06,0,0,1-52-52V116h48v20a12,12,0,0,0,12,12h16a12,12,0,0,0,12-12V116h48v60A52.06,52.06,0,0,1,144,228Z"/></svg>