<svg xmlns="http://www.w3.org/2000/svg" viewBox="0 0 256 256" fill="currentColor"><path d="M100,54V40a12,12,0,0,1,12-12h32a12,12,0,0,1,12,12V72a12,12,0,0,1-12,12H127.61a4,4,0,0,1,0-8H144a4,4,0,0,0,4-4V40a4,4,0,0,0-4-4H112a4,4,0,0,0-4,4V54a4,4,0,0,1-8,0ZM211,213.31a4,4,0,1,1-5.92,5.38L119,124H68v40H80a12,12,0,0,1,12,12v32a12,12,0,0,1-12,12H48a12,12,0,0,1-12-12V176a12,12,0,0,1,12-12H60V124H24a4,4,0,0,1,0-8h87.68L45,42.69A4,4,0,0,1,51,37.31ZM80,172H48a4,4,0,0,0-4,4v32a4,4,0,0,0,4,4H80a4,4,0,0,0,4-4V176A4,4,0,0,0,80,172Zm152-56H164a4,4,0,0,0,0,8h24v26.83a4,4,0,1,0,8,0V124h36a4,4,0,0,0,0-8Z"/></svg>