<svg xmlns="http://www.w3.org/2000/svg" viewBox="0 0 256 256" fill="currentColor"><path d="M232,112H136V88h8a16,16,0,0,0,16-16V40a16,16,0,0,0-16-16H112A16,16,0,0,0,96,40V72a16,16,0,0,0,16,16h8v24H24a8,8,0,0,0,0,16H56v32H48a16,16,0,0,0-16,16v32a16,16,0,0,0,16,16H80a16,16,0,0,0,16-16V176a16,16,0,0,0-16-16H72V128H184v16a8,8,0,0,0,16,0V128h32a8,8,0,0,0,0-16ZM112,40h32V72H112ZM80,208H48V176H80Zm141.65-34.34L203.31,192l18.35,18.34a8,8,0,0,1-11.32,11.32L192,203.31l-18.34,18.35a8,8,0,0,1-11.32-11.32L180.69,192l-18.35-18.34a8,8,0,0,1,11.32-11.32L192,180.69l18.34-18.35a8,8,0,0,1,11.32,11.32Z"/></svg>