<svg xmlns="http://www.w3.org/2000/svg" viewBox="0 0 256 256" fill="currentColor"><path d="M232,116H132V84h12a12,12,0,0,0,12-12V40a12,12,0,0,0-12-12H112a12,12,0,0,0-12,12V72a12,12,0,0,0,12,12h12v32H24a4,4,0,0,0,0,8H60v40H48a12,12,0,0,0-12,12v32a12,12,0,0,0,12,12H80a12,12,0,0,0,12-12V176a12,12,0,0,0-12-12H68V124H188v40H176a12,12,0,0,0-12,12v32a12,12,0,0,0,12,12h32a12,12,0,0,0,12-12V176a12,12,0,0,0-12-12H196V124h36a4,4,0,0,0,0-8ZM108,72V40a4,4,0,0,1,4-4h32a4,4,0,0,1,4,4V72a4,4,0,0,1-4,4H112A4,4,0,0,1,108,72ZM84,176v32a4,4,0,0,1-4,4H48a4,4,0,0,1-4-4V176a4,4,0,0,1,4-4H80A4,4,0,0,1,84,176Zm128,0v32a4,4,0,0,1-4,4H176a4,4,0,0,1-4-4V176a4,4,0,0,1,4-4h32A4,4,0,0,1,212,176Z"/></svg>