<svg xmlns="http://www.w3.org/2000/svg" viewBox="0 0 256 256" fill="currentColor"><path d="M96,54V40a16,16,0,0,1,16-16h32a16,16,0,0,1,16,16V72a16,16,0,0,1-16,16H127.61a8,8,0,0,1,0-16H144V40H112V54a8,8,0,0,1-16,0ZM213.92,210.62a8,8,0,1,1-11.84,10.76L117.19,128H72v32h8a16,16,0,0,1,16,16v32a16,16,0,0,1-16,16H48a16,16,0,0,1-16-16V176a16,16,0,0,1,16-16h8V128H24a8,8,0,0,1,0-16h78.64L42.08,45.38A8,8,0,1,1,53.92,34.62ZM80,176H48v32H80Zm152-64H164a8,8,0,0,0,0,16h20v22.83a8,8,0,1,0,16,0V128h32a8,8,0,0,0,0-16Z"/></svg>