<svg xmlns="http://www.w3.org/2000/svg" viewBox="0 0 256 256" fill="currentColor"><path d="M172,124a12,12,0,0,1-12,12H96a12,12,0,0,1,0-24h64A12,12,0,0,1,172,124Zm-12,28H96a12,12,0,0,0,0,24h64a12,12,0,0,0,0-24ZM220,40V200a36,36,0,0,1-36,36H72a36,36,0,0,1-36-36V40A12,12,0,0,1,48,28H72V24a12,12,0,0,1,24,0v4h20V24a12,12,0,0,1,24,0v4h20V24a12,12,0,0,1,24,0v4h24A12,12,0,0,1,220,40ZM196,52H184v4a12,12,0,0,1-24,0V52H140v4a12,12,0,0,1-24,0V52H96v4a12,12,0,0,1-24,0V52H60V200a12,12,0,0,0,12,12H184a12,12,0,0,0,12-12Z"/></svg>