<svg xmlns="http://www.w3.org/2000/svg" viewBox="0 0 256 256" fill="currentColor"><path d="M128,26A102,102,0,1,0,230,128,102.12,102.12,0,0,0,128,26Zm0,192a90,90,0,1,1,90-90A90.1,90.1,0,0,1,128,218Zm0-144c-13.52,0-24.69,6.12-32.29,17.71C89.45,101.24,86,114.13,86,128s3.45,26.76,9.7,36.29C103.31,175.88,114.47,182,128,182s24.69-6.12,32.29-17.71c6.26-9.53,9.71-22.42,9.71-36.29s-3.45-26.76-9.7-36.29C152.69,80.12,141.52,74,128,74Zm0,96c-20.72,0-30-21.09-30-42s9.28-42,30-42,30,21.09,30,42S148.72,170,128,170Z"/></svg>