<svg xmlns="http://www.w3.org/2000/svg" viewBox="0 0 256 256" fill="currentColor"><path d="M224,128a96,96,0,1,1-96-96A96,96,0,0,1,224,128Z" opacity="0.2"/><path d="M128,24A104,104,0,1,0,232,128,104.11,104.11,0,0,0,128,24Zm0,192a88,88,0,1,1,88-88A88.1,88.1,0,0,1,128,216Zm0-144c-14.23,0-26,6.44-34,18.61-6.47,9.86-10,23.14-10,37.39s3.56,27.53,10,37.39c8,12.18,19.74,18.61,34,18.61s26-6.43,34-18.61c6.47-9.86,10-23.14,10-37.39s-3.56-27.53-10-37.39C154,78.44,142.23,72,128,72Zm0,96c-22.1,0-28-25.14-28-40s5.9-40,28-40,28,25.14,28,40S150.1,168,128,168Z"/></svg>