<svg xmlns="http://www.w3.org/2000/svg" viewBox="0 0 256 256" fill="currentColor"><path d="M76,48A12,12,0,1,1,64,36,12,12,0,0,1,76,48Zm52-12a12,12,0,1,0,12,12A12,12,0,0,0,128,36Zm64,24a12,12,0,1,0-12-12A12,12,0,0,0,192,60ZM64,92a12,12,0,1,0,12,12A12,12,0,0,0,64,92Zm64,0a12,12,0,1,0,12,12A12,12,0,0,0,128,92Zm64,0a12,12,0,1,0,12,12A12,12,0,0,0,192,92ZM64,148a12,12,0,1,0,12,12A12,12,0,0,0,64,148Zm64,0a12,12,0,1,0,12,12A12,12,0,0,0,128,148Zm0,56a12,12,0,1,0,12,12A12,12,0,0,0,128,204Zm64-56a12,12,0,1,0,12,12A12,12,0,0,0,192,148Z"/></svg>