<svg xmlns="http://www.w3.org/2000/svg" viewBox="0 0 256 256" fill="currentColor"><path d="M219.84,73.16,131.84,25a8,8,0,0,0-7.68,0l-88,48.18a8,8,0,0,0-4.16,7v95.64a8,8,0,0,0,4.16,7l88,48.18a8,8,0,0,0,7.68,0l88-48.18a8,8,0,0,0,4.16-7V80.18A8,8,0,0,0,219.84,73.16ZM128,168a40,40,0,1,1,40-40A40,40,0,0,1,128,168Z" opacity="0.2"/><path d="M128,80a48,48,0,1,0,48,48A48.06,48.06,0,0,0,128,80Zm0,80a32,32,0,1,1,32-32A32,32,0,0,1,128,160Zm95.68-93.85L135.68,18a15.88,15.88,0,0,0-15.36,0l-88,48.17a16,16,0,0,0-8.32,14v95.64a16,16,0,0,0,8.32,14l88,48.17a15.88,15.88,0,0,0,15.36,0l88-48.17h0a16,16,0,0,0,8.32-14V80.18A16,16,0,0,0,223.68,66.15ZM128,224,40,175.82V80.18L128,32l88,48.17v95.63Z"/></svg>