<svg xmlns="http://www.w3.org/2000/svg" viewBox="0 0 256 256" fill="currentColor"><path d="M224,91.55v72.9a8,8,0,0,1-2.34,5.66l-51.55,51.55a8,8,0,0,1-5.66,2.34H91.55a8,8,0,0,1-5.66-2.34L34.34,170.11A8,8,0,0,1,32,164.45V91.55a8,8,0,0,1,2.34-5.66L85.89,34.34A8,8,0,0,1,91.55,32h72.9a8,8,0,0,1,5.66,2.34l51.55,51.55A8,8,0,0,1,224,91.55Z" opacity="0.2"/><path d="M227.31,80.24,175.76,28.69A15.86,15.86,0,0,0,164.45,24H91.55a15.86,15.86,0,0,0-11.31,4.69L28.69,80.24A15.86,15.86,0,0,0,24,91.55v72.9a15.86,15.86,0,0,0,4.69,11.31l51.55,51.55A15.86,15.86,0,0,0,91.55,232h72.9a15.86,15.86,0,0,0,11.31-4.69l51.55-51.55A15.86,15.86,0,0,0,232,164.45V91.55A15.86,15.86,0,0,0,227.31,80.24ZM216,164.45,164.45,216H91.55L40,164.45V91.55L91.55,40h72.9L216,91.55Z"/></svg>