<svg xmlns="http://www.w3.org/2000/svg" viewBox="0 0 256 256" fill="currentColor"><path d="M248,128a8,8,0,0,1-8,8H223.33A48.08,48.08,0,0,1,176,176H136v24h24a32,32,0,0,1,32,32,8,8,0,0,1-16,0,16,16,0,0,0-16-16H136v16a8,8,0,0,1-16,0V216H96a16,16,0,0,0-16,16,8,8,0,0,1-16,0,32,32,0,0,1,32-32h24V176H80a48.08,48.08,0,0,1-47.33-40H16a8,8,0,0,1,0-16H40a8,8,0,0,1,8,8,32,32,0,0,0,32,32h96a32,32,0,0,0,32-32,8,8,0,0,1,8-8h24A8,8,0,0,1,248,128ZM67.91,138.48a16,16,0,0,1-3.75-12.74l13.72-96A16.08,16.08,0,0,1,93.72,16h68.56a16.08,16.08,0,0,1,15.84,13.74l13.72,96A16,16,0,0,1,176,144H80A16,16,0,0,1,67.91,138.48ZM80,128h96L162.28,32H93.71Z"/></svg>