<svg xmlns="http://www.w3.org/2000/svg" viewBox="0 0 256 256" fill="currentColor"><path d="M222.72,67.91l-88-48.18a13.9,13.9,0,0,0-13.44,0l-88,48.18A14,14,0,0,0,26,80.18v95.64a14,14,0,0,0,7.28,12.27l88,48.18a13.92,13.92,0,0,0,13.44,0l88-48.18A14,14,0,0,0,230,175.82V80.18A14,14,0,0,0,222.72,67.91ZM127,30.25a2,2,0,0,1,1.92,0L212.51,76,178.57,94.57,94.05,48.31ZM122,223,39,177.57a2,2,0,0,1-1-1.75V86.66l84,46ZM43.49,76,81.56,55.15l84.51,46.26L128,122.24ZM218,175.82a2,2,0,0,1-1,1.75h0L134,223V132.64l36-19.71V152a6,6,0,0,0,12,0V106.37l36-19.71Z"/></svg>