<svg xmlns="http://www.w3.org/2000/svg" viewBox="0 0 256 256" fill="currentColor"><path d="M221.76,69.66l-88-48.18a12,12,0,0,0-11.52,0l-88,48.18A12,12,0,0,0,28,80.18v95.64a12,12,0,0,0,6.24,10.52l88,48.18a11.95,11.95,0,0,0,11.52,0l88-48.18A12,12,0,0,0,228,175.82V80.18A12,12,0,0,0,221.76,69.66ZM126.08,28.5a3.94,3.94,0,0,1,3.84,0L216.67,76,178.5,96.89a4,4,0,0,0-.58-.4l-88-48.18Zm1.92,96L39.33,76,81.56,52.87l88.67,48.54Zm-89.92,54.8a4,4,0,0,1-2.08-3.5V83.29l88,48.16v94.91Zm179.84,0h0l-85.92,47V131.45l40-21.89V152a4,4,0,0,0,8,0V105.18l40-21.89v92.53A4,4,0,0,1,217.92,179.32Z"/></svg>