<svg xmlns="http://www.w3.org/2000/svg" viewBox="0 0 256 256" fill="currentColor"><path d="M216,112v24a16,16,0,0,1-16,16H152a8,8,0,0,0-7.92,9.13L152,208a24,24,0,0,1-48,0l7.92-46.87A8,8,0,0,0,104,152H56a16,16,0,0,1-16-16V112Z" opacity="0.2"/><path d="M216,24H72A40,40,0,0,0,32,64v72a24,24,0,0,0,24,24h48l-7.89,46.67A8.42,8.42,0,0,0,96,208a32,32,0,0,0,64,0,8.42,8.42,0,0,0-.11-1.33L152,160h48a24,24,0,0,0,24-24V32A8,8,0,0,0,216,24ZM72,40H176V80a8,8,0,0,0,16,0V40h16v64H48V64A24,24,0,0,1,72,40ZM200,144H152a16,16,0,0,0-15.84,18.26l0,.2L144,208.6a16,16,0,0,1-32,0l7.8-46.14,0-.2A16,16,0,0,0,104,144H56a8,8,0,0,1-8-8V120H208v16A8,8,0,0,1,200,144Z"/></svg>