<svg xmlns="http://www.w3.org/2000/svg" viewBox="0 0 256 256" fill="currentColor"><path d="M199.37,55.31A101.32,101.32,0,0,0,128,26h-1A102,102,0,0,0,26,128c0,42.09,26.07,77.44,68,92.26A30.21,30.21,0,0,0,104.11,222,30.06,30.06,0,0,0,134,192a18,18,0,0,1,18-18h46.21a29.82,29.82,0,0,0,29.25-23.31A102.71,102.71,0,0,0,230,127.11,101.25,101.25,0,0,0,199.37,55.31ZM215.76,148a17.89,17.89,0,0,1-17.55,14H152a30,30,0,0,0-30,30,18,18,0,0,1-24,17C61,195.86,38,164.85,38,128a90,90,0,0,1,89.07-90H128a90.34,90.34,0,0,1,90,89.22A90.46,90.46,0,0,1,215.76,148ZM138,76a10,10,0,1,1-10-10A10,10,0,0,1,138,76ZM94,100A10,10,0,1,1,84,90,10,10,0,0,1,94,100Zm0,56a10,10,0,1,1-10-10A10,10,0,0,1,94,156Zm88-56a10,10,0,1,1-10-10A10,10,0,0,1,182,100Z"/></svg>