<svg xmlns="http://www.w3.org/2000/svg" viewBox="0 0 256 256" fill="currentColor"><path d="M244.18,48.15a19.82,19.82,0,0,0-17.32-3.46l-3.49.94C204.74,50.65,170.08,60,128,60S51.26,50.65,32.63,45.63l-3.49-.94A20,20,0,0,0,4,64V192a20,20,0,0,0,19.94,20,20.42,20.42,0,0,0,5.23-.69l3.19-.87C51,205.39,85.7,196,128,196s77,9.4,95.64,14.45l3.19.87A20,20,0,0,0,252,192V64A19.85,19.85,0,0,0,244.18,48.15ZM128,84c44,0,81.14-9.69,100-14.77V177.08l-51.23-51.22a20,20,0,0,0-28.28,0L131.31,143,90.14,101.86a20,20,0,0,0-28.28,0L28,135.71V69.23C46.86,74.31,84,84,128,84Zm20.28,76,14.35-14.35,33.46,33.46c-10.09-2-21.52-3.93-33.94-5.25ZM28,186.76V169.65l48-48L126.35,172C83.12,172.24,46.74,181.7,28,186.76ZM184,108a16,16,0,1,1,16,16A16,16,0,0,1,184,108Z"/></svg>