<svg xmlns="http://www.w3.org/2000/svg" viewBox="0 0 256 256" fill="currentColor"><path d="M240,64V192a8,8,0,0,1-3.47,6.6l-68.25-68.25a8,8,0,0,0-11.31,0L131.31,156,81.66,106.34a8,8,0,0,0-11.32,0L16,160.69V64a8,8,0,0,1,10.05-7.74C43.35,60.89,81.44,72,128,72S212.65,60.89,230,56.27A8,8,0,0,1,240,64Z" opacity="0.2"/><path d="M241.75,51.32a15.88,15.88,0,0,0-13.86-2.77l-3.48.94C205.61,54.56,170.61,64,128,64S50.39,54.56,31.59,49.49l-3.48-.94A16,16,0,0,0,8,64V192a16,16,0,0,0,16,16,16.22,16.22,0,0,0,4.18-.55l3.18-.86C50.13,201.49,85.17,192,128,192s77.87,9.49,96.69,14.59l3.18.86A16,16,0,0,0,248,192V64A15.9,15.9,0,0,0,241.75,51.32ZM27.42,64.93C46.94,70.2,83.27,80,128,80s81.06-9.8,100.58-15.07L232,64V182.76l-58.07-58.07a16,16,0,0,0-22.63,0l-20,20-44-44a16,16,0,0,0-22.62,0L24,141.37V64ZM213.84,187.21a391.22,391.22,0,0,0-49-9L142.63,156l20-20ZM27.13,191.14,24,192V164l52-52,64.25,64.25q-6-.24-12.25-.25C83,176,45.28,186.23,27.13,191.14ZM192,108a12,12,0,1,1,12,12A12,12,0,0,1,192,108Z"/></svg>