<svg xmlns="http://www.w3.org/2000/svg" viewBox="0 0 256 256" fill="currentColor"><path d="M219.91,214.51l-22-176A12,12,0,0,0,186,28H70A12,12,0,0,0,58.09,38.51l-22,176A12,12,0,0,0,48,228H88.69a12,12,0,0,0,11.64-9.06L128,112l27.67,106.94A12,12,0,0,0,167.31,228H208a12,12,0,0,0,11.91-13.49ZM197.52,99.9A36,36,0,0,1,164.23,68h29.3ZM70,36H186a4,4,0,0,1,4,3.5L192.53,60H63.47L66,39.5A4,4,0,0,1,70,36ZM62.47,68h29.3A36,36,0,0,1,58.48,99.9Zm30.1,149a4,4,0,0,1-3.88,3H48a4,4,0,0,1-4-4.5L57.47,108A44.05,44.05,0,0,0,99.81,68H124V95.49ZM211,218.65a4,4,0,0,1-3,1.35H167.31a4,4,0,0,1-3.89-3.06L132,95.49V68h24.19a44.05,44.05,0,0,0,42.34,40L212,215.5A4,4,0,0,1,211,218.65Z"/></svg>