<svg xmlns="http://www.w3.org/2000/svg" viewBox="0 0 256 256" fill="currentColor"><path d="M221.89,214.26l-22-176A14,14,0,0,0,186,26H70A14,14,0,0,0,56.11,38.26l-22,176A14,14,0,0,0,48,230H88.69a14,14,0,0,0,13.57-10.56L128,120l25.73,99.44A14,14,0,0,0,167.31,230H208a14,14,0,0,0,13.89-15.74ZM195.22,97.66A34.07,34.07,0,0,1,166.54,70h25.23ZM70,38H186a2,2,0,0,1,2,1.75L190.27,58H65.73L68,39.75A2,2,0,0,1,70,38ZM64.23,70H89.46A34.07,34.07,0,0,1,60.78,97.66Zm26.4,146.49A2,2,0,0,1,88.69,218H48a2,2,0,0,1-2-2.25L59.25,109.87A46.07,46.07,0,0,0,101.6,70H122V95.24Zm118.87.83a2,2,0,0,1-1.5.68H167.31a2,2,0,0,1-1.95-1.56L134,95.24V70h20.4a46.07,46.07,0,0,0,42.35,39.87L210,215.75A2,2,0,0,1,209.5,217.32Z"/></svg>