<svg xmlns="http://www.w3.org/2000/svg" viewBox="0 0 256 256" fill="currentColor"><path d="M227.91,134.86,59.93,231a8,8,0,0,1-11.44-9.67L80,128,48.49,34.72a8,8,0,0,1,11.44-9.67l168,95.85A8,8,0,0,1,227.91,134.86Z" opacity="0.2"/><path d="M231.87,114l-168-95.89A16,16,0,0,0,40.92,37.34L71.55,128,40.92,218.67A16,16,0,0,0,56,240a16.15,16.15,0,0,0,7.93-2.1l167.92-96.05a16,16,0,0,0,.05-27.89ZM56,224a.56.56,0,0,0,0-.12L85.74,136H144a8,8,0,0,0,0-16H85.74L56.06,32.16A.46.46,0,0,0,56,32l168,95.83Z"/></svg>