<svg xmlns="http://www.w3.org/2000/svg" viewBox="0 0 256 256" fill="currentColor"><path d="M230,120a102,102,0,0,0-204,0,6,6,0,0,0,2.27,4.69l.13.11L122,195v23H112a6,6,0,0,0,0,12h32a6,6,0,0,0,0-12H134V195l93.6-70.2h0A6,6,0,0,0,230,120Zm-12.2-6H173.9c-1.3-42.92-16.5-68.62-28.43-82.3A90.2,90.2,0,0,1,217.8,114ZM128,31.43A77.14,77.14,0,0,1,143.42,49C157.26,70.08,161.24,95,161.89,114H94.11c1.06-31.88,10.49-52.86,18.47-65A76.69,76.69,0,0,1,128,31.43ZM157.8,126,128,179.65,98.2,126Zm-73.33,0,24.62,44.32L50,126Zm87.06,0H206l-59.09,44.32Zm-61-94.3C98.6,45.38,83.4,71.08,82.1,114H38.2A90.2,90.2,0,0,1,110.53,31.7Z"/></svg>