<svg xmlns="http://www.w3.org/2000/svg" viewBox="0 0 256 256" fill="currentColor"><path d="M208,48V208a8,8,0,0,1-8,8H160a8,8,0,0,1-8-8V48a8,8,0,0,1,8-8h40A8,8,0,0,1,208,48ZM96,40H56a8,8,0,0,0-8,8V208a8,8,0,0,0,8,8H96a8,8,0,0,0,8-8V48A8,8,0,0,0,96,40Z" opacity="0.2"/><path d="M200,32H160a16,16,0,0,0-16,16V208a16,16,0,0,0,16,16h40a16,16,0,0,0,16-16V48A16,16,0,0,0,200,32Zm0,176H160V48h40ZM96,32H56A16,16,0,0,0,40,48V208a16,16,0,0,0,16,16H96a16,16,0,0,0,16-16V48A16,16,0,0,0,96,32Zm0,176H56V48H96Z"/></svg>