<svg xmlns="http://www.w3.org/2000/svg" viewBox="0 0 256 256" fill="currentColor"><path d="M252,92.68a19.86,19.86,0,0,0-5.86-14.14L177.46,9.85a20,20,0,0,0-28.29,0L121.35,37.67,64.11,59.14A20,20,0,0,0,51.4,74.58L28.16,214A12,12,0,0,0,40,228a11.9,11.9,0,0,0,2-.16l139.45-23.25a20.07,20.07,0,0,0,15.44-12.7l21.46-57.25,27.82-27.82A19.85,19.85,0,0,0,252,92.68ZM175.2,181.3,75,198l33-33a34,34,0,1,0-17-17L58,181,74.7,80.8,125,61.94,194.05,131ZM112,134a10,10,0,1,1,10,10A10,10,0,0,1,112,134Zm96-23L145,48l18.34-18.34,63,63Z"/></svg>