<svg xmlns="http://www.w3.org/2000/svg" viewBox="0 0 256 256" fill="currentColor"><path d="M224.49,76.2,179.8,31.51a12,12,0,0,0-17,0L39.51,154.83A12,12,0,0,0,36,163.31V208a12,12,0,0,0,12,12H216a4,4,0,0,0,0-8H105.66L224.49,93.17A12,12,0,0,0,224.49,76.2ZM73.66,188,164,97.66,186.35,120,96,210.34ZM68,182.34,45.66,160,136,69.66,158.35,92ZM44,208V169.66l21.17,21.17h0L86.34,212H48A4,4,0,0,1,44,208ZM218.83,87.51,192,114.34,141.66,64l26.83-26.83a4,4,0,0,1,5.66,0l44.68,44.69A4,4,0,0,1,218.83,87.51Z"/></svg>