<svg xmlns="http://www.w3.org/2000/svg" viewBox="0 0 256 256" fill="currentColor"><path d="M221.66,90.34,192,120,136,64l29.66-29.66a8,8,0,0,1,11.31,0L221.66,79A8,8,0,0,1,221.66,90.34Z" opacity="0.2"/><path d="M227.32,73.37,182.63,28.69a16,16,0,0,0-22.63,0L36.69,152A15.86,15.86,0,0,0,32,163.31V208a16,16,0,0,0,16,16H216a8,8,0,0,0,0-16H115.32l112-112A16,16,0,0,0,227.32,73.37ZM79.32,188,164,103.31,180.69,120,96,204.69ZM68,176.69,51.31,160,136,75.31,152.69,92Zm-20,2.62L76.69,208H48Zm144-70.62L147.32,64l24-24L216,84.69Z"/></svg>