<svg xmlns="http://www.w3.org/2000/svg" viewBox="0 0 256 256" fill="currentColor"><path d="M223.61,102.83l-32,107.62A8,8,0,0,1,184,216H72a8,8,0,0,1-7.62-5.55l-32-107.62a8,8,0,0,1,2.88-8.9l88-68.38a8,8,0,0,1,9.46,0l88,68.38A8,8,0,0,1,223.61,102.83Z" opacity="0.2"/><path d="M225.56,87.56,137.64,19.25l-.18-.14a15.93,15.93,0,0,0-18.92,0l-.18.14L30.44,87.56a16,16,0,0,0-5.7,17.63l32,107.54.06.17A15.94,15.94,0,0,0,72,224H184a15.94,15.94,0,0,0,15.23-11.1l.06-.17,32-107.54A16,16,0,0,0,225.56,87.56Zm-9.62,13L184,208H72l-32-107.44-.06-.17h0l.18-.14L128,32l87.82,68.23.18.14Z"/></svg>