<svg xmlns="http://www.w3.org/2000/svg" viewBox="0 0 256 256" fill="currentColor"><path d="M167.27,40.42A40.06,40.06,0,0,0,128,8a8,8,0,0,0,0,16,24,24,0,0,1,22.85,16.66A64.08,64.08,0,0,0,96,104c0,46.75-25.75,78-76.53,93a16,16,0,0,0,1.77,31.13A264.8,264.8,0,0,0,66.75,232c40.78,0,86.16-9.15,117.53-35.46C210.64,174.44,224,143.3,224,104h0A64.07,64.07,0,0,0,167.27,40.42ZM160,56a48.07,48.07,0,0,1,45.37,32.37L192,95,163.58,80.83a8,8,0,0,0-7.16,0L128,95l-13.37-6.68A48.08,48.08,0,0,1,160,56Zm14,128.3c-18,15.07-43.6,25.26-74.12,29.47A254.08,254.08,0,0,1,24,212.37h0v0c57.23-16.87,87.63-54,88-107.42l12.44,6.22a8,8,0,0,0,7.16,0L160,96.93l28.42,14.21a8,8,0,0,0,7.16,0l12.41-6.2C207.78,138.84,196.35,165.54,174,184.29Z"/></svg>