<svg xmlns="http://www.w3.org/2000/svg" viewBox="0 0 256 256" fill="currentColor"><path d="M152,80a32,32,0,1,0-32-32A32,32,0,0,0,152,80Zm0-48a16,16,0,1,1-16,16A16,16,0,0,1,152,32Zm64,112a8,8,0,0,1-8,8c-35.31,0-52.95-17.81-67.12-32.12-2.74-2.77-5.36-5.4-8-7.84l-13.43,30.88,37.2,26.57A8,8,0,0,1,160,176v56a8,8,0,0,1-16,0V180.12l-31.07-22.2L79.34,235.19A8,8,0,0,1,72,240a7.84,7.84,0,0,1-3.19-.67,8,8,0,0,1-4.15-10.52l54.08-124.37c-9.31-1.65-20.92,1.2-34.7,8.58a163.88,163.88,0,0,0-30.57,21.77,8,8,0,0,1-10.95-11.66c2.5-2.35,61.69-57.23,98.72-25.08,3.83,3.32,7.48,7,11,10.57C166.19,122.7,179.36,136,208,136A8,8,0,0,1,216,144Z"/></svg>