<svg xmlns="http://www.w3.org/2000/svg" viewBox="0 0 256 256" fill="currentColor"><path d="M104,40a24,24,0,1,1,24,24A24,24,0,0,1,104,40Zm108.49,99.51L167.17,88.13a24,24,0,0,0-18-8.13H106.83a24,24,0,0,0-18,8.13L43.51,139.51a12,12,0,0,0,17,17L96,128,73.13,214.93a12,12,0,0,0,21.75,10.14L128,168l33.12,57.07a12,12,0,0,0,21.75-10.14L160,128l35.51,28.49a12,12,0,0,0,17-17Z" opacity="0.2"/><path d="M160,40a32,32,0,1,0-32,32A32,32,0,0,0,160,40ZM128,56a16,16,0,1,1,16-16A16,16,0,0,1,128,56Zm90.34,78.05L173.17,82.83a32,32,0,0,0-24-10.83H106.83a32,32,0,0,0-24,10.83L37.66,134.05a20,20,0,0,0,28.13,28.43l16.3-13.08L65.55,212.28A20,20,0,0,0,102,228.8l26-44.87,26,44.87a20,20,0,0,0,36.41-16.52L173.91,149.4l16.3,13.08a20,20,0,0,0,28.13-28.43Zm-11.51,16.77a4,4,0,0,1-5.66,0c-.21-.2-.42-.4-.65-.58L165,121.76A8,8,0,0,0,152.26,130L175.14,217a7.72,7.72,0,0,0,.48,1.35,4,4,0,1,1-7.25,3.38,6.25,6.25,0,0,0-.33-.63L134.92,164a8,8,0,0,0-13.84,0L88,221.05a6.25,6.25,0,0,0-.33.63,4,4,0,0,1-2.26,2.07,4,4,0,0,1-5-5.45,7.72,7.72,0,0,0,.48-1.35L103.74,130A8,8,0,0,0,91,121.76L55.48,150.24c-.23.18-.44.38-.65.58a4,4,0,1,1-5.66-5.65c.12-.12.23-.24.34-.37L94.83,93.41a16,16,0,0,1,12-5.41h42.34a16,16,0,0,1,12,5.41l45.32,51.39c.11.13.22.25.34.37A4,4,0,0,1,206.83,150.82Z"/></svg>