<svg xmlns="http://www.w3.org/2000/svg" viewBox="0 0 256 256" fill="currentColor"><path d="M104,40a24,24,0,1,1,24,24A24,24,0,0,1,104,40ZM212,80H44c-12.87,0-16.71,17.5-5,22.9L96,128,73.13,214.93a12,12,0,0,0,21.75,10.14L128,168l33.12,57.07a12,12,0,0,0,21.75-10.14L160,128l57-25.1C228.69,97.5,224.85,80,212,80Z" opacity="0.2"/><path d="M160,40a32,32,0,1,0-32,32A32,32,0,0,0,160,40ZM128,56a16,16,0,1,1,16-16A16,16,0,0,1,128,56ZM231.5,87.71A19.62,19.62,0,0,0,212,72H44a20,20,0,0,0-8.38,38.16l.13.06,50.75,22.35-21,79.72A20,20,0,0,0,102,228.82l26-44.88,26,44.88a20,20,0,0,0,36.4-16.53l-21-79.72,50.75-22.35.13-.06A19.63,19.63,0,0,0,231.5,87.71Zm-17.8,7.9-56.93,25.07a8,8,0,0,0-4.51,9.36L175.13,217a7,7,0,0,0,.49,1.35,4,4,0,1,1-7.25,3.38c-.11-.22-.22-.43-.34-.63L134.92,164a8,8,0,0,0-13.84,0L88,221.06c-.12.2-.23.41-.34.63a4,4,0,1,1-7.25-3.38,7,7,0,0,0,.49-1.35L103.74,130a8,8,0,0,0-4.51-9.36L42.3,95.61A4,4,0,0,1,44,88H212a4,4,0,0,1,1.73,7.61Z"/></svg>