<svg xmlns="http://www.w3.org/2000/svg" viewBox="0 0 256 256" fill="currentColor"><path d="M176,102a30,30,0,1,0-30-30A30,30,0,0,0,176,102Zm0-48a18,18,0,1,1-18,18A18,18,0,0,1,176,54Zm44.62,132.58a6,6,0,0,1-.79,8.45c-16.87,14-32,19-45.75,19-18.19,0-34.13-8.65-48.94-16.7-26-14.11-48.44-26.31-81.31,1A6,6,0,1,1,36.17,189c39.13-32.45,68.65-16.41,94.69-2.27s48.44,26.31,81.31-1A6,6,0,0,1,220.62,186.58ZM36.17,149a6,6,0,1,0,7.66,9.24c32.87-27.26,55.32-15.07,81.31-1C140,165.34,155.89,174,174.08,174c13.79,0,28.88-5,45.75-19a6,6,0,1,0-7.66-9.24c-7.48,6.2-14.43,10.36-21,12.92l-54.81-54.82A101.31,101.31,0,0,0,64.24,74H40a6,6,0,0,0,0,12H64.24a89.42,89.42,0,0,1,45.15,12.13l-32.1,32.1C64.77,131.26,51.18,136.57,36.17,149Zm91.71-36.64,49.54,49.55c-16.3,1.26-30.78-6.6-46.56-15.17-11.63-6.32-24-13-37.51-15.6L119.5,105A93.92,93.92,0,0,1,127.88,112.37Z"/></svg>