<svg xmlns="http://www.w3.org/2000/svg" viewBox="0 0 256 256" fill="currentColor"><path d="M164,76a24,24,0,1,0-24-24A24,24,0,0,0,164,76Zm0-40a16,16,0,1,1-16,16A16,16,0,0,1,164,36Zm53.13,80.16-136-40a4,4,0,0,0-2.26,7.68l46.06,13.54L86.77,154.63,39.23,140.85a21.18,21.18,0,1,0-11.9,40.66h0l157.44,45.63a21.45,21.45,0,0,0,6,.86,21.2,21.2,0,0,0,12.76-4.29,21,21,0,0,0,8.46-16.9,21.3,21.3,0,0,0-15.33-20.33l-56.15-16.27,22.8-34a4,4,0,0,0,.44-3.6,4,4,0,0,0-2.65-2.47L120.54,118.4,133,99.75l81.9,24.09A4.06,4.06,0,0,0,216,124a4,4,0,0,0,1.13-7.84ZM204,206.81a13,13,0,0,1-5.26,10.5A13.25,13.25,0,0,1,187,219.46L29.55,173.82A13.26,13.26,0,0,1,20,161.18a13,13,0,0,1,5.26-10.5A13.23,13.23,0,0,1,37,148.54l157.44,45.63A13.25,13.25,0,0,1,204,206.81Zm-50.37-70.49-21.17,31.55L94.83,157l21-31.59Z"/></svg>