<svg xmlns="http://www.w3.org/2000/svg" viewBox="0 0 256 256" fill="currentColor"><path d="M152,88a32,32,0,1,0-32-32A32,32,0,0,0,152,88Zm0-48a16,16,0,1,1-16,16A16,16,0,0,1,152,40Zm67.31,100.68c-.61.28-7.49,3.28-19.67,3.28-13.85,0-34.55-3.88-60.69-20a169.31,169.31,0,0,1-15.41,32.34,104.29,104.29,0,0,1,31.31,15.81C173.92,186.65,184,207.35,184,232a8,8,0,0,1-16,0c0-41.7-34.69-56.71-54.14-61.85-.55.7-1.12,1.41-1.69,2.1-19.64,23.8-44.25,36.18-71.63,36.18A92.29,92.29,0,0,1,31.2,208,8,8,0,0,1,32.8,192c25.92,2.58,48.47-7.49,67-30,12.49-15.14,21-33.61,25.25-47C86.13,92.35,61.27,111.63,61,111.84A8,8,0,1,1,51,99.36c1.5-1.2,37.22-29,89.51,6.57,45.47,30.91,71.93,20.31,72.18,20.19a8,8,0,1,1,6.63,14.56Z"/></svg>