<svg xmlns="http://www.w3.org/2000/svg" viewBox="0 0 256 256" fill="currentColor"><path d="M128,70A30,30,0,1,0,98,40,30,30,0,0,0,128,70Zm0-48a18,18,0,1,1-18,18A18,18,0,0,1,128,22Zm88.88,113.42L171.67,84.16A30,30,0,0,0,149.17,74H106.83a30,30,0,0,0-22.5,10.15L39.12,135.42A18,18,0,0,0,64.46,161l21.11-16.93L67.44,212.92a18,18,0,0,0,32.75,14.94L128,180l27.81,47.91a18,18,0,0,0,32.75-14.94l-18.13-68.87L191.54,161a18,18,0,0,0,25.34-25.56Zm-8.63,16.82a6,6,0,0,1-8.49,0,4.15,4.15,0,0,0-.49-.44l-35.51-28.48a6,6,0,0,0-9.56,6.2l22.87,86.93a7.66,7.66,0,0,0,.37,1,6,6,0,0,1-10.88,5.07,4.37,4.37,0,0,0-.25-.48L133.19,165a6,6,0,0,0-10.38,0L89.69,222.05a4.37,4.37,0,0,0-.25.48,6,6,0,0,1-10.88-5.07,7.66,7.66,0,0,0,.37-1l22.87-86.93A6,6,0,0,0,99.27,123,6.07,6.07,0,0,0,96,122a6,6,0,0,0-3.76,1.32L56.73,151.8a4.15,4.15,0,0,0-.49.44,6,6,0,0,1-8.49-8.49l.26-.27L93.33,92.09A18,18,0,0,1,106.83,86h42.34a18,18,0,0,1,13.5,6.09L208,143.48l.26.27A6,6,0,0,1,208.25,152.24Z"/></svg>