<svg xmlns="http://www.w3.org/2000/svg" viewBox="0 0 256 256" fill="currentColor"><path d="M56.9,31.93A12,12,0,1,0,39.15,48.07L63,74.36a147.07,147.07,0,0,0-41.43,29c-21.45,21.46-23.52,53.1-5,77A20,20,0,0,0,32.38,188a19.81,19.81,0,0,0,7.12-1.32l48.9-17.35.45-.17A19.94,19.94,0,0,0,101,154.5l5.44-27.22c1.22-.38,2.47-.72,3.72-1l88.91,97.83a12,12,0,1,0,17.75-16.14Zm26.5,88.36L78,147.57,33.84,163.22c-9.16-13.84-7.41-30.76,4.73-42.9A121.58,121.58,0,0,1,80.07,93.1L92.74,107A20.06,20.06,0,0,0,83.4,120.29Zm156,60a19.89,19.89,0,0,1-11.24,7.19,12,12,0,0,1-6.95-22.92c10.21-14.07,8.75-31.71-3.79-44.25C194.77,97.65,164,84.76,130.91,84a12,12,0,0,1,.27-24h.27c39.33.87,75.89,16.25,102.94,43.31C255.84,124.81,257.91,156.45,239.41,180.3Z"/></svg>