<svg xmlns="http://www.w3.org/2000/svg" viewBox="0 0 256 256" fill="currentColor"><path d="M221.59,160.3l-47.24-21.17a14,14,0,0,0-13.28,1.22,4.81,4.81,0,0,0-.56.42l-24.69,21a1.88,1.88,0,0,1-1.68.06c-15.87-7.66-32.31-24-40-39.65a1.91,1.91,0,0,1,0-1.68l21.07-25a6.13,6.13,0,0,0,.42-.58,14,14,0,0,0,1.12-13.27L95.73,34.49a14,14,0,0,0-14.56-8.38A54.24,54.24,0,0,0,34,80c0,78.3,63.7,142,142,142a54.25,54.25,0,0,0,53.89-47.17A14,14,0,0,0,221.59,160.3ZM176,210C104.32,210,46,151.68,46,80A42.23,42.23,0,0,1,82.67,38h.23a2,2,0,0,1,1.84,1.31l21.1,47.11a2,2,0,0,1,0,1.67L84.73,113.15a4.73,4.73,0,0,0-.43.57,14,14,0,0,0-.91,13.73c8.87,18.16,27.17,36.32,45.53,45.19a14,14,0,0,0,13.77-1c.19-.13.38-.27.56-.42l24.68-21a1.92,1.92,0,0,1,1.6-.1l47.25,21.17a2,2,0,0,1,1.21,2A42.24,42.24,0,0,1,176,210Z"/></svg>