<svg xmlns="http://www.w3.org/2000/svg" viewBox="0 0 256 256" fill="currentColor"><path d="M212.78,170.13,165.56,149A12,12,0,0,0,154.18,150a3.37,3.37,0,0,0-.38.28L129,171.42a3.9,3.9,0,0,1-3.7.21c-16.24-7.84-33-24.52-40.89-40.57a3.9,3.9,0,0,1,.18-3.69l21.2-25.21c.1-.12.19-.25.28-.38a12,12,0,0,0,1-11.36L85.9,43.28a12,12,0,0,0-12.48-7.19A52.25,52.25,0,0,0,28,88c0,77.2,62.8,140,140,140a52.25,52.25,0,0,0,51.91-45.42A12,12,0,0,0,212.78,170.13ZM212,181.58A44.23,44.23,0,0,1,168,220C95.22,220,36,160.78,36,88A44.23,44.23,0,0,1,74.42,44a3.87,3.87,0,0,1,.48,0,4,4,0,0,1,3.67,2.49L99.68,93.63a4,4,0,0,1-.23,3.6l-21.19,25.2c-.1.13-.2.25-.29.39a12,12,0,0,0-.78,11.75c8.69,17.79,26.61,35.58,44.6,44.27a12,12,0,0,0,11.79-.87l.37-.28,24.83-21.12a3.93,3.93,0,0,1,3.57-.27l47.21,21.16A4,4,0,0,1,212,181.58ZM148,104V64a4,4,0,0,1,8,0V94.34l41.17-41.17a4,4,0,1,1,5.66,5.66L161.66,100H192a4,4,0,0,1,0,8H152A4,4,0,0,1,148,104Z"/></svg>