<svg xmlns="http://www.w3.org/2000/svg" viewBox="0 0 256 256" fill="currentColor"><path d="M148.14,47A4,4,0,0,1,153,44.13,82.24,82.24,0,0,1,211.86,103a4,4,0,0,1-2.83,4.89,3.65,3.65,0,0,1-1,.14,4,4,0,0,1-3.86-3A74.35,74.35,0,0,0,151,51.86,4,4,0,0,1,148.14,47ZM143,83.86C158,87.89,168.11,98,172.14,113a4,4,0,0,0,3.86,3,3.65,3.65,0,0,0,1-.14,4,4,0,0,0,2.83-4.89c-4.8-18-16.85-30-34.83-34.84A4,4,0,0,0,143,83.86Zm76.94,98.72A52.25,52.25,0,0,1,168,228C90.8,228,28,165.2,28,88A52.25,52.25,0,0,1,73.42,36.09,12,12,0,0,1,85.9,43.28L107,90.42a12,12,0,0,1-1,11.36c-.09.13-.18.26-.28.38l-21.2,25.21a3.9,3.9,0,0,0-.18,3.69c7.84,16.05,24.65,32.73,40.89,40.57a3.93,3.93,0,0,0,3.7-.21L153.8,150.3l.38-.29a12,12,0,0,1,11.38-1l47.22,21.16A12,12,0,0,1,219.91,182.58Zm-10.35-5.12L162.35,156.3a3.93,3.93,0,0,0-3.57.27L134,177.69l-.37.28a12,12,0,0,1-11.79.87c-18-8.69-35.91-26.48-44.6-44.27A12,12,0,0,1,78,122.82c.09-.14.19-.26.29-.39l21.19-25.2a4,4,0,0,0,.23-3.6L78.57,46.49A4,4,0,0,0,74.9,44a3.87,3.87,0,0,0-.48,0A44.23,44.23,0,0,0,36,88c0,72.78,59.22,132,132,132a44.23,44.23,0,0,0,44-38.42A4,4,0,0,0,209.56,177.46Z"/></svg>