<svg xmlns="http://www.w3.org/2000/svg" viewBox="0 0 256 256" fill="currentColor"><path d="M215.94,182.08A48.33,48.33,0,0,1,168,224,136,136,0,0,1,32,88,48.33,48.33,0,0,1,73.92,40.06a8,8,0,0,1,8.3,4.8l21.13,47.2a8,8,0,0,1-.66,7.53L81.32,125a7.93,7.93,0,0,0-.54,7.81c8.27,16.93,25.77,34.22,42.75,42.41a7.92,7.92,0,0,0,7.83-.59l25-21.3a8,8,0,0,1,7.59-.69l47.16,21.13A8,8,0,0,1,215.94,182.08Z" opacity="0.2"/><path d="M214.36,166.46l-47.1-21.11-.12-.06a16,16,0,0,0-15.18,1.4,8.12,8.12,0,0,0-.75.56L126.87,168c-15.42-7.49-31.34-23.29-38.83-38.51l20.78-24.71c.2-.25.39-.5.57-.77a16,16,0,0,0,1.32-15.06l0-.12L89.54,41.64a16,16,0,0,0-16.62-9.52A56.26,56.26,0,0,0,24,88c0,79.4,64.6,144,144,144a56.26,56.26,0,0,0,55.88-48.92A16,16,0,0,0,214.36,166.46ZM168,216A128.14,128.14,0,0,1,40,88,40.2,40.2,0,0,1,74.87,48a.61.61,0,0,0,0,.12l21,47L75.2,119.86a6.13,6.13,0,0,0-.57.77,16,16,0,0,0-1,15.7c9.06,18.53,27.73,37.06,46.46,46.11a16,16,0,0,0,15.75-1.14,6.92,6.92,0,0,0,.74-.57L160.89,160l47,21.06h0s.08,0,.11,0A40.21,40.21,0,0,1,168,216Zm24-112V48a8,8,0,0,1,16,0v56a8,8,0,0,1-16,0Zm-40,0V48a8,8,0,0,1,16,0v56a8,8,0,0,1-16,0Z"/></svg>