<svg xmlns="http://www.w3.org/2000/svg" viewBox="0 0 256 256" fill="currentColor"><path d="M51,37.31A4,4,0,1,0,45,42.69L76.52,77.32A137.72,137.72,0,0,0,27.21,109C8.69,127.53,6.9,154.83,22.85,175.4a12,12,0,0,0,13.83,3.77l49-17.39.15-.05a12,12,0,0,0,7.31-8.79l5.9-29.51a3.92,3.92,0,0,1,2.51-3,79.44,79.44,0,0,1,11.4-3l92.07,101.26a4,4,0,1,0,5.92-5.38Zm48,75.6a12,12,0,0,0-7.72,9l-5.9,29.51a4,4,0,0,1-2.37,2.9l-49,17.38-.15.06a4,4,0,0,1-4.61-1.21c-13.42-17.29-11.9-40.25,3.69-55.84A130.06,130.06,0,0,1,82.33,83.72l24.44,26.88Q102.8,111.58,98.94,112.91ZM233.15,175.4a12,12,0,0,1-13.83,3.77l-9.31-3.3a4,4,0,1,1,2.68-7.54l9.37,3.32.15.06a4,4,0,0,0,4.61-1.21c13.42-17.29,11.9-40.25-3.69-55.84C196.66,88.2,159.34,74.18,120.72,76.19a4,4,0,1,1-.41-8c40.86-2.12,80.41,12.74,108.48,40.8C247.31,127.53,249.1,154.83,233.15,175.4Z"/></svg>