<svg xmlns="http://www.w3.org/2000/svg" viewBox="0 0 256 256" fill="currentColor"><path d="M188,116a8,8,0,1,1-8-8A8,8,0,0,1,188,116ZM152,68H112a4,4,0,0,0,0,8h40a4,4,0,0,0,0-8Zm92,44v32a20,20,0,0,1-20,20h-5.18l-17.16,48a12,12,0,0,1-11.3,8H177.64a12,12,0,0,1-11.3-8l-2.87-8H100.53l-2.87,8a12,12,0,0,1-11.3,8H73.64a12,12,0,0,1-11.3-8l-12.82-35.9a83.73,83.73,0,0,1-21.4-51.76A20,20,0,0,0,12,144a4,4,0,0,1-8,0,28,28,0,0,1,24.09-27.72A84.1,84.1,0,0,1,112,36H216a4,4,0,0,1,0,8H179.8a84,84,0,0,1,41.31,42.63c.76,1.76,1.47,3.55,2.11,5.37H224A20,20,0,0,1,244,112Zm-8,0a12,12,0,0,0-12-12h-3.66a4,4,0,0,1-3.82-2.8,74.45,74.45,0,0,0-2.75-7.39A76,76,0,0,0,144,44H112A76,76,0,0,0,56,171.34a4,4,0,0,1,.82,1.36l13.09,36.65A4,4,0,0,0,73.64,212H86.36a4,4,0,0,0,3.77-2.65L94,198.65A4,4,0,0,1,97.71,196h68.58a4,4,0,0,1,3.76,2.65l3.82,10.7a4,4,0,0,0,3.77,2.65h12.72a4,4,0,0,0,3.77-2.65l18.1-50.7A4,4,0,0,1,216,156h8a12,12,0,0,0,12-12Z"/></svg>