<svg xmlns="http://www.w3.org/2000/svg" viewBox="0 0 256 256" fill="currentColor"><path d="M160,160l-50.75,50.75a45.26,45.26,0,0,1-64,0h0a45.26,45.26,0,0,1,0-64L96,96Z" opacity="0.2"/><path d="M216.43,39.6a53.27,53.27,0,0,0-75.33,0L39.6,141.09a53.26,53.26,0,0,0,75.32,75.31L216.43,114.91A53.32,53.32,0,0,0,216.43,39.6ZM103.61,205.09h0a37.26,37.26,0,0,1-52.7-52.69L96,107.31,148.7,160ZM205.11,103.6,160,148.69,107.32,96l45.1-45.09a37.26,37.26,0,0,1,52.69,52.69ZM189.68,82.34a8,8,0,0,1,0,11.32l-24,24a8,8,0,1,1-11.31-11.32l24-24A8,8,0,0,1,189.68,82.34Z"/></svg>