<svg xmlns="http://www.w3.org/2000/svg" viewBox="0 0 256 256" fill="currentColor"><path d="M218.87,56.44a1.59,1.59,0,0,1-.13-.13L173.83,14a14,14,0,0,0-19.71.06l-46,45.62-3-3A23,23,0,0,0,72.7,89.18l2.85,2.89L54.1,113.41a14,14,0,0,0,0,19.8L66.79,145.9a14,14,0,0,0,19.76,0l21.35-21.05,13.51,13.7a2,2,0,0,1,0,2.83l0,0L56.73,206.79a23,23,0,1,0,32.5,32.47L177.9,149.9a14,14,0,0,0,0-19.78L140.79,92.64l14.35-14.06a2,2,0,0,1,2.82,0l.07.07L195.42,114a14,14,0,0,0,19.74-.07l3.71-3.72a38,38,0,0,0,0-53.74Zm-140.77,81a2,2,0,0,1-2.83,0L62.58,124.73a2,2,0,0,1-.58-1.42,2,2,0,0,1,.57-1.4L84,100.62l15.5,15.72Zm91.3,4L80.73,230.79a11,11,0,1,1-15.49-15.54l64.67-65.37a14,14,0,0,0,0-19.75L81.21,80.73a11,11,0,0,1,15.5-15.54l72.7,73.39A2,2,0,0,1,169.4,141.43Zm41-39.73-3.71,3.71a2,2,0,0,1-2.83,0l-.12-.12L166.31,70a14,14,0,0,0-19.61.1L132.35,84.12,116.6,68.22l46-45.64a2,2,0,0,1,2.84,0l.12.13L210.45,65a26,26,0,0,1-.07,36.71Z"/></svg>