<svg xmlns="http://www.w3.org/2000/svg" viewBox="0 0 256 256" fill="currentColor"><path d="M224,56H176V16a8,8,0,0,0-16,0V56H96V16a8,8,0,0,0-16,0V56H32.55C26.28,56,24,60.78,24,64a8,8,0,0,0,8,8H48v88a40,40,0,0,0,40,40h32v40a8,8,0,0,0,16,0V200h32a40,40,0,0,0,40-40V72h16a8,8,0,0,0,0-16ZM168,184H88a24,24,0,0,1-24-24V72H192v88A24,24,0,0,1,168,184Zm-17.42-60.56a8,8,0,0,1,.91,7.37l-12,32a8,8,0,0,1-15-5.62l8-21.19H112a8,8,0,0,1-7.49-10.81l12-32a8,8,0,1,1,15,5.62l-8,21.19H144A8,8,0,0,1,150.58,123.44Z"/></svg>