<svg xmlns="http://www.w3.org/2000/svg" viewBox="0 0 256 256" fill="currentColor"><path d="M146.83,141.17a4,4,0,0,0-5.66,0L120,162.34,93.66,136l21.17-21.17a4,4,0,0,0-5.66-5.66L88,130.34,66.83,109.17a4,4,0,0,0-5.66,5.66L70.34,124,44.2,150.14a28,28,0,0,0,0,39.6l8.2,8.2L21.17,229.17a4,4,0,0,0,5.66,5.66L58.06,203.6l8.2,8.2a28,28,0,0,0,39.6,0L132,185.66l9.17,9.17a4,4,0,0,0,5.66-5.66L125.66,168l21.17-21.17A4,4,0,0,0,146.83,141.17Zm-46.63,65a20,20,0,0,1-28.28,0L49.86,184.08a20,20,0,0,1,0-28.28L76,129.66,126.34,180Zm134.63-185a4,4,0,0,0-5.66,0L197.94,52.4l-8.2-8.2a28,28,0,0,0-39.6,0L124,70.34l-9.17-9.17a4,4,0,0,0-5.66,5.66l80,80a4,4,0,0,0,5.66-5.66L185.66,132l26.14-26.14a28,28,0,0,0,0-39.6l-8.2-8.2,31.23-31.23A4,4,0,0,0,234.83,21.17ZM212,86.06a19.86,19.86,0,0,1-5.86,14.14L180,126.34,129.66,76,155.8,49.86a20,20,0,0,1,28.28,0l22.06,22.06A19.85,19.85,0,0,1,212,86.06Z"/></svg>