<svg xmlns="http://www.w3.org/2000/svg" viewBox="0 0 256 256" fill="currentColor"><path d="M224,58H174V16a6,6,0,0,0-12,0V58H94V16a6,6,0,0,0-12,0V58H32.55A6.1,6.1,0,0,0,26,64a6,6,0,0,0,6,6H50v90a38,38,0,0,0,38,38h34v42a6,6,0,0,0,12,0V198h34a38,38,0,0,0,38-38V70h18a6,6,0,0,0,0-12ZM194,160a26,26,0,0,1-26,26H88a26,26,0,0,1-26-26V70H194Zm-86.93-28.58a6,6,0,0,1-.69-5.53l12-32a6,6,0,1,1,11.24,4.22l-9,23.89H144a6,6,0,0,1,5.62,8.11l-12,32a6,6,0,0,1-11.24-4.22l9-23.89H112A6,6,0,0,1,107.07,131.42Z"/></svg>