<svg xmlns="http://www.w3.org/2000/svg" viewBox="0 0 256 256" fill="currentColor"><path d="M234.83,69.17a4,4,0,0,0-5.66,0L192,106.34,149.66,64l37.17-37.17a4,4,0,1,0-5.66-5.66L144,58.34,114.83,29.17a4,4,0,0,0-5.66,5.66L118.34,44,62.54,99.8a36.05,36.05,0,0,0,0,50.91l18.55,18.54L29.17,221.17a4,4,0,0,0,5.66,5.66l51.92-51.92,18.54,18.55a36.06,36.06,0,0,0,50.91,0l55.8-55.8,9.17,9.17a4,4,0,0,0,5.66-5.66L197.66,112l37.17-37.17A4,4,0,0,0,234.83,69.17ZM150.54,187.8a28,28,0,0,1-39.59,0L68.2,145.05a28,28,0,0,1,0-39.59L124,49.66,206.34,132Z"/></svg>