<svg xmlns="http://www.w3.org/2000/svg" viewBox="0 0 256 256" fill="currentColor"><path d="M224,48H180V16a12,12,0,0,0-24,0V48H100V16a12,12,0,0,0-24,0V48H32.55C24.4,48,20,54.18,20,60A12,12,0,0,0,32,72H44v92a44.05,44.05,0,0,0,44,44h28v32a12,12,0,0,0,24,0V208h28a44.05,44.05,0,0,0,44-44V72h12a12,12,0,0,0,0-24ZM188,164a20,20,0,0,1-20,20H88a20,20,0,0,1-20-20V72H188Zm-85.86-29.17a12,12,0,0,1-1.38-11l12-32a12,12,0,1,1,22.48,8.42L129.32,116H144a12,12,0,0,1,11.24,16.21l-12,32a12,12,0,0,1-22.48-8.42L126.68,140H112A12,12,0,0,1,102.14,134.83Z"/></svg>