<svg xmlns="http://www.w3.org/2000/svg" viewBox="0 0 256 256" fill="currentColor"><path d="M128,32a96,96,0,1,0,96,96A96,96,0,0,0,128,32Zm0,152a56,56,0,1,1,56-56A56,56,0,0,1,128,184Z" opacity="0.2"/><path d="M128,24A104,104,0,1,0,232,128,104.11,104.11,0,0,0,128,24Zm0,152a48,48,0,1,1,48-48A48.05,48.05,0,0,1,128,176Zm39.21-98.53a63.66,63.66,0,0,0-31.21-13V40.37a87.6,87.6,0,0,1,48.28,20ZM120,64.52a63.66,63.66,0,0,0-31.21,13L71.72,60.4a87.6,87.6,0,0,1,48.28-20ZM77.47,88.79a63.66,63.66,0,0,0-13,31.21H40.37a87.6,87.6,0,0,1,20-48.28ZM64.52,136a63.66,63.66,0,0,0,13,31.21L60.4,184.28a87.6,87.6,0,0,1-20-48.28Zm24.27,42.53A63.66,63.66,0,0,0,120,191.48v24.15a87.6,87.6,0,0,1-48.28-20ZM136,191.48a63.66,63.66,0,0,0,31.21-12.95l17.07,17.07a87.6,87.6,0,0,1-48.28,20Zm42.53-24.27A63.66,63.66,0,0,0,191.48,136h24.15a87.6,87.6,0,0,1-20,48.28ZM191.48,120a63.66,63.66,0,0,0-12.95-31.21L195.6,71.72a87.6,87.6,0,0,1,20,48.28Z"/></svg>