<svg xmlns="http://www.w3.org/2000/svg" viewBox="0 0 256 256" fill="currentColor"><path d="M184,176h40v24a8,8,0,0,1-8,8H192a8,8,0,0,1-8-8ZM32,200a8,8,0,0,0,8,8H64a8,8,0,0,0,8-8V176H32ZM194.3,60a8,8,0,0,0-6.94-4H68.64a8,8,0,0,0-6.94,4L32,112H224Z" opacity="0.2"/><path d="M240,104H228.64L201.25,56.06A16,16,0,0,0,187.36,48H68.64a16,16,0,0,0-13.89,8.06L27.36,104H16a8,8,0,0,0,0,16h8v80a16,16,0,0,0,16,16H64a16,16,0,0,0,16-16V184h96v16a16,16,0,0,0,16,16h24a16,16,0,0,0,16-16V120h8a8,8,0,0,0,0-16ZM68.64,64H187.36l22.85,40H45.79ZM64,200H40V184H64Zm128,0V184h24v16Zm24-32H40V120H216ZM56,144a8,8,0,0,1,8-8H80a8,8,0,0,1,0,16H64A8,8,0,0,1,56,144Zm112,0a8,8,0,0,1,8-8h16a8,8,0,0,1,0,16H176A8,8,0,0,1,168,144ZM96,24a8,8,0,0,1,8-8h48a8,8,0,0,1,0,16H104A8,8,0,0,1,96,24Z"/></svg>