<svg xmlns="http://www.w3.org/2000/svg" viewBox="0 0 256 256" fill="currentColor"><path d="M227.81,52.19a28,28,0,0,0-39.6,0h0a27.84,27.84,0,0,0-5.88,8.65l-34.56-9.42A28,28,0,0,0,100.2,28.19h0a28.05,28.05,0,0,0-3.48,35.37L57.91,98.49a28,28,0,0,0-37.72,1.71h0a28,28,0,0,0,39.6,39.6l.18-.19,75.32,55.24A28,28,0,1,0,173,183.2l29.56-83.75A28.52,28.52,0,0,0,208,100a28,28,0,0,0,19.8-47.79ZM105.86,33.85a20,20,0,1,1,0,28.29A20,20,0,0,1,105.86,33.85Zm-80,100.29a20,20,0,1,1,28.28,0A20,20,0,0,1,25.85,134.14Zm148.3,88a20,20,0,1,1,0-28.28A20,20,0,0,1,174.15,222.15Zm-8.7-41.6a28,28,0,0,0-25.25,7.66h0l-.18.19L64.71,133.16a28.13,28.13,0,0,0-1.44-28.73L102.08,69.5a28,28,0,0,0,43.6-10.36l34.56,9.43a28,28,0,0,0,8,23.22,27.64,27.64,0,0,0,6.8,5Zm56.7-94.41a20,20,0,1,1,0-28.29A20,20,0,0,1,222.15,86.14Z"/></svg>