<svg xmlns="http://www.w3.org/2000/svg" viewBox="0 0 256 256" fill="currentColor"><path d="M233.47,97.45a36,36,0,0,0-50.92-50.92h0a36.18,36.18,0,0,0-4.12,4.95l-22.55-6.15a36,36,0,0,0-61.34-22.8h0a36.05,36.05,0,0,0-7.8,39.24L57.19,88.37a36.08,36.08,0,0,0-42.66,6.17h0a36,36,0,0,0,45.73,55.21l65.28,47.87A36,36,0,1,0,182.62,180L208,108A35.91,35.91,0,0,0,233.47,97.45Zm-93.74,80.81L74.45,130.39a36.19,36.19,0,0,0-1.21-24.17L102.8,79.61a36,36,0,0,0,42.66-6.16,35.47,35.47,0,0,0,4.12-5l22.55,6.15a35.86,35.86,0,0,0,10.42,22.8A38.06,38.06,0,0,0,185.4,100L160,172A36,36,0,0,0,139.73,178.26ZM216.5,63.5a12,12,0,1,1-17,0A12,12,0,0,1,216.5,63.5Zm-105-24a12,12,0,1,1,0,17A12,12,0,0,1,111.51,39.5Zm-80,89a12,12,0,1,1,17,0A12,12,0,0,1,31.5,128.49Zm137,88a12,12,0,1,1,0-17A12,12,0,0,1,168.49,216.5Z"/></svg>