<svg xmlns="http://www.w3.org/2000/svg" viewBox="0 0 256 256" fill="currentColor"><path d="M228.14,75.66a6,6,0,0,0-5.79-1.43l-1.41.4a42,42,0,0,0-54.07-30.52,42,42,0,0,0-77.74,0A42,42,0,0,0,35.06,74.63l-1.41-.4a6,6,0,0,0-7.49,7.14L56.71,211.21A14,14,0,0,0,70.34,222H185.66a14,14,0,0,0,13.63-10.79L229.84,81.37A6,6,0,0,0,228.14,75.66ZM76,54a29.54,29.54,0,0,1,14,3.49,6,6,0,0,0,8.68-4,30,30,0,0,1,58.56,0,6,6,0,0,0,8.67,4A29.6,29.6,0,0,1,180,54a30,30,0,0,1,29.39,23.94L168.32,89.67l-35.12-14a14,14,0,0,0-10.4,0l-35.12,14L46.61,77.94A30,30,0,0,1,76,54Zm85.44,45.84L146.75,210h-37.5L94.56,99.84l32.7-13.08a2,2,0,0,1,1.48,0Zm-93,108.62L40.18,88.58l42.39,12.11L97.15,210H70.34A2,2,0,0,1,68.39,208.46Zm119.22,0a2,2,0,0,1-2,1.54H158.85l14.58-109.31,42.39-12.11Z"/></svg>