<svg xmlns="http://www.w3.org/2000/svg" viewBox="0 0 256 256" fill="currentColor"><path d="M122.83,138.83h0L145,116.7c9,4.89,18.06,7.35,26.81,7.35a45.57,45.57,0,0,0,23.87-6.74c22.42-13.58,34.41-45.45,32.07-85.26A4,4,0,0,0,224,28.29c-39.81-2.35-71.68,9.65-85.26,32.07-9.21,15.2-9,33.09.61,50.68L120,130.34l-17.06-17.06c6.66-12.78,6.71-26.2,0-37.22C92.89,59.4,69.33,50.49,40,52.21A4,4,0,0,0,36.21,56c-1.73,29.36,7.19,52.92,23.85,63A34.29,34.29,0,0,0,78,124a42,42,0,0,0,19.34-5l17,17.06-12,12H56a4,4,0,0,0,0,8H68.79L82.7,218.6A11.93,11.93,0,0,0,94.42,228h67.17a11.93,11.93,0,0,0,11.71-9.4L187.21,156H200a4,4,0,0,0,0-8H113.66l9.17-9.17Zm22.7-74.32C157.15,45.31,184.8,34.8,219.9,36.1c1.29,35.1-9.21,62.74-28.41,74.37-13.08,7.92-28.77,7.32-44.29-1.68C138.21,93.28,137.61,77.59,145.53,64.51ZM95.05,111.05c-10.84,6.19-21.76,6.59-30.84,1.08C50.78,104,43.35,84.68,44,60c24.64-.69,44,6.74,52.1,20.17C101.64,89.29,101.24,100.21,95.05,111.05Zm84,45-13.53,60.87a4,4,0,0,1-3.9,3.13H94.42a4,4,0,0,1-3.91-3.13L77,156Z"/></svg>