<svg xmlns="http://www.w3.org/2000/svg" viewBox="0 0 256 256" fill="currentColor"><path d="M216,44H132V24a4,4,0,0,0-8,0V44H40A12,12,0,0,0,28,56V176a12,12,0,0,0,12,12H87.68l-26.8,33.5a4,4,0,1,0,6.24,5L97.92,188h60.16l30.8,38.5a4,4,0,0,0,6.24-5L168.32,188H216a12,12,0,0,0,12-12V56A12,12,0,0,0,216,44Zm4,132a4,4,0,0,1-4,4H40a4,4,0,0,1-4-4V56a4,4,0,0,1,4-4H216a4,4,0,0,1,4,4ZM100,120v24a4,4,0,0,1-8,0V120a4,4,0,0,1,8,0Zm32-16v40a4,4,0,0,1-8,0V104a4,4,0,0,1,8,0Zm32-16v56a4,4,0,0,1-8,0V88a4,4,0,0,1,8,0Z"/></svg>