<svg xmlns="http://www.w3.org/2000/svg" viewBox="0 0 256 256" fill="currentColor"><path d="M232,96v80H192V152H64v24H24V96c0-8.84,7.76-16,17.33-16H214.67C224.24,80,232,87.16,232,96Z" opacity="0.2"/><path d="M214.67,72H200V40a8,8,0,0,0-8-8H64a8,8,0,0,0-8,8V72H41.33C27.36,72,16,82.77,16,96v80a8,8,0,0,0,8,8H56v32a8,8,0,0,0,8,8H192a8,8,0,0,0,8-8V184h32a8,8,0,0,0,8-8V96C240,82.77,228.64,72,214.67,72ZM72,48H184V72H72ZM184,208H72V160H184Zm40-40H200V152a8,8,0,0,0-8-8H64a8,8,0,0,0-8,8v16H32V96c0-4.41,4.19-8,9.33-8H214.67c5.14,0,9.33,3.59,9.33,8Zm-24-52a12,12,0,1,1-12-12A12,12,0,0,1,200,116Z"/></svg>