<svg xmlns="http://www.w3.org/2000/svg" viewBox="0 0 256 256" fill="currentColor"><path d="M88,144V128a8,8,0,0,1,16,0v16a8,8,0,0,1-16,0Zm40,8a8,8,0,0,0,8-8V120a8,8,0,0,0-16,0v24A8,8,0,0,0,128,152Zm32,0a8,8,0,0,0,8-8V112a8,8,0,0,0-16,0v32A8,8,0,0,0,160,152Zm56-72v96h8a8,8,0,0,1,0,16H136v17.38a24,24,0,1,1-16,0V192H32a8,8,0,0,1,0-16h8V80A16,16,0,0,1,24,64V48A16,16,0,0,1,40,32H216a16,16,0,0,1,16,16V64A16,16,0,0,1,216,80ZM136,232a8,8,0,1,0-8,8A8,8,0,0,0,136,232ZM40,64H216V48H40ZM200,80H56v96H200Z"/></svg>