<svg xmlns="http://www.w3.org/2000/svg" viewBox="0 0 256 256" fill="currentColor"><path d="M232.49,84.2,171.8,23.51a12,12,0,0,0-17,0L99.45,79.07c-8.08-3-32.79-9.45-59,11.67a12,12,0,0,0-1,17.84l51.13,51.13L45.17,205.17a4,4,0,0,0,5.66,5.66l45.46-45.47,51.12,51.12A12,12,0,0,0,155.9,220c.28,0,.57,0,.85,0a12,12,0,0,0,8.73-4.74c19.83-26.36,16.51-47.18,11.71-58.57l55.3-55.49A12,12,0,0,0,232.49,84.2Zm-5.66,11.31h0L169.56,153a4,4,0,0,0-.75,4.61c10.43,20.85-1.62,42-9.73,52.83a4,4,0,0,1-6,.4L45.17,102.93a4,4,0,0,1,.33-6C58.44,86.53,70.86,83.74,80.44,83.74A43.9,43.9,0,0,1,98.6,87.38a4,4,0,0,0,4.62-.75l57.27-57.46a4,4,0,0,1,5.66,0l60.68,60.69A4,4,0,0,1,226.83,95.51Z"/></svg>