<svg xmlns="http://www.w3.org/2000/svg" viewBox="0 0 256 256" fill="currentColor"><path d="M53.92,34.62A8,8,0,1,0,42.08,45.38L67.37,73.2A69.82,69.82,0,0,0,38,87.63a16,16,0,0,0-1.29,23.78L85,159.71,42.34,202.34a8,8,0,0,0,11.32,11.32L96.29,171l48.29,48.29A16,16,0,0,0,155.9,224c.38,0,.75,0,1.13,0a15.93,15.93,0,0,0,11.64-6.33,89.75,89.75,0,0,0,11.58-20.27l21.84,24a8,8,0,1,0,11.84-10.76ZM155.9,208,48,100.08C58.23,91.83,69.2,87.72,80.66,87.81l87.16,95.88C165.59,193.56,160.24,202.23,155.9,208Zm79.42-104-44.64,44.79a8,8,0,1,1-11.33-11.3L224,92.7,163.32,32,122.1,73.35a8,8,0,0,1-11.33-11.29L152,20.7a16,16,0,0,1,22.63,0l60.69,60.68A16,16,0,0,1,235.32,104Z"/></svg>