<svg xmlns="http://www.w3.org/2000/svg" viewBox="0 0 256 256" fill="currentColor"><path d="M52.44,36A6,6,0,0,0,43.56,44L71.27,74.51C61.78,76,50.6,80,39.22,89.18A14,14,0,0,0,38.1,110l49.71,49.71-44.05,44a6,6,0,1,0,8.48,8.48l44.05-44.05L146,217.89a14,14,0,0,0,9.9,4.11q.49,0,1,0a14,14,0,0,0,10.19-5.54,85.51,85.51,0,0,0,12.44-22.84l24,26.45a6,6,0,1,0,8.87-8.08ZM157.49,209.21a2,2,0,0,1-3,.2L46.58,101.51a2,2,0,0,1,.18-3c13.18-10.64,25.84-12.9,34.79-12.7L170,183.11C167.83,193.74,162.11,203.07,157.49,209.21Zm76.42-106.62-44.65,44.78a6,6,0,1,1-8.5-8.47l44.65-44.79a2,2,0,0,0,0-2.84L164.73,30.59a2,2,0,0,0-2.83,0L120.68,71.94a6,6,0,0,1-8.5-8.47l41.23-41.36a14,14,0,0,1,19.81,0l60.69,60.69A14,14,0,0,1,233.91,102.59Z"/></svg>