<svg xmlns="http://www.w3.org/2000/svg" viewBox="0 0 256 256" fill="currentColor"><path d="M190.46,176H56L78.83,46.61A8,8,0,0,1,86.71,40H176l22.34,126.61A8,8,0,0,1,190.46,176Z" opacity="0.2"/><path d="M83.25,40a8,8,0,0,1,8-8H192a8,8,0,0,1,0,16h-6.46l18.75,106.3a8,8,0,0,1-6.48,9.26,7.52,7.52,0,0,1-1.4.13,8,8,0,0,1-7.87-6.61L169.29,48h-78A8,8,0,0,1,83.25,40ZM213.38,221.92a8,8,0,0,1-11.3-.54L168.1,184H136v56a8,8,0,0,1-16,0V184H40a8,8,0,0,1,0-16h9.29L66.24,72,42.08,45.38A8,8,0,1,1,53.92,34.62l160,176A8,8,0,0,1,213.38,221.92ZM153.55,168,79.84,86.92,65.54,168Z"/></svg>