<svg xmlns="http://www.w3.org/2000/svg" viewBox="0 0 256 256" fill="currentColor"><path d="M218.14,161.93a4,4,0,0,0-3.86-.24,24,24,0,0,1-34.23-23.25,24,24,0,0,1,34.23-20.13A4,4,0,0,0,220,114.7V72a12,12,0,0,0-12-12H167a32,32,0,1,0-62.91-10.33A32.57,32.57,0,0,0,105,60H64A12,12,0,0,0,52,72v37a32,32,0,1,0-10.33,62.91A32.28,32.28,0,0,0,52,171v37a12,12,0,0,0,12,12H208a12,12,0,0,0,12-12V165.31A4,4,0,0,0,218.14,161.93ZM212,208a4,4,0,0,1-4,4H64a4,4,0,0,1-4-4V165.31a4,4,0,0,0-1.86-3.38,4,4,0,0,0-3.85-.24,24,24,0,0,1-34.24-20.13,24,24,0,0,1,34.24-23.25A4,4,0,0,0,60,114.7V72a4,4,0,0,1,4-4h46.69a4,4,0,0,0,3.62-5.71,24,24,0,0,1,20.13-34.24,24,24,0,0,1,23.25,34.24A4,4,0,0,0,161.31,68H208a4,4,0,0,1,4,4v37a32.57,32.57,0,0,0-10.33-.94A32,32,0,1,0,212,171Z"/></svg>