<svg xmlns="http://www.w3.org/2000/svg" viewBox="0 0 256 256" fill="currentColor"><path d="M100,36H56A20,20,0,0,0,36,56v44a20,20,0,0,0,20,20h44a20,20,0,0,0,20-20V56A20,20,0,0,0,100,36ZM96,96H60V60H96Zm4,40H56a20,20,0,0,0-20,20v44a20,20,0,0,0,20,20h44a20,20,0,0,0,20-20V156A20,20,0,0,0,100,136Zm-4,60H60V160H96ZM200,36H156a20,20,0,0,0-20,20v44a20,20,0,0,0,20,20h44a20,20,0,0,0,20-20V56A20,20,0,0,0,200,36Zm-4,60H160V60h36Zm-60,76V148a12,12,0,0,1,24,0v24a12,12,0,0,1-24,0Zm84-8a12,12,0,0,1-12,12H196v32a12,12,0,0,1-12,12H148a12,12,0,0,1,0-24h24V148a12,12,0,0,1,24,0v4h12A12,12,0,0,1,220,164Z"/></svg>