<svg xmlns="http://www.w3.org/2000/svg" viewBox="0 0 256 256" fill="currentColor"><path d="M110,164a10,10,0,1,1-10-10A10,10,0,0,1,110,164Zm46-10a10,10,0,1,0,10,10A10,10,0,0,0,156,154Zm58,34a50,50,0,0,1-86,34.7,50,50,0,1,1-69.39-71.91A70,70,0,0,1,65.23,129a235.12,235.12,0,0,1-20.56-59.3c-3-15.62-5-36.91,2.69-49.62A19.84,19.84,0,0,1,65.07,10C89.91,10,105.23,52.92,114,91.43a69.44,69.44,0,0,1,28,0C150.77,52.92,166.09,10,190.93,10a19.84,19.84,0,0,1,17.71,10.11c7.68,12.71,5.7,34,2.69,49.62A235.12,235.12,0,0,1,190.77,129a70,70,0,0,1,6.62,21.76A49.79,49.79,0,0,1,214,188ZM153.56,94.83a70.05,70.05,0,0,1,21.64,13.48,71.17,71.17,0,0,1,8.05,8.72C199.87,81.2,207,40.54,198.37,26.32A8,8,0,0,0,190.93,22C178.1,22,163.61,50.4,153.56,94.83ZM72.75,117a71.17,71.17,0,0,1,8-8.72,70.05,70.05,0,0,1,21.64-13.48C92.39,50.4,77.9,22,65.07,22a8,8,0,0,0-7.44,4.32C49,40.54,56.13,81.2,72.75,117ZM202,188a37.87,37.87,0,0,0-14.07-29.52,6.05,6.05,0,0,1-2.2-4.09,58,58,0,0,0-115.44,0,6,6,0,0,1-2.19,4.08,38,38,0,1,0,51.5,55.64l-11.42-9.5a6,6,0,1,1,7.67-9.22L128,205.5l12.16-10.11a6,6,0,1,1,7.67,9.22l-11.42,9.5A38,38,0,0,0,202,188Z"/></svg>