<svg xmlns="http://www.w3.org/2000/svg" viewBox="0 0 256 256" fill="currentColor"><path d="M228.53,27.47C201.38.33,152.16,5.37,118.81,38.72,87.22,70.31,81.05,116.13,103.56,144L71.33,176.19l-2.1-2.11a14,14,0,0,0-19.8,0L22.1,201.41a14,14,0,0,0,0,19.8l12.69,12.7a14,14,0,0,0,19.81,0h0l27.32-27.32a14,14,0,0,0,0-19.81l-2.1-2.1L112,152.46c11.17,9,25.24,13.45,40.13,13.45,22.2,0,46.21-9.81,65.12-28.72C250.63,103.84,255.67,54.62,228.53,27.47ZM73.43,198.09,46.11,225.42a2,2,0,0,1-2.83,0L30.59,212.73a2,2,0,0,1,0-2.83l27.32-27.33a2,2,0,0,1,1.42-.58,2,2,0,0,1,1.41.58l6.35,6.34h0l6.34,6.34a2,2,0,0,1,0,2.83ZM232.34,58H198.06V23.66A46.33,46.33,0,0,1,232.34,58Zm-48.44-36c.72,0,1.44,0,2.15,0V58H150V30.57A74.84,74.84,0,0,1,183.9,21.92Zm2.15,48v36H150V70ZM127.3,47.21A93.2,93.2,0,0,1,138,38V58h-20A93.3,93.3,0,0,1,127.3,47.21ZM110.65,70H138v36h-36C101.66,94.28,104.58,81.79,110.65,70Zm-6.9,48H138v34.28A46.33,46.33,0,0,1,103.75,118Zm46.29,36V118h36v27.38C174.21,151.42,161.72,154.34,150,153.93Zm58.75-25.23a93.07,93.07,0,0,1-10.73,9.22V118H218A94.06,94.06,0,0,1,208.79,128.7ZM225.44,106H198.06V70h36C234.43,81.63,231.51,94.12,225.44,106Z"/></svg>