<svg xmlns="http://www.w3.org/2000/svg" viewBox="0 0 256 256" fill="currentColor"><path d="M227.1,28.9C200.74,2.53,152.79,7.58,120.22,40.15c-31.39,31.39-37.2,77.07-14,103.94L71.33,179l-3.52-3.52a12,12,0,0,0-17,0L23.52,202.82a12,12,0,0,0,0,17l12.69,12.69a12,12,0,0,0,17,0h0L80.5,205.17a12,12,0,0,0,0-17L77,184.68l34.93-34.94c11,9.53,25.18,14.19,40.24,14.19,21.67,0,45.17-9.62,63.7-28.15C248.42,103.21,253.47,55.26,227.1,28.9ZM74.84,199.51,47.52,226.83a4,4,0,0,1-5.66,0L29.17,214.14a4,4,0,0,1,0-5.66L56.5,181.16a4,4,0,0,1,5.65,0l6.35,6.34h0l6.34,6.34a4,4,0,0,1,0,5.66ZM234.83,60H196.05V21.17A48.55,48.55,0,0,1,234.83,60ZM183.9,20c1.39,0,2.77.06,4.14.15V60H148V29.37A77.32,77.32,0,0,1,183.9,20ZM188,68v40H148V68ZM125.88,45.8A95.34,95.34,0,0,1,140,34.16V60h-25.8A94.36,94.36,0,0,1,125.88,45.8ZM109.44,68H140v40H100.17C99.33,95,102.49,81.07,109.44,68Zm-8.19,48H140v38.78A48.48,48.48,0,0,1,101.25,116ZM148,155.83V116h40v30.59C174.93,153.51,161,156.68,148,155.83Zm62.17-25.71a94.8,94.8,0,0,1-14.15,11.65V116h25.8A93.8,93.8,0,0,1,210.2,130.12ZM226.63,108H196.05V68H235.9C236.75,80.89,233.58,94.86,226.63,108Z"/></svg>