<svg xmlns="http://www.w3.org/2000/svg" viewBox="0 0 256 256" fill="currentColor"><path d="M92,134H40a13.94,13.94,0,0,1-10.28-4.56,14.17,14.17,0,0,1-3.66-10.84,101.81,101.81,0,0,1,42.75-74A14,14,0,0,1,89,49l26,45a6,6,0,0,1-10.4,6L78.62,55a2,2,0,0,0-2.88-.65A89.83,89.83,0,0,0,38,119.68a2.13,2.13,0,0,0,.57,1.67A1.88,1.88,0,0,0,40,122H92a6,6,0,0,1,0,12Zm137.94-15.4a101.81,101.81,0,0,0-42.75-74A14,14,0,0,0,167,49L141,94a6,6,0,0,0,10.4,6L177.38,55a2,2,0,0,1,2.88-.65A89.83,89.83,0,0,1,218,119.68a2.13,2.13,0,0,1-.57,1.67A1.88,1.88,0,0,1,216,122H164a6,6,0,0,0,0,12h52a13.94,13.94,0,0,0,10.28-4.56A14.17,14.17,0,0,0,229.94,118.6ZM151.2,156.18a6,6,0,1,0-10.39,6l25.82,44.73a2,2,0,0,1-.88,2.82,90.29,90.29,0,0,1-75.5,0,2,2,0,0,1-.88-2.82l25.82-44.73a6,6,0,1,0-10.39-6L79,200.91a14,14,0,0,0,6.23,19.71,102.29,102.29,0,0,0,85.58,0A14,14,0,0,0,177,200.91ZM128,138a10,10,0,1,0-10-10A10,10,0,0,0,128,138Z"/></svg>