<svg xmlns="http://www.w3.org/2000/svg" viewBox="0 0 256 256" fill="currentColor"><path d="M215.88,56.39l-29.75,169a8,8,0,0,1-9.27,6.49l-130.25-23a8,8,0,0,1-6.49-9.26l29.75-169a8,8,0,0,1,9.27-6.49l130.25,23A8,8,0,0,1,215.88,56.39Z" opacity="0.2"/><path d="M210.78,39.25l-130.25-23A16,16,0,0,0,62,29.23l-29.75,169a16,16,0,0,0,13,18.53l130.25,23h0a16,16,0,0,0,18.54-13l29.75-169A16,16,0,0,0,210.78,39.25ZM178.26,224h0L48,201,77.75,32,208,55ZM89.34,58.42a8,8,0,0,1,9.27-6.48l83,14.65a8,8,0,0,1-1.39,15.88,8.36,8.36,0,0,1-1.4-.12l-83-14.66A8,8,0,0,1,89.34,58.42ZM83.8,89.94a8,8,0,0,1,9.27-6.49l83,14.66A8,8,0,0,1,174.67,114a7.55,7.55,0,0,1-1.41-.13l-83-14.65A8,8,0,0,1,83.8,89.94Zm-5.55,31.51A8,8,0,0,1,87.52,115L129,122.29a8,8,0,0,1-1.38,15.88,8.27,8.27,0,0,1-1.4-.12l-41.5-7.33A8,8,0,0,1,78.25,121.45Z"/></svg>