<svg xmlns="http://www.w3.org/2000/svg" viewBox="0 0 256 256" fill="currentColor"><path d="M182,104a6,6,0,0,1-6,6H80a6,6,0,0,1,0-12h96A6,6,0,0,1,182,104Zm-6,26H80a6,6,0,0,0,0,12h96a6,6,0,0,0,0-12Zm54-74V208a6,6,0,0,1-2.85,5.1,5.93,5.93,0,0,1-3.15.9,6,6,0,0,1-2.68-.63L192,198.71l-29.32,14.66a6,6,0,0,1-5.36,0L128,198.71,98.68,213.37a6,6,0,0,1-5.36,0L64,198.71,34.68,213.37A6,6,0,0,1,26,208V56A14,14,0,0,1,40,42H216A14,14,0,0,1,230,56Zm-12,0a2,2,0,0,0-2-2H40a2,2,0,0,0-2,2V198.29l23.32-11.66a6,6,0,0,1,5.36,0L96,201.29l29.32-14.66a6,6,0,0,1,5.36,0L160,201.29l29.32-14.66a6,6,0,0,1,5.36,0L218,198.29Z"/></svg>