<svg xmlns="http://www.w3.org/2000/svg" viewBox="0 0 256 256" fill="currentColor"><path d="M224,56V200a8,8,0,0,1-8,8H40a8,8,0,0,1-8-8V56a8,8,0,0,1,8-8H216A8,8,0,0,1,224,56Z" opacity="0.2"/><path d="M80,48a8,8,0,0,1-8,8H40V72a8,8,0,0,1-16,0V56A16,16,0,0,1,40,40H72A8,8,0,0,1,80,48ZM32,152a8,8,0,0,0,8-8V112a8,8,0,0,0-16,0v32A8,8,0,0,0,32,152Zm40,48H40V184a8,8,0,0,0-16,0v16a16,16,0,0,0,16,16H72a8,8,0,0,0,0-16Zm72,0H112a8,8,0,0,0,0,16h32a8,8,0,0,0,0-16Zm80-24a8,8,0,0,0-8,8v16H184a8,8,0,0,0,0,16h32a16,16,0,0,0,16-16V184A8,8,0,0,0,224,176Zm0-72a8,8,0,0,0-8,8v32a8,8,0,0,0,16,0V112A8,8,0,0,0,224,104Zm-8-64H184a8,8,0,0,0,0,16h32V72a8,8,0,0,0,16,0V56A16,16,0,0,0,216,40Zm-72,0H112a8,8,0,0,0,0,16h32a8,8,0,0,0,0-16Z"/></svg>