<svg xmlns="http://www.w3.org/2000/svg" viewBox="0 0 256 256" fill="currentColor"><path d="M228.21,124.67h0A51.6,51.6,0,0,1,232,144c0,39.76-46.56,72-104,72S24,183.76,24,144a51.6,51.6,0,0,1,3.79-19.33h0A24,24,0,1,1,59.41,89.88h0C77.72,78.75,101.72,72,128,72s50.28,6.75,68.59,17.88h0a24,24,0,1,1,31.62,34.79Z" opacity="0.2"/><path d="M248,104a32,32,0,0,0-52.94-24.19c-16.75-8.9-36.76-14.28-57.66-15.53l5.19-31.17,17.72,2.72a24,24,0,1,0,2.87-15.74l-26-4a8,8,0,0,0-9.11,6.59L121.2,64.16c-21.84.94-42.82,6.38-60.26,15.65a32,32,0,0,0-42.59,47.74A59,59,0,0,0,16,144c0,21.93,12,42.35,33.91,57.49C70.88,216,98.61,224,128,224s57.12-8,78.09-22.51C228,186.35,240,165.93,240,144a59,59,0,0,0-2.35-16.45A32.16,32.16,0,0,0,248,104ZM184,24a8,8,0,1,1-8,8A8,8,0,0,1,184,24Zm40.13,93.78a8,8,0,0,0-3.29,10A43.62,43.62,0,0,1,224,144c0,16.53-9.59,32.27-27,44.33C178.67,201,154.17,208,128,208s-50.67-7-69-19.67C41.59,176.27,32,160.53,32,144a43.75,43.75,0,0,1,3.14-16.17,8,8,0,0,0-3.27-10A16,16,0,1,1,52.94,94.59a8,8,0,0,0,10.63,2.12l.18-.11C81.45,85.9,104.25,80,128,80h0c23.73,0,46.53,5.9,64.23,16.6l.18.11a8,8,0,0,0,10.63-2.12,16,16,0,1,1,21.07,23.19ZM88,144a16,16,0,1,1,16-16A16,16,0,0,1,88,144Zm96-16a16,16,0,1,1-16-16A16,16,0,0,1,184,128Zm-16.93,44.25a8,8,0,0,1-3.32,10.82,76.18,76.18,0,0,1-71.5,0,8,8,0,1,1,7.5-14.14,60.18,60.18,0,0,0,56.5,0A8,8,0,0,1,167.07,172.25Z"/></svg>