<svg xmlns="http://www.w3.org/2000/svg" viewBox="0 0 256 256" fill="currentColor"><path d="M20,128A76.08,76.08,0,0,1,96,52h99l-3.52-3.51a12,12,0,1,1,17-17l24,24a12,12,0,0,1,0,17l-24,24a12,12,0,0,1-17-17L195,76H96a52.06,52.06,0,0,0-52,52,12,12,0,0,1-24,0Zm204-12a12,12,0,0,0-12,12,52.06,52.06,0,0,1-52,52H61l3.52-3.51a12,12,0,1,0-17-17l-24,24a12,12,0,0,0,0,17l24,24a12,12,0,1,0,17-17L61,204h99a76.08,76.08,0,0,0,76-76A12,12,0,0,0,224,116Zm-88,48a12,12,0,0,0,12-12V104a12,12,0,0,0-17.36-10.74l-16,8a12,12,0,0,0,9.36,22V152A12,12,0,0,0,136,164Z"/></svg>