<svg xmlns="http://www.w3.org/2000/svg" viewBox="0 0 256 256" fill="currentColor"><path d="M72,160h72v56a8,8,0,0,1-8,8H72a8,8,0,0,1-8-8V168A8,8,0,0,1,72,160ZM216,96H144v64h72a8,8,0,0,0,8-8V104A8,8,0,0,0,216,96ZM136,32H72a8,8,0,0,0-8,8V88a8,8,0,0,0,8,8h72V40A8,8,0,0,0,136,32Z" opacity="0.2"/><path d="M216,88H152V40a16,16,0,0,0-16-16H72A16,16,0,0,0,56,40V88a16,16,0,0,0,16,16h64v48H72a16,16,0,0,0-16,16v48a16,16,0,0,0,16,16h64a16,16,0,0,0,16-16V168h64a16,16,0,0,0,16-16V104A16,16,0,0,0,216,88ZM136,216H72V168h64Zm0-176V88H72V40h64Zm80,112H152V104h64Z"/></svg>