<svg xmlns="http://www.w3.org/2000/svg" viewBox="0 0 256 256" fill="currentColor"><path d="M136,114H48a6,6,0,0,0-6,6v88a6,6,0,0,0,6,6h88a6,6,0,0,0,6-6V120A6,6,0,0,0,136,114Zm-6,88H54V126h76Zm84-18v16a14,14,0,0,1-14,14H176a6,6,0,0,1,0-12h24a2,2,0,0,0,2-2V184a6,6,0,0,1,12,0Zm0-72v32a6,6,0,0,1-12,0V112a6,6,0,0,1,12,0Zm0-56V72a6,6,0,0,1-12,0V56a2,2,0,0,0-2-2H184a6,6,0,0,1,0-12h16A14,14,0,0,1,214,56Zm-64-8a6,6,0,0,1-6,6H112a6,6,0,0,1,0-12h32A6,6,0,0,1,150,48ZM42,80V56A14,14,0,0,1,56,42H72a6,6,0,0,1,0,12H56a2,2,0,0,0-2,2V80a6,6,0,0,1-12,0Z"/></svg>