<svg xmlns="http://www.w3.org/2000/svg" viewBox="0 0 256 256" fill="currentColor"><path d="M136,120v88H48V120Z" opacity="0.2"/><path d="M136,112H48a8,8,0,0,0-8,8v88a8,8,0,0,0,8,8h88a8,8,0,0,0,8-8V120A8,8,0,0,0,136,112Zm-8,88H56V128h72Zm88-16v16a16,16,0,0,1-16,16H176a8,8,0,0,1,0-16h24V184a8,8,0,0,1,16,0Zm0-72v32a8,8,0,0,1-16,0V112a8,8,0,0,1,16,0Zm0-56V72a8,8,0,0,1-16,0V56H184a8,8,0,0,1,0-16h16A16,16,0,0,1,216,56Zm-64-8a8,8,0,0,1-8,8H112a8,8,0,0,1,0-16h32A8,8,0,0,1,152,48ZM40,80V56A16,16,0,0,1,56,40H72a8,8,0,0,1,0,16H56V80a8,8,0,0,1-16,0Z"/></svg>