<svg xmlns="http://www.w3.org/2000/svg" viewBox="0 0 256 256" fill="currentColor"><path d="M128,28A100,100,0,1,0,228,128,100.11,100.11,0,0,0,128,28Zm0,192a92,92,0,1,1,92-92A92.1,92.1,0,0,1,128,220ZM117.79,88.42a4,4,0,0,0-4.19.38l-48,36a4,4,0,0,0,0,6.4l48,36a4,4,0,0,0,2.4.8,4.05,4.05,0,0,0,1.79-.42A4,4,0,0,0,120,164V92A4,4,0,0,0,117.79,88.42ZM112,156,74.67,128,112,100Zm61.79-67.58a4,4,0,0,0-4.19.38l-48,36a4,4,0,0,0,0,6.4l48,36a4,4,0,0,0,2.4.8,4.05,4.05,0,0,0,1.79-.42A4,4,0,0,0,176,164V92A4,4,0,0,0,173.79,88.42ZM168,156l-37.33-28L168,100Z"/></svg>