<svg xmlns="http://www.w3.org/2000/svg" viewBox="0 0 256 256" fill="currentColor"><path d="M200,52H132V16a4,4,0,0,0-8,0V52H56A28,28,0,0,0,28,80V192a28,28,0,0,0,28,28H200a28,28,0,0,0,28-28V80A28,28,0,0,0,200,52Zm20,140a20,20,0,0,1-20,20H56a20,20,0,0,1-20-20V80A20,20,0,0,1,56,60H200a20,20,0,0,1,20,20ZM76,108a8,8,0,1,1,8,8A8,8,0,0,1,76,108Zm88,0a8,8,0,1,1,8,8A8,8,0,0,1,164,108Zm0,32H92a24,24,0,0,0,0,48h72a24,24,0,0,0,0-48Zm-20,8v32H112V148ZM76,164a16,16,0,0,1,16-16h12v32H92A16,16,0,0,1,76,164Zm88,16H152V148h12a16,16,0,0,1,0,32Z"/></svg>