<svg xmlns="http://www.w3.org/2000/svg" viewBox="0 0 256 256" fill="currentColor"><path d="M148,224a4,4,0,0,1-4,4H112a4,4,0,0,1,0-8h32A4,4,0,0,1,148,224ZM128,108a8,8,0,1,0-8-8A8,8,0,0,0,128,108Zm91.72,47L207.35,210.6a11.9,11.9,0,0,1-7.72,8.71,12.17,12.17,0,0,1-4,.69,11.94,11.94,0,0,1-7.43-2.6L159.85,196H96.15L67.81,217.4a11.94,11.94,0,0,1-7.43,2.6,12.17,12.17,0,0,1-4-.69,11.9,11.9,0,0,1-7.72-8.71L36.28,155a12,12,0,0,1,2.5-10.28l29.35-35.23c3.3-53.33,41.83-86.68,52.52-94.94a12,12,0,0,1,14.7,0c10.69,8.26,49.22,41.61,52.52,94.94l29.35,35.23A12,12,0,0,1,219.72,155ZM97.11,188h61.78C214.07,92.49,145,32.05,130.46,20.84a4,4,0,0,0-4.92,0C111,32.05,41.93,92.49,97.11,188Zm-7.52,2.93C75.12,165.56,68.93,142.52,68,122.06L44.92,149.8a4,4,0,0,0-.83,3.43l12.36,55.63a4,4,0,0,0,6.41,2.26l.09-.07ZM211.08,149.8,188,122.06c-.89,20.46-7.08,43.5-21.55,68.87l26.64,20.12.09.07a4,4,0,0,0,6.41-2.26l12.36-55.63A4,4,0,0,0,211.08,149.8Z"/></svg>