<svg xmlns="http://www.w3.org/2000/svg" viewBox="0 0 256 256" fill="currentColor"><path d="M227.85,46.89a20,20,0,0,0-18.74-18.74c-13.13-.77-46.65.42-74.48,28.24L131,60H74.36a19.83,19.83,0,0,0-14.14,5.86L25.87,100.19a20,20,0,0,0,11.35,33.95l37.14,5.18,42.32,42.32,5.19,37.18A19.88,19.88,0,0,0,135.34,235a20.13,20.13,0,0,0,6.37,1,19.9,19.9,0,0,0,14.1-5.87l34.34-34.35A19.85,19.85,0,0,0,196,181.64V125l3.6-3.59C227.43,93.54,228.62,60,227.85,46.89ZM76,84h31L75.75,115.28l-27.23-3.8ZM151.6,73.37A72.27,72.27,0,0,1,204,52a72.17,72.17,0,0,1-21.38,52.41L128,159,97,128ZM172,180l-27.49,27.49-3.8-27.23L172,149Zm-72,22c-8.71,11.85-26.19,26-60,26a12,12,0,0,1-12-12c0-33.84,14.12-51.32,26-60A12,12,0,1,1,68.18,175.3C62.3,179.63,55.51,187.8,53,203c15.21-2.51,23.37-9.3,27.7-15.18A12,12,0,1,1,100,202Z"/></svg>