<svg xmlns="http://www.w3.org/2000/svg" viewBox="0 0 256 256" fill="currentColor"><path d="M219.86,47.36a12,12,0,0,0-11.22-11.22c-12-.71-42.82.38-68.35,25.91L134.35,68h-60a11.9,11.9,0,0,0-8.48,3.52L31.52,105.85a12,12,0,0,0,6.81,20.37l39.79,5.55,46.11,46.11,5.55,39.81a12,12,0,0,0,20.37,6.79l34.34-34.35a11.9,11.9,0,0,0,3.52-8.48v-60l5.94-5.94C219.48,90.18,220.57,59.41,219.86,47.36ZM36.21,115.6a3.94,3.94,0,0,1,1-4.09L71.53,77.17A4,4,0,0,1,74.35,76h52L78.58,123.76,39.44,118.3A3.94,3.94,0,0,1,36.21,115.6ZM180,181.65a4,4,0,0,1-1.17,2.83l-34.35,34.34a4,4,0,0,1-6.79-2.25l-5.46-39.15L180,129.65Zm-52-11.31L85.66,128l60.28-60.29c23.24-23.24,51.25-24.23,62.22-23.58a3.93,3.93,0,0,1,3.71,3.71c.65,11-.35,39-23.58,62.22ZM98.21,189.48C94,198.66,80,220,40,220a4,4,0,0,1-4-4c0-40,21.34-54,30.52-58.21a4,4,0,0,1,3.32,7.28c-7.46,3.41-24.43,14.66-25.76,46.85,32.19-1.33,43.44-18.3,46.85-25.76a4,4,0,1,1,7.28,3.32Z"/></svg>