<svg xmlns="http://www.w3.org/2000/svg" viewBox="0 0 256 256" fill="currentColor"><path d="M150,224a6,6,0,0,1-6,6H112a6,6,0,0,1,0-12h32A6,6,0,0,1,150,224ZM128,110a10,10,0,1,0-10-10A10,10,0,0,0,128,110Zm93.67,45.4L209.31,211A14,14,0,0,1,187,219l-27.79-21H96.82L69,219a14,14,0,0,1-22.34-8L34.33,155.4a14.06,14.06,0,0,1,2.91-12l29-34.76a121.28,121.28,0,0,1,8.48-36.71c12.72-31.88,35.52-51.88,44.73-59a14,14,0,0,1,17.16,0c9.21,7.12,32,27.12,44.73,59a121.28,121.28,0,0,1,8.48,36.71l29,34.76A14.06,14.06,0,0,1,221.67,155.4ZM98.26,186h59.48c21.93-38.46,26.12-75.33,12.43-109.62-11.95-30-34.35-48.87-40.93-54a2,2,0,0,0-2.48,0c-6.58,5.09-29,24-40.93,54C72.14,110.67,76.33,147.54,98.26,186ZM87,190.4c-12-21.49-18.9-42.6-20.62-63.19L46.46,151.08a2,2,0,0,0-.42,1.71l12.37,55.64a2,2,0,0,0,3.2,1.13l.13-.11Zm122.57-39.32-19.89-23.87c-1.72,20.59-8.6,41.7-20.62,63.19l25.23,19,.13.11a2,2,0,0,0,3.2-1.13L210,152.79A2,2,0,0,0,209.54,151.08Z"/></svg>