<svg xmlns="http://www.w3.org/2000/svg" viewBox="0 0 256 256" fill="currentColor"><path d="M233.91,74.79,181.22,22.1a14,14,0,0,0-19.8,0L22.09,161.41a14,14,0,0,0,0,19.8L74.78,233.9a14,14,0,0,0,19.8,0L233.91,94.59A14,14,0,0,0,233.91,74.79ZM225.42,86.1,86.1,225.41h0a2,2,0,0,1-2.83,0L30.58,172.73a2,2,0,0,1,0-2.83L64,136.48l27.76,27.76a6,6,0,1,0,8.48-8.48L72.48,128,96,104.48l27.76,27.76a6,6,0,0,0,8.48-8.48L104.48,96,128,72.49l27.76,27.75a6,6,0,0,0,8.48-8.48L136.49,64,169.9,30.59a2,2,0,0,1,2.83,0l52.69,52.68A2,2,0,0,1,225.42,86.1Z"/></svg>