<svg xmlns="http://www.w3.org/2000/svg" viewBox="0 0 256 256" fill="currentColor"><path d="M239.43,133l-32-80h0a8,8,0,0,0-9.16-4.84L136,62V40a8,8,0,0,0-16,0V65.58L54.26,80.19A8,8,0,0,0,48.57,85h0v.06L16.57,165a7.92,7.92,0,0,0-.57,3c0,23.31,24.54,32,40,32s40-8.69,40-32a7.92,7.92,0,0,0-.57-3L66.92,93.77,120,82V208H104a8,8,0,0,0,0,16h48a8,8,0,0,0,0-16H136V78.42L187,67.1,160.57,133a7.92,7.92,0,0,0-.57,3c0,23.31,24.54,32,40,32s40-8.69,40-32A7.92,7.92,0,0,0,239.43,133ZM56,184c-7.53,0-22.76-3.61-23.93-14.64L56,109.54l23.93,59.82C78.76,180.39,63.53,184,56,184Zm144-32c-7.53,0-22.76-3.61-23.93-14.64L200,77.54l23.93,59.82C222.76,148.39,207.53,152,200,152Z"/></svg>