<svg xmlns="http://www.w3.org/2000/svg" viewBox="0 0 256 256" fill="currentColor"><path d="M228,40V80a12,12,0,0,1-24,0V52H176a12,12,0,0,1,0-24h40A12,12,0,0,1,228,40ZM80,204H52V176a12,12,0,0,0-24,0v40a12,12,0,0,0,12,12H80a12,12,0,0,0,0-24Zm136-40a12,12,0,0,0-12,12v28H176a12,12,0,0,0,0,24h40a12,12,0,0,0,12-12V176A12,12,0,0,0,216,164ZM40,92A12,12,0,0,0,52,80V52H80a12,12,0,0,0,0-24H40A12,12,0,0,0,28,40V80A12,12,0,0,0,40,92ZM84,72h88a12,12,0,0,1,12,12v88a12,12,0,0,1-12,12H84a12,12,0,0,1-12-12V84A12,12,0,0,1,84,72Zm12,88h64V96H96Z"/></svg>