<svg xmlns="http://www.w3.org/2000/svg" viewBox="0 0 256 256" fill="currentColor"><path d="M202.83,53.15a4,4,0,0,1,0,5.66l-56,56a4,4,0,0,1-5.66-5.66l56-56A4,4,0,0,1,202.83,53.15ZM244,58.41a46.13,46.13,0,0,1-13.6,32.83l-53.23,53.24a11.93,11.93,0,0,1-8.48,3.51H152a4,4,0,0,0-4,4v16.83a12.08,12.08,0,0,1-2.44,7.25c-.11.14-.23.28-.35.41l-8,8a12,12,0,0,1-17,0L98.7,163,18.83,242.83a4,4,0,0,1-5.66-5.66l79.88-79.88L71.51,135.75a12,12,0,0,1,0-17l8-8a3.62,3.62,0,0,1,.42-.36A12,12,0,0,1,87.17,108H104a4,4,0,0,0,4-4V87.3a12,12,0,0,1,3.51-8.49l53.24-53.23A46.43,46.43,0,0,1,244,58.41Zm-8,0a38.43,38.43,0,0,0-65.6-27.18L117.17,84.47A4,4,0,0,0,116,87.3V104a12,12,0,0,1-12,12H87.17a4,4,0,0,0-2.23.68l-7.77,7.77a4,4,0,0,0,0,5.66l48.72,48.72a4,4,0,0,0,5.66,0l7.77-7.77a4,4,0,0,0,.68-2.23V152a12,12,0,0,1,12-12h16.69a4,4,0,0,0,2.82-1.17l53.24-53.24A38.21,38.21,0,0,0,236,58.41Z"/></svg>