<svg xmlns="http://www.w3.org/2000/svg" viewBox="0 0 256 256" fill="currentColor"><path d="M227.57,88.43l-53.23,53.23a8,8,0,0,1-5.65,2.34H152a8,8,0,0,0-8,8v16.83a8,8,0,0,1-1.62,4.83l-8,8a8,8,0,0,1-11.32,0L74.34,132.94a8,8,0,0,1,0-11.32l8-8A8,8,0,0,1,87.17,112H104a8,8,0,0,0,8-8V87.31a8,8,0,0,1,2.34-5.65l53.23-53.23a42.42,42.42,0,0,1,60,0h0A42.42,42.42,0,0,1,227.57,88.43Z" opacity="0.2"/><path d="M205.66,50.32a8,8,0,0,1,0,11.32l-56,56a8,8,0,0,1-11.32-11.31l56-56A8,8,0,0,1,205.66,50.32ZM248,58.41a50.13,50.13,0,0,1-14.77,35.66L180,147.3A15.86,15.86,0,0,1,168.69,152H152v16.83a16,16,0,0,1-3.25,9.66,8.08,8.08,0,0,1-.72.83l-8,8a16,16,0,0,1-22.62,0L98.7,168.6l-77,77.06a8,8,0,0,1-11.32-11.32l77.05-77.05-18.7-18.71a16,16,0,0,1,0-22.63l8-8a8,8,0,0,1,.82-.72A16.14,16.14,0,0,1,87.17,104H104V87.3A15.92,15.92,0,0,1,108.68,76l53.24-53.23A50.43,50.43,0,0,1,248,58.41Zm-16,0a34.43,34.43,0,0,0-58.77-24.35L120,87.3V104a16,16,0,0,1-16,16H87.28L80,127.27,128.72,176l7.28-7.28V152a16,16,0,0,1,16-16h16.69l53.23-53.24A34.21,34.21,0,0,0,232,58.41Z"/></svg>