<svg xmlns="http://www.w3.org/2000/svg" viewBox="0 0 256 256" fill="currentColor"><path d="M205.67,189.66a14.61,14.61,0,0,0,0,20.68,8,8,0,0,1-11.32,11.32,30.64,30.64,0,0,1,0-43.32l9.38-9.37A14.63,14.63,0,0,0,183,148.28L116.28,215A30.63,30.63,0,0,1,73,171.72L171.72,73A14.63,14.63,0,0,0,151,52.28L84.28,119A30.63,30.63,0,0,1,41,75.72L82.34,34.34A8,8,0,0,1,93.65,45.66L52.27,87A14.63,14.63,0,0,0,73,107.72L139.72,41A30.63,30.63,0,0,1,183,84.28L84.28,183A14.63,14.63,0,0,0,105,203.72L171.72,137A30.63,30.63,0,0,1,215,180.28Z"/></svg>