<svg xmlns="http://www.w3.org/2000/svg" viewBox="0 0 256 256" fill="currentColor"><path d="M92,92a12,12,0,0,1,12-12h60a12,12,0,0,1,0,24H104A12,12,0,0,1,92,92Zm12,52h60a12,12,0,0,0,0-24H104a12,12,0,0,0,0,24Zm132,48a36,36,0,0,1-36,36H88a36,36,0,0,1-36-36V64a12,12,0,0,0-24,0c0,3.73,3.35,6.51,3.38,6.54l-.18-.14h0A12,12,0,1,1,16.81,89.59h0C15.49,88.62,4,79.55,4,64A36,36,0,0,1,40,28H176a36,36,0,0,1,36,36V164h4a12,12,0,0,1,7.2,2.4C224.51,167.38,236,176.45,236,192ZM92.62,172.2A12,12,0,0,1,104,164h84V64a12,12,0,0,0-12-12H73.94A35.88,35.88,0,0,1,76,64V192a12,12,0,0,0,24,0c0-3.58-3.17-6.38-3.2-6.4A12,12,0,0,1,92.62,172.2ZM212,192a7.69,7.69,0,0,0-1.24-4h-87a30.32,30.32,0,0,1,.26,4,35.84,35.84,0,0,1-2.06,12H200A12,12,0,0,0,212,192Z"/></svg>