<svg xmlns="http://www.w3.org/2000/svg" viewBox="0 0 256 256" fill="currentColor"><path d="M224.42,104.2c-3.9-4.07-7.93-8.27-9.55-12.18-1.5-3.63-1.58-9-1.67-14.68-.14-9.38-.3-20-7.42-27.12S188,42.94,178.66,42.8c-5.68-.09-11-.17-14.68-1.67-3.91-1.62-8.11-5.65-12.18-9.55C145.16,25.22,137.64,18,128,18s-17.16,7.22-23.8,13.58c-4.07,3.9-8.27,7.93-12.18,9.55-3.63,1.5-9,1.58-14.68,1.67-9.38.14-20,.3-27.12,7.42S42.94,68,42.8,77.34c-.09,5.68-.17,11-1.67,14.68-1.62,3.91-5.65,8.11-9.55,12.18C25.22,110.84,18,118.36,18,128s7.22,17.16,13.58,23.8c3.9,4.07,7.93,8.27,9.55,12.18,1.5,3.63,1.58,9,1.67,14.68.14,9.38.3,20,7.42,27.12S68,213.06,77.34,213.2c5.68.09,11,.17,14.68,1.67,3.91,1.62,8.11,5.65,12.18,9.55C110.84,230.78,118.36,238,128,238s17.16-7.22,23.8-13.58c4.07-3.9,8.27-7.93,12.18-9.55,3.63-1.5,9-1.58,14.68-1.67,9.38-.14,20-.3,27.12-7.42s7.28-17.74,7.42-27.12c.09-5.68.17-11,1.67-14.68,1.62-3.91,5.65-8.11,9.55-12.18C230.78,145.16,238,137.64,238,128S230.78,110.84,224.42,104.2Zm-8.66,39.29c-4.67,4.87-9.5,9.91-12,15.91-2.38,5.74-2.48,12.52-2.58,19.08-.11,7.44-.23,15.14-3.9,18.82s-11.38,3.79-18.82,3.9c-6.56.1-13.34.2-19.08,2.58-6,2.48-11,7.31-15.91,12-5.25,5-10.68,10.24-15.49,10.24s-10.24-5.21-15.5-10.24c-4.86-4.67-9.9-9.5-15.9-12-5.74-2.38-12.52-2.48-19.08-2.58-7.44-.11-15.14-.23-18.82-3.9s-3.79-11.38-3.9-18.82c-.1-6.56-.2-13.34-2.58-19.08-2.48-6-7.31-11-12-15.91C35.21,138.24,30,132.81,30,128s5.21-10.24,10.24-15.49c4.67-4.87,9.5-9.91,12-15.91,2.38-5.74,2.48-12.52,2.58-19.08.11-7.44.23-15.14,3.9-18.82s11.38-3.79,18.82-3.9c6.56-.1,13.34-.2,19.08-2.58,6-2.48,11-7.31,15.91-12C117.76,35.21,123.19,30,128,30s10.24,5.21,15.5,10.24c4.86,4.67,9.9,9.5,15.9,12,5.74,2.38,12.52,2.48,19.08,2.58,7.44.11,15.14.23,18.82,3.9s3.79,11.38,3.9,18.82c.1,6.56.2,13.34,2.58,19.08,2.48,6,7.31,11,12,15.91,5,5.25,10.24,10.68,10.24,15.49S220.79,138.24,215.76,143.49ZM118,96a22,22,0,1,0-22,22A22,22,0,0,0,118,96ZM86,96a10,10,0,1,1,10,10A10,10,0,0,1,86,96Zm74,42a22,22,0,1,0,22,22A22,22,0,0,0,160,138Zm0,32a10,10,0,1,1,10-10A10,10,0,0,1,160,170Zm12.24-77.76-80,80a6,6,0,0,1-8.48-8.48l80-80a6,6,0,0,1,8.48,8.48Z"/></svg>