<svg xmlns="http://www.w3.org/2000/svg" viewBox="0 0 256 256" fill="currentColor"><path d="M216,160v32a8,8,0,0,1-8,8H114.11a8,8,0,0,1-7.15-4.42l-58.12-116a8,8,0,0,1,0-7.16L71,28.42a8,8,0,0,1,10.73-3.57l33.89,14.31a8,8,0,0,1,3.57,10.73L104.84,76.42a8,8,0,0,0,0,7.16l31.78,64a8,8,0,0,0,7.16,4.42H208A8,8,0,0,1,216,160Z" opacity="0.2"/><path d="M224,232a8,8,0,0,1-8,8H112a8,8,0,0,1,0-16H216A8,8,0,0,1,224,232Zm0-72v32a16,16,0,0,1-16,16H114.11a15.93,15.93,0,0,1-14.32-8.85l-58.11-116a16.1,16.1,0,0,1,0-14.32l22.12-44A16,16,0,0,1,85,17.56l33.69,14.22.47.22a16,16,0,0,1,7.15,21.46,1.51,1.51,0,0,1-.11.22L112,80l31.78,64L208,144A16,16,0,0,1,224,160Zm-16,0H143.77a15.91,15.91,0,0,1-14.31-8.85l-31.79-64a16.07,16.07,0,0,1,0-14.29l.12-.22L112,46.32,78.57,32.21c-.16-.06-.31-.14-.46-.21L56,76,114.1,192H208Z"/></svg>