<svg xmlns="http://www.w3.org/2000/svg" viewBox="0 0 256 256" fill="currentColor"><path d="M150,40a6,6,0,0,1-6,6H112a6,6,0,0,1,0-12h32A6,6,0,0,1,150,40Zm-6,170H112a6,6,0,0,0,0,12h32a6,6,0,0,0,0-12ZM208,34H184a6,6,0,0,0,0,12h24a2,2,0,0,1,2,2V72a6,6,0,0,0,12,0V48A14,14,0,0,0,208,34Zm8,72a6,6,0,0,0-6,6v32a6,6,0,0,0,12,0V112A6,6,0,0,0,216,106Zm0,72a6,6,0,0,0-6,6v24a2,2,0,0,1-2,2H184a6,6,0,0,0,0,12h24a14,14,0,0,0,14-14V184A6,6,0,0,0,216,178ZM40,150a6,6,0,0,0,6-6V112a6,6,0,0,0-12,0v32A6,6,0,0,0,40,150Zm32,60H48a2,2,0,0,1-2-2V184a6,6,0,0,0-12,0v24a14,14,0,0,0,14,14H72a6,6,0,0,0,0-12ZM72,34H48A14,14,0,0,0,34,48V72a6,6,0,0,0,12,0V48a2,2,0,0,1,2-2H72a6,6,0,0,0,0-12Z"/></svg>