<svg xmlns="http://www.w3.org/2000/svg" viewBox="0 0 256 256" fill="currentColor"><path d="M100,40a12,12,0,0,1,12-12h32a12,12,0,0,1,0,24H112A12,12,0,0,1,100,40Zm44,164H112a12,12,0,0,0,0,24h32a12,12,0,0,0,0-24ZM208,28H184a12,12,0,0,0,0,24h20V72a12,12,0,0,0,24,0V48A20,20,0,0,0,208,28Zm8,72a12,12,0,0,0-12,12v32a12,12,0,0,0,24,0V112A12,12,0,0,0,216,100ZM40,156a12,12,0,0,0,12-12V112a12,12,0,0,0-24,0v32A12,12,0,0,0,40,156Zm32,48H52V184a12,12,0,0,0-24,0v24a20,20,0,0,0,20,20H72a12,12,0,0,0,0-24ZM56.88,31.93A12,12,0,1,0,39.12,48.07l160,176a12,12,0,0,0,17.76-16.14Z"/></svg>