<svg xmlns="http://www.w3.org/2000/svg" viewBox="0 0 256 256" fill="currentColor"><path d="M106,40a6,6,0,0,1,6-6h32a6,6,0,0,1,0,12H112A6,6,0,0,1,106,40Zm38,170H112a6,6,0,0,0,0,12h32a6,6,0,0,0,0-12ZM208,34H184a6,6,0,0,0,0,12h24a2,2,0,0,1,2,2V72a6,6,0,0,0,12,0V48A14,14,0,0,0,208,34Zm8,72a6,6,0,0,0-6,6v32a6,6,0,0,0,12,0V112A6,6,0,0,0,216,106ZM40,150a6,6,0,0,0,6-6V112a6,6,0,0,0-12,0v32A6,6,0,0,0,40,150Zm32,60H48a2,2,0,0,1-2-2V184a6,6,0,0,0-12,0v24a14,14,0,0,0,14,14H72a6,6,0,0,0,0-12ZM52.44,36A6,6,0,0,0,43.56,44l160,176a6,6,0,0,0,8.88-8.08Z"/></svg>