<svg xmlns="http://www.w3.org/2000/svg" viewBox="0 0 256 256" fill="currentColor"><path d="M156,40a12,12,0,0,1-12,12H112a12,12,0,0,1,0-24h32A12,12,0,0,1,156,40ZM144,204H112a12,12,0,0,0,0,24h32a12,12,0,0,0,0-24ZM204,52V72a12,12,0,0,0,24,0V48a20,20,0,0,0-20-20H184a12,12,0,0,0,0,24Zm12,48a12,12,0,0,0-12,12v32a12,12,0,0,0,24,0V112A12,12,0,0,0,216,100ZM40,156a12,12,0,0,0,12-12V112a12,12,0,0,0-24,0v32A12,12,0,0,0,40,156Zm32,48H52V184a12,12,0,0,0-24,0v24a20,20,0,0,0,20,20H72a12,12,0,0,0,0-24ZM72,28H48A20,20,0,0,0,28,48V72a12,12,0,0,0,24,0V52H72a12,12,0,0,0,0-24ZM240,204H228V192a12,12,0,0,0-24,0v12H192a12,12,0,0,0,0,24h12v12a12,12,0,0,0,24,0V228h12a12,12,0,0,0,0-24Z"/></svg>