<svg xmlns="http://www.w3.org/2000/svg" viewBox="0 0 256 256" fill="currentColor"><path d="M160,80H48A16,16,0,0,0,32,96V208a16,16,0,0,0,16,16H160a16,16,0,0,0,16-16V96A16,16,0,0,0,160,80Zm0,128H48V96H160ZM136,40a8,8,0,0,1,8-8h16a8,8,0,0,1,0,16H144A8,8,0,0,1,136,40Zm88,8v8a8,8,0,0,1-16,0V48h-8a8,8,0,0,1,0-16h8A16,16,0,0,1,224,48Zm0,48v16a8,8,0,0,1-16,0V96a8,8,0,0,1,16,0Zm0,56v8a16,16,0,0,1-16,16h-8a8,8,0,0,1,0-16h8v-8a8,8,0,0,1,16,0ZM80,56V48A16,16,0,0,1,96,32h8a8,8,0,0,1,0,16H96v8a8,8,0,0,1-16,0Z"/></svg>