<svg xmlns="http://www.w3.org/2000/svg" viewBox="0 0 256 256" fill="currentColor"><path d="M202,171.78C177.13,218.6,128,232,128,232s-49.13-13.4-74-60.22L128,120Z" opacity="0.2"/><path d="M208,40H48A16,16,0,0,0,32,56v56c0,52.72,25.52,84.67,46.93,102.19,23.06,18.86,46,25.26,47,25.53a8,8,0,0,0,4.2,0c1-.27,23.91-6.67,47-25.53C198.48,196.67,224,164.72,224,112V56A16,16,0,0,0,208,40ZM167.4,201.42A129.3,129.3,0,0,1,128,223.62a128.25,128.25,0,0,1-38.92-21.81,111.82,111.82,0,0,1-24.51-27.64L128,129.77l63.43,44.4A111.56,111.56,0,0,1,167.4,201.42ZM208,112q0,26.31-9.14,47.84l-66.27-46.39a8,8,0,0,0-9.18,0L57.13,159.84C51.06,145.52,48,129.54,48,112l0-56,160,0Z"/></svg>