<svg xmlns="http://www.w3.org/2000/svg" viewBox="0 0 256 256" fill="currentColor"><path d="M51,37.31A4,4,0,0,0,45,42.69l1.31,1.44A12,12,0,0,0,36,56v56c0,51.16,24.73,82.12,45.47,99.1,22.4,18.32,44.55,24.5,45.48,24.76a4,4,0,0,0,2.1,0c1.37-.37,32.56-9.14,58.23-36.71L205,218.69a4,4,0,1,0,5.92-5.38Zm77,190.51a132.23,132.23,0,0,1-41.71-23.11C58.23,181.63,44,150.44,44,112V56a4,4,0,0,1,4-4H53.5L181.88,193.21C160.23,216.7,133.58,226.06,128,227.82ZM220,56v56c0,20-3.77,38.49-11.2,54.94a4,4,0,0,1-3.65,2.36,4.06,4.06,0,0,1-1.65-.36,4,4,0,0,1-2-5.29c7-15.41,10.49-32.79,10.49-51.65V56a4,4,0,0,0-4-4H98.52a4,4,0,1,1,0-8H208A12,12,0,0,1,220,56Z"/></svg>