<svg xmlns="http://www.w3.org/2000/svg" viewBox="0 0 256 256" fill="currentColor"><path d="M128,48v80H40.87A146.29,146.29,0,0,1,40,112V56a8,8,0,0,1,8-8Zm0,80V232s78.06-21.3,87.13-104Z" opacity="0.2"/><path d="M208,40H48A16,16,0,0,0,32,56v56c0,52.72,25.52,84.67,46.93,102.19,23.06,18.86,46,25.27,47,25.53a8,8,0,0,0,4.2,0c1-.26,23.91-6.67,47-25.53C198.48,196.67,224,164.72,224,112V56A16,16,0,0,0,208,40ZM120,220.55a130.85,130.85,0,0,1-30.93-18.74c-21.15-17.3-34.2-39.37-39-65.81H120ZM120,120H48.23c-.15-2.63-.23-5.29-.23-8l0-56h72Zm47.4,81.42A131.31,131.31,0,0,1,136,220.53V136h69.91C201.16,162.24,188.27,184.18,167.4,201.42ZM208,112c0,2.71-.08,5.37-.23,8H136V56h72Z"/></svg>