<svg xmlns="http://www.w3.org/2000/svg" viewBox="0 0 256 256" fill="currentColor"><path d="M228.61,60.16A6,6,0,0,0,224,58H61L54.63,22.93A6,6,0,0,0,48.73,18H24a6,6,0,0,0,0,12H43.72L69.53,171.94a21.93,21.93,0,0,0,6.24,11.77A26,26,0,1,0,113.89,190h52.22A26,26,0,1,0,188,178H91.17a10,10,0,0,1-9.84-8.21L77.73,150H196.1a22,22,0,0,0,21.65-18.06L229.9,65.07A6,6,0,0,0,228.61,60.16ZM106,204a14,14,0,1,1-14-14A14,14,0,0,1,106,204Zm96,0a14,14,0,1,1-14-14A14,14,0,0,1,202,204Zm3.94-74.21A10,10,0,0,1,196.1,138H75.55L63.19,70H216.81Z"/></svg>