<svg xmlns="http://www.w3.org/2000/svg" viewBox="0 0 256 256" fill="currentColor"><path d="M173.66,173.66l-56,56A8,8,0,0,1,112,232H32a8,8,0,0,1-8-8V144a8,8,0,0,1,2.34-5.66l56-56a8,8,0,0,1,11.32,0l80,80A8,8,0,0,1,173.66,173.66Z" opacity="0.2"/><path d="M245.66,58.34l-48-48a8,8,0,0,0-11.32,11.32L204.69,40l-71,71L99.31,76.68a16,16,0,0,0-22.62,0l-56,56A15.89,15.89,0,0,0,16,144v80a16,16,0,0,0,16,16h80a15.86,15.86,0,0,0,11.31-4.69l56-56a16,16,0,0,0,0-22.62L145,122.34l71-71,18.34,18.35a8,8,0,0,0,11.32-11.32ZM168,168l-56,56H32V144L88,88l34.34,34.34-40,40a8,8,0,0,0,11.32,11.32l40-40Z"/></svg>