<svg xmlns="http://www.w3.org/2000/svg" viewBox="0 0 256 256" fill="currentColor"><path d="M88,72l40,56L88,184H32V72Zm80,0-40,56,40,56h64V72Z" opacity="0.2"/><path d="M237.66,178.34a8,8,0,0,1,0,11.32l-24,24a8,8,0,0,1-11.32-11.32L212.69,192H168a8,8,0,0,1-6.51-3.35L83.88,80H32a8,8,0,0,1,0-16H88a8,8,0,0,1,6.51,3.35L172.12,176h40.57l-10.35-10.34a8,8,0,0,1,11.32-11.32ZM143,107a8,8,0,0,0,11.16-1.86l18-25.12h40.57L202.34,90.34a8,8,0,0,0,11.32,11.32l24-24a8,8,0,0,0,0-11.32l-24-24a8,8,0,0,0-11.32,11.32L212.69,64H168a8,8,0,0,0-6.51,3.35L141.15,95.82A8,8,0,0,0,143,107Zm-30,42a8,8,0,0,0-11.16,1.86L83.88,176H32a8,8,0,0,0,0,16H88a8,8,0,0,0,6.51-3.35l20.34-28.47A8,8,0,0,0,113,149Z"/></svg>