<svg xmlns="http://www.w3.org/2000/svg" viewBox="0 0 256 256" fill="currentColor"><path d="M236.24,179.76a6,6,0,0,1,0,8.48l-24,24a6,6,0,0,1-8.48-8.48L217.52,190H200.94a70.16,70.16,0,0,1-57-29.31l-41.71-58.4A58.11,58.11,0,0,0,55.06,78H32a6,6,0,0,1,0-12H55.06a70.16,70.16,0,0,1,57,29.31l41.71,58.4A58.11,58.11,0,0,0,200.94,178h16.58l-13.76-13.76a6,6,0,0,1,8.48-8.48Zm-92.06-74.41a5.91,5.91,0,0,0,3.48,1.12,6,6,0,0,0,4.89-2.51l1.19-1.67A58.11,58.11,0,0,1,200.94,78h16.58L203.76,91.76a6,6,0,1,0,8.48,8.48l24-24a6,6,0,0,0,0-8.48l-24-24a6,6,0,0,0-8.48,8.48L217.52,66H200.94a70.16,70.16,0,0,0-57,29.31L142.78,97A6,6,0,0,0,144.18,105.35Zm-32.36,45.3a6,6,0,0,0-8.37,1.39l-1.19,1.67A58.11,58.11,0,0,1,55.06,178H32a6,6,0,0,0,0,12H55.06a70.16,70.16,0,0,0,57-29.31l1.19-1.67A6,6,0,0,0,111.82,150.65Z"/></svg>