<svg xmlns="http://www.w3.org/2000/svg" viewBox="0 0 256 256" fill="currentColor"><path d="M232,170H60.6c3.34-6.54,6.73-13.35,10.06-20.29a26.64,26.64,0,0,0,4.3.35c14.23,0,31.09-11.12,50.33-33.22,1,3,2.2,6.25,3.68,9.56,6.89,15.45,15.68,23.39,26.14,23.6h.39c8.81,0,17.71-5.77,27-17.58C188.33,140.68,201.62,150,232,150a6,6,0,0,0,0-12c-39.69,0-41.88-16.61-42-18.06a5.83,5.83,0,0,0-4.15-5.8,6.09,6.09,0,0,0-6.88,2.59C166.81,135.4,158.9,138.06,155.34,138c-10.78-.21-19.11-23.68-21.46-35a6,6,0,0,0-10.57-2.53C104.64,123.86,88,137,76.18,137.92,100,85.84,107.23,52.7,98.23,36.78,95.44,31.86,89.66,26,77.91,26c-15,0-27,14.62-32.82,40.1C38.28,95.94,42.12,132,59.62,145c-4.15,8.64-8.4,17.08-12.52,25H24a6,6,0,0,0,0,12H40.76C28.65,204.58,19,220.66,18.86,220.91a6,6,0,1,0,10.28,6.18c.16-.26,11.56-19.27,25.21-45.09H232a6,6,0,0,0,0-12ZM56.79,68.77C61.05,50.08,69.34,38,77.91,38c6.4,0,8.64,2.51,9.87,4.69,4,7,6,28.15-22.88,91C54.59,123.39,50.73,95.3,56.79,68.77Z"/></svg>