<svg xmlns="http://www.w3.org/2000/svg" viewBox="0 0 256 256" fill="currentColor"><path d="M232,168H63.86c2.66-5.24,5.33-10.63,8-16.11,15,1.65,32.58-8.78,52.66-31.14,5,13.46,14.45,30.93,30.58,31.25,9.06.18,18.11-5.2,27.42-16.37C189.31,143.75,203.3,152,232,152a8,8,0,0,0,0-16c-30.43,0-39.43-10.45-40-16.11a7.67,7.67,0,0,0-5.46-7.75,8.14,8.14,0,0,0-9.25,3.49c-12.07,18.54-19.38,20.43-21.92,20.37-8.26-.16-16.66-19.52-19.54-33.42a8,8,0,0,0-14.09-3.37C101.54,124.55,88,133.08,79.57,135.29,88.06,116.42,94.4,99.85,98.46,85.9c6.82-23.44,7.32-39.83,1.51-50.1-3-5.38-9.34-11.8-22.06-11.8C61.85,24,49.18,39.18,43.14,65.65c-3.59,15.71-4.18,33.21-1.62,48s7.87,25.55,15.59,31.94c-3.73,7.72-7.53,15.26-11.23,22.41H24a8,8,0,0,0,0,16H37.41c-11.32,21-20.12,35.64-20.26,35.88a8,8,0,1,0,13.71,8.24c.15-.26,11.27-18.79,24.7-44.12H232a8,8,0,0,0,0-16ZM58.74,69.21C62.72,51.74,70.43,40,77.91,40c5.33,0,7.1,1.86,8.13,3.67,3,5.33,6.52,24.19-21.66,86.39C56.12,118.78,53.31,93,58.74,69.21Z"/></svg>