<svg xmlns="http://www.w3.org/2000/svg" viewBox="0 0 256 256" fill="currentColor"><path d="M128,24c-53,0-96,41.19-96,92,0,34.05,19.31,63.78,48,79.69V216a8,8,0,0,0,8,8h80a8,8,0,0,0,8-8V195.69c28.69-15.91,48-45.64,48-79.69C224,65.19,181,24,128,24ZM92,152a20,20,0,1,1,20-20A20,20,0,0,1,92,152Zm72,0a20,20,0,1,1,20-20A20,20,0,0,1,164,152Z" opacity="0.2"/><path d="M92,104a28,28,0,1,0,28,28A28,28,0,0,0,92,104Zm0,40a12,12,0,1,1,12-12A12,12,0,0,1,92,144Zm72-40a28,28,0,1,0,28,28A28,28,0,0,0,164,104Zm0,40a12,12,0,1,1,12-12A12,12,0,0,1,164,144ZM128,16C70.65,16,24,60.86,24,116c0,34.1,18.27,66,48,84.28V216a16,16,0,0,0,16,16h80a16,16,0,0,0,16-16V200.28C213.73,182,232,150.1,232,116,232,60.86,185.35,16,128,16Zm44.12,172.69a8,8,0,0,0-4.12,7V216H152V192a8,8,0,0,0-16,0v24H120V192a8,8,0,0,0-16,0v24H88V195.69a8,8,0,0,0-4.12-7C56.81,173.69,40,145.84,40,116c0-46.32,39.48-84,88-84s88,37.68,88,84C216,145.83,199.19,173.69,172.12,188.69Z"/></svg>