<svg xmlns="http://www.w3.org/2000/svg" viewBox="0 0 256 256" fill="currentColor"><path d="M164,152c0,15.44-16.15,28-36,28s-36-12.56-36-28a4,4,0,0,1,8,0c0,11,12.56,20,28,20s28-9,28-20c0-12.58-11.79-16.92-29.78-22.11C111,125.51,93.78,120.54,93.78,104c0-16,14.71-28,34.22-28,14.2,0,26.29,6.46,31.55,16.85a4,4,0,1,1-7.13,3.61C148.53,88.78,139.17,84,128,84c-15,0-26.22,8.6-26.22,20,0,9.81,10.07,13.43,26.66,18.21S164,132.46,164,152Zm64,24a52.06,52.06,0,0,1-52,52,51.43,51.43,0,0,1-30.26-9.71,92.08,92.08,0,0,1-108-108A51.43,51.43,0,0,1,28,80,52.06,52.06,0,0,1,80,28a51.43,51.43,0,0,1,30.26,9.71,92.08,92.08,0,0,1,108,108A51.43,51.43,0,0,1,228,176Zm-8,0a43.63,43.63,0,0,0-9.15-26.87,4,4,0,0,1-.75-3.29A84.07,84.07,0,0,0,110.16,45.9a4,4,0,0,1-3.29-.75,44,44,0,0,0-61.72,61.72,4,4,0,0,1,.75,3.29,84.07,84.07,0,0,0,99.94,99.94,4,4,0,0,1,3.29.75A44,44,0,0,0,220,176Z"/></svg>