<svg xmlns="http://www.w3.org/2000/svg" viewBox="0 0 256 256" fill="currentColor"><path d="M221.13,128A32,32,0,0,0,184,76.31V56a32,32,0,0,0-56-21.13A32,32,0,0,0,76.31,72H56a32,32,0,0,0-21.13,56A32,32,0,0,0,72,179.69V200a32,32,0,0,0,56,21.13A32,32,0,0,0,179.69,184H200a32,32,0,0,0,21.13-56ZM72,152a16,16,0,1,1-16-16H72Zm48,48a16,16,0,0,1-32,0V152a16,16,0,0,1,16-16h16Zm0-80H56a16,16,0,0,1,0-32h48a16,16,0,0,1,16,16Zm0-48H104a16,16,0,1,1,16-16Zm16-16a16,16,0,0,1,32,0v48a16,16,0,0,1-16,16H136Zm16,160a16,16,0,0,1-16-16V184h16a16,16,0,0,1,0,32Zm48-48H152a16,16,0,0,1-16-16V136h64a16,16,0,0,1,0,32Zm0-48H184V104a16,16,0,1,1,16,16Z"/></svg>