<svg xmlns="http://www.w3.org/2000/svg" viewBox="0 0 256 256" fill="currentColor"><path d="M68,102.06V40a12,12,0,0,0-24,0v62.06a36,36,0,0,0,0,67.88V216a12,12,0,0,0,24,0V169.94a36,36,0,0,0,0-67.88ZM56,148a12,12,0,1,1,12-12A12,12,0,0,1,56,148ZM164,88a36.07,36.07,0,0,0-24-33.94V40a12,12,0,0,0-24,0V54.06a36,36,0,0,0,0,67.88V216a12,12,0,0,0,24,0V121.94A36.07,36.07,0,0,0,164,88Zm-36,12a12,12,0,1,1,12-12A12,12,0,0,1,128,100Zm108,68a36.07,36.07,0,0,0-24-33.94V40a12,12,0,0,0-24,0v94.06a36,36,0,0,0,0,67.88V216a12,12,0,0,0,24,0V201.94A36.07,36.07,0,0,0,236,168Zm-36,12a12,12,0,1,1,12-12A12,12,0,0,1,200,180Z"/></svg>