<svg xmlns="http://www.w3.org/2000/svg" viewBox="0 0 256 256" fill="currentColor"><path d="M60,108.29V40a4,4,0,0,0-8,0v68.29a28,28,0,0,0,0,55.42V216a4,4,0,0,0,8,0V163.71a28,28,0,0,0,0-55.42ZM56,156a20,20,0,1,1,20-20A20,20,0,0,1,56,156Zm76-95.71V40a4,4,0,0,0-8,0V60.29a28,28,0,0,0,0,55.42V216a4,4,0,0,0,8,0V115.71a28,28,0,0,0,0-55.42ZM128,108a20,20,0,1,1,20-20A20,20,0,0,1,128,108Zm100,60a28,28,0,0,0-24-27.71V40a4,4,0,0,0-8,0V140.29a28,28,0,0,0,0,55.42V216a4,4,0,0,0,8,0V195.71A28,28,0,0,0,228,168Zm-28,20a20,20,0,1,1,20-20A20,20,0,0,1,200,188Z"/></svg>