<svg xmlns="http://www.w3.org/2000/svg" viewBox="0 0 256 256" fill="currentColor"><path d="M62,106.6V40a6,6,0,0,0-12,0v66.6a30,30,0,0,0,0,58.8V216a6,6,0,0,0,12,0V165.4a30,30,0,0,0,0-58.8ZM56,154a18,18,0,1,1,18-18A18,18,0,0,1,56,154Zm78-95.4V40a6,6,0,0,0-12,0V58.6a30,30,0,0,0,0,58.8V216a6,6,0,0,0,12,0V117.4a30,30,0,0,0,0-58.8ZM128,106a18,18,0,1,1,18-18A18,18,0,0,1,128,106Zm102,62a30.05,30.05,0,0,0-24-29.4V40a6,6,0,0,0-12,0v98.6a30,30,0,0,0,0,58.8V216a6,6,0,0,0,12,0V197.4A30.05,30.05,0,0,0,230,168Zm-30,18a18,18,0,1,1,18-18A18,18,0,0,1,200,186Z"/></svg>