<svg xmlns="http://www.w3.org/2000/svg" viewBox="0 0 256 256" fill="currentColor"><path d="M92,152a12,12,0,1,1,12-12A12,12,0,0,1,92,152Zm72-24a12,12,0,1,0,12,12A12,12,0,0,0,164,128Zm68,0A104,104,0,1,1,128,24,104.11,104.11,0,0,1,232,128Zm-16,0a88,88,0,1,0-88,88A88.1,88.1,0,0,0,216,128ZM171.56,81.34,128,110.39l-43.56-29a8,8,0,1,0-8.88,13.32l48,32a8,8,0,0,0,8.88,0l48-32a8,8,0,0,0-8.88-13.32Zm-15.13,96C148,171.73,139.94,168,128,168s-20,3.73-28.43,9.34a8,8,0,0,0,8.86,13.32C114.93,186.34,120,184,128,184s13.07,2.34,19.57,6.66a8,8,0,1,0,8.86-13.32Z"/></svg>