<svg xmlns="http://www.w3.org/2000/svg" viewBox="0 0 256 256" fill="currentColor"><path d="M230.26,168.42l-28.62-14.31A49.72,49.72,0,0,1,174,109.39V80a6,6,0,0,0-6-6,50.06,50.06,0,0,1-50-50,6,6,0,0,0-9.62-4.78l-77,58.41-.15.11A14,14,0,0,0,30.1,98.53L143.82,212.24a6,6,0,0,0,4.24,1.76H224a14,14,0,0,0,14-14V180.94A13.94,13.94,0,0,0,230.26,168.42ZM226,200a2,2,0,0,1-2,2H150.54L38.59,90A2,2,0,0,1,38,88.52a2,2,0,0,1,.69-1.41L53.05,76.22l40,40a6,6,0,0,0,8.49-8.48L62.71,68.91,107,35.3a62.13,62.13,0,0,0,55,50.41v23.68a61.65,61.65,0,0,0,34.27,55.45l28.62,14.32a2,2,0,0,1,1.11,1.78ZM70.8,182H32a6,6,0,0,1,0-12H70.8a6,6,0,1,1,0,12Zm38,26a6,6,0,0,1-6,6H48a6,6,0,0,1,0-12h54.8A6,6,0,0,1,108.8,208Z"/></svg>