<svg xmlns="http://www.w3.org/2000/svg" viewBox="0 0 256 256" fill="currentColor"><path d="M219.88,151.05a4,4,0,0,1-2.93,4.83l-28.6,7L195.86,191a4,4,0,0,1-2.83,4.9,3.65,3.65,0,0,1-1,.14,4,4,0,0,1-3.86-3L180,162.64l-48-27.71v55.41l22.83,22.83a4,4,0,0,1-5.66,5.66L128,197.66l-21.17,21.17a4,4,0,0,1-5.66-5.66L124,190.34V134.93L76,162.64,67.86,193A4,4,0,0,1,64,196a3.65,3.65,0,0,1-1-.14,4,4,0,0,1-2.83-4.9l7.51-28.05-28.6-7A4,4,0,1,1,41,148.12l31,7.61L120,128,72,100.27l-31,7.61a4.07,4.07,0,0,1-1,.12,4,4,0,0,1-1-7.88l28.6-7L60.14,65A4,4,0,0,1,67.86,63L76,93.36l48,27.71V65.66L101.17,42.83a4,4,0,0,1,5.66-5.66L128,58.34l21.17-21.17a4,4,0,1,1,5.66,5.66L132,65.66v55.41l48-27.71L188.14,63A4,4,0,0,1,195.86,65l-7.51,28.05,28.6,7A4,4,0,0,1,216,108a4.07,4.07,0,0,1-1-.12l-31-7.61L136,128l48,27.73,31-7.61A4,4,0,0,1,219.88,151.05Z"/></svg>