<svg xmlns="http://www.w3.org/2000/svg" viewBox="0 0 256 256" fill="currentColor"><path d="M227.65,149.14a12,12,0,0,1-8.79,14.51l-20.67,5.08,5.4,20.16a12,12,0,0,1-23.18,6.22l-7.29-27.2L140,148.78V187l20.48,20.48a12,12,0,0,1-17,17L128,209l-15.51,15.52a12,12,0,0,1-17-17L116,187V148.78L82.88,167.91l-7.29,27.2a12,12,0,0,1-23.18-6.22l5.4-20.16-20.67-5.08a12,12,0,1,1,5.72-23.3l27.89,6.85L104,128,70.75,108.8l-27.89,6.85A11.8,11.8,0,0,1,40,116a12,12,0,0,1-2.85-23.65l20.67-5.08-5.4-20.16a12,12,0,0,1,23.18-6.22l7.29,27.2L116,107.21V69L95.52,48.48a12,12,0,0,1,17-17L128,47l15.51-15.52a12,12,0,1,1,17,17L140,69v38.24l33.12-19.12,7.29-27.2a12,12,0,0,1,23.18,6.22l-5.4,20.16,20.67,5.08A12,12,0,0,1,216,116a11.8,11.8,0,0,1-2.87-.35l-27.89-6.85L152,128l33.25,19.2,27.89-6.85A12,12,0,0,1,227.65,149.14Z"/></svg>