<svg xmlns="http://www.w3.org/2000/svg" viewBox="0 0 256 256" fill="currentColor"><path d="M65.17,108.08l-33,25.34c-.1-1.8-.15-3.6-.15-5.42A95.61,95.61,0,0,1,53.23,67.78ZM46.92,179.42a96.12,96.12,0,0,0,57,41.52l-14.7-41.52Zm105.21,41.52a96.12,96.12,0,0,0,57-41.52H166.83ZM202.77,67.78l-11.94,40.3,33,25.34c.1-1.8.15-3.6.15-5.42A95.61,95.61,0,0,0,202.77,67.78Zm-38.52-28.7a96.34,96.34,0,0,0-72.5,0L128,64ZM152.72,160,168,115.5,128,88,88,115.5,103.28,160Z" opacity="0.2"/><path d="M128,24A104,104,0,1,0,232,128,104.11,104.11,0,0,0,128,24Zm76.52,147.42H170.9l-9.26-12.76,12.63-36.78,15-4.89,26.24,20.13A87.38,87.38,0,0,1,204.52,171.42Zm-164-34.3L66.71,117l15,4.89,12.63,36.78L85.1,171.42H51.48A87.38,87.38,0,0,1,40.47,137.12Zm10-50.64,5.51,18.6L40.71,116.77A87.33,87.33,0,0,1,50.43,86.48ZM109,152,97.54,118.65,128,97.71l30.46,20.94L147,152Zm91.07-46.92,5.51-18.6a87.33,87.33,0,0,1,9.72,30.29Zm-6.2-35.38-9.51,32.08-15.07,4.89L136,83.79V68.21l29.09-20A88.58,88.58,0,0,1,193.86,69.7ZM146.07,41.87,128,54.29,109.93,41.87a88.24,88.24,0,0,1,36.14,0ZM90.91,48.21l29.09,20V83.79L86.72,106.67l-15.07-4.89L62.14,69.7A88.58,88.58,0,0,1,90.91,48.21ZM63.15,187.42H83.52l7.17,20.27A88.4,88.4,0,0,1,63.15,187.42ZM110,214.13,98.12,180.71,107.35,168h41.3l9.23,12.71-11.83,33.42a88,88,0,0,1-36.1,0Zm55.36-6.44,7.17-20.27h20.37A88.4,88.4,0,0,1,165.31,207.69Z"/></svg>