<svg xmlns="http://www.w3.org/2000/svg" viewBox="0 0 256 256" fill="currentColor"><path d="M128,28A100,100,0,1,0,228,128,100.11,100.11,0,0,0,128,28Zm40.87,147.42-11.69-16.09,13.95-40.64,18.93-6.15,29.65,22.74a91.32,91.32,0,0,1-12.9,40.14Zm-81.74,0H49.19a91.32,91.32,0,0,1-12.9-40.14l29.65-22.74,18.93,6.15,13.95,40.64ZM51.69,76.66l8.87,29.92L36,125.39A91.41,91.41,0,0,1,51.69,76.66ZM106.13,156,92.77,117.08,128,92.85l35.23,24.23L149.87,156Zm89.31-49.42,8.87-29.92A91.41,91.41,0,0,1,220,125.39Zm2.87-37.84-10.72,36.19-19,6.16L132,85.9V66.1l32.68-22.46A92.44,92.44,0,0,1,198.31,68.74ZM155.54,40.21,128,59.15,100.46,40.21a92.18,92.18,0,0,1,55.08,0ZM91.32,43.64,124,66.1V85.9L87.36,111.09l-19-6.16L57.69,68.74A92.44,92.44,0,0,1,91.32,43.64ZM54.61,183.42H86.34l11.1,31.36A92.46,92.46,0,0,1,54.61,183.42Zm52.3,34.14-13.27-37.5L105.32,164h45.36l11.68,16.06-13.27,37.5a92.37,92.37,0,0,1-42.18,0Zm51.65-2.78,11.1-31.36h31.73A92.46,92.46,0,0,1,158.56,214.78Z"/></svg>