<svg xmlns="http://www.w3.org/2000/svg" viewBox="0 0 256 256" fill="currentColor"><path d="M245.37,125.32l-40-80A6,6,0,0,0,200,42H56a6,6,0,0,0-5.37,3.32l-40,80A6.07,6.07,0,0,0,10,128v56a14,14,0,0,0,14,14H232a14,14,0,0,0,14-14V128A6.07,6.07,0,0,0,245.37,125.32ZM99.71,122l-14-28h34.58l14,28Zm.58-68,14,28H79.71l-14-28Zm48,0,14,28H127.71l-14-28Zm-.58,68-14-28h34.58l14,28Zm48,0-14-28h34.58l14,28Zm14.58-40H175.71l-14-28h34.58ZM22,184V129.42l34-68,34,68V186H24A2,2,0,0,1,22,184Zm210,2H102V134H234v50A2,2,0,0,1,232,186Z"/></svg>