<svg xmlns="http://www.w3.org/2000/svg" viewBox="0 0 256 256" fill="currentColor"><path d="M248,152a40,40,0,0,1-40,40H144V48a72,72,0,0,1,71.64,64.73A40,40,0,0,1,248,152Z" opacity="0.2"/><path d="M24,120v48a8,8,0,0,1-16,0V120a8,8,0,0,1,16,0ZM48,88a8,8,0,0,0-8,8v96a8,8,0,0,0,16,0V96A8,8,0,0,0,48,88Zm32-8a8,8,0,0,0-8,8V192a8,8,0,0,0,16,0V88A8,8,0,0,0,80,80Zm32-32a8,8,0,0,0-8,8V192a8,8,0,0,0,16,0V56A8,8,0,0,0,112,48Zm110.84,58.34A80,80,0,0,0,144,40a8,8,0,0,0,0,16,63.76,63.76,0,0,1,63.68,57.53,8,8,0,0,0,6.44,7A32,32,0,0,1,208,184H144a8,8,0,0,0,0,16h64a48,48,0,0,0,14.84-93.66Z"/></svg>