<svg xmlns="http://www.w3.org/2000/svg" viewBox="0 0 256 256" fill="currentColor"><path d="M224,136a48,48,0,0,1-79.55,36.18L160,224H96l15.55-51.82A48,48,0,0,1,32,136c0-64,96-112,96-112S224,72,224,136Z" opacity="0.2"/><path d="M131.58,16.85a8,8,0,0,0-7.16,0C120.32,18.9,24,67.84,24,136a56,56,0,0,0,74.15,53L88.34,221.7A8,8,0,0,0,96,232h64a8,8,0,0,0,7.66-10.3L157.85,189A56,56,0,0,0,232,136C232,67.84,135.68,18.9,131.58,16.85ZM176,176a40,40,0,0,1-26.29-9.85,8,8,0,0,0-12.92,8.33L149.25,216h-42.5l12.46-41.52a8,8,0,0,0-12.92-8.33A40,40,0,0,1,40,136c0-29.88,24.41-56.55,44.89-73.66A279.13,279.13,0,0,1,128,33.06a279.13,279.13,0,0,1,43.11,29.28C208.21,93.34,216,119.51,216,136A40,40,0,0,1,176,176Z"/></svg>