<svg xmlns="http://www.w3.org/2000/svg" viewBox="0 0 256 256" fill="currentColor"><path d="M196.89,130.94,144.4,111.6,125.06,59.11a13.92,13.92,0,0,0-26.12,0L79.6,111.6,27.11,130.94a13.92,13.92,0,0,0,0,26.12L79.6,176.4l19.34,52.49a13.92,13.92,0,0,0,26.12,0L144.4,176.4l52.49-19.34a13.92,13.92,0,0,0,0-26.12Zm-4.15,14.86-55.08,20.3a6,6,0,0,0-3.56,3.56l-20.3,55.08a1.92,1.92,0,0,1-3.6,0L89.9,169.66a6,6,0,0,0-3.56-3.56L31.26,145.8a1.92,1.92,0,0,1,0-3.6l55.08-20.3a6,6,0,0,0,3.56-3.56l20.3-55.08a1.92,1.92,0,0,1,3.6,0l20.3,55.08a6,6,0,0,0,3.56,3.56l55.08,20.3a1.92,1.92,0,0,1,0,3.6ZM146,40a6,6,0,0,1,6-6h18V16a6,6,0,0,1,12,0V34h18a6,6,0,0,1,0,12H182V64a6,6,0,0,1-12,0V46H152A6,6,0,0,1,146,40ZM246,88a6,6,0,0,1-6,6H230v10a6,6,0,0,1-12,0V94H208a6,6,0,0,1,0-12h10V72a6,6,0,0,1,12,0V82h10A6,6,0,0,1,246,88Z"/></svg>