<svg xmlns="http://www.w3.org/2000/svg" viewBox="0 0 256 256" fill="currentColor"><path d="M199,125.31l-49.88-18.39L130.69,57a19.92,19.92,0,0,0-37.38,0L74.92,106.92,25,125.31a19.92,19.92,0,0,0,0,37.38l49.88,18.39L93.31,231a19.92,19.92,0,0,0,37.38,0l18.39-49.88L199,162.69a19.92,19.92,0,0,0,0-37.38Zm-63.38,35.16a12,12,0,0,0-7.11,7.11L112,212.28l-16.47-44.7a12,12,0,0,0-7.11-7.11L43.72,144l44.7-16.47a12,12,0,0,0,7.11-7.11L112,75.72l16.47,44.7a12,12,0,0,0,7.11,7.11L180.28,144ZM140,40a12,12,0,0,1,12-12h12V16a12,12,0,0,1,24,0V28h12a12,12,0,0,1,0,24H188V64a12,12,0,0,1-24,0V52H152A12,12,0,0,1,140,40ZM252,88a12,12,0,0,1-12,12h-4v4a12,12,0,0,1-24,0v-4h-4a12,12,0,0,1,0-24h4V72a12,12,0,0,1,24,0v4h4A12,12,0,0,1,252,88Z"/></svg>