<svg xmlns="http://www.w3.org/2000/svg" viewBox="0 0 256 256" fill="currentColor"><path d="M196.2,132.81l-53.36-19.65L123.19,59.8a11.93,11.93,0,0,0-22.38,0L81.16,113.16,27.8,132.81a11.93,11.93,0,0,0,0,22.38l53.36,19.65,19.65,53.36a11.93,11.93,0,0,0,22.38,0l19.65-53.36,53.36-19.65a11.93,11.93,0,0,0,0-22.38Zm-2.77,14.87L138.35,168a4,4,0,0,0-2.37,2.37l-20.3,55.08a3.92,3.92,0,0,1-7.36,0L88,170.35A4,4,0,0,0,85.65,168l-55.08-20.3a3.92,3.92,0,0,1,0-7.36L85.65,120A4,4,0,0,0,88,117.65l20.3-55.08a3.92,3.92,0,0,1,7.36,0L136,117.65a4,4,0,0,0,2.37,2.37l55.08,20.3a3.92,3.92,0,0,1,0,7.36ZM148,40a4,4,0,0,1,4-4h20V16a4,4,0,0,1,8,0V36h20a4,4,0,0,1,0,8H180V64a4,4,0,0,1-8,0V44H152A4,4,0,0,1,148,40Zm96,48a4,4,0,0,1-4,4H228v12a4,4,0,0,1-8,0V92H208a4,4,0,0,1,0-8h12V72a4,4,0,0,1,8,0V84h12A4,4,0,0,1,244,88Z"/></svg>