<svg xmlns="http://www.w3.org/2000/svg" viewBox="0 0 256 256" fill="currentColor"><path d="M161.76,28.41a4,4,0,0,0-4.22.43L86.63,84H40A12,12,0,0,0,28,96v64a12,12,0,0,0,12,12H86.63l70.91,55.16A4.07,4.07,0,0,0,160,228a3.92,3.92,0,0,0,1.76-.41A4,4,0,0,0,164,224V32A4,4,0,0,0,161.76,28.41ZM156,215.82l-65.54-51A4.06,4.06,0,0,0,88,164H40a4,4,0,0,1-4-4V96a4,4,0,0,1,4-4H88a4.06,4.06,0,0,0,2.46-.84l65.54-51Zm94.83-66.65a4,4,0,0,1-5.66,5.66L224,133.66l-21.17,21.17a4,4,0,0,1-5.66-5.66L218.34,128l-21.17-21.17a4,4,0,0,1,5.66-5.66L224,122.34l21.17-21.17a4,4,0,1,1,5.66,5.66L229.66,128Z"/></svg>