<svg xmlns="http://www.w3.org/2000/svg" viewBox="0 0 256 256" fill="currentColor"><path d="M154.64,26.61a6,6,0,0,0-6.32.65L77.94,82H32A14,14,0,0,0,18,96v64a14,14,0,0,0,14,14H77.94l70.38,54.74A6,6,0,0,0,158,224V32A6,6,0,0,0,154.64,26.61ZM30,160V96a2,2,0,0,1,2-2H74v68H32A2,2,0,0,1,30,160Zm116,51.73L86,165.06V90.94l60-46.67Zm98.24-64a6,6,0,1,1-8.48,8.48L216,136.48l-19.76,19.76a6,6,0,0,1-8.48-8.48L207.52,128l-19.76-19.76a6,6,0,0,1,8.48-8.48L216,119.52l19.76-19.76a6,6,0,0,1,8.48,8.48L224.48,128Z"/></svg>