<svg xmlns="http://www.w3.org/2000/svg" viewBox="0 0 256 256" fill="currentColor"><path d="M153.76,28.41a4,4,0,0,0-4.22.43L78.63,84H32A12,12,0,0,0,20,96v64a12,12,0,0,0,12,12H78.63l70.91,55.16A4.07,4.07,0,0,0,152,228a3.92,3.92,0,0,0,1.76-.41A4,4,0,0,0,156,224V32A4,4,0,0,0,153.76,28.41ZM28,160V96a4,4,0,0,1,4-4H76v72H32A4,4,0,0,1,28,160Zm120,55.82L84,166V90l64-49.78Zm47-111.61a36,36,0,0,1,0,47.59,4,4,0,1,1-6-5.3,28,28,0,0,0,0-37,4,4,0,0,1,6-5.28ZM244,128a75.88,75.88,0,0,1-19.35,50.67,4,4,0,0,1-6-5.34,68,68,0,0,0,0-90.66,4,4,0,0,1,6-5.34A75.88,75.88,0,0,1,244,128Z"/></svg>