<svg xmlns="http://www.w3.org/2000/svg" viewBox="0 0 256 256" fill="currentColor"><path d="M56.88,31.93A12,12,0,1,0,39.12,48.07L64.51,76H32A20,20,0,0,0,12,96v64a20,20,0,0,0,20,20H75.88l68.75,53.47A12,12,0,0,0,164,224V185.44l35.12,38.63a12,12,0,0,0,17.76-16.14ZM36,100H68v56H36Zm104,99.46L92,162.13V106.24L140,159Zm-31-134a12,12,0,0,1,2.11-16.84l33.51-26.07A12,12,0,0,1,164,32V94.94a12,12,0,0,1-24,0V56.54l-14.15,11A12,12,0,0,1,109,65.44Zm74,49.35a12,12,0,0,1,18-15.85,44,44,0,0,1,5.55,50.21,12,12,0,0,1-21-11.55A19.67,19.67,0,0,0,188,128,20,20,0,0,0,183,114.79ZM252,128a84.18,84.18,0,0,1-19.11,53.35,12,12,0,1,1-18.53-15.25A60,60,0,0,0,212.73,88a12,12,0,1,1,17.88-16A83.87,83.87,0,0,1,252,128Z"/></svg>