<svg xmlns="http://www.w3.org/2000/svg" viewBox="0 0 256 256" fill="currentColor"><path d="M192,32H64a8,8,0,0,0-8,8V216a8,8,0,0,0,8,8H192a8,8,0,0,0,8-8V40A8,8,0,0,0,192,32ZM128,184a32,32,0,1,1,32-32A32,32,0,0,1,128,184Z" opacity="0.2"/><path d="M192,24H64A16,16,0,0,0,48,40V216a16,16,0,0,0,16,16H192a16,16,0,0,0,16-16V40A16,16,0,0,0,192,24Zm0,192H64V40H192ZM116,76a12,12,0,1,1,12,12A12,12,0,0,1,116,76Zm12,116a40,40,0,1,0-40-40A40,40,0,0,0,128,192Zm0-64a24,24,0,1,1-24,24A24,24,0,0,1,128,128Z"/></svg>