<svg xmlns="http://www.w3.org/2000/svg" viewBox="0 0 256 256" fill="currentColor"><path d="M162.64,26.61a6,6,0,0,0-6.32.65L85.94,82H40A14,14,0,0,0,26,96v64a14,14,0,0,0,14,14H85.94l70.38,54.74A6,6,0,0,0,166,224V32A6,6,0,0,0,162.64,26.61ZM154,211.73,91.68,163.26A6,6,0,0,0,88,162H40a2,2,0,0,1-2-2V96a2,2,0,0,1,2-2H88a6,6,0,0,0,3.68-1.26L154,44.27Zm98.24-64a6,6,0,1,1-8.48,8.48L224,136.48l-19.76,19.76a6,6,0,0,1-8.48-8.48L215.52,128l-19.76-19.76a6,6,0,0,1,8.48-8.48L224,119.52l19.76-19.76a6,6,0,0,1,8.48,8.48L232.48,128Z"/></svg>