<svg xmlns="http://www.w3.org/2000/svg" viewBox="0 0 256 256" fill="currentColor"><path d="M154.64,26.61a6,6,0,0,0-6.32.65L77.94,82H32A14,14,0,0,0,18,96v64a14,14,0,0,0,14,14H77.94l70.38,54.74A6,6,0,0,0,158,224V32A6,6,0,0,0,154.64,26.61ZM30,160V96a2,2,0,0,1,2-2H74v68H32A2,2,0,0,1,30,160Zm116,51.73L86,165.07V90.93l60-46.66Zm50.53-108.85a38,38,0,0,1,0,50.24,6,6,0,1,1-9-7.94,26,26,0,0,0,0-34.37,6,6,0,0,1,9-7.93ZM246,128a77.86,77.86,0,0,1-19.86,52,6,6,0,1,1-8.94-8,66,66,0,0,0,0-88,6,6,0,1,1,8.94-8A77.86,77.86,0,0,1,246,128Z"/></svg>