<svg xmlns="http://www.w3.org/2000/svg" viewBox="0 0 256 256" fill="currentColor"><path d="M134,32V64a6,6,0,0,1-12,0V32a6,6,0,0,1,12,0Zm39.25,56.75A6,6,0,0,0,177.5,87l22.62-22.63a6,6,0,0,0-8.48-8.48L169,78.5a6,6,0,0,0,4.24,10.25ZM224,122H192a6,6,0,0,0,0,12h32a6,6,0,0,0,0-12Zm-46.5,47A6,6,0,0,0,169,177.5l22.63,22.62a6,6,0,0,0,8.48-8.48ZM128,186a6,6,0,0,0-6,6v32a6,6,0,0,0,12,0V192A6,6,0,0,0,128,186ZM78.5,169,55.88,191.64a6,6,0,1,0,8.48,8.48L87,177.5A6,6,0,1,0,78.5,169ZM70,128a6,6,0,0,0-6-6H32a6,6,0,0,0,0,12H64A6,6,0,0,0,70,128ZM64.36,55.88a6,6,0,0,0-8.48,8.48L78.5,87A6,6,0,1,0,87,78.5Z"/></svg>