<svg xmlns="http://www.w3.org/2000/svg" viewBox="0 0 256 256" fill="currentColor"><path d="M128,128c-28.36-14.12-56.73-28.24-96,1.61,0-.53,0-1.07,0-1.61A96,96,0,0,1,78.6,45.67C124.09,64.75,126,96.38,128,128ZM81.4,212a96,96,0,0,0,94.6-.81c.47-.27.94-.53,1.4-.81C131.91,191.25,130,159.62,128,128,101.59,145.5,75.18,163,81.4,212ZM224,126.39a96,96,0,0,0-48-81.53l-1.4-.81C180.82,93,154.41,110.5,128,128,156.36,142.12,184.73,156.24,224,126.39Z" opacity="0.2"/><path d="M128,24A104,104,0,1,0,232,128,104.11,104.11,0,0,0,128,24Zm87.82,98.46c-28.34,20-49.57,14.68-71.87,4.39,20.07-14.19,38.86-32.21,39.53-67.11A87.92,87.92,0,0,1,215.82,122.46ZM167.11,49.19C170.24,83.71,155,99.44,135,113.61c-2.25-24.48-8.44-49.8-38.37-67.82a87.89,87.89,0,0,1,70.5,3.4ZM79.32,54.73c31.45,14.55,37.47,35.58,39.71,60-22.33-10.29-47.35-17.59-77.93-.68A88.18,88.18,0,0,1,79.32,54.73ZM40.18,133.54c28.34-20,49.57-14.68,71.87-4.39C92,143.34,73.19,161.36,72.52,196.26A87.92,87.92,0,0,1,40.18,133.54Zm48.71,73.27C85.76,172.29,101,156.56,121,142.39c2.25,24.48,8.44,49.8,38.37,67.82a87.89,87.89,0,0,1-70.5-3.4Zm87.79-5.54c-31.45-14.55-37.47-35.58-39.71-60,12.72,5.86,26.31,10.75,41.3,10.75,11.33,0,23.46-2.8,36.63-10.08A88.2,88.2,0,0,1,176.68,201.27Z"/></svg>