<svg xmlns="http://www.w3.org/2000/svg" viewBox="0 0 256 256" fill="currentColor"><path d="M200,211.47V224a8,8,0,0,1-8,8H88a8,8,0,0,1-8-8V167.38a32,32,0,0,1,12-25l16-12.78a32,32,0,0,0,12-25V72h40A263.14,263.14,0,0,1,200,211.47Z" opacity="0.2"/><path d="M200,80a8,8,0,0,0,8-8,56.06,56.06,0,0,0-56-56H80A16,16,0,0,0,64,32V80a24,24,0,0,1-24,24,8,8,0,0,0,0,16A40,40,0,0,0,80,80h32v24.62a23.87,23.87,0,0,1-9,18.74L87,136.15a39.79,39.79,0,0,0-15,31.23V224a16,16,0,0,0,16,16H192a16,16,0,0,0,16-16V211.47A270.88,270.88,0,0,0,174,80ZM80,32h72a40.08,40.08,0,0,1,39.2,32H80ZM192,211.47V224H88V167.38a23.87,23.87,0,0,1,9-18.74l16-12.79a39.79,39.79,0,0,0,15-31.23V80h27.52A254.86,254.86,0,0,1,192,211.47Z"/></svg>