<svg xmlns="http://www.w3.org/2000/svg" viewBox="0 0 256 256" fill="currentColor"><path d="M104,44H56A12,12,0,0,0,44,56v48a12,12,0,0,0,12,12h48a12,12,0,0,0,12-12V56A12,12,0,0,0,104,44Zm4,60a4,4,0,0,1-4,4H56a4,4,0,0,1-4-4V56a4,4,0,0,1,4-4h48a4,4,0,0,1,4,4Zm92-60H152a12,12,0,0,0-12,12v48a12,12,0,0,0,12,12h48a12,12,0,0,0,12-12V56A12,12,0,0,0,200,44Zm4,60a4,4,0,0,1-4,4H152a4,4,0,0,1-4-4V56a4,4,0,0,1,4-4h48a4,4,0,0,1,4,4ZM104,140H56a12,12,0,0,0-12,12v48a12,12,0,0,0,12,12h48a12,12,0,0,0,12-12V152A12,12,0,0,0,104,140Zm4,60a4,4,0,0,1-4,4H56a4,4,0,0,1-4-4V152a4,4,0,0,1,4-4h48a4,4,0,0,1,4,4Zm92-60H152a12,12,0,0,0-12,12v48a12,12,0,0,0,12,12h48a12,12,0,0,0,12-12V152A12,12,0,0,0,200,140Zm4,60a4,4,0,0,1-4,4H152a4,4,0,0,1-4-4V152a4,4,0,0,1,4-4h48a4,4,0,0,1,4,4Z"/></svg>