<svg xmlns="http://www.w3.org/2000/svg" viewBox="0 0 256 256" fill="currentColor"><path d="M240,200a12,12,0,0,1-12,12H188a12,12,0,0,1,0-24h40A12,12,0,0,1,240,200ZM218,117.63,128,170.11,38.05,117.63A12,12,0,0,0,26,138.37l96,56a12,12,0,0,0,12.1,0l96-56A12,12,0,1,0,218,117.63ZM20,80a12,12,0,0,1,6-10.37l96-56a12.06,12.06,0,0,1,12.1,0l96,56a12,12,0,0,1,0,20.74l-96,56a12,12,0,0,1-12.1,0l-96-56A12,12,0,0,1,20,80Zm35.82,0L128,122.11,200.18,80,128,37.89ZM138,212.3,128,218.11,38.05,165.63A12,12,0,0,0,26,186.37l96,56a12,12,0,0,0,12.1,0l16-9.34A12,12,0,1,0,138,212.3Z"/></svg>