<svg xmlns="http://www.w3.org/2000/svg" viewBox="0 0 256 256" fill="currentColor"><path d="M144,76a4,4,0,0,0-4,4v96a4,4,0,0,0,4,4h24a52,52,0,0,0,0-104Zm68,52a44.05,44.05,0,0,1-44,44H148V84h20A44.05,44.05,0,0,1,212,128ZM28,48a4,4,0,0,1,4-4H224a4,4,0,0,1,0,8H32A4,4,0,0,1,28,48ZM228,208a4,4,0,0,1-4,4H32a4,4,0,0,1,0-8H224A4,4,0,0,1,228,208ZM108,152c0-12.58-11.79-16.92-29.78-22.11C63,125.51,45.78,120.54,45.78,104c0-16,14.71-28,34.22-28,14.21,0,26.3,6.46,31.55,16.85a4,4,0,1,1-7.13,3.61C100.53,88.78,91.17,84,80,84c-15,0-26.22,8.6-26.22,20,0,9.81,10.07,13.43,26.66,18.21S116,132.46,116,152c0,15.44-16.15,28-36,28s-36-12.56-36-28a4,4,0,0,1,8,0c0,11,12.56,20,28,20S108,163,108,152Z"/></svg>