<svg xmlns="http://www.w3.org/2000/svg" viewBox="0 0 256 256" fill="currentColor"><path d="M243,96a20.33,20.33,0,0,0-17.74-14l-56.59-4.57L146.83,24.62a20.36,20.36,0,0,0-37.66,0L87.35,77.44,30.76,82A20.45,20.45,0,0,0,19.1,117.88l43.18,37.24-13.2,55.7A20.37,20.37,0,0,0,79.57,233L128,203.19,176.43,233a20.39,20.39,0,0,0,30.49-22.15l-13.2-55.7,43.18-37.24A20.43,20.43,0,0,0,243,96ZM172.53,141.7a12,12,0,0,0-3.84,11.86L181.58,208l-47.29-29.08a12,12,0,0,0-12.58,0L74.42,208l12.89-54.4a12,12,0,0,0-3.84-11.86L41.2,105.24l55.4-4.47a12,12,0,0,0,10.13-7.38L128,41.89l21.27,51.5a12,12,0,0,0,10.13,7.38l55.4,4.47Z"/></svg>