<svg xmlns="http://www.w3.org/2000/svg" viewBox="0 0 256 256" fill="currentColor"><path d="M226.76,135.48l-66.94,24.34-24.34,66.94a8,8,0,0,1-15,0L96.18,159.82,29.24,135.48a8,8,0,0,1,0-15L96.18,96.18l24.34-66.94a8,8,0,0,1,15,0l24.34,66.94,66.94,24.34A8,8,0,0,1,226.76,135.48Z" opacity="0.2"/><path d="M229.5,113,166.06,89.94,143,26.5a16,16,0,0,0-30,0L89.94,89.94,26.5,113a16,16,0,0,0,0,30l63.44,23.07L113,229.5a16,16,0,0,0,30,0l23.07-63.44L229.5,143a16,16,0,0,0,0-30ZM157.08,152.3a8,8,0,0,0-4.78,4.78L128,223.9l-24.3-66.82a8,8,0,0,0-4.78-4.78L32.1,128l66.82-24.3a8,8,0,0,0,4.78-4.78L128,32.1l24.3,66.82a8,8,0,0,0,4.78,4.78L223.9,128Z"/></svg>