<svg xmlns="http://www.w3.org/2000/svg" viewBox="0 0 256 256" fill="currentColor"><path d="M128,32a96,96,0,1,0,96,96A96,96,0,0,0,128,32Zm45.81,97.61-61.09,49.82a20,20,0,0,1-28.15-28.15l49.82-61.09a28,28,0,1,1,39.42,39.42Z" opacity="0.2"/><path d="M128,24A104,104,0,1,0,232,128,104.11,104.11,0,0,0,128,24ZM117.39,185.92l62-50.55a36,36,0,1,0-51.14-50.23l-43,52.73L45.28,98A88,88,0,1,1,40,128a89.56,89.56,0,0,1,.8-11.88l34.57,34.57a28,28,0,0,0,42,35.23Zm4.19-67.37a36.18,36.18,0,0,0,23.87,23.87l-18.26,14.89a28.11,28.11,0,0,0-20.5-20.5ZM156,128a20,20,0,1,1,20-20A20,20,0,0,1,156,128Zm-56,24a12,12,0,1,1-12,12A12,12,0,0,1,100,152Z"/></svg>