<svg xmlns="http://www.w3.org/2000/svg" viewBox="0 0 256 256" fill="currentColor"><path d="M128,26A102,102,0,1,0,230,128,102.12,102.12,0,0,0,128,26ZM46.43,166h44a2,2,0,0,1,1.87,1.3l18.33,49A90.3,90.3,0,0,1,46.43,166Zm98.87,50.32,18.37-49a2,2,0,0,1,1.88-1.3h44A90.29,90.29,0,0,1,145.3,216.32ZM214.17,154H165.55a14,14,0,0,0-13.11,9.09l-20.55,54.82c-1.29.06-2.59.09-3.89.09s-2.63,0-3.94-.09l-20.5-54.81A14.06,14.06,0,0,0,90.45,154H41.83c-.65-2.17-1.23-4.37-1.72-6.61a122,122,0,0,1,175.78,0C215.4,149.63,214.82,151.83,214.17,154ZM128,98a134.38,134.38,0,0,0-89.88,34.64C38,131.1,38,129.56,38,128a90,90,0,0,1,180,0c0,1.56,0,3.1-.12,4.64A134.38,134.38,0,0,0,128,98Zm10,42a10,10,0,1,1-10-10A10,10,0,0,1,138,140Z"/></svg>