<svg xmlns="http://www.w3.org/2000/svg" viewBox="0 0 256 256" fill="currentColor"><path d="M128,152a12,12,0,1,1,12-12A12,12,0,0,1,128,152Zm104-24A104,104,0,1,1,128,24,104.11,104.11,0,0,1,232,128ZM40,128v.33a135.93,135.93,0,0,1,176,0V128a88,88,0,0,0-176,0Zm67.5,85.58L90.45,168H49.63A88.35,88.35,0,0,0,107.5,213.58ZM128,216c.83,0,1.66,0,2.49,0l20.07-53.57a16.07,16.07,0,0,1,15-10.39h47.12c.38-1.31.72-2.64,1-4a120,120,0,0,0-171.4,0c.31,1.34.65,2.67,1,4H90.45a16.08,16.08,0,0,1,15,10.4l20,53.56C126.31,216,127.15,216,128,216Zm78.37-48H165.55l-17.09,45.59A88.34,88.34,0,0,0,206.37,168Z"/></svg>