<svg xmlns="http://www.w3.org/2000/svg" viewBox="0 0 256 256" fill="currentColor"><path d="M192,40V64a8,8,0,0,1-8,8H72a8,8,0,0,1-8-8V40a8,8,0,0,1,8-8H184A8,8,0,0,1,192,40Z" opacity="0.2"/><path d="M200,64V40a16,16,0,0,0-16-16H72A16,16,0,0,0,56,40V64A16,16,0,0,0,72,80h6.64L56.1,222.75a8,8,0,0,0,6.65,9.15A7.82,7.82,0,0,0,64,232a8,8,0,0,0,7.89-6.75L79.68,176h96.64l7.78,49.25A8,8,0,0,0,192,232a7.82,7.82,0,0,0,1.26-.1,8,8,0,0,0,6.65-9.15L177.36,80H184A16,16,0,0,0,200,64ZM72,40H184V64H72ZM173.79,160H82.21L94.84,80h66.32Z"/></svg>