<svg xmlns="http://www.w3.org/2000/svg" viewBox="0 0 256 256" fill="currentColor"><path d="M224,96v16a32,32,0,0,1-64,0V96H96v16a32,32,0,0,1-64,0V96L46.34,45.8A8,8,0,0,1,54,40H202a8,8,0,0,1,7.69,5.8Z" opacity="0.2"/><path d="M231.69,93.81,217.35,43.6A16.07,16.07,0,0,0,202,32H54A16.07,16.07,0,0,0,38.65,43.6L24.31,93.81A7.94,7.94,0,0,0,24,96v16a40,40,0,0,0,16,32v72a8,8,0,0,0,8,8H208a8,8,0,0,0,8-8V144a40,40,0,0,0,16-32V96A7.94,7.94,0,0,0,231.69,93.81ZM54,48H202l11.42,40H42.61Zm98,56v8a24,24,0,0,1-48,0v-8ZM51.06,132.2A24,24,0,0,1,40,112v-8H88v8a24,24,0,0,1-35.12,21.26A7.88,7.88,0,0,0,51.06,132.2ZM200,208H56V151.2a40.57,40.57,0,0,0,8,.8,40,40,0,0,0,32-16,40,40,0,0,0,64,0,40,40,0,0,0,32,16,40.57,40.57,0,0,0,8-.8Zm16-96a24,24,0,0,1-11.07,20.2,8.08,8.08,0,0,0-1.8,1.05A24,24,0,0,1,168,112v-8h48Z"/></svg>