<svg xmlns="http://www.w3.org/2000/svg" viewBox="0 0 256 256" fill="currentColor"><path d="M232,96a7.89,7.89,0,0,0-.3-2.2L217.35,43.6A16.07,16.07,0,0,0,202,32H54A16.07,16.07,0,0,0,38.65,43.6L24.31,93.8A7.89,7.89,0,0,0,24,96h0v16a40,40,0,0,0,16,32v72a8,8,0,0,0,8,8H208a8,8,0,0,0,8-8V144a40,40,0,0,0,16-32V96ZM54,48H202l11.42,40H42.61Zm50,56h48v8a24,24,0,0,1-48,0Zm-16,0v8a24,24,0,0,1-35.12,21.26,7.88,7.88,0,0,0-1.82-1.06A24,24,0,0,1,40,112v-8ZM200,208H56V151.2a40.57,40.57,0,0,0,8,.8,40,40,0,0,0,32-16,40,40,0,0,0,64,0,40,40,0,0,0,32,16,40.57,40.57,0,0,0,8-.8Zm4.93-75.8a8.08,8.08,0,0,0-1.8,1.05A24,24,0,0,1,168,112v-8h48v8A24,24,0,0,1,204.93,132.2Z"/></svg>