<svg xmlns="http://www.w3.org/2000/svg" viewBox="0 0 256 256" fill="currentColor"><path d="M28.15,95A3.81,3.81,0,0,0,28,96v16a36,36,0,0,0,16,29.92V216a4,4,0,0,0,4,4H208a4,4,0,0,0,4-4V141.92A36,36,0,0,0,228,112V96a3.81,3.81,0,0,0-.17-1.08L213.5,44.7A12,12,0,0,0,202,36H54A12,12,0,0,0,42.5,44.7Zm22-48.08A4,4,0,0,1,54,44H202a4,4,0,0,1,3.84,2.9L218.7,92H37.3ZM100,100h56v12a28,28,0,0,1-56,0ZM36,112V100H92v12a28,28,0,0,1-41.37,24.59,4,4,0,0,0-1.31-.76A28,28,0,0,1,36,112ZM204,212H52V145.94a36,36,0,0,0,44-17.48,36,36,0,0,0,64,0,36,36,0,0,0,44,17.48Zm2.68-76.17a3.94,3.94,0,0,0-1.3.76A28,28,0,0,1,164,112V100h56v12A28,28,0,0,1,206.68,135.83Z"/></svg>