<svg xmlns="http://www.w3.org/2000/svg" viewBox="0 0 256 256" fill="currentColor"><path d="M26.22,94.41A6,6,0,0,0,26,96v16A38,38,0,0,0,42,143V216a6,6,0,0,0,6,6H208a6,6,0,0,0,6-6V143A38,38,0,0,0,230,112V96a5.91,5.91,0,0,0-.23-1.64L215.43,44.15A14.07,14.07,0,0,0,202,34H54A14.07,14.07,0,0,0,40.57,44.15Zm25.89-47A2,2,0,0,1,54,46H202a2,2,0,0,1,1.92,1.45L216.05,90H40ZM102,102h52v10a26,26,0,0,1-52,0Zm-64,0H90v10a26,26,0,0,1-38.18,23,6,6,0,0,0-1.65-1A26,26,0,0,1,38,112ZM202,210H54V148.66a38,38,0,0,0,42-16.21,37.95,37.95,0,0,0,64,0,38,38,0,0,0,42,16.21Zm3.83-76a6,6,0,0,0-1.65,1A26,26,0,0,1,166,112V102h52v10A26,26,0,0,1,205.83,134Z"/></svg>