<svg xmlns="http://www.w3.org/2000/svg" viewBox="0 0 256 256" fill="currentColor"><path d="M104,188a28,28,0,1,1-28-28A28,28,0,0,1,104,188Z" opacity="0.2"/><path d="M76,152a36,36,0,1,0,36,36A36,36,0,0,0,76,152Zm0,56a20,20,0,1,1,20-20A20,20,0,0,1,76,208ZM42.34,106.34,56.69,92,42.34,77.66A8,8,0,0,1,53.66,66.34L68,80.69,82.34,66.34A8,8,0,0,1,93.66,77.66L79.31,92l14.35,14.34a8,8,0,0,1-11.32,11.32L68,103.31,53.66,117.66a8,8,0,0,1-11.32-11.32Zm187.32,96a8,8,0,0,1-11.32,11.32L204,199.31l-14.34,14.35a8,8,0,0,1-11.32-11.32L192.69,188l-14.35-14.34a8,8,0,0,1,11.32-11.32L204,176.69l14.34-14.35a8,8,0,0,1,11.32,11.32L215.31,188Zm-45.19-89.51c-6.18,22.33-25.32,41.63-46.53,46.93A8.13,8.13,0,0,1,136,160a8,8,0,0,1-1.93-15.76c15.63-3.91,30.35-18.91,35-35.68,3.19-11.5,3.22-29-14.71-46.9L152,59.31V80a8,8,0,0,1-16,0V40a8,8,0,0,1,8-8h40a8,8,0,0,1,0,16H163.31l2.35,2.34C183.9,68.59,190.58,90.78,184.47,112.83Z"/></svg>