<svg xmlns="http://www.w3.org/2000/svg" viewBox="0 0 256 256" fill="currentColor"><path d="M48,128a12,12,0,0,1,12-12H76a12,12,0,0,1,0,24H60A12,12,0,0,1,48,128Zm168.88,79.93a12,12,0,1,1-17.76,16.14l-11-12.07H32a20,20,0,0,1-20-20V64A20,20,0,0,1,32,44h4.68a12,12,0,0,1,20.2-12.07ZM166.33,188l-10.91-12H60a12,12,0,0,1,0-24h73.6l-10.91-12H116a12,12,0,0,1-10.1-18.47L57.24,68H36V188ZM224,44H116.6a12,12,0,0,0,0,24H220V182.94a12,12,0,0,0,24,0V64A20,20,0,0,0,224,44Zm-28,96a12,12,0,0,0,0-24H182.06a12,12,0,0,0,0,24Z"/></svg>