<svg xmlns="http://www.w3.org/2000/svg" viewBox="0 0 256 256" fill="currentColor"><path d="M224,50H32A14,14,0,0,0,18,64V192a14,14,0,0,0,14,14H224a14,14,0,0,0,14-14V64A14,14,0,0,0,224,50Zm2,142a2,2,0,0,1-2,2H32a2,2,0,0,1-2-2V64a2,2,0,0,1,2-2H224a2,2,0,0,1,2,2ZM50,136a6,6,0,0,1,6-6H72a6,6,0,0,1,0,12H56A6,6,0,0,1,50,136Zm156,0a6,6,0,0,1-6,6H104a6,6,0,0,1,0-12h96A6,6,0,0,1,206,136Zm-48,32a6,6,0,0,1-6,6H56a6,6,0,0,1,0-12h96A6,6,0,0,1,158,168Zm48,0a6,6,0,0,1-6,6H184a6,6,0,0,1,0-12h16A6,6,0,0,1,206,168Z"/></svg>