<svg xmlns="http://www.w3.org/2000/svg" viewBox="0 0 256 256" fill="currentColor"><path d="M232,64V192a8,8,0,0,1-8,8H32a8,8,0,0,1-8-8V64a8,8,0,0,1,8-8H224A8,8,0,0,1,232,64Z" opacity="0.2"/><path d="M224,48H32A16,16,0,0,0,16,64V192a16,16,0,0,0,16,16H224a16,16,0,0,0,16-16V64A16,16,0,0,0,224,48Zm0,144H32V64H224V192ZM48,136a8,8,0,0,1,8-8H72a8,8,0,0,1,0,16H56A8,8,0,0,1,48,136Zm160,0a8,8,0,0,1-8,8H104a8,8,0,0,1,0-16h96A8,8,0,0,1,208,136Zm-48,32a8,8,0,0,1-8,8H56a8,8,0,0,1,0-16h96A8,8,0,0,1,160,168Zm48,0a8,8,0,0,1-8,8H184a8,8,0,0,1,0-16h16A8,8,0,0,1,208,168Z"/></svg>