<svg xmlns="http://www.w3.org/2000/svg" viewBox="0 0 256 256" fill="currentColor"><path d="M152,32H104A64,64,0,0,0,40,96V208H216V96A64,64,0,0,0,152,32Zm24,136a16,16,0,0,1-16,16H96a16,16,0,0,1-16-16V96A16,16,0,0,1,96,80h64a16,16,0,0,1,16,16Z" opacity="0.2"/><path d="M224,96V208a8,8,0,0,1-16,0V96a56.06,56.06,0,0,0-56-56H104A56.06,56.06,0,0,0,48,96V208a8,8,0,0,1-16,0V96a72.08,72.08,0,0,1,72-72h48A72.08,72.08,0,0,1,224,96Zm-40,0v72a24,24,0,0,1-19.29,23.53l2.45,4.89a8,8,0,0,1-14.32,7.16L147.06,192H108.94l-5.78,11.58a8,8,0,0,1-14.32-7.16l2.45-4.89A24,24,0,0,1,72,168V96A24,24,0,0,1,96,72h64A24,24,0,0,1,184,96ZM88,96v48h80V96a8,8,0,0,0-8-8H96A8,8,0,0,0,88,96Zm32,64v16h16V160ZM96,176h8V160H88v8A8,8,0,0,0,96,176Zm72-8v-8H152v16h8A8,8,0,0,0,168,168Z"/></svg>