<svg xmlns="http://www.w3.org/2000/svg" viewBox="0 0 256 256" fill="currentColor"><path d="M124,40V16a4,4,0,0,1,8,0V40a4,4,0,0,1-8,0Zm64,88a60,60,0,1,1-60-60A60.07,60.07,0,0,1,188,128Zm-8,0a52,52,0,1,0-52,52A52.06,52.06,0,0,0,180,128ZM61.17,66.83a4,4,0,0,0,5.66-5.66l-16-16a4,4,0,0,0-5.66,5.66Zm0,122.34-16,16a4,4,0,0,0,5.66,5.66l16-16a4,4,0,0,0-5.66-5.66ZM192,68a4,4,0,0,0,2.83-1.17l16-16a4,4,0,1,0-5.66-5.66l-16,16A4,4,0,0,0,192,68Zm2.83,121.17a4,4,0,0,0-5.66,5.66l16,16a4,4,0,0,0,5.66-5.66ZM40,124H16a4,4,0,0,0,0,8H40a4,4,0,0,0,0-8Zm88,88a4,4,0,0,0-4,4v24a4,4,0,0,0,8,0V216A4,4,0,0,0,128,212Zm112-88H216a4,4,0,0,0,0,8h24a4,4,0,0,0,0-8Z"/></svg>