<svg xmlns="http://www.w3.org/2000/svg" viewBox="0 0 256 256" fill="currentColor"><path d="M122,40V16a6,6,0,0,1,12,0V40a6,6,0,0,1-12,0Zm68,88a62,62,0,1,1-62-62A62.07,62.07,0,0,1,190,128Zm-12,0a50,50,0,1,0-50,50A50.06,50.06,0,0,0,178,128ZM59.76,68.24a6,6,0,1,0,8.48-8.48l-16-16a6,6,0,0,0-8.48,8.48Zm0,119.52-16,16a6,6,0,1,0,8.48,8.48l16-16a6,6,0,1,0-8.48-8.48ZM192,70a6,6,0,0,0,4.24-1.76l16-16a6,6,0,0,0-8.48-8.48l-16,16A6,6,0,0,0,192,70Zm4.24,117.76a6,6,0,0,0-8.48,8.48l16,16a6,6,0,0,0,8.48-8.48ZM46,128a6,6,0,0,0-6-6H16a6,6,0,0,0,0,12H40A6,6,0,0,0,46,128Zm82,82a6,6,0,0,0-6,6v24a6,6,0,0,0,12,0V216A6,6,0,0,0,128,210Zm112-88H216a6,6,0,0,0,0,12h24a6,6,0,0,0,0-12Z"/></svg>