<svg xmlns="http://www.w3.org/2000/svg" viewBox="0 0 256 256" fill="currentColor"><path d="M192,144a64.33,64.33,0,0,1-2,16H66a64,64,0,1,1,126-16Z" opacity="0.2"/><path d="M240,152H199.55a73.54,73.54,0,0,0,.45-8,72,72,0,0,0-144,0,73.54,73.54,0,0,0,.45,8H16a8,8,0,0,0,0,16H240a8,8,0,0,0,0-16ZM72,144a56,56,0,1,1,111.41,8H72.59A56.13,56.13,0,0,1,72,144Zm144,56a8,8,0,0,1-8,8H48a8,8,0,0,1,0-16H208A8,8,0,0,1,216,200ZM72.84,43.58a8,8,0,0,1,14.32-7.16l8,16a8,8,0,0,1-14.32,7.16Zm-56,48.84a8,8,0,0,1,10.74-3.57l16,8a8,8,0,0,1-7.16,14.31l-16-8A8,8,0,0,1,16.84,92.42Zm192,15.16a8,8,0,0,1,3.58-10.73l16-8a8,8,0,1,1,7.16,14.31l-16,8a8,8,0,0,1-10.74-3.58Zm-48-55.16,8-16a8,8,0,0,1,14.32,7.16l-8,16a8,8,0,1,1-14.32-7.16Z"/></svg>