<svg xmlns="http://www.w3.org/2000/svg" viewBox="0 0 256 256" fill="currentColor"><path d="M88,180a12,12,0,1,1-12-12A12,12,0,0,1,88,180Zm152-23.81V208a16,16,0,0,1-16,16H76a46.36,46.36,0,0,1-7.94-.68,44,44,0,0,1-35.43-50.95l25-143.13a15.94,15.94,0,0,1,18.47-13L130.84,26a16,16,0,0,1,12.92,18.52l-12.08,69L199.49,89a16,16,0,0,1,20.45,9.52L239,150.69A18.35,18.35,0,0,1,240,156.19ZM103,184.87,128,41.74,73.46,32l-25,143.1A28,28,0,0,0,70.9,207.57,27.29,27.29,0,0,0,91.46,203,27.84,27.84,0,0,0,103,184.87ZM116.78,195,224,156.11,204.92,104,128.5,131.7l-9.78,55.92A44.63,44.63,0,0,1,116.78,195ZM224,173.12,127.74,208H224Z"/></svg>