<svg xmlns="http://www.w3.org/2000/svg" viewBox="0 0 256 256" fill="currentColor"><path d="M88,149.39a8,8,0,0,0,8-8V128h64v15.29a8,8,0,0,0,16,0V32a8,8,0,0,0-16,0V48H96V32a8,8,0,0,0-16,0V141.39A8,8,0,0,0,88,149.39ZM96,112V96h64v16Zm64-48V80H96V64ZM24,168a8,8,0,0,1,8-8c14.42,0,22.19,5.18,28.44,9.34C66,173.06,70.42,176,80,176s14-2.94,19.56-6.66c6.24-4.16,14-9.34,28.43-9.34s22.2,5.18,28.44,9.34c5.58,3.72,10,6.66,19.57,6.66s14-2.94,19.56-6.66c6.25-4.16,14-9.34,28.44-9.34a8,8,0,0,1,0,16c-9.58,0-14,2.94-19.56,6.66-6.25,4.16-14,9.34-28.44,9.34s-22.2-5.18-28.44-9.34C142,178.94,137.57,176,128,176s-14,2.94-19.56,6.66c-6.24,4.16-14,9.34-28.43,9.34s-22.19-5.18-28.44-9.34C46,178.94,41.58,176,32,176A8,8,0,0,1,24,168Zm208,40a8,8,0,0,1-8,8c-9.58,0-14,2.94-19.56,6.66-6.25,4.16-14,9.34-28.44,9.34s-22.2-5.18-28.44-9.34C142,218.94,137.57,216,128,216s-14,2.94-19.56,6.66c-6.24,4.16-14,9.34-28.43,9.34s-22.19-5.18-28.44-9.34C46,218.94,41.58,216,32,216a8,8,0,0,1,0-16c14.42,0,22.19,5.18,28.44,9.34C66,213.06,70.42,216,80,216s14-2.94,19.56-6.66c6.24-4.16,14-9.34,28.43-9.34s22.2,5.18,28.44,9.34c5.58,3.72,10,6.66,19.57,6.66s14-2.94,19.56-6.66c6.25-4.16,14-9.34,28.44-9.34A8,8,0,0,1,232,208Z"/></svg>