<svg xmlns="http://www.w3.org/2000/svg" viewBox="0 0 256 256" fill="currentColor"><path d="M216,28H152a12,12,0,0,0-9.33,4.45L79.5,110.51l-4.66-4.65a20,20,0,0,0-28.29,0L29.86,122.55a20,20,0,0,0,0,28.29h0L45,166,23.86,187.17a20,20,0,0,0,0,28.28l16.69,16.69a20,20,0,0,0,28.28,0L90,211l15.17,15.16a20,20,0,0,0,28.29,0l16.69-16.69a20,20,0,0,0,0-28.3l-4.65-4.65,78.06-63.17A12,12,0,0,0,228,104V40A12,12,0,0,0,216,28ZM54.69,212.34l-11-11L62,183l11,11Zm64.61-6L49.65,136.7l11.05-11,69.65,69.65ZM204,98.27l-75.58,61.17L121,152l47.51-47.5a12,12,0,0,0-17-17L104,135l-7.45-7.44L157.73,52H204Z"/></svg>