<svg xmlns="http://www.w3.org/2000/svg" viewBox="0 0 256 256" fill="currentColor"><path d="M141.66,201,129,213.66a8,8,0,0,1-11.32,0L92,188,58.35,221.66a8,8,0,0,1-11.32,0L34.34,209a8,8,0,0,1,0-11.31L68,164,42.34,138.36a8,8,0,0,1,0-11.32L55,114.34a8,8,0,0,1,11.32,0l75.3,75.3A8,8,0,0,1,141.66,201Z" opacity="0.2"/><path d="M216,32H152a8,8,0,0,0-6.34,3.12l-64,83.21L72,108.69a16,16,0,0,0-22.64,0l-12.69,12.7a16,16,0,0,0,0,22.63l20,20-28,28a16,16,0,0,0,0,22.63l12.69,12.68a16,16,0,0,0,22.62,0l28-28,20,20a16,16,0,0,0,22.64,0l12.69-12.7a16,16,0,0,0,0-22.63l-9.64-9.64,83.21-64A8,8,0,0,0,224,104V40A8,8,0,0,0,216,32ZM52.69,216,40,203.32l28-28L80.68,188Zm70.61-8L48,132.71,60.7,120,136,195.31ZM208,100.06l-81.74,62.88L115.32,152l50.34-50.34a8,8,0,0,0-11.32-11.31L104,140.68,93.07,129.74,155.94,48H208Z"/></svg>