<svg xmlns="http://www.w3.org/2000/svg" viewBox="0 0 256 256" fill="currentColor"><path d="M216,36H152a4,4,0,0,0-3.17,1.56L82.05,124.38,69.19,111.52a12,12,0,0,0-17,0L39.52,124.21a12,12,0,0,0,0,17L62.34,164,31.52,194.83a12,12,0,0,0,0,17L44.2,224.49a12,12,0,0,0,17,0L92,193.67l22.81,22.82a12,12,0,0,0,17,0l12.69-12.7a12,12,0,0,0,0-17L131.62,174l86.82-66.79A4,4,0,0,0,220,104V40A4,4,0,0,0,216,36ZM55.52,218.83a4,4,0,0,1-5.66,0L37.17,206.15a4,4,0,0,1,0-5.66L68,169.67,86.34,188Zm83.31-26.36a4,4,0,0,1,0,5.67l-12.7,12.69a4,4,0,0,1-5.66,0l-75.3-75.3a4,4,0,0,1,0-5.66l12.7-12.69a4,4,0,0,1,5.66,0ZM212,102l-86.08,66.22L109.66,152l53.17-53.17a4,4,0,1,0-5.66-5.66L104,146.34,87.75,130.08,154,44h58Z"/></svg>