<svg xmlns="http://www.w3.org/2000/svg" viewBox="0 0 256 256" fill="currentColor"><path d="M237.66,66.34l-48-48a8,8,0,0,0-11.32,11.32L196.69,48,168,76.69,133.66,42.34a8,8,0,0,0-11.32,11.32L128.69,60l-84,84A15.86,15.86,0,0,0,40,155.31v49.38L18.34,226.34a8,8,0,0,0,11.32,11.32L51.31,216h49.38A15.86,15.86,0,0,0,112,211.31l84-84,6.34,6.35a8,8,0,0,0,11.32-11.32L179.31,88,208,59.31l18.34,18.35a8,8,0,0,0,11.32-11.32ZM100.69,200H56V155.31l18-18,20.34,20.35a8,8,0,0,0,11.32-11.32L85.31,126,98,113.31l20.34,20.35a8,8,0,0,0,11.32-11.32L109.31,102,140,71.31,184.69,116Z"/></svg>