<svg xmlns="http://www.w3.org/2000/svg" viewBox="0 0 256 256" fill="currentColor"><path d="M152,168H8L30.29,93.7A8,8,0,0,1,38,88h84.1a8,8,0,0,1,7.66,5.7Z" opacity="0.2"/><path d="M255.66,165.7h0v0a.24.24,0,0,0,0-.08L233.37,91.4A15.89,15.89,0,0,0,218.05,80H208a8,8,0,0,0,0,16h10.05l19.2,64H206L185.37,91.4A15.89,15.89,0,0,0,170.05,80H160a8,8,0,0,0,0,16h10.05l19.2,64H158L137.37,91.4A15.89,15.89,0,0,0,122.05,80H38A15.89,15.89,0,0,0,22.63,91.4L.37,165.6l0,.05v0s0,.05,0,.08A8.1,8.1,0,0,0,0,168a8,8,0,0,0,8,8H248a8,8,0,0,0,7.66-10.3ZM38,96h84.1l19.2,64H18.75Z"/></svg>