<svg xmlns="http://www.w3.org/2000/svg" viewBox="0 0 256 256" fill="currentColor"><path d="M160,122.22V216a8,8,0,0,1-8,8H56a8,8,0,0,1-8-8V122.22a8,8,0,0,1,1.14-4.12L69.67,83.88A8,8,0,0,1,76.53,80h54.94a8,8,0,0,1,6.86,3.88l20.53,34.22A8,8,0,0,1,160,122.22Z" opacity="0.2"/><path d="M224,160a16,16,0,0,1-16-16V64A56,56,0,0,0,96,64v8H76.53a16.09,16.09,0,0,0-13.72,7.77L42.28,114A16.06,16.06,0,0,0,40,122.22V216a16,16,0,0,0,16,16h96a16,16,0,0,0,16-16V122.22a16.06,16.06,0,0,0-2.28-8.24L145.19,79.77A16.09,16.09,0,0,0,131.47,72H112V64a40,40,0,0,1,80,0v80a32,32,0,0,0,32,32,8,8,0,0,0,0-16ZM131.47,88,152,122.22V216H56V122.22L76.53,88H96v48a8,8,0,0,0,16,0V88Z"/></svg>