<svg xmlns="http://www.w3.org/2000/svg" viewBox="0 0 256 256" fill="currentColor"><path d="M227.57,27.7a7,7,0,0,0-7.13-1.22L17.78,105.79a12.23,12.23,0,0,0,2.1,23.39L74,139.81V200a14,14,0,0,0,24.08,9.71l26.64-27.63,41.58,36.45a13.9,13.9,0,0,0,9.2,3.49,14.33,14.33,0,0,0,4.36-.69,13.86,13.86,0,0,0,9.34-10.17L229.82,34.57A7,7,0,0,0,227.57,27.7ZM22.05,117.37h0a.46.46,0,0,1,0-.32.51.51,0,0,1,.15-.08L181.91,54.45l-103.3,74L22.2,117.41Zm67.39,84A2,2,0,0,1,86,200V148.11l29.69,26Zm88.07,7.08a1.93,1.93,0,0,1-1.34,1.44,2,2,0,0,1-2-.4L89.64,135.34,215,45.5Z"/></svg>