<svg xmlns="http://www.w3.org/2000/svg" viewBox="0 0 256 256" fill="currentColor"><path d="M222,128a6,6,0,0,1-6,6H169.45c11.28,6.92,20.55,17.38,20.55,34,0,25.36-27.81,46-62,46s-62-20.64-62-46a6,6,0,0,1,12,0c0,18.75,22.43,34,50,34s50-15.25,50-34c0-18.23-15.46-26.59-40.47-34H40a6,6,0,0,1,0-12H216A6,6,0,0,1,222,128ZM76.33,102a6.2,6.2,0,0,0,1.88-.3A6,6,0,0,0,82,94.13,19.74,19.74,0,0,1,81.11,88c0-19.38,20.16-34,46.89-34,19.58,0,35.56,7.81,42.74,20.89a6,6,0,0,0,10.52-5.78C171.94,52.13,152,42,128,42,94.43,42,69.11,61.77,69.11,88a31.62,31.62,0,0,0,1.52,9.87A6,6,0,0,0,76.33,102Z"/></svg>