<svg xmlns="http://www.w3.org/2000/svg" viewBox="0 0 256 256" fill="currentColor"><path d="M240,72V208H56a16,16,0,0,1-16-16V56H224A16,16,0,0,1,240,72Z" opacity="0.2"/><path d="M248,208a8,8,0,0,1-8,8H192a8,8,0,0,1-6.4-12.8l43.17-57.56a16,16,0,1,0-27.86-15,8,8,0,0,1-15.09-5.34,32.18,32.18,0,0,1,4.63-8.59,32,32,0,0,1,51.11,38.52L208,200h32A8,8,0,0,1,248,208ZM149.24,50a8,8,0,0,0-11.29.81L92,103.78l-45.95-53A8,8,0,0,0,34,61.24L81.41,116,34,170.76a8,8,0,0,0,12.1,10.48l46-53,45.95,53a8,8,0,1,0,12.1-10.48L102.59,116l47.46-54.76A8,8,0,0,0,149.24,50Z"/></svg>