<svg xmlns="http://www.w3.org/2000/svg" viewBox="0 0 256 256" fill="currentColor"><path d="M90.86,50.89a12,12,0,0,0-21.72,0l-64,136a12,12,0,0,0,21.71,10.22L42.44,164h75.12l15.58,33.11a12,12,0,0,0,21.72-10.22ZM53.74,140,80,84.18,106.27,140ZM200,84c-13.85,0-24.77,3.86-32.45,11.48a12,12,0,1,0,16.9,17c3-3,8.26-4.52,15.55-4.52,11,0,20,7.18,20,16v4.39A47.28,47.28,0,0,0,200,124c-24.26,0-44,17.94-44,40s19.74,40,44,40a47.18,47.18,0,0,0,22-5.38A12,12,0,0,0,244,192V124C244,101.94,224.26,84,200,84Zm0,96c-11,0-20-7.18-20-16s9-16,20-16,20,7.18,20,16S211,180,200,180Z"/></svg>