<svg xmlns="http://www.w3.org/2000/svg" viewBox="0 0 256 256" fill="currentColor"><path d="M253.66,90.34l-40-40a8,8,0,0,0-11.32,0L168,84.69,133.66,50.34a8,8,0,0,0-11.32,0L88,84.69,53.66,50.34a8,8,0,0,0-11.32,0l-40,40a8,8,0,0,0,0,11.32l40,40a8,8,0,0,0,11.32,0L88,107.31,116.69,136,82.34,170.34a8,8,0,0,0,0,11.32l40,40a8,8,0,0,0,11.32,0l40-40a8,8,0,0,0,0-11.32L139.31,136,168,107.31l34.34,34.35a8,8,0,0,0,11.32,0l40-40A8,8,0,0,0,253.66,90.34ZM48,124.69,19.31,96,48,67.31,76.69,96Zm80,80L99.31,176,128,147.31,156.69,176Zm0-80L99.31,96,128,67.31,156.69,96Zm80,0L179.31,96,208,67.31,236.69,96Z"/></svg>