<svg xmlns="http://www.w3.org/2000/svg" viewBox="0 0 256 256" fill="currentColor"><path d="M216,56V200a16,16,0,0,1-16,16H56a16,16,0,0,1-16-16V56A16,16,0,0,1,56,40H200A16,16,0,0,1,216,56Z" opacity="0.2"/><path d="M222.23,130.59c-14.51,18-28.84,27.6-43.8,29.17a43,43,0,0,1-4.5.24c-19.3,0-35.39-13.1-51-25.8-14.91-12.14-29-23.61-43.7-22-10.51,1.1-21.31,8.72-33,23.28a8,8,0,0,1-12.46-10c14.51-18,28.84-27.6,43.8-29.17,21.32-2.25,38.69,11.89,55.48,25.56,14.91,12.14,29,23.62,43.7,22,10.51-1.1,21.31-8.72,33-23.28a8,8,0,1,1,12.46,10Z"/></svg>