<svg xmlns="http://www.w3.org/2000/svg" viewBox="0 0 256 256" fill="currentColor"><path d="M208,88V200a32,32,0,0,1-32,32H80a32,32,0,0,1-32-32V88A32,32,0,0,1,80,56h96A32,32,0,0,1,208,88Z" opacity="0.2"/><path d="M184,48.81V32a16,16,0,0,0-16-16H88A16,16,0,0,0,72,32V48.81A40.05,40.05,0,0,0,40,88V200a40,40,0,0,0,40,40h96a40,40,0,0,0,40-40V88A40.05,40.05,0,0,0,184,48.81ZM168,48H152V32h16Zm-48,0V32h16V48ZM104,32V48H88V32Zm96,168a24,24,0,0,1-24,24H80a24,24,0,0,1-24-24V88A24,24,0,0,1,80,64h96a24,24,0,0,1,24,24Zm-40-40a24,24,0,0,1-24,24v8a8,8,0,0,1-16,0v-8h-8a8,8,0,0,1,0-16h24a8,8,0,0,0,0-16H120a24,24,0,0,1,0-48V96a8,8,0,0,1,16,0v8h8a8,8,0,0,1,0,16H120a8,8,0,0,0,0,16h16A24,24,0,0,1,160,160Z"/></svg>