<svg xmlns="http://www.w3.org/2000/svg" viewBox="0 0 256 256" fill="currentColor"><path d="M188,49.68V32a20,20,0,0,0-20-20H88A20,20,0,0,0,68,32V49.68A44.06,44.06,0,0,0,36,92V200a44.05,44.05,0,0,0,44,44h96a44.05,44.05,0,0,0,44-44V92A44.06,44.06,0,0,0,188,49.68ZM164,48H140V36h24ZM116,36V48H92V36Zm80,164a20,20,0,0,1-20,20H80a20,20,0,0,1-20-20V92A20,20,0,0,1,80,72h96a20,20,0,0,1,20,20Zm-28-38a30,30,0,0,1-28,29.93V196a12,12,0,0,1-24,0v-4h-8a12,12,0,0,1,0-24h30a6,6,0,0,0,0-12H118a30,30,0,0,1-2-59.93V96a12,12,0,0,1,24,0h8a12,12,0,0,1,0,24H118a6,6,0,0,0,0,12h20A30,30,0,0,1,168,162Z"/></svg>