<svg xmlns="http://www.w3.org/2000/svg" viewBox="0 0 256 256" fill="currentColor"><path d="M167.92,222.87A8,8,0,0,1,160,232H96a8,8,0,0,1-7.92-9.13l4.34-30.36h0a88.21,88.21,0,0,0,71.14,0h0ZM184,32H72a8,8,0,0,0-8,8v72H192V40A8,8,0,0,0,184,32Z" opacity="0.2"/><path d="M120,64a8,8,0,0,1-8,8H96a8,8,0,0,1,0-16h16A8,8,0,0,1,120,64Zm52.32,133.14,3.52,24.6A16,16,0,0,1,160,240H96a16,16,0,0,1-15.84-18.26l3.52-24.6A96.09,96.09,0,0,1,32,112a8,8,0,0,1,8-8H56V40A16,16,0,0,1,72,24H184a16,16,0,0,1,16,16v64h16a8,8,0,0,1,8,8A96.09,96.09,0,0,1,172.32,197.14ZM72,104H184V40H72Zm85.07,99.5a96.15,96.15,0,0,1-58.14,0L96,224h64ZM207.6,120H48.4a80,80,0,0,0,159.2,0Z"/></svg>