<svg xmlns="http://www.w3.org/2000/svg" viewBox="0 0 256 256" fill="currentColor"><path d="M216,40V216a16,16,0,0,1-16,16H56a16,16,0,0,1-16-16V40A16,16,0,0,1,56,24H200A16,16,0,0,1,216,40Z" opacity="0.2"/><path d="M232,40a8,8,0,0,1-8,8H56a8,8,0,0,1,0-16H224A8,8,0,0,1,232,40ZM184,72a8,8,0,0,0-8-8H32a8,8,0,0,0,0,16H176A8,8,0,0,0,184,72Zm-16,32a8,8,0,0,0-8-8H56a8,8,0,0,0,0,16H160A8,8,0,0,0,168,104Zm16,32a8,8,0,0,0-8-8H88a8,8,0,0,0,0,16h88A8,8,0,0,0,184,136Zm0,24H120a8,8,0,0,0,0,16h64a8,8,0,0,0,0-16Zm-24,32H128a8,8,0,0,0,0,16h32a8,8,0,0,0,0-16Zm-32,32H112a8,8,0,0,0,0,16h16a8,8,0,0,0,0-16Z"/></svg>