<svg xmlns="http://www.w3.org/2000/svg" viewBox="0 0 256 256" fill="currentColor"><path d="M231.94,80.93l-14.25,120a8.06,8.06,0,0,1-8,7.07H46.33a8.06,8.06,0,0,1-8-7.07l-14.25-120a8,8,0,0,1,8-8.93H223.92A8,8,0,0,1,231.94,80.93Z" opacity="0.2"/><path d="M236,69.4A16.13,16.13,0,0,0,223.92,64H176a48,48,0,0,0-96,0H32.08a16.13,16.13,0,0,0-12,5.4,16,16,0,0,0-3.92,12.48l14.26,120a16,16,0,0,0,16,14.12H209.67a16,16,0,0,0,16-14.12l14.26-120A16,16,0,0,0,236,69.4ZM128,32a32,32,0,0,1,32,32H96A32,32,0,0,1,128,32Zm81.76,168a.13.13,0,0,1-.09,0H46.25L32.08,80H224Z"/></svg>