<svg xmlns="http://www.w3.org/2000/svg" viewBox="0 0 256 256" fill="currentColor"><path d="M237.49,134.05,134.05,237.49a8.54,8.54,0,0,1-12.1,0L18.51,134.05a8.54,8.54,0,0,1,0-12.1L122,18.51a8.54,8.54,0,0,1,12.1,0L237.49,122A8.54,8.54,0,0,1,237.49,134.05Z" opacity="0.2"/><path d="M243.15,116.29,139.71,12.85a16.56,16.56,0,0,0-23.42,0L12.85,116.29a16.56,16.56,0,0,0,0,23.42L116.29,243.15h0a16.56,16.56,0,0,0,23.42,0L243.15,139.71a16.56,16.56,0,0,0,0-23.42Zm-11.31,12.1L128.39,231.84a.56.56,0,0,1-.78,0h0L24.16,128.39a.56.56,0,0,1,0-.78L127.61,24.16A.52.52,0,0,1,128,24a.58.58,0,0,1,.4.16L231.84,127.61a.56.56,0,0,1,0,.78Zm-58.18-14a8,8,0,0,1,0,11.32l-24,24a8,8,0,0,1-11.32-11.32L148.69,128H112a16,16,0,0,0-16,16v8a8,8,0,0,1-16,0v-8a32,32,0,0,1,32-32h36.69l-10.35-10.34a8,8,0,0,1,11.32-11.32Z"/></svg>