<svg xmlns="http://www.w3.org/2000/svg" viewBox="0 0 256 256" fill="currentColor"><path d="M223.72,117.9,201.33,35.79A16,16,0,0,0,185.89,24H70.11A16,16,0,0,0,54.67,35.79L32.28,117.9a8.08,8.08,0,0,0,0,4.2l22.39,82.11A16,16,0,0,0,70.11,216H80L65.6,235.2a8,8,0,1,0,12.8,9.6L100,216h56l21.6,28.8a8,8,0,1,0,12.8-9.6L176,216h9.89a16,16,0,0,0,15.44-11.79l22.39-82.11A8.08,8.08,0,0,0,223.72,117.9ZM70.11,40H185.89L206,113.69l-78,14.18L50,113.69Zm-19,90.14L120,142.68V200H70.11ZM185.89,200H136V142.68l68.94-12.54ZM88,88a8,8,0,0,1,8-8h64a8,8,0,0,1,0,16H96A8,8,0,0,1,88,88Z"/></svg>