<svg xmlns="http://www.w3.org/2000/svg" viewBox="0 0 256 256" fill="currentColor"><path d="M184,50H134V22h34a6,6,0,0,0,0-12H88a6,6,0,0,0,0,12h34V50H72A30,30,0,0,0,42,80V184a30,30,0,0,0,30,30H84L67.2,236.4a6,6,0,1,0,9.6,7.2L99,214h58l22.2,29.6a6,6,0,0,0,9.6-7.2L172,214h12a30,30,0,0,0,30-30V80A30,30,0,0,0,184,50ZM72,62H184a18,18,0,0,1,18,18v42H54V80A18,18,0,0,1,72,62ZM184,202H72a18,18,0,0,1-18-18V134H202v50A18,18,0,0,1,184,202ZM94,172a10,10,0,1,1-10-10A10,10,0,0,1,94,172Zm88,0a10,10,0,1,1-10-10A10,10,0,0,1,182,172Z"/></svg>