<svg xmlns="http://www.w3.org/2000/svg" viewBox="0 0 256 256" fill="currentColor"><path d="M224,184H144l40-80ZM96,127.56h0A95.78,95.78,0,0,0,128,56H64A95.78,95.78,0,0,0,96,127.56Z" opacity="0.2"/><path d="M247.15,212.42l-56-112a8,8,0,0,0-14.31,0l-21.71,43.43A88,88,0,0,1,108,126.93,103.65,103.65,0,0,0,135.69,64H160a8,8,0,0,0,0-16H104V32a8,8,0,0,0-16,0V48H32a8,8,0,0,0,0,16h87.63A87.7,87.7,0,0,1,96,116.35a87.74,87.74,0,0,1-19-31,8,8,0,1,0-15.08,5.34A103.63,103.63,0,0,0,84,127a87.55,87.55,0,0,1-52,17,8,8,0,0,0,0,16,103.46,103.46,0,0,0,64-22.08,104.18,104.18,0,0,0,51.44,21.31l-26.6,53.19a8,8,0,0,0,14.31,7.16L148.94,192h70.11l13.79,27.58A8,8,0,0,0,240,224a8,8,0,0,0,7.15-11.58ZM156.94,176,184,121.89,211.05,176Z"/></svg>