<svg xmlns="http://www.w3.org/2000/svg" viewBox="0 0 256 256" fill="currentColor"><path d="M208,36H48A12,12,0,0,0,36,48V208a12,12,0,0,0,12,12H208a12,12,0,0,0,12-12V48A12,12,0,0,0,208,36ZM48,44H208a4,4,0,0,1,4,4V156H179.31a11.93,11.93,0,0,0-8.48,3.51l-19.32,19.32a4,4,0,0,1-2.82,1.17H107.31a4,4,0,0,1-2.82-1.17L85.17,159.52A11.9,11.9,0,0,0,76.69,156H44V48A4,4,0,0,1,48,44ZM208,212H48a4,4,0,0,1-4-4V164H76.69a4,4,0,0,1,2.82,1.17l19.32,19.31a11.9,11.9,0,0,0,8.48,3.52h41.38a11.93,11.93,0,0,0,8.48-3.51l19.32-19.32a4,4,0,0,1,2.82-1.17H212v44A4,4,0,0,1,208,212ZM93.17,106.83a4,4,0,0,1,0-5.66l32-32a4,4,0,0,1,5.66,0l32,32a4,4,0,0,1-5.66,5.66L132,81.66V152a4,4,0,0,1-8,0V81.66L98.83,106.83A4,4,0,0,1,93.17,106.83Z"/></svg>