<svg xmlns="http://www.w3.org/2000/svg" viewBox="0 0 256 256" fill="currentColor"><path d="M216,48V160H179.31a8,8,0,0,0-5.66,2.34l-19.31,19.32a8,8,0,0,1-5.66,2.34H107.31a8,8,0,0,1-5.66-2.34L82.34,162.34A8,8,0,0,0,76.68,160H40V48a8,8,0,0,1,8-8H208A8,8,0,0,1,216,48Z" opacity="0.2"/><path d="M208,32H48A16,16,0,0,0,32,48V208a16,16,0,0,0,16,16H208a16,16,0,0,0,16-16V48A16,16,0,0,0,208,32Zm0,16V152h-28.7A15.86,15.86,0,0,0,168,156.69L148.69,176H107.31L88,156.68A15.89,15.89,0,0,0,76.69,152H48V48Zm0,160H48V168H76.69L96,187.32A15.89,15.89,0,0,0,107.31,192h41.38A15.86,15.86,0,0,0,160,187.31L179.31,168H208v40ZM90.34,125.66a8,8,0,0,1,11.32-11.32L120,132.69V72a8,8,0,0,1,16,0v60.69l18.34-18.35a8,8,0,0,1,11.32,11.32l-32,32a8,8,0,0,1-11.32,0Z"/></svg>