<svg xmlns="http://www.w3.org/2000/svg" viewBox="0 0 256 256" fill="currentColor"><path d="M160,108h48a12,12,0,0,0,12-12V48a12,12,0,0,0-12-12H160a12,12,0,0,0-12,12V68H128a20,20,0,0,0-20,20v36H68V112a12,12,0,0,0-12-12H24a12,12,0,0,0-12,12v32a12,12,0,0,0,12,12H56a12,12,0,0,0,12-12V132h40v36a20,20,0,0,0,20,20h20v20a12,12,0,0,0,12,12h48a12,12,0,0,0,12-12V160a12,12,0,0,0-12-12H160a12,12,0,0,0-12,12v20H128a12,12,0,0,1-12-12V88a12,12,0,0,1,12-12h20V96A12,12,0,0,0,160,108ZM60,144a4,4,0,0,1-4,4H24a4,4,0,0,1-4-4V112a4,4,0,0,1,4-4H56a4,4,0,0,1,4,4Zm96,16a4,4,0,0,1,4-4h48a4,4,0,0,1,4,4v48a4,4,0,0,1-4,4H160a4,4,0,0,1-4-4Zm0-112a4,4,0,0,1,4-4h48a4,4,0,0,1,4,4V96a4,4,0,0,1-4,4H160a4,4,0,0,1-4-4Z"/></svg>