<svg xmlns="http://www.w3.org/2000/svg" viewBox="0 0 256 256" fill="currentColor"><path d="M234.9,56a62.86,62.86,0,0,0-92,0A68.16,68.16,0,0,0,128,80.44a68.16,68.16,0,0,0-15-24.45A62.86,62.86,0,0,0,21.1,56a4,4,0,0,0,1.3,6.42L90.86,92.2a68.66,68.66,0,0,0-12.45,2.11,67.49,67.49,0,0,0-41.28,31.46A66.72,66.72,0,0,0,30.33,177a4,4,0,0,0,2.57,2.75,4.1,4.1,0,0,0,1.29.21,4,4,0,0,0,2.43-.82L124,112.6V224a4,4,0,0,0,8,0V112.6l87.38,66.58a4,4,0,0,0,2.43.82,4.1,4.1,0,0,0,1.29-.21,4,4,0,0,0,2.57-2.75,66.72,66.72,0,0,0-6.8-51.27,67.49,67.49,0,0,0-41.28-31.46,68.66,68.66,0,0,0-12.45-2.11L233.6,62.41A4,4,0,0,0,234.9,56ZM67.08,44a55.13,55.13,0,0,1,40.18,17.5A60.86,60.86,0,0,1,123.7,97.77L31.12,57.48A54.75,54.75,0,0,1,67.08,44ZM36.77,169A58.72,58.72,0,0,1,44,129.79,59.57,59.57,0,0,1,80.47,102,61,61,0,0,1,96.1,100a59.71,59.71,0,0,1,24.41,5.22ZM212,129.79A58.72,58.72,0,0,1,219.23,169L135.49,105.2A60.24,60.24,0,0,1,212,129.79Zm-79.66-32A60.86,60.86,0,0,1,148.74,61.5a54.8,54.8,0,0,1,76.14-4Z"/></svg>