<svg xmlns="http://www.w3.org/2000/svg" viewBox="0 0 256 256" fill="currentColor"><path d="M104,32V64a8,8,0,0,1-8,8H64a8,8,0,0,1-8-8V32a8,8,0,0,1,8-8H96A8,8,0,0,1,104,32ZM208,96H176a8,8,0,0,0-8,8v32a8,8,0,0,0,8,8h32a8,8,0,0,0,8-8V104A8,8,0,0,0,208,96Zm0,88H176a8,8,0,0,0-8,8v32a8,8,0,0,0,8,8h32a8,8,0,0,0,8-8V192A8,8,0,0,0,208,184Z" opacity="0.2"/><path d="M176,152h32a16,16,0,0,0,16-16V104a16,16,0,0,0-16-16H176a16,16,0,0,0-16,16v8H88V80h8a16,16,0,0,0,16-16V32A16,16,0,0,0,96,16H64A16,16,0,0,0,48,32V64A16,16,0,0,0,64,80h8V192a24,24,0,0,0,24,24h64v8a16,16,0,0,0,16,16h32a16,16,0,0,0,16-16V192a16,16,0,0,0-16-16H176a16,16,0,0,0-16,16v8H96a8,8,0,0,1-8-8V128h72v8A16,16,0,0,0,176,152ZM64,32H96V64H64ZM176,192h32v32H176Zm0-88h32v32H176Z"/></svg>