<svg xmlns="http://www.w3.org/2000/svg" viewBox="0 0 256 256" fill="currentColor"><path d="M160,110h48a14,14,0,0,0,14-14V48a14,14,0,0,0-14-14H160a14,14,0,0,0-14,14V66H128a22,22,0,0,0-22,22v34H70V112A14,14,0,0,0,56,98H24a14,14,0,0,0-14,14v32a14,14,0,0,0,14,14H56a14,14,0,0,0,14-14V134h36v34a22,22,0,0,0,22,22h18v18a14,14,0,0,0,14,14h48a14,14,0,0,0,14-14V160a14,14,0,0,0-14-14H160a14,14,0,0,0-14,14v18H128a10,10,0,0,1-10-10V88a10,10,0,0,1,10-10h18V96A14,14,0,0,0,160,110ZM58,144a2,2,0,0,1-2,2H24a2,2,0,0,1-2-2V112a2,2,0,0,1,2-2H56a2,2,0,0,1,2,2Zm100,16a2,2,0,0,1,2-2h48a2,2,0,0,1,2,2v48a2,2,0,0,1-2,2H160a2,2,0,0,1-2-2Zm0-112a2,2,0,0,1,2-2h48a2,2,0,0,1,2,2V96a2,2,0,0,1-2,2H160a2,2,0,0,1-2-2Z"/></svg>