<svg xmlns="http://www.w3.org/2000/svg" viewBox="0 0 256 256" fill="currentColor"><path d="M196.55,64.09a74,74,0,0,0-137.1,0A69.71,69.71,0,0,0,18,127.8C17.9,164.91,49.13,197,86.19,198A70.32,70.32,0,0,0,122,189.16V232a6,6,0,0,0,12,0V189.16A70.1,70.1,0,0,0,168,198l1.77,0C206.87,197,238.1,164.9,238,127.8A69.71,69.71,0,0,0,196.55,64.09ZM169.5,186A57.88,57.88,0,0,1,134,175V131.71l44.68-22.34a6,6,0,1,0-5.36-10.74L134,118.29V88a6,6,0,0,0-12,0v54.29L82.68,122.63a6,6,0,0,0-5.36,10.74L122,155.71V175a58.09,58.09,0,0,1-35.5,11c-30.71-.77-56.58-27.4-56.5-58.14A57.78,57.78,0,0,1,66.37,74.19a6,6,0,0,0,3.39-3.51,62,62,0,0,1,116.48,0,6,6,0,0,0,3.39,3.51A57.77,57.77,0,0,1,226,127.83C226.08,158.58,200.21,185.2,169.5,186Z"/></svg>