<svg xmlns="http://www.w3.org/2000/svg" viewBox="0 0 256 256" fill="currentColor"><path d="M158,216a6,6,0,0,1-6,6H104a6,6,0,0,1,0-12h48A6,6,0,0,1,158,216Zm77.07-26.91L230.41,181a6,6,0,1,0-10.4,6l4.66,8.09a9.49,9.49,0,0,1,0,9.72,10.46,10.46,0,0,1-9.21,5.2H192a6,6,0,0,0,0,12h23.45a22.37,22.37,0,0,0,19.6-11.19A21.53,21.53,0,0,0,235.07,189.09ZM64,210H40.55a10.46,10.46,0,0,1-9.21-5.2,9.49,9.49,0,0,1,0-9.72L36,187a6,6,0,0,0-10.4-6l-4.66,8.08a21.53,21.53,0,0,0,0,21.72A22.37,22.37,0,0,0,40.55,222H64a6,6,0,0,0,0-12Zm138.18-60a6,6,0,0,0,5.2-9l-23-40a6,6,0,1,0-10.4,6l23,40A6,6,0,0,0,202.18,150ZM147.61,37.22a22.75,22.75,0,0,0-39.22,0L94.69,61a6,6,0,1,0,10.4,6l13.7-23.78a10.75,10.75,0,0,1,18.42,0L150.91,67a6,6,0,0,0,10.4-6ZM79.85,98.8A6,6,0,0,0,71.66,101l-23,40A6,6,0,1,0,59,147l23-40A6,6,0,0,0,79.85,98.8Z"/></svg>