<svg xmlns="http://www.w3.org/2000/svg" viewBox="0 0 256 256" fill="currentColor"><path d="M222,98.47V96a54.06,54.06,0,0,0-54-54h-8a14,14,0,0,0-14,14V178H126V72a6,6,0,0,0-6-6H16A14,14,0,0,0,2,80V184a30,30,0,0,0,54,18,30,30,0,0,0,53.4-12h85.2a30,30,0,0,0,59.4-6V136A38.07,38.07,0,0,0,222,98.47ZM158,56a2,2,0,0,1,2-2h8a42,42,0,0,1,42,42v8a6,6,0,0,0,6,6,26,26,0,0,1,26,26v24a30,30,0,0,0-47.4,18H158ZM16,78h98V178h-4.6A30,30,0,0,0,56,166a30,30,0,0,0-42-6V80A2,2,0,0,1,16,78ZM32,202a18,18,0,1,1,18-18A18,18,0,0,1,32,202Zm48,0a18,18,0,1,1,18-18A18,18,0,0,1,80,202Zm144,0a18,18,0,1,1,18-18A18,18,0,0,1,224,202Z"/></svg>