<svg xmlns="http://www.w3.org/2000/svg" viewBox="0 0 256 256" fill="currentColor"><path d="M255.42,117l-14-35A15.93,15.93,0,0,0,226.58,72H192V64a8,8,0,0,0-8-8H32A16,16,0,0,0,16,72V184a16,16,0,0,0,16,16H49a32,32,0,0,0,62,0h50a32,32,0,0,0,62,0h17a16,16,0,0,0,16-16V120A7.94,7.94,0,0,0,255.42,117ZM192,88h34.58l9.6,24H192ZM32,72H176v64H32ZM80,208a16,16,0,1,1,16-16A16,16,0,0,1,80,208Zm81-24H111a32,32,0,0,0-62,0H32V152H176v12.31A32.11,32.11,0,0,0,161,184Zm31,24a16,16,0,1,1,16-16A16,16,0,0,1,192,208Zm48-24H223a32.06,32.06,0,0,0-31-24V128h48Z"/></svg>