<svg xmlns="http://www.w3.org/2000/svg" viewBox="0 0 256 256" fill="currentColor"><path d="M253.57,117.78l-14-35a13.93,13.93,0,0,0-13-8.8H190V64a6,6,0,0,0-6-6H32A14,14,0,0,0,18,72V184a14,14,0,0,0,14,14H50.6a30,30,0,0,0,58.8,0h53.2a30,30,0,0,0,58.8,0H240a14,14,0,0,0,14-14V120A6,6,0,0,0,253.57,117.78ZM190,86h36.58a2,2,0,0,1,1.86,1.26L239.14,114H190ZM30,72a2,2,0,0,1,2-2H178v68H30ZM80,210a18,18,0,1,1,18-18A18,18,0,0,1,80,210Zm82.6-24H109.4a30,30,0,0,0-58.8,0H32a2,2,0,0,1-2-2V150H178v15.48A30.1,30.1,0,0,0,162.6,186ZM192,210a18,18,0,1,1,18-18A18,18,0,0,1,192,210Zm50-26a2,2,0,0,1-2,2H221.4A30.05,30.05,0,0,0,192,162c-.67,0-1.34,0-2,.07V126h52Z"/></svg>