<svg xmlns="http://www.w3.org/2000/svg" viewBox="0 0 256 256" fill="currentColor"><path d="M144,112v56a16,16,0,0,0,16,16h32v48H152a56,56,0,0,1-56-56V112H64V72h0a48,48,0,0,0,48-48h32V72h48v40Z" opacity="0.2"/><path d="M192,120a8,8,0,0,0,8-8V72a8,8,0,0,0-8-8H152V24a8,8,0,0,0-8-8H112a8,8,0,0,0-8,8A40,40,0,0,1,64,64a8,8,0,0,0-8,8v40a8,8,0,0,0,8,8H88v56a64.07,64.07,0,0,0,64,64h40a8,8,0,0,0,8-8V184a8,8,0,0,0-8-8H160a8,8,0,0,1-8-8V120Zm-32,72h24v32H152a48.05,48.05,0,0,1-48-48V112a8,8,0,0,0-8-8H72V79.43A56.13,56.13,0,0,0,119.43,32H136V72a8,8,0,0,0,8,8h40v24H144a8,8,0,0,0-8,8v56A24,24,0,0,0,160,192Z"/></svg>