<svg xmlns="http://www.w3.org/2000/svg" viewBox="0 0 256 256" fill="currentColor"><path d="M216,48V156.25a8,8,0,0,1-2.88,6.15l-42.89,35.75A8.05,8.05,0,0,1,165.1,200H120L72,240V200H48a8,8,0,0,1-8-8V48a8,8,0,0,1,8-8H208A8,8,0,0,1,216,48Z" opacity="0.2"/><path d="M208,32H48A16,16,0,0,0,32,48V192a16,16,0,0,0,16,16H64v32a8,8,0,0,0,13.12,6.15L122.9,208h42.2a16,16,0,0,0,10.25-3.71l42.89-35.75A15.93,15.93,0,0,0,224,156.25V48A16,16,0,0,0,208,32Zm0,124.25L165.1,192H120a8,8,0,0,0-5.12,1.85L80,222.92V200a8,8,0,0,0-8-8H48V48H208ZM160,136V88a8,8,0,0,1,16,0v48a8,8,0,0,1-16,0Zm-48,0V88a8,8,0,0,1,16,0v48a8,8,0,0,1-16,0Z"/></svg>