<svg xmlns="http://www.w3.org/2000/svg" viewBox="0 0 256 256" fill="currentColor"><path d="M240,72l-32,32c-4.26,66.84-60.08,120-128,120-32,0-40-12-40-12s32-12,48-36c0,0-55.15-32-47.22-120,0,0,39.66,40,87.22,48V88c0-22,18-40.27,40-40a40.74,40.74,0,0,1,36.67,24Z" opacity="0.2"/><path d="M247.39,68.94A8,8,0,0,0,240,64H209.57A48.65,48.65,0,0,0,168.1,40a46.87,46.87,0,0,0-33.74,13.7A47.87,47.87,0,0,0,120,88v6.09C79.74,83.47,46.81,50.72,46.46,50.37a8,8,0,0,0-13.65,4.92c-4.3,47.79,9.57,79.77,22,98.18a110.92,110.92,0,0,0,21.89,24.2C61.43,195.2,37.45,204.41,37.2,204.51a8,8,0,0,0-3.85,11.93c.74,1.12,3.75,5.05,11.08,8.72C53.51,229.7,65.48,232,80,232c70.68,0,129.72-54.42,135.76-124.44l29.9-29.9A8,8,0,0,0,247.39,68.94Zm-45,29.41a8,8,0,0,0-2.32,5.14C196,166.58,143.28,216,80,216c-10.56,0-18-1.4-23.22-3.08,11.52-6.25,27.56-17,37.88-32.48a8,8,0,0,0-2.61-11.34c-.13-.08-12.86-7.74-24.48-25.29C54.54,124.11,48,100.38,48,73.09c16,13,45.25,33.18,78.69,38.8A8,8,0,0,0,136,104V88a32,32,0,0,1,9.6-22.92A30.89,30.89,0,0,1,167.9,56c12.66.16,24.49,7.88,29.44,19.21A8,8,0,0,0,204.67,80h16Z"/></svg>