<svg xmlns="http://www.w3.org/2000/svg" viewBox="0 0 256 256" fill="currentColor"><path d="M238,126.79A110.43,110.43,0,0,0,53.11,55.22a109.51,109.51,0,0,0-35.06,71.57A14,14,0,0,0,32,142h90v58a30,30,0,0,0,60,0,6,6,0,0,0-12,0,18,18,0,0,1-36,0V142h90a14,14,0,0,0,14-15.21ZM94.11,130C95.8,78.79,118.81,49.84,128,40.27c9.2,9.58,32.2,38.53,33.89,89.73Zm-63.57-.65a2,2,0,0,1-.53-1.56,98.14,98.14,0,0,1,82.91-88.62c-12,15-29.43,44.44-30.83,90.83H32A2,2,0,0,1,30.54,129.35Zm194.92,0A2,2,0,0,1,224,130H173.91c-1.4-46.39-18.81-75.87-30.83-90.83A98.14,98.14,0,0,1,226,127.79,2,2,0,0,1,225.46,129.35Z"/></svg>