<svg xmlns="http://www.w3.org/2000/svg" viewBox="0 0 256 256" fill="currentColor"><path d="M168,100a60,60,0,1,1-60-60A60,60,0,0,1,168,100Z" opacity="0.2"/><path d="M144,157.68a68,68,0,1,0-71.9,0c-20.65,6.76-39.23,19.39-54.17,37.17a8,8,0,0,0,12.25,10.3C50.25,181.19,77.91,168,108,168s57.75,13.19,77.87,37.15a8,8,0,0,0,12.25-10.3C183.18,177.07,164.6,164.44,144,157.68ZM56,100a52,52,0,1,1,52,52A52.06,52.06,0,0,1,56,100Zm197.66,33.66-32,32a8,8,0,0,1-11.32,0l-16-16a8,8,0,0,1,11.32-11.32L216,148.69l26.34-26.35a8,8,0,0,1,11.32,11.32Z"/></svg>