<svg xmlns="http://www.w3.org/2000/svg" viewBox="0 0 256 256" fill="currentColor"><path d="M221.35,104.11a8,8,0,0,0-6.57,9.21A88.85,88.85,0,0,1,216,128a87.62,87.62,0,0,1-22.24,58.41,79.66,79.66,0,0,0-36.06-28.75,48,48,0,1,0-59.4,0,79.66,79.66,0,0,0-36.06,28.75A88,88,0,0,1,128,40a88.76,88.76,0,0,1,14.68,1.22,8,8,0,0,0,2.64-15.78,103.92,103.92,0,1,0,85.24,85.24A8,8,0,0,0,221.35,104.11ZM96,120a32,32,0,1,1,32,32A32,32,0,0,1,96,120ZM74.08,197.5a64,64,0,0,1,107.84,0,87.83,87.83,0,0,1-107.84,0ZM237.66,45.66l-32,32a8,8,0,0,1-11.32,0l-16-16a8,8,0,0,1,11.32-11.32L200,60.69l26.34-26.35a8,8,0,0,1,11.32,11.32Z"/></svg>