<svg xmlns="http://www.w3.org/2000/svg" viewBox="0 0 256 256" fill="currentColor"><path d="M172,56a4,4,0,0,1,4-4h20V32a4,4,0,0,1,8,0V52h20a4,4,0,0,1,0,8H204V80a4,4,0,0,1-8,0V60H176A4,4,0,0,1,172,56Zm54.62,55.34a99.89,99.89,0,1,1-82-82,4,4,0,0,1-1.32,7.89A93.4,93.4,0,0,0,128,36,92,92,0,0,0,62.83,192.87a75.61,75.61,0,0,1,44.51-34,44,44,0,1,1,41.32,0,75.61,75.61,0,0,1,44.51,34A91.69,91.69,0,0,0,220,128a93.58,93.58,0,0,0-1.27-15.34,4,4,0,0,1,7.89-1.32ZM128,156a36,36,0,1,0-36-36A36,36,0,0,0,128,156Zm0,64a91.61,91.61,0,0,0,59.14-21.58,68,68,0,0,0-118.27,0A91.56,91.56,0,0,0,128,220Z"/></svg>