<svg xmlns="http://www.w3.org/2000/svg" viewBox="0 0 256 256" fill="currentColor"><path d="M250.83,130.83l-24,24a4,4,0,0,1-5.66,0l-24-24a4,4,0,1,1,5.66-5.66L220,142.34V128A92,92,0,0,0,53.25,74.34a4,4,0,0,1-6.5-4.68A100,100,0,0,1,228,128v14.34l17.17-17.17a4,4,0,1,1,5.66,5.66Zm-41.6,55.51A100,100,0,0,1,28,128V113.66L10.83,130.83a4,4,0,0,1-5.66-5.66l24-24a4,4,0,0,1,5.66,0l24,24a4,4,0,0,1-5.66,5.66L36,113.66V128a91.69,91.69,0,0,0,26.83,64.87,75.61,75.61,0,0,1,44.51-34,44,44,0,1,1,41.32,0,75.57,75.57,0,0,1,44.52,34.07,91.34,91.34,0,0,0,9.56-11.24,4,4,0,1,1,6.49,4.68ZM128,156a36,36,0,1,0-36-36A36,36,0,0,0,128,156Zm0,64a92.23,92.23,0,0,0,59.14-21.57,68,68,0,0,0-118.27,0A91.56,91.56,0,0,0,128,220Z"/></svg>