<svg xmlns="http://www.w3.org/2000/svg" viewBox="0 0 256 256" fill="currentColor"><path d="M112,168a32,32,0,1,1-32-32A32,32,0,0,1,112,168ZM80,32a32,32,0,1,0,32,32A32,32,0,0,0,80,32Zm96,104a32,32,0,1,0,32,32A32,32,0,0,0,176,136Zm0-40a32,32,0,1,0-32-32A32,32,0,0,0,176,96Z" opacity="0.2"/><path d="M27.2,126.4a8,8,0,0,0,11.2-1.6,52,52,0,0,1,83.2,0,8,8,0,0,0,11.2,1.59,7.73,7.73,0,0,0,1.59-1.59h0a52,52,0,0,1,83.2,0,8,8,0,0,0,12.8-9.61A67.85,67.85,0,0,0,203,93.51a40,40,0,1,0-53.94,0,67.27,67.27,0,0,0-21,14.31,67.27,67.27,0,0,0-21-14.31,40,40,0,1,0-53.94,0A67.88,67.88,0,0,0,25.6,115.2,8,8,0,0,0,27.2,126.4ZM176,40a24,24,0,1,1-24,24A24,24,0,0,1,176,40ZM80,40A24,24,0,1,1,56,64,24,24,0,0,1,80,40ZM203,197.51a40,40,0,1,0-53.94,0,67.27,67.27,0,0,0-21,14.31,67.27,67.27,0,0,0-21-14.31,40,40,0,1,0-53.94,0A67.88,67.88,0,0,0,25.6,219.2a8,8,0,1,0,12.8,9.6,52,52,0,0,1,83.2,0,8,8,0,0,0,11.2,1.59,7.73,7.73,0,0,0,1.59-1.59h0a52,52,0,0,1,83.2,0,8,8,0,0,0,12.8-9.61A67.85,67.85,0,0,0,203,197.51ZM80,144a24,24,0,1,1-24,24A24,24,0,0,1,80,144Zm96,0a24,24,0,1,1-24,24A24,24,0,0,1,176,144Z"/></svg>