<svg xmlns="http://www.w3.org/2000/svg" viewBox="0 0 256 256" fill="currentColor"><path d="M220.69,100.17A12,12,0,0,0,210.84,114,85,85,0,0,1,212,128,83.57,83.57,0,0,1,194,179.94a83.48,83.48,0,0,0-29-23.42,52,52,0,1,0-74,0,83.48,83.48,0,0,0-29,23.42A83.94,83.94,0,0,1,128,44a85,85,0,0,1,14,1.16,12,12,0,0,0,4-23.67A108.1,108.1,0,0,0,20,128a108,108,0,0,0,216,0,109.19,109.19,0,0,0-1.49-18A12,12,0,0,0,220.69,100.17ZM100,120a28,28,0,1,1,28,28A28,28,0,0,1,100,120ZM79.57,196.57a60,60,0,0,1,96.86,0,83.72,83.72,0,0,1-96.86,0ZM240.49,48.49l-32,32a12,12,0,0,1-17,0l-16-16a12,12,0,0,1,17-17L200,55l23.51-23.52a12,12,0,1,1,17,17Z"/></svg>