<svg xmlns="http://www.w3.org/2000/svg" viewBox="0 0 256 256" fill="currentColor"><path d="M243.6,148.8a6,6,0,0,1-8.4-1.2A53.58,53.58,0,0,0,192,126a6,6,0,0,1,0-12,26,26,0,1,0-25.18-32.5,6,6,0,0,1-11.62-3,38,38,0,1,1,59.91,39.63A65.69,65.69,0,0,1,244.8,140.4,6,6,0,0,1,243.6,148.8ZM189.19,213a6,6,0,0,1-2.19,8.2,5.9,5.9,0,0,1-3,.81,6,6,0,0,1-5.2-3,59,59,0,0,0-101.62,0,6,6,0,1,1-10.38-6A70.1,70.1,0,0,1,103,182.55a46,46,0,1,1,50.1,0A70.1,70.1,0,0,1,189.19,213ZM128,178a34,34,0,1,0-34-34A34,34,0,0,0,128,178ZM70,120a6,6,0,0,0-6-6A26,26,0,1,1,89.18,81.49a6,6,0,1,0,11.62-3,38,38,0,1,0-59.91,39.63A65.69,65.69,0,0,0,11.2,140.4a6,6,0,1,0,9.6,7.2A53.58,53.58,0,0,1,64,126,6,6,0,0,0,70,120Z"/></svg>