<svg xmlns="http://www.w3.org/2000/svg" viewBox="0 0 256 256" fill="currentColor"><path d="M237,147.44a4,4,0,0,1-5.48-1.4c-8.33-14-20.93-22-34.56-22a4,4,0,0,1-1.2-.2,36.76,36.76,0,0,1-3.8.2,4,4,0,0,1,0-8,28,28,0,1,0-27.12-35,4,4,0,0,1-7.75-2,36,36,0,1,1,54,39.48c10.81,3.85,20.51,12,27.31,23.48A4,4,0,0,1,237,147.44ZM187.46,214a4,4,0,0,1-1.46,5.46,3.93,3.93,0,0,1-2,.54,4,4,0,0,1-3.46-2,61,61,0,0,0-105.08,0,4,4,0,0,1-6.92-4,68.35,68.35,0,0,1,39.19-31,44,44,0,1,1,40.54,0A68.35,68.35,0,0,1,187.46,214ZM128,180a36,36,0,1,0-36-36A36,36,0,0,0,128,180ZM64,116A28,28,0,1,1,91.12,81a4,4,0,0,0,7.75-2A36,36,0,1,0,45.3,118.75,63.55,63.55,0,0,0,12.8,141.6a4,4,0,0,0,6.4,4.8A55.55,55.55,0,0,1,64,124a4,4,0,0,0,0-8Z"/></svg>