<svg xmlns="http://www.w3.org/2000/svg" viewBox="0 0 256 256" fill="currentColor"><path d="M24.79,121.59a12,12,0,0,0,16.81-2.38,48,48,0,0,1,76.81,0,12,12,0,0,0,16.8,2.39,12.24,12.24,0,0,0,2.38-2.39h0a48,48,0,0,1,76.81,0,12,12,0,1,0,19.19-14.41,72,72,0,0,0-25.3-21.22,40,40,0,1,0-64.58,0A71,71,0,0,0,128,94.31a71,71,0,0,0-15.71-10.74,40,40,0,1,0-64.58,0,72,72,0,0,0-25.3,21.22A12,12,0,0,0,24.79,121.59ZM176,44a16,16,0,1,1-16,16A16,16,0,0,1,176,44ZM80,44A16,16,0,1,1,64,60,16,16,0,0,1,80,44ZM208.29,195.57a40,40,0,1,0-64.58,0A71.31,71.31,0,0,0,128,206.3a71.31,71.31,0,0,0-15.71-10.73,40,40,0,1,0-64.58,0,72,72,0,0,0-25.3,21.22A12,12,0,0,0,41.6,231.21a48,48,0,0,1,76.81,0,12,12,0,0,0,16.8,2.39,12.24,12.24,0,0,0,2.38-2.39h0a48,48,0,0,1,76.81,0,12,12,0,1,0,19.19-14.41A71.91,71.91,0,0,0,208.29,195.57ZM80,156a16,16,0,1,1-16,16A16,16,0,0,1,80,156Zm96,0a16,16,0,1,1-16,16A16,16,0,0,1,176,156Z"/></svg>