<svg xmlns="http://www.w3.org/2000/svg" viewBox="0 0 256 256" fill="currentColor"><path d="M139,158.25a66,66,0,1,0-62,0c-22,6.23-41.88,19.16-57.61,37.89a6,6,0,0,0,9.18,7.72C49.1,179.44,77.31,166,108,166s58.9,13.44,79.41,37.86a6,6,0,1,0,9.18-7.72C180.86,177.41,161,164.48,139,158.25ZM54,100a54,54,0,1,1,54,54A54.06,54.06,0,0,1,54,100Zm197.25,44.8-5.92-3.41a22,22,0,0,0,0-10.78l5.92-3.41a6,6,0,0,0-6-10.4l-5.93,3.43a22,22,0,0,0-9.32-5.39V108a6,6,0,0,0-12,0v6.84a22,22,0,0,0-9.32,5.39l-5.93-3.43a6,6,0,0,0-6,10.4l5.92,3.41a22,22,0,0,0,0,10.78l-5.92,3.41a6,6,0,0,0,6,10.4l5.93-3.43a22,22,0,0,0,9.32,5.39V164a6,6,0,0,0,12,0v-6.84a22,22,0,0,0,9.32-5.39l5.93,3.43a6,6,0,0,0,6-10.4ZM224,146a10,10,0,1,1,10-10A10,10,0,0,1,224,146Z"/></svg>