<svg xmlns="http://www.w3.org/2000/svg" viewBox="0 0 256 256" fill="currentColor"><path d="M208,40H48a8,8,0,0,0-8,8V208a8,8,0,0,0,8,8H208a8,8,0,0,0,8-8V48A8,8,0,0,0,208,40ZM57.78,216A72,72,0,0,1,128,160a40,40,0,1,1,40-40,40,40,0,0,1-40,40,72,72,0,0,1,70.22,56Z" opacity="0.2"/><path d="M208,32H48A16,16,0,0,0,32,48V208a16,16,0,0,0,16,16H208a16,16,0,0,0,16-16V48A16,16,0,0,0,208,32ZM96,120a32,32,0,1,1,32,32A32,32,0,0,1,96,120ZM68.67,208A64.45,64.45,0,0,1,87.8,182.2a64,64,0,0,1,80.4,0A64.45,64.45,0,0,1,187.33,208ZM208,208h-3.67a79.87,79.87,0,0,0-46.69-50.29,48,48,0,1,0-59.28,0A79.87,79.87,0,0,0,51.67,208H48V48H208V208Z"/></svg>