<svg xmlns="http://www.w3.org/2000/svg" viewBox="0 0 256 256" fill="currentColor"><path d="M248,112v64a8,8,0,0,1-8,8H216a24,24,0,0,0-48,0H104a24,24,0,0,0-48,0H32a8,8,0,0,1-8-8V112Z" opacity="0.2"/><path d="M254.07,106.79,208.53,53.73A16,16,0,0,0,196.26,48H32A16,16,0,0,0,16,64V176a16,16,0,0,0,16,16H49a32,32,0,0,0,62,0h50a32,32,0,0,0,62,0h17a16,16,0,0,0,16-16V112A8,8,0,0,0,254.07,106.79ZM230.59,104H176V64h20.26ZM104,104V64h56v40ZM88,64v40H32V64ZM80,200a16,16,0,1,1,16-16A16,16,0,0,1,80,200Zm112,0a16,16,0,1,1,16-16A16,16,0,0,1,192,200Zm31-24a32,32,0,0,0-62,0H111a32,32,0,0,0-62,0H32V120H240v56Z"/></svg>