<svg xmlns="http://www.w3.org/2000/svg" viewBox="0 0 256 256" fill="currentColor"><path d="M176,56V200a16,16,0,0,1-16,16H96a16,16,0,0,1-16-16V56A16,16,0,0,1,96,40h64A16,16,0,0,1,176,56Z" opacity="0.2"/><path d="M160,32H96A24,24,0,0,0,72,56V200a24,24,0,0,0,24,24h64a24,24,0,0,0,24-24V56A24,24,0,0,0,160,32Zm8,168a8,8,0,0,1-8,8H96a8,8,0,0,1-8-8V56a8,8,0,0,1,8-8h64a8,8,0,0,1,8,8ZM216,88v80a8,8,0,0,1-16,0V88a8,8,0,0,1,16,0Zm32,16v48a8,8,0,0,1-16,0V104a8,8,0,0,1,16,0ZM56,88v80a8,8,0,0,1-16,0V88a8,8,0,0,1,16,0ZM24,104v48a8,8,0,0,1-16,0V104a8,8,0,0,1,16,0Z"/></svg>