<svg xmlns="http://www.w3.org/2000/svg" viewBox="0 0 256 256" fill="currentColor"><path d="M216,40H40A16,16,0,0,0,24,56V200a16,16,0,0,0,16,16H216a16,16,0,0,0,16-16V56A16,16,0,0,0,216,40Zm0,80H168V56h48ZM40,56H152V200H40ZM216,200H168V136h48v64ZM180,88a12,12,0,1,1,12,12A12,12,0,0,1,180,88Zm24,80a12,12,0,1,1-12-12A12,12,0,0,1,204,168Zm-68.25-2a39.76,39.76,0,0,0-17.19-23.34,32,32,0,1,0-45.12,0A39.84,39.84,0,0,0,56.25,166a8,8,0,0,0,15.5,4c2.64-10.25,13.06-18,24.25-18s21.62,7.73,24.25,18a8,8,0,1,0,15.5-4ZM80,120a16,16,0,1,1,16,16A16,16,0,0,1,80,120Z"/></svg>