<svg xmlns="http://www.w3.org/2000/svg" viewBox="0 0 256 256" fill="currentColor"><path d="M216,48H40a8,8,0,0,0-8,8V168a8,8,0,0,0,8,8H216a8,8,0,0,0,8-8V56A8,8,0,0,0,216,48ZM112,144V80l48,32Z" opacity="0.2"/><path d="M164.44,105.34l-48-32A8,8,0,0,0,104,80v64a8,8,0,0,0,12.44,6.66l48-32a8,8,0,0,0,0-13.32ZM120,129.05V95l25.58,17ZM216,40H40A16,16,0,0,0,24,56V168a16,16,0,0,0,16,16H216a16,16,0,0,0,16-16V56A16,16,0,0,0,216,40Zm0,128H40V56H216V168Zm16,40a8,8,0,0,1-8,8H32a8,8,0,0,1,0-16H224A8,8,0,0,1,232,208Z"/></svg>