<svg xmlns="http://www.w3.org/2000/svg" viewBox="0 0 256 256" fill="currentColor"><path d="M128,32a96,96,0,1,0,96,96A96,96,0,0,0,128,32Zm0,120a24,24,0,1,1,24-24A24,24,0,0,1,128,152Z" opacity="0.2"/><path d="M128,24A104,104,0,1,0,232,128,104.11,104.11,0,0,0,128,24Zm0,192a88,88,0,1,1,88-88A88.1,88.1,0,0,1,128,216Zm0-144a56.06,56.06,0,0,0-56,56,8,8,0,0,1-16,0,72.08,72.08,0,0,1,72-72,8,8,0,0,1,0,16Zm72,56a72.08,72.08,0,0,1-72,72,8,8,0,0,1,0-16,56.06,56.06,0,0,0,56-56,8,8,0,0,1,16,0Zm-40,0a32,32,0,1,0-32,32A32,32,0,0,0,160,128Zm-48,0a16,16,0,1,1,16,16A16,16,0,0,1,112,128Z"/></svg>