<svg xmlns="http://www.w3.org/2000/svg" viewBox="0 0 256 256" fill="currentColor"><path d="M134,108a26,26,0,1,0-26,26A26,26,0,0,0,134,108Zm-26,14a14,14,0,1,1,14-14A14,14,0,0,1,108,122Zm82,6a14,14,0,1,1-14-14A14,14,0,0,1,190,128Zm-48,48a14,14,0,1,1-14-14A14,14,0,0,1,142,176Zm98-54H221.8a93.57,93.57,0,0,0-23.26-56.06l13.7-13.7a6,6,0,0,0-8.48-8.48l-13.7,13.7A93.57,93.57,0,0,0,134,34.2V16a6,6,0,0,0-12,0V34.2A93.57,93.57,0,0,0,65.94,57.46l-13.7-13.7a6,6,0,0,0-8.48,8.48l13.7,13.7A93.57,93.57,0,0,0,34.2,122H16a6,6,0,0,0,0,12H34.2a93.57,93.57,0,0,0,23.26,56.06l-13.7,13.7a6,6,0,1,0,8.48,8.48l13.7-13.7A93.57,93.57,0,0,0,122,221.8V240a6,6,0,0,0,12,0V221.8a93.57,93.57,0,0,0,56.06-23.26l13.7,13.7a6,6,0,0,0,8.48-8.48l-13.7-13.7A93.57,93.57,0,0,0,221.8,134H240a6,6,0,0,0,0-12ZM128,210a82,82,0,1,1,82-82A82.1,82.1,0,0,1,128,210Z"/></svg>