<svg xmlns="http://www.w3.org/2000/svg" viewBox="0 0 256 256" fill="currentColor"><path d="M132,108a24,24,0,1,0-24,24A24,24,0,0,0,132,108Zm-24,16a16,16,0,1,1,16-16A16,16,0,0,1,108,124Zm80,4a12,12,0,1,1-12-12A12,12,0,0,1,188,128Zm-48,48a12,12,0,1,1-12-12A12,12,0,0,1,140,176Zm100-52H219.91a91.64,91.64,0,0,0-24.12-58.13l15-15a4,4,0,1,0-5.66-5.66l-15,15A91.64,91.64,0,0,0,132,36.09V16a4,4,0,0,0-8,0V36.09A91.64,91.64,0,0,0,65.87,60.21l-15-15a4,4,0,0,0-5.66,5.66l15,15A91.64,91.64,0,0,0,36.09,124H16a4,4,0,0,0,0,8H36.09a91.64,91.64,0,0,0,24.12,58.13l-15,15a4,4,0,0,0,5.66,5.66l15-15A91.64,91.64,0,0,0,124,219.91V240a4,4,0,0,0,8,0V219.91a91.64,91.64,0,0,0,58.13-24.12l15,15a4,4,0,0,0,5.66-5.66l-15-15A91.64,91.64,0,0,0,219.91,132H240a4,4,0,0,0,0-8ZM128,212a84,84,0,1,1,84-84A84.09,84.09,0,0,1,128,212Z"/></svg>