<svg xmlns="http://www.w3.org/2000/svg" viewBox="0 0 256 256" fill="currentColor"><path d="M224,91.55v72.9a8,8,0,0,1-2.34,5.66l-51.55,51.55a8,8,0,0,1-5.66,2.34H91.55a8,8,0,0,1-5.66-2.34L34.34,170.11A8,8,0,0,1,32,164.45V91.55a8,8,0,0,1,2.34-5.66L85.89,34.34A8,8,0,0,1,91.55,32h72.9a8,8,0,0,1,5.66,2.34l51.55,51.55A8,8,0,0,1,224,91.55Z" opacity="0.2"/><path d="M120,136V80a8,8,0,0,1,16,0v56a8,8,0,0,1-16,0ZM232,91.55v72.9a15.86,15.86,0,0,1-4.69,11.31l-51.55,51.55A15.86,15.86,0,0,1,164.45,232H91.55a15.86,15.86,0,0,1-11.31-4.69L28.69,175.76A15.86,15.86,0,0,1,24,164.45V91.55a15.86,15.86,0,0,1,4.69-11.31L80.24,28.69A15.86,15.86,0,0,1,91.55,24h72.9a15.86,15.86,0,0,1,11.31,4.69l51.55,51.55A15.86,15.86,0,0,1,232,91.55Zm-16,0L164.45,40H91.55L40,91.55v72.9L91.55,216h72.9L216,164.45ZM128,160a12,12,0,1,0,12,12A12,12,0,0,0,128,160Z"/></svg>