<svg xmlns="http://www.w3.org/2000/svg" viewBox="0 0 256 256" fill="currentColor"><path d="M124,136V80a4,4,0,0,1,8,0v56a4,4,0,0,1-8,0ZM228,91.55v72.9a12,12,0,0,1-3.51,8.49l-51.55,51.55a12,12,0,0,1-8.49,3.51H91.55a12,12,0,0,1-8.49-3.51L31.51,172.94A12,12,0,0,1,28,164.45V91.55a12,12,0,0,1,3.51-8.49L83.06,31.51A12,12,0,0,1,91.55,28h72.9a12,12,0,0,1,8.49,3.51l51.55,51.55A12,12,0,0,1,228,91.55Zm-8,0a4,4,0,0,0-1.17-2.83L167.28,37.17A4.06,4.06,0,0,0,164.45,36H91.55a4.06,4.06,0,0,0-2.83,1.17L37.17,88.72A4,4,0,0,0,36,91.55v72.9a4,4,0,0,0,1.17,2.83l51.55,51.55A4.06,4.06,0,0,0,91.55,220h72.9a4.06,4.06,0,0,0,2.83-1.17l51.55-51.55a4,4,0,0,0,1.17-2.83ZM128,164a8,8,0,1,0,8,8A8,8,0,0,0,128,164Z"/></svg>