<svg xmlns="http://www.w3.org/2000/svg" viewBox="0 0 256 256" fill="currentColor"><path d="M208,32H48A16,16,0,0,0,32,48V208a16,16,0,0,0,16,16H208a16,16,0,0,0,16-16V48A16,16,0,0,0,208,32Zm0,176H48V48H208V208ZM128,64a64,64,0,1,0,64,64A64.07,64.07,0,0,0,128,64Zm0,112a48,48,0,1,1,48-48A48.05,48.05,0,0,1,128,176ZM200,68a12,12,0,1,1-12-12A12,12,0,0,1,200,68Zm-74.34,49.66-16,16a8,8,0,0,1-11.32-11.32l16-16a8,8,0,0,1,11.32,11.32Zm32-3.32a8,8,0,0,1,0,11.32l-32,32a8,8,0,0,1-11.32-11.32l32-32A8,8,0,0,1,157.66,114.34Z"/></svg>