<svg xmlns="http://www.w3.org/2000/svg" viewBox="0 0 256 256" fill="currentColor"><path d="M206,128a77.92,77.92,0,0,0-32.53-63.31L167.1,29.5A14,14,0,0,0,153.32,18H102.68A14,14,0,0,0,88.9,29.5L82.53,64.69a77.87,77.87,0,0,0,0,126.62L88.9,226.5A14,14,0,0,0,102.68,238h50.64a14,14,0,0,0,13.78-11.5l6.37-35.19A77.92,77.92,0,0,0,206,128ZM100.71,31.64a2,2,0,0,1,2-1.64h50.64a2,2,0,0,1,2,1.64l4.56,25.19a77.68,77.68,0,0,0-63.7,0Zm54.58,192.72a2,2,0,0,1-2,1.64H102.68a2,2,0,0,1-2-1.64l-4.56-25.19a77.68,77.68,0,0,0,63.7,0ZM128,194a66,66,0,1,1,66-66A66.08,66.08,0,0,1,128,194Zm46-66a6,6,0,0,1-6,6H128a6,6,0,0,1-6-6V88a6,6,0,0,1,12,0v34h34A6,6,0,0,1,174,128Z"/></svg>