<svg xmlns="http://www.w3.org/2000/svg" viewBox="0 0 256 256" fill="currentColor"><path d="M208,128a79.85,79.85,0,0,0-27.95-60.68L173,28.43A20,20,0,0,0,153.32,12H102.68A20,20,0,0,0,83,28.43L76,67.32a79.84,79.84,0,0,0,0,121.36l7,38.89A20,20,0,0,0,102.68,244h50.64A20,20,0,0,0,173,227.57l7.05-38.89A79.85,79.85,0,0,0,208,128ZM106,36h44l2.9,16a79.76,79.76,0,0,0-49.76,0Zm44,184H106l-2.9-16a79.76,79.76,0,0,0,49.76,0Zm-22-36a56,56,0,1,1,56-56A56.06,56.06,0,0,1,128,184Zm40-56a12,12,0,0,1-12,12H128a12,12,0,0,1-12-12V100a12,12,0,0,1,24,0v16h16A12,12,0,0,1,168,128Z"/></svg>