<svg xmlns="http://www.w3.org/2000/svg" viewBox="0 0 256 256" fill="currentColor"><path d="M208,96v64H48V96Z" opacity="0.2"/><path d="M56,96v64a8,8,0,0,1-16,0V96a8,8,0,0,1,16,0ZM53.92,34.62A8,8,0,1,0,42.08,45.38L80,87.09V224a8,8,0,0,0,16,0V104.69l24,26.4V192a8,8,0,0,0,16,0V148.69l66.08,72.69a8,8,0,1,0,11.84-10.76ZM88,44.43a8,8,0,0,0,8-8V32a8,8,0,0,0-16,0v4.43A8,8,0,0,0,88,44.43Zm40,44a8,8,0,0,0,8-8V64a8,8,0,0,0-16,0V80.43A8,8,0,0,0,128,88.43Zm40,44a8,8,0,0,0,8-8V96a8,8,0,0,0-16,0v28.43A8,8,0,0,0,168,132.43ZM208,72a8,8,0,0,0-8,8v88.43a8,8,0,0,0,16,0V80A8,8,0,0,0,208,72Z"/></svg>