<svg xmlns="http://www.w3.org/2000/svg" viewBox="0 0 256 256" fill="currentColor"><path d="M187.3,159.06A36.09,36.09,0,0,1,152,188a84.09,84.09,0,0,1-84-84A36.09,36.09,0,0,1,96.94,68.7,12,12,0,0,1,110,75.1l11.48,23a12,12,0,0,1-.75,12l-8.52,12.78a44.56,44.56,0,0,0,20.91,20.91l12.78-8.52a12,12,0,0,1,12-.75l23,11.48A12,12,0,0,1,187.3,159.06ZM236,128A108,108,0,0,1,78.77,224.15L46.34,235A20,20,0,0,1,21,209.66l10.81-32.43A108,108,0,1,1,236,128Zm-24,0A84,84,0,1,0,55.27,170.06a12,12,0,0,1,1,9.81l-9.93,29.79,29.79-9.93a12.1,12.1,0,0,1,3.8-.62,12,12,0,0,1,6,1.62A84,84,0,0,0,212,128Z"/></svg>