<svg xmlns="http://www.w3.org/2000/svg" viewBox="0 0 256 256" fill="currentColor"><path d="M202.33,130.94l-68.18,82.18a8,8,0,0,1-12.3,0L53.67,130.94a116,116,0,0,1,148.66,0Z" opacity="0.2"/><path d="M247.89,80.91a15.93,15.93,0,0,0-6.17-10.81A186.67,186.67,0,0,0,128,32,186.67,186.67,0,0,0,14.28,70.1,15.93,15.93,0,0,0,8.11,80.91,15.65,15.65,0,0,0,11.65,92.8l104,125.43A15.93,15.93,0,0,0,128,224h0a15.93,15.93,0,0,0,12.31-5.77h0l104-125.43A15.65,15.65,0,0,0,247.89,80.91ZM128,208l-62.87-75.8a107.89,107.89,0,0,1,125.74,0Zm73.12-88.16a124,124,0,0,0-146.24,0L24.09,82.74A170.76,170.76,0,0,1,128,48,170.76,170.76,0,0,1,231.91,82.74Z"/></svg>