<svg xmlns="http://www.w3.org/2000/svg" viewBox="0 0 256 256" fill="currentColor"><path d="M216.88,207.93a12,12,0,1,1-17.76,16.14L147.78,167.6a56.06,56.06,0,0,0-52.71,7.1,12,12,0,0,1-14.14-19.4,79.35,79.35,0,0,1,41.92-15.12L103.51,118.9a104.18,104.18,0,0,0-40.06,19.55,12,12,0,0,1-14.9-18.81A128.46,128.46,0,0,1,85.61,99.21l-17.31-19a151.14,151.14,0,0,0-36.68,22.28A12,12,0,1,1,16.39,83.91a175.52,175.52,0,0,1,35-22.38L39.12,48.07A12,12,0,1,1,56.88,31.93ZM128,188a16,16,0,1,0,16,16A16,16,0,0,0,128,188Zm64.55-49.55a12,12,0,0,0,14.9-18.81A127.27,127.27,0,0,0,170,99.05a12,12,0,0,0-7.87,22.67A103.62,103.62,0,0,1,192.55,138.45Zm47.06-54.54A176.33,176.33,0,0,0,128,44c-3.94,0-7.93.13-11.86.39a12,12,0,1,0,1.59,24c3.4-.23,6.86-.34,10.27-.34a152.24,152.24,0,0,1,96.38,34.46,12,12,0,1,0,15.23-18.55Z"/></svg>