<svg xmlns="http://www.w3.org/2000/svg" viewBox="0 0 256 256" fill="currentColor"><path d="M238.2,87.69l-104,125.43a8,8,0,0,1-12.3,0L17.8,87.69a7.79,7.79,0,0,1,1.31-11.21,180.75,180.75,0,0,1,217.78,0A7.79,7.79,0,0,1,238.2,87.69Z" opacity="0.2"/><path d="M53.92,34.62A8,8,0,1,0,42.08,45.38l4.55,5A187.93,187.93,0,0,0,14.28,70.1,15.93,15.93,0,0,0,8.11,80.91,15.65,15.65,0,0,0,11.65,92.8l104,125.43A15.93,15.93,0,0,0,128,224h0a15.93,15.93,0,0,0,12.31-5.77l28.1-33.88,33.67,37a8,8,0,1,0,11.84-10.76ZM128,208,24.09,82.74A171.5,171.5,0,0,1,57.91,62.79l99.63,109.6ZM244.35,92.8l-49.42,59.58a8,8,0,0,1-12.32-10.21l49.3-59.43A170.76,170.76,0,0,0,128,48a175.15,175.15,0,0,0-32.39,3,8,8,0,1,1-3-15.72A190.62,190.62,0,0,1,128,32,186.67,186.67,0,0,1,241.72,70.1a15.93,15.93,0,0,1,6.17,10.81A15.65,15.65,0,0,1,244.35,92.8Z"/></svg>