<svg xmlns="http://www.w3.org/2000/svg" viewBox="0 0 256 256" fill="currentColor"><path d="M208,136H128a8,8,0,0,0-8,8v57.45a8,8,0,0,0,6.57,7.88l80,14.54A7.61,7.61,0,0,0,208,224a8,8,0,0,0,8-8V144A8,8,0,0,0,208,136Zm-8,70.41-64-11.63V152h64ZM96,136H32a8,8,0,0,0-8,8v40a8,8,0,0,0,6.57,7.87l64,11.64a8.54,8.54,0,0,0,1.43.13,8,8,0,0,0,8-8V144A8,8,0,0,0,96,136Zm-8,50.05-48-8.73V152H88ZM213.13,33.86a8,8,0,0,0-6.56-1.73l-80,14.55A8,8,0,0,0,120,54.55V112a8,8,0,0,0,8,8h80a8,8,0,0,0,8-8V40A8,8,0,0,0,213.13,33.86ZM200,104H136V61.22l64-11.63ZM101.13,54.22a8,8,0,0,0-6.56-1.73l-64,11.64A8,8,0,0,0,24,72v40a8,8,0,0,0,8,8H96a8,8,0,0,0,8-8V60.36A8,8,0,0,0,101.13,54.22ZM88,104H40V78.68L88,70Z"/></svg>