<svg xmlns="http://www.w3.org/2000/svg" viewBox="0 0 256 256" fill="currentColor"><path d="M224,228H179.47l-8-55.78,10.4,6.12a12,12,0,0,0,16.45-4.25l12-20.34a12,12,0,0,0-4.26-16.43l-38.46-22.64L210.34,42.1a12,12,0,0,0-4.25-16.44l-20.34-12a12,12,0,0,0-16.44,4.25L146.68,56.38,74.1,13.66a12,12,0,0,0-16.45,4.25l-12,20.34a12,12,0,0,0,4.26,16.44L88.38,77.33,45.66,149.91a12,12,0,0,0,4.25,16.44l20.34,12a12,12,0,0,0,13.5-.91L76.53,228H32a4,4,0,0,0,0,8H224a4,4,0,0,0,0-8Zm-20.13-81.34a3.93,3.93,0,0,1-.43,3l-12,20.34a4,4,0,0,1-5.49,1.42l-72.58-42.72,16-27.25L202,144.21A4,4,0,0,1,203.87,146.66ZM176.21,22a4,4,0,0,1,5.48-1.42l20.34,12A4,4,0,0,1,203.44,38l-42.71,72.58-27.25-16ZM52.13,45.35a3.92,3.92,0,0,1,.43-3L64.55,22A4,4,0,0,1,70,20.56l72.58,42.72-16,27.25L54,47.79A4,4,0,0,1,52.13,45.35ZM77.34,171.87a4,4,0,0,1-3-.42L54,159.46a4,4,0,0,1-1.41-5.5L95.27,81.38l27.25,16L79.79,170A4,4,0,0,1,77.34,171.87Zm16.78-10.41,15.2-25.84L162.68,167l8.71,61H84.61Z"/></svg>