<svg xmlns="http://www.w3.org/2000/svg" viewBox="0 0 256 256" fill="currentColor"><path d="M99.69,51.88a12,12,0,0,0-9.84-2.6l-60,10.91A12,12,0,0,0,20,72v36a12,12,0,0,0,12,12H92a12,12,0,0,0,12-12V61.09A12,12,0,0,0,99.69,51.88ZM80,96H44V82l36-6.54ZM215.69,30.79a12,12,0,0,0-9.84-2.6L129.85,42A12,12,0,0,0,120,53.82V108a12,12,0,0,0,12,12h76a12,12,0,0,0,12-12V40A12,12,0,0,0,215.69,30.79ZM196,96H144V63.83l52-9.45ZM92,136H32a12,12,0,0,0-12,12v36a12,12,0,0,0,9.85,11.81l60,10.91A12,12,0,0,0,104,194.91V148A12,12,0,0,0,92,136ZM80,180.53,44,174V160H80ZM208,136H132a12,12,0,0,0-12,12v54.18A12,12,0,0,0,129.85,214l76,13.82A12,12,0,0,0,220,216V148A12,12,0,0,0,208,136Zm-12,65.62-52-9.45V160h52Z"/></svg>