<svg xmlns="http://www.w3.org/2000/svg" viewBox="0 0 256 256" fill="currentColor"><path d="M224,220H186.41l-4.72-33a20,20,0,0,0,23.55-8.83l12-20.33a20,20,0,0,0-7.09-27.4l-31.57-18.58,38.66-65.68a20,20,0,0,0-7.08-27.39l-20.34-12a20,20,0,0,0-27.39,7.09L143.84,45.43,78.15,6.77a20,20,0,0,0-27.39,7.09l-12,20.33a20,20,0,0,0,7.09,27.4L77.43,80.17,38.77,145.85a20,20,0,0,0,7.08,27.39l20.34,12a19.83,19.83,0,0,0,8,2.65L69.59,220H32a12,12,0,0,0,0,24H224a12,12,0,0,0,0-24Zm-37.41-57.47-62.26-36.64,7.93-13.46,62.26,36.65Zm-5.52-133,13.46,7.93L157.89,99.67l-13.46-7.92Zm-111.66,0,62.26,36.64-7.93,13.46L61.48,42.93ZM61.47,154.59,98.11,92.34l13.46,7.92L74.93,162.52Zm40.34,9.56,10.35-17.57L155.3,172l6.86,48H93.84Z"/></svg>