<svg xmlns="http://www.w3.org/2000/svg" viewBox="0 0 256 256" fill="currentColor"><path d="M205.33,103.67,183.56,29.74A8,8,0,0,0,175.89,24H80.11a8,8,0,0,0-7.67,5.74L50.67,103.67a63.46,63.46,0,0,0,17.42,64.67A87.39,87.39,0,0,0,120,191.63V232H88a8,8,0,1,0,0,16h80a8,8,0,1,0,0-16H136V191.63a87.41,87.41,0,0,0,51.91-23.29A63.46,63.46,0,0,0,205.33,103.67ZM86.09,40h83.82L190,108.19c.09.3.17.6.25.9-21.42,7.68-45.54-1.6-58.63-8.23C106.43,88.11,86.43,86.49,71.68,88.93ZM177,156.65a71.69,71.69,0,0,1-98,0,47.55,47.55,0,0,1-13-48.46l.45-1.52c12-4.06,31.07-5.14,57.93,8.47,11.15,5.65,29.16,12.85,48.43,12.85a68.64,68.64,0,0,0,19.05-2.6A47.2,47.2,0,0,1,177,156.65Z"/></svg>