<svg xmlns="http://www.w3.org/2000/svg" viewBox="0 0 256 256" fill="currentColor"><path d="M209.17,102.54,187.39,28.61A12,12,0,0,0,175.89,20H80.11a12,12,0,0,0-11.5,8.61L46.83,102.54a67.45,67.45,0,0,0,18.53,68.72A91.32,91.32,0,0,0,116,195.2V228H88a12,12,0,0,0,0,24h80a12,12,0,0,0,0-24H140V195.2a91.32,91.32,0,0,0,50.65-23.94A67.45,67.45,0,0,0,209.17,102.54ZM89.08,44h77.84l18.38,62.41c-10.88,2.8-28.05,3-51.88-9.12C110.68,85.78,91.92,83,77.24,84.22ZM128,172a67.5,67.5,0,0,1-46.26-18.27,43.55,43.55,0,0,1-12-43.89c18.44-5.33,38.64,1.66,52.87,8.87,11.55,5.85,30.18,13.28,50.26,13.28a74.15,74.15,0,0,0,14.29-1.35,43.2,43.2,0,0,1-12.87,23.09A67.5,67.5,0,0,1,128,172Z"/></svg>