<svg xmlns="http://www.w3.org/2000/svg" viewBox="0 0 256 256" fill="currentColor"><path d="M232,220h0l-64.79,0A100,100,0,1,0,128,228l104,0a4,4,0,0,0,0-8ZM128,36a91.5,91.5,0,0,1,52.43,16.44,219.41,219.41,0,0,0-36.38,19.18A218.63,218.63,0,0,0,87.63,45.35,91.31,91.31,0,0,1,128,36ZM77.85,50.91a210.45,210.45,0,0,1,59,25.6,220.83,220.83,0,0,0-26.07,21.77A177.81,177.81,0,0,0,50.81,78,92.59,92.59,0,0,1,77.85,50.91ZM46.44,85.46a169.84,169.84,0,0,1,58.47,18.73,221.81,221.81,0,0,0-20.84,25.32,138.5,138.5,0,0,0-47.36-12.94A91.36,91.36,0,0,1,46.44,85.46Zm9.32,99.44A91.54,91.54,0,0,1,36,128c0-1.16,0-2.3.07-3.45a130.5,130.5,0,0,1,43.46,11.67A218.37,218.37,0,0,0,55.76,184.9Zm6.12,7A213.32,213.32,0,0,1,187.79,58.13a92.71,92.71,0,0,1,21.28,26.42,179.87,179.87,0,0,0-119.53,127A92.65,92.65,0,0,1,61.88,191.9ZM128,220a91.62,91.62,0,0,1-31-5.37A171.82,171.82,0,0,1,212.59,91.84a91.29,91.29,0,0,1,7.28,31.28A140.54,140.54,0,0,0,128.69,220Zm91.92-88.45a92.13,92.13,0,0,1-82.81,88A132.58,132.58,0,0,1,219.92,131.55Z"/></svg>