<svg xmlns="http://www.w3.org/2000/svg" viewBox="0 0 256 256" fill="currentColor"><path d="M170.49,117.91l-56-36A12,12,0,0,0,96,92v72a12,12,0,0,0,18.49,10.09l56-36a12,12,0,0,0,0-20.18ZM120,142V114l21.81,14Zm118.21-73.5a28.05,28.05,0,0,0-16.93-19.14C186.4,35.91,131.29,36,128,36s-58.4-.09-93.28,13.38A28.05,28.05,0,0,0,17.79,68.52C15.15,78.72,12,97.32,12,128s3.15,49.28,5.79,59.48a28.05,28.05,0,0,0,16.93,19.14C68.21,219.55,120.36,220,127.37,220h1.26c7,0,59.16-.45,92.65-13.38a28.05,28.05,0,0,0,16.93-19.14c2.64-10.2,5.79-28.8,5.79-59.48S240.85,78.72,238.21,68.52ZM215,181.46a4,4,0,0,1-2.34,2.77C182.78,195.76,132.27,196,128.32,196h-.39c-.53,0-53.64.17-84.56-11.77A4,4,0,0,1,41,181.46c-1.88-7.24-5-23.82-5-53.46s3.15-46.22,5-53.46a4,4,0,0,1,2.34-2.77C74.29,59.83,127.39,60,127.92,60h.15c.54,0,53.64-.17,84.56,11.77A4,4,0,0,1,215,74.54c1.88,7.24,5,23.82,5,53.46S216.85,174.22,215,181.46Z"/></svg>