<svg xmlns="http://www.w3.org/2000/svg" viewBox="0 0 256 256" fill="currentColor"><path d="M163.33,123l-48-32A6,6,0,0,0,106,96v64a6,6,0,0,0,9.33,5l48-32a6,6,0,0,0,0-10ZM118,148.79V107.21L149.18,128ZM232.4,70a22,22,0,0,0-13.28-15C185,41.79,130.27,42,128,42s-57-.21-91.16,13A22,22,0,0,0,23.6,70C21.05,79.89,18,98,18,128s3.05,48.11,5.6,58a22,22,0,0,0,13.28,15C71,214.21,125.72,214,128,214h.71c6.91,0,58-.44,90.45-13a22,22,0,0,0,13.28-15c2.55-9.87,5.6-27.93,5.6-58S235,79.89,232.4,70ZM220.78,183a10,10,0,0,1-6,6.86C182.78,202.19,128.58,202,128,202s-54.71.2-86.75-12.17a10,10,0,0,1-6-6.86C32.84,173.78,30,156.78,30,128s2.84-45.78,5.22-55a10,10,0,0,1,6-6.86C72.06,54.26,123.53,54,127.76,54H128c.54,0,54.71-.2,86.75,12.17a10,10,0,0,1,6,6.86c2.38,9.19,5.22,26.19,5.22,55S223.16,173.78,220.78,183Z"/></svg>