<svg xmlns="http://www.w3.org/2000/svg" viewBox="0 0 256 256" fill="currentColor"><path d="M226.59,71.53a16,16,0,0,0-9.63-11C183.48,47.65,128,48,128,48s-55.48-.35-89,12.58a16,16,0,0,0-9.63,11C27.07,80.54,24,98.09,24,128s3.07,47.46,5.41,56.47A16,16,0,0,0,39,195.42C72.52,208.35,128,208,128,208s55.48.35,89-12.58a16,16,0,0,0,9.63-10.95c2.34-9,5.41-26.56,5.41-56.47S228.93,80.54,226.59,71.53ZM112,160V96l48,32Z" opacity="0.2"/><path d="M164.44,121.34l-48-32A8,8,0,0,0,104,96v64a8,8,0,0,0,12.44,6.66l48-32a8,8,0,0,0,0-13.32ZM120,145.05V111l25.58,17ZM234.33,69.52a24,24,0,0,0-14.49-16.4C185.56,39.88,131,40,128,40s-57.56-.12-91.84,13.12a24,24,0,0,0-14.49,16.4C19.08,79.5,16,97.74,16,128s3.08,48.5,5.67,58.48a24,24,0,0,0,14.49,16.41C69,215.56,120.4,216,127.34,216h1.32c6.94,0,58.37-.44,91.18-13.11a24,24,0,0,0,14.49-16.41c2.59-10,5.67-28.22,5.67-58.48S236.92,79.5,234.33,69.52Zm-15.49,113a8,8,0,0,1-4.77,5.49c-31.65,12.22-85.48,12-86.12,12s-54.37.18-86-12a8,8,0,0,1-4.77-5.49C34.8,173.39,32,156.57,32,128s2.8-45.39,5.16-54.47A8,8,0,0,1,41.93,68C73.58,55.82,127.4,56,128.05,56s54.37-.18,86,12a8,8,0,0,1,4.77,5.49C221.2,82.61,224,99.43,224,128S221.2,173.39,218.84,182.47Z"/></svg>