<svg xmlns="http://www.w3.org/2000/svg" viewBox="0 0 256 256" fill="currentColor"><path d="M162.22,124.67l-48-32A4,4,0,0,0,108,96v64a4,4,0,0,0,2.11,3.53,4,4,0,0,0,4.11-.2l48-32a4,4,0,0,0,0-6.66ZM116,152.53V103.47L152.79,128Zm114.46-82A20,20,0,0,0,218.4,56.85C184.6,43.79,130.27,44,128,44S71.4,43.79,37.6,56.85A20,20,0,0,0,25.54,70.52C23,80.27,20,98.16,20,128s3,47.73,5.54,57.48A20,20,0,0,0,37.6,199.15C71.4,212.21,125.73,212,128,212h.71c6.89,0,57.58-.43,89.72-12.85a20,20,0,0,0,12.06-13.67C233,175.72,236,157.84,236,128S233,80.27,230.46,70.52Zm-7.74,113a12,12,0,0,1-7.21,8.22C183.14,204.19,128.57,204,128,204s-55.11.19-87.48-12.31a12,12,0,0,1-7.21-8.22C30.87,174.17,28,157,28,128s2.87-46.17,5.28-55.47a12,12,0,0,1,7.21-8.22C72.86,51.81,127.43,52,128,52s55.11-.2,87.48,12.31a12,12,0,0,1,7.21,8.22C225.13,81.83,228,99,228,128S225.13,174.17,222.72,183.47Z"/></svg>