<?xml version="1.0" encoding="UTF-8"?>
<svg width="16px" height="16px" viewBox="0 0 16 16" version="1.1" xmlns="http://www.w3.org/2000/svg" xmlns:xlink="http://www.w3.org/1999/xlink">
    <title>ph-8-circle</title>
    <g id="Page-1" stroke="none" stroke-width="1" fill="none" fill-rule="evenodd">
        <g id="REFACTOR---Testing-32-line-style-MEDIUM---REFACTOR" transform="translate(-204.000000, -932.000000)">
            <g id="ph-8-circle" transform="translate(204.000000, 932.000000)">
                <polygon id="Fill-1" points="0 16 16 16 16 0 0 0"></polygon>
                <path d="M8,1.5 C11.5891424,1.5 14.5,4.41085763 14.5,8 C14.5,11.5891424 11.5891424,14.5 8,14.5 C4.41085763,14.5 1.5,11.5891424 1.5,8 C1.5,4.41085763 4.41085763,1.5 8,1.5 Z M8,2.5 C4.96314237,2.5 2.5,4.96314237 2.5,8 C2.5,11.0368576 4.96314237,13.5 8,13.5 C11.0368576,13.5 13.5,11.0368576 13.5,8 C13.5,4.96314237 11.0368576,2.5 8,2.5 Z M8,4.5 C8.503645,4.5 8.97716567,4.70005889 9.32555339,5.04844661 C9.67477051,5.39766372 9.875,5.87109684 9.875,6.375 C9.875,6.87890316 9.67477051,7.35233628 9.32555339,7.70155339 C9.32299407,7.70411271 9.32042799,7.70666403 9.3178552,7.70920732 C9.38266412,7.75929633 9.4441377,7.81403091 9.50255339,7.87244661 C9.89821433,8.26810755 10.125,8.8040524 10.125,9.375 C10.125,9.9459476 9.89821433,10.4818924 9.50255339,10.8775534 C9.10689245,11.2732143 8.5709476,11.5 8,11.5 C7.4290524,11.5 6.89310755,11.2732143 6.49744661,10.8775534 C6.10178567,10.4818924 5.875,9.9459476 5.875,9.375 C5.875,8.8040524 6.10178567,8.26810755 6.49744661,7.87244661 C6.5558623,7.81403091 6.61733588,7.75929633 6.68152852,7.70842922 C6.32522949,7.35233628 6.125,6.87890316 6.125,6.375 C6.125,5.87109684 6.32522949,5.39766372 6.67444661,5.04844661 C7.02283433,4.70005889 7.496355,4.5 8,4.5 Z M8,8.25 C7.69705398,8.25 7.41457584,8.36953094 7.20455339,8.57955339 C6.99453094,8.78957584 6.875,9.07205398 6.875,9.375 C6.875,9.67794602 6.99453094,9.96042416 7.20455339,10.1704466 C7.41457584,10.3804691 7.69705398,10.5 8,10.5 C8.30294602,10.5 8.58542416,10.3804691 8.79544661,10.1704466 C9.00546906,9.96042416 9.125,9.67794602 9.125,9.375 C9.125,9.07205398 9.00546906,8.78957584 8.79544661,8.57955339 C8.58542416,8.36953094 8.30294602,8.25 8,8.25 Z M8,5.5 C7.76414859,5.5 7.54416567,5.59294111 7.38155339,5.75555339 C7.21802051,5.91908628 7.125,6.13902884 7.125,6.375 C7.125,6.61097116 7.21802051,6.83091372 7.38155339,6.99444661 C7.54416567,7.15705889 7.76414859,7.25 8,7.25 C8.23585141,7.25 8.45583433,7.15705889 8.61844661,6.99444661 C8.78197949,6.83091372 8.875,6.61097116 8.875,6.375 C8.875,6.13902884 8.78197949,5.91908628 8.61844661,5.75555339 C8.45583433,5.59294111 8.23585141,5.5 8,5.5 Z" id="Combined-Shape" fill="#000000" fill-rule="nonzero"></path>
            </g>
        </g>
    </g>
</svg>