<?xml version="1.0" encoding="UTF-8"?>
<svg width="16px" height="16px" viewBox="0 0 16 16" version="1.1" xmlns="http://www.w3.org/2000/svg" xmlns:xlink="http://www.w3.org/1999/xlink">
    <title>ph-arrow-right-circle</title>
    <g id="Page-1" stroke="none" stroke-width="1" fill="none" fill-rule="evenodd">
        <g id="REFACTOR---Testing-32-line-style-MEDIUM---REFACTOR" transform="translate(-204.000000, -772.000000)">
            <g id="ph-arrow-right-circle" transform="translate(204.000000, 772.000000)">
                <polygon id="Fill-1" points="0 16 16 16 16 0 0 0"></polygon>
                <path d="M8,1.5 C11.5891424,1.5 14.5,4.41085763 14.5,8 C14.5,11.5891424 11.5891424,14.5 8,14.5 C4.41085763,14.5 1.5,11.5891424 1.5,8 C1.5,4.41085763 4.41085763,1.5 8,1.5 Z M8,2.5 C4.96314237,2.5 2.5,4.96314237 2.5,8 C2.5,11.0368576 4.96314237,13.5 8,13.5 C11.0368576,13.5 13.5,11.0368576 13.5,8 C13.5,4.96314237 11.0368576,2.5 8,2.5 Z M8.6632055,5.46769116 L8.73245339,5.52554661 L10.8534534,7.64654661 L10.8654113,7.65871357 C10.8770608,7.67118132 10.8880797,7.68424576 10.8984173,7.69785608 L10.8534534,7.64654661 C10.8799392,7.67303238 10.9028324,7.70175031 10.922133,7.73209483 C10.9303571,7.74484526 10.9379841,7.75813559 10.945001,7.7717909 C10.9505761,7.78287366 10.9558807,7.79424973 10.9607342,7.80577073 C10.9669546,7.8201926 10.9723394,7.83483565 10.9770412,7.8497814 C10.9815794,7.86474904 10.985556,7.8798696 10.9888143,7.89511295 C10.9912332,7.90562898 10.9932062,7.91661634 10.9948142,7.92772188 C10.9972429,7.94556098 10.9988382,7.96303275 10.9995194,7.98053349 C10.9998635,7.98639522 11,7.99318167 11,8 L10.9994793,8.02066948 C10.998777,8.03783477 10.9971949,8.05497076 10.9947333,8.07200411 L11,8 C11,8.03609704 10.9961748,8.07130067 10.9889078,8.10522765 C10.9855039,8.12057425 10.981452,8.13593471 10.9766587,8.15111164 C10.9724419,8.16473685 10.9675915,8.17802507 10.9622078,8.19103656 C10.9565485,8.20463886 10.9501504,8.21837569 10.943095,8.23185819 C10.9367067,8.24404667 10.9299807,8.25568247 10.922812,8.26701032 C10.9191668,8.27280191 10.9153054,8.27863638 10.9113088,8.2844055 L10.8984173,8.30214392 C10.8880797,8.31575424 10.8770608,8.32881868 10.8654113,8.34128643 L10.8534534,8.35365339 L8.73245339,10.4746534 C8.53719124,10.6699155 8.22060876,10.6699155 8.02534661,10.4746534 C7.85178026,10.301087 7.83249511,10.0316626 7.96749116,9.8367945 L8.02534661,9.76754661 L9.291,8.5 L5.5,8.5 C5.22385763,8.5 5,8.27614237 5,8 C5,7.75454011 5.17687516,7.55039163 5.41012437,7.50805567 L5.5,7.5 L9.293,7.5 L8.02534661,6.23265339 C7.85178026,6.05908704 7.83249511,5.78966264 7.96749116,5.5947945 L8.02534661,5.52554661 C8.19891296,5.35198026 8.46833736,5.33269511 8.6632055,5.46769116 Z" id="Combined-Shape" fill="#000000" fill-rule="nonzero"></path>
            </g>
        </g>
    </g>
</svg>