<?xml version="1.0" encoding="UTF-8"?>
<svg width="150px" height="150px" viewBox="0 0 150 150" version="1.1" xmlns="http://www.w3.org/2000/svg" xmlns:xlink="http://www.w3.org/1999/xlink">
    <title>back-to-top</title>
    <g id="back-to-top" stroke="none" stroke-width="1" fill="none" fill-rule="evenodd">
        <g id="u-arrow">
            <circle id="shadow" stroke="#000000" stroke-width="2" fill="#000000" cx="78" cy="78" r="71"></circle>
            <circle id="bg" stroke="#000000" stroke-width="2" fill="#FFFFFF" cx="72" cy="72" r="71"></circle>
            <g id="icon" transform="translate(72.200000, 73.200000) scale(1, -1) rotate(90.000000) translate(-72.200000, -73.200000) translate(43.200000, 44.200000)" fill="#000000" fill-rule="nonzero">
                <path d="M39.6,10.8 C40.5941125,10.8 41.4,11.6058875 41.4,12.6 C41.4,13.5444069 40.6726866,14.3189407 39.747628,14.3940331 L39.6,14.4 L19.8,14.4 C13.8353125,14.4 9,19.2353125 9,25.2 C9,31.0684828 13.6805926,35.8437284 19.512283,35.9962419 L19.8,36 L46.054,36 L38.3272078,28.2727922 C37.6633165,27.6089009 37.6264336,26.5554365 38.2165592,25.8482593 L38.3272078,25.7272078 C38.9910991,25.0633165 40.0445635,25.0264336 40.7517407,25.6165592 L40.8727922,25.7272078 L51.6727922,36.5272078 C51.7086835,36.5630991 51.7430661,36.600499 51.7758368,36.6393043 L51.6727922,36.5272078 C51.722523,36.5769386 51.7687356,36.6288554 51.8114298,36.6826489 C51.8303122,36.7066321 51.8485184,36.7308286 51.8661181,36.7554879 C51.8786457,36.7727743 51.8909825,36.7907223 51.9029573,36.8088392 C51.9204983,36.8356771 51.9373395,36.8626973 51.9534721,36.8901836 C51.9604155,36.901718 51.9673022,36.9137723 51.9740382,36.9258878 C51.9905898,36.9559164 52.006343,36.9862258 52.0212445,37.0170243 C52.0310894,37.0372379 52.0403272,37.0573209 52.0491756,37.0775332 C52.0615763,37.105848 52.0734867,37.1350368 52.0846414,37.1645963 C52.0896953,37.1781611 52.0944267,37.1911991 52.0990025,37.2042794 C52.1106655,37.237281 52.121476,37.2712903 52.1312871,37.3057207 C52.1358977,37.3224356 52.1403085,37.338831 52.1444838,37.3552738 C52.1807852,37.4974825 52.2,37.6464973 52.2,37.8 C52.2,38.0494086 52.1492745,38.2869696 52.0575775,38.5029292 C52.0430903,38.5371689 52.0273615,38.5712925 52.0105085,38.6049973 C51.9965597,38.632636 51.9820362,38.6598508 51.9668455,38.6866377 C51.966621,38.6873207 51.9664341,38.6876503 51.966247,38.6879798 C51.9435288,38.727754 51.9186404,38.7678619 51.892262,38.8068799 C51.8795991,38.8258795 51.8663526,38.8446817 51.8527038,38.863281 C51.8342916,38.888172 51.8153249,38.912692 51.7957513,38.9366974 C51.7915469,38.9419745 51.7875087,38.9468658 51.7834408,38.9517407 L51.7644975,38.9739923 C51.7400259,39.0024091 51.7146818,39.030053 51.6885067,39.0568825 L51.6727922,39.0727922 L40.8727922,49.8727922 C40.1698485,50.5757359 39.0301515,50.5757359 38.3272078,49.8727922 C37.6633165,49.2089009 37.6264336,48.1554365 38.2165592,47.4482593 L38.3272078,47.3272078 L46.054,39.6 L19.8,39.6 C11.8470875,39.6 5.4,33.1529125 5.4,25.2 C5.4,17.351731 11.6785434,10.9699209 19.4868626,10.8033373 L19.8,10.8 L39.6,10.8 Z" id="u-arrow-up-left"></path>
            </g>
        </g>
    </g>
</svg>