<?xml version="1.0" encoding="UTF-8"?>
<svg width="16px" height="16px" viewBox="0 0 16 16" version="1.1" xmlns="http://www.w3.org/2000/svg" xmlns:xlink="http://www.w3.org/1999/xlink">
    <title>ph-basketball</title>
    <g id="Page-1" stroke="none" stroke-width="1" fill="none" fill-rule="evenodd">
        <g id="REFACTOR---Testing-32-line-style-MEDIUM---REFACTOR" transform="translate(-204.000000, -964.000000)">
            <g id="ph-basketball" transform="translate(204.000000, 964.000000)">
                <polygon id="Fill-1" points="0 16 16 16 16 0 0 0"></polygon>
                <path d="M8,1.5 C11.5891424,1.5 14.5,4.41085763 14.5,8 C14.5,11.5891424 11.5891424,14.5 8,14.5 C4.41085763,14.5 1.5,11.5891424 1.5,8 C1.5,4.41085763 4.41085763,1.5 8,1.5 Z M9.55429959,8.97337801 L9.43006779,9.01211926 C7.55413659,9.63360544 5.89350932,10.7965274 4.65824297,12.3685077 C5.58519969,13.0783317 6.74349235,13.5 8,13.5 C8.55752955,13.5 9.09572236,13.4169812 9.60288719,13.2626348 L9.54459967,13.5349582 C9.71885259,12.7827664 9.8077,12.0125167 9.8077,11.2308 C9.8077,10.4598876 9.7208522,9.70369736 9.55429959,8.97337801 Z M12.615,8.4998 C11.9011889,8.4998 11.1998057,8.57431359 10.5197587,8.71772674 C10.7096591,9.53064447 10.8077,10.372458 10.8077,11.2308 C10.8077,11.7569603 10.771006,12.2785803 10.6985033,12.7938125 C12.2228482,11.9337973 13.2972372,10.3656975 13.474231,8.53565603 C13.1908789,8.5117738 12.904485,8.4998 12.615,8.4998 Z M8.53481559,6.31385229 L8.30976713,6.42932039 C6.80578057,7.17311443 5.12810107,7.5773 3.3848,7.5773 C3.09774178,7.5773 2.80916805,7.56593678 2.51936805,7.54357193 C2.50630333,7.69421609 2.5,7.84637396 2.5,8 C2.5,9.41958746 3.03822636,10.7138112 3.92168529,11.6896775 C5.30923882,9.94726976 7.17714181,8.66971052 9.28220581,8.00905679 C9.08586195,7.42042833 8.83494892,6.85312466 8.53481559,6.31385229 Z M11.6534716,3.88919624 L11.5305119,4.02522995 C10.8930519,4.71168827 10.1766098,5.3107253 9.39926428,5.81153823 C9.74373251,6.427144 10.0296512,7.07703302 10.251823,7.75231069 C11.018093,7.58622782 11.8093777,7.4998 12.615,7.4998 C12.9064349,7.4998 13.1953573,7.51088026 13.4813268,7.53303173 C13.359305,6.08792917 12.6776579,4.80014903 11.6534716,3.88919624 Z M5.62569395,3.03773938 C4.2010023,3.72087066 3.1158356,4.9995388 2.69300906,6.5509286 C2.92557773,6.56934145 3.15589619,6.5773 3.3848,6.5773 C5.0248187,6.5773 6.60053646,6.18455619 8.00395415,5.46362181 C7.36790733,4.54709997 6.57831577,3.73420945 5.66000664,3.06259033 Z M8,2.5 C7.56982598,2.5 7.15116357,2.54942299 6.74938295,2.64289878 C7.56906561,3.31612676 8.28200963,4.09717987 8.87204727,4.95992236 C9.5932694,4.49525283 10.2568148,3.93566899 10.8451518,3.29334793 C10.0141842,2.78930955 9.04078507,2.5 8,2.5 Z" id="Combined-Shape" fill="#000000" fill-rule="nonzero"></path>
            </g>
        </g>
    </g>
</svg>