<svg xmlns="http://www.w3.org/2000/svg" width="246" height="246" viewBox="0 0 246 246">
  <g fill="none" fill-rule="evenodd">
    <circle cx="120" cy="120" r="119.5" stroke="#245633" opacity=".2"/>
    <g fill="#245633" fill-rule="nonzero" transform="translate(56 56)">
      <path d="M64,10 C93.8177085,10 118,34.1822915 118,64 C118,93.8177085 93.8177085,118 64,118 C34.1822915,118 10,93.8177085 10,64 C10,34.1822915 34.1822915,10 64,10 Z M64,22 C40.8097085,22 22,40.8097085 22,64 C22,87.1902915 40.8097085,106 64,106 C87.1902915,106 106,87.1902915 106,64 C106,40.8097085 87.1902915,22 64,22 Z"/>
      <path d="M63.9969207,32.342058 C67.0490461,33.4192787 68.6837704,36.7139781 67.7304533,39.7784541 L67.657942,39.9969207 L58.479,66 L67.9990088,65.9993648 L68,55.996 C68,52.6822915 70.6862915,49.996 74,49.996 C77.2383969,49.996 79.8775718,52.5615749 79.9958615,55.7710617 L80,55.996 L80,87.996 C80,91.3097085 77.3137085,93.996 74,93.996 C70.7616031,93.996 68.1224282,91.4304251 68.0041385,88.2209383 L68,87.996 L67.9990088,77.9993648 L50,78 C45.9341991,78 43.0680996,74.05168 44.2723194,70.212364 L44.342058,70.0030793 L56.342058,36.0030793 C57.4449269,32.8782842 60.8721256,31.2391891 63.9969207,32.342058 Z"/>
    </g>
    <g transform="translate(52.5 152.064)">
      <circle cx="67.5" cy="4" r="4" fill="#245633"/>
      <line x1="67.5" x2="67.5" y1="5" y2="37" stroke="#245633"/>
      <path fill="#245633" fill-rule="nonzero" d="M1.653,52 L1.653,48.544 C1.653,48.176 1.695,47.848 1.779,47.56 C1.863,47.272 1.986,47.027 2.148,46.825 C2.31,46.623 2.51,46.468 2.748,46.36 C2.986,46.252 3.261,46.198 3.573,46.198 C3.913,46.198 4.202,46.26 4.44,46.384 C4.678,46.508 4.872,46.683 5.022,46.909 C5.172,47.135 5.281,47.399 5.349,47.701 C5.417,48.003 5.451,48.334 5.451,48.694 L5.451,48.694 L5.451,52 L6.339,52 L6.339,48.436 C6.339,48.144 6.311,47.851 6.255,47.557 C6.199,47.263 6.109,46.985 5.985,46.723 C5.861,46.461 5.698,46.228 5.496,46.024 C5.294,45.82 5.048,45.658 4.758,45.538 C4.468,45.418 4.129,45.358 3.741,45.358 C3.213,45.358 2.745,45.474 2.337,45.706 C2.04557143,45.8717143 1.79904082,46.093551 1.59740816,46.3715102 L1.562,46.424 L1.563,45.52 L0.765,45.52 L0.765,52 L1.653,52 Z M10.377,52.162 C10.905,52.162 11.373,52.046 11.781,51.814 C12.0724286,51.6482857 12.3189592,51.426449 12.5205918,51.1484898 L12.554,51.098 L12.555,52 L13.347,52 L13.347,45.52 L12.465,45.52 L12.465,48.976 C12.465,49.34 12.423,49.667 12.339,49.957 C12.255,50.247 12.132,50.493 11.97,50.695 C11.808,50.897 11.608,51.052 11.37,51.16 C11.132,51.268 10.857,51.322 10.545,51.322 C10.205,51.322 9.916,51.26 9.678,51.136 C9.44,51.012 9.246,50.837 9.096,50.611 C8.946,50.385 8.837,50.12 8.769,49.816 C8.701,49.512 8.667,49.182 8.667,48.826 L8.667,48.826 L8.667,45.52 L7.779,45.52 L7.779,49.084 C7.779,49.376 7.807,49.669 7.863,49.963 C7.919,50.257 8.009,50.535 8.133,50.797 C8.257,51.059 8.42,51.292 8.622,51.496 C8.824,51.7 9.07,51.862 9.36,51.982 C9.65,52.102 9.989,52.162 10.377,52.162 Z M15.909,52 L15.909,47.818 C15.909,47.31 16.047,46.903 16.323,46.597 C16.599,46.291 16.961,46.138 17.409,46.138 C17.857,46.138 18.218,46.287 18.492,46.585 C18.766,46.883 18.903,47.29 18.903,47.806 L18.903,47.806 L18.897,52 L19.767,52 L19.773,47.818 C19.773,47.418 19.848,47.094 19.998,46.846 C20.148,46.598 20.339,46.418 20.571,46.306 C20.803,46.194 21.041,46.138 21.285,46.138 C21.713,46.138 22.066,46.281 22.344,46.567 C22.622,46.853 22.761,47.246 22.761,47.746 L22.761,47.746 L22.755,52 L23.637,52 L23.643,47.578 C23.643,46.894 23.447,46.351 23.055,45.949 C22.663,45.547 22.141,45.346 21.489,45.346 C21.057,45.346 20.67,45.443 20.328,45.637 C19.986,45.831 19.718,46.102 19.524,46.45 L19.528,46.442 L19.497,46.378 C19.3436667,46.098 19.1424167,45.8735556 18.89325,45.7046667 L18.738,45.61 C18.416,45.434 18.049,45.346 17.637,45.346 C17.205,45.346 16.819,45.441 16.479,45.631 C16.2523333,45.7576667 16.0576667,45.9154444 15.895,46.1043333 L15.812,46.209 L15.813,45.52 L15.021,45.52 L15.021,52 L15.909,52 Z M28.113,52.18 C28.717,52.18 29.233,52.029 29.661,51.727 C30.089,51.425 30.417,51.016 30.645,50.5 C30.873,49.984 30.987,49.402 30.987,48.754 C30.987,48.11 30.874,47.53 30.648,47.014 C30.422,46.498 30.097,46.09 29.673,45.79 C29.249,45.49 28.741,45.34 28.149,45.34 C27.541,45.34 27.029,45.488 26.613,45.784 C26.4347143,45.9108571 26.2749796,46.0577347 26.1337959,46.2246327 L26.085,46.287 L26.085,43.36 L25.197,43.36 L25.197,52 L25.989,52 L25.989,51.099 C26.1190408,51.2843197 26.2662245,51.4483061 26.430551,51.5909592 L26.601,51.727 C27.013,52.029 27.517,52.18 28.113,52.18 Z M28.023,51.358 C27.563,51.358 27.183,51.246 26.883,51.022 C26.583,50.798 26.359,50.489 26.211,50.095 C26.063,49.701 25.989,49.254 25.989,48.754 C25.989,48.246 26.063,47.797 26.211,47.407 C26.359,47.017 26.582,46.712 26.88,46.492 C27.178,46.272 27.553,46.162 28.005,46.162 C28.469,46.162 28.852,46.276 29.154,46.504 C29.456,46.732 29.681,47.042 29.829,47.434 C29.977,47.826 30.051,48.266 30.051,48.754 C30.051,49.246 29.976,49.689 29.826,50.083 C29.676,50.477 29.451,50.788 29.151,51.016 C28.851,51.244 28.475,51.358 28.023,51.358 Z M37.995,49.006 C38.015,48.246 37.909,47.592 37.677,47.044 C37.445,46.496 37.103,46.075 36.651,45.781 C36.199,45.487 35.653,45.34 35.013,45.34 C34.389,45.34 33.848,45.48 33.39,45.76 C32.932,46.04 32.577,46.438 32.325,46.954 C32.073,47.47 31.947,48.082 31.947,48.79 C31.947,49.474 32.075,50.07 32.331,50.578 C32.587,51.086 32.946,51.48 33.408,51.76 C33.87,52.04 34.417,52.18 35.049,52.18 C35.677,52.18 36.24,52.025 36.738,51.715 C37.236,51.405 37.613,50.968 37.869,50.404 L37.869,50.404 L37.047,50.086 C36.847,50.49 36.574,50.799 36.228,51.013 C35.882,51.227 35.477,51.334 35.013,51.334 C34.333,51.334 33.808,51.109 33.438,50.659 C33.142,50.299 32.9644,49.82188 32.9052,49.22764 L32.888,49.006 L37.521,49.006 L37.995,49.006 Z M37.07,48.268 L32.907,48.268 L32.93295,48.05944 C32.99955,47.62696 33.13275,47.2636 33.33255,46.96936 L33.438,46.828 C33.808,46.376 34.341,46.15 35.037,46.15 C35.701,46.15 36.206,46.364 36.552,46.792 C36.8288,47.1344 37,47.60864 37.0656,48.21472 L37.07,48.268 Z M40.203,52 L40.203,48.766 C40.203,48.51 40.221,48.251 40.257,47.989 C40.293,47.727 40.365,47.479 40.473,47.245 C40.581,47.011 40.743,46.81 40.959,46.642 C41.195,46.45 41.453,46.338 41.733,46.306 C42.013,46.274 42.271,46.288 42.507,46.348 L42.507,46.348 L42.507,45.52 C42.319,45.472 42.111,45.455 41.883,45.469 C41.655,45.483 41.429,45.529 41.205,45.607 C40.981,45.685 40.785,45.798 40.617,45.946 C40.481,46.05 40.355,46.183 40.239,46.345 C40.2003333,46.399 40.1641111,46.4546667 40.1303333,46.512 L40.113,46.544 L40.113,45.52 L39.321,45.52 L39.321,52 L40.203,52 Z M47.127,48.598 L47.127,47.842 L43.527,47.842 L43.527,48.598 L47.127,48.598 Z M51.375,52.18 C52.019,52.18 52.573,52.029 53.037,51.727 C53.501,51.425 53.853,50.986 54.093,50.41 L54.093,50.41 L53.205,50.146 C53.045,50.534 52.81,50.829 52.5,51.031 C52.19,51.233 51.815,51.334 51.375,51.334 C50.679,51.334 50.155,51.099 49.803,50.629 C49.451,50.159 49.271,49.536 49.263,48.76 C49.267,48.256 49.345,47.81 49.497,47.422 C49.649,47.034 49.881,46.731 50.193,46.513 C50.505,46.295 50.899,46.186 51.375,46.186 C51.799,46.186 52.176,46.293 52.506,46.507 C52.836,46.721 53.077,47.022 53.229,47.41 L53.229,47.41 L54.093,47.134 C53.913,46.578 53.58,46.14 53.094,45.82 C52.608,45.5 52.037,45.34 51.381,45.34 C50.737,45.34 50.189,45.483 49.737,45.769 C49.285,46.055 48.939,46.455 48.699,46.969 C48.459,47.483 48.335,48.08 48.327,48.76 C48.335,49.428 48.456,50.019 48.69,50.533 C48.924,51.047 49.267,51.45 49.719,51.742 C50.171,52.034 50.723,52.18 51.375,52.18 Z M56.331,44.29 L56.331,43.3 L55.449,43.3 L55.449,44.29 L56.331,44.29 Z M56.331,52 L56.331,45.52 L55.449,45.52 L55.449,52 L56.331,52 Z M59.013,52 L59.013,48.766 C59.013,48.51 59.031,48.251 59.067,47.989 C59.103,47.727 59.175,47.479 59.283,47.245 C59.391,47.011 59.553,46.81 59.769,46.642 C60.005,46.45 60.263,46.338 60.543,46.306 C60.823,46.274 61.081,46.288 61.317,46.348 L61.317,46.348 L61.317,45.52 C61.129,45.472 60.921,45.455 60.693,45.469 C60.465,45.483 60.239,45.529 60.015,45.607 C59.791,45.685 59.595,45.798 59.427,45.946 C59.291,46.05 59.165,46.183 59.049,46.345 C59.0103333,46.399 58.9741111,46.4546667 58.9403333,46.512 L58.923,46.544 L58.923,45.52 L58.131,45.52 L58.131,52 L59.013,52 Z M65.145,52.18 C65.789,52.18 66.343,52.029 66.807,51.727 C67.271,51.425 67.623,50.986 67.863,50.41 L67.863,50.41 L66.975,50.146 C66.815,50.534 66.58,50.829 66.27,51.031 C65.96,51.233 65.585,51.334 65.145,51.334 C64.449,51.334 63.925,51.099 63.573,50.629 C63.221,50.159 63.041,49.536 63.033,48.76 C63.037,48.256 63.115,47.81 63.267,47.422 C63.419,47.034 63.651,46.731 63.963,46.513 C64.275,46.295 64.669,46.186 65.145,46.186 C65.569,46.186 65.946,46.293 66.276,46.507 C66.606,46.721 66.847,47.022 66.999,47.41 L66.999,47.41 L67.863,47.134 C67.683,46.578 67.35,46.14 66.864,45.82 C66.378,45.5 65.807,45.34 65.151,45.34 C64.507,45.34 63.959,45.483 63.507,45.769 C63.055,46.055 62.709,46.455 62.469,46.969 C62.229,47.483 62.105,48.08 62.097,48.76 C62.105,49.428 62.226,50.019 62.46,50.533 C62.694,51.047 63.037,51.45 63.489,51.742 C63.941,52.034 64.493,52.18 65.145,52.18 Z M70.101,52 L70.101,43.18 L69.219,43.18 L69.219,52 L70.101,52 Z M77.589,49.006 C77.609,48.246 77.503,47.592 77.271,47.044 C77.039,46.496 76.697,46.075 76.245,45.781 C75.793,45.487 75.247,45.34 74.607,45.34 C73.983,45.34 73.442,45.48 72.984,45.76 C72.526,46.04 72.171,46.438 71.919,46.954 C71.667,47.47 71.541,48.082 71.541,48.79 C71.541,49.474 71.669,50.07 71.925,50.578 C72.181,51.086 72.54,51.48 73.002,51.76 C73.464,52.04 74.011,52.18 74.643,52.18 C75.271,52.18 75.834,52.025 76.332,51.715 C76.83,51.405 77.207,50.968 77.463,50.404 L77.463,50.404 L76.641,50.086 C76.441,50.49 76.168,50.799 75.822,51.013 C75.476,51.227 75.071,51.334 74.607,51.334 C73.927,51.334 73.402,51.109 73.032,50.659 C72.736,50.299 72.5584,49.82188 72.4992,49.22764 L72.482,49.006 L77.115,49.006 L77.589,49.006 Z M76.664,48.268 L72.501,48.268 L72.52695,48.05944 C72.59355,47.62696 72.72675,47.2636 72.92655,46.96936 L73.032,46.828 C73.402,46.376 73.935,46.15 74.631,46.15 C75.295,46.15 75.8,46.364 76.146,46.792 C76.4228,47.1344 76.594,47.60864 76.6596,48.21472 L76.664,48.268 Z M82.395,48.598 L82.395,47.842 L78.795,47.842 L78.795,48.598 L82.395,48.598 Z M85.479,52 L85.479,46.276 L87.249,46.276 L87.249,45.52 L85.479,45.52 L85.479,44.944 C85.479,44.6422857 85.5399796,44.4096327 85.6619388,44.2460408 L85.728,44.17 C85.894,44.006 86.145,43.924 86.481,43.924 L86.481,43.924 L87.249,43.924 L87.249,43.18 L86.421,43.18 C86.257,43.18 86.09,43.19 85.92,43.21 C85.75,43.23 85.587,43.273 85.431,43.339 C85.275,43.405 85.131,43.51 84.999,43.654 C84.879,43.782 84.791,43.921 84.735,44.071 C84.679,44.221 84.642,44.378 84.624,44.542 C84.606,44.706 84.597,44.872 84.597,45.04 L84.597,45.04 L84.597,45.52 L83.475,45.52 L83.475,46.276 L84.597,46.276 L84.597,52 L85.479,52 Z M90.915,52.18 C91.555,52.18 92.105,52.036 92.565,51.748 C93.025,51.46 93.377,51.059 93.621,50.545 C93.865,50.031 93.987,49.434 93.987,48.754 C93.987,48.086 93.866,47.495 93.624,46.981 C93.382,46.467 93.032,46.065 92.574,45.775 C92.116,45.485 91.563,45.34 90.915,45.34 C90.283,45.34 89.738,45.483 89.28,45.769 C88.822,46.055 88.469,46.454 88.221,46.966 C87.973,47.478 87.849,48.074 87.849,48.754 C87.849,49.422 87.971,50.014 88.215,50.53 C88.459,51.046 88.809,51.45 89.265,51.742 C89.721,52.034 90.271,52.18 90.915,52.18 Z M90.915,51.334 C90.215,51.334 89.685,51.099 89.325,50.629 C88.965,50.159 88.785,49.534 88.785,48.754 C88.785,48.25 88.862,47.805 89.016,47.419 C89.17,47.033 89.404,46.731 89.718,46.513 C90.032,46.295 90.431,46.186 90.915,46.186 C91.631,46.186 92.166,46.418 92.52,46.882 C92.874,47.346 93.051,47.97 93.051,48.754 C93.051,49.518 92.875,50.139 92.523,50.617 C92.171,51.095 91.635,51.334 90.915,51.334 Z M97.785,52.162 C98.313,52.162 98.781,52.046 99.189,51.814 C99.4804286,51.6482857 99.7269592,51.426449 99.9285918,51.1484898 L99.963,51.096 L99.963,52 L100.755,52 L100.755,45.52 L99.873,45.52 L99.873,48.976 C99.873,49.34 99.831,49.667 99.747,49.957 C99.663,50.247 99.54,50.493 99.378,50.695 C99.216,50.897 99.016,51.052 98.778,51.16 C98.54,51.268 98.265,51.322 97.953,51.322 C97.613,51.322 97.324,51.26 97.086,51.136 C96.848,51.012 96.654,50.837 96.504,50.611 C96.354,50.385 96.245,50.12 96.177,49.816 C96.109,49.512 96.075,49.182 96.075,48.826 L96.075,48.826 L96.075,45.52 L95.187,45.52 L95.187,49.084 C95.187,49.376 95.215,49.669 95.271,49.963 C95.327,50.257 95.417,50.535 95.541,50.797 C95.665,51.059 95.828,51.292 96.03,51.496 C96.232,51.7 96.478,51.862 96.768,51.982 C97.058,52.102 97.397,52.162 97.785,52.162 Z M103.317,52 L103.317,48.766 C103.317,48.51 103.335,48.251 103.371,47.989 C103.407,47.727 103.479,47.479 103.587,47.245 C103.695,47.011 103.857,46.81 104.073,46.642 C104.309,46.45 104.567,46.338 104.847,46.306 C105.127,46.274 105.385,46.288 105.621,46.348 L105.621,46.348 L105.621,45.52 C105.433,45.472 105.225,45.455 104.997,45.469 C104.769,45.483 104.543,45.529 104.319,45.607 C104.095,45.685 103.899,45.798 103.731,45.946 C103.595,46.05 103.469,46.183 103.353,46.345 C103.314333,46.399 103.278111,46.4546667 103.244333,46.512 L103.227,46.544 L103.227,45.52 L102.435,45.52 L102.435,52 L103.317,52 Z M110.241,48.598 L110.241,47.842 L106.641,47.842 L106.641,48.598 L110.241,48.598 Z M114.711,52.18 C115.315,52.18 115.831,52.029 116.259,51.727 C116.687,51.425 117.015,51.016 117.243,50.5 C117.471,49.984 117.585,49.402 117.585,48.754 C117.585,48.11 117.472,47.53 117.246,47.014 C117.02,46.498 116.695,46.09 116.271,45.79 C115.847,45.49 115.339,45.34 114.747,45.34 C114.139,45.34 113.627,45.488 113.211,45.784 C113.032714,45.9108571 112.87298,46.0577347 112.731796,46.2246327 L112.683,46.287 L112.683,43.36 L111.795,43.36 L111.795,52 L112.587,52 L112.587,51.099 C112.717041,51.2843197 112.864224,51.4483061 113.028551,51.5909592 L113.199,51.727 C113.611,52.029 114.115,52.18 114.711,52.18 Z M114.621,51.358 C114.161,51.358 113.781,51.246 113.481,51.022 C113.181,50.798 112.957,50.489 112.809,50.095 C112.661,49.701 112.587,49.254 112.587,48.754 C112.587,48.246 112.661,47.797 112.809,47.407 C112.957,47.017 113.18,46.712 113.478,46.492 C113.776,46.272 114.151,46.162 114.603,46.162 C115.067,46.162 115.45,46.276 115.752,46.504 C116.054,46.732 116.279,47.042 116.427,47.434 C116.575,47.826 116.649,48.266 116.649,48.754 C116.649,49.246 116.574,49.689 116.424,50.083 C116.274,50.477 116.049,50.788 115.749,51.016 C115.449,51.244 115.073,51.358 114.621,51.358 Z M121.611,52.18 C122.251,52.18 122.801,52.036 123.261,51.748 C123.721,51.46 124.073,51.059 124.317,50.545 C124.561,50.031 124.683,49.434 124.683,48.754 C124.683,48.086 124.562,47.495 124.32,46.981 C124.078,46.467 123.728,46.065 123.27,45.775 C122.812,45.485 122.259,45.34 121.611,45.34 C120.979,45.34 120.434,45.483 119.976,45.769 C119.518,46.055 119.165,46.454 118.917,46.966 C118.669,47.478 118.545,48.074 118.545,48.754 C118.545,49.422 118.667,50.014 118.911,50.53 C119.155,51.046 119.505,51.45 119.961,51.742 C120.417,52.034 120.967,52.18 121.611,52.18 Z M121.611,51.334 C120.911,51.334 120.381,51.099 120.021,50.629 C119.661,50.159 119.481,49.534 119.481,48.754 C119.481,48.25 119.558,47.805 119.712,47.419 C119.866,47.033 120.1,46.731 120.414,46.513 C120.728,46.295 121.127,46.186 121.611,46.186 C122.327,46.186 122.862,46.418 123.216,46.882 C123.57,47.346 123.747,47.97 123.747,48.754 C123.747,49.518 123.571,50.139 123.219,50.617 C122.867,51.095 122.331,51.334 121.611,51.334 Z M127.005,52 L127.005,43.18 L126.123,43.18 L126.123,52 L127.005,52 Z M131.319,52.18 C131.915,52.18 132.419,52.029 132.831,51.727 C133.066429,51.5544286 133.269204,51.3465918 133.439327,51.1034898 L133.443,51.098 L133.443,52 L134.235,52 L134.235,43.36 L133.347,43.36 L133.347,46.288 L133.298204,46.2246327 C133.204082,46.1133673 133.101714,46.011 132.991102,45.9175306 L132.819,45.784 C132.403,45.488 131.891,45.34 131.283,45.34 C130.691,45.34 130.183,45.49 129.759,45.79 C129.335,46.09 129.01,46.498 128.784,47.014 C128.558,47.53 128.445,48.11 128.445,48.754 C128.445,49.402 128.559,49.984 128.787,50.5 C129.015,51.016 129.343,51.425 129.771,51.727 C130.199,52.029 130.715,52.18 131.319,52.18 Z M131.409,51.358 C130.957,51.358 130.581,51.244 130.281,51.016 C129.981,50.788 129.756,50.477 129.606,50.083 C129.456,49.689 129.381,49.246 129.381,48.754 C129.381,48.266 129.454,47.826 129.6,47.434 C129.746,47.042 129.971,46.732 130.275,46.504 C130.579,46.276 130.963,46.162 131.427,46.162 C131.879,46.162 132.254,46.272 132.552,46.492 C132.85,46.712 133.073,47.017 133.221,47.407 C133.369,47.797 133.443,48.246 133.443,48.754 C133.443,49.254 133.369,49.701 133.221,50.095 C133.073,50.489 132.849,50.798 132.549,51.022 C132.249,51.246 131.869,51.358 131.409,51.358 Z"/>
    </g>
  </g>
</svg>
