<?xml version="1.0" encoding="UTF-8"?>
<svg width="246px" height="246px" viewBox="0 0 246 246" version="1.1" xmlns="http://www.w3.org/2000/svg" xmlns:xlink="http://www.w3.org/1999/xlink">
    <title>billiard-ball-spec</title>
    <g id="billiard-ball-spec" stroke="none" stroke-width="1" fill="none" fill-rule="evenodd">
        <g id="billiard-ball">
            <circle id="body" stroke="#245633" opacity="0.200000003" cx="120" cy="120" r="119.5"></circle>
            <g id="4" transform="translate(56.000000, 56.000000)" fill="#245633" fill-rule="nonzero">
                <path d="M64,10 C93.8177085,10 118,34.1822915 118,64 C118,93.8177085 93.8177085,118 64,118 C34.1822915,118 10,93.8177085 10,64 C10,34.1822915 34.1822915,10 64,10 Z M64,22 C40.8097085,22 22,40.8097085 22,64 C22,87.1902915 40.8097085,106 64,106 C87.1902915,106 106,87.1902915 106,64 C106,40.8097085 87.1902915,22 64,22 Z" id="circle"></path>
                <path d="M63.9969207,32.342058 C67.0490461,33.4192787 68.6837704,36.7139781 67.7304533,39.7784541 L67.657942,39.9969207 L58.479,66 L67.9990088,65.9993648 L68,55.996 C68,52.6822915 70.6862915,49.996 74,49.996 C77.2383969,49.996 79.8775718,52.5615749 79.9958615,55.7710617 L80,55.996 L80,87.996 C80,91.3097085 77.3137085,93.996 74,93.996 C70.7616031,93.996 68.1224282,91.4304251 68.0041385,88.2209383 L68,87.996 L67.9990088,77.9993648 L50,78 C45.9341991,78 43.0680996,74.05168 44.2723194,70.212364 L44.342058,70.0030793 L56.342058,36.0030793 C57.4449269,32.8782842 60.8721256,31.2391891 63.9969207,32.342058 Z"></path>
            </g>
            <g id="spec" transform="translate(67.500000, 144.063585)">
                <circle id="Oval-Copy-16" fill="#245633" cx="44.5" cy="4" r="4"></circle>
                <path d="M2.864,62 L2.864,56.276 L4.634,56.276 L4.634,55.52 L2.864,55.52 L2.864,54.944 C2.864,54.6422857 2.92497959,54.4096327 3.04693878,54.2460408 L3.113,54.17 C3.279,54.006 3.53,53.924 3.866,53.924 L3.866,53.924 L4.634,53.924 L4.634,53.18 L3.806,53.18 C3.642,53.18 3.475,53.19 3.305,53.21 C3.135,53.23 2.972,53.273 2.816,53.339 C2.66,53.405 2.516,53.51 2.384,53.654 C2.264,53.782 2.176,53.921 2.12,54.071 C2.064,54.221 2.027,54.378 2.009,54.542 C1.991,54.706 1.982,54.872 1.982,55.04 L1.982,55.04 L1.982,55.52 L0.86,55.52 L0.86,56.276 L1.982,56.276 L1.982,62 L2.864,62 Z M8.3,62.18 C8.94,62.18 9.49,62.036 9.95,61.748 C10.41,61.46 10.762,61.059 11.006,60.545 C11.25,60.031 11.372,59.434 11.372,58.754 C11.372,58.086 11.251,57.495 11.009,56.981 C10.767,56.467 10.417,56.065 9.959,55.775 C9.501,55.485 8.948,55.34 8.3,55.34 C7.668,55.34 7.123,55.483 6.665,55.769 C6.207,56.055 5.854,56.454 5.606,56.966 C5.358,57.478 5.234,58.074 5.234,58.754 C5.234,59.422 5.356,60.014 5.6,60.53 C5.844,61.046 6.194,61.45 6.65,61.742 C7.106,62.034 7.656,62.18 8.3,62.18 Z M8.3,61.334 C7.6,61.334 7.07,61.099 6.71,60.629 C6.35,60.159 6.17,59.534 6.17,58.754 C6.17,58.25 6.247,57.805 6.401,57.419 C6.555,57.033 6.789,56.731 7.103,56.513 C7.417,56.295 7.816,56.186 8.3,56.186 C9.016,56.186 9.551,56.418 9.905,56.882 C10.259,57.346 10.436,57.97 10.436,58.754 C10.436,59.518 10.26,60.139 9.908,60.617 C9.556,61.095 9.02,61.334 8.3,61.334 Z M15.17,62.162 C15.698,62.162 16.166,62.046 16.574,61.814 C16.8654286,61.6482857 17.1119592,61.426449 17.3135918,61.1484898 L17.348,61.096 L17.348,62 L18.14,62 L18.14,55.52 L17.258,55.52 L17.258,58.976 C17.258,59.34 17.216,59.667 17.132,59.957 C17.048,60.247 16.925,60.493 16.763,60.695 C16.601,60.897 16.401,61.052 16.163,61.16 C15.925,61.268 15.65,61.322 15.338,61.322 C14.998,61.322 14.709,61.26 14.471,61.136 C14.233,61.012 14.039,60.837 13.889,60.611 C13.739,60.385 13.63,60.12 13.562,59.816 C13.494,59.512 13.46,59.182 13.46,58.826 L13.46,58.826 L13.46,55.52 L12.572,55.52 L12.572,59.084 C12.572,59.376 12.6,59.669 12.656,59.963 C12.712,60.257 12.802,60.535 12.926,60.797 C13.05,61.059 13.213,61.292 13.415,61.496 C13.617,61.7 13.863,61.862 14.153,61.982 C14.443,62.102 14.782,62.162 15.17,62.162 Z M20.702,62 L20.702,58.766 C20.702,58.51 20.72,58.251 20.756,57.989 C20.792,57.727 20.864,57.479 20.972,57.245 C21.08,57.011 21.242,56.81 21.458,56.642 C21.694,56.45 21.952,56.338 22.232,56.306 C22.512,56.274 22.77,56.288 23.006,56.348 L23.006,56.348 L23.006,55.52 C22.818,55.472 22.61,55.455 22.382,55.469 C22.154,55.483 21.928,55.529 21.704,55.607 C21.48,55.685 21.284,55.798 21.116,55.946 C20.98,56.05 20.854,56.183 20.738,56.345 C20.6993333,56.399 20.6631111,56.4546667 20.6293333,56.512 L20.612,56.544 L20.612,55.52 L19.82,55.52 L19.82,62 L20.702,62 Z M27.626,58.598 L27.626,57.842 L24.026,57.842 L24.026,58.598 L27.626,58.598 Z M31.874,62.18 C32.518,62.18 33.072,62.029 33.536,61.727 C34,61.425 34.352,60.986 34.592,60.41 L34.592,60.41 L33.704,60.146 C33.544,60.534 33.309,60.829 32.999,61.031 C32.689,61.233 32.314,61.334 31.874,61.334 C31.178,61.334 30.654,61.099 30.302,60.629 C29.95,60.159 29.77,59.536 29.762,58.76 C29.766,58.256 29.844,57.81 29.996,57.422 C30.148,57.034 30.38,56.731 30.692,56.513 C31.004,56.295 31.398,56.186 31.874,56.186 C32.298,56.186 32.675,56.293 33.005,56.507 C33.335,56.721 33.576,57.022 33.728,57.41 L33.728,57.41 L34.592,57.134 C34.412,56.578 34.079,56.14 33.593,55.82 C33.107,55.5 32.536,55.34 31.88,55.34 C31.236,55.34 30.688,55.483 30.236,55.769 C29.784,56.055 29.438,56.455 29.198,56.969 C28.958,57.483 28.834,58.08 28.826,58.76 C28.834,59.428 28.955,60.019 29.189,60.533 C29.423,61.047 29.766,61.45 30.218,61.742 C30.67,62.034 31.222,62.18 31.874,62.18 Z M36.83,54.29 L36.83,53.3 L35.948,53.3 L35.948,54.29 L36.83,54.29 Z M36.83,62 L36.83,55.52 L35.948,55.52 L35.948,62 L36.83,62 Z M39.512,62 L39.512,58.766 C39.512,58.51 39.53,58.251 39.566,57.989 C39.602,57.727 39.674,57.479 39.782,57.245 C39.89,57.011 40.052,56.81 40.268,56.642 C40.504,56.45 40.762,56.338 41.042,56.306 C41.322,56.274 41.58,56.288 41.816,56.348 L41.816,56.348 L41.816,55.52 C41.628,55.472 41.42,55.455 41.192,55.469 C40.964,55.483 40.738,55.529 40.514,55.607 C40.29,55.685 40.094,55.798 39.926,55.946 C39.79,56.05 39.664,56.183 39.548,56.345 C39.5093333,56.399 39.4731111,56.4546667 39.4393333,56.512 L39.422,56.544 L39.422,55.52 L38.63,55.52 L38.63,62 L39.512,62 Z M45.644,62.18 C46.288,62.18 46.842,62.029 47.306,61.727 C47.77,61.425 48.122,60.986 48.362,60.41 L48.362,60.41 L47.474,60.146 C47.314,60.534 47.079,60.829 46.769,61.031 C46.459,61.233 46.084,61.334 45.644,61.334 C44.948,61.334 44.424,61.099 44.072,60.629 C43.72,60.159 43.54,59.536 43.532,58.76 C43.536,58.256 43.614,57.81 43.766,57.422 C43.918,57.034 44.15,56.731 44.462,56.513 C44.774,56.295 45.168,56.186 45.644,56.186 C46.068,56.186 46.445,56.293 46.775,56.507 C47.105,56.721 47.346,57.022 47.498,57.41 L47.498,57.41 L48.362,57.134 C48.182,56.578 47.849,56.14 47.363,55.82 C46.877,55.5 46.306,55.34 45.65,55.34 C45.006,55.34 44.458,55.483 44.006,55.769 C43.554,56.055 43.208,56.455 42.968,56.969 C42.728,57.483 42.604,58.08 42.596,58.76 C42.604,59.428 42.725,60.019 42.959,60.533 C43.193,61.047 43.536,61.45 43.988,61.742 C44.44,62.034 44.992,62.18 45.644,62.18 Z M50.6,62 L50.6,53.18 L49.718,53.18 L49.718,62 L50.6,62 Z M58.088,59.006 C58.108,58.246 58.002,57.592 57.77,57.044 C57.538,56.496 57.196,56.075 56.744,55.781 C56.292,55.487 55.746,55.34 55.106,55.34 C54.482,55.34 53.941,55.48 53.483,55.76 C53.025,56.04 52.67,56.438 52.418,56.954 C52.166,57.47 52.04,58.082 52.04,58.79 C52.04,59.474 52.168,60.07 52.424,60.578 C52.68,61.086 53.039,61.48 53.501,61.76 C53.963,62.04 54.51,62.18 55.142,62.18 C55.77,62.18 56.333,62.025 56.831,61.715 C57.329,61.405 57.706,60.968 57.962,60.404 L57.962,60.404 L57.14,60.086 C56.94,60.49 56.667,60.799 56.321,61.013 C55.975,61.227 55.57,61.334 55.106,61.334 C54.426,61.334 53.901,61.109 53.531,60.659 C53.235,60.299 53.0574,59.82188 52.9982,59.22764 L52.981,59.006 L57.614,59.006 L58.088,59.006 Z M57.163,58.268 L53,58.268 L53.02595,58.05944 C53.09255,57.62696 53.22575,57.2636 53.42555,56.96936 L53.531,56.828 C53.901,56.376 54.434,56.15 55.13,56.15 C55.794,56.15 56.299,56.364 56.645,56.792 C56.9218,57.1344 57.093,57.60864 57.1586,58.21472 L57.163,58.268 Z M62.894,58.598 L62.894,57.842 L59.294,57.842 L59.294,58.598 L62.894,58.598 Z M67.364,62.18 C67.968,62.18 68.484,62.029 68.912,61.727 C69.34,61.425 69.668,61.016 69.896,60.5 C70.124,59.984 70.238,59.402 70.238,58.754 C70.238,58.11 70.125,57.53 69.899,57.014 C69.673,56.498 69.348,56.09 68.924,55.79 C68.5,55.49 67.992,55.34 67.4,55.34 C66.792,55.34 66.28,55.488 65.864,55.784 C65.6857143,55.9108571 65.5259796,56.0577347 65.3847959,56.2246327 L65.336,56.287 L65.336,53.36 L64.448,53.36 L64.448,62 L65.24,62 L65.24,61.099 C65.3700408,61.2843197 65.5172245,61.4483061 65.681551,61.5909592 L65.852,61.727 C66.264,62.029 66.768,62.18 67.364,62.18 Z M67.274,61.358 C66.814,61.358 66.434,61.246 66.134,61.022 C65.834,60.798 65.61,60.489 65.462,60.095 C65.314,59.701 65.24,59.254 65.24,58.754 C65.24,58.246 65.314,57.797 65.462,57.407 C65.61,57.017 65.833,56.712 66.131,56.492 C66.429,56.272 66.804,56.162 67.256,56.162 C67.72,56.162 68.103,56.276 68.405,56.504 C68.707,56.732 68.932,57.042 69.08,57.434 C69.228,57.826 69.302,58.266 69.302,58.754 C69.302,59.246 69.227,59.689 69.077,60.083 C68.927,60.477 68.702,60.788 68.402,61.016 C68.102,61.244 67.726,61.358 67.274,61.358 Z M74.264,62.18 C74.904,62.18 75.454,62.036 75.914,61.748 C76.374,61.46 76.726,61.059 76.97,60.545 C77.214,60.031 77.336,59.434 77.336,58.754 C77.336,58.086 77.215,57.495 76.973,56.981 C76.731,56.467 76.381,56.065 75.923,55.775 C75.465,55.485 74.912,55.34 74.264,55.34 C73.632,55.34 73.087,55.483 72.629,55.769 C72.171,56.055 71.818,56.454 71.57,56.966 C71.322,57.478 71.198,58.074 71.198,58.754 C71.198,59.422 71.32,60.014 71.564,60.53 C71.808,61.046 72.158,61.45 72.614,61.742 C73.07,62.034 73.62,62.18 74.264,62.18 Z M74.264,61.334 C73.564,61.334 73.034,61.099 72.674,60.629 C72.314,60.159 72.134,59.534 72.134,58.754 C72.134,58.25 72.211,57.805 72.365,57.419 C72.519,57.033 72.753,56.731 73.067,56.513 C73.381,56.295 73.78,56.186 74.264,56.186 C74.98,56.186 75.515,56.418 75.869,56.882 C76.223,57.346 76.4,57.97 76.4,58.754 C76.4,59.518 76.224,60.139 75.872,60.617 C75.52,61.095 74.984,61.334 74.264,61.334 Z M79.658,62 L79.658,53.18 L78.776,53.18 L78.776,62 L79.658,62 Z M83.972,62.18 C84.568,62.18 85.072,62.029 85.484,61.727 C85.7194286,61.5544286 85.9222041,61.3465918 86.0923265,61.1034898 L86.096,61.098 L86.096,62 L86.888,62 L86.888,53.36 L86,53.36 L86,56.288 L85.9512041,56.2246327 C85.8570816,56.1133673 85.7547143,56.011 85.644102,55.9175306 L85.472,55.784 C85.056,55.488 84.544,55.34 83.936,55.34 C83.344,55.34 82.836,55.49 82.412,55.79 C81.988,56.09 81.663,56.498 81.437,57.014 C81.211,57.53 81.098,58.11 81.098,58.754 C81.098,59.402 81.212,59.984 81.44,60.5 C81.668,61.016 81.996,61.425 82.424,61.727 C82.852,62.029 83.368,62.18 83.972,62.18 Z M84.062,61.358 C83.61,61.358 83.234,61.244 82.934,61.016 C82.634,60.788 82.409,60.477 82.259,60.083 C82.109,59.689 82.034,59.246 82.034,58.754 C82.034,58.266 82.107,57.826 82.253,57.434 C82.399,57.042 82.624,56.732 82.928,56.504 C83.232,56.276 83.616,56.162 84.08,56.162 C84.532,56.162 84.907,56.272 85.205,56.492 C85.503,56.712 85.726,57.017 85.874,57.407 C86.022,57.797 86.096,58.246 86.096,58.754 C86.096,59.254 86.022,59.701 85.874,60.095 C85.726,60.489 85.502,60.798 85.202,61.022 C84.902,61.246 84.522,61.358 84.062,61.358 Z" id="four-circle-bold" fill="#245633" fill-rule="nonzero"></path>
                <line x1="44.5" y1="5" x2="44.5" y2="47" id="Path-3-Copy-4" stroke="#245633"></line>
            </g>
        </g>
    </g>
</svg>