<?xml version="1.0" encoding="UTF-8"?>
<svg width="16px" height="16px" viewBox="0 0 16 16" version="1.1" xmlns="http://www.w3.org/2000/svg" xmlns:xlink="http://www.w3.org/1999/xlink">
    <title>ph-calendar-6</title>
    <g id="Page-1" stroke="none" stroke-width="1" fill="none" fill-rule="evenodd">
        <g id="REFACTOR---Testing-32-line-style-MEDIUM---REFACTOR" transform="translate(-172.000000, -996.000000)">
            <g id="ph-calendar-6" transform="translate(172.000000, 996.000000)">
                <polygon id="Fill-1" points="0 16 16 16 16 0 0 0"></polygon>
                <path d="M11,1 C11.2454599,1 11.4496084,1.17687516 11.4919443,1.41012437 L11.5,1.5 L11.5,2 L12.5,2 C13.2796806,2 13.9204469,2.59449186 13.9931333,3.35547007 L14,3.5 L14,12.5 C14,13.3288744 13.3284106,14 12.5,14 L12.5,14 L3.5,14 C2.67158938,14 2,13.3288744 2,12.5 L2,12.5 L2,3.5 C2,2.67112557 2.67158938,2 3.5,2 L3.5,2 L4.5,2 L4.5,1.5 C4.5,1.22385763 4.72385763,1 5,1 C5.24545989,1 5.44960837,1.17687516 5.49194433,1.41012437 L5.5,1.5 L5.5,2 L10.5,2 L10.5,1.5 C10.5,1.22385763 10.7238576,1 11,1 Z M13,6 L3,6 L3,12.5 C3,12.74572 3.17676605,12.9496662 3.410088,12.991954 L3.5,13 L12.5,13 C12.7762805,13 13,12.776435 13,12.5 L13,12.5 L13,6 Z M8.3579068,7.3027864 C8.5774528,7.4125594 8.68094777,7.66205933 8.61450199,7.88961698 L8.5815136,7.9736068 L8.18774733,8.76162843 C8.38253461,8.78620442 8.57339208,8.84926435 8.74953556,8.95054685 L8.74953556,8.95054685 L8.87550799,9.03184668 C9.15794321,9.23467401 9.35854402,9.52714182 9.44935249,9.86192525 C9.55139708,10.2438194 9.50028296,10.6527324 9.2990861,10.9986556 C9.09916498,11.3474231 8.77153919,11.5951209 8.38788878,11.6991821 C8.00603158,11.8008054 7.59881852,11.7502493 7.25106444,11.5494532 C6.90117236,11.3482652 6.65330581,11.0200202 6.5517382,10.6398973 C6.44836004,10.2587868 6.49953109,9.84941837 6.70129772,9.49998195 L6.70129772,9.49998195 L7.6870864,7.5263932 C7.81058103,7.27940395 8.11091755,7.17929178 8.3579068,7.3027864 Z M7.96796189,9.75076717 L7.87219733,9.7665618 C7.74319896,9.80155326 7.63450476,9.88363115 7.56730228,10.0000181 C7.49960995,10.1172533 7.48273166,10.2522796 7.51735249,10.3799252 C7.55147716,10.5076342 7.63292726,10.6154971 7.75031805,10.6829977 C7.86705319,10.7504013 8.00178634,10.7671286 8.12840267,10.7334382 C8.25723417,10.698492 8.36536692,10.6167395 8.43308296,10.4986269 C8.50051521,10.3826823 8.51737582,10.2477974 8.4837382,10.1218973 C8.44874674,9.99289896 8.36666885,9.88420476 8.25028195,9.81700228 L8.25028195,9.81700228 L8.15950634,9.77596986 C8.06623114,9.74442032 7.96670826,9.74131063 7.87219733,9.7665618 Z M4.5,3 L3.5,3 C3.22371954,3 3,3.22356503 3,3.5 L3,3.5 L3,5 L13,5 L13,3.5 C13,3.25428003 12.8232339,3.05033383 12.589912,3.00804604 L12.5,3 L11.5,3 L11.5,3.5 C11.5,3.77614237 11.2761424,4 11,4 C10.7545401,4 10.5503916,3.82312484 10.5080557,3.58987563 L10.5,3.5 L10.5,3 L5.5,3 L5.5,3.5 C5.5,3.77614237 5.27614237,4 5,4 C4.75454011,4 4.55039163,3.82312484 4.50805567,3.58987563 L4.5,3.5 L4.5,3 Z" id="Combined-Shape" fill="#000000" fill-rule="nonzero"></path>
            </g>
        </g>
    </g>
</svg>