<?xml version="1.0" encoding="UTF-8"?>
<svg width="16px" height="16px" viewBox="0 0 16 16" version="1.1" xmlns="http://www.w3.org/2000/svg" xmlns:xlink="http://www.w3.org/1999/xlink">
    <title>ph-chevron</title>
    <g id="Page-1" stroke="none" stroke-width="1" fill="none" fill-rule="evenodd">
        <g id="REFACTOR---Testing-32-line-style-MEDIUM---REFACTOR" transform="translate(-108.000000, -996.000000)">
            <g id="ph-chevron" transform="translate(108.000000, 996.000000)">
                <polygon id="Fill-1" points="0 16 16 16 16 0 0 0"></polygon>
                <path d="M7.82746387,1.53024565 C7.93850991,1.48990194 8.06163336,1.48991812 8.17266971,1.53029421 C8.17807162,1.53260243 8.18355023,1.53472839 8.18898109,1.53694712 C8.20888611,1.54459579 8.22830324,1.55393748 8.24714326,1.56459882 C8.25468717,1.56953685 8.26259728,1.57432718 8.27036006,1.57932652 C8.33156238,1.61790146 8.38548619,1.67166216 8.42709928,1.74002653 L8.37601958,1.67043071 C8.39837408,1.69591543 8.41817916,1.72369206 8.43503652,1.75336232 L15.4270993,13.2400265 C15.6637194,13.6287595 15.3002146,14.1057834 14.8626394,13.980762 L14.8626394,13.980762 L8,12.019 L1.13736056,13.980762 C0.727133849,14.0979696 0.382008078,13.6860358 0.53543874,13.3137801 L0.53543874,13.3137801 L0.572900722,13.2400265 L7.57290072,1.74002653 C7.57948194,1.72921452 7.58637108,1.71876779 7.59354734,1.70868632 C7.60180808,1.69717247 7.61128585,1.68511772 7.62128671,1.67352701 C7.6328881,1.65958707 7.64496799,1.64690813 7.65754465,1.63501492 C7.66571896,1.62800315 7.67401219,1.62070853 7.6825419,1.61369091 C7.69861693,1.59963303 7.71604872,1.5870781 7.73407832,1.57578525 C7.73944601,1.57312253 7.74493698,1.56981178 7.75049541,1.5666049 C7.77186856,1.55370208 7.79383446,1.54322923 7.81633766,1.53443907 C7.81928118,1.53364562 7.82240006,1.53244818 7.8255338,1.53128126 Z M7.49926214,3.781 L2.091,12.668 L7.49926214,11.123 L7.49926214,3.781 Z M8.49926214,3.782 L8.49926214,11.122 L13.908,12.668 L8.49926214,3.782 Z" id="Combined-Shape" fill="#000000" fill-rule="nonzero"></path>
            </g>
        </g>
    </g>
</svg>