<?xml version="1.0" encoding="UTF-8"?>
<svg width="189px" height="115px" viewBox="0 0 189 115" version="1.1" xmlns="http://www.w3.org/2000/svg" xmlns:xlink="http://www.w3.org/1999/xlink">
    <title>command-key-spec</title>
    <g id="command-key-spec" stroke="none" stroke-width="1" fill="none" fill-rule="evenodd">
        <g id="command-key">
            <rect id="body" stroke-opacity="0.2" stroke="#245633" x="0.5" y="0.5" width="181.5" height="107" rx="16"></rect>
            <path d="M17.08,88.3 C18.1533333,88.3 19.0766667,88.0483333 19.85,87.545 C20.6233333,87.0416667 21.21,86.31 21.61,85.35 L21.61,85.35 L20.13,84.91 C19.8633333,85.5566667 19.4716667,86.0483333 18.955,86.385 C18.4383333,86.7216667 17.8133333,86.89 17.08,86.89 C15.92,86.89 15.0466667,86.4983333 14.46,85.715 C13.8733333,84.9316667 13.5733333,83.8933333 13.56,82.6 C13.5666667,81.76 13.6966667,81.0166667 13.95,80.37 C14.2033333,79.7233333 14.59,79.2183333 15.11,78.855 C15.63,78.4916667 16.2866667,78.31 17.08,78.31 C17.7866667,78.31 18.415,78.4883333 18.965,78.845 C19.515,79.2016667 19.9166667,79.7033333 20.17,80.35 L20.17,80.35 L21.61,79.89 C21.31,78.9633333 20.755,78.2333333 19.945,77.7 C19.135,77.1666667 18.1833333,76.9 17.09,76.9 C16.0166667,76.9 15.1033333,77.1383333 14.35,77.615 C13.5966667,78.0916667 13.02,78.7583333 12.62,79.615 C12.22,80.4716667 12.0133333,81.4666667 12,82.6 C12.0133333,83.7133333 12.215,84.6983333 12.605,85.555 C12.995,86.4116667 13.5666667,87.0833333 14.32,87.57 C15.0733333,88.0566667 15.9933333,88.3 17.08,88.3 Z M28.18,88.3 C29.2466667,88.3 30.1633333,88.06 30.93,87.58 C31.6966667,87.1 32.2833333,86.4316667 32.69,85.575 C33.0966667,84.7183333 33.3,83.7233333 33.3,82.59 C33.3,81.4766667 33.0983333,80.4916667 32.695,79.635 C32.2916667,78.7783333 31.7083333,78.1083333 30.945,77.625 C30.1816667,77.1416667 29.26,76.9 28.18,76.9 C27.1266667,76.9 26.2183333,77.1383333 25.455,77.615 C24.6916667,78.0916667 24.1033333,78.7566667 23.69,79.61 C23.2766667,80.4633333 23.07,81.4566667 23.07,82.59 C23.07,83.7033333 23.2733333,84.69 23.68,85.55 C24.0866667,86.41 24.67,87.0833333 25.43,87.57 C26.19,88.0566667 27.1066667,88.3 28.18,88.3 Z M28.18,86.89 C27.0133333,86.89 26.13,86.4983333 25.53,85.715 C24.93,84.9316667 24.63,83.89 24.63,82.59 C24.63,81.75 24.7583333,81.0083333 25.015,80.365 C25.2716667,79.7216667 25.6616667,79.2183333 26.185,78.855 C26.7083333,78.4916667 27.3733333,78.31 28.18,78.31 C29.3733333,78.31 30.265,78.6966667 30.855,79.47 C31.445,80.2433333 31.74,81.2833333 31.74,82.59 C31.74,83.8633333 31.4466667,84.8983333 30.86,85.695 C30.2733333,86.4916667 29.38,86.89 28.18,86.89 Z M36.81,77.2 L35.49,77.2 L35.49,88 L36.97,88 L36.97,81.03 C36.97,80.1833333 37.2,79.505 37.66,78.995 C38.12,78.485 38.7233333,78.23 39.47,78.23 C40.2166667,78.23 40.8183333,78.4783333 41.275,78.975 C41.7316667,79.4716667 41.96,80.15 41.96,81.01 L41.96,81.01 L41.95,88 L43.4,88 L43.41,81.03 C43.41,80.3633333 43.535,79.8233333 43.785,79.41 C44.035,78.9966667 44.3533333,78.6966667 44.74,78.51 C45.1266667,78.3233333 45.5233333,78.23 45.93,78.23 C46.6433333,78.23 47.2316667,78.4683333 47.695,78.945 C48.1583333,79.4216667 48.39,80.0766667 48.39,80.91 L48.39,80.91 L48.38,88 L49.85,88 L49.86,80.63 C49.86,79.49 49.5333333,78.585 48.88,77.915 C48.2266667,77.245 47.3566667,76.91 46.27,76.91 C45.55,76.91 44.905,77.0716667 44.335,77.395 C43.765,77.7183333 43.3183333,78.17 42.995,78.75 L43.003,78.736 L42.95,78.63 C42.6816667,78.14 42.3252865,77.7520833 41.8808594,77.46625 L41.685,77.35 C41.1483333,77.0566667 40.5366667,76.91 39.85,76.91 C39.13,76.91 38.4866667,77.0683333 37.92,77.385 C37.495,77.6225 37.1375,77.925625 36.8475,78.294375 L36.81,78.345 L36.81,77.2 Z M53.77,77.2 L52.45,77.2 L52.45,88 L53.93,88 L53.93,81.03 C53.93,80.1833333 54.16,79.505 54.62,78.995 C55.08,78.485 55.6833333,78.23 56.43,78.23 C57.1766667,78.23 57.7783333,78.4783333 58.235,78.975 C58.6916667,79.4716667 58.92,80.15 58.92,81.01 L58.92,81.01 L58.91,88 L60.36,88 L60.37,81.03 C60.37,80.3633333 60.495,79.8233333 60.745,79.41 C60.995,78.9966667 61.3133333,78.6966667 61.7,78.51 C62.0866667,78.3233333 62.4833333,78.23 62.89,78.23 C63.6033333,78.23 64.1916667,78.4683333 64.655,78.945 C65.1183333,79.4216667 65.35,80.0766667 65.35,80.91 L65.35,80.91 L65.34,88 L66.81,88 L66.82,80.63 C66.82,79.49 66.4933333,78.585 65.84,77.915 C65.1866667,77.245 64.3166667,76.91 63.23,76.91 C62.51,76.91 61.865,77.0716667 61.295,77.395 C60.725,77.7183333 60.2783333,78.17 59.955,78.75 L59.963,78.736 L59.91,78.63 C59.6416667,78.14 59.2852865,77.7520833 58.8408594,77.46625 L58.645,77.35 C58.1083333,77.0566667 57.4966667,76.91 56.81,76.91 C56.09,76.91 55.4466667,77.0683333 54.88,77.385 C54.455,77.6225 54.0975,77.925625 53.8075,78.294375 L53.77,78.345 L53.77,77.2 Z M72.51,88.3 C73.59,88.3 74.5166667,88.0566667 75.29,87.57 C75.7821212,87.260303 76.1919008,86.8615152 76.5193388,86.3736364 L76.62,86.214 L76.62,88 L77.93,88 L77.93,81.29 C77.93,80.89 77.91,80.4966667 77.87,80.11 C77.83,79.7233333 77.7433333,79.3733333 77.61,79.06 C77.3233333,78.36 76.835,77.825 76.145,77.455 C75.455,77.085 74.6166667,76.9 73.63,76.9 C72.4366667,76.9 71.4666667,77.1666667 70.72,77.7 C69.9733333,78.2333333 69.4766667,78.9833333 69.23,79.95 L69.23,79.95 L70.66,80.37 C70.8666667,79.65 71.225,79.1233333 71.735,78.79 C72.245,78.4566667 72.87,78.29 73.61,78.29 C74.6833333,78.29 75.4366667,78.5466667 75.87,79.06 C76.3033333,79.5733333 76.51,80.3633333 76.49,81.43 L76.49,81.186 L76.3964,81.1988 C76.1793333,81.2286667 75.9497333,81.2588 75.7076,81.2892 L75.335,81.335 C74.6983333,81.4116667 74.0483333,81.5016667 73.385,81.605 C72.7216667,81.7083333 72.1166667,81.8266667 71.57,81.96 C71.03,82.1 70.555,82.3033333 70.145,82.57 C69.735,82.8366667 69.4116667,83.1783333 69.175,83.595 C68.9383333,84.0116667 68.82,84.5133333 68.82,85.1 C68.82,85.6733333 68.9566667,86.2033333 69.23,86.69 C69.5033333,87.1766667 69.915,87.5666667 70.465,87.86 C71.015,88.1533333 71.6966667,88.3 72.51,88.3 Z M72.68,87.03 C72.1,87.03 71.635,86.9333333 71.285,86.74 C70.935,86.5466667 70.6816667,86.3033333 70.525,86.01 C70.3683333,85.7166667 70.29,85.4133333 70.29,85.1 C70.29,84.7133333 70.3816667,84.39 70.565,84.13 C70.7483333,83.87 70.9833333,83.6616667 71.27,83.505 C71.5566667,83.3483333 71.8533333,83.2266667 72.16,83.14 C72.6133333,83.02 73.1216667,82.9166667 73.685,82.83 C74.2483333,82.7433333 74.8216667,82.6666667 75.405,82.6 C75.6966667,82.5666667 75.9779167,82.5333333 76.24875,82.5 L76.467,82.473 L76.4675,82.49875 C76.4663889,82.6026389 76.4649074,82.7181944 76.4630556,82.8454167 L76.46,83.045 C76.4533333,83.4616667 76.41,83.8433333 76.33,84.19 C76.2366667,84.73 76.0333333,85.215 75.72,85.645 C75.4066667,86.075 74.9933333,86.4133333 74.48,86.66 C73.9666667,86.9066667 73.3666667,87.03 72.68,87.03 Z M82,88 L82,82.24 C82,81.6266667 82.07,81.08 82.21,80.6 C82.35,80.12 82.555,79.7116667 82.825,79.375 C83.095,79.0383333 83.4283333,78.78 83.825,78.6 C84.2216667,78.42 84.68,78.33 85.2,78.33 C85.7666667,78.33 86.2483333,78.4333333 86.645,78.64 C87.0416667,78.8466667 87.365,79.1383333 87.615,79.515 C87.865,79.8916667 88.0466667,80.3316667 88.16,80.835 C88.2733333,81.3383333 88.33,81.89 88.33,82.49 L88.33,82.49 L88.33,88 L89.81,88 L89.81,82.06 C89.81,81.5733333 89.7633333,81.085 89.67,80.595 C89.5766667,80.105 89.4266667,79.6416667 89.22,79.205 C89.0133333,78.7683333 88.7416667,78.38 88.405,78.04 C88.0683333,77.7 87.6583333,77.43 87.175,77.23 C86.6916667,77.03 86.1266667,76.93 85.48,76.93 C84.6,76.93 83.82,77.1233333 83.14,77.51 C82.6866667,77.7677778 82.2985185,78.107037 81.9755556,78.5277778 L81.85,78.702 L81.85,77.2 L80.52,77.2 L80.52,88 L82,88 Z M96.6,88.3 C97.5933333,88.3 98.4333333,88.0483333 99.12,87.545 C99.5014815,87.2653704 99.8315226,86.9301852 100.110123,86.5394444 L100.14,86.495 L100.14,88 L101.46,88 L101.46,73.6 L99.98,73.6 L99.98,78.478 L99.9246914,78.4054321 C99.7434568,78.1871605 99.5435185,77.9890741 99.3248765,77.8111728 L99.1,77.64 C98.4066667,77.1466667 97.5533333,76.9 96.54,76.9 C95.5533333,76.9 94.7066667,77.15 94,77.65 C93.2933333,78.15 92.7516667,78.83 92.375,79.69 C91.9983333,80.55 91.81,81.5166667 91.81,82.59 C91.81,83.67 92,84.64 92.38,85.5 C92.76,86.36 93.3066667,87.0416667 94.02,87.545 C94.7333333,88.0483333 95.5933333,88.3 96.6,88.3 Z M96.75,86.93 C95.9966667,86.93 95.37,86.74 94.87,86.36 C94.37,85.98 93.995,85.4616667 93.745,84.805 C93.495,84.1483333 93.37,83.41 93.37,82.59 C93.37,81.7766667 93.4916667,81.0433333 93.735,80.39 C93.9783333,79.7366667 94.3533333,79.22 94.86,78.84 C95.3666667,78.46 96.0066667,78.27 96.78,78.27 C97.5333333,78.27 98.1583333,78.4533333 98.655,78.82 C99.1516667,79.1866667 99.5233333,79.695 99.77,80.345 C100.016667,80.995 100.14,81.7433333 100.14,82.59 C100.14,83.4233333 100.016667,84.1683333 99.77,84.825 C99.5233333,85.4816667 99.15,85.9966667 98.65,86.37 C98.15,86.7433333 97.5166667,86.93 96.75,86.93 Z" id="command" fill-opacity="0.2" fill="#245633"></path>
            <g id="icon" transform="translate(12.000000, 12.000000)" fill="#245633">
                <path d="M22.5,5 C24.9842847,5 27,7.01571525 27,9.5 C27,11.9842847 24.9842847,14 22.5,14 L22.5,14 L20,14 L20,18 L22.5,18 C24.9133052,18 26.8844338,19.902177 26.9950996,22.2882449 L27,22.5 C27,24.9842847 24.9842847,27 22.5,27 C20.0157153,27 18,24.9842847 18,22.5 L18,22.5 L18,20 L14,20 L14,22.5 C14,24.9133052 12.097823,26.8844338 9.71175509,26.9950996 L9.5,27 C7.01571525,27 5,24.9842847 5,22.5 C5,20.0157153 7.01571525,18 9.5,18 L9.5,18 L12,18 L12,14 L9.5,14 C7.08669481,14 5.11556623,12.097823 5.00490036,9.71175509 L5,9.5 C5,7.01571525 7.01571525,5 9.5,5 C11.9842847,5 14,7.01571525 14,9.5 L14,9.5 L14,12 L18,12 L18,9.5 C18,7.08669481 19.902177,5.11556623 22.2882449,5.00490036 Z M22.5,20 L20,20 L20,22.5 C20,23.8797153 21.1202847,25 22.5,25 C23.8797153,25 25,23.8797153 25,22.5 C25,21.1202847 23.8797153,20 22.5,20 L22.5,20 Z M12,20 L9.5,20 C8.12028475,20 7,21.1202847 7,22.5 C7,23.8797153 8.12028475,25 9.5,25 C10.8797153,25 12,23.8797153 12,22.5 L12,22.5 L12,20 Z M18,14 L14,14 L14,18 L18,18 L18,14 Z M22.5,7 C21.1202847,7 20,8.12028475 20,9.5 L20,9.5 L20,12 L22.5,12 C23.8245266,12 24.9099621,10.9675456 24.9946777,9.66426547 L24.9946777,9.66426547 L25,9.5 C25,8.12028475 23.8797153,7 22.5,7 Z M9.5,7 C8.12028475,7 7,8.12028475 7,9.5 C7,10.8797153 8.12028475,12 9.5,12 L9.5,12 L12,12 L12,9.5 C12,8.17547336 10.9675456,7.09003787 9.66426547,7.00532227 L9.66426547,7.00532227 Z" id="command-key"></path>
            </g>
            <g id="Group-Copy-6" transform="translate(41.000000, 23.500000)">
                <circle id="Oval-Copy-16" fill="#245633" cx="13" cy="4.5" r="4"></circle>
                <path d="M3.778,35.68 C4.422,35.68 4.976,35.529 5.44,35.227 C5.904,34.925 6.256,34.486 6.496,33.91 L6.496,33.91 L5.608,33.646 C5.448,34.034 5.213,34.329 4.903,34.531 C4.593,34.733 4.218,34.834 3.778,34.834 C3.082,34.834 2.558,34.599 2.206,34.129 C1.854,33.659 1.674,33.036 1.666,32.26 C1.67,31.756 1.748,31.31 1.9,30.922 C2.052,30.534 2.284,30.231 2.596,30.013 C2.908,29.795 3.302,29.686 3.778,29.686 C4.202,29.686 4.579,29.793 4.909,30.007 C5.239,30.221 5.48,30.522 5.632,30.91 L5.632,30.91 L6.496,30.634 C6.316,30.078 5.983,29.64 5.497,29.32 C5.011,29 4.44,28.84 3.784,28.84 C3.14,28.84 2.592,28.983 2.14,29.269 C1.688,29.555 1.342,29.955 1.102,30.469 C0.862,30.983 0.738,31.58 0.73,32.26 C0.738,32.928 0.859,33.519 1.093,34.033 C1.327,34.547 1.67,34.95 2.122,35.242 C2.574,35.534 3.126,35.68 3.778,35.68 Z M10.438,35.68 C11.078,35.68 11.628,35.536 12.088,35.248 C12.548,34.96 12.9,34.559 13.144,34.045 C13.388,33.531 13.51,32.934 13.51,32.254 C13.51,31.586 13.389,30.995 13.147,30.481 C12.905,29.967 12.555,29.565 12.097,29.275 C11.639,28.985 11.086,28.84 10.438,28.84 C9.806,28.84 9.261,28.983 8.803,29.269 C8.345,29.555 7.992,29.954 7.744,30.466 C7.496,30.978 7.372,31.574 7.372,32.254 C7.372,32.922 7.494,33.514 7.738,34.03 C7.982,34.546 8.332,34.95 8.788,35.242 C9.244,35.534 9.794,35.68 10.438,35.68 Z M10.438,34.834 C9.738,34.834 9.208,34.599 8.848,34.129 C8.488,33.659 8.308,33.034 8.308,32.254 C8.308,31.75 8.385,31.305 8.539,30.919 C8.693,30.533 8.927,30.231 9.241,30.013 C9.555,29.795 9.954,29.686 10.438,29.686 C11.154,29.686 11.689,29.918 12.043,30.382 C12.397,30.846 12.574,31.47 12.574,32.254 C12.574,33.018 12.398,33.639 12.046,34.117 C11.694,34.595 11.158,34.834 10.438,34.834 Z M15.712,35.5 L15.712,31.318 C15.712,30.81 15.85,30.403 16.126,30.097 C16.402,29.791 16.764,29.638 17.212,29.638 C17.66,29.638 18.021,29.787 18.295,30.085 C18.569,30.383 18.706,30.79 18.706,31.306 L18.706,31.306 L18.7,35.5 L19.57,35.5 L19.576,31.318 C19.576,30.918 19.651,30.594 19.801,30.346 C19.951,30.098 20.142,29.918 20.374,29.806 C20.606,29.694 20.844,29.638 21.088,29.638 C21.516,29.638 21.869,29.781 22.147,30.067 C22.425,30.353 22.564,30.746 22.564,31.246 L22.564,31.246 L22.558,35.5 L23.44,35.5 L23.446,31.078 C23.446,30.394 23.25,29.851 22.858,29.449 C22.466,29.047 21.944,28.846 21.292,28.846 C20.86,28.846 20.473,28.943 20.131,29.137 C19.789,29.331 19.521,29.602 19.327,29.95 L19.332,29.943 L19.3,29.878 C19.1466667,29.598 18.9454167,29.3735556 18.69625,29.2046667 L18.541,29.11 C18.219,28.934 17.852,28.846 17.44,28.846 C17.008,28.846 16.622,28.941 16.282,29.131 C16.0553333,29.2576667 15.8606667,29.4154444 15.698,29.6043333 L15.616,29.709 L15.616,29.02 L14.824,29.02 L14.824,35.5 L15.712,35.5 Z M25.888,35.5 L25.888,31.318 C25.888,30.81 26.026,30.403 26.302,30.097 C26.578,29.791 26.94,29.638 27.388,29.638 C27.836,29.638 28.197,29.787 28.471,30.085 C28.745,30.383 28.882,30.79 28.882,31.306 L28.882,31.306 L28.876,35.5 L29.746,35.5 L29.752,31.318 C29.752,30.918 29.827,30.594 29.977,30.346 C30.127,30.098 30.318,29.918 30.55,29.806 C30.782,29.694 31.02,29.638 31.264,29.638 C31.692,29.638 32.045,29.781 32.323,30.067 C32.601,30.353 32.74,30.746 32.74,31.246 L32.74,31.246 L32.734,35.5 L33.616,35.5 L33.622,31.078 C33.622,30.394 33.426,29.851 33.034,29.449 C32.642,29.047 32.12,28.846 31.468,28.846 C31.036,28.846 30.649,28.943 30.307,29.137 C29.965,29.331 29.697,29.602 29.503,29.95 L29.508,29.943 L29.476,29.878 C29.3226667,29.598 29.1214167,29.3735556 28.87225,29.2046667 L28.717,29.11 C28.395,28.934 28.028,28.846 27.616,28.846 C27.184,28.846 26.798,28.941 26.458,29.131 C26.2313333,29.2576667 26.0366667,29.4154444 25.874,29.6043333 L25.792,29.709 L25.792,29.02 L25,29.02 L25,35.5 L25.888,35.5 Z M37.036,35.68 C37.684,35.68 38.24,35.534 38.704,35.242 C38.994,35.0595 39.2363437,34.8254375 39.4310312,34.5398125 L39.501,34.428 L39.502,35.5 L40.288,35.5 L40.288,31.474 C40.288,31.234 40.276,30.998 40.252,30.766 C40.228,30.534 40.176,30.324 40.096,30.136 C39.924,29.716 39.631,29.395 39.217,29.173 C38.803,28.951 38.3,28.84 37.708,28.84 C36.992,28.84 36.41,29 35.962,29.32 C35.514,29.64 35.216,30.09 35.068,30.67 L35.068,30.67 L35.926,30.922 C36.05,30.49 36.265,30.174 36.571,29.974 C36.877,29.774 37.252,29.674 37.696,29.674 C38.34,29.674 38.792,29.828 39.052,30.136 C39.312,30.444 39.436,30.918 39.424,31.558 L39.423,31.412 L39.26875,31.43275 C39.185,31.444 39.0983125,31.4553125 39.0086875,31.4666875 L38.731,31.501 C38.349,31.547 37.959,31.601 37.561,31.663 C37.163,31.725 36.8,31.796 36.472,31.876 C36.148,31.96 35.863,32.082 35.617,32.242 C35.371,32.402 35.177,32.607 35.035,32.857 C34.893,33.107 34.822,33.408 34.822,33.76 C34.822,34.104 34.904,34.422 35.068,34.714 C35.232,35.006 35.479,35.24 35.809,35.416 C36.139,35.592 36.548,35.68 37.036,35.68 Z M37.138,34.918 C36.79,34.918 36.511,34.86 36.301,34.744 C36.091,34.628 35.939,34.482 35.845,34.306 C35.751,34.13 35.704,33.948 35.704,33.76 C35.704,33.528 35.759,33.334 35.869,33.178 C35.979,33.022 36.12,32.897 36.292,32.803 C36.464,32.709 36.642,32.636 36.826,32.584 C37.098,32.512 37.403,32.45 37.741,32.398 C38.079,32.346 38.423,32.3 38.773,32.26 C38.8896667,32.2466667 39.0035556,32.2333333 39.1146667,32.22 L39.41,32.184 L39.40984,32.25724 C39.40936,32.29716 39.4088,32.3396 39.40816,32.38456 L39.406,32.527 C39.402,32.777 39.376,33.006 39.328,33.214 C39.272,33.538 39.15,33.829 38.962,34.087 C38.774,34.345 38.526,34.548 38.218,34.696 C37.91,34.844 37.55,34.918 37.138,34.918 Z M42.73,35.5 L42.73,32.044 C42.73,31.676 42.772,31.348 42.856,31.06 C42.94,30.772 43.063,30.527 43.225,30.325 C43.387,30.123 43.587,29.968 43.825,29.86 C44.063,29.752 44.338,29.698 44.65,29.698 C44.99,29.698 45.279,29.76 45.517,29.884 C45.755,30.008 45.949,30.183 46.099,30.409 C46.249,30.635 46.358,30.899 46.426,31.201 C46.494,31.503 46.528,31.834 46.528,32.194 L46.528,32.194 L46.528,35.5 L47.416,35.5 L47.416,31.936 C47.416,31.644 47.388,31.351 47.332,31.057 C47.276,30.763 47.186,30.485 47.062,30.223 C46.938,29.961 46.775,29.728 46.573,29.524 C46.371,29.32 46.125,29.158 45.835,29.038 C45.545,28.918 45.206,28.858 44.818,28.858 C44.29,28.858 43.822,28.974 43.414,29.206 C43.1225714,29.3717143 42.8760408,29.593551 42.6744082,29.8715102 L42.639,29.924 L42.64,29.02 L41.842,29.02 L41.842,35.5 L42.73,35.5 Z M51.49,35.68 C52.086,35.68 52.59,35.529 53.002,35.227 C53.2374286,35.0544286 53.4402041,34.8465918 53.6103265,34.6034898 L53.614,34.598 L53.614,35.5 L54.406,35.5 L54.406,26.86 L53.518,26.86 L53.517,29.787 L53.4692041,29.7246327 C53.3750816,29.6133673 53.2727143,29.511 53.162102,29.4175306 L52.99,29.284 C52.574,28.988 52.062,28.84 51.454,28.84 C50.862,28.84 50.354,28.99 49.93,29.29 C49.506,29.59 49.181,29.998 48.955,30.514 C48.729,31.03 48.616,31.61 48.616,32.254 C48.616,32.902 48.73,33.484 48.958,34 C49.186,34.516 49.514,34.925 49.942,35.227 C50.37,35.529 50.886,35.68 51.49,35.68 Z M51.58,34.858 C51.128,34.858 50.752,34.744 50.452,34.516 C50.152,34.288 49.927,33.977 49.777,33.583 C49.627,33.189 49.552,32.746 49.552,32.254 C49.552,31.766 49.625,31.326 49.771,30.934 C49.917,30.542 50.142,30.232 50.446,30.004 C50.75,29.776 51.134,29.662 51.598,29.662 C52.05,29.662 52.425,29.772 52.723,29.992 C53.021,30.212 53.244,30.517 53.392,30.907 C53.54,31.297 53.614,31.746 53.614,32.254 C53.614,32.754 53.54,33.201 53.392,33.595 C53.244,33.989 53.02,34.298 52.72,34.522 C52.42,34.746 52.04,34.858 51.58,34.858 Z M59.566,32.098 L59.566,31.342 L55.966,31.342 L55.966,32.098 L59.566,32.098 Z M62.008,35.5 L62.008,32.266 C62.008,32.01 62.026,31.751 62.062,31.489 C62.098,31.227 62.17,30.979 62.278,30.745 C62.386,30.511 62.548,30.31 62.764,30.142 C63,29.95 63.258,29.838 63.538,29.806 C63.818,29.774 64.076,29.788 64.312,29.848 L64.312,29.848 L64.312,29.02 C64.124,28.972 63.916,28.955 63.688,28.969 C63.46,28.983 63.234,29.029 63.01,29.107 C62.786,29.185 62.59,29.298 62.422,29.446 C62.286,29.55 62.16,29.683 62.044,29.845 C62.0053333,29.899 61.9691111,29.9546667 61.9353333,30.012 L61.917,30.046 L61.918,29.02 L61.126,29.02 L61.126,35.5 L62.008,35.5 Z M71.14,32.506 C71.16,31.746 71.054,31.092 70.822,30.544 C70.59,29.996 70.248,29.575 69.796,29.281 C69.344,28.987 68.798,28.84 68.158,28.84 C67.534,28.84 66.993,28.98 66.535,29.26 C66.077,29.54 65.722,29.938 65.47,30.454 C65.218,30.97 65.092,31.582 65.092,32.29 C65.092,32.974 65.22,33.57 65.476,34.078 C65.732,34.586 66.091,34.98 66.553,35.26 C67.015,35.54 67.562,35.68 68.194,35.68 C68.822,35.68 69.385,35.525 69.883,35.215 C70.381,34.905 70.758,34.468 71.014,33.904 L71.014,33.904 L70.192,33.586 C69.992,33.99 69.719,34.299 69.373,34.513 C69.027,34.727 68.622,34.834 68.158,34.834 C67.478,34.834 66.953,34.609 66.583,34.159 C66.287,33.799 66.1094,33.32188 66.0502,32.72764 L66.033,32.506 L70.666,32.506 L71.14,32.506 Z M70.215,31.768 L66.052,31.768 L66.07795,31.55944 C66.14455,31.12696 66.27775,30.7636 66.47755,30.46936 L66.583,30.328 C66.953,29.876 67.486,29.65 68.182,29.65 C68.846,29.65 69.351,29.864 69.697,30.292 C69.9738,30.6344 70.145,31.10864 70.2106,31.71472 L70.215,31.768 Z M75.04,38.56 C75.568,38.56 76.025,38.484 76.411,38.332 C76.797,38.18 77.109,37.948 77.347,37.636 C77.585,37.324 77.742,36.926 77.818,36.442 C77.846,36.278 77.865,36.111 77.875,35.941 C77.885,35.771 77.89,35.594 77.89,35.41 L77.89,35.41 L77.89,29.02 L77.104,29.02 L77.103,29.913 L77.0942041,29.8982041 C76.9653878,29.7179592 76.8180204,29.5577347 76.652102,29.4175306 L76.48,29.284 C76.064,28.988 75.552,28.84 74.944,28.84 C74.352,28.84 73.844,28.99 73.42,29.29 C72.996,29.59 72.671,29.998 72.445,30.514 C72.219,31.03 72.106,31.61 72.106,32.254 C72.106,32.902 72.22,33.484 72.448,34 C72.676,34.516 73.004,34.925 73.432,35.227 C73.86,35.529 74.376,35.68 74.98,35.68 C75.576,35.68 76.08,35.529 76.492,35.227 C76.6685714,35.0975714 76.8267755,34.9483061 76.9666122,34.7792041 L77.002,34.733 L77.002,35.398 C77.0053333,35.8213333 76.9614444,36.1863333 76.8703333,36.493 L76.81,36.67 C76.678,37.01 76.467,37.267 76.177,37.441 C75.887,37.615 75.508,37.702 75.04,37.702 C74.7,37.702 74.367,37.623 74.041,37.465 C73.715,37.307 73.462,37.048 73.282,36.688 L73.282,36.688 L72.484,37.132 C72.668,37.468 72.896,37.741 73.168,37.951 C73.44,38.161 73.737,38.315 74.059,38.413 C74.381,38.511 74.708,38.56 75.04,38.56 Z M75.07,34.858 C74.618,34.858 74.242,34.744 73.942,34.516 C73.642,34.288 73.417,33.977 73.267,33.583 C73.117,33.189 73.042,32.746 73.042,32.254 C73.042,31.766 73.115,31.326 73.261,30.934 C73.407,30.542 73.632,30.232 73.936,30.004 C74.24,29.776 74.624,29.662 75.088,29.662 C75.54,29.662 75.915,29.772 76.213,29.992 C76.511,30.212 76.734,30.517 76.882,30.907 C77.03,31.297 77.104,31.746 77.104,32.254 C77.104,32.754 77.03,33.201 76.882,33.595 C76.734,33.989 76.51,34.298 76.21,34.522 C75.91,34.746 75.53,34.858 75.07,34.858 Z M82.048,35.662 C82.576,35.662 83.044,35.546 83.452,35.314 C83.7434286,35.1482857 83.9899592,34.926449 84.1915918,34.6484898 L84.225,34.598 L84.226,35.5 L85.018,35.5 L85.018,29.02 L84.136,29.02 L84.136,32.476 C84.136,32.84 84.094,33.167 84.01,33.457 C83.926,33.747 83.803,33.993 83.641,34.195 C83.479,34.397 83.279,34.552 83.041,34.66 C82.803,34.768 82.528,34.822 82.216,34.822 C81.876,34.822 81.587,34.76 81.349,34.636 C81.111,34.512 80.917,34.337 80.767,34.111 C80.617,33.885 80.508,33.62 80.44,33.316 C80.372,33.012 80.338,32.682 80.338,32.326 L80.338,32.326 L80.338,29.02 L79.45,29.02 L79.45,32.584 C79.45,32.876 79.478,33.169 79.534,33.463 C79.59,33.757 79.68,34.035 79.804,34.297 C79.928,34.559 80.091,34.792 80.293,34.996 C80.495,35.2 80.741,35.362 81.031,35.482 C81.321,35.602 81.66,35.662 82.048,35.662 Z M87.7,35.5 L87.7,26.68 L86.818,26.68 L86.818,35.5 L87.7,35.5 Z M91.354,35.68 C92.002,35.68 92.558,35.534 93.022,35.242 C93.312,35.0595 93.5543438,34.8254375 93.7490313,34.5398125 L93.82,34.427 L93.82,35.5 L94.606,35.5 L94.606,31.474 C94.606,31.234 94.594,30.998 94.57,30.766 C94.546,30.534 94.494,30.324 94.414,30.136 C94.242,29.716 93.949,29.395 93.535,29.173 C93.121,28.951 92.618,28.84 92.026,28.84 C91.31,28.84 90.728,29 90.28,29.32 C89.832,29.64 89.534,30.09 89.386,30.67 L89.386,30.67 L90.244,30.922 C90.368,30.49 90.583,30.174 90.889,29.974 C91.195,29.774 91.57,29.674 92.014,29.674 C92.658,29.674 93.11,29.828 93.37,30.136 C93.63,30.444 93.754,30.918 93.742,31.558 L93.74,31.412 L93.58675,31.43275 C93.503,31.444 93.4163125,31.4553125 93.3266875,31.4666875 L93.049,31.501 C92.667,31.547 92.277,31.601 91.879,31.663 C91.481,31.725 91.118,31.796 90.79,31.876 C90.466,31.96 90.181,32.082 89.935,32.242 C89.689,32.402 89.495,32.607 89.353,32.857 C89.211,33.107 89.14,33.408 89.14,33.76 C89.14,34.104 89.222,34.422 89.386,34.714 C89.55,35.006 89.797,35.24 90.127,35.416 C90.457,35.592 90.866,35.68 91.354,35.68 Z M91.456,34.918 C91.108,34.918 90.829,34.86 90.619,34.744 C90.409,34.628 90.257,34.482 90.163,34.306 C90.069,34.13 90.022,33.948 90.022,33.76 C90.022,33.528 90.077,33.334 90.187,33.178 C90.297,33.022 90.438,32.897 90.61,32.803 C90.782,32.709 90.96,32.636 91.144,32.584 C91.416,32.512 91.721,32.45 92.059,32.398 C92.397,32.346 92.741,32.3 93.091,32.26 C93.2076667,32.2466667 93.3215556,32.2333333 93.4326667,32.22 L93.728,32.184 L93.72784,32.25724 C93.72736,32.29716 93.7268,32.3396 93.72616,32.38456 L93.724,32.527 C93.72,32.777 93.694,33.006 93.646,33.214 C93.59,33.538 93.468,33.829 93.28,34.087 C93.092,34.345 92.844,34.548 92.536,34.696 C92.228,34.844 91.868,34.918 91.456,34.918 Z M97.048,35.5 L97.048,32.266 C97.048,32.01 97.066,31.751 97.102,31.489 C97.138,31.227 97.21,30.979 97.318,30.745 C97.426,30.511 97.588,30.31 97.804,30.142 C98.04,29.95 98.298,29.838 98.578,29.806 C98.858,29.774 99.116,29.788 99.352,29.848 L99.352,29.848 L99.352,29.02 C99.164,28.972 98.956,28.955 98.728,28.969 C98.5,28.983 98.274,29.029 98.05,29.107 C97.826,29.185 97.63,29.298 97.462,29.446 C97.326,29.55 97.2,29.683 97.084,29.845 C97.0453333,29.899 97.0091111,29.9546667 96.9753333,30.012 L96.958,30.044 L96.958,29.02 L96.166,29.02 L96.166,35.5 L97.048,35.5 Z" id="command-regular" fill="#245633" fill-rule="nonzero"></path>
                <polyline id="Path-3-Copy-4" stroke="#245633" points="13 4.5 50.25 4.5 50.25 21.5"></polyline>
            </g>
        </g>
    </g>
</svg>