<svg xmlns="http://www.w3.org/2000/svg" width="189" height="115" viewBox="0 0 189 115">
  <g fill="none" fill-rule="evenodd">
    <rect width="182.5" height="108" x="6" y="6" fill="#35313D" opacity=".1" rx="16"/>
    <rect width="182.5" height="108" fill="#29272E" rx="16"/>
    <path fill="#FFF" fill-rule="nonzero" d="M17.08,88.3 C18.1533333,88.3 19.0766667,88.0483333 19.85,87.545 C20.6233333,87.0416667 21.21,86.31 21.61,85.35 L21.61,85.35 L20.13,84.91 C19.8633333,85.5566667 19.4716667,86.0483333 18.955,86.385 C18.4383333,86.7216667 17.8133333,86.89 17.08,86.89 C15.92,86.89 15.0466667,86.4983333 14.46,85.715 C13.8733333,84.9316667 13.5733333,83.8933333 13.56,82.6 C13.5666667,81.76 13.6966667,81.0166667 13.95,80.37 C14.2033333,79.7233333 14.59,79.2183333 15.11,78.855 C15.63,78.4916667 16.2866667,78.31 17.08,78.31 C17.7866667,78.31 18.415,78.4883333 18.965,78.845 C19.515,79.2016667 19.9166667,79.7033333 20.17,80.35 L20.17,80.35 L21.61,79.89 C21.31,78.9633333 20.755,78.2333333 19.945,77.7 C19.135,77.1666667 18.1833333,76.9 17.09,76.9 C16.0166667,76.9 15.1033333,77.1383333 14.35,77.615 C13.5966667,78.0916667 13.02,78.7583333 12.62,79.615 C12.22,80.4716667 12.0133333,81.4666667 12,82.6 C12.0133333,83.7133333 12.215,84.6983333 12.605,85.555 C12.995,86.4116667 13.5666667,87.0833333 14.32,87.57 C15.0733333,88.0566667 15.9933333,88.3 17.08,88.3 Z M28.18,88.3 C29.2466667,88.3 30.1633333,88.06 30.93,87.58 C31.6966667,87.1 32.2833333,86.4316667 32.69,85.575 C33.0966667,84.7183333 33.3,83.7233333 33.3,82.59 C33.3,81.4766667 33.0983333,80.4916667 32.695,79.635 C32.2916667,78.7783333 31.7083333,78.1083333 30.945,77.625 C30.1816667,77.1416667 29.26,76.9 28.18,76.9 C27.1266667,76.9 26.2183333,77.1383333 25.455,77.615 C24.6916667,78.0916667 24.1033333,78.7566667 23.69,79.61 C23.2766667,80.4633333 23.07,81.4566667 23.07,82.59 C23.07,83.7033333 23.2733333,84.69 23.68,85.55 C24.0866667,86.41 24.67,87.0833333 25.43,87.57 C26.19,88.0566667 27.1066667,88.3 28.18,88.3 Z M28.18,86.89 C27.0133333,86.89 26.13,86.4983333 25.53,85.715 C24.93,84.9316667 24.63,83.89 24.63,82.59 C24.63,81.75 24.7583333,81.0083333 25.015,80.365 C25.2716667,79.7216667 25.6616667,79.2183333 26.185,78.855 C26.7083333,78.4916667 27.3733333,78.31 28.18,78.31 C29.3733333,78.31 30.265,78.6966667 30.855,79.47 C31.445,80.2433333 31.74,81.2833333 31.74,82.59 C31.74,83.8633333 31.4466667,84.8983333 30.86,85.695 C30.2733333,86.4916667 29.38,86.89 28.18,86.89 Z M36.81,77.2 L35.49,77.2 L35.49,88 L36.97,88 L36.97,81.03 C36.97,80.1833333 37.2,79.505 37.66,78.995 C38.12,78.485 38.7233333,78.23 39.47,78.23 C40.2166667,78.23 40.8183333,78.4783333 41.275,78.975 C41.7316667,79.4716667 41.96,80.15 41.96,81.01 L41.96,81.01 L41.95,88 L43.4,88 L43.41,81.03 C43.41,80.3633333 43.535,79.8233333 43.785,79.41 C44.035,78.9966667 44.3533333,78.6966667 44.74,78.51 C45.1266667,78.3233333 45.5233333,78.23 45.93,78.23 C46.6433333,78.23 47.2316667,78.4683333 47.695,78.945 C48.1583333,79.4216667 48.39,80.0766667 48.39,80.91 L48.39,80.91 L48.38,88 L49.85,88 L49.86,80.63 C49.86,79.49 49.5333333,78.585 48.88,77.915 C48.2266667,77.245 47.3566667,76.91 46.27,76.91 C45.55,76.91 44.905,77.0716667 44.335,77.395 C43.765,77.7183333 43.3183333,78.17 42.995,78.75 L43.003,78.736 L42.95,78.63 C42.6816667,78.14 42.3252865,77.7520833 41.8808594,77.46625 L41.685,77.35 C41.1483333,77.0566667 40.5366667,76.91 39.85,76.91 C39.13,76.91 38.4866667,77.0683333 37.92,77.385 C37.495,77.6225 37.1375,77.925625 36.8475,78.294375 L36.81,78.345 L36.81,77.2 Z M53.77,77.2 L52.45,77.2 L52.45,88 L53.93,88 L53.93,81.03 C53.93,80.1833333 54.16,79.505 54.62,78.995 C55.08,78.485 55.6833333,78.23 56.43,78.23 C57.1766667,78.23 57.7783333,78.4783333 58.235,78.975 C58.6916667,79.4716667 58.92,80.15 58.92,81.01 L58.92,81.01 L58.91,88 L60.36,88 L60.37,81.03 C60.37,80.3633333 60.495,79.8233333 60.745,79.41 C60.995,78.9966667 61.3133333,78.6966667 61.7,78.51 C62.0866667,78.3233333 62.4833333,78.23 62.89,78.23 C63.6033333,78.23 64.1916667,78.4683333 64.655,78.945 C65.1183333,79.4216667 65.35,80.0766667 65.35,80.91 L65.35,80.91 L65.34,88 L66.81,88 L66.82,80.63 C66.82,79.49 66.4933333,78.585 65.84,77.915 C65.1866667,77.245 64.3166667,76.91 63.23,76.91 C62.51,76.91 61.865,77.0716667 61.295,77.395 C60.725,77.7183333 60.2783333,78.17 59.955,78.75 L59.963,78.736 L59.91,78.63 C59.6416667,78.14 59.2852865,77.7520833 58.8408594,77.46625 L58.645,77.35 C58.1083333,77.0566667 57.4966667,76.91 56.81,76.91 C56.09,76.91 55.4466667,77.0683333 54.88,77.385 C54.455,77.6225 54.0975,77.925625 53.8075,78.294375 L53.77,78.345 L53.77,77.2 Z M72.51,88.3 C73.59,88.3 74.5166667,88.0566667 75.29,87.57 C75.7821212,87.260303 76.1919008,86.8615152 76.5193388,86.3736364 L76.62,86.214 L76.62,88 L77.93,88 L77.93,81.29 C77.93,80.89 77.91,80.4966667 77.87,80.11 C77.83,79.7233333 77.7433333,79.3733333 77.61,79.06 C77.3233333,78.36 76.835,77.825 76.145,77.455 C75.455,77.085 74.6166667,76.9 73.63,76.9 C72.4366667,76.9 71.4666667,77.1666667 70.72,77.7 C69.9733333,78.2333333 69.4766667,78.9833333 69.23,79.95 L69.23,79.95 L70.66,80.37 C70.8666667,79.65 71.225,79.1233333 71.735,78.79 C72.245,78.4566667 72.87,78.29 73.61,78.29 C74.6833333,78.29 75.4366667,78.5466667 75.87,79.06 C76.3033333,79.5733333 76.51,80.3633333 76.49,81.43 L76.49,81.186 L76.3964,81.1988 C76.1793333,81.2286667 75.9497333,81.2588 75.7076,81.2892 L75.335,81.335 C74.6983333,81.4116667 74.0483333,81.5016667 73.385,81.605 C72.7216667,81.7083333 72.1166667,81.8266667 71.57,81.96 C71.03,82.1 70.555,82.3033333 70.145,82.57 C69.735,82.8366667 69.4116667,83.1783333 69.175,83.595 C68.9383333,84.0116667 68.82,84.5133333 68.82,85.1 C68.82,85.6733333 68.9566667,86.2033333 69.23,86.69 C69.5033333,87.1766667 69.915,87.5666667 70.465,87.86 C71.015,88.1533333 71.6966667,88.3 72.51,88.3 Z M72.68,87.03 C72.1,87.03 71.635,86.9333333 71.285,86.74 C70.935,86.5466667 70.6816667,86.3033333 70.525,86.01 C70.3683333,85.7166667 70.29,85.4133333 70.29,85.1 C70.29,84.7133333 70.3816667,84.39 70.565,84.13 C70.7483333,83.87 70.9833333,83.6616667 71.27,83.505 C71.5566667,83.3483333 71.8533333,83.2266667 72.16,83.14 C72.6133333,83.02 73.1216667,82.9166667 73.685,82.83 C74.2483333,82.7433333 74.8216667,82.6666667 75.405,82.6 C75.6966667,82.5666667 75.9779167,82.5333333 76.24875,82.5 L76.467,82.473 L76.4675,82.49875 C76.4663889,82.6026389 76.4649074,82.7181944 76.4630556,82.8454167 L76.46,83.045 C76.4533333,83.4616667 76.41,83.8433333 76.33,84.19 C76.2366667,84.73 76.0333333,85.215 75.72,85.645 C75.4066667,86.075 74.9933333,86.4133333 74.48,86.66 C73.9666667,86.9066667 73.3666667,87.03 72.68,87.03 Z M82,88 L82,82.24 C82,81.6266667 82.07,81.08 82.21,80.6 C82.35,80.12 82.555,79.7116667 82.825,79.375 C83.095,79.0383333 83.4283333,78.78 83.825,78.6 C84.2216667,78.42 84.68,78.33 85.2,78.33 C85.7666667,78.33 86.2483333,78.4333333 86.645,78.64 C87.0416667,78.8466667 87.365,79.1383333 87.615,79.515 C87.865,79.8916667 88.0466667,80.3316667 88.16,80.835 C88.2733333,81.3383333 88.33,81.89 88.33,82.49 L88.33,82.49 L88.33,88 L89.81,88 L89.81,82.06 C89.81,81.5733333 89.7633333,81.085 89.67,80.595 C89.5766667,80.105 89.4266667,79.6416667 89.22,79.205 C89.0133333,78.7683333 88.7416667,78.38 88.405,78.04 C88.0683333,77.7 87.6583333,77.43 87.175,77.23 C86.6916667,77.03 86.1266667,76.93 85.48,76.93 C84.6,76.93 83.82,77.1233333 83.14,77.51 C82.6866667,77.7677778 82.2985185,78.107037 81.9755556,78.5277778 L81.85,78.702 L81.85,77.2 L80.52,77.2 L80.52,88 L82,88 Z M96.6,88.3 C97.5933333,88.3 98.4333333,88.0483333 99.12,87.545 C99.5014815,87.2653704 99.8315226,86.9301852 100.110123,86.5394444 L100.14,86.495 L100.14,88 L101.46,88 L101.46,73.6 L99.98,73.6 L99.98,78.478 L99.9246914,78.4054321 C99.7434568,78.1871605 99.5435185,77.9890741 99.3248765,77.8111728 L99.1,77.64 C98.4066667,77.1466667 97.5533333,76.9 96.54,76.9 C95.5533333,76.9 94.7066667,77.15 94,77.65 C93.2933333,78.15 92.7516667,78.83 92.375,79.69 C91.9983333,80.55 91.81,81.5166667 91.81,82.59 C91.81,83.67 92,84.64 92.38,85.5 C92.76,86.36 93.3066667,87.0416667 94.02,87.545 C94.7333333,88.0483333 95.5933333,88.3 96.6,88.3 Z M96.75,86.93 C95.9966667,86.93 95.37,86.74 94.87,86.36 C94.37,85.98 93.995,85.4616667 93.745,84.805 C93.495,84.1483333 93.37,83.41 93.37,82.59 C93.37,81.7766667 93.4916667,81.0433333 93.735,80.39 C93.9783333,79.7366667 94.3533333,79.22 94.86,78.84 C95.3666667,78.46 96.0066667,78.27 96.78,78.27 C97.5333333,78.27 98.1583333,78.4533333 98.655,78.82 C99.1516667,79.1866667 99.5233333,79.695 99.77,80.345 C100.016667,80.995 100.14,81.7433333 100.14,82.59 C100.14,83.4233333 100.016667,84.1683333 99.77,84.825 C99.5233333,85.4816667 99.15,85.9966667 98.65,86.37 C98.15,86.7433333 97.5166667,86.93 96.75,86.93 Z"/>
    <path fill="#FFF" fill-rule="nonzero" d="M22.5,5 C24.9842847,5 27,7.01571525 27,9.5 C27,11.9842847 24.9842847,14 22.5,14 L22.5,14 L20,14 L20,18 L22.5,18 C24.9133052,18 26.8844338,19.902177 26.9950996,22.2882449 L27,22.5 C27,24.9842847 24.9842847,27 22.5,27 C20.0157153,27 18,24.9842847 18,22.5 L18,22.5 L18,20 L14,20 L14,22.5 C14,24.9133052 12.097823,26.8844338 9.71175509,26.9950996 L9.5,27 C7.01571525,27 5,24.9842847 5,22.5 C5,20.0157153 7.01571525,18 9.5,18 L9.5,18 L12,18 L12,14 L9.5,14 C7.08669481,14 5.11556623,12.097823 5.00490036,9.71175509 L5,9.5 C5,7.01571525 7.01571525,5 9.5,5 C11.9842847,5 14,7.01571525 14,9.5 L14,9.5 L14,12 L18,12 L18,9.5 C18,7.08669481 19.902177,5.11556623 22.2882449,5.00490036 Z M22.5,20 L20,20 L20,22.5 C20,23.8797153 21.1202847,25 22.5,25 C23.8797153,25 25,23.8797153 25,22.5 C25,21.1202847 23.8797153,20 22.5,20 L22.5,20 Z M12,20 L9.5,20 C8.12028475,20 7,21.1202847 7,22.5 C7,23.8797153 8.12028475,25 9.5,25 C10.8797153,25 12,23.8797153 12,22.5 L12,22.5 L12,20 Z M18,14 L14,14 L14,18 L18,18 L18,14 Z M22.5,7 C21.1202847,7 20,8.12028475 20,9.5 L20,9.5 L20,12 L22.5,12 C23.8245266,12 24.9099621,10.9675456 24.9946777,9.66426547 L24.9946777,9.66426547 L25,9.5 C25,8.12028475 23.8797153,7 22.5,7 Z M9.5,7 C8.12028475,7 7,8.12028475 7,9.5 C7,10.8797153 8.12028475,12 9.5,12 L9.5,12 L12,12 L12,9.5 C12,8.17547336 10.9675456,7.09003787 9.66426547,7.00532227 L9.66426547,7.00532227 Z" transform="translate(12 12)"/>
  </g>
</svg>
