<?xml version="1.0" encoding="UTF-8"?>
<svg width="16px" height="16px" viewBox="0 0 16 16" version="1.1" xmlns="http://www.w3.org/2000/svg" xmlns:xlink="http://www.w3.org/1999/xlink">
    <title>ph-do-not-disturb</title>
    <g id="Page-1" stroke="none" stroke-width="1" fill="none" fill-rule="evenodd">
        <g id="REFACTOR---Testing-32-line-style-MEDIUM---REFACTOR" transform="translate(-172.000000, -804.000000)">
            <g id="ph-do-not-disturb" transform="translate(172.000000, 804.000000)">
                <polygon id="Fill-1" points="0 16 16 16 16 0 0 0"></polygon>
                <path d="M8,1.5 C11.5891424,1.5 14.5,4.41085763 14.5,8 C14.5,11.5891424 11.5891424,14.5 8,14.5 C4.41085763,14.5 1.5,11.5891424 1.5,8 C1.5,4.41085763 4.41085763,1.5 8,1.5 Z M8,2.5 C4.96314237,2.5 2.5,4.96314237 2.5,8 C2.5,11.0368576 4.96314237,13.5 8,13.5 C11.0368576,13.5 13.5,11.0368576 13.5,8 C13.5,4.96314237 11.0368576,2.5 8,2.5 Z M10.5,7.5 C10.7761424,7.5 11,7.72385763 11,8 C11,8.24545989 10.8231248,8.44960837 10.5898756,8.49194433 L10.5,8.5 L5.5,8.5 C5.22385763,8.5 5,8.27614237 5,8 C5,7.75454011 5.17687516,7.55039163 5.41012437,7.50805567 L5.5,7.5 L10.5,7.5 Z" id="Combined-Shape" fill="#000000" fill-rule="nonzero"></path>
            </g>
        </g>
    </g>
</svg>