<svg xmlns="http://www.w3.org/2000/svg" width="878" height="667" viewBox="0 0 878 667">
  <g fill="none" fill-rule="evenodd">
    <g transform="rotate(-10 623.127 52.264)">
      <polygon fill="#35313D" points="3.245 4.634 359.245 4.634 359.245 288.738 287.234 360.634 3.245 360.634" opacity=".1"/>
      <polygon fill="#FFD171" points="0 0 356 0 356 284.105 283.989 356 0 356"/>
      <polygon fill="#000" points="356 284 356 356 284 356" opacity=".1" transform="rotate(180 320 320)"/>
    </g>
    <g fill="#000" transform="translate(314)">
      <g transform="rotate(-58 71.706 11.615)">
        <path d="M73.5783829,69.1067961 L19.1495518,69.1067961 C11.9105926,69.1067961 6.02159845,63.0861981 6.02159845,55.6854369 C6.02159845,48.2846757 11.9105926,42.2640777 19.1495518,42.2640777 L72.8349887,42.2640777 C76.9463984,42.2640777 80.2912994,45.6089786 80.2912994,49.7203883 C80.2912994,53.8317981 76.9463984,57.176699 72.8349887,57.176699 L31.0796489,57.176699 C30.2560994,57.176699 29.5883868,56.5089864 29.5883868,55.6854369 C29.5883868,54.8618874 30.2560994,54.1941748 31.0796489,54.1941748 L72.8349887,54.1941748 C75.3019091,54.1941748 77.3087751,52.1873087 77.3087751,49.7203883 C77.3087751,47.253468 75.3019091,45.2466019 72.8349887,45.2466019 L19.1495518,45.2466019 C13.5550819,45.2466019 9.00412272,49.9295379 9.00412272,55.6854369 C9.00412272,61.4413359 13.5550819,66.1242718 19.1495518,66.1242718 L73.5783829,66.1242718 C82.6236334,66.1242718 89.9822664,58.7656388 89.9822664,49.7203883 C89.9822664,40.6751379 82.6236334,33.3165049 73.5783829,33.3165049 L31.8230431,33.3165049 C30.9994936,33.3165049 30.331781,32.6487922 30.331781,31.8252427 C30.331781,31.0016932 30.9994936,30.3339806 31.8230431,30.3339806 L73.5783829,30.3339806 C84.2681227,30.3339806 92.9647907,39.0306485 92.9647907,49.7203883 C92.9647907,60.4101282 84.2681227,69.1067961 73.5783829,69.1067961" opacity=".1"/>
        <path d="M71.5783829,67.1067961 L17.1495518,67.1067961 C9.91059262,67.1067961 4.02159845,61.0861981 4.02159845,53.6854369 C4.02159845,46.2846757 9.91059262,40.2640777 17.1495518,40.2640777 L70.8349887,40.2640777 C74.9463984,40.2640777 78.2912994,43.6089786 78.2912994,47.7203883 C78.2912994,51.8317981 74.9463984,55.176699 70.8349887,55.176699 L29.0796489,55.176699 C28.2560994,55.176699 27.5883868,54.5089864 27.5883868,53.6854369 C27.5883868,52.8618874 28.2560994,52.1941748 29.0796489,52.1941748 L70.8349887,52.1941748 C73.3019091,52.1941748 75.3087751,50.1873087 75.3087751,47.7203883 C75.3087751,45.253468 73.3019091,43.2466019 70.8349887,43.2466019 L17.1495518,43.2466019 C11.5550819,43.2466019 7.00412272,47.9295379 7.00412272,53.6854369 C7.00412272,59.4413359 11.5550819,64.1242718 17.1495518,64.1242718 L71.5783829,64.1242718 C80.6236334,64.1242718 87.9822664,56.7656388 87.9822664,47.7203883 C87.9822664,38.6751379 80.6236334,31.3165049 71.5783829,31.3165049 L29.8230431,31.3165049 C28.9994936,31.3165049 28.331781,30.6487922 28.331781,29.8252427 C28.331781,29.0016932 28.9994936,28.3339806 29.8230431,28.3339806 L71.5783829,28.3339806 C82.2681227,28.3339806 90.9647907,37.0306485 90.9647907,47.7203883 C90.9647907,58.4101282 82.2681227,67.1067961 71.5783829,67.1067961"/>
      </g>
      <g transform="rotate(40 -178.662 147.611)">
        <path d="M73.5783829,69.1067961 L19.1495518,69.1067961 C11.9105926,69.1067961 6.02159845,63.0861981 6.02159845,55.6854369 C6.02159845,48.2846757 11.9105926,42.2640777 19.1495518,42.2640777 L72.8349887,42.2640777 C76.9463984,42.2640777 80.2912994,45.6089786 80.2912994,49.7203883 C80.2912994,53.8317981 76.9463984,57.176699 72.8349887,57.176699 L31.0796489,57.176699 C30.2560994,57.176699 29.5883868,56.5089864 29.5883868,55.6854369 C29.5883868,54.8618874 30.2560994,54.1941748 31.0796489,54.1941748 L72.8349887,54.1941748 C75.3019091,54.1941748 77.3087751,52.1873087 77.3087751,49.7203883 C77.3087751,47.253468 75.3019091,45.2466019 72.8349887,45.2466019 L19.1495518,45.2466019 C13.5550819,45.2466019 9.00412272,49.9295379 9.00412272,55.6854369 C9.00412272,61.4413359 13.5550819,66.1242718 19.1495518,66.1242718 L73.5783829,66.1242718 C82.6236334,66.1242718 89.9822664,58.7656388 89.9822664,49.7203883 C89.9822664,40.6751379 82.6236334,33.3165049 73.5783829,33.3165049 L31.8230431,33.3165049 C30.9994936,33.3165049 30.331781,32.6487922 30.331781,31.8252427 C30.331781,31.0016932 30.9994936,30.3339806 31.8230431,30.3339806 L73.5783829,30.3339806 C84.2681227,30.3339806 92.9647907,39.0306485 92.9647907,49.7203883 C92.9647907,60.4101282 84.2681227,69.1067961 73.5783829,69.1067961" opacity=".1"/>
        <path d="M71.5783829,67.1067961 L17.1495518,67.1067961 C9.91059262,67.1067961 4.02159845,61.0861981 4.02159845,53.6854369 C4.02159845,46.2846757 9.91059262,40.2640777 17.1495518,40.2640777 L70.8349887,40.2640777 C74.9463984,40.2640777 78.2912994,43.6089786 78.2912994,47.7203883 C78.2912994,51.8317981 74.9463984,55.176699 70.8349887,55.176699 L29.0796489,55.176699 C28.2560994,55.176699 27.5883868,54.5089864 27.5883868,53.6854369 C27.5883868,52.8618874 28.2560994,52.1941748 29.0796489,52.1941748 L70.8349887,52.1941748 C73.3019091,52.1941748 75.3087751,50.1873087 75.3087751,47.7203883 C75.3087751,45.253468 73.3019091,43.2466019 70.8349887,43.2466019 L17.1495518,43.2466019 C11.5550819,43.2466019 7.00412272,47.9295379 7.00412272,53.6854369 C7.00412272,59.4413359 11.5550819,64.1242718 17.1495518,64.1242718 L71.5783829,64.1242718 C80.6236334,64.1242718 87.9822664,56.7656388 87.9822664,47.7203883 C87.9822664,38.6751379 80.6236334,31.3165049 71.5783829,31.3165049 L29.8230431,31.3165049 C28.9994936,31.3165049 28.331781,30.6487922 28.331781,29.8252427 C28.331781,29.0016932 28.9994936,28.3339806 29.8230431,28.3339806 L71.5783829,28.3339806 C82.2681227,28.3339806 90.9647907,37.0306485 90.9647907,47.7203883 C90.9647907,58.4101282 82.2681227,67.1067961 71.5783829,67.1067961"/>
      </g>
    </g>
    <g transform="rotate(-170 269.983 311.939)">
      <path fill="#35313D" d="M14.3245,446.00015 C13.567,446.00015 12.9295,445.43765 12.8365,444.68615 L12.25,440.00015 L11.7301372,440.00015 C10.7367686,440.00015 9.89394963,439.271054 9.75096432,438.28803 L2,385.00015 C0.8954305,385.00015 1.63710399e-11,384.104719 1.63709046e-11,383.00015 L1.63709046e-11,8.00015 C1.63703635e-11,3.581872 3.581722,0.000149999993 8,0.000149999993 L33,0.000149999993 C37.418278,0.000149999993 41,3.581872 41,8.00015 L41,383.00015 C41,384.104719 40.1045695,385.00015 39,385.00015 L31.2490357,438.28803 C31.1060504,439.271054 30.2632314,440.00015 29.2698628,440.00015 L28.75,440.00015 L28.1635,444.68615 C28.0705,445.43765 27.433,446.00015 26.6755,446.00015 L24.25,446.00015 L22.909,457.42265 C22.819,458.59415 21.8425,459.50015 20.6665,459.50015 L20.3335,459.50015 C19.1575,459.50015 18.181,458.59415 18.091,457.42265 L16.75,446.00015 L14.3245,446.00015 Z" opacity=".1"/>
      <g transform="translate(5.424 6)">
        <path fill="#4B4A48" d="M12.826,434 L29.326,434 L28.7395,438.686 C28.6465,439.4375 28.009,440 27.2515,440 L14.9005,440 C14.143,440 13.5055,439.4375 13.4125,438.686 L12.826,434 Z"/>
        <path fill="#353432" d="M10.3269643,432.28788 L2.576,379 L2.576,379 L39.576,379 L31.8250357,432.28788 C31.6820504,433.270904 30.8392314,434 29.8458628,434 L12.3061372,434 C11.3127686,434 10.4699496,433.270904 10.3269643,432.28788 Z"/>
        <path fill="#1F1D1B" d="M0.576,377 L0.576,8 C0.576,3.581722 4.157722,8.11624501e-16 8.576,0 L33.576,0 C37.994278,-8.11624501e-16 41.576,3.581722 41.576,8 L41.576,189.5 L41.576,189.5 L41.576,377 C41.576,378.104569 40.6805695,379 39.576,379 L2.576,379 C1.4714305,379 0.576,378.104569 0.576,377 Z"/>
        <path fill="#1FA647" d="M17.326,440 L24.826,440 L23.485,451.4225 C23.395,452.594 22.4185,453.5 21.2425,453.5 L20.9095,453.5 C19.7335,453.5 18.757,452.594 18.667,451.4225 L17.326,440 Z"/>
        <path fill="#FFF" fill-rule="nonzero" d="M-0.068,324.49985 L-0.068,321.37985 L1.024,321.37985 C2.98,321.37985 4.24,320.51585 4.24,318.70385 L4.24,318.65585 C4.24,316.84385 3.052,315.91985 0.964,315.91985 L-2,315.91985 L-2,324.49985 L-0.068,324.49985 Z M0.916,320.02385 L-0.068,320.02385 L-0.068,317.39585 L0.916,317.39585 C1.84,317.39585 2.368,317.75585 2.368,318.66785 L2.368,318.71585 C2.368,319.56785 1.864,320.02385 0.916,320.02385 Z M7.456,324.49985 L7.456,320.95985 L10.9,320.95985 L10.9,324.49985 L12.844,324.49985 L12.844,315.91985 L10.9,315.91985 L10.9,319.42385 L7.456,319.42385 L7.456,315.91985 L5.512,315.91985 L5.512,324.49985 L7.456,324.49985 Z M18.64,324.63185 C21.316,324.63185 23.068,322.77185 23.068,320.21585 L23.068,320.11985 C23.068,317.53985 21.232,315.79985 18.652,315.79985 C16.108,315.79985 14.236,317.61185 14.236,320.16785 L14.236,320.26385 C14.236,322.77185 15.952,324.63185 18.64,324.63185 Z M18.676,323.08385 C17.272,323.08385 16.264,322.00385 16.264,320.25185 L16.264,320.15585 C16.264,318.42785 17.164,317.33585 18.652,317.33585 C20.152,317.33585 21.04,318.47585 21.04,320.14385 L21.04,320.23985 C21.04,321.96785 20.128,323.08385 18.676,323.08385 Z M27.472,324.63185 C29.5,324.63185 30.748,323.41985 30.748,321.89585 C30.748,320.11985 29.68,319.55585 27.604,319.29185 C26.284,319.09985 26.008,318.81185 26.008,318.19985 C26.008,317.62385 26.44,317.22785 27.292,317.22785 C28.144,317.22785 28.6,317.58785 28.72,318.36785 L30.508,318.36785 C30.352,316.66385 29.224,315.79985 27.292,315.79985 C25.396,315.79985 24.172,316.89185 24.172,318.35585 C24.172,320.01185 25.072,320.67185 27.268,320.95985 C28.528,321.15185 28.888,321.39185 28.888,322.07585 C28.888,322.74785 28.324,323.21585 27.472,323.21585 C26.2,323.21585 25.876,322.57985 25.792,321.81185 L23.932,321.81185 C24.04,323.52785 25.12,324.63185 27.472,324.63185 Z M34.084,324.49985 L34.084,321.37985 L35.176,321.37985 C37.132,321.37985 38.392,320.51585 38.392,318.70385 L38.392,318.65585 C38.392,316.84385 37.204,315.91985 35.116,315.91985 L32.152,315.91985 L32.152,324.49985 L34.084,324.49985 Z M35.068,320.02385 L34.084,320.02385 L34.084,317.39585 L35.068,317.39585 C35.992,317.39585 36.52,317.75585 36.52,318.66785 L36.52,318.71585 C36.52,319.56785 36.016,320.02385 35.068,320.02385 Z M41.608,324.49985 L41.608,320.95985 L45.052,320.95985 L45.052,324.49985 L46.996,324.49985 L46.996,315.91985 L45.052,315.91985 L45.052,319.42385 L41.608,319.42385 L41.608,315.91985 L39.664,315.91985 L39.664,324.49985 L41.608,324.49985 Z M52.792,324.63185 C55.468,324.63185 57.22,322.77185 57.22,320.21585 L57.22,320.11985 C57.22,317.53985 55.384,315.79985 52.804,315.79985 C50.26,315.79985 48.388,317.61185 48.388,320.16785 L48.388,320.26385 C48.388,322.77185 50.104,324.63185 52.792,324.63185 Z M52.828,323.08385 C51.424,323.08385 50.416,322.00385 50.416,320.25185 L50.416,320.15585 C50.416,318.42785 51.316,317.33585 52.804,317.33585 C54.304,317.33585 55.192,318.47585 55.192,320.14385 L55.192,320.23985 C55.192,321.96785 54.28,323.08385 52.828,323.08385 Z M60.556,324.49985 L60.556,321.18785 L61.396,321.18785 L63.448,324.49985 L65.512,324.49985 L63.244,320.85185 C64.252,320.55185 65.008,319.86785 65.008,318.57185 L65.008,318.52385 C65.008,316.74785 63.724,315.91985 61.696,315.91985 L58.624,315.91985 L58.624,324.49985 L60.556,324.49985 Z M61.648,319.86785 L60.556,319.86785 L60.556,317.40785 L61.648,317.40785 C62.584,317.40785 63.112,317.70785 63.112,318.58385 L63.112,318.63185 C63.112,319.45985 62.62,319.86785 61.648,319.86785 Z" opacity=".2" transform="rotate(90 31.756 320.216)"/>
      </g>
      <g fill="#FFF" opacity=".1" transform="matrix(-1 0 0 1 47 6)">
        <polygon points="17.5 440 16.75 434 12.25 434 13 440"/>
        <polygon points="10 434 2 379 11 379 17.5 434"/>
        <path d="M0 377L0 8C-5.41083001e-16 3.581722 3.581722 8.11624501e-16 8 0L9 0 9 0 9 379 2 379C.8954305 379 1.3527075e-16 378.104569 0 377zM16.75 440L18.091 451.4225C18.181 452.594 19.1575 453.5 20.3335 453.5L20.5 453.5 19 440 16.75 440z"/>
      </g>
    </g>
  </g>
</svg>
