<?xml version="1.0" encoding="UTF-8"?>
<svg width="16px" height="16px" viewBox="0 0 16 16" version="1.1" xmlns="http://www.w3.org/2000/svg" xmlns:xlink="http://www.w3.org/1999/xlink">
    <title>ph-horse</title>
    <g id="Page-1" stroke="none" stroke-width="1" fill="none" fill-rule="evenodd">
        <g id="REFACTOR---Testing-32-line-style-MEDIUM---REFACTOR" transform="translate(-236.000000, -964.000000)">
            <g id="ph-horse" transform="translate(236.000000, 964.000000)">
                <polygon id="Fill-1" points="0 16 16 16 16 0 0 0"></polygon>
                <path d="M8,1.5 C11.5891424,1.5 14.5,4.41085763 14.5,8 C14.5,11.5891424 11.5891424,14.5 8,14.5 C7.16247084,14.5 6.34942711,14.3408026 5.59574189,14.0407858 C5.59137772,14.0384425 5.58673882,14.0363032 5.58212272,14.0340874 C4.88280215,13.7550767 4.2352075,13.3537244 3.66683866,12.8458318 C3.46092937,12.6618318 3.44316831,12.345748 3.62716824,12.1398387 C3.81116817,11.9339294 4.12725204,11.9161683 4.33316134,12.1001682 C4.72452359,12.4498884 5.15989516,12.7398182 5.6268425,12.9633717 L7.26067563,10.6755089 C7.06883187,10.5880542 6.87058356,10.5124879 6.66632365,10.4483711 C5.54927371,10.0977313 4.33981723,10.1036887 3.2030794,10.3273302 C2.91299092,10.3844021 2.70384297,10.4404296 2.59740723,10.4752353 C2.42010469,10.5332152 2.22811096,10.4871844 2.0967212,10.3616805 L2.03642523,10.2924194 L0.594425234,8.29241941 C0.443400661,8.08295398 0.478777631,7.79866796 0.66227247,7.63114465 L0.737951287,7.57417084 L7,3.72 L7,2 C7,1.75454011 7.17687516,1.55039163 7.41012437,1.50805567 L7.5,1.5 L8,1.5 Z M8,2.5 L8,4 C8,4.14469196 7.93744615,4.28075144 7.83101978,4.37474697 L7.76204871,4.42582916 L1.72,8.143 L2.644,9.426 L2.85101296,9.37881919 L3.01004013,9.34613918 C4.296645,9.09301287 5.66601623,9.08626773 6.96581366,9.4942717 C7.37095389,9.62144446 7.75842567,9.78731978 8.1253137,9.99445062 L8,10 C9.38085763,10 10.5,8.88085763 10.5,7.5 C10.5,7.22385763 10.7238576,7 11,7 C11.2761424,7 11.5,7.22385763 11.5,7.5 C11.5,9.34415646 10.0740727,10.8549735 8.26451227,10.990157 L6.60014858,13.3202863 C7.05107479,13.438519 7.52066808,13.5 8,13.5 C11.0368576,13.5 13.5,11.0368576 13.5,8 C13.5,5.66901391 12.0488242,3.67603575 10.0009015,2.87549436 L10,3.5 C10,3.77614237 9.77614237,4 9.5,4 C9.25454011,4 9.05039163,3.82312484 9.00805567,3.58987563 L9,3.5 L9.00067388,2.59087045 C8.74651183,2.5441241 8.48624198,2.51485894 8.2211578,2.50436844 L8,2.5 Z M7.75,5.5 C8.164,5.5 8.5,5.836 8.5,6.25 C8.5,6.664 8.164,7 7.75,7 C7.336,7 7,6.664 7,6.25 C7,5.836 7.336,5.5 7.75,5.5 Z" id="Combined-Shape" fill="#000000"></path>
            </g>
        </g>
    </g>
</svg>