<svg width="1190" height="860" viewBox="0 0 1190 860" fill="none" xmlns="http://www.w3.org/2000/svg">
<rect opacity="0.2" x="4" y="4" width="1186" height="856" rx="40" fill="#3C402B"/>
<rect x="0.5" y="0.5" width="1187" height="857" rx="40.5" fill="white" stroke="#3C402B"/>
<circle cx="41" cy="429" r="7.5" stroke="#3C402B"/>
<rect x="82" y="45" width="1024" height="768" fill="#AB989B"/>
<rect opacity="0.1" x="778" y="725" width="48" height="48" rx="8" fill="#3C402B"/>
<path d="M812 740V744C812 744.265 811.895 744.52 811.707 744.707C811.52 744.895 811.265 745 811 745C810.735 745 810.48 744.895 810.293 744.707C810.105 744.52 810 744.265 810 744V741H803V757H806C806.265 757 806.52 757.105 806.707 757.293C806.895 757.48 807 757.735 807 758C807 758.265 806.895 758.52 806.707 758.707C806.52 758.895 806.265 759 806 759H798C797.735 759 797.48 758.895 797.293 758.707C797.105 758.52 797 758.265 797 758C797 757.735 797.105 757.48 797.293 757.293C797.48 757.105 797.735 757 798 757H801V741H794V744C794 744.265 793.895 744.52 793.707 744.707C793.52 744.895 793.265 745 793 745C792.735 745 792.48 744.895 792.293 744.707C792.105 744.52 792 744.265 792 744V740C792 739.735 792.105 739.48 792.293 739.293C792.48 739.105 792.735 739 793 739H811C811.265 739 811.52 739.105 811.707 739.293C811.895 739.48 812 739.735 812 740Z" fill="#3C402B"/>
<path d="M858 736C854.552 736 851.246 737.37 848.808 739.808C846.37 742.246 845 745.552 845 749C845 752.448 846.37 755.754 848.808 758.192C851.246 760.63 854.552 762 858 762C860.689 762 863.512 761.19 865.554 759.834C865.663 759.761 865.757 759.667 865.83 759.558C865.904 759.449 865.955 759.327 865.981 759.198C866.007 759.069 866.007 758.937 865.982 758.808C865.956 758.679 865.906 758.556 865.833 758.447C865.76 758.337 865.667 758.243 865.558 758.17C865.449 758.097 865.326 758.046 865.198 758.02C865.069 757.994 864.936 757.994 864.807 758.019C864.678 758.044 864.556 758.095 864.446 758.167C862.75 759.297 860.276 760 858 760C855.824 760 853.698 759.355 851.889 758.146C850.08 756.937 848.67 755.22 847.837 753.21C847.005 751.2 846.787 748.988 847.211 746.854C847.636 744.72 848.683 742.76 850.222 741.222C851.76 739.683 853.72 738.636 855.854 738.211C857.988 737.787 860.2 738.005 862.21 738.837C864.22 739.67 865.937 741.08 867.146 742.889C868.355 744.698 869 746.824 869 749C869 752.306 867.64 753 866.5 753C865.36 753 864 752.306 864 749V744C864 743.735 863.895 743.48 863.707 743.293C863.52 743.105 863.265 743 863 743C862.735 743 862.48 743.105 862.293 743.293C862.105 743.48 862 743.735 862 744V744.533C861.103 743.728 859.984 743.212 858.789 743.053C857.594 742.893 856.379 743.097 855.302 743.638C854.225 744.179 853.336 745.031 852.75 746.085C852.165 747.138 851.91 748.344 852.019 749.544C852.129 750.744 852.597 751.884 853.363 752.814C854.13 753.745 855.158 754.423 856.315 754.76C857.472 755.097 858.704 755.078 859.85 754.706C860.997 754.333 862.004 753.623 862.741 752.67C863.491 754.17 864.785 755 866.5 755C869.318 755 871 752.757 871 749C870.996 745.553 869.626 742.249 867.188 739.812C864.751 737.374 861.447 736.004 858 736ZM858 753C857.209 753 856.436 752.765 855.778 752.326C855.12 751.886 854.607 751.262 854.304 750.531C854.002 749.8 853.923 748.996 854.077 748.22C854.231 747.444 854.612 746.731 855.172 746.172C855.731 745.612 856.444 745.231 857.22 745.077C857.996 744.923 858.8 745.002 859.531 745.304C860.262 745.607 860.886 746.12 861.326 746.778C861.765 747.436 862 748.209 862 749C862 750.061 861.579 751.078 860.828 751.828C860.078 752.579 859.061 753 858 753Z" fill="#3C402B"/>
<path d="M914 736C911.429 736 908.915 736.762 906.778 738.191C904.64 739.619 902.974 741.65 901.99 744.025C901.006 746.401 900.748 749.014 901.25 751.536C901.751 754.058 902.99 756.374 904.808 758.192C906.626 760.01 908.942 761.249 911.464 761.75C913.986 762.252 916.599 761.994 918.975 761.01C921.35 760.026 923.381 758.36 924.809 756.222C926.238 754.085 927 751.571 927 749C926.996 745.553 925.626 742.249 923.188 739.812C920.751 737.374 917.447 736.004 914 736ZM914 760C911.824 760 909.698 759.355 907.889 758.146C906.08 756.937 904.67 755.22 903.837 753.21C903.005 751.2 902.787 748.988 903.211 746.854C903.636 744.72 904.683 742.76 906.222 741.222C907.76 739.683 909.72 738.636 911.854 738.211C913.988 737.787 916.2 738.005 918.21 738.837C920.22 739.67 921.937 741.08 923.146 742.889C924.355 744.698 925 746.824 925 749C924.997 751.916 923.837 754.712 921.775 756.775C919.712 758.837 916.916 759.997 914 760ZM908 746.5C908 746.203 908.088 745.913 908.253 745.667C908.418 745.42 908.652 745.228 908.926 745.114C909.2 745.001 909.502 744.971 909.793 745.029C910.084 745.087 910.351 745.23 910.561 745.439C910.77 745.649 910.913 745.916 910.971 746.207C911.029 746.498 910.999 746.8 910.886 747.074C910.772 747.348 910.58 747.582 910.333 747.747C910.087 747.912 909.797 748 909.5 748C909.102 748 908.721 747.842 908.439 747.561C908.158 747.279 908 746.898 908 746.5ZM920 746.5C920 746.797 919.912 747.087 919.747 747.333C919.582 747.58 919.348 747.772 919.074 747.886C918.8 747.999 918.498 748.029 918.207 747.971C917.916 747.913 917.649 747.77 917.439 747.561C917.23 747.351 917.087 747.084 917.029 746.793C916.971 746.502 917.001 746.2 917.114 745.926C917.228 745.652 917.42 745.418 917.667 745.253C917.913 745.088 918.203 745 918.5 745C918.898 745 919.279 745.158 919.561 745.439C919.842 745.721 920 746.102 920 746.5ZM919.866 752.5C918.58 754.724 916.441 756 914 756C911.559 756 909.421 754.725 908.135 752.5C908.063 752.386 908.014 752.259 907.992 752.126C907.97 751.993 907.976 751.857 908.008 751.726C908.04 751.595 908.098 751.471 908.179 751.364C908.26 751.256 908.362 751.165 908.478 751.098C908.595 751.03 908.724 750.987 908.858 750.971C908.992 750.955 909.128 750.966 909.258 751.003C909.387 751.041 909.508 751.104 909.612 751.189C909.716 751.275 909.802 751.38 909.865 751.5C910.799 753.114 912.266 754 914 754C915.734 754 917.201 753.112 918.134 751.5C918.266 751.27 918.485 751.103 918.741 751.034C918.997 750.965 919.27 751.001 919.5 751.134C919.73 751.266 919.897 751.485 919.966 751.741C920.035 751.997 919.999 752.27 919.866 752.5Z" fill="#3C402B"/>
<path d="M980.207 748.293C980.3 748.386 980.374 748.496 980.424 748.617C980.474 748.739 980.5 748.869 980.5 749C980.5 749.132 980.474 749.262 980.424 749.383C980.374 749.505 980.3 749.615 980.207 749.708L969.951 759.958C968.638 761.271 966.857 762.008 965 762.008C963.144 762.008 961.363 761.27 960.05 759.957C958.737 758.644 958 756.864 958 755.007C958 753.15 958.738 751.369 960.051 750.057L972.458 737.467C973.396 736.528 974.667 736.001 975.994 736C977.32 735.999 978.592 736.526 979.531 737.463C980.469 738.4 980.997 739.672 980.997 740.998C980.998 742.325 980.472 743.597 979.535 744.535L967.125 757.125C966.561 757.689 965.797 758.006 965 758.006C964.203 758.006 963.438 757.689 962.875 757.125C962.311 756.562 961.994 755.797 961.994 755C961.994 754.203 962.311 753.439 962.875 752.875L973.287 742.298C973.378 742.201 973.488 742.123 973.61 742.068C973.732 742.014 973.863 741.985 973.996 741.982C974.13 741.979 974.262 742.003 974.386 742.053C974.51 742.102 974.623 742.176 974.718 742.269C974.813 742.363 974.889 742.474 974.94 742.597C974.991 742.721 975.017 742.853 975.017 742.986C975.016 743.119 974.989 743.251 974.937 743.374C974.884 743.497 974.808 743.608 974.712 743.7L964.298 754.289C964.205 754.382 964.131 754.492 964.08 754.613C964.029 754.734 964.003 754.864 964.003 754.995C964.002 755.126 964.027 755.257 964.077 755.378C964.127 755.5 964.2 755.61 964.293 755.704C964.385 755.797 964.495 755.871 964.616 755.922C964.737 755.972 964.867 755.999 964.999 755.999C965.13 756 965.26 755.974 965.382 755.925C965.503 755.875 965.614 755.802 965.707 755.709L978.116 743.125C978.679 742.563 978.996 741.8 978.997 741.003C978.998 740.207 978.683 739.443 978.12 738.88C977.558 738.316 976.794 737.999 975.998 737.998C975.202 737.997 974.438 738.313 973.875 738.875L961.47 751.46C961.005 751.924 960.636 752.475 960.384 753.082C960.132 753.688 960.003 754.338 960.002 754.995C960.002 755.652 960.13 756.302 960.381 756.909C960.632 757.516 961 758.068 961.464 758.532C961.928 758.997 962.479 759.366 963.085 759.618C963.692 759.869 964.342 759.999 964.999 760C965.655 760 966.306 759.871 966.913 759.621C967.52 759.37 968.071 759.002 968.536 758.538L978.793 748.288C978.981 748.101 979.236 747.997 979.501 747.998C979.766 747.999 980.02 748.105 980.207 748.293Z" fill="#3C402B"/>
<path d="M1039 748.986C1039 749.342 1038.91 749.692 1038.73 750C1038.55 750.308 1038.29 750.562 1037.98 750.736L1016.99 762.737C1016.69 762.908 1016.35 762.999 1016 763C1015.68 762.999 1015.37 762.922 1015.08 762.774C1014.8 762.627 1014.55 762.414 1014.37 762.152C1014.19 761.891 1014.07 761.59 1014.02 761.273C1013.98 760.956 1014.01 760.634 1014.12 760.332L1017.54 750.338C1017.57 750.24 1017.63 750.154 1017.72 750.093C1017.8 750.032 1017.91 750 1018.01 750H1027C1027.14 750 1027.27 749.972 1027.4 749.918C1027.52 749.863 1027.64 749.784 1027.73 749.684C1027.83 749.584 1027.9 749.466 1027.94 749.337C1027.99 749.207 1028.01 749.07 1028 748.933C1027.98 748.676 1027.86 748.437 1027.67 748.264C1027.48 748.091 1027.23 747.997 1026.97 748H1018.02C1017.92 748 1017.81 747.967 1017.73 747.907C1017.64 747.846 1017.58 747.761 1017.55 747.662L1014.12 737.662C1013.98 737.279 1013.97 736.864 1014.08 736.473C1014.18 736.082 1014.41 735.733 1014.72 735.472C1015.03 735.211 1015.41 735.051 1015.82 735.013C1016.22 734.975 1016.63 735.06 1016.98 735.258L1037.98 747.245C1038.29 747.419 1038.55 747.672 1038.73 747.977C1038.91 748.283 1039 748.631 1039 748.986Z" fill="#3C402B"/>
<path d="M172.974 747.77C172.936 747.61 172.859 747.461 172.75 747.338C172.641 747.215 172.503 747.12 172.349 747.063L165.148 744.361L166.98 735.195C167.022 734.982 166.993 734.761 166.898 734.566C166.803 734.371 166.647 734.212 166.454 734.114C166.261 734.015 166.04 733.982 165.827 734.019C165.613 734.056 165.417 734.162 165.269 734.32L151.269 749.32C151.155 749.44 151.073 749.586 151.029 749.745C150.986 749.905 150.983 750.072 151.02 750.233C151.057 750.394 151.133 750.544 151.242 750.668C151.351 750.792 151.489 750.887 151.644 750.945L158.848 753.646L157.02 762.803C156.979 763.016 157.007 763.236 157.102 763.431C157.197 763.627 157.353 763.785 157.546 763.884C157.74 763.983 157.96 764.016 158.173 763.979C158.387 763.942 158.583 763.836 158.731 763.678L172.731 748.678C172.843 748.558 172.923 748.412 172.966 748.254C173.008 748.096 173.011 747.93 172.974 747.77ZM159.671 759.749L160.98 753.201C161.027 752.969 160.99 752.728 160.875 752.52C160.761 752.313 160.576 752.153 160.355 752.069L153.75 749.588L164.328 738.255L163.02 744.803C162.973 745.035 163.01 745.276 163.125 745.484C163.239 745.691 163.424 745.851 163.645 745.935L170.245 748.41L159.671 759.749Z" fill="#3C402B"/>
<path opacity="0.2" d="M202 729V769" stroke="#3C402B"/>
<path d="M247.31 747.462C248.1 746.702 248.645 745.723 248.874 744.651C249.103 743.579 249.007 742.463 248.598 741.446C248.188 740.429 247.484 739.557 246.576 738.943C245.667 738.329 244.596 738.001 243.5 738H235C234.735 738 234.48 738.105 234.293 738.293C234.105 738.48 234 738.735 234 739V758C234 758.265 234.105 758.52 234.293 758.707C234.48 758.895 234.735 759 235 759H245C246.387 759 247.731 758.52 248.803 757.64C249.876 756.761 250.611 755.538 250.883 754.178C251.156 752.818 250.948 751.406 250.297 750.182C249.645 748.957 248.59 747.996 247.31 747.462ZM236 740H243.5C244.428 740 245.318 740.369 245.975 741.025C246.631 741.682 247 742.572 247 743.5C247 744.428 246.631 745.318 245.975 745.975C245.318 746.631 244.428 747 243.5 747H236V740ZM245 757H236V749H245C246.061 749 247.078 749.421 247.828 750.172C248.579 750.922 249 751.939 249 753C249 754.061 248.579 755.078 247.828 755.828C247.078 756.579 246.061 757 245 757Z" fill="#3C402B"/>
<path d="M307 740C307 740.265 306.895 740.52 306.707 740.707C306.52 740.895 306.265 741 306 741H301.721L296.387 757H300C300.265 757 300.52 757.105 300.707 757.293C300.895 757.48 301 757.735 301 758C301 758.265 300.895 758.52 300.707 758.707C300.52 758.895 300.265 759 300 759H290C289.735 759 289.48 758.895 289.293 758.707C289.105 758.52 289 758.265 289 758C289 757.735 289.105 757.48 289.293 757.293C289.48 757.105 289.735 757 290 757H294.279L299.612 741H296C295.735 741 295.48 740.895 295.293 740.707C295.105 740.52 295 740.265 295 740C295 739.735 295.105 739.48 295.293 739.293C295.48 739.105 295.735 739 296 739H306C306.265 739 306.52 739.105 306.707 739.293C306.895 739.48 307 739.735 307 740Z" fill="#3C402B"/>
<path d="M366 749C366 749.265 365.895 749.52 365.707 749.707C365.52 749.895 365.265 750 365 750H359.991C361.14 750.889 362 752.15 362 754C362 755.668 361.125 757.212 359.531 758.349C358.041 759.414 356.076 760 354 760C351.924 760 349.959 759.414 348.469 758.349C346.875 757.212 346 755.668 346 754C346 753.735 346.105 753.48 346.293 753.293C346.48 753.105 346.735 753 347 753C347.265 753 347.52 753.105 347.707 753.293C347.895 753.48 348 753.735 348 754C348 756.169 350.75 758 354 758C357.25 758 360 756.169 360 754C360 752.144 358.682 751.053 355.154 750H343C342.735 750 342.48 749.895 342.293 749.707C342.105 749.52 342 749.265 342 749C342 748.735 342.105 748.48 342.293 748.293C342.48 748.105 342.735 748 343 748H365C365.265 748 365.52 748.105 365.707 748.293C365.895 748.48 366 748.735 366 749ZM347.541 746C347.699 746 347.855 745.963 347.996 745.891C348.137 745.819 348.259 745.715 348.352 745.587C348.444 745.459 348.506 745.311 348.53 745.155C348.555 744.999 348.542 744.839 348.493 744.689C348.421 744.466 348.386 744.234 348.389 744C348.389 741.72 350.801 740 354 740C356.355 740 358.27 740.927 359.125 742.481C359.26 742.699 359.473 742.856 359.721 742.921C359.969 742.986 360.232 742.953 360.457 742.83C360.681 742.707 360.849 742.502 360.927 742.258C361.005 742.014 360.986 741.749 360.875 741.519C359.666 739.315 357.096 738 354 738C349.661 738 346.389 740.579 346.389 744C346.387 744.445 346.455 744.888 346.591 745.311C346.657 745.512 346.784 745.686 346.955 745.81C347.125 745.933 347.331 746 347.541 746Z" fill="#3C402B"/>
<path d="M402.64 744.769L397.562 749L402.64 753.231C402.744 753.314 402.83 753.417 402.893 753.534C402.957 753.651 402.996 753.779 403.01 753.912C403.023 754.044 403.01 754.178 402.971 754.305C402.932 754.432 402.868 754.55 402.783 754.652C402.698 754.754 402.593 754.838 402.475 754.9C402.357 754.961 402.228 754.998 402.096 755.009C401.963 755.019 401.83 755.004 401.703 754.962C401.577 754.921 401.46 754.855 401.36 754.768L395.36 749.768C395.247 749.674 395.157 749.556 395.094 749.423C395.032 749.291 395 749.146 395 748.999C395 748.853 395.032 748.708 395.094 748.575C395.157 748.443 395.247 748.325 395.36 748.231L401.36 743.231C401.564 743.062 401.827 742.98 402.091 743.004C402.355 743.028 402.599 743.156 402.768 743.36C402.938 743.564 403.02 743.827 402.996 744.091C402.972 744.355 402.844 744.599 402.64 744.769ZM424.64 748.231L418.64 743.231C418.539 743.147 418.422 743.084 418.297 743.045C418.171 743.006 418.039 742.992 417.909 743.004C417.778 743.016 417.651 743.053 417.534 743.115C417.418 743.176 417.315 743.259 417.231 743.36C417.061 743.564 416.979 743.827 417.004 744.091C417.028 744.355 417.156 744.599 417.36 744.769L422.437 749L417.36 753.231C417.256 753.314 417.17 753.417 417.106 753.534C417.043 753.651 417.003 753.779 416.99 753.912C416.976 754.044 416.99 754.178 417.028 754.305C417.067 754.432 417.131 754.55 417.216 754.652C417.301 754.754 417.406 754.838 417.524 754.9C417.642 754.961 417.771 754.998 417.904 755.009C418.036 755.019 418.17 755.004 418.296 754.962C418.422 754.921 418.539 754.855 418.64 754.768L424.64 749.768C424.752 749.674 424.843 749.556 424.905 749.423C424.967 749.291 424.999 749.146 424.999 748.999C424.999 748.853 424.967 748.708 424.905 748.575C424.843 748.443 424.752 748.325 424.64 748.231ZM414.341 737.06C414.218 737.015 414.086 736.995 413.955 737.001C413.824 737.007 413.695 737.038 413.576 737.094C413.457 737.15 413.35 737.228 413.262 737.325C413.173 737.422 413.105 737.535 413.06 737.659L405.06 759.659C405.015 759.782 404.994 759.913 405 760.045C405.006 760.176 405.038 760.305 405.093 760.424C405.149 760.543 405.227 760.65 405.324 760.739C405.421 760.828 405.535 760.896 405.658 760.941C405.768 760.98 405.883 761 406 761C406.205 761 406.405 760.937 406.574 760.819C406.742 760.701 406.87 760.534 406.94 760.341L414.94 738.341C414.985 738.218 415.005 738.087 414.999 737.956C414.993 737.824 414.961 737.696 414.906 737.577C414.85 737.458 414.772 737.351 414.675 737.262C414.578 737.174 414.464 737.105 414.341 737.06Z" fill="#3C402B"/>
<path d="M467.192 756.294C467.38 756.481 467.485 756.735 467.485 757.001C467.485 757.266 467.38 757.52 467.192 757.707L465.95 758.957C464.636 760.271 462.854 761.008 460.996 761.007C459.139 761.007 457.357 760.268 456.044 758.954C454.731 757.64 453.994 755.859 453.994 754.001C453.995 752.143 454.733 750.362 456.047 749.049L459.062 746.034C460.324 744.771 462.021 744.038 463.806 743.985C465.591 743.932 467.329 744.563 468.663 745.749C468.762 745.836 468.842 745.942 468.9 746.06C468.957 746.179 468.991 746.307 468.999 746.439C469.007 746.57 468.989 746.702 468.946 746.826C468.903 746.95 468.836 747.065 468.748 747.164C468.661 747.262 468.555 747.343 468.437 747.4C468.319 747.458 468.19 747.491 468.059 747.499C467.927 747.507 467.796 747.489 467.671 747.446C467.547 747.403 467.432 747.336 467.333 747.249C466.38 746.402 465.139 745.952 463.865 745.99C462.59 746.027 461.379 746.551 460.477 747.452L457.462 750.464C456.524 751.402 455.997 752.674 455.997 754C455.997 755.326 456.524 756.598 457.462 757.536C458.4 758.474 459.672 759.001 460.998 759.001C462.325 759.001 463.597 758.474 464.535 757.536L465.777 756.294C465.87 756.201 465.98 756.127 466.102 756.077C466.223 756.026 466.353 756 466.485 756C466.616 756 466.746 756.026 466.868 756.077C466.989 756.127 467.099 756.201 467.192 756.294ZM475.952 739.044C474.638 737.732 472.857 736.996 471.001 736.996C469.145 736.996 467.364 737.732 466.05 739.044L464.807 740.287C464.62 740.475 464.514 740.73 464.515 740.995C464.515 741.26 464.62 741.514 464.808 741.702C464.995 741.889 465.25 741.995 465.515 741.994C465.78 741.994 466.035 741.889 466.222 741.701L467.465 740.459C468.403 739.521 469.675 738.994 471.001 738.994C472.327 738.994 473.599 739.521 474.537 740.459C475.475 741.397 476.002 742.669 476.002 743.995C476.002 745.321 475.475 746.593 474.537 747.531L471.522 750.549C470.62 751.45 469.408 751.973 468.134 752.01C466.859 752.047 465.619 751.596 464.666 750.749C464.567 750.661 464.453 750.594 464.328 750.551C464.204 750.508 464.072 750.49 463.941 750.498C463.676 750.514 463.427 750.635 463.251 750.834C463.164 750.932 463.097 751.047 463.054 751.171C463.011 751.296 462.993 751.427 463 751.559C463.016 751.824 463.137 752.072 463.336 752.249C464.67 753.435 466.408 754.067 468.193 754.014C469.978 753.962 471.675 753.229 472.937 751.966L475.952 748.951C477.264 747.637 478.001 745.856 478.001 743.999C478.001 742.142 477.264 740.36 475.952 739.046V739.044Z" fill="#3C402B"/>
<path d="M534 749.001C534 749.266 533.895 749.52 533.707 749.708C533.52 749.895 533.265 750.001 533 750.001H519C518.735 750.001 518.48 749.895 518.293 749.708C518.105 749.52 518 749.266 518 749.001C518 748.735 518.105 748.481 518.293 748.294C518.48 748.106 518.735 748.001 519 748.001H533C533.265 748.001 533.52 748.106 533.707 748.294C533.895 748.481 534 748.735 534 749.001ZM519 742.001H533C533.265 742.001 533.52 741.895 533.707 741.708C533.895 741.52 534 741.266 534 741.001C534 740.735 533.895 740.481 533.707 740.294C533.52 740.106 533.265 740.001 533 740.001H519C518.735 740.001 518.48 740.106 518.293 740.294C518.105 740.481 518 740.735 518 741.001C518 741.266 518.105 741.52 518.293 741.708C518.48 741.895 518.735 742.001 519 742.001ZM533 756.001H519C518.735 756.001 518.48 756.106 518.293 756.294C518.105 756.481 518 756.736 518 757.001C518 757.266 518.105 757.52 518.293 757.708C518.48 757.895 518.735 758.001 519 758.001H533C533.265 758.001 533.52 757.895 533.707 757.708C533.895 757.52 534 757.266 534 757.001C534 756.736 533.895 756.481 533.707 756.294C533.52 756.106 533.265 756.001 533 756.001ZM511.448 739.896L512 739.618V746.001C512 746.266 512.105 746.52 512.293 746.708C512.48 746.895 512.735 747.001 513 747.001C513.265 747.001 513.52 746.895 513.707 746.708C513.895 746.52 514 746.266 514 746.001V738.001C514 737.83 513.957 737.662 513.874 737.513C513.791 737.364 513.671 737.239 513.526 737.149C513.381 737.06 513.215 737.009 513.045 737.001C512.875 736.993 512.705 737.029 512.553 737.106L510.553 738.106C510.315 738.224 510.135 738.433 510.051 738.684C510.009 738.809 509.993 738.941 510.002 739.072C510.011 739.203 510.046 739.331 510.105 739.448C510.164 739.566 510.245 739.671 510.344 739.757C510.444 739.843 510.559 739.908 510.684 739.95C510.935 740.034 511.21 740.014 511.448 739.896ZM515.971 752.591C515.916 752.195 515.781 751.814 515.575 751.471C515.369 751.129 515.095 750.831 514.771 750.597C514.122 750.126 513.316 749.924 512.521 750.033C511.727 750.143 511.005 750.555 510.508 751.184C510.317 751.429 510.167 751.701 510.061 751.992C510.006 752.117 509.977 752.252 509.977 752.389C509.976 752.526 510.003 752.661 510.057 752.787C510.11 752.913 510.189 753.027 510.289 753.121C510.388 753.215 510.505 753.287 510.634 753.334C510.762 753.381 510.899 753.401 511.036 753.393C511.172 753.385 511.306 753.349 511.428 753.287C511.55 753.225 511.658 753.139 511.745 753.034C511.833 752.929 511.898 752.807 511.936 752.676C511.971 752.58 512.021 752.49 512.084 752.409C512.26 752.19 512.515 752.046 512.794 752.009C513.073 751.972 513.356 752.044 513.584 752.211C513.693 752.288 513.786 752.387 513.856 752.501C513.926 752.616 513.972 752.743 513.991 752.876C514.009 753.003 514.001 753.133 513.967 753.257C513.933 753.381 513.875 753.497 513.795 753.598C513.791 753.603 513.788 753.607 513.785 753.612L510.199 758.402C510.088 758.551 510.02 758.727 510.004 758.912C509.987 759.097 510.023 759.283 510.106 759.449C510.189 759.615 510.317 759.754 510.475 759.852C510.632 759.949 510.814 760.001 511 760.001H515C515.265 760.001 515.52 759.895 515.707 759.708C515.895 759.52 516 759.266 516 759.001C516 758.736 515.895 758.481 515.707 758.294C515.52 758.106 515.265 758.001 515 758.001H513L515.385 754.809C515.627 754.498 515.803 754.141 515.904 753.76C516.005 753.379 516.028 752.981 515.971 752.591Z" fill="#3C402B"/>
<path d="M572 741C572 740.735 572.105 740.48 572.293 740.293C572.48 740.105 572.735 740 573 740H589C589.265 740 589.52 740.105 589.707 740.293C589.895 740.48 590 740.735 590 741C590 741.265 589.895 741.52 589.707 741.707C589.52 741.895 589.265 742 589 742H573C572.735 742 572.48 741.895 572.293 741.707C572.105 741.52 572 741.265 572 741ZM589 748H573C572.735 748 572.48 748.105 572.293 748.293C572.105 748.48 572 748.735 572 749C572 749.265 572.105 749.52 572.293 749.707C572.48 749.895 572.735 750 573 750H589C589.265 750 589.52 749.895 589.707 749.707C589.895 749.52 590 749.265 590 749C590 748.735 589.895 748.48 589.707 748.293C589.52 748.105 589.265 748 589 748ZM589 756H573C572.735 756 572.48 756.105 572.293 756.293C572.105 756.48 572 756.735 572 757C572 757.265 572.105 757.52 572.293 757.707C572.48 757.895 572.735 758 573 758H589C589.265 758 589.52 757.895 589.707 757.707C589.895 757.52 590 757.265 590 757C590 756.735 589.895 756.48 589.707 756.293C589.52 756.105 589.265 756 589 756ZM567.5 739.5C567.203 739.5 566.913 739.588 566.667 739.753C566.42 739.918 566.228 740.152 566.114 740.426C566.001 740.7 565.971 741.002 566.029 741.293C566.087 741.584 566.23 741.851 566.439 742.061C566.649 742.27 566.916 742.413 567.207 742.471C567.498 742.529 567.8 742.499 568.074 742.386C568.348 742.272 568.582 742.08 568.747 741.833C568.912 741.587 569 741.297 569 741C569 740.602 568.842 740.221 568.561 739.939C568.279 739.658 567.898 739.5 567.5 739.5ZM567.5 747.5C567.203 747.5 566.913 747.588 566.667 747.753C566.42 747.918 566.228 748.152 566.114 748.426C566.001 748.7 565.971 749.002 566.029 749.293C566.087 749.584 566.23 749.851 566.439 750.061C566.649 750.27 566.916 750.413 567.207 750.471C567.498 750.529 567.8 750.499 568.074 750.386C568.348 750.272 568.582 750.08 568.747 749.833C568.912 749.587 569 749.297 569 749C569 748.602 568.842 748.221 568.561 747.939C568.279 747.658 567.898 747.5 567.5 747.5ZM567.5 755.5C567.203 755.5 566.913 755.588 566.667 755.753C566.42 755.918 566.228 756.152 566.114 756.426C566.001 756.7 565.971 757.002 566.029 757.293C566.087 757.584 566.23 757.851 566.439 758.061C566.649 758.27 566.916 758.413 567.207 758.471C567.498 758.529 567.8 758.499 568.074 758.386C568.348 758.272 568.582 758.08 568.747 757.833C568.912 757.587 569 757.297 569 757C569 756.602 568.842 756.221 568.561 755.939C568.279 755.658 567.898 755.5 567.5 755.5Z" fill="#3C402B"/>
<path opacity="0.2" d="M146 702H1042" stroke="#3C402B"/>
<g opacity="0.5">
<path d="M154.676 663.359C152.956 663.359 151.504 662.979 150.32 662.219C149.136 661.451 148.24 660.391 147.632 659.039C147.024 657.687 146.72 656.127 146.72 654.359C146.72 652.591 147.024 651.031 147.632 649.679C148.24 648.327 149.136 647.271 150.32 646.511C151.504 645.743 152.956 645.359 154.676 645.359C156.684 645.359 158.324 645.875 159.596 646.907C160.868 647.931 161.74 649.307 162.212 651.035L160.412 651.503C160.044 650.135 159.384 649.051 158.432 648.251C157.48 647.451 156.228 647.051 154.676 647.051C153.324 647.051 152.2 647.359 151.304 647.975C150.408 648.591 149.732 649.451 149.276 650.555C148.828 651.651 148.596 652.919 148.58 654.359C148.572 655.799 148.792 657.067 149.24 658.163C149.696 659.259 150.376 660.119 151.28 660.743C152.192 661.359 153.324 661.667 154.676 661.667C156.228 661.667 157.48 661.267 158.432 660.467C159.384 659.659 160.044 658.575 160.412 657.215L162.212 657.683C161.74 659.411 160.868 660.791 159.596 661.823C158.324 662.847 156.684 663.359 154.676 663.359Z" fill="#3C402B"/>
<path d="M170.272 663.359C168.984 663.359 167.884 663.067 166.972 662.483C166.06 661.899 165.36 661.091 164.872 660.059C164.384 659.027 164.14 657.843 164.14 656.507C164.14 655.147 164.388 653.955 164.884 652.931C165.38 651.907 166.084 651.111 166.996 650.543C167.916 649.967 169.008 649.679 170.272 649.679C171.568 649.679 172.672 649.971 173.584 650.555C174.504 651.131 175.204 651.935 175.684 652.967C176.172 653.991 176.416 655.171 176.416 656.507C176.416 657.867 176.172 659.063 175.684 660.095C175.196 661.119 174.492 661.919 173.572 662.495C172.652 663.071 171.552 663.359 170.272 663.359ZM170.272 661.667C171.712 661.667 172.784 661.191 173.488 660.239C174.192 659.279 174.544 658.035 174.544 656.507C174.544 654.939 174.188 653.691 173.476 652.763C172.772 651.835 171.704 651.371 170.272 651.371C169.304 651.371 168.504 651.591 167.872 652.031C167.248 652.463 166.78 653.067 166.468 653.843C166.164 654.611 166.012 655.499 166.012 656.507C166.012 658.067 166.372 659.319 167.092 660.263C167.812 661.199 168.872 661.667 170.272 661.667Z" fill="#3C402B"/>
<path d="M194.519 662.999L194.531 654.491C194.531 653.491 194.251 652.707 193.691 652.139C193.139 651.563 192.435 651.275 191.579 651.275C191.091 651.275 190.615 651.387 190.151 651.611C189.687 651.835 189.303 652.195 188.999 652.691C188.703 653.187 188.555 653.835 188.555 654.635L187.511 654.335C187.487 653.407 187.667 652.595 188.051 651.899C188.443 651.203 188.979 650.663 189.659 650.279C190.347 649.887 191.123 649.691 191.987 649.691C193.291 649.691 194.335 650.095 195.119 650.903C195.903 651.703 196.295 652.787 196.295 654.155L196.283 662.999H194.519ZM179.051 662.999V650.039H180.635V653.231H180.827V662.999H179.051ZM186.803 662.999L186.815 654.611C186.815 653.579 186.539 652.767 185.987 652.175C185.443 651.575 184.723 651.275 183.827 651.275C182.931 651.275 182.207 651.583 181.655 652.199C181.103 652.807 180.827 653.619 180.827 654.635L179.771 654.059C179.771 653.227 179.967 652.483 180.359 651.827C180.751 651.163 181.287 650.643 181.967 650.267C182.647 649.883 183.419 649.691 184.283 649.691C185.107 649.691 185.839 649.867 186.479 650.219C187.127 650.571 187.635 651.083 188.003 651.755C188.371 652.427 188.555 653.243 188.555 654.203L188.543 662.999H186.803Z" fill="#3C402B"/>
<path d="M205.227 663.359C204.035 663.359 203.027 663.059 202.203 662.459C201.379 661.851 200.755 661.031 200.331 659.999C199.907 658.959 199.695 657.795 199.695 656.507C199.695 655.195 199.907 654.027 200.331 653.003C200.763 651.971 201.395 651.159 202.227 650.567C203.059 649.975 204.083 649.679 205.299 649.679C206.483 649.679 207.499 649.979 208.347 650.579C209.195 651.179 209.843 651.995 210.291 653.027C210.747 654.059 210.975 655.219 210.975 656.507C210.975 657.803 210.747 658.967 210.291 659.999C209.835 661.031 209.179 661.851 208.323 662.459C207.467 663.059 206.435 663.359 205.227 663.359ZM199.395 668.759V650.039H200.979V659.795H201.171V668.759H199.395ZM205.047 661.715C205.951 661.715 206.703 661.487 207.303 661.031C207.903 660.575 208.351 659.955 208.647 659.171C208.951 658.379 209.103 657.491 209.103 656.507C209.103 655.531 208.955 654.651 208.659 653.867C208.363 653.083 207.911 652.463 207.303 652.007C206.703 651.551 205.939 651.323 205.011 651.323C204.107 651.323 203.355 651.543 202.755 651.983C202.163 652.423 201.719 653.035 201.423 653.819C201.127 654.595 200.979 655.491 200.979 656.507C200.979 657.507 201.127 658.403 201.423 659.195C201.719 659.979 202.167 660.595 202.767 661.043C203.367 661.491 204.127 661.715 205.047 661.715Z" fill="#3C402B"/>
<path d="M219.022 663.359C217.734 663.359 216.634 663.067 215.722 662.483C214.81 661.899 214.11 661.091 213.622 660.059C213.134 659.027 212.89 657.843 212.89 656.507C212.89 655.147 213.138 653.955 213.634 652.931C214.13 651.907 214.834 651.111 215.746 650.543C216.666 649.967 217.758 649.679 219.022 649.679C220.318 649.679 221.422 649.971 222.334 650.555C223.254 651.131 223.954 651.935 224.434 652.967C224.922 653.991 225.166 655.171 225.166 656.507C225.166 657.867 224.922 659.063 224.434 660.095C223.946 661.119 223.242 661.919 222.322 662.495C221.402 663.071 220.302 663.359 219.022 663.359ZM219.022 661.667C220.462 661.667 221.534 661.191 222.238 660.239C222.942 659.279 223.294 658.035 223.294 656.507C223.294 654.939 222.938 653.691 222.226 652.763C221.522 651.835 220.454 651.371 219.022 651.371C218.054 651.371 217.254 651.591 216.622 652.031C215.998 652.463 215.53 653.067 215.218 653.843C214.914 654.611 214.762 655.499 214.762 656.507C214.762 658.067 215.122 659.319 215.842 660.263C216.562 661.199 217.622 661.667 219.022 661.667Z" fill="#3C402B"/>
<path d="M232.532 663.347C231.012 663.347 229.76 663.019 228.776 662.363C227.8 661.707 227.2 660.795 226.976 659.627L228.776 659.327C228.968 660.063 229.404 660.651 230.084 661.091C230.772 661.523 231.62 661.739 232.628 661.739C233.612 661.739 234.388 661.535 234.956 661.127C235.524 660.711 235.808 660.147 235.808 659.435C235.808 659.035 235.716 658.711 235.532 658.463C235.356 658.207 234.992 657.971 234.44 657.755C233.888 657.539 233.064 657.283 231.968 656.987C230.792 656.667 229.872 656.347 229.208 656.027C228.544 655.707 228.072 655.339 227.792 654.923C227.512 654.499 227.372 653.983 227.372 653.375C227.372 652.639 227.58 651.995 227.996 651.443C228.412 650.883 228.988 650.451 229.724 650.147C230.46 649.835 231.316 649.679 232.292 649.679C233.268 649.679 234.14 649.839 234.908 650.159C235.684 650.471 236.308 650.911 236.78 651.479C237.252 652.047 237.532 652.707 237.62 653.459L235.82 653.783C235.7 653.023 235.32 652.423 234.68 651.983C234.048 651.535 233.244 651.303 232.268 651.287C231.348 651.263 230.6 651.439 230.024 651.815C229.448 652.183 229.16 652.675 229.16 653.291C229.16 653.635 229.264 653.931 229.472 654.179C229.68 654.419 230.056 654.647 230.6 654.863C231.152 655.079 231.936 655.315 232.952 655.571C234.144 655.875 235.08 656.195 235.76 656.531C236.44 656.867 236.924 657.263 237.212 657.719C237.5 658.175 237.644 658.739 237.644 659.411C237.644 660.635 237.188 661.599 236.276 662.303C235.372 662.999 234.124 663.347 232.532 663.347Z" fill="#3C402B"/>
<path d="M245.789 663.359C244.525 663.359 243.429 663.079 242.501 662.519C241.581 661.959 240.865 661.171 240.353 660.155C239.841 659.139 239.585 657.947 239.585 656.579C239.585 655.163 239.837 653.939 240.341 652.907C240.845 651.875 241.553 651.079 242.465 650.519C243.385 649.959 244.469 649.679 245.717 649.679C246.997 649.679 248.089 649.975 248.993 650.567C249.897 651.151 250.581 651.991 251.045 653.087C251.509 654.183 251.721 655.491 251.681 657.011H249.881V656.387C249.849 654.707 249.485 653.439 248.789 652.583C248.101 651.727 247.093 651.299 245.765 651.299C244.373 651.299 243.305 651.751 242.561 652.655C241.825 653.559 241.457 654.847 241.457 656.519C241.457 658.151 241.825 659.419 242.561 660.323C243.305 661.219 244.357 661.667 245.717 661.667C246.645 661.667 247.453 661.455 248.141 661.031C248.837 660.599 249.385 659.979 249.785 659.171L251.429 659.807C250.917 660.935 250.161 661.811 249.161 662.435C248.169 663.051 247.045 663.359 245.789 663.359ZM240.833 657.011V655.535H250.733V657.011H240.833Z" fill="#3C402B"/>
<path d="M260.997 668.759L263.505 661.955L263.541 663.971L257.865 650.039H259.737L264.393 661.691H263.625L267.921 650.039H269.721L262.761 668.759H260.997Z" fill="#3C402B"/>
<path d="M276.748 663.359C275.46 663.359 274.36 663.067 273.448 662.483C272.536 661.899 271.836 661.091 271.348 660.059C270.86 659.027 270.616 657.843 270.616 656.507C270.616 655.147 270.864 653.955 271.36 652.931C271.856 651.907 272.56 651.111 273.472 650.543C274.392 649.967 275.484 649.679 276.748 649.679C278.044 649.679 279.148 649.971 280.06 650.555C280.98 651.131 281.68 651.935 282.16 652.967C282.648 653.991 282.892 655.171 282.892 656.507C282.892 657.867 282.648 659.063 282.16 660.095C281.672 661.119 280.968 661.919 280.048 662.495C279.128 663.071 278.028 663.359 276.748 663.359ZM276.748 661.667C278.188 661.667 279.26 661.191 279.964 660.239C280.668 659.279 281.02 658.035 281.02 656.507C281.02 654.939 280.664 653.691 279.952 652.763C279.248 651.835 278.18 651.371 276.748 651.371C275.78 651.371 274.98 651.591 274.348 652.031C273.724 652.463 273.256 653.067 272.944 653.843C272.64 654.611 272.488 655.499 272.488 656.507C272.488 658.067 272.848 659.319 273.568 660.263C274.288 661.199 275.348 661.667 276.748 661.667Z" fill="#3C402B"/>
<path d="M290.496 663.323C289.72 663.323 289.04 663.203 288.456 662.963C287.88 662.723 287.388 662.399 286.98 661.991C286.58 661.583 286.256 661.119 286.008 660.599C285.76 660.071 285.58 659.515 285.468 658.931C285.356 658.339 285.3 657.751 285.3 657.167V650.039H287.076V656.651C287.076 657.363 287.144 658.023 287.28 658.631C287.416 659.239 287.632 659.771 287.928 660.227C288.232 660.675 288.62 661.023 289.092 661.271C289.572 661.519 290.152 661.643 290.832 661.643C291.456 661.643 292.004 661.535 292.476 661.319C292.956 661.103 293.356 660.795 293.676 660.395C294.004 659.987 294.252 659.495 294.42 658.919C294.588 658.335 294.672 657.679 294.672 656.951L295.92 657.227C295.92 658.555 295.688 659.671 295.224 660.575C294.76 661.479 294.12 662.163 293.304 662.627C292.488 663.091 291.552 663.323 290.496 663.323ZM294.852 662.999V659.807H294.672V650.039H296.436V662.999H294.852Z" fill="#3C402B"/>
<path d="M299.79 662.999V650.039H301.374V653.159L301.062 652.751C301.206 652.367 301.394 652.015 301.626 651.695C301.858 651.367 302.11 651.099 302.382 650.891C302.718 650.595 303.11 650.371 303.558 650.219C304.006 650.059 304.458 649.967 304.914 649.943C305.37 649.911 305.786 649.943 306.162 650.039V651.695C305.69 651.575 305.174 651.547 304.614 651.611C304.054 651.675 303.538 651.899 303.066 652.283C302.634 652.619 302.31 653.023 302.094 653.495C301.878 653.959 301.734 654.455 301.662 654.983C301.59 655.503 301.554 656.019 301.554 656.531V662.999H299.79Z" fill="#3C402B"/>
<path d="M328.699 662.999L328.711 654.491C328.711 653.491 328.431 652.707 327.871 652.139C327.319 651.563 326.615 651.275 325.759 651.275C325.271 651.275 324.795 651.387 324.331 651.611C323.867 651.835 323.483 652.195 323.179 652.691C322.883 653.187 322.735 653.835 322.735 654.635L321.691 654.335C321.667 653.407 321.847 652.595 322.231 651.899C322.623 651.203 323.159 650.663 323.839 650.279C324.527 649.887 325.303 649.691 326.167 649.691C327.471 649.691 328.515 650.095 329.299 650.903C330.083 651.703 330.475 652.787 330.475 654.155L330.463 662.999H328.699ZM313.231 662.999V650.039H314.815V653.231H315.007V662.999H313.231ZM320.983 662.999L320.995 654.611C320.995 653.579 320.719 652.767 320.167 652.175C319.623 651.575 318.903 651.275 318.007 651.275C317.111 651.275 316.387 651.583 315.835 652.199C315.283 652.807 315.007 653.619 315.007 654.635L313.951 654.059C313.951 653.227 314.147 652.483 314.539 651.827C314.931 651.163 315.467 650.643 316.147 650.267C316.827 649.883 317.599 649.691 318.463 649.691C319.287 649.691 320.019 649.867 320.659 650.219C321.307 650.571 321.815 651.083 322.183 651.755C322.551 652.427 322.735 653.243 322.735 654.203L322.723 662.999H320.983Z" fill="#3C402B"/>
<path d="M338.977 663.359C337.713 663.359 336.617 663.079 335.689 662.519C334.769 661.959 334.053 661.171 333.541 660.155C333.029 659.139 332.773 657.947 332.773 656.579C332.773 655.163 333.025 653.939 333.529 652.907C334.033 651.875 334.741 651.079 335.653 650.519C336.573 649.959 337.657 649.679 338.905 649.679C340.185 649.679 341.277 649.975 342.181 650.567C343.085 651.151 343.769 651.991 344.233 653.087C344.697 654.183 344.909 655.491 344.869 657.011H343.069V656.387C343.037 654.707 342.673 653.439 341.977 652.583C341.289 651.727 340.281 651.299 338.953 651.299C337.561 651.299 336.493 651.751 335.749 652.655C335.013 653.559 334.645 654.847 334.645 656.519C334.645 658.151 335.013 659.419 335.749 660.323C336.493 661.219 337.545 661.667 338.905 661.667C339.833 661.667 340.641 661.455 341.329 661.031C342.025 660.599 342.573 659.979 342.973 659.171L344.617 659.807C344.105 660.935 343.349 661.811 342.349 662.435C341.357 663.051 340.233 663.359 338.977 663.359ZM334.021 657.011V655.535H343.921V657.011H334.021Z" fill="#3C402B"/>
<path d="M352.368 663.347C350.848 663.347 349.596 663.019 348.612 662.363C347.636 661.707 347.036 660.795 346.812 659.627L348.612 659.327C348.804 660.063 349.24 660.651 349.92 661.091C350.608 661.523 351.456 661.739 352.464 661.739C353.448 661.739 354.224 661.535 354.792 661.127C355.36 660.711 355.644 660.147 355.644 659.435C355.644 659.035 355.552 658.711 355.368 658.463C355.192 658.207 354.828 657.971 354.276 657.755C353.724 657.539 352.9 657.283 351.804 656.987C350.628 656.667 349.708 656.347 349.044 656.027C348.38 655.707 347.908 655.339 347.628 654.923C347.348 654.499 347.208 653.983 347.208 653.375C347.208 652.639 347.416 651.995 347.832 651.443C348.248 650.883 348.824 650.451 349.56 650.147C350.296 649.835 351.152 649.679 352.128 649.679C353.104 649.679 353.976 649.839 354.744 650.159C355.52 650.471 356.144 650.911 356.616 651.479C357.088 652.047 357.368 652.707 357.456 653.459L355.656 653.783C355.536 653.023 355.156 652.423 354.516 651.983C353.884 651.535 353.08 651.303 352.104 651.287C351.184 651.263 350.436 651.439 349.86 651.815C349.284 652.183 348.996 652.675 348.996 653.291C348.996 653.635 349.1 653.931 349.308 654.179C349.516 654.419 349.892 654.647 350.436 654.863C350.988 655.079 351.772 655.315 352.788 655.571C353.98 655.875 354.916 656.195 355.596 656.531C356.276 656.867 356.76 657.263 357.048 657.719C357.336 658.175 357.48 658.739 357.48 659.411C357.48 660.635 357.024 661.599 356.112 662.303C355.208 662.999 353.96 663.347 352.368 663.347Z" fill="#3C402B"/>
<path d="M364.977 663.347C363.457 663.347 362.205 663.019 361.221 662.363C360.245 661.707 359.645 660.795 359.421 659.627L361.221 659.327C361.413 660.063 361.849 660.651 362.529 661.091C363.217 661.523 364.065 661.739 365.073 661.739C366.057 661.739 366.833 661.535 367.401 661.127C367.969 660.711 368.253 660.147 368.253 659.435C368.253 659.035 368.161 658.711 367.977 658.463C367.801 658.207 367.437 657.971 366.885 657.755C366.333 657.539 365.509 657.283 364.413 656.987C363.237 656.667 362.317 656.347 361.653 656.027C360.989 655.707 360.517 655.339 360.237 654.923C359.957 654.499 359.817 653.983 359.817 653.375C359.817 652.639 360.025 651.995 360.441 651.443C360.857 650.883 361.433 650.451 362.169 650.147C362.905 649.835 363.761 649.679 364.737 649.679C365.713 649.679 366.585 649.839 367.353 650.159C368.129 650.471 368.753 650.911 369.225 651.479C369.697 652.047 369.977 652.707 370.065 653.459L368.265 653.783C368.145 653.023 367.765 652.423 367.125 651.983C366.493 651.535 365.689 651.303 364.713 651.287C363.793 651.263 363.045 651.439 362.469 651.815C361.893 652.183 361.605 652.675 361.605 653.291C361.605 653.635 361.709 653.931 361.917 654.179C362.125 654.419 362.501 654.647 363.045 654.863C363.597 655.079 364.381 655.315 365.397 655.571C366.589 655.875 367.525 656.195 368.205 656.531C368.885 656.867 369.369 657.263 369.657 657.719C369.945 658.175 370.089 658.739 370.089 659.411C370.089 660.635 369.633 661.599 368.721 662.303C367.817 662.999 366.569 663.347 364.977 663.347Z" fill="#3C402B"/>
<path d="M376.459 663.359C375.483 663.359 374.663 663.183 373.999 662.831C373.343 662.479 372.851 662.011 372.523 661.427C372.195 660.843 372.031 660.207 372.031 659.519C372.031 658.815 372.171 658.215 372.451 657.719C372.739 657.215 373.127 656.803 373.615 656.483C374.111 656.163 374.683 655.919 375.331 655.751C375.987 655.591 376.711 655.451 377.503 655.331C378.303 655.203 379.083 655.095 379.843 655.007C380.611 654.911 381.283 654.819 381.859 654.731L381.235 655.115C381.259 653.835 381.011 652.887 380.491 652.271C379.971 651.655 379.067 651.347 377.779 651.347C376.891 651.347 376.139 651.547 375.523 651.947C374.915 652.347 374.487 652.979 374.239 653.843L372.523 653.339C372.819 652.179 373.415 651.279 374.311 650.639C375.207 649.999 376.371 649.679 377.803 649.679C378.987 649.679 379.991 649.903 380.815 650.351C381.647 650.791 382.235 651.431 382.579 652.271C382.739 652.647 382.843 653.067 382.891 653.531C382.939 653.995 382.963 654.467 382.963 654.947V662.999H381.391V659.747L381.847 659.939C381.407 661.051 380.723 661.899 379.795 662.483C378.867 663.067 377.755 663.359 376.459 663.359ZM376.663 661.835C377.487 661.835 378.207 661.687 378.823 661.391C379.439 661.095 379.935 660.691 380.311 660.179C380.687 659.659 380.931 659.075 381.043 658.427C381.139 658.011 381.191 657.555 381.199 657.059C381.207 656.555 381.211 656.179 381.211 655.931L381.883 656.279C381.283 656.359 380.631 656.439 379.927 656.519C379.231 656.599 378.543 656.691 377.863 656.795C377.191 656.899 376.583 657.023 376.039 657.167C375.671 657.271 375.315 657.419 374.971 657.611C374.627 657.795 374.343 658.043 374.119 658.355C373.903 658.667 373.795 659.055 373.795 659.519C373.795 659.895 373.887 660.259 374.071 660.611C374.263 660.963 374.567 661.255 374.983 661.487C375.407 661.719 375.967 661.835 376.663 661.835Z" fill="#3C402B"/>
<path d="M391.234 669.119C390.57 669.119 389.914 669.019 389.266 668.819C388.626 668.627 388.034 668.319 387.49 667.895C386.946 667.479 386.49 666.935 386.122 666.263L387.718 665.375C388.078 666.095 388.582 666.611 389.23 666.923C389.886 667.243 390.554 667.403 391.234 667.403C392.17 667.403 392.926 667.227 393.502 666.875C394.086 666.531 394.51 666.019 394.774 665.339C395.038 664.659 395.166 663.811 395.158 662.795V659.339H395.362V650.039H396.934V662.819C396.934 663.187 396.922 663.539 396.898 663.875C396.882 664.219 396.846 664.555 396.79 664.883C396.638 665.851 396.322 666.647 395.842 667.271C395.37 667.895 394.746 668.359 393.97 668.663C393.202 668.967 392.29 669.119 391.234 669.119ZM391.114 663.359C389.906 663.359 388.874 663.059 388.018 662.459C387.162 661.851 386.506 661.031 386.05 659.999C385.594 658.967 385.366 657.803 385.366 656.507C385.366 655.219 385.59 654.059 386.038 653.027C386.494 651.995 387.146 651.179 387.994 650.579C388.842 649.979 389.858 649.679 391.042 649.679C392.258 649.679 393.282 649.975 394.114 650.567C394.946 651.159 395.574 651.971 395.998 653.003C396.43 654.027 396.646 655.195 396.646 656.507C396.646 657.795 396.434 658.959 396.01 659.999C395.586 661.031 394.962 661.851 394.138 662.459C393.314 663.059 392.306 663.359 391.114 663.359ZM391.294 661.715C392.214 661.715 392.974 661.491 393.574 661.043C394.174 660.595 394.622 659.979 394.918 659.195C395.214 658.403 395.362 657.507 395.362 656.507C395.362 655.491 395.214 654.595 394.918 653.819C394.622 653.035 394.174 652.423 393.574 651.983C392.982 651.543 392.234 651.323 391.33 651.323C390.402 651.323 389.634 651.551 389.026 652.007C388.418 652.463 387.966 653.083 387.67 653.867C387.382 654.651 387.238 655.531 387.238 656.507C387.238 657.491 387.386 658.379 387.682 659.171C387.986 659.955 388.438 660.575 389.038 661.031C389.638 661.487 390.39 661.715 391.294 661.715Z" fill="#3C402B"/>
<path d="M405.774 663.359C404.51 663.359 403.414 663.079 402.486 662.519C401.566 661.959 400.85 661.171 400.338 660.155C399.826 659.139 399.57 657.947 399.57 656.579C399.57 655.163 399.822 653.939 400.326 652.907C400.83 651.875 401.538 651.079 402.45 650.519C403.37 649.959 404.454 649.679 405.702 649.679C406.982 649.679 408.074 649.975 408.978 650.567C409.882 651.151 410.566 651.991 411.03 653.087C411.494 654.183 411.706 655.491 411.666 657.011H409.866V656.387C409.834 654.707 409.47 653.439 408.774 652.583C408.086 651.727 407.078 651.299 405.75 651.299C404.358 651.299 403.29 651.751 402.546 652.655C401.81 653.559 401.442 654.847 401.442 656.519C401.442 658.151 401.81 659.419 402.546 660.323C403.29 661.219 404.342 661.667 405.702 661.667C406.63 661.667 407.438 661.455 408.126 661.031C408.822 660.599 409.37 659.979 409.77 659.171L411.414 659.807C410.902 660.935 410.146 661.811 409.146 662.435C408.154 663.051 407.03 663.359 405.774 663.359ZM400.818 657.011V655.535H410.718V657.011H400.818Z" fill="#3C402B"/>
</g>
<path d="M146 638V670" stroke="#3C402B" stroke-width="2"/>
<rect opacity="0.2" x="106" y="437" width="558" height="136" rx="16" fill="white"/>
<rect opacity="0.2" x="106" y="173" width="612" height="80" rx="16" fill="white"/>
<path opacity="0.2" d="M515 45H1073V133C1073 141.837 1065.84 149 1057 149H531C522.163 149 515 141.837 515 133V45Z" fill="white"/>
<rect opacity="0.2" x="428" y="277" width="654" height="136" rx="16" fill="white"/>
</svg>
