<svg width="1190" height="860" viewBox="0 0 1190 860" fill="none"
  xmlns="http://www.w3.org/2000/svg">
  <g filter="url(#filter0_d_133_3540)">
    <g filter="url(#filter1_d_133_3540)">
      <rect x="1" y="1" width="1186" height="856" rx="40" fill="white"/>
      <rect x="0.5" y="0.5" width="1187" height="857" rx="40.5" stroke="#3C402B"/>
    </g>
    <circle cx="41" cy="429" r="7.5" stroke="#3C402B"/>
    <rect x="82" y="45" width="1024" height="768" fill="#AB989B"/>
    <rect opacity="0.1" x="778" y="725" width="48" height="48" rx="8" fill="#3C402B"/>
    <path d="M812 740V744C812 744.265 811.895 744.52 811.707 744.707C811.52 744.895 811.265 745 811 745C810.735 745 810.48 744.895 810.293 744.707C810.105 744.52 810 744.265 810 744V741H803V757H806C806.265 757 806.52 757.105 806.707 757.293C806.895 757.48 807 757.735 807 758C807 758.265 806.895 758.52 806.707 758.707C806.52 758.895 806.265 759 806 759H798C797.735 759 797.48 758.895 797.293 758.707C797.105 758.52 797 758.265 797 758C797 757.735 797.105 757.48 797.293 757.293C797.48 757.105 797.735 757 798 757H801V741H794V744C794 744.265 793.895 744.52 793.707 744.707C793.52 744.895 793.265 745 793 745C792.735 745 792.48 744.895 792.293 744.707C792.105 744.52 792 744.265 792 744V740C792 739.735 792.105 739.48 792.293 739.293C792.48 739.105 792.735 739 793 739H811C811.265 739 811.52 739.105 811.707 739.293C811.895 739.48 812 739.735 812 740Z" fill="#3C402B"/>
    <path d="M858 736C854.552 736 851.246 737.37 848.808 739.808C846.37 742.246 845 745.552 845 749C845 752.448 846.37 755.754 848.808 758.192C851.246 760.63 854.552 762 858 762C860.689 762 863.512 761.19 865.554 759.834C865.663 759.761 865.757 759.667 865.83 759.558C865.904 759.449 865.955 759.327 865.981 759.198C866.007 759.069 866.007 758.937 865.982 758.808C865.956 758.679 865.906 758.556 865.833 758.447C865.76 758.337 865.667 758.243 865.558 758.17C865.449 758.097 865.326 758.046 865.198 758.02C865.069 757.994 864.936 757.994 864.807 758.019C864.678 758.044 864.556 758.095 864.446 758.167C862.75 759.297 860.276 760 858 760C855.824 760 853.698 759.355 851.889 758.146C850.08 756.937 848.67 755.22 847.837 753.21C847.005 751.2 846.787 748.988 847.211 746.854C847.636 744.72 848.683 742.76 850.222 741.222C851.76 739.683 853.72 738.636 855.854 738.211C857.988 737.787 860.2 738.005 862.21 738.837C864.22 739.67 865.937 741.08 867.146 742.889C868.355 744.698 869 746.824 869 749C869 752.306 867.64 753 866.5 753C865.36 753 864 752.306 864 749V744C864 743.735 863.895 743.48 863.707 743.293C863.52 743.105 863.265 743 863 743C862.735 743 862.48 743.105 862.293 743.293C862.105 743.48 862 743.735 862 744V744.533C861.103 743.728 859.984 743.212 858.789 743.053C857.594 742.893 856.379 743.097 855.302 743.638C854.225 744.179 853.336 745.031 852.75 746.085C852.165 747.138 851.91 748.344 852.019 749.544C852.129 750.744 852.597 751.884 853.363 752.814C854.13 753.745 855.158 754.423 856.315 754.76C857.472 755.097 858.704 755.078 859.85 754.706C860.997 754.333 862.004 753.623 862.741 752.67C863.491 754.17 864.785 755 866.5 755C869.318 755 871 752.757 871 749C870.996 745.553 869.626 742.249 867.188 739.812C864.751 737.374 861.447 736.004 858 736ZM858 753C857.209 753 856.436 752.765 855.778 752.326C855.12 751.886 854.607 751.262 854.304 750.531C854.002 749.8 853.923 748.996 854.077 748.22C854.231 747.444 854.612 746.731 855.172 746.172C855.731 745.612 856.444 745.231 857.22 745.077C857.996 744.923 858.8 745.002 859.531 745.304C860.262 745.607 860.886 746.12 861.326 746.778C861.765 747.436 862 748.209 862 749C862 750.061 861.579 751.078 860.828 751.828C860.078 752.579 859.061 753 858 753Z" fill="#3C402B"/>
    <path d="M914 736C911.429 736 908.915 736.762 906.778 738.191C904.64 739.619 902.974 741.65 901.99 744.025C901.006 746.401 900.748 749.014 901.25 751.536C901.751 754.058 902.99 756.374 904.808 758.192C906.626 760.01 908.942 761.249 911.464 761.75C913.986 762.252 916.599 761.994 918.975 761.01C921.35 760.026 923.381 758.36 924.809 756.222C926.238 754.085 927 751.571 927 749C926.996 745.553 925.626 742.249 923.188 739.812C920.751 737.374 917.447 736.004 914 736ZM914 760C911.824 760 909.698 759.355 907.889 758.146C906.08 756.937 904.67 755.22 903.837 753.21C903.005 751.2 902.787 748.988 903.211 746.854C903.636 744.72 904.683 742.76 906.222 741.222C907.76 739.683 909.72 738.636 911.854 738.211C913.988 737.787 916.2 738.005 918.21 738.837C920.22 739.67 921.937 741.08 923.146 742.889C924.355 744.698 925 746.824 925 749C924.997 751.916 923.837 754.712 921.775 756.775C919.712 758.837 916.916 759.997 914 760ZM908 746.5C908 746.203 908.088 745.913 908.253 745.667C908.418 745.42 908.652 745.228 908.926 745.114C909.2 745.001 909.502 744.971 909.793 745.029C910.084 745.087 910.351 745.23 910.561 745.439C910.77 745.649 910.913 745.916 910.971 746.207C911.029 746.498 910.999 746.8 910.886 747.074C910.772 747.348 910.58 747.582 910.333 747.747C910.087 747.912 909.797 748 909.5 748C909.102 748 908.721 747.842 908.439 747.561C908.158 747.279 908 746.898 908 746.5ZM920 746.5C920 746.797 919.912 747.087 919.747 747.333C919.582 747.58 919.348 747.772 919.074 747.886C918.8 747.999 918.498 748.029 918.207 747.971C917.916 747.913 917.649 747.77 917.439 747.561C917.23 747.351 917.087 747.084 917.029 746.793C916.971 746.502 917.001 746.2 917.114 745.926C917.228 745.652 917.42 745.418 917.667 745.253C917.913 745.088 918.203 745 918.5 745C918.898 745 919.279 745.158 919.561 745.439C919.842 745.721 920 746.102 920 746.5ZM919.866 752.5C918.58 754.724 916.441 756 914 756C911.559 756 909.421 754.725 908.135 752.5C908.063 752.386 908.014 752.259 907.992 752.126C907.97 751.993 907.976 751.857 908.008 751.726C908.04 751.595 908.098 751.471 908.179 751.364C908.26 751.256 908.362 751.165 908.478 751.098C908.595 751.03 908.724 750.987 908.858 750.971C908.992 750.955 909.128 750.966 909.258 751.003C909.387 751.041 909.508 751.104 909.612 751.189C909.716 751.275 909.802 751.38 909.865 751.5C910.799 753.114 912.266 754 914 754C915.734 754 917.201 753.112 918.134 751.5C918.266 751.27 918.485 751.103 918.741 751.034C918.997 750.965 919.27 751.001 919.5 751.134C919.73 751.266 919.897 751.485 919.966 751.741C920.035 751.997 919.999 752.27 919.866 752.5Z" fill="#3C402B"/>
    <path d="M980.207 748.293C980.3 748.386 980.374 748.496 980.424 748.617C980.474 748.739 980.5 748.869 980.5 749C980.5 749.132 980.474 749.262 980.424 749.383C980.374 749.505 980.3 749.615 980.207 749.708L969.951 759.958C968.638 761.271 966.857 762.008 965 762.008C963.144 762.008 961.363 761.27 960.05 759.957C958.737 758.644 958 756.864 958 755.007C958 753.15 958.738 751.369 960.051 750.057L972.458 737.467C973.396 736.528 974.667 736.001 975.994 736C977.32 735.999 978.592 736.526 979.531 737.463C980.469 738.4 980.997 739.672 980.997 740.998C980.998 742.325 980.472 743.597 979.535 744.535L967.125 757.125C966.561 757.689 965.797 758.006 965 758.006C964.203 758.006 963.438 757.689 962.875 757.125C962.311 756.562 961.994 755.797 961.994 755C961.994 754.203 962.311 753.439 962.875 752.875L973.287 742.298C973.378 742.201 973.488 742.123 973.61 742.068C973.732 742.014 973.863 741.985 973.996 741.982C974.13 741.979 974.262 742.003 974.386 742.053C974.51 742.102 974.623 742.176 974.718 742.269C974.813 742.363 974.889 742.474 974.94 742.597C974.991 742.721 975.017 742.853 975.017 742.986C975.016 743.119 974.989 743.251 974.937 743.374C974.884 743.497 974.808 743.608 974.712 743.7L964.298 754.289C964.205 754.382 964.131 754.492 964.08 754.613C964.029 754.734 964.003 754.864 964.003 754.995C964.002 755.126 964.027 755.257 964.077 755.378C964.127 755.5 964.2 755.61 964.293 755.704C964.385 755.797 964.495 755.871 964.616 755.922C964.737 755.972 964.867 755.999 964.999 755.999C965.13 756 965.26 755.974 965.382 755.925C965.503 755.875 965.614 755.802 965.707 755.709L978.116 743.125C978.679 742.563 978.996 741.8 978.997 741.003C978.998 740.207 978.683 739.443 978.12 738.88C977.558 738.316 976.794 737.999 975.998 737.998C975.202 737.997 974.438 738.313 973.875 738.875L961.47 751.46C961.005 751.924 960.636 752.475 960.384 753.082C960.132 753.688 960.003 754.338 960.002 754.995C960.002 755.652 960.13 756.302 960.381 756.909C960.632 757.516 961 758.068 961.464 758.532C961.928 758.997 962.479 759.366 963.085 759.618C963.692 759.869 964.342 759.999 964.999 760C965.655 760 966.306 759.871 966.913 759.621C967.52 759.37 968.071 759.002 968.536 758.538L978.793 748.288C978.981 748.101 979.236 747.997 979.501 747.998C979.766 747.999 980.02 748.105 980.207 748.293Z" fill="#3C402B"/>
    <path d="M1039 748.986C1039 749.342 1038.91 749.692 1038.73 750C1038.55 750.308 1038.29 750.562 1037.98 750.736L1016.99 762.737C1016.69 762.908 1016.35 762.999 1016 763C1015.68 762.999 1015.37 762.922 1015.08 762.774C1014.8 762.627 1014.55 762.414 1014.37 762.152C1014.19 761.891 1014.07 761.59 1014.02 761.273C1013.98 760.956 1014.01 760.634 1014.12 760.332L1017.54 750.338C1017.57 750.24 1017.63 750.154 1017.72 750.093C1017.8 750.032 1017.91 750 1018.01 750H1027C1027.14 750 1027.27 749.972 1027.4 749.918C1027.52 749.863 1027.64 749.784 1027.73 749.684C1027.83 749.584 1027.9 749.466 1027.94 749.337C1027.99 749.207 1028.01 749.07 1028 748.933C1027.98 748.676 1027.86 748.437 1027.67 748.264C1027.48 748.091 1027.23 747.997 1026.97 748H1018.02C1017.92 748 1017.81 747.967 1017.73 747.907C1017.64 747.846 1017.58 747.761 1017.55 747.662L1014.12 737.662C1013.98 737.279 1013.97 736.864 1014.08 736.473C1014.18 736.082 1014.41 735.733 1014.72 735.472C1015.03 735.211 1015.41 735.051 1015.82 735.013C1016.22 734.975 1016.63 735.06 1016.98 735.258L1037.98 747.245C1038.29 747.419 1038.55 747.672 1038.73 747.977C1038.91 748.283 1039 748.631 1039 748.986Z" fill="#3C402B"/>
    <path d="M172.974 747.77C172.936 747.61 172.859 747.461 172.75 747.338C172.641 747.215 172.503 747.12 172.349 747.063L165.148 744.361L166.98 735.195C167.022 734.982 166.993 734.761 166.898 734.566C166.803 734.371 166.647 734.212 166.454 734.114C166.261 734.015 166.04 733.982 165.827 734.019C165.613 734.056 165.417 734.162 165.269 734.32L151.269 749.32C151.155 749.44 151.073 749.586 151.029 749.745C150.986 749.905 150.983 750.072 151.02 750.233C151.057 750.394 151.133 750.544 151.242 750.668C151.351 750.792 151.489 750.887 151.644 750.945L158.848 753.646L157.02 762.803C156.979 763.016 157.007 763.236 157.102 763.431C157.197 763.627 157.353 763.785 157.546 763.884C157.74 763.983 157.96 764.016 158.173 763.979C158.387 763.942 158.583 763.836 158.731 763.678L172.731 748.678C172.843 748.558 172.923 748.412 172.966 748.254C173.008 748.096 173.011 747.93 172.974 747.77ZM159.671 759.749L160.98 753.201C161.027 752.969 160.99 752.728 160.875 752.52C160.761 752.313 160.576 752.153 160.355 752.069L153.75 749.588L164.328 738.255L163.02 744.803C162.973 745.035 163.01 745.276 163.125 745.484C163.239 745.691 163.424 745.851 163.645 745.935L170.245 748.41L159.671 759.749Z" fill="#3C402B"/>
    <path opacity="0.2" d="M202 729V769" stroke="#3C402B"/>
    <path d="M247.31 747.462C248.1 746.702 248.645 745.723 248.874 744.651C249.103 743.579 249.007 742.463 248.598 741.446C248.188 740.429 247.484 739.557 246.576 738.943C245.667 738.329 244.596 738.001 243.5 738H235C234.735 738 234.48 738.105 234.293 738.293C234.105 738.48 234 738.735 234 739V758C234 758.265 234.105 758.52 234.293 758.707C234.48 758.895 234.735 759 235 759H245C246.387 759 247.731 758.52 248.803 757.64C249.876 756.761 250.611 755.538 250.883 754.178C251.156 752.818 250.948 751.406 250.297 750.182C249.645 748.957 248.59 747.996 247.31 747.462ZM236 740H243.5C244.428 740 245.318 740.369 245.975 741.025C246.631 741.682 247 742.572 247 743.5C247 744.428 246.631 745.318 245.975 745.975C245.318 746.631 244.428 747 243.5 747H236V740ZM245 757H236V749H245C246.061 749 247.078 749.421 247.828 750.172C248.579 750.922 249 751.939 249 753C249 754.061 248.579 755.078 247.828 755.828C247.078 756.579 246.061 757 245 757Z" fill="#3C402B"/>
    <path d="M307 740C307 740.265 306.895 740.52 306.707 740.707C306.52 740.895 306.265 741 306 741H301.721L296.387 757H300C300.265 757 300.52 757.105 300.707 757.293C300.895 757.48 301 757.735 301 758C301 758.265 300.895 758.52 300.707 758.707C300.52 758.895 300.265 759 300 759H290C289.735 759 289.48 758.895 289.293 758.707C289.105 758.52 289 758.265 289 758C289 757.735 289.105 757.48 289.293 757.293C289.48 757.105 289.735 757 290 757H294.279L299.612 741H296C295.735 741 295.48 740.895 295.293 740.707C295.105 740.52 295 740.265 295 740C295 739.735 295.105 739.48 295.293 739.293C295.48 739.105 295.735 739 296 739H306C306.265 739 306.52 739.105 306.707 739.293C306.895 739.48 307 739.735 307 740Z" fill="#3C402B"/>
    <path d="M366 749C366 749.265 365.895 749.52 365.707 749.707C365.52 749.895 365.265 750 365 750H359.991C361.14 750.889 362 752.15 362 754C362 755.667 361.125 757.212 359.531 758.349C358.041 759.414 356.076 760 354 760C351.924 760 349.959 759.414 348.469 758.349C346.875 757.212 346 755.667 346 754C346 753.735 346.105 753.48 346.293 753.293C346.48 753.105 346.735 753 347 753C347.265 753 347.52 753.105 347.707 753.293C347.895 753.48 348 753.735 348 754C348 756.169 350.75 758 354 758C357.25 758 360 756.169 360 754C360 752.144 358.682 751.052 355.154 750H343C342.735 750 342.48 749.895 342.293 749.707C342.105 749.52 342 749.265 342 749C342 748.735 342.105 748.48 342.293 748.293C342.48 748.105 342.735 748 343 748H365C365.265 748 365.52 748.105 365.707 748.293C365.895 748.48 366 748.735 366 749ZM347.541 746C347.699 746 347.855 745.963 347.996 745.891C348.137 745.819 348.259 745.715 348.352 745.587C348.444 745.459 348.506 745.311 348.53 745.155C348.555 744.999 348.542 744.839 348.493 744.689C348.421 744.466 348.386 744.234 348.389 744C348.389 741.72 350.801 740 354 740C356.355 740 358.27 740.927 359.125 742.481C359.26 742.699 359.473 742.856 359.721 742.921C359.969 742.986 360.232 742.953 360.457 742.83C360.681 742.707 360.849 742.502 360.927 742.258C361.005 742.014 360.986 741.749 360.875 741.519C359.666 739.315 357.096 738 354 738C349.661 738 346.389 740.579 346.389 744C346.387 744.445 346.455 744.888 346.591 745.311C346.657 745.512 346.784 745.686 346.955 745.81C347.125 745.933 347.331 746 347.541 746Z" fill="#3C402B"/>
    <path d="M402.64 744.769L397.562 749L402.64 753.231C402.744 753.314 402.83 753.417 402.893 753.534C402.957 753.651 402.996 753.779 403.01 753.912C403.023 754.044 403.01 754.178 402.971 754.305C402.932 754.432 402.868 754.55 402.783 754.652C402.698 754.754 402.593 754.838 402.475 754.9C402.357 754.961 402.228 754.998 402.096 755.009C401.963 755.019 401.83 755.004 401.703 754.962C401.577 754.921 401.46 754.855 401.36 754.768L395.36 749.768C395.247 749.674 395.157 749.556 395.094 749.423C395.032 749.291 395 749.146 395 748.999C395 748.853 395.032 748.708 395.094 748.575C395.157 748.443 395.247 748.325 395.36 748.231L401.36 743.231C401.564 743.062 401.827 742.98 402.091 743.004C402.355 743.028 402.599 743.156 402.768 743.36C402.938 743.564 403.02 743.827 402.996 744.091C402.972 744.355 402.844 744.599 402.64 744.769ZM424.64 748.231L418.64 743.231C418.539 743.147 418.422 743.084 418.297 743.045C418.171 743.006 418.039 742.992 417.909 743.004C417.778 743.016 417.651 743.053 417.534 743.115C417.418 743.176 417.315 743.259 417.231 743.36C417.061 743.564 416.979 743.827 417.004 744.091C417.028 744.355 417.156 744.599 417.36 744.769L422.437 749L417.36 753.231C417.256 753.314 417.17 753.417 417.106 753.534C417.043 753.651 417.003 753.779 416.99 753.912C416.976 754.044 416.99 754.178 417.028 754.305C417.067 754.432 417.131 754.55 417.216 754.652C417.301 754.754 417.406 754.838 417.524 754.9C417.642 754.961 417.771 754.998 417.904 755.009C418.036 755.019 418.17 755.004 418.296 754.962C418.422 754.921 418.539 754.855 418.64 754.768L424.64 749.768C424.752 749.674 424.843 749.556 424.905 749.423C424.967 749.291 424.999 749.146 424.999 748.999C424.999 748.853 424.967 748.708 424.905 748.575C424.843 748.443 424.752 748.325 424.64 748.231ZM414.341 737.06C414.218 737.015 414.086 736.995 413.955 737.001C413.824 737.007 413.695 737.038 413.576 737.094C413.457 737.15 413.35 737.228 413.262 737.325C413.173 737.422 413.105 737.535 413.06 737.659L405.06 759.659C405.015 759.782 404.994 759.913 405 760.045C405.006 760.176 405.038 760.305 405.093 760.424C405.149 760.543 405.227 760.65 405.324 760.739C405.421 760.828 405.535 760.896 405.658 760.941C405.768 760.98 405.883 761 406 761C406.205 761 406.405 760.937 406.574 760.819C406.742 760.701 406.87 760.534 406.94 760.341L414.94 738.341C414.985 738.218 415.005 738.087 414.999 737.956C414.993 737.824 414.961 737.696 414.906 737.577C414.85 737.458 414.772 737.351 414.675 737.262C414.578 737.174 414.464 737.105 414.341 737.06Z" fill="#3C402B"/>
    <path d="M467.192 756.294C467.38 756.481 467.485 756.735 467.485 757.001C467.485 757.266 467.38 757.52 467.192 757.707L465.95 758.957C464.636 760.271 462.854 761.008 460.996 761.007C459.139 761.007 457.357 760.268 456.044 758.954C454.731 757.64 453.994 755.859 453.994 754.001C453.995 752.143 454.733 750.362 456.047 749.049L459.062 746.034C460.324 744.771 462.021 744.038 463.806 743.985C465.591 743.932 467.329 744.563 468.663 745.749C468.762 745.836 468.842 745.942 468.9 746.06C468.957 746.179 468.991 746.307 468.999 746.439C469.007 746.57 468.989 746.702 468.946 746.826C468.903 746.95 468.836 747.065 468.748 747.164C468.661 747.262 468.555 747.343 468.437 747.4C468.319 747.458 468.19 747.491 468.059 747.499C467.927 747.507 467.796 747.489 467.671 747.446C467.547 747.403 467.432 747.336 467.333 747.249C466.38 746.402 465.139 745.952 463.865 745.99C462.59 746.027 461.379 746.551 460.477 747.452L457.462 750.464C456.524 751.402 455.997 752.674 455.997 754C455.997 755.326 456.524 756.598 457.462 757.536C458.4 758.474 459.672 759.001 460.998 759.001C462.325 759.001 463.597 758.474 464.535 757.536L465.777 756.294C465.87 756.201 465.98 756.127 466.102 756.077C466.223 756.026 466.353 756 466.485 756C466.616 756 466.746 756.026 466.868 756.077C466.989 756.127 467.099 756.201 467.192 756.294ZM475.952 739.044C474.638 737.732 472.857 736.996 471.001 736.996C469.145 736.996 467.364 737.732 466.05 739.044L464.807 740.287C464.62 740.475 464.514 740.73 464.515 740.995C464.515 741.26 464.62 741.514 464.808 741.702C464.995 741.889 465.25 741.995 465.515 741.994C465.78 741.994 466.035 741.889 466.222 741.701L467.465 740.459C468.403 739.521 469.675 738.994 471.001 738.994C472.327 738.994 473.599 739.521 474.537 740.459C475.475 741.397 476.002 742.669 476.002 743.995C476.002 745.321 475.475 746.593 474.537 747.531L471.522 750.549C470.62 751.45 469.408 751.973 468.134 752.01C466.859 752.047 465.619 751.596 464.666 750.749C464.567 750.661 464.453 750.594 464.328 750.551C464.204 750.508 464.072 750.49 463.941 750.498C463.676 750.514 463.427 750.635 463.251 750.834C463.164 750.932 463.097 751.047 463.054 751.171C463.011 751.296 462.993 751.427 463 751.559C463.016 751.824 463.137 752.072 463.336 752.249C464.67 753.435 466.408 754.067 468.193 754.014C469.978 753.962 471.675 753.229 472.937 751.966L475.952 748.951C477.264 747.637 478.001 745.856 478.001 743.999C478.001 742.142 477.264 740.36 475.952 739.046V739.044Z" fill="#3C402B"/>
    <path d="M534 749.001C534 749.266 533.895 749.52 533.707 749.708C533.52 749.895 533.265 750.001 533 750.001H519C518.735 750.001 518.48 749.895 518.293 749.708C518.105 749.52 518 749.266 518 749.001C518 748.735 518.105 748.481 518.293 748.294C518.48 748.106 518.735 748.001 519 748.001H533C533.265 748.001 533.52 748.106 533.707 748.294C533.895 748.481 534 748.735 534 749.001ZM519 742.001H533C533.265 742.001 533.52 741.895 533.707 741.708C533.895 741.52 534 741.266 534 741.001C534 740.735 533.895 740.481 533.707 740.294C533.52 740.106 533.265 740.001 533 740.001H519C518.735 740.001 518.48 740.106 518.293 740.294C518.105 740.481 518 740.735 518 741.001C518 741.266 518.105 741.52 518.293 741.708C518.48 741.895 518.735 742.001 519 742.001ZM533 756.001H519C518.735 756.001 518.48 756.106 518.293 756.294C518.105 756.481 518 756.736 518 757.001C518 757.266 518.105 757.52 518.293 757.708C518.48 757.895 518.735 758.001 519 758.001H533C533.265 758.001 533.52 757.895 533.707 757.708C533.895 757.52 534 757.266 534 757.001C534 756.736 533.895 756.481 533.707 756.294C533.52 756.106 533.265 756.001 533 756.001ZM511.448 739.896L512 739.618V746.001C512 746.266 512.105 746.52 512.293 746.708C512.48 746.895 512.735 747.001 513 747.001C513.265 747.001 513.52 746.895 513.707 746.708C513.895 746.52 514 746.266 514 746.001V738.001C514 737.83 513.957 737.662 513.874 737.513C513.791 737.364 513.671 737.239 513.526 737.149C513.381 737.06 513.215 737.009 513.045 737.001C512.875 736.993 512.705 737.029 512.553 737.106L510.553 738.106C510.315 738.224 510.135 738.433 510.051 738.684C510.009 738.809 509.993 738.941 510.002 739.072C510.011 739.203 510.046 739.331 510.105 739.448C510.164 739.566 510.245 739.671 510.344 739.757C510.444 739.843 510.559 739.908 510.684 739.95C510.935 740.034 511.21 740.014 511.448 739.896ZM515.971 752.591C515.916 752.195 515.781 751.814 515.575 751.471C515.369 751.129 515.095 750.831 514.771 750.597C514.122 750.126 513.316 749.924 512.521 750.033C511.727 750.143 511.005 750.555 510.508 751.184C510.317 751.429 510.167 751.701 510.061 751.992C510.006 752.117 509.977 752.252 509.977 752.389C509.976 752.526 510.003 752.661 510.057 752.787C510.11 752.913 510.189 753.027 510.289 753.121C510.388 753.215 510.505 753.287 510.634 753.334C510.762 753.381 510.899 753.401 511.036 753.393C511.172 753.385 511.306 753.349 511.428 753.287C511.55 753.225 511.658 753.139 511.745 753.034C511.833 752.929 511.898 752.807 511.936 752.676C511.971 752.58 512.021 752.49 512.084 752.409C512.26 752.19 512.515 752.046 512.794 752.009C513.073 751.972 513.356 752.044 513.584 752.211C513.693 752.288 513.786 752.387 513.856 752.501C513.926 752.616 513.972 752.743 513.991 752.876C514.009 753.003 514.001 753.133 513.967 753.257C513.933 753.381 513.875 753.497 513.795 753.598C513.791 753.603 513.788 753.607 513.785 753.612L510.199 758.402C510.088 758.551 510.02 758.727 510.004 758.912C509.987 759.097 510.023 759.283 510.106 759.449C510.189 759.615 510.317 759.754 510.475 759.852C510.632 759.949 510.814 760.001 511 760.001H515C515.265 760.001 515.52 759.895 515.707 759.708C515.895 759.52 516 759.266 516 759.001C516 758.736 515.895 758.481 515.707 758.294C515.52 758.106 515.265 758.001 515 758.001H513L515.385 754.809C515.627 754.498 515.803 754.141 515.904 753.76C516.005 753.379 516.028 752.981 515.971 752.591Z" fill="#3C402B"/>
    <path d="M572 741C572 740.735 572.105 740.48 572.293 740.293C572.48 740.105 572.735 740 573 740H589C589.265 740 589.52 740.105 589.707 740.293C589.895 740.48 590 740.735 590 741C590 741.265 589.895 741.52 589.707 741.707C589.52 741.895 589.265 742 589 742H573C572.735 742 572.48 741.895 572.293 741.707C572.105 741.52 572 741.265 572 741ZM589 748H573C572.735 748 572.48 748.105 572.293 748.293C572.105 748.48 572 748.735 572 749C572 749.265 572.105 749.52 572.293 749.707C572.48 749.895 572.735 750 573 750H589C589.265 750 589.52 749.895 589.707 749.707C589.895 749.52 590 749.265 590 749C590 748.735 589.895 748.48 589.707 748.293C589.52 748.105 589.265 748 589 748ZM589 756H573C572.735 756 572.48 756.105 572.293 756.293C572.105 756.48 572 756.735 572 757C572 757.265 572.105 757.52 572.293 757.707C572.48 757.895 572.735 758 573 758H589C589.265 758 589.52 757.895 589.707 757.707C589.895 757.52 590 757.265 590 757C590 756.735 589.895 756.48 589.707 756.293C589.52 756.105 589.265 756 589 756ZM567.5 739.5C567.203 739.5 566.913 739.588 566.667 739.753C566.42 739.918 566.228 740.152 566.114 740.426C566.001 740.7 565.971 741.002 566.029 741.293C566.087 741.584 566.23 741.851 566.439 742.061C566.649 742.27 566.916 742.413 567.207 742.471C567.498 742.529 567.8 742.499 568.074 742.386C568.348 742.272 568.582 742.08 568.747 741.833C568.912 741.587 569 741.297 569 741C569 740.602 568.842 740.221 568.561 739.939C568.279 739.658 567.898 739.5 567.5 739.5ZM567.5 747.5C567.203 747.5 566.913 747.588 566.667 747.753C566.42 747.918 566.228 748.152 566.114 748.426C566.001 748.7 565.971 749.002 566.029 749.293C566.087 749.584 566.23 749.851 566.439 750.061C566.649 750.27 566.916 750.413 567.207 750.471C567.498 750.529 567.8 750.499 568.074 750.386C568.348 750.272 568.582 750.08 568.747 749.833C568.912 749.587 569 749.297 569 749C569 748.602 568.842 748.221 568.561 747.939C568.279 747.658 567.898 747.5 567.5 747.5ZM567.5 755.5C567.203 755.5 566.913 755.588 566.667 755.753C566.42 755.918 566.228 756.152 566.114 756.426C566.001 756.7 565.971 757.002 566.029 757.293C566.087 757.584 566.23 757.851 566.439 758.061C566.649 758.27 566.916 758.413 567.207 758.471C567.498 758.529 567.8 758.499 568.074 758.386C568.348 758.272 568.582 758.08 568.747 757.833C568.912 757.587 569 757.297 569 757C569 756.602 568.842 756.221 568.561 755.939C568.279 755.658 567.898 755.5 567.5 755.5Z" fill="#3C402B"/>
    <path opacity="0.2" d="M146 702H1042" stroke="#3C402B"/>
    <path opacity="0.5" d="M154.676 663.36C152.956 663.36 151.504 662.98 150.32 662.22C149.136 661.452 148.24 660.392 147.632 659.04C147.024 657.688 146.72 656.128 146.72 654.36C146.72 652.592 147.024 651.032 147.632 649.68C148.24 648.328 149.136 647.272 150.32 646.512C151.504 645.744 152.956 645.36 154.676 645.36C156.684 645.36 158.324 645.876 159.596 646.908C160.868 647.932 161.74 649.308 162.212 651.036L160.412 651.504C160.044 650.136 159.384 649.052 158.432 648.252C157.48 647.452 156.228 647.052 154.676 647.052C153.324 647.052 152.2 647.36 151.304 647.976C150.408 648.592 149.732 649.452 149.276 650.556C148.828 651.652 148.596 652.92 148.58 654.36C148.572 655.8 148.792 657.068 149.24 658.164C149.696 659.26 150.376 660.12 151.28 660.744C152.192 661.36 153.324 661.668 154.676 661.668C156.228 661.668 157.48 661.268 158.432 660.468C159.384 659.66 160.044 658.576 160.412 657.216L162.212 657.684C161.74 659.412 160.868 660.792 159.596 661.824C158.324 662.848 156.684 663.36 154.676 663.36ZM170.272 663.36C168.984 663.36 167.884 663.068 166.972 662.484C166.06 661.9 165.36 661.092 164.872 660.06C164.384 659.028 164.14 657.844 164.14 656.508C164.14 655.148 164.388 653.956 164.884 652.932C165.38 651.908 166.084 651.112 166.996 650.544C167.916 649.968 169.008 649.68 170.272 649.68C171.568 649.68 172.672 649.972 173.584 650.556C174.504 651.132 175.204 651.936 175.684 652.968C176.172 653.992 176.416 655.172 176.416 656.508C176.416 657.868 176.172 659.064 175.684 660.096C175.196 661.12 174.492 661.92 173.572 662.496C172.652 663.072 171.552 663.36 170.272 663.36ZM170.272 661.668C171.712 661.668 172.784 661.192 173.488 660.24C174.192 659.28 174.544 658.036 174.544 656.508C174.544 654.94 174.188 653.692 173.476 652.764C172.772 651.836 171.704 651.372 170.272 651.372C169.304 651.372 168.504 651.592 167.872 652.032C167.248 652.464 166.78 653.068 166.468 653.844C166.164 654.612 166.012 655.5 166.012 656.508C166.012 658.068 166.372 659.32 167.092 660.264C167.812 661.2 168.872 661.668 170.272 661.668ZM194.519 663L194.531 654.492C194.531 653.492 194.251 652.708 193.691 652.14C193.139 651.564 192.435 651.276 191.579 651.276C191.091 651.276 190.615 651.388 190.151 651.612C189.687 651.836 189.303 652.196 188.999 652.692C188.703 653.188 188.555 653.836 188.555 654.636L187.511 654.336C187.487 653.408 187.667 652.596 188.051 651.9C188.443 651.204 188.979 650.664 189.659 650.28C190.347 649.888 191.123 649.692 191.987 649.692C193.291 649.692 194.335 650.096 195.119 650.904C195.903 651.704 196.295 652.788 196.295 654.156L196.283 663H194.519ZM179.051 663V650.04H180.635V653.232H180.827V663H179.051ZM186.803 663L186.815 654.612C186.815 653.58 186.539 652.768 185.987 652.176C185.443 651.576 184.723 651.276 183.827 651.276C182.931 651.276 182.207 651.584 181.655 652.2C181.103 652.808 180.827 653.62 180.827 654.636L179.771 654.06C179.771 653.228 179.967 652.484 180.359 651.828C180.751 651.164 181.287 650.644 181.967 650.268C182.647 649.884 183.419 649.692 184.283 649.692C185.107 649.692 185.839 649.868 186.479 650.22C187.127 650.572 187.635 651.084 188.003 651.756C188.371 652.428 188.555 653.244 188.555 654.204L188.543 663H186.803ZM205.227 663.36C204.035 663.36 203.027 663.06 202.203 662.46C201.379 661.852 200.755 661.032 200.331 660C199.907 658.96 199.695 657.796 199.695 656.508C199.695 655.196 199.907 654.028 200.331 653.004C200.763 651.972 201.395 651.16 202.227 650.568C203.059 649.976 204.083 649.68 205.299 649.68C206.483 649.68 207.499 649.98 208.347 650.58C209.195 651.18 209.843 651.996 210.291 653.028C210.747 654.06 210.975 655.22 210.975 656.508C210.975 657.804 210.747 658.968 210.291 660C209.835 661.032 209.179 661.852 208.323 662.46C207.467 663.06 206.435 663.36 205.227 663.36ZM199.395 668.76V650.04H200.979V659.796H201.171V668.76H199.395ZM205.047 661.716C205.951 661.716 206.703 661.488 207.303 661.032C207.903 660.576 208.351 659.956 208.647 659.172C208.951 658.38 209.103 657.492 209.103 656.508C209.103 655.532 208.955 654.652 208.659 653.868C208.363 653.084 207.911 652.464 207.303 652.008C206.703 651.552 205.939 651.324 205.011 651.324C204.107 651.324 203.355 651.544 202.755 651.984C202.163 652.424 201.719 653.036 201.423 653.82C201.127 654.596 200.979 655.492 200.979 656.508C200.979 657.508 201.127 658.404 201.423 659.196C201.719 659.98 202.167 660.596 202.767 661.044C203.367 661.492 204.127 661.716 205.047 661.716ZM219.022 663.36C217.734 663.36 216.634 663.068 215.722 662.484C214.81 661.9 214.11 661.092 213.622 660.06C213.134 659.028 212.89 657.844 212.89 656.508C212.89 655.148 213.138 653.956 213.634 652.932C214.13 651.908 214.834 651.112 215.746 650.544C216.666 649.968 217.758 649.68 219.022 649.68C220.318 649.68 221.422 649.972 222.334 650.556C223.254 651.132 223.954 651.936 224.434 652.968C224.922 653.992 225.166 655.172 225.166 656.508C225.166 657.868 224.922 659.064 224.434 660.096C223.946 661.12 223.242 661.92 222.322 662.496C221.402 663.072 220.302 663.36 219.022 663.36ZM219.022 661.668C220.462 661.668 221.534 661.192 222.238 660.24C222.942 659.28 223.294 658.036 223.294 656.508C223.294 654.94 222.938 653.692 222.226 652.764C221.522 651.836 220.454 651.372 219.022 651.372C218.054 651.372 217.254 651.592 216.622 652.032C215.998 652.464 215.53 653.068 215.218 653.844C214.914 654.612 214.762 655.5 214.762 656.508C214.762 658.068 215.122 659.32 215.842 660.264C216.562 661.2 217.622 661.668 219.022 661.668ZM232.532 663.348C231.012 663.348 229.76 663.02 228.776 662.364C227.8 661.708 227.2 660.796 226.976 659.628L228.776 659.328C228.968 660.064 229.404 660.652 230.084 661.092C230.772 661.524 231.62 661.74 232.628 661.74C233.612 661.74 234.388 661.536 234.956 661.128C235.524 660.712 235.808 660.148 235.808 659.436C235.808 659.036 235.716 658.712 235.532 658.464C235.356 658.208 234.992 657.972 234.44 657.756C233.888 657.54 233.064 657.284 231.968 656.988C230.792 656.668 229.872 656.348 229.208 656.028C228.544 655.708 228.072 655.34 227.792 654.924C227.512 654.5 227.372 653.984 227.372 653.376C227.372 652.64 227.58 651.996 227.996 651.444C228.412 650.884 228.988 650.452 229.724 650.148C230.46 649.836 231.316 649.68 232.292 649.68C233.268 649.68 234.14 649.84 234.908 650.16C235.684 650.472 236.308 650.912 236.78 651.48C237.252 652.048 237.532 652.708 237.62 653.46L235.82 653.784C235.7 653.024 235.32 652.424 234.68 651.984C234.048 651.536 233.244 651.304 232.268 651.288C231.348 651.264 230.6 651.44 230.024 651.816C229.448 652.184 229.16 652.676 229.16 653.292C229.16 653.636 229.264 653.932 229.472 654.18C229.68 654.42 230.056 654.648 230.6 654.864C231.152 655.08 231.936 655.316 232.952 655.572C234.144 655.876 235.08 656.196 235.76 656.532C236.44 656.868 236.924 657.264 237.212 657.72C237.5 658.176 237.644 658.74 237.644 659.412C237.644 660.636 237.188 661.6 236.276 662.304C235.372 663 234.124 663.348 232.532 663.348ZM245.789 663.36C244.525 663.36 243.429 663.08 242.501 662.52C241.581 661.96 240.865 661.172 240.353 660.156C239.841 659.14 239.585 657.948 239.585 656.58C239.585 655.164 239.837 653.94 240.341 652.908C240.845 651.876 241.553 651.08 242.465 650.52C243.385 649.96 244.469 649.68 245.717 649.68C246.997 649.68 248.089 649.976 248.993 650.568C249.897 651.152 250.581 651.992 251.045 653.088C251.509 654.184 251.721 655.492 251.681 657.012H249.881V656.388C249.849 654.708 249.485 653.44 248.789 652.584C248.101 651.728 247.093 651.3 245.765 651.3C244.373 651.3 243.305 651.752 242.561 652.656C241.825 653.56 241.457 654.848 241.457 656.52C241.457 658.152 241.825 659.42 242.561 660.324C243.305 661.22 244.357 661.668 245.717 661.668C246.645 661.668 247.453 661.456 248.141 661.032C248.837 660.6 249.385 659.98 249.785 659.172L251.429 659.808C250.917 660.936 250.161 661.812 249.161 662.436C248.169 663.052 247.045 663.36 245.789 663.36ZM240.833 657.012V655.536H250.733V657.012H240.833ZM260.997 668.76L263.505 661.956L263.541 663.972L257.865 650.04H259.737L264.393 661.692H263.625L267.921 650.04H269.721L262.761 668.76H260.997ZM276.748 663.36C275.46 663.36 274.36 663.068 273.448 662.484C272.536 661.9 271.836 661.092 271.348 660.06C270.86 659.028 270.616 657.844 270.616 656.508C270.616 655.148 270.864 653.956 271.36 652.932C271.856 651.908 272.56 651.112 273.472 650.544C274.392 649.968 275.484 649.68 276.748 649.68C278.044 649.68 279.148 649.972 280.06 650.556C280.98 651.132 281.68 651.936 282.16 652.968C282.648 653.992 282.892 655.172 282.892 656.508C282.892 657.868 282.648 659.064 282.16 660.096C281.672 661.12 280.968 661.92 280.048 662.496C279.128 663.072 278.028 663.36 276.748 663.36ZM276.748 661.668C278.188 661.668 279.26 661.192 279.964 660.24C280.668 659.28 281.02 658.036 281.02 656.508C281.02 654.94 280.664 653.692 279.952 652.764C279.248 651.836 278.18 651.372 276.748 651.372C275.78 651.372 274.98 651.592 274.348 652.032C273.724 652.464 273.256 653.068 272.944 653.844C272.64 654.612 272.488 655.5 272.488 656.508C272.488 658.068 272.848 659.32 273.568 660.264C274.288 661.2 275.348 661.668 276.748 661.668ZM290.495 663.324C289.719 663.324 289.039 663.204 288.455 662.964C287.879 662.724 287.387 662.4 286.979 661.992C286.579 661.584 286.255 661.12 286.007 660.6C285.759 660.072 285.579 659.516 285.467 658.932C285.355 658.34 285.299 657.752 285.299 657.168V650.04H287.075V656.652C287.075 657.364 287.143 658.024 287.279 658.632C287.415 659.24 287.631 659.772 287.927 660.228C288.231 660.676 288.619 661.024 289.091 661.272C289.571 661.52 290.151 661.644 290.831 661.644C291.455 661.644 292.003 661.536 292.475 661.32C292.955 661.104 293.355 660.796 293.675 660.396C294.003 659.988 294.251 659.496 294.419 658.92C294.587 658.336 294.671 657.68 294.671 656.952L295.919 657.228C295.919 658.556 295.687 659.672 295.223 660.576C294.759 661.48 294.119 662.164 293.303 662.628C292.487 663.092 291.551 663.324 290.495 663.324ZM294.851 663V659.808H294.671V650.04H296.435V663H294.851ZM299.789 663V650.04H301.373V653.16L301.061 652.752C301.205 652.368 301.393 652.016 301.625 651.696C301.857 651.368 302.109 651.1 302.381 650.892C302.717 650.596 303.109 650.372 303.557 650.22C304.005 650.06 304.457 649.968 304.913 649.944C305.369 649.912 305.785 649.944 306.161 650.04V651.696C305.689 651.576 305.173 651.548 304.613 651.612C304.053 651.676 303.537 651.9 303.065 652.284C302.633 652.62 302.309 653.024 302.093 653.496C301.877 653.96 301.733 654.456 301.661 654.984C301.589 655.504 301.553 656.02 301.553 656.532V663H299.789ZM328.699 663L328.711 654.492C328.711 653.492 328.431 652.708 327.871 652.14C327.319 651.564 326.615 651.276 325.759 651.276C325.271 651.276 324.795 651.388 324.331 651.612C323.867 651.836 323.483 652.196 323.179 652.692C322.883 653.188 322.735 653.836 322.735 654.636L321.691 654.336C321.667 653.408 321.847 652.596 322.231 651.9C322.623 651.204 323.159 650.664 323.839 650.28C324.527 649.888 325.303 649.692 326.167 649.692C327.471 649.692 328.515 650.096 329.299 650.904C330.083 651.704 330.475 652.788 330.475 654.156L330.463 663H328.699ZM313.231 663V650.04H314.815V653.232H315.007V663H313.231ZM320.983 663L320.995 654.612C320.995 653.58 320.719 652.768 320.167 652.176C319.623 651.576 318.903 651.276 318.007 651.276C317.111 651.276 316.387 651.584 315.835 652.2C315.283 652.808 315.007 653.62 315.007 654.636L313.951 654.06C313.951 653.228 314.147 652.484 314.539 651.828C314.931 651.164 315.467 650.644 316.147 650.268C316.827 649.884 317.599 649.692 318.463 649.692C319.287 649.692 320.019 649.868 320.659 650.22C321.307 650.572 321.815 651.084 322.183 651.756C322.551 652.428 322.735 653.244 322.735 654.204L322.723 663H320.983ZM338.977 663.36C337.713 663.36 336.617 663.08 335.689 662.52C334.769 661.96 334.053 661.172 333.541 660.156C333.029 659.14 332.773 657.948 332.773 656.58C332.773 655.164 333.025 653.94 333.529 652.908C334.033 651.876 334.741 651.08 335.653 650.52C336.573 649.96 337.657 649.68 338.905 649.68C340.185 649.68 341.277 649.976 342.181 650.568C343.085 651.152 343.769 651.992 344.233 653.088C344.697 654.184 344.909 655.492 344.869 657.012H343.069V656.388C343.037 654.708 342.673 653.44 341.977 652.584C341.289 651.728 340.281 651.3 338.953 651.3C337.561 651.3 336.493 651.752 335.749 652.656C335.013 653.56 334.645 654.848 334.645 656.52C334.645 658.152 335.013 659.42 335.749 660.324C336.493 661.22 337.545 661.668 338.905 661.668C339.833 661.668 340.641 661.456 341.329 661.032C342.025 660.6 342.573 659.98 342.973 659.172L344.617 659.808C344.105 660.936 343.349 661.812 342.349 662.436C341.357 663.052 340.233 663.36 338.977 663.36ZM334.021 657.012V655.536H343.921V657.012H334.021ZM352.368 663.348C350.848 663.348 349.596 663.02 348.612 662.364C347.636 661.708 347.036 660.796 346.812 659.628L348.612 659.328C348.804 660.064 349.24 660.652 349.92 661.092C350.608 661.524 351.456 661.74 352.464 661.74C353.448 661.74 354.224 661.536 354.792 661.128C355.36 660.712 355.644 660.148 355.644 659.436C355.644 659.036 355.552 658.712 355.368 658.464C355.192 658.208 354.828 657.972 354.276 657.756C353.724 657.54 352.9 657.284 351.804 656.988C350.628 656.668 349.708 656.348 349.044 656.028C348.38 655.708 347.908 655.34 347.628 654.924C347.348 654.5 347.208 653.984 347.208 653.376C347.208 652.64 347.416 651.996 347.832 651.444C348.248 650.884 348.824 650.452 349.56 650.148C350.296 649.836 351.152 649.68 352.128 649.68C353.104 649.68 353.976 649.84 354.744 650.16C355.52 650.472 356.144 650.912 356.616 651.48C357.088 652.048 357.368 652.708 357.456 653.46L355.656 653.784C355.536 653.024 355.156 652.424 354.516 651.984C353.884 651.536 353.08 651.304 352.104 651.288C351.184 651.264 350.436 651.44 349.86 651.816C349.284 652.184 348.996 652.676 348.996 653.292C348.996 653.636 349.1 653.932 349.308 654.18C349.516 654.42 349.892 654.648 350.436 654.864C350.988 655.08 351.772 655.316 352.788 655.572C353.98 655.876 354.916 656.196 355.596 656.532C356.276 656.868 356.76 657.264 357.048 657.72C357.336 658.176 357.48 658.74 357.48 659.412C357.48 660.636 357.024 661.6 356.112 662.304C355.208 663 353.96 663.348 352.368 663.348ZM364.977 663.348C363.457 663.348 362.205 663.02 361.221 662.364C360.245 661.708 359.645 660.796 359.421 659.628L361.221 659.328C361.413 660.064 361.849 660.652 362.529 661.092C363.217 661.524 364.065 661.74 365.073 661.74C366.057 661.74 366.833 661.536 367.401 661.128C367.969 660.712 368.253 660.148 368.253 659.436C368.253 659.036 368.161 658.712 367.977 658.464C367.801 658.208 367.437 657.972 366.885 657.756C366.333 657.54 365.509 657.284 364.413 656.988C363.237 656.668 362.317 656.348 361.653 656.028C360.989 655.708 360.517 655.34 360.237 654.924C359.957 654.5 359.817 653.984 359.817 653.376C359.817 652.64 360.025 651.996 360.441 651.444C360.857 650.884 361.433 650.452 362.169 650.148C362.905 649.836 363.761 649.68 364.737 649.68C365.713 649.68 366.585 649.84 367.353 650.16C368.129 650.472 368.753 650.912 369.225 651.48C369.697 652.048 369.977 652.708 370.065 653.46L368.265 653.784C368.145 653.024 367.765 652.424 367.125 651.984C366.493 651.536 365.689 651.304 364.713 651.288C363.793 651.264 363.045 651.44 362.469 651.816C361.893 652.184 361.605 652.676 361.605 653.292C361.605 653.636 361.709 653.932 361.917 654.18C362.125 654.42 362.501 654.648 363.045 654.864C363.597 655.08 364.381 655.316 365.397 655.572C366.589 655.876 367.525 656.196 368.205 656.532C368.885 656.868 369.369 657.264 369.657 657.72C369.945 658.176 370.089 658.74 370.089 659.412C370.089 660.636 369.633 661.6 368.721 662.304C367.817 663 366.569 663.348 364.977 663.348ZM376.458 663.36C375.482 663.36 374.662 663.184 373.998 662.832C373.342 662.48 372.85 662.012 372.522 661.428C372.194 660.844 372.03 660.208 372.03 659.52C372.03 658.816 372.17 658.216 372.45 657.72C372.738 657.216 373.126 656.804 373.614 656.484C374.11 656.164 374.682 655.92 375.33 655.752C375.986 655.592 376.71 655.452 377.502 655.332C378.302 655.204 379.082 655.096 379.842 655.008C380.61 654.912 381.282 654.82 381.858 654.732L381.234 655.116C381.258 653.836 381.01 652.888 380.49 652.272C379.97 651.656 379.066 651.348 377.778 651.348C376.89 651.348 376.138 651.548 375.522 651.948C374.914 652.348 374.486 652.98 374.238 653.844L372.522 653.34C372.818 652.18 373.414 651.28 374.31 650.64C375.206 650 376.37 649.68 377.802 649.68C378.986 649.68 379.99 649.904 380.814 650.352C381.646 650.792 382.234 651.432 382.578 652.272C382.738 652.648 382.842 653.068 382.89 653.532C382.938 653.996 382.962 654.468 382.962 654.948V663H381.39V659.748L381.846 659.94C381.406 661.052 380.722 661.9 379.794 662.484C378.866 663.068 377.754 663.36 376.458 663.36ZM376.662 661.836C377.486 661.836 378.206 661.688 378.822 661.392C379.438 661.096 379.934 660.692 380.31 660.18C380.686 659.66 380.93 659.076 381.042 658.428C381.138 658.012 381.19 657.556 381.198 657.06C381.206 656.556 381.21 656.18 381.21 655.932L381.882 656.28C381.282 656.36 380.63 656.44 379.926 656.52C379.23 656.6 378.542 656.692 377.862 656.796C377.19 656.9 376.582 657.024 376.038 657.168C375.67 657.272 375.314 657.42 374.97 657.612C374.626 657.796 374.342 658.044 374.118 658.356C373.902 658.668 373.794 659.056 373.794 659.52C373.794 659.896 373.886 660.26 374.07 660.612C374.262 660.964 374.566 661.256 374.982 661.488C375.406 661.72 375.966 661.836 376.662 661.836ZM391.234 669.12C390.57 669.12 389.914 669.02 389.266 668.82C388.626 668.628 388.034 668.32 387.49 667.896C386.946 667.48 386.49 666.936 386.122 666.264L387.718 665.376C388.078 666.096 388.582 666.612 389.23 666.924C389.886 667.244 390.554 667.404 391.234 667.404C392.17 667.404 392.926 667.228 393.502 666.876C394.086 666.532 394.51 666.02 394.774 665.34C395.038 664.66 395.166 663.812 395.158 662.796V659.34H395.362V650.04H396.934V662.82C396.934 663.188 396.922 663.54 396.898 663.876C396.882 664.22 396.846 664.556 396.79 664.884C396.638 665.852 396.322 666.648 395.842 667.272C395.37 667.896 394.746 668.36 393.97 668.664C393.202 668.968 392.29 669.12 391.234 669.12ZM391.114 663.36C389.906 663.36 388.874 663.06 388.018 662.46C387.162 661.852 386.506 661.032 386.05 660C385.594 658.968 385.366 657.804 385.366 656.508C385.366 655.22 385.59 654.06 386.038 653.028C386.494 651.996 387.146 651.18 387.994 650.58C388.842 649.98 389.858 649.68 391.042 649.68C392.258 649.68 393.282 649.976 394.114 650.568C394.946 651.16 395.574 651.972 395.998 653.004C396.43 654.028 396.646 655.196 396.646 656.508C396.646 657.796 396.434 658.96 396.01 660C395.586 661.032 394.962 661.852 394.138 662.46C393.314 663.06 392.306 663.36 391.114 663.36ZM391.294 661.716C392.214 661.716 392.974 661.492 393.574 661.044C394.174 660.596 394.622 659.98 394.918 659.196C395.214 658.404 395.362 657.508 395.362 656.508C395.362 655.492 395.214 654.596 394.918 653.82C394.622 653.036 394.174 652.424 393.574 651.984C392.982 651.544 392.234 651.324 391.33 651.324C390.402 651.324 389.634 651.552 389.026 652.008C388.418 652.464 387.966 653.084 387.67 653.868C387.382 654.652 387.238 655.532 387.238 656.508C387.238 657.492 387.386 658.38 387.682 659.172C387.986 659.956 388.438 660.576 389.038 661.032C389.638 661.488 390.39 661.716 391.294 661.716ZM405.773 663.36C404.509 663.36 403.413 663.08 402.485 662.52C401.565 661.96 400.849 661.172 400.337 660.156C399.825 659.14 399.569 657.948 399.569 656.58C399.569 655.164 399.821 653.94 400.325 652.908C400.829 651.876 401.537 651.08 402.449 650.52C403.369 649.96 404.453 649.68 405.701 649.68C406.981 649.68 408.073 649.976 408.977 650.568C409.881 651.152 410.565 651.992 411.029 653.088C411.493 654.184 411.705 655.492 411.665 657.012H409.865V656.388C409.833 654.708 409.469 653.44 408.773 652.584C408.085 651.728 407.077 651.3 405.749 651.3C404.357 651.3 403.289 651.752 402.545 652.656C401.809 653.56 401.441 654.848 401.441 656.52C401.441 658.152 401.809 659.42 402.545 660.324C403.289 661.22 404.341 661.668 405.701 661.668C406.629 661.668 407.437 661.456 408.125 661.032C408.821 660.6 409.369 659.98 409.769 659.172L411.413 659.808C410.901 660.936 410.145 661.812 409.145 662.436C408.153 663.052 407.029 663.36 405.773 663.36ZM400.817 657.012V655.536H410.717V657.012H400.817Z" fill="#3C402B"/>
    <path d="M146 638V670" stroke="#3C402B" stroke-width="2"/>
    <rect opacity="0.2" x="106" y="437" width="558" height="136" rx="16" fill="white"/>
    <rect opacity="0.2" x="106" y="173" width="612" height="80" rx="16" fill="white"/>
    <path opacity="0.2" d="M515 45H1073V133C1073 141.837 1065.84 149 1057 149H531C522.163 149 515 141.837 515 133V45Z" fill="white"/>
    <rect opacity="0.2" x="428" y="277" width="654" height="136" rx="16" fill="white"/>
  </g>
  <defs>
    <filter id="filter0_d_133_3540" x="0" y="0" width="1190" height="860" filterUnits="userSpaceOnUse" color-interpolation-filters="sRGB">
      <feFlood flood-opacity="0" result="BackgroundImageFix"/>
      <feColorMatrix in="SourceAlpha" type="matrix" values="0 0 0 0 0 0 0 0 0 0 0 0 0 0 0 0 0 0 127 0" result="hardAlpha"/>
      <feOffset dx="2" dy="2"/>
      <feComposite in2="hardAlpha" operator="out"/>
      <feColorMatrix type="matrix" values="0 0 0 0 0.235294 0 0 0 0 0.25098 0 0 0 0 0.168627 0 0 0 0.2 0"/>
      <feBlend mode="normal" in2="BackgroundImageFix" result="effect1_dropShadow_133_3540"/>
      <feBlend mode="normal" in="SourceGraphic" in2="effect1_dropShadow_133_3540" result="shape"/>
    </filter>
    <filter id="filter1_d_133_3540" x="0" y="0" width="1190" height="860" filterUnits="userSpaceOnUse" color-interpolation-filters="sRGB">
      <feFlood flood-opacity="0" result="BackgroundImageFix"/>
      <feColorMatrix in="SourceAlpha" type="matrix" values="0 0 0 0 0 0 0 0 0 0 0 0 0 0 0 0 0 0 127 0" result="hardAlpha"/>
      <feOffset dx="2" dy="2"/>
      <feComposite in2="hardAlpha" operator="out"/>
      <feColorMatrix type="matrix" values="0 0 0 0 0.192157 0 0 0 0 0.207843 0 0 0 0 0.121569 0 0 0 0.2 0"/>
      <feBlend mode="normal" in2="BackgroundImageFix" result="effect1_dropShadow_133_3540"/>
      <feBlend mode="normal" in="SourceGraphic" in2="effect1_dropShadow_133_3540" result="shape"/>
    </filter>
  </defs>
</svg>
