<?xml version="1.0" encoding="UTF-8"?>
<svg width="16px" height="16px" viewBox="0 0 16 16" version="1.1" xmlns="http://www.w3.org/2000/svg" xmlns:xlink="http://www.w3.org/1999/xlink">
    <title>ph-mail</title>
    <g id="Page-1" stroke="none" stroke-width="1" fill="none" fill-rule="evenodd">
        <g id="REFACTOR---Testing-32-line-style-MEDIUM---REFACTOR" transform="translate(-140.000000, -836.000000)">
            <g id="ph-mail" transform="translate(140.000000, 836.000000)">
                <polygon id="Fill-1" points="0 16 16 16 16 0 0 0"></polygon>
                <path d="M14,3 L14.0232225,3.00053956 C14.0417151,3.00139903 14.0601608,3.00327914 14.0784678,3.00617592 C14.0916389,3.00821262 14.1040957,3.01068717 14.1163767,3.0136148 C14.1310651,3.01716426 14.1461374,3.02149177 14.1610122,3.02653543 C14.1739572,3.03088944 14.1867174,3.03582745 14.1992123,3.041261 C14.2134389,3.04743223 14.2274332,3.05429095 14.2411394,3.061836 C14.2551295,3.06959051 14.268966,3.07812087 14.2823348,3.0872839 C14.2912297,3.09330671 14.2998078,3.09960033 14.3082178,3.10619905 C14.3258277,3.12005445 14.3427346,3.13524563 14.3585445,3.15150877 C14.3617261,3.15477413 14.3651732,3.15842433 14.3685771,3.16213769 C14.3843065,3.17960821 14.3957483,3.19383135 14.4063985,3.20866132 L14.3685771,3.16213769 C14.391968,3.18765512 14.4122107,3.21494391 14.4293259,3.24352655 C14.4340328,3.25142885 14.4386122,3.25958219 14.4429657,3.26787276 C14.4521258,3.28531006 14.4600284,3.30282706 14.4668677,3.32064461 C14.4705958,3.33031988 14.4741342,3.34046989 14.4773488,3.35076285 C14.4827934,3.36832277 14.4871756,3.38568788 14.4906124,3.40319271 C14.4967624,3.43433763 14.5,3.46679072 14.5,3.5 L14.4966617,3.44200364 C14.4983609,3.45666028 14.4994111,3.4713722 14.4998144,3.48609327 L14.5,3.5 L14.5,12.5 C14.5,12.7761424 14.2761424,13 14,13 L14,13 L2,13 C1.72385763,13 1.5,12.7761424 1.5,12.5 L1.5,12.5 L1.5,3.5 C1.5,3.49761358 1.50001672,3.49523107 1.50005004,3.49285258 C1.50031157,3.47304317 1.50178328,3.45296998 1.5044625,3.43301713 C1.50584412,3.42264702 1.50748603,3.41274168 1.50941441,3.40293914 C1.51282438,3.38568788 1.51720661,3.36832277 1.52253782,3.35117815 C1.52586581,3.34046989 1.52940416,3.33031988 1.53325433,3.32032472 C1.53997164,3.30282706 1.54787419,3.28531006 1.55684412,3.26818908 C1.56138779,3.25958219 1.56596717,3.25142885 1.57076429,3.24342091 C1.577747,3.23171471 1.58535398,3.22012383 1.59349654,3.20878761 C1.60425169,3.19383135 1.61569348,3.17960821 1.62786508,3.16605373 C1.62909468,3.16469058 1.63025488,3.16341192 1.63142293,3.16213769 L1.64145547,3.15150877 C1.65726541,3.13524563 1.67417229,3.12005445 1.69205666,3.10605467 L1.63142293,3.16213769 C1.65775933,3.13340707 1.68667921,3.10845758 1.717501,3.08731886 C1.73103401,3.07812087 1.7448705,3.06959051 1.75913155,3.06173599 C1.77256681,3.05429095 1.78656109,3.04743223 1.80079156,3.0412621 C1.81328264,3.03582745 1.82604279,3.03088944 1.83904339,3.02647177 C1.85386264,3.02149177 1.86893495,3.01716426 1.88415001,3.01355525 C1.92096534,3.00471297 1.95993228,3 2,3 L1.92153218,3.00617592 C1.9405009,3.00317445 1.95961844,3.00126446 1.97878273,3.00045037 L2,3 L14,3 L14,3 Z M13.5,4.635 L8.33786231,9.36857707 C8.17059677,9.52190382 7.92505161,9.54106967 7.73821616,9.4260746 L7.66213769,9.36857707 L2.5,4.636 L2.5,12 L13.5,12 L13.5,4.635 Z M12.714,4 L3.285,4 L7.999,8.322 L12.714,4 Z" id="Combined-Shape" fill="#000000" fill-rule="nonzero"></path>
            </g>
        </g>
    </g>
</svg>