<svg width="1504" height="1020" viewBox="0 0 1504 1020" fill="none"
  xmlns="http://www.w3.org/2000/svg">
  <g filter="url(#filter0_d_135_5232)">
    <mask id="mask0_135_5232" style="mask-type:alpha" maskUnits="userSpaceOnUse" x="0" y="0" width="1502" height="1018">
      <path d="M501.016 0.500256L501.004 0.499872L500.992 0.500064L10.832 8.34262C5.09926 8.43435 0.5 13.1078 0.5 18.8413V1009V1009.51L1.008 1009.5L501.008 1001.5L1000.98 1017.5L1001 1017.5L1001.01 1017.5L1501.01 1009.5L1501.5 1009.49V1009V9V8.49194L1500.99 8.50006L1000.99 16.5001L501.016 0.500256Z" fill="white" stroke="#3C402B"/>
    </mask>
    <g mask="url(#mask0_135_5232)">
      <path d="M501.016 0.500256L501.004 0.499872L500.992 0.500064L10.832 8.34262C5.09926 8.43435 0.5 13.1078 0.5 18.8413V1009V1009.51L1.008 1009.5L501.008 1001.5L1000.98 1017.5L1001 1017.5L1001.01 1017.5L1501.01 1009.5L1501.5 1009.49V1009V9V8.49194L1500.99 8.50006L1000.99 16.5001L501.016 0.500256Z" fill="#EEE1C9"/>
      <path d="M501.016 0.500256L501.004 0.499872L500.992 0.500064L10.832 8.34262C5.09926 8.43435 0.5 13.1078 0.5 18.8413V1009V1009.51L1.008 1009.5L501.008 1001.5L1000.98 1017.5L1001 1017.5L1001.01 1017.5L1501.01 1009.5L1501.5 1009.49V1009V9V8.49194L1500.99 8.50006L1000.99 16.5001L501.016 0.500256Z" fill="white" fill-opacity="0.7"/>
      <path d="M501.016 0.500256L501.004 0.499872L500.992 0.500064L10.832 8.34262C5.09926 8.43435 0.5 13.1078 0.5 18.8413V1009V1009.51L1.008 1009.5L501.008 1001.5L1000.98 1017.5L1001 1017.5L1001.01 1017.5L1501.01 1009.5L1501.5 1009.49V1009V9V8.49194L1500.99 8.50006L1000.99 16.5001L501.016 0.500256Z" stroke="#3C402B"/>
      <path opacity="0.5" d="M1001 17L1501 9V1009L1001 1017V17Z" fill="white"/>
      <path d="M422.77 1020.18C426.374 1046.2 441.643 1084.56 468.062 1095.32L466.409 1093.67C472.344 1093.67 477.758 1092.4 483.313 1092.02C492.073 1091.41 501.911 1091.25 510.506 1089.54C520.924 1087.45 505.737 1096.79 516.325 1095.91C535.981 1094.27 555.873 1095.08 575.581 1095.08C622.273 1095.08 668.201 1094.47 714.488 1101.33C815.125 1116.23 915.565 1110.63 1016.92 1108.67C1075.19 1107.55 1133.68 1112.12 1191.84 1114.92C1273.9 1118.87 1356.08 1120.91 1438.24 1119.61C1504.5 1118.55 1572.31 1116.46 1636.49 1098.39C1656.39 1092.78 1676.08 1085.81 1692.72 1073.22C1714.54 1056.7 1730.39 1032.82 1738.01 1006.62C1744.03 985.929 1747.42 964.485 1753.81 943.878C1758.24 929.624 1761.19 914.103 1762.54 899.234C1764.24 880.522 1761.17 855.205 1754.27 837.689C1748.12 822.08 1746.34 802.276 1734.7 789.187C1711.01 762.541 1663.06 758.821 1630.61 749.871C1617.18 746.165 1603.64 747.758 1591.75 739.491C1575.8 728.397 1561.38 712.618 1549.59 697.327C1523.41 663.401 1508.25 619.417 1520.65 576.715C1525.12 561.304 1535.29 549.1 1541.32 534.46C1545.05 525.401 1543.97 512.271 1549.95 504.789C1559.33 493.065 1577.84 489.109 1590.93 483.294C1597.43 480.405 1605.05 481.245 1611.6 478.334C1624.56 472.572 1640.37 452.784 1637.23 438.65C1634.99 428.572 1625.28 422.51 1617.39 417.247C1609.49 411.984 1599.12 413.903 1590.93 409.806C1579.65 404.167 1571.5 394.218 1561.16 387.393C1551.55 381.045 1540.51 376.291 1531.39 369.204C1520.37 360.633 1511.44 351.893 1498.32 346.791C1490.51 343.753 1484.94 346.056 1476.82 346.056C1465.57 346.056 1456.5 340.62 1448.62 332.736C1442.75 326.865 1429.93 313.598 1429.6 304.351C1429.22 293.633 1439.81 288.214 1444.12 279.917C1451.82 265.081 1447.24 247.409 1443.2 231.835L1443.02 231.139C1441.29 224.474 1438.18 213.223 1441.27 206.429C1445.16 197.865 1451.05 190.687 1455.33 182.362C1460.36 172.567 1464.15 160.931 1466.53 150.211C1468.89 139.611 1471.42 131.014 1460.29 126.144C1441.52 117.934 1422.95 128.744 1404.06 131.104C1386.56 133.291 1367.24 137.611 1349.58 133.493C1338.52 130.912 1327.85 128.106 1316.42 127.797C1290.89 127.107 1309.62 104.268 1307.23 91.5127C1305.9 84.3896 1297.52 82.5274 1294.1 76.4477C1289.6 68.4568 1293.95 59.7914 1298.96 53.0235C1305.22 44.5753 1346.88 17.4355 1342.51 10.0145C1339.65 5.15372 1335.18 0.888924 1331.3 -3.21328C1328.04 -6.67197 1334.13 -18.0516 1336.26 -21.4015C1343.08 -32.1051 1344.75 -46.3821 1347.01 -58.6046C1349.15 -70.1345 1343.77 -74.6599 1333.32 -67.6987C1327.37 -63.7313 1325.91 -56.6099 1321.75 -51.164C1314.93 -42.2458 1304.34 -39.1091 1294.19 -35.456C1275.54 -28.7438 1255.96 -24.6213 1237.69 -17.1759C1226.96 -12.8076 1244.87 -7.23428 1235.27 -0.833122C1234.04 -0.0147324 1196.28 -3.21327 1183.69 1.56575C1165.87 8.3273 1219.65 19.2284 1225.47 33.9167C1228.5 41.5844 1232.22 54.7716 1232.08 62.9443C1231.83 78.6156 1216.23 79.5146 1206.73 87.2871C1203.49 89.9352 1204.06 108.001 1203.05 112.181C1201 120.664 1193.93 137.861 1203.05 144.699C1217.51 155.542 1236.04 152.104 1252.57 151.038C1266.31 150.152 1279.33 158.369 1289.23 167.481C1295.78 173.516 1298.96 167.454 1306.13 169.502C1316.91 172.581 1329.2 175.303 1335.44 185.853C1342.61 197.992 1351.64 210.029 1355.28 223.791C1360.3 242.77 1369.5 262.925 1367.32 282.856C1364.98 304.143 1354.03 329.376 1338.28 344.035C1332.96 348.989 1316.07 342.426 1308.79 343.667C1292.43 346.461 1273.41 352.854 1258.91 360.937C1246.32 367.952 1246.81 389.918 1242.01 403.009C1238.13 413.57 1233.54 423.027 1232.08 434.333C1230.66 445.36 1227.96 457.079 1224.46 467.586C1220.14 480.548 1212.78 488.666 1204.15 498.726C1201.64 501.664 1200.03 501.661 1202.32 505.157C1209.42 516.012 1208.93 531.984 1208.93 544.473C1208.93 559.362 1209.48 574.997 1199.65 587.371C1181.3 610.478 1132.77 600.797 1123.37 572.582C1108.35 527.529 1106.77 566.042 1091.29 587.371C1078.7 604.711 1069.44 611.271 1073.21 638.353C1075.04 651.529 1043.89 664.897 1055.57 675.74C1060.39 680.221 1067.26 681.272 1073.21 683.548C1090.54 690.188 1095.02 700.938 1108.43 713.77C1119.39 724.265 1120.38 730.049 1117.61 743.624C1111.26 774.829 1081.56 792.511 1055.14 804.068C1042.53 809.585 1030.87 813.033 1017.48 816.01C1001.7 819.516 999.02 834.118 996.405 848.386L996.345 848.712C994.258 860.094 992.551 874.009 988.169 884.721C986.123 889.72 982.772 890.212 977.788 889.957C957.223 888.902 937.713 885.617 917.521 881.781C893.024 877.127 871.48 868.553 846.23 868.553C832.132 868.553 807.459 873.131 794.874 864.42C783.898 856.821 773.674 842.011 767.497 830.432C760.813 817.9 763.288 806.116 760.423 793.228C758 782.325 755.136 771.734 755.922 760.343C756.896 746.211 766.171 736.821 771.999 724.701C777.432 713.402 778.025 705.045 788.535 696.592C797.183 689.637 810.883 684.071 817.934 675.74C828.622 663.11 822.709 658.657 817.934 646.069C814.719 637.594 822.187 618.825 811.687 615.204C800.991 611.517 792.097 607.814 784.309 599.405C781.003 595.834 780.724 585.554 774.847 584.248C768.784 582.901 745.915 587.9 744.162 581.768C742.226 574.991 739.642 569.865 741.866 561.926C743.413 556.401 747.193 552.424 752.522 550.352C755.491 549.197 758.983 550.488 759.137 546.493C759.557 535.589 753.165 525.332 742.233 523.345C730.944 521.293 720.52 529.992 712.008 536.297C694.947 548.933 678.967 558.018 659.091 565.968C643.536 572.189 627.83 577.329 613.432 585.626C602.461 591.947 593.257 599.036 583.85 607.396C572.307 617.656 557.903 626.296 548.204 638.353C530.837 659.942 549.255 696.014 553.165 718.914C555.695 733.733 559.666 749.344 560.606 764.385C561.21 774.04 557.928 785.88 570.988 785.88C574.748 785.88 557.89 807.693 556.105 810.682C546.887 826.114 556.594 844.542 564.006 858.541C570.851 871.47 576.071 882.243 571.539 897.03C566.957 911.981 549.283 930.679 533.505 932.855C521.287 934.54 533.326 919.083 525.205 910.225C520.652 905.259 515.27 905.124 509.771 901.866C493.161 892.024 478.677 911.438 468.062 922.534C461.782 929.099 456.487 931.735 456.487 940.814C456.487 951.597 456.162 959.644 446.197 965.984C426.476 978.532 419.508 996.621 422.77 1020.18Z" fill="#1F7FEA" fill-opacity="0.1" stroke="#1F7FEA" stroke-opacity="0.5" stroke-linecap="round"/>
      <path d="M-243.07 462.267C-259.334 455.28 -291.803 439.272 -284.426 416.086L-278.223 401.611C-278.223 364.318 -261.68 330.116 -261.68 293.166C-261.68 257.364 -259.708 216.473 -247.205 182.538C-239.239 160.913 -232.95 138.138 -226.814 115.912L-226.527 114.874C-215.855 76.2229 -200.932 39.549 -185.63 2.5226C-159.973 -59.5625 -126.196 -125.186 -61.4465 -152.449C-44.7401 -159.483 -22.8061 -160.613 -4.81131 -160.835C19.9943 -161.141 44.8227 -160.835 69.6301 -160.835C176.68 -160.835 284.112 -162.101 391.061 -157.618C487.901 -153.559 588.363 -156.061 683.772 -148.428C692.01 -147.769 703.469 -140.304 711.113 -136.94C725.458 -130.628 739.805 -114.434 746.151 -100.639C771.068 -46.4718 732.73 -0.359131 686.529 22.7413C649.352 41.3299 609.071 39.0152 573.948 61.4554C545.557 79.5941 514.12 106.228 507.088 140.607C505.055 150.546 507.519 161.127 505.365 170.82C504.811 173.312 493.932 172.334 491.924 171.969C483.07 170.359 478.601 158.164 471.935 153.473C466.722 149.805 459.388 146.222 455.852 140.607C451.365 133.479 457.547 116.998 461.022 110.049C466.522 99.0481 462.762 87.5556 457.69 76.8492C452.277 65.4213 441.493 40.5674 425.869 41.926C416.769 42.7173 406.422 45.0494 398.873 50.0824C361.941 74.7034 315.848 76.4567 274.918 92.4727C271.428 93.8384 251.564 102.085 251.138 105.913C250.023 115.957 258.771 123.101 267.222 126.592C298.353 139.45 328.045 114.406 357.401 112.232C365.704 111.617 372.433 116.081 370.612 124.983C368.081 137.357 365.784 149.458 362.801 161.745C358.491 179.49 359.761 197.898 355.563 215.623C351.7 231.933 346.622 246.026 339.136 261C329.496 280.28 340.889 323.46 311.105 328.778C284.264 333.571 246.199 320.963 242.982 361.174C241.526 379.374 245.435 393.484 226.325 403.22C215.655 408.655 198.502 411.534 195.422 425.391C194.269 430.579 194.316 434.802 188.989 437.798C179.025 443.403 169.86 451.318 164.29 461.578C160.224 469.068 158.648 465.548 152.343 461.578C145.557 457.305 132.194 447.913 138.557 437.913C142.674 431.445 150.802 427.729 154.755 421.141C165.626 403.023 139.577 367.279 120.866 372.202C107.319 375.767 98.9787 390.785 85.7131 396.212C72.3615 401.674 53.152 400.114 38.9575 402.76C9.72678 408.21 -21.8631 414.533 -37.4368 442.508C-50.7894 466.493 -51.3428 493.521 -83.8479 496.271C-137.915 500.846 -194.115 483.297 -243.07 462.267Z" fill="#1F7FEA" fill-opacity="0.1" stroke="#1F7FEA" stroke-opacity="0.5" stroke-linecap="round"/>
      <path d="M-248.687 780.565C-263.39 796.591 -280.311 807.68 -297.088 820.863L-299.234 810.133C-302.579 816.824 -312.669 817.671 -316.4 824.201C-320.831 831.956 -326.47 837.704 -329.275 846.615C-333.547 860.186 -331.553 876.442 -331.421 890.49C-330.762 961.012 -320.522 1032.1 -313.182 1102.11C-308.006 1151.49 -300.987 1200.66 -296.134 1250.07C-291.579 1296.45 -286.391 1340.91 -293.035 1387.42C-299.432 1432.21 -310.187 1476.67 -303.048 1522.14C-297.901 1554.94 -284.032 1584 -281.59 1617.52C-280.403 1633.82 -279.78 1655.2 -268.715 1668.55C-257.611 1681.95 -222.215 1679.28 -207.678 1679.28C-149.531 1679.28 -92.0502 1668.79 -36.9638 1650.43C-4.70282 1639.68 25.012 1627.55 49.3468 1603.22C63.7023 1588.86 71.9974 1576.03 71.9974 1555.89C71.9974 1542.63 66.292 1531.94 56.9765 1522.62C52.0673 1517.71 48.8105 1518.33 41.9555 1518.33C31.5605 1518.33 21.6039 1516.55 11.4369 1514.51C-14.1454 1509.4 -40.2023 1501.14 -53.5345 1477.43C-58.3197 1468.93 -64.6313 1462.51 -65.3366 1452.28C-65.7561 1446.2 -69.0789 1441.07 -71.7742 1435.83C-77.2025 1425.27 -78.2117 1420.82 -78.2117 1408.88C-78.2117 1398.89 -61.1519 1396.13 -53.6537 1398.27C-50.5905 1399.14 -48.2891 1408.76 -46.9778 1411.15C-40.529 1422.87 -34.8712 1434.25 -25.6385 1444.17C-3.18878 1468.29 27.5156 1458.69 56.4996 1458.24C78.9428 1457.89 107.46 1460.01 128.862 1452.87C146.149 1447.11 153.522 1445.94 159.5 1428.67C163.39 1417.43 171.075 1412.53 180.959 1406.73C193.014 1399.67 212.935 1399.4 226.379 1397.08C245.638 1393.74 162.061 1347.83 180.959 1343C197.208 1338.84 209.549 1326.79 226.379 1326.79C261.863 1326.79 303.419 1307.61 325.684 1279.57C337.954 1264.12 345.049 1259.69 364.786 1251.79C382.363 1244.76 404.041 1248.78 394.708 1223.89C388.316 1206.84 353.859 1206.93 341.182 1212.57C332.273 1216.53 322.468 1211.5 316.504 1205.53C314.896 1203.93 307.185 1198.18 310.067 1195.88C312.765 1193.72 313.763 1189.38 313.166 1186.1C308.729 1161.69 323.85 1144.29 311.14 1119.57C307.871 1113.22 305.611 1113.71 310.067 1107.77C314.223 1102.23 317.391 1096.89 320.796 1090.84C328.865 1076.49 328.166 1056.53 321.869 1041.84C316.228 1028.67 291.968 1040.13 280.025 1039.1C263.544 1037.66 257.417 1030.26 252.248 1015.49C250.651 1010.93 250.784 998.418 246.764 995.817C241.689 992.532 238.009 992.009 232.22 989.856C225.846 987.483 217.427 987.926 214.1 981.271C211.782 976.635 211.404 972.636 208.616 967.918C189.712 935.923 256.974 933.519 274.78 893.948C279.127 884.285 291.721 871.883 302.08 868.553C305.932 867.314 313.565 871.297 317.577 871.891C353.045 877.146 391.14 868.966 422.962 853.054C428.429 850.32 428.207 848.994 428.207 843.158C428.207 834.838 430.503 830.595 433.453 823.009C440.414 805.107 429.789 783.181 447.52 768.404C455.957 761.372 467.034 758.077 460.872 745.751C455.363 734.732 463.227 729.691 466.356 719.522C471.54 702.67 449.799 693.903 445.613 680.297C439.259 659.647 457.863 640.566 465.521 623.545C475.108 602.239 439.783 578.985 422.247 578.359C404.029 577.708 389.081 575.998 371.343 570.848C360.786 567.783 349.158 564.051 340.943 556.422C337.023 552.781 332.397 547.133 327.353 545.692C316.291 542.531 309.634 529 299.457 529C266.568 529 257.96 574.067 224.233 574.067C198.249 574.067 173.541 567.629 147.102 567.629C138.528 567.629 129.633 566.861 121.233 568.821C109.165 571.637 102.071 576.078 91.31 581.459C76.1355 589.047 58.1195 584.262 49.3468 601.012C41.905 615.22 32.5949 631.011 20.0202 641.072C12.6483 646.97 4.81345 652.78 -3.94168 656.452C-7.38403 657.895 -12.4421 658.265 -15.5054 660.386C-23.9341 666.222 -40.7759 667.505 -50.7926 670.162C-66.8322 674.418 -80.8428 674.922 -97.0474 672.308C-120 668.606 -130.034 668.554 -149.263 682.443C-158.78 689.316 -168.356 694.255 -178.828 699.492C-186.075 703.116 -191.83 701.308 -199.213 702.949C-203.964 704.005 -204.626 713.291 -205.77 716.66C-209.251 726.909 -214.812 736.228 -219.837 745.751C-226.337 758.067 -239.354 770.392 -248.687 780.565Z" fill="#A4B55B" fill-opacity="0.2" stroke="#A4B55B" stroke-opacity="0.8" stroke-linecap="round"/>
      <path d="M574.649 205.604C579.02 195.334 590.71 191.476 595.725 181.711V180.675C601.477 180.675 605.687 183.784 611.192 183.784C615.957 183.784 628.075 182.654 628.075 190.232C628.075 199.209 633.423 200.377 638.858 206.122C640.975 208.36 643.017 213.953 646.755 212.224C651.326 210.11 654.306 205.421 658.028 202.092C663.124 197.534 669.151 195.323 675.565 193.686C686.716 190.841 694.914 198.864 704.538 188.965C710.963 182.356 716.85 175.373 722.946 168.47C731.393 158.902 736.516 145.956 751.048 149.643C757.403 151.256 763.144 155.823 769.455 157.876C773.336 159.138 777.059 161.14 781.219 160.755C784.821 160.422 788.223 159.032 791.784 158.51C799.726 157.344 805.627 160.062 808.994 167.894C813.299 177.905 809.846 187.526 806.387 197.163L806.271 197.486C802.167 208.924 798.277 220.518 794.671 232.145C789.81 247.816 779.353 259.513 772.07 273.827C767.096 283.602 767.288 293.77 766.297 304.513C765.499 313.158 762.354 320.158 757.855 327.369C751.704 337.228 741.793 346.524 739.284 358.458C737.254 368.117 738.455 378.163 736.833 387.878C735.371 396.64 725.15 403.855 720.223 410.734C716.54 415.875 716.412 417.874 716.302 424.206C716.186 430.799 713.227 436.613 714.886 443.377C716.922 451.681 719.269 457.919 717.282 466.694C716.498 470.154 716.191 474.817 715.158 478.094C713.501 483.349 704.071 487.567 699.745 488.86C691.67 491.272 688.396 494.926 681.991 500.662C675.523 506.454 671.227 506.898 663.365 504.98C650.722 501.895 651.669 485.923 640.328 482.814C635.035 481.364 628.726 481.815 624.154 478.324C620.621 475.627 617.391 471.981 614.296 468.709C606.452 460.417 596.978 454.259 585.922 454.259C565.138 454.259 534.187 449.384 529.609 423.112C528.197 415.007 528.572 405.947 523.51 399.104C516.69 389.886 505.916 384.781 498.24 376.478C486.272 363.533 481.752 341.653 482.01 323.915C482.13 315.714 487.937 314.066 491.051 308.14C495.402 299.86 507.574 298.222 514.85 294.15C523.065 289.553 536.223 288.441 541.809 279.584C545.393 273.9 542.323 264.647 546.492 260.24C549.693 256.856 556.732 256.601 558.256 251.949C559.521 248.085 561.594 243.815 564.355 240.896C567.102 237.992 570.158 236.553 571.653 232.49C572.971 228.909 571.145 222.983 571.217 219.018C571.301 214.417 572.879 209.76 574.649 205.604Z" fill="#A4B55B" fill-opacity="0.2" stroke="#A4B55B" stroke-opacity="0.8" stroke-linecap="round"/>
      <path d="M1035.16 363.992C1041.86 354.863 1024.5 333.789 1039.15 333.789H1043.5C1053.5 334.5 1056.56 331.865 1058.64 332.459C1060.76 333.066 1062.05 336.959 1063.37 338.441C1066.22 341.645 1068.25 344 1071.64 346.712C1076.1 350.279 1095.42 346.683 1096.67 341.026C1099.67 327.531 1112.4 317.01 1095.27 306.54C1089.39 302.949 1081.84 303.98 1075.63 300.484C1072.55 298.755 1068.03 296.118 1064.7 295.167C1056.04 292.693 1047.76 288.336 1039.15 285.567C1035.74 284.472 1031.23 285.455 1028.14 283.795C1023.67 281.384 1020.44 277.394 1016.85 273.9C1008.82 266.093 998.889 258.657 996.613 247.02C994.256 234.975 991.713 228.338 980.957 221.765C975.433 218.389 975.266 206.109 967 206.109C960.56 206.109 953.74 206.446 948.465 210.762C942.618 215.545 941.465 228.825 941.081 235.943C940.137 253.401 929.541 267.954 915.825 277.592C909.418 282.094 903.649 283.566 897.955 289.26C890.561 296.653 882.975 302.002 879.346 312.373C875.555 323.203 885.345 326.573 888.502 333.789C892.62 343.201 872.436 342.872 868.047 340.952C860.92 337.833 861.1 328.218 858.964 322.047C851.052 299.19 824.22 294.54 809.487 313.481C801.517 323.729 803.1 342.268 802.841 354.687C802.707 361.121 799.879 367.774 798.854 374.182C797.816 380.668 798.471 386.174 798.928 392.791C800.031 408.791 807.989 419.895 821.377 427.425C831.016 432.847 837.222 440.768 846.115 447.29C852.393 451.893 861.143 453.744 866.349 459.991C892.763 496.5 852.583 502.935 855.871 508.914C862.746 521.414 878.56 511.282 886 505C892.94 499.14 916.053 458.215 921.881 451.277C927.672 444.382 934.223 439.702 941.671 434.736C954.412 426.242 962.219 416.966 971.062 404.754C976.862 396.745 983.759 388.311 992.182 382.896C1000.29 377.682 1010.35 377.629 1019.43 375.511C1026.22 373.928 1031.1 369.516 1035.16 363.992Z" fill="#A4B55B" fill-opacity="0.2" stroke="#A4B55B" stroke-opacity="0.8" stroke-linecap="round"/>
      <path opacity="0.3" d="M501 1L1001 17V1017L501 1001V1Z" fill="url(#paint0_linear_135_5232)"/>
      <path d="M387.013 334.514C381.764 334.611 376.769 336.787 373.122 340.563C369.476 344.339 367.476 349.408 367.561 354.657C367.857 371.597 386.078 384.076 386.854 384.598C387.16 384.805 387.523 384.913 387.892 384.906C388.262 384.9 388.62 384.78 388.919 384.562C389.677 384.014 407.451 370.906 407.155 353.965C407.058 348.717 404.882 343.721 401.106 340.075C397.33 336.428 392.262 334.428 387.013 334.514Z" fill="#AB989B"/>
      <path d="M397.545 348.812C397.648 348.706 397.717 348.571 397.743 348.425C397.77 348.279 397.752 348.128 397.693 347.992C397.634 347.856 397.536 347.74 397.411 347.66C397.286 347.58 397.14 347.538 396.992 347.541L377.495 347.881C377.346 347.884 377.202 347.93 377.08 348.015C376.958 348.099 376.864 348.218 376.809 348.356C376.755 348.494 376.743 348.646 376.774 348.791C376.806 348.936 376.88 349.068 376.986 349.171L386.682 358.533L386.781 364.222L383.782 364.274C383.583 364.278 383.393 364.36 383.255 364.503C383.117 364.646 383.041 364.838 383.045 365.037C383.048 365.236 383.131 365.425 383.274 365.564C383.417 365.702 383.609 365.777 383.808 365.774L391.307 365.643C391.506 365.64 391.695 365.557 391.833 365.414C391.971 365.271 392.047 365.079 392.044 364.88C392.04 364.681 391.958 364.492 391.815 364.354C391.672 364.216 391.479 364.14 391.281 364.143L388.281 364.196L388.182 358.507L397.545 348.812ZM395.205 349.073L393.731 350.598L380.857 350.823L379.331 349.35L395.205 349.073Z" fill="#F7F0E4"/>
      <path d="M336.013 356.514C330.764 356.611 325.769 358.787 322.122 362.563C318.476 366.339 316.476 371.408 316.561 376.657C316.857 393.597 335.078 406.076 335.854 406.598C336.16 406.805 336.523 406.913 336.892 406.906C337.262 406.9 337.62 406.78 337.919 406.562C338.677 406.014 356.451 392.906 356.155 375.965C356.058 370.717 353.882 365.721 350.106 362.075C346.33 358.428 341.262 356.428 336.013 356.514Z" fill="#AB989B"/>
      <path d="M344.505 370.318L344.806 387.566C344.809 387.765 344.734 387.957 344.595 388.1C344.457 388.243 344.268 388.325 344.069 388.329C343.87 388.332 343.678 388.257 343.535 388.118C343.392 387.98 343.31 387.791 343.306 387.592L343.228 383.093L338.728 383.171C338.529 383.175 338.337 383.099 338.194 382.961C338.051 382.823 337.969 382.633 337.965 382.434C337.969 380.638 338.164 378.846 338.549 377.091C339.399 373.28 341.093 370.705 343.448 369.648C343.561 369.597 343.685 369.575 343.809 369.584C343.932 369.593 344.052 369.632 344.157 369.699C344.261 369.765 344.348 369.856 344.409 369.965C344.47 370.073 344.503 370.194 344.505 370.318ZM335.494 370.353C335.477 370.255 335.442 370.161 335.388 370.076C335.335 369.992 335.266 369.919 335.184 369.862C335.103 369.805 335.011 369.765 334.914 369.744C334.816 369.722 334.716 369.721 334.618 369.739C334.52 369.757 334.427 369.794 334.343 369.849C334.26 369.903 334.188 369.974 334.133 370.057C334.077 370.139 334.038 370.232 334.019 370.329C333.999 370.427 333.999 370.528 334.019 370.625L334.825 374.988L332.585 375.027L332.507 370.528C332.503 370.329 332.421 370.14 332.278 370.001C332.135 369.863 331.943 369.788 331.744 369.791C331.545 369.795 331.355 369.877 331.217 370.02C331.079 370.163 331.003 370.355 331.007 370.554L331.085 375.053L328.846 375.092L329.499 370.704C329.515 370.606 329.512 370.505 329.489 370.409C329.466 370.312 329.424 370.22 329.365 370.14C329.307 370.059 329.233 369.991 329.148 369.94C329.063 369.888 328.968 369.854 328.869 369.839C328.771 369.825 328.671 369.83 328.574 369.854C328.478 369.879 328.387 369.922 328.307 369.982C328.228 370.042 328.161 370.117 328.111 370.204C328.061 370.29 328.028 370.385 328.015 370.483L327.344 374.996C327.338 375.037 327.335 375.078 327.336 375.119C327.356 376.182 327.751 377.203 328.451 378.003C329.152 378.802 330.112 379.329 331.163 379.489L331.308 387.801C331.311 388 331.394 388.19 331.537 388.328C331.68 388.466 331.872 388.542 332.071 388.538C332.27 388.535 332.459 388.452 332.597 388.309C332.735 388.166 332.811 387.974 332.808 387.775L332.663 379.463C333.707 379.266 334.649 378.706 335.321 377.883C335.992 377.059 336.352 376.025 336.335 374.962C336.334 374.921 336.33 374.88 336.322 374.839L335.494 370.353Z" fill="#F7F0E4"/>
      <path d="M319.36 640.004C314.112 640.102 309.116 642.277 305.47 646.053C301.823 649.829 299.823 654.898 299.909 660.147C300.205 677.087 318.425 689.567 319.202 690.089C319.508 690.295 319.871 690.403 320.24 690.396C320.61 690.39 320.968 690.27 321.267 690.053C322.025 689.504 339.799 676.396 339.503 659.456C339.405 654.207 337.23 649.211 333.454 645.565C329.678 641.918 324.609 639.918 319.36 640.004Z" fill="#A4B55B"/>
      <path d="M320.374 655.064C320.365 654.545 320.51 654.035 320.791 653.598C321.071 653.162 321.475 652.818 321.952 652.611C322.428 652.404 322.954 652.343 323.465 652.435C323.976 652.528 324.448 652.769 324.822 653.13C325.195 653.491 325.453 653.954 325.563 654.461C325.674 654.969 325.631 655.497 325.441 655.98C325.25 656.464 324.921 656.879 324.494 657.175C324.068 657.471 323.563 657.634 323.044 657.643C322.348 657.655 321.676 657.39 321.175 656.907C320.674 656.423 320.386 655.76 320.374 655.064ZM331.777 669.117C331.713 669.233 331.62 669.329 331.506 669.397C331.393 669.465 331.264 669.502 331.132 669.504L308.631 669.896C308.499 669.899 308.368 669.866 308.253 669.802C308.137 669.737 308.041 669.643 307.973 669.53C307.906 669.416 307.869 669.287 307.868 669.155C307.867 669.022 307.9 668.892 307.965 668.777L314.614 657.029C314.743 656.801 314.928 656.611 315.153 656.478C315.377 656.344 315.633 656.272 315.894 656.267C316.155 656.262 316.413 656.326 316.642 656.452C316.871 656.578 317.063 656.761 317.199 656.984L321.527 664.045L323.907 659.865C324.035 659.638 324.22 659.448 324.444 659.314C324.668 659.181 324.923 659.109 325.184 659.106C325.445 659.1 325.702 659.163 325.931 659.288C326.16 659.413 326.352 659.596 326.488 659.818L331.752 668.36C331.823 668.473 331.863 668.602 331.867 668.735C331.872 668.868 331.84 669 331.777 669.117ZM313.776 661.555L318.195 661.478L315.92 657.767L313.776 661.555Z" fill="#F7F0E4"/>
      <path d="M632.677 332.346C627.428 332.26 622.36 334.26 618.584 337.906C614.807 341.553 612.632 346.549 612.534 351.797C612.239 368.737 630.013 381.845 630.77 382.394C631.069 382.611 631.428 382.731 631.797 382.738C632.167 382.744 632.529 382.637 632.836 382.43C633.612 381.908 651.833 369.428 652.128 352.488C652.214 347.239 650.214 342.171 646.568 338.395C642.921 334.619 637.925 332.443 632.677 332.346Z" fill="#A4B55B"/>
      <path d="M633.164 347.431C633.173 346.912 633.336 346.407 633.632 345.981C633.928 345.554 634.343 345.225 634.826 345.035C635.309 344.844 635.838 344.802 636.345 344.912C636.853 345.022 637.316 345.28 637.677 345.653C638.037 346.027 638.279 346.499 638.372 347.01C638.464 347.521 638.403 348.048 638.196 348.524C637.989 349 637.645 349.404 637.209 349.685C636.772 349.965 636.262 350.111 635.743 350.102C635.047 350.089 634.384 349.801 633.9 349.3C633.417 348.8 633.152 348.127 633.164 347.431ZM644.07 361.874C644.002 361.987 643.905 362.08 643.79 362.144C643.674 362.208 643.544 362.24 643.412 362.237L620.91 361.844C620.778 361.842 620.649 361.805 620.536 361.736C620.423 361.668 620.33 361.571 620.266 361.455C620.203 361.339 620.171 361.209 620.174 361.077C620.177 360.944 620.215 360.815 620.284 360.703L627.339 349.193C627.476 348.971 627.668 348.787 627.897 348.662C628.126 348.536 628.384 348.472 628.645 348.477C628.906 348.481 629.162 348.554 629.386 348.688C629.61 348.821 629.796 349.011 629.925 349.239L634.003 356.447L636.528 352.352C636.663 352.13 636.855 351.946 637.083 351.821C637.312 351.695 637.569 351.632 637.83 351.638C638.091 351.641 638.346 351.713 638.57 351.846C638.795 351.979 638.98 352.168 639.108 352.396L644.072 361.116C644.139 361.231 644.174 361.362 644.173 361.495C644.173 361.628 644.137 361.759 644.07 361.874ZM626.344 353.688L630.763 353.765L628.619 349.977L626.344 353.688Z" fill="#F7F0E4"/>
      <path d="M52.3605 746.004C47.1119 746.102 42.1164 748.277 38.4698 752.053C34.8232 755.829 32.8234 760.898 32.909 766.147C33.2047 783.087 51.4253 795.567 52.2018 796.089C52.5081 796.295 52.8706 796.403 53.2401 796.396C53.6095 796.39 53.9681 796.27 54.267 796.053C55.0247 795.504 72.7987 782.396 72.503 765.456C72.4054 760.207 70.2299 755.211 66.4538 751.565C62.6776 747.918 57.6092 745.918 52.3605 746.004Z" fill="#A4B55B"/>
      <path d="M53.3736 761.064C53.3646 760.545 53.5097 760.035 53.7905 759.598C54.0714 759.162 54.4754 758.818 54.9515 758.611C55.4276 758.404 55.9545 758.343 56.4653 758.435C56.9762 758.528 57.4483 758.769 57.8217 759.13C58.1952 759.491 58.4533 759.954 58.5635 760.461C58.6736 760.969 58.6309 761.497 58.4406 761.98C58.2503 762.464 57.9211 762.879 57.4945 763.175C57.0679 763.471 56.5632 763.634 56.0441 763.643C55.348 763.655 54.6756 763.39 54.1748 762.907C53.674 762.423 53.3858 761.76 53.3736 761.064ZM64.7769 775.117C64.7129 775.233 64.6196 775.329 64.5063 775.397C64.3931 775.465 64.264 775.502 64.132 775.504L41.6307 775.896C41.4986 775.899 41.3681 775.866 41.2527 775.802C41.1373 775.737 41.0409 775.643 40.9733 775.53C40.9057 775.416 40.8694 775.287 40.868 775.155C40.8665 775.022 40.9001 774.892 40.9651 774.777L47.6142 763.029C47.7428 762.801 47.9284 762.611 48.1529 762.478C48.3773 762.344 48.6328 762.272 48.894 762.267C49.1551 762.262 49.413 762.326 49.6419 762.452C49.8709 762.578 50.0631 762.761 50.1995 762.984L54.5271 770.045L56.907 765.865C57.0345 765.638 57.2197 765.448 57.4438 765.314C57.668 765.181 57.9232 765.109 58.184 765.106C58.4446 765.1 58.7022 765.163 58.931 765.288C59.1598 765.413 59.3517 765.596 59.4875 765.818L64.7524 774.36C64.8233 774.473 64.863 774.602 64.8673 774.735C64.8716 774.868 64.8404 775 64.7769 775.117ZM46.7762 767.555L51.1949 767.478L48.9201 763.767L46.7762 767.555Z" fill="#F7F0E4"/>
      <path d="M135.16 905.602C129.912 905.699 124.916 907.875 121.27 911.651C117.623 915.427 115.623 920.496 115.709 925.744C116.005 942.685 134.225 955.164 135.002 955.686C135.308 955.893 135.67 956 136.04 955.994C136.409 955.988 136.768 955.868 137.067 955.65C137.825 955.101 155.598 941.993 155.303 925.053C155.205 919.805 153.03 914.809 149.254 911.163C145.477 907.516 140.409 905.516 135.16 905.602Z" fill="#A4B55B"/>
      <path d="M136.173 920.662C136.164 920.143 136.309 919.633 136.59 919.196C136.871 918.759 137.275 918.416 137.751 918.209C138.227 918.002 138.754 917.941 139.265 918.033C139.776 918.125 140.248 918.367 140.622 918.728C140.995 919.088 141.253 919.552 141.363 920.059C141.473 920.566 141.431 921.095 141.24 921.578C141.05 922.061 140.721 922.477 140.294 922.773C139.868 923.069 139.363 923.232 138.844 923.241C138.148 923.253 137.475 922.988 136.975 922.504C136.474 922.021 136.186 921.358 136.173 920.662ZM147.577 934.715C147.513 934.83 147.419 934.927 147.306 934.995C147.193 935.063 147.064 935.099 146.932 935.101L124.431 935.494C124.298 935.496 124.168 935.464 124.053 935.399C123.937 935.335 123.841 935.241 123.773 935.128C123.706 935.014 123.669 934.884 123.668 934.752C123.666 934.62 123.7 934.49 123.765 934.375L130.414 922.626C130.543 922.399 130.728 922.209 130.953 922.075C131.177 921.942 131.433 921.869 131.694 921.865C131.955 921.86 132.213 921.924 132.442 922.05C132.671 922.175 132.863 922.359 132.999 922.581L137.327 929.643L139.707 925.463C139.834 925.235 140.019 925.045 140.244 924.912C140.468 924.779 140.723 924.707 140.984 924.704C141.244 924.698 141.502 924.76 141.731 924.885C141.96 925.01 142.152 925.193 142.287 925.416L147.552 933.958C147.623 934.07 147.663 934.2 147.667 934.333C147.671 934.466 147.64 934.598 147.577 934.715ZM129.576 927.153L133.995 927.076L131.72 923.365L129.576 927.153Z" fill="#F7F0E4"/>
      <path d="M436.36 426.004C431.112 426.102 426.116 428.277 422.47 432.053C418.823 435.829 416.823 440.898 416.909 446.147C417.205 463.087 435.425 475.567 436.202 476.089C436.508 476.295 436.871 476.403 437.24 476.396C437.61 476.39 437.968 476.27 438.267 476.053C439.025 475.504 456.799 462.396 456.503 445.456C456.405 440.207 454.23 435.211 450.454 431.565C446.678 427.918 441.609 425.918 436.36 426.004Z" fill="#AB989B"/>
      <path d="M444.155 442.821L426.908 443.122L426.868 440.872C426.865 440.673 426.783 440.484 426.639 440.346C426.496 440.208 426.304 440.132 426.105 440.135C425.906 440.139 425.717 440.221 425.579 440.364C425.441 440.507 425.365 440.699 425.369 440.898L425.63 455.896C425.634 456.095 425.716 456.284 425.859 456.422C426.002 456.561 426.194 456.636 426.393 456.633C426.592 456.629 426.782 456.547 426.92 456.404C427.058 456.261 427.134 456.069 427.13 455.87L427.078 452.87L446.575 452.53L446.627 455.53C446.631 455.728 446.713 455.918 446.856 456.056C446.999 456.194 447.191 456.27 447.39 456.266C447.589 456.263 447.778 456.181 447.917 456.037C448.055 455.894 448.13 455.702 448.127 455.503L447.97 446.505C447.952 445.51 447.541 444.564 446.825 443.873C446.11 443.182 445.149 442.803 444.155 442.821ZM426.934 444.622L433.683 444.504L433.801 451.253L427.052 451.371L426.934 444.622Z" fill="#F7F0E4"/>
      <path d="M946.893 527.514C941.644 527.428 936.575 529.428 932.799 533.074C929.023 536.721 926.848 541.717 926.75 546.965C926.454 563.905 944.228 577.013 944.986 577.562C945.285 577.779 945.644 577.899 946.013 577.906C946.383 577.912 946.745 577.805 947.051 577.598C947.828 577.076 966.048 564.596 966.344 547.656C966.43 542.407 964.43 537.339 960.783 533.563C957.137 529.787 952.141 527.611 946.893 527.514Z" fill="#AB989B"/>
      <path d="M954.096 544.59L936.849 544.289L936.888 542.04C936.892 541.841 936.816 541.649 936.678 541.506C936.539 541.363 936.35 541.28 936.151 541.277C935.952 541.273 935.76 541.349 935.617 541.487C935.474 541.625 935.392 541.815 935.388 542.014L935.126 557.011C935.123 557.21 935.199 557.402 935.337 557.545C935.475 557.688 935.664 557.771 935.863 557.774C936.062 557.778 936.254 557.702 936.397 557.564C936.54 557.426 936.623 557.236 936.626 557.037L936.679 554.038L956.176 554.378L956.123 557.378C956.12 557.577 956.195 557.769 956.334 557.912C956.472 558.055 956.661 558.137 956.86 558.141C957.059 558.144 957.251 558.069 957.394 557.93C957.537 557.792 957.62 557.603 957.623 557.404L957.78 548.405C957.797 547.411 957.419 546.45 956.728 545.735C956.037 545.019 955.091 544.608 954.096 544.59ZM936.823 545.789L943.572 545.907L943.454 552.656L936.705 552.538L936.823 545.789Z" fill="#F7F0E4"/>
      <path d="M1037.01 476.514C1031.76 476.611 1026.77 478.787 1023.12 482.563C1019.48 486.339 1017.48 491.408 1017.56 496.657C1017.86 513.597 1036.08 526.076 1036.85 526.598C1037.16 526.805 1037.52 526.913 1037.89 526.906C1038.26 526.9 1038.62 526.78 1038.92 526.562C1039.68 526.014 1057.45 512.906 1057.16 495.965C1057.06 490.717 1054.88 485.721 1051.11 482.075C1047.33 478.428 1042.26 476.428 1037.01 476.514Z" fill="#AB989B"/>
      <path d="M1048 506.028L1046.53 506.053L1046.35 495.555C1046.34 495.157 1046.17 494.778 1045.89 494.502C1045.6 494.226 1045.22 494.074 1044.82 494.081L1040.7 494.153C1040.6 494.155 1040.5 494.196 1040.43 494.268C1040.36 494.339 1040.33 494.435 1040.33 494.535L1040.53 506.158L1039.03 506.184L1038.74 489.725C1038.74 489.491 1038.69 489.261 1038.58 489.052C1038.48 488.843 1038.33 488.659 1038.14 488.517C1037.89 488.327 1037.59 488.222 1037.27 488.216C1036.96 488.21 1036.65 488.303 1036.39 488.483L1028.98 493.608C1028.77 493.749 1028.61 493.937 1028.5 494.158C1028.38 494.378 1028.33 494.623 1028.33 494.87L1028.53 506.367L1027.06 506.393C1026.86 506.394 1026.68 506.468 1026.54 506.6C1026.39 506.732 1026.31 506.914 1026.29 507.107C1026.29 507.21 1026.31 507.312 1026.34 507.408C1026.38 507.505 1026.43 507.592 1026.51 507.666C1026.58 507.74 1026.66 507.798 1026.76 507.837C1026.85 507.876 1026.96 507.895 1027.06 507.893L1048.06 507.527C1048.16 507.525 1048.26 507.503 1048.35 507.46C1048.45 507.418 1048.53 507.357 1048.6 507.28C1048.67 507.204 1048.72 507.115 1048.75 507.017C1048.79 506.92 1048.8 506.817 1048.79 506.714C1048.77 506.521 1048.68 506.343 1048.53 506.216C1048.39 506.089 1048.2 506.021 1048 506.028ZM1032.62 504.046C1032.62 504.149 1032.6 504.251 1032.56 504.346C1032.52 504.441 1032.46 504.527 1032.39 504.599C1032.32 504.67 1032.23 504.726 1032.13 504.762C1032.04 504.799 1031.93 504.815 1031.83 504.81C1031.64 504.796 1031.46 504.71 1031.32 504.568C1031.19 504.426 1031.12 504.24 1031.12 504.046L1031.09 502.598C1031.09 502.404 1031.15 502.215 1031.28 502.069C1031.41 501.923 1031.59 501.83 1031.78 501.81C1031.88 501.801 1031.98 501.814 1032.08 501.847C1032.18 501.88 1032.27 501.933 1032.34 502.002C1032.42 502.071 1032.48 502.154 1032.52 502.248C1032.57 502.342 1032.59 502.443 1032.59 502.546L1032.62 504.046ZM1032.53 498.797C1032.53 498.899 1032.51 499.001 1032.47 499.097C1032.43 499.192 1032.37 499.278 1032.3 499.349C1032.22 499.421 1032.14 499.477 1032.04 499.513C1031.94 499.549 1031.84 499.565 1031.74 499.56C1031.55 499.547 1031.36 499.46 1031.23 499.319C1031.1 499.177 1031.03 498.99 1031.03 498.797L1031 497.348C1030.99 497.155 1031.06 496.966 1031.19 496.82C1031.32 496.674 1031.49 496.581 1031.69 496.561C1031.79 496.552 1031.89 496.565 1031.99 496.598C1032.09 496.631 1032.18 496.683 1032.25 496.752C1032.33 496.821 1032.39 496.905 1032.43 496.999C1032.48 497.093 1032.5 497.194 1032.5 497.297L1032.53 498.797ZM1036.37 503.98C1036.37 504.083 1036.35 504.185 1036.31 504.28C1036.27 504.375 1036.21 504.461 1036.14 504.533C1036.07 504.605 1035.98 504.66 1035.88 504.697C1035.79 504.733 1035.68 504.749 1035.58 504.744C1035.39 504.731 1035.21 504.645 1035.07 504.503C1034.94 504.362 1034.87 504.176 1034.87 503.982L1034.84 502.532C1034.84 502.339 1034.9 502.15 1035.03 502.004C1035.16 501.858 1035.34 501.766 1035.53 501.746C1035.63 501.737 1035.73 501.75 1035.83 501.782C1035.93 501.815 1036.02 501.868 1036.09 501.937C1036.17 502.006 1036.23 502.09 1036.27 502.184C1036.32 502.277 1036.34 502.379 1036.34 502.482L1036.37 503.98ZM1036.28 498.731C1036.28 498.834 1036.26 498.936 1036.22 499.031C1036.18 499.126 1036.12 499.212 1036.05 499.284C1035.97 499.356 1035.89 499.411 1035.79 499.448C1035.69 499.484 1035.59 499.5 1035.49 499.495C1035.3 499.481 1035.11 499.395 1034.98 499.254C1034.85 499.113 1034.78 498.927 1034.77 498.733L1034.75 497.283C1034.74 497.089 1034.81 496.901 1034.94 496.755C1035.07 496.609 1035.24 496.517 1035.44 496.496C1035.54 496.488 1035.64 496.5 1035.74 496.533C1035.84 496.566 1035.93 496.619 1036 496.688C1036.08 496.757 1036.14 496.841 1036.18 496.934C1036.22 497.028 1036.25 497.13 1036.25 497.232L1036.28 498.731Z" fill="#F7F0E4"/>
      <path d="M408.36 250.004C403.112 250.102 398.116 252.277 394.47 256.053C390.823 259.829 388.823 264.898 388.909 270.147C389.205 287.087 407.425 299.567 408.202 300.089C408.508 300.295 408.871 300.403 409.24 300.396C409.61 300.39 409.968 300.27 410.267 300.053C411.025 299.504 428.799 286.396 428.503 269.456C428.405 264.207 426.23 259.211 422.454 255.565C418.678 251.918 413.609 249.918 408.36 250.004Z" fill="#AB989B"/>
      <path d="M416.853 263.809L400.355 264.097C399.957 264.104 399.579 264.268 399.302 264.555C399.026 264.841 398.875 265.225 398.882 265.623L399.117 279.121C399.124 279.519 399.289 279.897 399.575 280.174C399.861 280.45 400.245 280.601 400.643 280.594L417.141 280.306C417.538 280.299 417.917 280.135 418.194 279.849C418.47 279.562 418.621 279.178 418.614 278.78L418.379 265.282C418.372 264.885 418.207 264.506 417.921 264.23C417.635 263.953 417.25 263.802 416.853 263.809ZM408.761 272.952C407.568 272.971 406.416 272.517 405.558 271.688C404.7 270.859 404.205 269.724 404.183 268.531C404.18 268.332 404.255 268.14 404.394 267.997C404.532 267.854 404.721 267.771 404.92 267.768C405.119 267.764 405.311 267.84 405.454 267.978C405.597 268.116 405.68 268.306 405.683 268.505C405.697 269.3 406.026 270.058 406.599 270.61C407.171 271.163 407.939 271.466 408.735 271.452C409.53 271.438 410.288 271.109 410.841 270.536C411.393 269.964 411.696 269.195 411.682 268.4C411.679 268.201 411.754 268.009 411.892 267.866C412.031 267.723 412.22 267.64 412.419 267.637C412.618 267.633 412.81 267.709 412.953 267.847C413.096 267.985 413.178 268.175 413.182 268.374C413.201 269.567 412.747 270.719 411.918 271.577C411.089 272.435 409.954 272.929 408.761 272.952Z" fill="#F7F0E4"/>
      <path d="M307.36 51.0041C302.112 51.1016 297.116 53.2771 293.47 57.0533C289.823 60.8295 287.823 65.898 287.909 71.1468C288.205 88.0869 306.425 100.567 307.202 101.089C307.508 101.295 307.871 101.403 308.24 101.396C308.61 101.39 308.968 101.27 309.267 101.053C310.025 100.504 327.799 87.3957 327.503 70.4557C327.405 65.2071 325.23 60.2115 321.454 56.5649C317.678 52.9182 312.609 50.9184 307.36 51.0041Z" fill="#AB989B"/>
      <path d="M315.128 66.3217L312.53 66.367L311.219 64.4733C311.149 64.3719 311.055 64.2894 310.945 64.2331C310.835 64.1768 310.713 64.1485 310.59 64.1505L304.591 64.2552C304.467 64.2575 304.347 64.2901 304.239 64.3502C304.131 64.4103 304.04 64.496 303.973 64.5998L302.728 66.5381L300.131 66.5834C299.534 66.5939 298.966 66.8409 298.551 67.2701C298.137 67.6994 297.91 68.2757 297.92 68.8724L298.104 79.3708C298.114 79.9674 298.361 80.5355 298.79 80.95C299.22 81.3645 299.796 81.5916 300.393 81.5812L315.39 81.3194C315.987 81.309 316.555 81.0619 316.969 80.6327C317.384 80.2034 317.611 79.6271 317.601 79.0304L317.417 68.532C317.407 67.9354 317.16 67.3673 316.731 66.9528C316.301 66.5383 315.725 66.3112 315.128 66.3217ZM311.128 73.5176C311.14 74.185 310.954 74.8408 310.592 75.4022C310.231 75.9637 309.712 76.4054 309.1 76.6715C308.488 76.9377 307.81 77.0164 307.153 76.8976C306.497 76.7788 305.89 76.4679 305.409 76.0042C304.929 75.5405 304.597 74.9449 304.456 74.2926C304.314 73.6402 304.369 72.9606 304.614 72.3395C304.858 71.7185 305.282 71.1839 305.83 70.8034C306.379 70.4229 307.028 70.2136 307.695 70.202C308.59 70.1864 309.455 70.5269 310.098 71.1487C310.742 71.7705 311.113 72.6226 311.128 73.5176Z" fill="#F7F0E4"/>
      <path d="M130.36 353.004C125.112 353.102 120.116 355.277 116.47 359.053C112.823 362.829 110.823 367.898 110.909 373.147C111.205 390.087 129.425 402.567 130.202 403.089C130.508 403.295 130.871 403.403 131.24 403.396C131.61 403.39 131.968 403.27 132.267 403.053C133.025 402.504 150.799 389.396 150.503 372.456C150.405 367.207 148.23 362.211 144.454 358.565C140.678 354.918 135.609 352.918 130.36 353.004Z" fill="#9CB5DB"/>
      <path d="M139.442 373.421L138.211 373.034L138.128 368.321C138.121 367.924 137.957 367.545 137.67 367.269C137.384 366.992 137 366.841 136.602 366.848L131.353 366.939L131.327 365.44C131.323 365.241 131.241 365.051 131.098 364.913C130.955 364.775 130.763 364.699 130.564 364.703C130.365 364.706 130.176 364.789 130.038 364.932C129.899 365.075 129.824 365.267 129.827 365.466L129.853 366.966L124.604 367.057C124.206 367.064 123.828 367.229 123.551 367.515C123.275 367.801 123.124 368.185 123.131 368.583L123.213 373.295L121.996 373.725C121.699 373.83 121.442 374.026 121.263 374.285C121.083 374.543 120.989 374.852 120.995 375.167L121.051 378.38C121.052 378.45 121.063 378.519 121.084 378.585C122.648 383.723 129.278 385.386 130.59 385.667C130.815 385.715 131.047 385.71 131.269 385.655C132.571 385.329 139.139 383.435 140.523 378.246C140.541 378.179 140.55 378.11 140.548 378.04L140.492 374.827C140.487 374.512 140.383 374.207 140.194 373.954C140.006 373.702 139.742 373.515 139.442 373.421ZM131.563 378.938C131.566 379.137 131.49 379.329 131.352 379.472C131.214 379.615 131.025 379.697 130.826 379.701C130.627 379.704 130.435 379.628 130.292 379.49C130.149 379.352 130.066 379.163 130.063 378.964L129.971 373.715C129.968 373.516 130.043 373.324 130.182 373.181C130.32 373.037 130.509 372.955 130.708 372.952C130.907 372.948 131.099 373.024 131.242 373.162C131.385 373.3 131.467 373.49 131.471 373.688L131.563 378.938ZM136.702 372.559L130.906 370.736C130.752 370.688 130.585 370.691 130.432 370.745L124.704 372.769L124.63 368.557L136.628 368.348L136.702 372.559Z" fill="#F7F0E4"/>
    </g>
    <path d="M501.016 0.500256L501.004 0.499872L500.992 0.500064L10.832 8.34262C5.09926 8.43435 0.5 13.1078 0.5 18.8413V1000.87C0.5 1005.62 4.38898 1009.45 9.13598 1009.37L501.008 1001.5L1000.98 1017.5L1001 1017.5L1001.01 1017.5L1493.14 1009.63C1497.78 1009.55 1501.5 1005.77 1501.5 1001.13V17.129C1501.5 12.3814 1497.61 8.55416 1492.86 8.63011L1000.99 16.5001L501.016 0.500256Z" stroke="#3C402B"/>
    <path d="M221.319 221.913L217.263 210.462L218.742 210.436L222.268 220.384L225.477 210.319L226.957 210.293L223.303 221.878L221.319 221.913ZM231.156 221.981C230.308 221.996 229.564 221.823 228.923 221.46C228.287 221.093 227.787 220.576 227.423 219.91C227.059 219.239 226.87 218.453 226.854 217.552C226.838 216.608 226.997 215.789 227.331 215.095C227.666 214.396 228.139 213.854 228.751 213.47C229.368 213.081 230.096 212.879 230.933 212.864C231.802 212.849 232.544 213.036 233.159 213.425C233.779 213.814 234.248 214.377 234.565 215.113C234.887 215.849 235.036 216.729 235.011 217.754L233.571 217.779L233.562 217.267C233.528 216.206 233.298 215.418 232.873 214.902C232.448 214.382 231.824 214.129 231.003 214.143C230.123 214.158 229.459 214.453 229.01 215.026C228.561 215.599 228.346 216.414 228.365 217.469C228.383 218.488 228.626 219.273 229.094 219.825C229.562 220.377 230.22 220.646 231.068 220.631C231.639 220.621 232.133 220.481 232.549 220.213C232.966 219.944 233.29 219.562 233.521 219.068L234.897 219.516C234.575 220.284 234.079 220.885 233.409 221.318C232.744 221.746 231.993 221.967 231.156 221.981ZM227.892 217.878L227.872 216.734L234.255 216.623L234.275 217.766L227.892 217.878ZM240.504 221.818C239.629 221.834 238.882 221.652 238.262 221.273C237.647 220.889 237.174 220.356 236.842 219.674C236.51 218.992 236.331 218.211 236.305 217.331C236.3 216.429 236.454 215.635 236.767 214.946C237.086 214.253 237.548 213.709 238.155 213.314C238.761 212.919 239.497 212.714 240.36 212.699C241.272 212.683 242.06 212.894 242.724 213.33C243.393 213.767 243.846 214.372 244.084 215.147L242.683 215.595C242.493 215.097 242.191 214.713 241.775 214.443C241.365 214.173 240.896 214.042 240.368 214.051C239.776 214.062 239.291 214.209 238.912 214.493C238.532 214.772 238.254 215.155 238.076 215.644C237.897 216.127 237.811 216.68 237.816 217.304C237.844 218.264 238.079 219.036 238.521 219.621C238.968 220.199 239.622 220.481 240.48 220.466C241.045 220.457 241.512 220.32 241.881 220.058C242.25 219.79 242.526 219.409 242.709 218.915L244.156 219.266C243.871 220.077 243.415 220.701 242.788 221.138C242.161 221.576 241.4 221.803 240.504 221.818ZM250.651 221.401C250.141 221.511 249.635 221.56 249.133 221.548C248.637 221.54 248.192 221.449 247.8 221.275C247.407 221.095 247.107 220.812 246.897 220.426C246.72 220.088 246.621 219.746 246.599 219.4C246.582 219.048 246.57 218.651 246.562 218.208L246.427 210.433L247.85 210.408L247.985 218.119C247.991 218.471 247.999 218.772 248.009 219.023C248.024 219.273 248.084 219.488 248.188 219.668C248.386 220.006 248.693 220.2 249.11 220.252C249.533 220.303 250.039 220.278 250.629 220.177L250.651 221.401ZM244.737 214.039L244.717 212.863L250.5 212.762L250.52 213.938L244.737 214.039ZM255.729 221.553C254.87 221.567 254.126 221.386 253.495 221.007C252.87 220.629 252.383 220.099 252.035 219.417C251.687 218.735 251.505 217.948 251.49 217.058C251.474 216.151 251.631 215.354 251.96 214.665C252.289 213.977 252.763 213.438 253.38 213.048C253.997 212.653 254.727 212.449 255.57 212.434C256.434 212.419 257.181 212.6 257.812 212.979C258.442 213.352 258.929 213.879 259.271 214.562C259.619 215.238 259.801 216.022 259.816 216.912C259.832 217.814 259.678 218.611 259.354 219.305C259.03 219.993 258.56 220.538 257.942 220.938C257.325 221.333 256.587 221.538 255.729 221.553ZM255.705 220.201C256.601 220.185 257.262 219.875 257.689 219.27C258.116 218.665 258.321 217.888 258.305 216.939C258.288 215.963 258.053 215.191 257.6 214.623C257.147 214.049 256.478 213.77 255.593 213.786C254.991 213.796 254.497 213.941 254.113 214.22C253.728 214.498 253.444 214.879 253.26 215.363C253.077 215.846 252.991 216.402 253.002 217.031C253.018 218.002 253.256 218.777 253.714 219.355C254.172 219.934 254.836 220.216 255.705 220.201ZM261.653 221.209L261.502 212.57L262.774 212.548L262.811 214.636L262.598 214.368C262.695 214.099 262.821 213.852 262.977 213.625C263.138 213.398 263.319 213.211 263.519 213.063C263.74 212.878 263.991 212.735 264.272 212.634C264.553 212.533 264.84 212.472 265.133 212.451C265.426 212.425 265.701 212.438 265.958 212.493L265.981 213.828C265.681 213.754 265.353 213.738 264.996 213.782C264.639 213.825 264.311 213.962 264.011 214.191C263.737 214.393 263.525 214.637 263.376 214.922C263.231 215.207 263.133 215.516 263.08 215.847C263.027 216.174 263.003 216.507 263.009 216.849L263.085 221.184L261.653 221.209ZM275.563 221.206C274.417 221.226 273.439 220.99 272.63 220.497C271.822 220.005 271.199 219.312 270.762 218.418C270.33 217.524 270.104 216.485 270.083 215.301C270.062 214.117 270.252 213.071 270.652 212.163C271.058 211.254 271.656 210.54 272.447 210.019C273.238 209.498 274.207 209.228 275.354 209.208C276.687 209.185 277.789 209.504 278.659 210.167C279.535 210.829 280.145 211.73 280.49 212.871L279.049 213.28C278.8 212.426 278.369 211.756 277.758 211.27C277.147 210.785 276.353 210.551 275.377 210.568C274.519 210.583 273.808 210.79 273.244 211.189C272.68 211.588 272.26 212.14 271.985 212.843C271.709 213.542 271.576 214.352 271.587 215.275C271.598 216.192 271.753 216.997 272.053 217.691C272.353 218.379 272.795 218.916 273.377 219.3C273.96 219.679 274.681 219.861 275.539 219.847C276.515 219.829 277.3 219.568 277.894 219.061C278.488 218.55 278.895 217.865 279.114 217.008L280.569 217.366C280.263 218.513 279.685 219.435 278.833 220.133C277.986 220.825 276.896 221.183 275.563 221.206ZM286.068 221.023C285.209 221.038 284.465 220.856 283.834 220.478C283.209 220.099 282.722 219.569 282.374 218.887C282.026 218.205 281.844 217.419 281.829 216.528C281.813 215.622 281.97 214.824 282.299 214.136C282.629 213.447 283.102 212.908 283.719 212.519C284.336 212.124 285.066 211.919 285.909 211.904C286.773 211.889 287.52 212.071 288.151 212.449C288.781 212.822 289.268 213.35 289.61 214.032C289.958 214.709 290.14 215.492 290.156 216.383C290.171 217.284 290.017 218.082 289.693 218.775C289.369 219.464 288.899 220.008 288.282 220.408C287.664 220.803 286.926 221.008 286.068 221.023ZM286.044 219.671C286.94 219.656 287.602 219.345 288.028 218.74C288.455 218.135 288.66 217.358 288.644 216.409C288.627 215.433 288.392 214.661 287.939 214.093C287.487 213.52 286.818 213.241 285.932 213.256C285.33 213.267 284.836 213.411 284.452 213.69C284.067 213.969 283.783 214.35 283.6 214.833C283.416 215.316 283.33 215.873 283.341 216.502C283.358 217.472 283.595 218.247 284.053 218.826C284.511 219.405 285.175 219.686 286.044 219.671ZM294.015 220.644L290.729 212.06L292.169 212.035L294.712 218.816L297.008 211.951L298.456 211.925L295.471 220.619L294.015 220.644ZM303.489 220.719C302.641 220.734 301.896 220.56 301.255 220.198C300.619 219.83 300.12 219.313 299.756 218.648C299.392 217.977 299.202 217.19 299.187 216.289C299.17 215.345 299.329 214.527 299.664 213.833C299.998 213.133 300.472 212.592 301.084 212.208C301.701 211.818 302.428 211.616 303.266 211.601C304.135 211.586 304.877 211.773 305.492 212.163C306.112 212.552 306.58 213.114 306.897 213.85C307.22 214.586 307.368 215.466 307.343 216.491L305.904 216.516L305.895 216.004C305.86 214.943 305.63 214.155 305.205 213.64C304.78 213.119 304.157 212.866 303.336 212.88C302.456 212.896 301.792 213.19 301.343 213.763C300.894 214.336 300.679 215.151 300.698 216.207C300.715 217.225 300.958 218.011 301.427 218.563C301.895 219.114 302.553 219.383 303.401 219.368C303.972 219.358 304.465 219.219 304.882 218.95C305.299 218.682 305.623 218.3 305.854 217.805L307.23 218.253C306.908 219.022 306.411 219.622 305.741 220.055C305.077 220.483 304.326 220.704 303.489 220.719ZM300.225 216.615L300.205 215.471L306.588 215.36L306.608 216.504L300.225 216.615Z" fill="#9CB5DB"/>
    <path d="M598.457 406.332L598.658 394.814L600.082 394.839L599.881 406.357L598.457 406.332ZM605.916 406.702C605.041 406.687 604.301 406.48 603.694 406.08C603.093 405.674 602.639 405.125 602.331 404.432C602.023 403.738 601.871 402.951 601.876 402.071C601.902 401.17 602.084 400.381 602.421 399.704C602.764 399.022 603.245 398.495 603.865 398.121C604.485 397.748 605.227 397.569 606.091 397.584C607.003 397.6 607.783 397.838 608.431 398.297C609.084 398.757 609.516 399.378 609.727 400.16L608.311 400.559C608.139 400.055 607.85 399.66 607.444 399.376C607.043 399.092 606.579 398.945 606.051 398.936C605.459 398.925 604.969 399.055 604.58 399.326C604.192 399.591 603.9 399.965 603.705 400.447C603.51 400.924 603.404 401.474 603.388 402.098C603.382 403.058 603.589 403.837 604.011 404.437C604.438 405.031 605.081 405.336 605.939 405.351C606.505 405.361 606.976 405.241 607.354 404.991C607.732 404.737 608.021 404.366 608.221 403.878L609.655 404.279C609.342 405.079 608.865 405.687 608.223 406.103C607.581 406.518 606.812 406.718 605.916 406.702ZM614.689 406.856C613.83 406.841 613.092 406.633 612.475 406.233C611.864 405.833 611.396 405.286 611.072 404.592C610.748 403.898 610.594 403.106 610.609 402.216C610.625 401.309 610.81 400.518 611.163 399.841C611.516 399.164 612.008 398.642 612.638 398.275C613.269 397.901 614.005 397.722 614.848 397.737C615.712 397.752 616.452 397.96 617.069 398.36C617.687 398.755 618.155 399.299 618.473 399.993C618.797 400.681 618.951 401.471 618.936 402.361C618.92 403.262 618.738 404.054 618.39 404.736C618.043 405.413 617.553 405.94 616.923 406.319C616.292 406.692 615.547 406.871 614.689 406.856ZM614.712 405.504C615.608 405.519 616.28 405.232 616.728 404.643C617.175 404.053 617.408 403.284 617.424 402.335C617.441 401.359 617.233 400.579 616.801 399.995C616.368 399.406 615.71 399.104 614.824 399.089C614.222 399.078 613.724 399.206 613.33 399.471C612.935 399.736 612.638 400.107 612.438 400.583C612.238 401.06 612.132 401.613 612.121 402.242C612.104 403.213 612.314 403.995 612.752 404.589C613.19 405.184 613.843 405.489 614.712 405.504ZM626.773 406.827L626.848 402.499C626.855 402.089 626.825 401.693 626.757 401.313C626.694 400.934 626.575 400.593 626.399 400.291C626.228 399.984 625.992 399.74 625.691 399.559C625.396 399.377 625.019 399.283 624.56 399.275C624.203 399.269 623.876 399.324 623.581 399.442C623.291 399.554 623.04 399.731 622.828 399.973C622.615 400.214 622.447 400.521 622.323 400.892C622.205 401.258 622.141 401.692 622.133 402.193L621.202 401.889C621.217 401.051 621.378 400.337 621.687 399.745C622.002 399.147 622.434 398.694 622.983 398.383C623.538 398.067 624.186 397.916 624.928 397.929C625.487 397.939 625.963 398.035 626.355 398.218C626.746 398.401 627.07 398.641 627.326 398.939C627.583 399.231 627.782 399.56 627.925 399.926C628.068 400.285 628.166 400.653 628.218 401.027C628.276 401.396 628.301 401.746 628.296 402.076L628.212 406.852L626.773 406.827ZM620.613 406.719L620.764 398.08L622.044 398.103L622.004 400.414L622.164 400.417L622.053 406.744L620.613 406.719ZM633.495 406.944L633.696 395.426L638.247 395.505C638.359 395.507 638.492 395.515 638.647 395.528C638.801 395.536 638.95 395.555 639.094 395.584C639.716 395.691 640.235 395.913 640.65 396.251C641.071 396.589 641.384 397.013 641.588 397.524C641.793 398.029 641.89 398.588 641.879 399.201C641.868 399.809 641.749 400.364 641.522 400.867C641.3 401.365 640.973 401.778 640.54 402.106C640.113 402.429 639.589 402.634 638.969 402.719C638.825 402.738 638.675 402.751 638.52 402.759C638.366 402.767 638.232 402.77 638.12 402.768L634.993 402.713L634.918 406.969L633.495 406.944ZM635.016 401.362L638.096 401.415C638.197 401.417 638.312 401.414 638.44 401.405C638.573 401.397 638.699 401.38 638.817 401.356C639.186 401.277 639.488 401.128 639.721 400.908C639.959 400.682 640.135 400.419 640.247 400.117C640.359 399.809 640.418 399.496 640.423 399.176C640.429 398.856 640.381 398.543 640.28 398.237C640.178 397.926 640.012 397.654 639.782 397.42C639.556 397.187 639.26 397.027 638.894 396.941C638.777 396.907 638.652 396.886 638.519 396.878C638.391 396.865 638.277 396.858 638.175 396.856L635.096 396.802L635.016 401.362ZM646.998 407.42C646.15 407.405 645.412 407.205 644.784 406.821C644.161 406.431 643.68 405.897 643.34 405.219C643 404.536 642.837 403.744 642.853 402.843C642.87 401.899 643.057 401.086 643.416 400.404C643.775 399.717 644.266 399.192 644.892 398.83C645.522 398.462 646.256 398.285 647.093 398.3C647.962 398.315 648.697 398.528 649.298 398.938C649.905 399.349 650.353 399.928 650.644 400.674C650.941 401.421 651.058 402.306 650.998 403.329L649.558 403.304L649.567 402.792C649.57 401.73 649.367 400.935 648.961 400.405C648.554 399.87 647.94 399.595 647.119 399.58C646.239 399.565 645.565 399.836 645.096 400.393C644.628 400.951 644.384 401.757 644.366 402.813C644.348 403.831 644.564 404.625 645.012 405.193C645.461 405.761 646.11 406.052 646.958 406.067C647.528 406.077 648.026 405.955 648.452 405.701C648.878 405.447 649.215 405.077 649.464 404.59L650.823 405.086C650.474 405.843 649.957 406.426 649.272 406.835C648.593 407.239 647.835 407.434 646.998 407.42ZM643.879 403.205L643.899 402.061L650.282 402.172L650.262 403.316L643.879 403.205ZM655.006 407.559C654.36 407.548 653.821 407.421 653.388 407.179C652.96 406.932 652.638 406.611 652.421 406.218C652.209 405.825 652.107 405.396 652.115 404.933C652.123 404.479 652.215 404.089 652.391 403.761C652.573 403.428 652.823 403.155 653.142 402.942C653.46 402.724 653.839 402.554 654.279 402.434C654.691 402.329 655.152 402.241 655.66 402.17C656.173 402.094 656.692 402.025 657.216 401.965C657.739 401.905 658.228 401.847 658.683 401.791L658.166 402.078C658.195 401.31 658.05 400.739 657.732 400.366C657.418 399.992 656.867 399.799 656.077 399.785C655.555 399.776 655.094 399.888 654.695 400.121C654.302 400.349 654.021 400.728 653.851 401.258L652.507 400.827C652.728 400.073 653.141 399.486 653.746 399.064C654.35 398.643 655.141 398.44 656.117 398.457C656.9 398.471 657.57 398.624 658.125 398.916C658.685 399.204 659.083 399.632 659.319 400.202C659.437 400.47 659.509 400.762 659.535 401.077C659.562 401.387 659.572 401.713 659.566 402.054L659.473 407.397L658.209 407.375L658.245 405.304L658.538 405.501C658.201 406.194 657.735 406.714 657.143 407.061C656.555 407.408 655.843 407.574 655.006 407.559ZM655.242 406.371C655.754 406.38 656.198 406.297 656.575 406.123C656.957 405.942 657.265 405.705 657.499 405.411C657.734 405.111 657.889 404.783 657.965 404.427C658.049 404.161 658.097 403.866 658.108 403.541C658.125 403.21 658.134 402.957 658.137 402.781L658.63 403.006C658.165 403.062 657.708 403.115 657.259 403.166C656.81 403.217 656.385 403.273 655.983 403.336C655.582 403.393 655.221 403.464 654.9 403.549C654.664 403.619 654.441 403.712 654.231 403.825C654.026 403.939 653.858 404.088 653.727 404.273C653.601 404.452 653.536 404.677 653.531 404.949C653.527 405.184 653.582 405.409 653.695 405.624C653.814 405.84 653.998 406.016 654.246 406.154C654.5 406.292 654.832 406.364 655.242 406.371ZM661.545 407.433L661.754 395.915L663.194 395.94L663.071 402.979L666.767 398.883L668.614 398.916L664.724 403.168L668.912 407.562L666.92 407.527L663.065 403.299L662.993 407.459L661.545 407.433Z" fill="#A4B55B"/>
    <path d="M346.23 429.28L346.029 417.762L347.469 417.737L353.633 426.631L353.476 417.632L354.916 417.607L355.117 429.125L353.677 429.15L347.513 420.248L347.67 429.255L346.23 429.28ZM361.101 429.261C360.254 429.275 359.509 429.102 358.868 428.739C358.232 428.372 357.732 427.855 357.369 427.189C357.005 426.518 356.815 425.732 356.799 424.831C356.783 423.887 356.942 423.068 357.277 422.374C357.611 421.675 358.084 421.133 358.696 420.749C359.314 420.36 360.041 420.158 360.878 420.143C361.747 420.128 362.489 420.315 363.104 420.704C363.725 421.094 364.193 421.656 364.51 422.392C364.832 423.128 364.981 424.008 364.956 425.033L363.516 425.058L363.507 424.546C363.473 423.485 363.243 422.697 362.818 422.182C362.393 421.661 361.77 421.408 360.949 421.422C360.069 421.437 359.404 421.732 358.956 422.305C358.507 422.878 358.292 423.693 358.31 424.749C358.328 425.767 358.571 426.552 359.039 427.104C359.508 427.656 360.166 427.925 361.014 427.91C361.584 427.9 362.078 427.761 362.495 427.492C362.911 427.223 363.235 426.842 363.467 426.347L364.843 426.795C364.52 427.563 364.024 428.164 363.354 428.597C362.69 429.025 361.939 429.246 361.101 429.261ZM357.837 425.157L357.817 424.013L364.2 423.902L364.22 425.046L357.837 425.157ZM368.333 428.894L365.542 420.294L366.958 420.277L368.996 426.562L370.83 420.209L372.085 420.188L374.131 426.473L375.957 420.12L377.365 420.095L374.876 428.78L373.692 428.801L371.49 422.27L369.517 428.874L368.333 428.894ZM328.444 451.834C327.628 451.848 326.89 451.722 326.229 451.457C325.573 451.191 325.028 450.805 324.592 450.301C324.162 449.791 323.877 449.185 323.737 448.484L325.204 448.226C325.404 448.948 325.8 449.509 326.394 449.909C326.993 450.304 327.692 450.495 328.492 450.481C329.009 450.472 329.475 450.384 329.888 450.217C330.306 450.044 330.635 449.803 330.875 449.495C331.115 449.187 331.232 448.825 331.224 448.409C331.22 448.153 331.171 447.935 331.077 447.755C330.988 447.57 330.866 447.415 330.709 447.29C330.557 447.159 330.385 447.05 330.191 446.963C329.997 446.875 329.796 446.804 329.587 446.749L326.636 445.929C326.315 445.838 326.003 445.724 325.702 445.585C325.401 445.441 325.131 445.261 324.893 445.047C324.654 444.827 324.463 444.564 324.319 444.257C324.175 443.945 324.099 443.575 324.091 443.149C324.08 442.466 324.245 441.882 324.589 441.396C324.938 440.904 325.414 440.525 326.017 440.259C326.621 439.992 327.304 439.855 328.066 439.847C328.84 439.839 329.533 439.965 330.145 440.227C330.763 440.482 331.277 440.858 331.685 441.352C332.099 441.846 332.382 442.441 332.533 443.137L331.025 443.428C330.937 442.96 330.752 442.56 330.468 442.229C330.191 441.893 329.845 441.637 329.431 441.463C329.017 441.284 328.565 441.196 328.074 441.199C327.605 441.202 327.182 441.284 326.806 441.445C326.43 441.606 326.133 441.827 325.914 442.109C325.694 442.385 325.588 442.701 325.594 443.058C325.6 443.41 325.707 443.694 325.913 443.909C326.119 444.119 326.37 444.285 326.666 444.408C326.967 444.525 327.259 444.622 327.543 444.697L329.746 445.29C329.998 445.355 330.287 445.446 330.615 445.563C330.947 445.68 331.27 445.848 331.584 446.066C331.897 446.28 332.158 446.568 332.367 446.933C332.576 447.292 332.685 447.749 332.695 448.303C332.704 448.858 332.601 449.353 332.385 449.789C332.174 450.225 331.873 450.593 331.484 450.893C331.094 451.188 330.639 451.414 330.119 451.573C329.6 451.736 329.041 451.824 328.444 451.834ZM340.58 451.382L340.504 447.055C340.497 446.644 340.453 446.25 340.372 445.873C340.296 445.496 340.164 445.159 339.978 444.864C339.797 444.563 339.553 444.327 339.246 444.156C338.944 443.986 338.564 443.904 338.105 443.912C337.748 443.918 337.424 443.985 337.132 444.113C336.847 444.236 336.602 444.421 336.398 444.67C336.194 444.919 336.037 445.231 335.926 445.606C335.821 445.976 335.772 446.412 335.781 446.913L334.84 446.642C334.826 445.804 334.962 445.085 335.251 444.482C335.544 443.874 335.96 443.406 336.498 443.076C337.042 442.741 337.684 442.567 338.425 442.554C338.985 442.545 339.464 442.624 339.862 442.793C340.26 442.962 340.592 443.191 340.858 443.48C341.124 443.763 341.335 444.085 341.491 444.445C341.646 444.8 341.757 445.163 341.822 445.536C341.892 445.902 341.93 446.251 341.936 446.582L342.02 451.357L340.58 451.382ZM334.421 451.49L334.22 439.971L335.5 439.949L335.611 446.308L335.77 446.305L335.861 451.464L334.421 451.49ZM346.559 451.518C345.914 451.529 345.37 451.421 344.929 451.194C344.493 450.962 344.16 450.653 343.929 450.267C343.703 449.882 343.587 449.457 343.578 448.993C343.571 448.54 343.649 448.147 343.814 447.813C343.984 447.474 344.224 447.193 344.535 446.968C344.846 446.739 345.219 446.556 345.654 446.421C346.063 446.302 346.519 446.198 347.025 446.109C347.535 446.015 348.051 445.928 348.572 445.85C349.094 445.771 349.581 445.696 350.033 445.624L349.526 445.929C349.528 445.161 349.364 444.596 349.032 444.234C348.706 443.871 348.148 443.697 347.359 443.711C346.836 443.72 346.38 443.848 345.989 444.095C345.604 444.336 345.336 444.725 345.186 445.261L343.827 444.876C344.021 444.116 344.414 443.514 345.003 443.072C345.593 442.629 346.376 442.4 347.352 442.383C348.136 442.369 348.81 442.498 349.375 442.771C349.945 443.039 350.357 443.453 350.613 444.014C350.74 444.278 350.822 444.568 350.86 444.882C350.897 445.19 350.919 445.515 350.925 445.857L351.018 451.2L349.754 451.222L349.718 449.15L350.017 449.337C349.704 450.041 349.258 450.577 348.677 450.945C348.102 451.312 347.396 451.503 346.559 451.518ZM346.754 450.322C347.266 450.313 347.707 450.215 348.077 450.027C348.453 449.834 348.752 449.586 348.976 449.283C349.2 448.975 349.344 448.642 349.407 448.284C349.482 448.016 349.52 447.719 349.519 447.393C349.524 447.063 349.525 446.809 349.522 446.633L350.022 446.841C349.559 446.913 349.104 446.982 348.657 447.048C348.21 447.115 347.788 447.186 347.389 447.263C346.99 447.334 346.631 447.417 346.313 447.513C346.08 447.592 345.86 447.692 345.654 447.813C345.454 447.934 345.291 448.089 345.166 448.278C345.047 448.461 344.989 448.689 344.994 448.961C344.998 449.195 345.061 449.418 345.182 449.63C345.308 449.841 345.498 450.011 345.751 450.14C346.009 450.269 346.344 450.329 346.754 450.322ZM357.069 451.334C356.259 451.348 355.573 451.16 355.011 450.77C354.45 450.375 354.019 449.835 353.719 449.152C353.424 448.464 353.269 447.691 353.254 446.832C353.239 445.963 353.367 445.182 353.637 444.489C353.913 443.796 354.325 443.248 354.873 442.843C355.426 442.439 356.108 442.23 356.918 442.216C357.718 442.202 358.409 442.39 358.992 442.779C359.581 443.164 360.035 443.697 360.357 444.38C360.678 445.062 360.846 445.836 360.861 446.699C360.876 447.563 360.735 448.342 360.438 449.035C360.14 449.728 359.705 450.283 359.131 450.698C358.562 451.108 357.875 451.32 357.069 451.334ZM353.157 455.003L352.939 442.525L354.211 442.503L354.322 448.862L354.482 448.859L354.589 454.978L353.157 455.003ZM356.871 450.034C357.441 450.024 357.911 449.871 358.279 449.577C358.647 449.282 358.92 448.888 359.098 448.394C359.276 447.895 359.36 447.339 359.349 446.726C359.339 446.118 359.236 445.57 359.041 445.083C358.851 444.596 358.561 444.211 358.172 443.93C357.789 443.649 357.304 443.513 356.717 443.523C356.157 443.533 355.696 443.68 355.332 443.964C354.969 444.242 354.701 444.628 354.529 445.122C354.356 445.61 354.275 446.174 354.286 446.814C354.297 447.443 354.395 448.004 354.579 448.497C354.769 448.985 355.053 449.367 355.432 449.643C355.81 449.913 356.289 450.044 356.871 450.034ZM366.438 451.171C365.59 451.186 364.845 451.012 364.204 450.65C363.568 450.282 363.069 449.765 362.705 449.1C362.341 448.429 362.151 447.642 362.136 446.741C362.119 445.797 362.278 444.978 362.613 444.285C362.947 443.585 363.421 443.044 364.033 442.659C364.65 442.27 365.377 442.068 366.215 442.053C367.084 442.038 367.826 442.225 368.441 442.615C369.061 443.004 369.529 443.566 369.846 444.302C370.169 445.038 370.317 445.918 370.293 446.943L368.853 446.968L368.844 446.456C368.809 445.395 368.579 444.607 368.154 444.092C367.729 443.571 367.106 443.318 366.285 443.332C365.405 443.348 364.741 443.642 364.292 444.215C363.843 444.788 363.628 445.603 363.647 446.659C363.664 447.677 363.907 448.463 364.376 449.014C364.844 449.566 365.502 449.835 366.35 449.82C366.921 449.81 367.414 449.671 367.831 449.402C368.248 449.134 368.572 448.752 368.803 448.257L370.179 448.705C369.857 449.474 369.36 450.074 368.69 450.507C368.026 450.935 367.275 451.156 366.438 451.171ZM363.174 447.067L363.154 445.923L369.537 445.812L369.557 446.956L363.174 447.067ZM374.165 450.796L370.879 442.212L372.318 442.187L374.861 448.967L377.158 442.102L378.605 442.077L375.621 450.77L374.165 450.796ZM380.186 440.521L380.16 439.049L381.584 439.025L381.609 440.496L380.186 440.521ZM380.363 450.688L380.212 442.049L381.636 442.024L381.787 450.663L380.363 450.688ZM384.347 450.618L384.142 438.86L385.565 438.835L385.771 450.593L384.347 450.618ZM388.331 450.549L388.125 438.79L389.549 438.766L389.754 450.524L388.331 450.549ZM395.902 450.657C395.054 450.671 394.31 450.498 393.669 450.135C393.033 449.768 392.533 449.251 392.169 448.585C391.805 447.914 391.616 447.128 391.6 446.227C391.584 445.283 391.743 444.464 392.077 443.77C392.412 443.071 392.885 442.529 393.497 442.145C394.114 441.756 394.842 441.554 395.679 441.539C396.548 441.524 397.29 441.711 397.905 442.1C398.525 442.489 398.994 443.052 399.311 443.788C399.633 444.524 399.782 445.404 399.757 446.429L398.317 446.454L398.308 445.942C398.274 444.881 398.044 444.093 397.619 443.577C397.194 443.057 396.57 442.804 395.749 442.818C394.869 442.833 394.205 443.128 393.756 443.701C393.308 444.274 393.092 445.089 393.111 446.145C393.129 447.163 393.372 447.948 393.84 448.5C394.308 449.052 394.967 449.321 395.814 449.306C396.385 449.296 396.879 449.157 397.295 448.888C397.712 448.619 398.036 448.238 398.267 447.743L399.644 448.191C399.321 448.959 398.825 449.56 398.155 449.993C397.49 450.421 396.739 450.642 395.902 450.657ZM392.638 446.553L392.618 445.409L399.001 445.298L399.021 446.441L392.638 446.553Z" fill="#AB989B"/>
    <path d="M977.092 586.48C976.303 586.494 975.58 586.368 974.925 586.102C974.269 585.836 973.703 585.448 973.224 584.939C972.746 584.425 972.372 583.802 972.104 583.071C971.84 582.334 971.7 581.501 971.684 580.574C971.662 579.347 971.863 578.282 972.284 577.379C972.706 576.475 973.31 575.774 974.096 575.275C974.882 574.77 975.811 574.509 976.883 574.49C978.173 574.467 979.218 574.75 980.018 575.339C980.817 575.923 981.376 576.732 981.692 577.766L980.258 578.088C980.006 577.393 979.601 576.843 979.045 576.436C978.488 576.03 977.799 575.834 976.978 575.848C976.12 575.858 975.408 576.063 974.845 576.462C974.286 576.856 973.869 577.404 973.593 578.108C973.317 578.811 973.185 579.625 973.196 580.547C973.206 581.464 973.362 582.267 973.662 582.955C973.962 583.644 974.401 584.18 974.978 584.565C975.561 584.944 976.281 585.129 977.14 585.119C977.881 585.111 978.503 584.959 979.004 584.662C979.506 584.366 979.891 583.943 980.158 583.394C980.426 582.845 980.583 582.189 980.628 581.426L978.181 581.468L978.16 580.292L982.111 580.223C982.129 580.33 982.139 580.458 982.142 580.607C982.15 580.751 982.154 580.849 982.155 580.903C982.174 581.953 981.993 582.898 981.613 583.737C981.238 584.57 980.671 585.231 979.911 585.719C979.157 586.207 978.217 586.46 977.092 586.48ZM984.004 586.119L983.799 574.361L985.223 574.336L985.428 586.094L984.004 586.119ZM989.095 589.871L990.688 585.299L990.735 586.642L986.798 577.429L988.293 577.403L991.383 584.814L990.871 584.823L993.517 577.312L994.964 577.287L990.479 589.847L989.095 589.871ZM1000.41 586.073C999.597 586.087 998.911 585.899 998.35 585.509C997.788 585.113 997.357 584.574 997.057 583.891C996.763 583.203 996.608 582.429 996.593 581.571C996.578 580.702 996.705 579.921 996.976 579.228C997.252 578.535 997.664 577.986 998.211 577.582C998.764 577.178 999.446 576.968 1000.26 576.954C1001.06 576.94 1001.75 577.128 1002.33 577.518C1002.92 577.903 1003.37 578.436 1003.7 579.119C1004.02 579.801 1004.18 580.574 1004.2 581.438C1004.21 582.302 1004.07 583.081 1003.78 583.774C1003.48 584.467 1003.04 585.022 1002.47 585.437C1001.9 585.847 1001.21 586.059 1000.41 586.073ZM996.495 589.742L996.278 577.264L997.549 577.242L997.66 583.601L997.82 583.598L997.927 589.717L996.495 589.742ZM1000.21 584.772C1000.78 584.762 1001.25 584.61 1001.62 584.316C1001.99 584.021 1002.26 583.627 1002.44 583.133C1002.61 582.634 1002.7 582.078 1002.69 581.465C1002.68 580.857 1002.57 580.309 1002.38 579.822C1002.19 579.334 1001.9 578.95 1001.51 578.669C1001.13 578.387 1000.64 578.252 1000.06 578.262C999.496 578.272 999.034 578.419 998.671 578.702C998.308 578.981 998.04 579.367 997.867 579.86C997.694 580.349 997.613 580.913 997.625 581.553C997.636 582.182 997.733 582.743 997.918 583.236C998.108 583.724 998.392 584.105 998.77 584.381C999.148 584.652 999.628 584.782 1000.21 584.772ZM1012.18 585.628L1012.1 581.3C1012.1 580.89 1012.05 580.496 1011.97 580.118C1011.9 579.741 1011.76 579.405 1011.58 579.109C1011.4 578.808 1011.15 578.572 1010.85 578.402C1010.54 578.231 1010.16 578.15 1009.7 578.158C1009.35 578.164 1009.02 578.231 1008.73 578.359C1008.45 578.481 1008.2 578.667 1008 578.916C1007.79 579.164 1007.64 579.477 1007.53 579.852C1007.42 580.222 1007.37 580.657 1007.38 581.159L1006.44 580.887C1006.43 580.05 1006.56 579.33 1006.85 578.728C1007.14 578.12 1007.56 577.651 1008.1 577.322C1008.64 576.987 1009.28 576.813 1010.03 576.8C1010.59 576.79 1011.06 576.87 1011.46 577.039C1011.86 577.208 1012.19 577.437 1012.46 577.725C1012.72 578.009 1012.94 578.331 1013.09 578.691C1013.25 579.045 1013.36 579.409 1013.42 579.781C1013.49 580.148 1013.53 580.497 1013.54 580.827L1013.62 585.602L1012.18 585.628ZM1006.02 585.735L1005.82 574.217L1007.1 574.194L1007.21 580.553L1007.37 580.551L1007.46 585.71L1006.02 585.735ZM1023.64 585.668C1022.49 585.688 1021.52 585.451 1020.71 584.959C1019.9 584.466 1019.28 583.773 1018.84 582.879C1018.41 581.985 1018.18 580.946 1018.16 579.762C1018.14 578.578 1018.33 577.532 1018.73 576.624C1019.14 575.715 1019.73 575.001 1020.53 574.48C1021.32 573.96 1022.29 573.689 1023.43 573.669C1024.76 573.646 1025.87 573.966 1026.74 574.628C1027.61 575.29 1028.22 576.191 1028.57 577.332L1027.13 577.741C1026.88 576.887 1026.45 576.217 1025.84 575.732C1025.22 575.246 1024.43 575.012 1023.46 575.029C1022.6 575.044 1021.89 575.251 1021.32 575.65C1020.76 576.05 1020.34 576.601 1020.06 577.305C1019.79 578.003 1019.65 578.813 1019.66 579.736C1019.68 580.653 1019.83 581.459 1020.13 582.152C1020.43 582.84 1020.87 583.377 1021.46 583.761C1022.04 584.141 1022.76 584.323 1023.62 584.308C1024.59 584.291 1025.38 584.029 1025.97 583.523C1026.57 583.011 1026.97 582.326 1027.19 581.469L1028.65 581.828C1028.34 582.974 1027.76 583.897 1026.91 584.594C1026.06 585.287 1024.97 585.644 1023.64 585.668ZM1030.44 575.139L1030.42 573.667L1031.84 573.643L1031.87 575.114L1030.44 575.139ZM1030.62 585.306L1030.47 576.667L1031.9 576.642L1032.05 585.281L1030.62 585.306ZM1039.27 585.155C1038.76 585.265 1038.25 585.314 1037.75 585.301C1037.26 585.294 1036.81 585.203 1036.42 585.028C1036.03 584.849 1035.73 584.566 1035.52 584.18C1035.34 583.842 1035.24 583.499 1035.22 583.153C1035.2 582.801 1035.19 582.404 1035.18 581.962L1035.05 574.187L1036.47 574.162L1036.6 581.873C1036.61 582.225 1036.62 582.526 1036.63 582.776C1036.64 583.027 1036.7 583.242 1036.81 583.421C1037 583.759 1037.31 583.954 1037.73 584.005C1038.15 584.057 1038.66 584.032 1039.25 583.931L1039.27 585.155ZM1033.36 577.793L1033.34 576.617L1039.12 576.516L1039.14 577.692L1033.36 577.793ZM1042.06 588.947L1043.65 584.374L1043.7 585.718L1039.76 576.505L1041.25 576.479L1044.34 583.89L1043.83 583.899L1046.48 576.388L1047.93 576.362L1043.44 588.922L1042.06 588.947Z" fill="#AB989B"/>
    <path d="M281.472 719.887L281.295 709.721L277.367 709.789L277.344 708.437L286.622 708.275L286.646 709.627L282.718 709.696L282.896 719.862L281.472 719.887ZM288.983 719.756L286.193 711.155L287.609 711.139L289.647 717.424L291.48 711.071L292.736 711.049L294.782 717.334L296.607 710.981L298.015 710.957L295.526 719.642L294.343 719.662L292.14 713.132L290.167 719.735L288.983 719.756ZM299.593 709.401L299.567 707.929L300.991 707.905L301.017 709.376L299.593 709.401ZM299.771 719.568L299.62 710.929L301.044 710.904L301.194 719.543L299.771 719.568ZM309.745 719.393L309.67 715.066C309.663 714.656 309.618 714.262 309.537 713.884C309.461 713.507 309.33 713.17 309.144 712.875C308.962 712.574 308.718 712.338 308.411 712.168C308.109 711.997 307.729 711.916 307.271 711.924C306.913 711.93 306.589 711.997 306.298 712.125C306.012 712.247 305.767 712.433 305.564 712.681C305.36 712.93 305.203 713.242 305.092 713.618C304.986 713.988 304.938 714.423 304.947 714.925L304.006 714.653C303.991 713.816 304.128 713.096 304.416 712.493C304.71 711.886 305.125 711.417 305.664 711.087C306.207 710.753 306.85 710.579 307.591 710.566C308.151 710.556 308.63 710.636 309.027 710.805C309.425 710.974 309.757 711.203 310.024 711.491C310.29 711.775 310.501 712.097 310.656 712.457C310.812 712.811 310.922 713.175 310.988 713.547C311.058 713.914 311.096 714.262 311.102 714.593L311.185 719.368L309.745 719.393ZM303.586 719.501L303.436 710.862L304.715 710.84L304.756 713.152L304.916 713.149L305.026 719.476L303.586 719.501ZM321.135 719.435C320.346 719.448 319.623 719.322 318.968 719.056C318.313 718.791 317.746 718.403 317.267 717.894C316.789 717.38 316.415 716.757 316.147 716.025C315.883 715.288 315.743 714.456 315.727 713.528C315.706 712.302 315.906 711.237 316.327 710.333C316.749 709.43 317.353 708.728 318.139 708.229C318.925 707.725 319.854 707.463 320.926 707.445C322.216 707.422 323.261 707.705 324.061 708.294C324.861 708.877 325.419 709.686 325.735 710.721L324.301 711.042C324.049 710.348 323.644 709.797 323.088 709.391C322.531 708.985 321.843 708.789 321.021 708.803C320.163 708.813 319.451 709.017 318.888 709.416C318.329 709.81 317.912 710.359 317.636 711.063C317.36 711.766 317.228 712.579 317.239 713.502C317.249 714.419 317.405 715.222 317.705 715.91C318.005 716.598 318.444 717.135 319.021 717.519C319.604 717.899 320.324 718.083 321.183 718.074C321.924 718.066 322.546 717.914 323.047 717.617C323.549 717.32 323.934 716.897 324.201 716.349C324.469 715.8 324.626 715.144 324.671 714.38L322.224 714.423L322.203 713.247L326.154 713.178C326.172 713.285 326.183 713.412 326.185 713.562C326.193 713.706 326.197 713.804 326.198 713.858C326.217 714.908 326.036 715.853 325.656 716.691C325.281 717.525 324.714 718.185 323.954 718.673C323.2 719.161 322.26 719.415 321.135 719.435ZM328.047 719.074L327.842 707.316L329.266 707.291L329.471 719.049L328.047 719.074ZM333.138 722.826L334.731 718.253L334.778 719.597L330.841 710.384L332.336 710.358L335.426 717.769L334.914 717.778L337.56 710.267L339.007 710.241L334.522 722.802L333.138 722.826ZM344.451 719.028C343.64 719.042 342.954 718.854 342.393 718.464C341.831 718.068 341.4 717.529 341.1 716.846C340.806 716.158 340.651 715.384 340.636 714.526C340.621 713.656 340.748 712.875 341.019 712.183C341.295 711.49 341.707 710.941 342.254 710.537C342.807 710.132 343.489 709.923 344.3 709.909C345.1 709.895 345.791 710.083 346.374 710.473C346.962 710.857 347.417 711.391 347.738 712.073C348.059 712.756 348.228 713.529 348.243 714.393C348.258 715.257 348.117 716.035 347.819 716.729C347.522 717.422 347.086 717.976 346.512 718.392C345.943 718.802 345.256 719.014 344.451 719.028ZM340.538 722.697L340.321 710.218L341.592 710.196L341.703 716.555L341.863 716.553L341.97 722.672L340.538 722.697ZM344.252 717.727C344.823 717.717 345.292 717.565 345.66 717.27C346.029 716.976 346.302 716.582 346.48 716.088C346.658 715.589 346.742 715.032 346.731 714.419C346.72 713.811 346.617 713.264 346.422 712.776C346.232 712.289 345.943 711.905 345.554 711.623C345.17 711.342 344.685 711.206 344.099 711.217C343.539 711.226 343.077 711.373 342.714 711.657C342.351 711.935 342.083 712.321 341.91 712.815C341.737 713.304 341.656 713.868 341.668 714.508C341.679 715.137 341.776 715.698 341.961 716.191C342.151 716.678 342.435 717.06 342.813 717.336C343.191 717.607 343.671 717.737 344.252 717.727ZM356.223 718.582L356.147 714.255C356.14 713.844 356.096 713.45 356.015 713.073C355.939 712.696 355.807 712.359 355.621 712.064C355.44 711.763 355.195 711.527 354.888 711.356C354.587 711.186 354.207 711.104 353.748 711.112C353.391 711.119 353.066 711.186 352.775 711.313C352.489 711.436 352.245 711.621 352.041 711.87C351.837 712.119 351.68 712.431 351.569 712.807C351.464 713.176 351.415 713.612 351.424 714.113L350.483 713.842C350.468 713.004 350.605 712.285 350.893 711.682C351.187 711.074 351.603 710.606 352.141 710.276C352.685 709.941 353.327 709.767 354.068 709.754C354.628 709.745 355.107 709.824 355.505 709.993C355.902 710.163 356.234 710.391 356.501 710.68C356.767 710.964 356.978 711.285 357.134 711.645C357.289 712 357.4 712.363 357.465 712.736C357.535 713.102 357.573 713.451 357.579 713.782L357.662 718.557L356.223 718.582ZM350.064 718.69L349.863 707.171L351.142 707.149L351.253 713.508L351.413 713.505L351.503 718.665L350.064 718.69ZM363.01 718.696C361.98 718.714 361.131 718.505 360.462 718.068C359.798 717.626 359.385 717.001 359.221 716.194L360.673 715.936C360.799 716.403 361.074 716.772 361.5 717.042C361.927 717.306 362.451 717.433 363.075 717.422C363.667 717.412 364.129 717.281 364.461 717.03C364.792 716.779 364.955 716.443 364.947 716.022C364.943 715.776 364.883 715.58 364.769 715.433C364.654 715.28 364.42 715.14 364.065 715.013C363.717 714.886 363.188 714.735 362.481 714.56C361.715 714.371 361.112 714.171 360.671 713.96C360.229 713.749 359.913 713.501 359.721 713.216C359.53 712.932 359.43 712.584 359.423 712.173C359.414 711.667 359.545 711.222 359.816 710.838C360.087 710.45 360.468 710.147 360.96 709.93C361.458 709.714 362.037 709.599 362.699 709.588C363.354 709.576 363.943 709.67 364.464 709.869C364.985 710.068 365.406 710.357 365.727 710.735C366.054 711.108 366.251 711.547 366.318 712.053L364.867 712.342C364.79 711.88 364.559 711.518 364.176 711.258C363.798 710.998 363.313 710.865 362.721 710.86C362.16 710.848 361.706 710.955 361.358 711.179C361.015 711.404 360.847 711.703 360.854 712.076C360.857 712.284 360.924 712.462 361.055 712.609C361.191 712.756 361.436 712.893 361.79 713.02C362.15 713.147 362.67 713.29 363.35 713.449C364.116 713.628 364.72 713.828 365.161 714.05C365.607 714.266 365.927 714.527 366.119 714.833C366.311 715.134 366.41 715.508 366.418 715.956C366.433 716.788 366.138 717.449 365.533 717.94C364.928 718.425 364.087 718.677 363.01 718.696Z" fill="#A4B55B"/>
  </g>
  <defs>
    <filter id="filter0_d_135_5232" x="0" y="0" width="1504" height="1020" filterUnits="userSpaceOnUse" color-interpolation-filters="sRGB">
      <feFlood flood-opacity="0" result="BackgroundImageFix"/>
      <feColorMatrix in="SourceAlpha" type="matrix" values="0 0 0 0 0 0 0 0 0 0 0 0 0 0 0 0 0 0 127 0" result="hardAlpha"/>
      <feOffset dx="2" dy="2"/>
      <feComposite in2="hardAlpha" operator="out"/>
      <feColorMatrix type="matrix" values="0 0 0 0 0.235294 0 0 0 0 0.25098 0 0 0 0 0.168627 0 0 0 0.2 0"/>
      <feBlend mode="normal" in2="BackgroundImageFix" result="effect1_dropShadow_135_5232"/>
      <feBlend mode="normal" in="SourceGraphic" in2="effect1_dropShadow_135_5232" result="shape"/>
    </filter>
    <linearGradient id="paint0_linear_135_5232" x1="501" y1="387" x2="1033" y2="484" gradientUnits="userSpaceOnUse">
      <stop stop-color="#D2D6C5"/>
      <stop offset="0.99904" stop-color="#D2D6C5" stop-opacity="0"/>
    </linearGradient>
  </defs>
</svg>
