<svg xmlns="http://www.w3.org/2000/svg" width="45" height="458" viewBox="0 0 45 458">
  <g fill="none" fill-rule="evenodd">
    <path fill="#35313D" d="M18.3245,444.00015 C17.567,444.00015 16.9295,443.43765 16.8365,442.68615 L16.25,438.00015 L15.7301372,438.00015 C14.7367686,438.00015 13.8939496,437.271054 13.7509643,436.28803 L6,383.00015 C4.8954305,383.00015 4,382.104719 4,381.00015 L4,14 C4,9.581722 7.581722,6 12,6 L37,6 C41.418278,6 45,9.581722 45,14 L45,381.00015 C45,382.104719 44.1045695,383.00015 43,383.00015 L35.2490357,436.28803 C35.1060504,437.271054 34.2632314,438.00015 33.2698628,438.00015 L32.75,438.00015 L32.1635,442.68615 C32.0705,443.43765 31.433,444.00015 30.6755,444.00015 L28.25,444.00015 L26.909,455.42265 C26.819,456.59415 25.8425,457.50015 24.6665,457.50015 L24.3335,457.50015 C23.1575,457.50015 22.181,456.59415 22.091,455.42265 L20.75,444.00015 L18.3245,444.00015 Z" opacity=".1"/>
    <path fill="#4B4A48" d="M12.25,434 L28.75,434 L28.1635,438.686 C28.0705,439.4375 27.433,440 26.6755,440 L14.3245,440 C13.567,440 12.9295,439.4375 12.8365,438.686 L12.25,434 Z"/>
    <path fill="#353432" d="M9.75096432,432.28788 L2,379 L2,379 L39,379 L31.2490357,432.28788 C31.1060504,433.270904 30.2632314,434 29.2698628,434 L11.7301372,434 C10.7367686,434 9.89394963,433.270904 9.75096432,432.28788 Z"/>
    <path fill="#1F1D1B" d="M0,377 L0,8 C-5.41083001e-16,3.581722 3.581722,8.11624501e-16 8,0 L33,0 C37.418278,-8.11624501e-16 41,3.581722 41,8 L41,377 C41,378.104569 40.1045695,379 39,379 L2,379 C0.8954305,379 1.3527075e-16,378.104569 0,377 Z"/>
    <path fill="#925BFF" d="M16.75,440 L24.25,440 L22.909,451.4225 C22.819,452.594 21.8425,453.5 20.6665,453.5 L20.3335,453.5 C19.1575,453.5 18.181,452.594 18.091,451.4225 L16.75,440 Z"/>
    <path fill="#FFF" fill-rule="nonzero" d="M-0.644,324.49985 L-0.644,321.37985 L0.448,321.37985 C2.404,321.37985 3.664,320.51585 3.664,318.70385 L3.664,318.65585 C3.664,316.84385 2.476,315.91985 0.388,315.91985 L-2.576,315.91985 L-2.576,324.49985 L-0.644,324.49985 Z M0.34,320.02385 L-0.644,320.02385 L-0.644,317.39585 L0.34,317.39585 C1.264,317.39585 1.792,317.75585 1.792,318.66785 L1.792,318.71585 C1.792,319.56785 1.288,320.02385 0.34,320.02385 Z M6.88,324.49985 L6.88,320.95985 L10.324,320.95985 L10.324,324.49985 L12.268,324.49985 L12.268,315.91985 L10.324,315.91985 L10.324,319.42385 L6.88,319.42385 L6.88,315.91985 L4.936,315.91985 L4.936,324.49985 L6.88,324.49985 Z M18.064,324.63185 C20.74,324.63185 22.492,322.77185 22.492,320.21585 L22.492,320.11985 C22.492,317.53985 20.656,315.79985 18.076,315.79985 C15.532,315.79985 13.66,317.61185 13.66,320.16785 L13.66,320.26385 C13.66,322.77185 15.376,324.63185 18.064,324.63185 Z M18.1,323.08385 C16.696,323.08385 15.688,322.00385 15.688,320.25185 L15.688,320.15585 C15.688,318.42785 16.588,317.33585 18.076,317.33585 C19.576,317.33585 20.464,318.47585 20.464,320.14385 L20.464,320.23985 C20.464,321.96785 19.552,323.08385 18.1,323.08385 Z M26.896,324.63185 C28.924,324.63185 30.172,323.41985 30.172,321.89585 C30.172,320.11985 29.104,319.55585 27.028,319.29185 C25.708,319.09985 25.432,318.81185 25.432,318.19985 C25.432,317.62385 25.864,317.22785 26.716,317.22785 C27.568,317.22785 28.024,317.58785 28.144,318.36785 L29.932,318.36785 C29.776,316.66385 28.648,315.79985 26.716,315.79985 C24.82,315.79985 23.596,316.89185 23.596,318.35585 C23.596,320.01185 24.496,320.67185 26.692,320.95985 C27.952,321.15185 28.312,321.39185 28.312,322.07585 C28.312,322.74785 27.748,323.21585 26.896,323.21585 C25.624,323.21585 25.3,322.57985 25.216,321.81185 L23.356,321.81185 C23.464,323.52785 24.544,324.63185 26.896,324.63185 Z M33.508,324.49985 L33.508,321.37985 L34.6,321.37985 C36.556,321.37985 37.816,320.51585 37.816,318.70385 L37.816,318.65585 C37.816,316.84385 36.628,315.91985 34.54,315.91985 L31.576,315.91985 L31.576,324.49985 L33.508,324.49985 Z M34.492,320.02385 L33.508,320.02385 L33.508,317.39585 L34.492,317.39585 C35.416,317.39585 35.944,317.75585 35.944,318.66785 L35.944,318.71585 C35.944,319.56785 35.44,320.02385 34.492,320.02385 Z M41.032,324.49985 L41.032,320.95985 L44.476,320.95985 L44.476,324.49985 L46.42,324.49985 L46.42,315.91985 L44.476,315.91985 L44.476,319.42385 L41.032,319.42385 L41.032,315.91985 L39.088,315.91985 L39.088,324.49985 L41.032,324.49985 Z M52.216,324.63185 C54.892,324.63185 56.644,322.77185 56.644,320.21585 L56.644,320.11985 C56.644,317.53985 54.808,315.79985 52.228,315.79985 C49.684,315.79985 47.812,317.61185 47.812,320.16785 L47.812,320.26385 C47.812,322.77185 49.528,324.63185 52.216,324.63185 Z M52.252,323.08385 C50.848,323.08385 49.84,322.00385 49.84,320.25185 L49.84,320.15585 C49.84,318.42785 50.74,317.33585 52.228,317.33585 C53.728,317.33585 54.616,318.47585 54.616,320.14385 L54.616,320.23985 C54.616,321.96785 53.704,323.08385 52.252,323.08385 Z M59.98,324.49985 L59.98,321.18785 L60.82,321.18785 L62.872,324.49985 L64.936,324.49985 L62.668,320.85185 C63.676,320.55185 64.432,319.86785 64.432,318.57185 L64.432,318.52385 C64.432,316.74785 63.148,315.91985 61.12,315.91985 L58.048,315.91985 L58.048,324.49985 L59.98,324.49985 Z M61.072,319.86785 L59.98,319.86785 L59.98,317.40785 L61.072,317.40785 C62.008,317.40785 62.536,317.70785 62.536,318.58385 L62.536,318.63185 C62.536,319.45985 62.044,319.86785 61.072,319.86785 Z" opacity=".3" transform="rotate(90 31.18 320.216)"/>
    <g fill="#FFF" opacity=".1">
      <polygon points="17.5 440 16.75 434 12.25 434 13 440"/>
      <polygon points="10 434 2 379 11 379 17.5 434"/>
      <path d="M0 379L0 8C-5.41083001e-16 3.581722 3.581722 8.11624501e-16 8 0L9 0 9 0 9 379 0 379zM16.75 440L18.091 451.4225C18.181 452.594 19.1575 453.5 20.3335 453.5L20.5 453.5 19 440 16.75 440z"/>
    </g>
  </g>
</svg>
