<?xml version="1.0" encoding="UTF-8"?>
<svg width="118px" height="462px" viewBox="0 0 118 462" version="1.1" xmlns="http://www.w3.org/2000/svg" xmlns:xlink="http://www.w3.org/1999/xlink">
    <title>marker-green</title>
    <g id="marker-green" stroke="none" stroke-width="1" fill="none" fill-rule="evenodd">
        <g id="marker" transform="translate(63.574467, 230.673339) rotate(190.000000) translate(-63.574467, -230.673339) translate(39.574467, 0.673339)">
            <path d="M14.3245,446.00015 C13.567,446.00015 12.9295,445.43765 12.8365,444.68615 L12.25,440.00015 L11.7301372,440.00015 C10.7367686,440.00015 9.89394963,439.271054 9.75096432,438.28803 L2,385.00015 C0.8954305,385.00015 1.63710399e-11,384.104719 1.63709046e-11,383.00015 L1.63709046e-11,8.00015 C1.63703635e-11,3.581872 3.581722,0.000149999993 8,0.000149999993 L33,0.000149999993 C37.418278,0.000149999993 41,3.581872 41,8.00015 L41,383.00015 C41,384.104719 40.1045695,385.00015 39,385.00015 L31.2490357,438.28803 C31.1060504,439.271054 30.2632314,440.00015 29.2698628,440.00015 L28.75,440.00015 L28.1635,444.68615 C28.0705,445.43765 27.433,446.00015 26.6755,446.00015 L24.25,446.00015 L22.909,457.42265 C22.819,458.59415 21.8425,459.50015 20.6665,459.50015 L20.3335,459.50015 C19.1575,459.50015 18.181,458.59415 18.091,457.42265 L16.75,446.00015 L14.3245,446.00015 Z" id="shadow" fill="#35313D" opacity="0.100000001"></path>
            <g id="body" transform="translate(5.424000, 6.000150)">
                <path d="M12.826,434 L29.326,434 L28.7395,438.686 C28.6465,439.4375 28.009,440 27.2515,440 L14.9005,440 C14.143,440 13.5055,439.4375 13.4125,438.686 L12.826,434 Z" fill="#4B4A48"></path>
                <path d="M10.3269643,432.28788 L2.576,379 L2.576,379 L39.576,379 L31.8250357,432.28788 C31.6820504,433.270904 30.8392314,434 29.8458628,434 L12.3061372,434 C11.3127686,434 10.4699496,433.270904 10.3269643,432.28788 Z" fill="#353432"></path>
                <path d="M0.576,377 L0.576,8 C0.576,3.581722 4.157722,8.11624501e-16 8.576,0 L33.576,0 C37.994278,-8.11624501e-16 41.576,3.581722 41.576,8 L41.576,189.5 L41.576,189.5 L41.576,377 C41.576,378.104569 40.6805695,379 39.576,379 L2.576,379 C1.4714305,379 0.576,378.104569 0.576,377 Z" fill="#1F1D1B"></path>
                <path d="M17.326,440 L24.826,440 L23.485,451.4225 C23.395,452.594 22.4185,453.5 21.2425,453.5 L20.9095,453.5 C19.7335,453.5 18.757,452.594 18.667,451.4225 L17.326,440 Z" id="tip" fill="#1FA647"></path>
                <path d="M-0.068,324.49985 L-0.068,321.37985 L1.024,321.37985 C2.98,321.37985 4.24,320.51585 4.24,318.70385 L4.24,318.65585 C4.24,316.84385 3.052,315.91985 0.964,315.91985 L-2,315.91985 L-2,324.49985 L-0.068,324.49985 Z M0.916,320.02385 L-0.068,320.02385 L-0.068,317.39585 L0.916,317.39585 C1.84,317.39585 2.368,317.75585 2.368,318.66785 L2.368,318.71585 C2.368,319.56785 1.864,320.02385 0.916,320.02385 Z M7.456,324.49985 L7.456,320.95985 L10.9,320.95985 L10.9,324.49985 L12.844,324.49985 L12.844,315.91985 L10.9,315.91985 L10.9,319.42385 L7.456,319.42385 L7.456,315.91985 L5.512,315.91985 L5.512,324.49985 L7.456,324.49985 Z M18.64,324.63185 C21.316,324.63185 23.068,322.77185 23.068,320.21585 L23.068,320.11985 C23.068,317.53985 21.232,315.79985 18.652,315.79985 C16.108,315.79985 14.236,317.61185 14.236,320.16785 L14.236,320.26385 C14.236,322.77185 15.952,324.63185 18.64,324.63185 Z M18.676,323.08385 C17.272,323.08385 16.264,322.00385 16.264,320.25185 L16.264,320.15585 C16.264,318.42785 17.164,317.33585 18.652,317.33585 C20.152,317.33585 21.04,318.47585 21.04,320.14385 L21.04,320.23985 C21.04,321.96785 20.128,323.08385 18.676,323.08385 Z M27.472,324.63185 C29.5,324.63185 30.748,323.41985 30.748,321.89585 C30.748,320.11985 29.68,319.55585 27.604,319.29185 C26.284,319.09985 26.008,318.81185 26.008,318.19985 C26.008,317.62385 26.44,317.22785 27.292,317.22785 C28.144,317.22785 28.6,317.58785 28.72,318.36785 L30.508,318.36785 C30.352,316.66385 29.224,315.79985 27.292,315.79985 C25.396,315.79985 24.172,316.89185 24.172,318.35585 C24.172,320.01185 25.072,320.67185 27.268,320.95985 C28.528,321.15185 28.888,321.39185 28.888,322.07585 C28.888,322.74785 28.324,323.21585 27.472,323.21585 C26.2,323.21585 25.876,322.57985 25.792,321.81185 L23.932,321.81185 C24.04,323.52785 25.12,324.63185 27.472,324.63185 Z M34.084,324.49985 L34.084,321.37985 L35.176,321.37985 C37.132,321.37985 38.392,320.51585 38.392,318.70385 L38.392,318.65585 C38.392,316.84385 37.204,315.91985 35.116,315.91985 L32.152,315.91985 L32.152,324.49985 L34.084,324.49985 Z M35.068,320.02385 L34.084,320.02385 L34.084,317.39585 L35.068,317.39585 C35.992,317.39585 36.52,317.75585 36.52,318.66785 L36.52,318.71585 C36.52,319.56785 36.016,320.02385 35.068,320.02385 Z M41.608,324.49985 L41.608,320.95985 L45.052,320.95985 L45.052,324.49985 L46.996,324.49985 L46.996,315.91985 L45.052,315.91985 L45.052,319.42385 L41.608,319.42385 L41.608,315.91985 L39.664,315.91985 L39.664,324.49985 L41.608,324.49985 Z M52.792,324.63185 C55.468,324.63185 57.22,322.77185 57.22,320.21585 L57.22,320.11985 C57.22,317.53985 55.384,315.79985 52.804,315.79985 C50.26,315.79985 48.388,317.61185 48.388,320.16785 L48.388,320.26385 C48.388,322.77185 50.104,324.63185 52.792,324.63185 Z M52.828,323.08385 C51.424,323.08385 50.416,322.00385 50.416,320.25185 L50.416,320.15585 C50.416,318.42785 51.316,317.33585 52.804,317.33585 C54.304,317.33585 55.192,318.47585 55.192,320.14385 L55.192,320.23985 C55.192,321.96785 54.28,323.08385 52.828,323.08385 Z M60.556,324.49985 L60.556,321.18785 L61.396,321.18785 L63.448,324.49985 L65.512,324.49985 L63.244,320.85185 C64.252,320.55185 65.008,319.86785 65.008,318.57185 L65.008,318.52385 C65.008,316.74785 63.724,315.91985 61.696,315.91985 L58.624,315.91985 L58.624,324.49985 L60.556,324.49985 Z M61.648,319.86785 L60.556,319.86785 L60.556,317.40785 L61.648,317.40785 C62.584,317.40785 63.112,317.70785 63.112,318.58385 L63.112,318.63185 C63.112,319.45985 62.62,319.86785 61.648,319.86785 Z" id="phosphor" fill="#FFFFFF" fill-rule="nonzero" opacity="0.200000003" transform="translate(31.756000, 320.215850) rotate(90.000000) translate(-31.756000, -320.215850) "></path>
            </g>
            <g id="highlights" transform="translate(36.500000, 233.000150) scale(-1, 1) translate(-36.500000, -233.000150) translate(26.000000, 6.000150)" fill="#FFFFFF" opacity="0.100000001">
                <polygon id="highlight" points="17.5 440 16.75 434 12.25 434 13 440"></polygon>
                <polygon id="highlight" points="10 434 2 379 11 379 17.5 434"></polygon>
                <path d="M0,377 L0,8 C-5.41083001e-16,3.581722 3.581722,8.11624501e-16 8,0 L9,0 L9,0 L9,379 L2,379 C0.8954305,379 1.3527075e-16,378.104569 0,377 Z" id="highlight"></path>
                <path d="M16.75,440 L18.091,451.4225 C18.181,452.594 19.1575,453.5 20.3335,453.5 L20.5,453.5 L19,440 L16.75,440 Z" id="highlight"></path>
            </g>
        </g>
    </g>
</svg>