<svg width="119" height="458" viewBox="0 0 119 458" fill="none" xmlns="http://www.w3.org/2000/svg">
<g filter="url(#filter0_d_133_2774)">
<path d="M0.796207 444.051C0.364642 446.499 1.9989 448.833 4.44643 449.265L35.9603 454.821C38.4078 455.253 40.7418 453.619 41.1733 451.171L106.118 82.8529C106.358 81.4932 105.45 80.1966 104.09 79.9568L103.538 79.8594L105.921 27.6589C105.975 26.4648 105.179 25.4088 104.036 25.1209L104.073 21.1495C104.085 19.9274 103.211 18.8762 102.007 18.664L101.148 18.5126L101.531 6.8103C101.576 5.41463 100.588 4.19785 99.2133 3.95536C97.8381 3.71288 96.4938 4.51849 96.0593 5.84558L92.4159 16.9728L91.557 16.8213C90.3535 16.6091 89.173 17.2981 88.7658 18.4504L87.4425 22.1951C86.27 22.0746 85.1602 22.7946 84.8031 23.9352L69.1889 73.8028L68.6368 73.7055C67.277 73.4657 65.9804 74.3736 65.7406 75.7334L0.796207 444.051Z" stroke="#3C402B"/>
<path d="M1.28834 444.139C0.904729 446.314 2.3574 448.389 4.53298 448.773L36.0468 454.329C38.2224 454.713 40.297 453.26 40.6807 451.085L105.625 82.7667C105.817 81.6789 105.091 80.6416 104.003 80.4498L68.5497 74.1985C67.4619 74.0067 66.4246 74.733 66.2328 75.8208L1.28834 444.139Z" fill="#1F2310"/>
<path opacity="0.2" d="M64.9643 154.998L56.8101 153.56L57.4172 150.117C57.4312 150.038 57.4536 149.933 57.4844 149.802C57.5122 149.667 57.5448 149.548 57.5823 149.446C57.7437 148.972 57.9743 148.602 58.2743 148.336C58.5749 148.066 58.9251 147.89 59.3248 147.809C59.7207 147.727 60.1471 147.726 60.6039 147.807C61.0606 147.887 61.4626 148.036 61.8097 148.253C62.1537 148.465 62.4208 148.75 62.6109 149.106C62.8017 149.459 62.8922 149.884 62.8825 150.38C62.879 150.489 62.869 150.612 62.8526 150.749C62.8362 150.886 62.8213 150.992 62.808 151.068L62.4725 152.971L65.2359 153.458L64.9643 154.998ZM61.0342 152.717L61.3577 150.882C61.3717 150.803 61.3832 150.715 61.3923 150.62C61.4014 150.524 61.4016 150.435 61.393 150.351C61.3729 150.134 61.3069 149.957 61.1947 149.82C61.0788 149.683 60.9433 149.579 60.7883 149.509C60.6302 149.434 60.4775 149.384 60.3303 149.358C60.183 149.332 60.0243 149.328 59.8539 149.344C59.6805 149.356 59.5178 149.408 59.3657 149.498C59.2098 149.587 59.0852 149.73 58.992 149.928C58.9554 150.003 58.925 150.087 58.9008 150.18C58.8766 150.273 58.8575 150.36 58.8435 150.439L58.52 152.274L61.0342 152.717ZM66.2631 147.632L58.1089 146.194L58.3805 144.654L61.7328 145.245L62.3758 141.598L59.0235 141.007L59.2951 139.467L67.4493 140.905L67.1777 142.445L63.8141 141.852L63.1711 145.499L66.5347 146.092L66.2631 147.632ZM68.5166 135.846C68.3728 136.661 68.0712 137.334 67.6118 137.864C67.1531 138.39 66.5765 138.758 65.8819 138.966C65.188 139.171 64.4183 139.198 63.5726 139.049C62.727 138.9 62.0132 138.611 61.4311 138.181C60.8497 137.748 60.4335 137.205 60.1825 136.554C59.9321 135.899 59.8788 135.163 60.0226 134.348C60.1664 133.532 60.4676 132.862 60.9263 132.335C61.3857 131.805 61.9623 131.438 62.6562 131.233C63.3508 131.025 64.1209 130.995 64.9665 131.144C65.8121 131.293 66.5257 131.585 67.1071 132.018C67.6891 132.448 68.1054 132.99 68.3557 133.645C68.6067 134.297 68.6603 135.03 68.5166 135.846ZM67.0669 135.59C67.1657 135.074 67.1302 134.624 66.9605 134.24C66.7908 133.856 66.5095 133.542 66.1166 133.297C65.7245 133.049 65.2452 132.875 64.679 132.775C64.1127 132.675 63.6066 132.676 63.1607 132.776C62.7155 132.873 62.3475 133.072 62.0566 133.375C61.7658 133.678 61.571 134.088 61.4722 134.604C61.3735 135.119 61.409 135.569 61.5787 135.953C61.7484 136.338 62.0293 136.654 62.4215 136.902C62.8144 137.146 63.2939 137.319 63.8602 137.418C64.4265 137.518 64.9322 137.52 65.3774 137.423C65.8233 137.323 66.1917 137.121 66.4825 136.818C66.7734 136.515 66.9682 136.106 67.0669 135.59ZM69.956 127.682C69.8495 128.286 69.6476 128.813 69.3503 129.263C69.0499 129.708 68.6739 130.052 68.2223 130.296C67.7676 130.535 67.2573 130.647 66.6915 130.633L66.7372 128.983C67.2253 128.952 67.6271 128.782 67.9426 128.472C68.2581 128.161 68.4558 127.78 68.5357 127.327C68.5803 127.074 68.5839 126.821 68.5465 126.57C68.5092 126.318 68.4265 126.103 68.2983 125.924C68.1708 125.742 67.9938 125.631 67.7673 125.591C67.6843 125.577 67.6027 125.576 67.5225 125.589C67.4392 125.598 67.3586 125.624 67.2807 125.669C67.2027 125.714 67.1243 125.784 67.0452 125.879C66.9668 125.97 66.8891 126.09 66.8121 126.24L65.8158 128.248C65.7425 128.399 65.6457 128.573 65.5254 128.769C65.4057 128.962 65.2512 129.143 65.0618 129.312C64.8724 129.481 64.6396 129.61 64.3634 129.697C64.084 129.78 63.75 129.788 63.3611 129.719C62.8137 129.622 62.3831 129.404 62.0693 129.065C61.7555 128.725 61.5505 128.31 61.4543 127.818C61.358 127.326 61.3611 126.801 61.4634 126.243C61.5701 125.682 61.7549 125.197 62.0178 124.788C62.2806 124.379 62.6158 124.056 63.0232 123.821C63.4269 123.584 63.8952 123.445 64.4281 123.403L64.4177 125.118C64.1428 125.131 63.9004 125.203 63.6906 125.334C63.4808 125.464 63.3087 125.634 63.1744 125.844C63.0407 126.05 62.9485 126.275 62.8977 126.519C62.8475 126.76 62.8412 126.994 62.8788 127.223C62.9133 127.447 62.9883 127.639 63.104 127.799C63.2204 127.956 63.3749 128.052 63.5674 128.085C63.7448 128.117 63.8998 128.088 64.0324 127.998C64.1612 127.908 64.2742 127.786 64.3714 127.632C64.4687 127.478 64.5552 127.318 64.6312 127.152L65.2658 125.804C65.3598 125.603 65.4765 125.382 65.6162 125.142C65.752 124.901 65.9237 124.679 66.131 124.474C66.3353 124.265 66.5848 124.108 66.8794 124.004C67.1747 123.897 67.5281 123.879 67.9396 123.952C68.3775 124.029 68.7444 124.189 69.0402 124.432C69.3329 124.67 69.5596 124.963 69.7202 125.311C69.877 125.658 69.9736 126.037 70.0101 126.448C70.0473 126.856 70.0292 127.267 69.956 127.682ZM70.5827 123.135L62.4285 121.697L63.0356 118.254C63.0495 118.175 63.072 118.07 63.1028 117.939C63.1305 117.804 63.1632 117.685 63.2007 117.582C63.3621 117.109 63.5927 116.739 63.8927 116.472C64.1933 116.202 64.5435 116.027 64.9432 115.945C65.3391 115.863 65.7654 115.863 66.2222 115.943C66.679 116.024 67.081 116.172 67.4281 116.389C67.7721 116.602 68.0391 116.886 68.2293 117.243C68.4201 117.596 68.5106 118.02 68.5009 118.517C68.4974 118.625 68.4874 118.748 68.471 118.885C68.4546 119.023 68.4397 119.129 68.4264 119.204L68.0909 121.107L70.8543 121.594L70.5827 123.135ZM66.6526 120.853L66.9761 119.019C66.9901 118.94 67.0016 118.852 67.0107 118.756C67.0198 118.661 67.02 118.571 67.0113 118.488C66.9913 118.27 66.9252 118.093 66.8131 117.957C66.6971 117.819 66.5617 117.716 66.4067 117.646C66.2486 117.571 66.0959 117.521 65.9487 117.495C65.8014 117.469 65.6427 117.464 65.4723 117.481C65.2989 117.493 65.1361 117.544 64.984 117.634C64.8282 117.723 64.7036 117.867 64.6104 118.064C64.5738 118.14 64.5433 118.224 64.5192 118.317C64.495 118.41 64.4759 118.496 64.4619 118.575L64.1384 120.41L66.6526 120.853ZM71.8815 115.769L63.7273 114.331L63.9989 112.791L67.3512 113.382L67.9942 109.735L64.6419 109.144L64.9135 107.604L73.0677 109.042L72.7961 110.582L69.4325 109.989L68.7895 113.635L72.1531 114.229L71.8815 115.769ZM74.135 103.982C73.9912 104.798 73.6896 105.47 73.2302 106C72.7715 106.527 72.1949 106.894 71.5003 107.103C70.8064 107.307 70.0367 107.335 69.191 107.186C68.3454 107.037 67.6316 106.747 67.0495 106.318C66.4681 105.884 66.0519 105.342 65.8008 104.69C65.5505 104.035 65.4972 103.3 65.641 102.484C65.7848 101.669 66.086 100.998 66.5447 100.472C67.0041 99.9417 67.5807 99.5743 68.2746 99.3697C68.9692 99.1613 69.7393 99.1317 70.5849 99.2808C71.4305 99.4299 72.144 99.7211 72.7255 100.155C73.3075 100.584 73.7237 101.127 73.9741 101.782C74.2251 102.433 74.2787 103.167 74.135 103.982ZM72.6853 103.727C72.7841 103.211 72.7486 102.761 72.5789 102.377C72.4092 101.992 72.1279 101.678 71.735 101.434C71.3428 101.186 70.8636 101.011 70.2973 100.912C69.7311 100.812 69.225 100.812 68.7791 100.913C68.3339 101.009 67.9659 101.209 67.675 101.512C67.3842 101.815 67.1894 102.224 67.0906 102.74C66.9919 103.256 67.0274 103.706 67.1971 104.09C67.3668 104.474 67.6477 104.79 68.0399 105.039C68.4328 105.283 68.9123 105.455 69.4786 105.555C70.0449 105.655 70.5506 105.656 70.9958 105.56C71.4417 105.459 71.8101 105.258 72.1009 104.955C72.3918 104.652 72.5866 104.242 72.6853 103.727ZM74.8613 98.8693L66.7071 97.4315L67.3142 93.9886C67.3282 93.9093 67.3506 93.8043 67.3814 93.6735C67.4092 93.5382 67.4418 93.4194 67.4793 93.3171C67.6407 92.8434 67.8714 92.4734 68.1713 92.2071C68.4719 91.9371 68.8221 91.7614 69.2218 91.68C69.6177 91.598 70.0441 91.5973 70.5009 91.6778C71.1842 91.7983 71.7393 92.0714 72.1664 92.497C72.5897 92.922 72.7941 93.5069 72.7796 94.2516L72.705 94.9391L72.3695 96.8418L75.1329 97.329L74.8613 98.8693ZM75.6721 94.2712L72.0702 95.2943L72.044 93.6548L75.9796 92.5271L75.6721 94.2712ZM70.9312 96.5882L71.2547 94.7535C71.2687 94.6742 71.2803 94.5867 71.2893 94.491C71.2984 94.3953 71.2986 94.3058 71.29 94.2225C71.27 94.0049 71.2039 93.8278 71.0917 93.6913C70.9758 93.5541 70.8403 93.4504 70.6853 93.3802C70.5272 93.3056 70.3745 93.2554 70.2273 93.2294C70.0801 93.2035 69.9213 93.1988 69.751 93.2155C69.5775 93.2277 69.4148 93.2788 69.2627 93.3688C69.1068 93.4581 68.9823 93.6015 68.889 93.7992C68.8524 93.8745 68.822 93.9586 68.7978 94.0517C68.7736 94.1447 68.7545 94.2309 68.7405 94.3102L68.417 96.1449L70.9312 96.5882Z" fill="white"/>
<path opacity="0.2" d="M1.28834 444.139C0.904729 446.314 2.3574 448.389 4.53298 448.773L8.47221 449.467L74.4585 75.2404L68.5497 74.1985C67.4619 74.0067 66.4246 74.733 66.2328 75.8208L1.28834 444.139Z" fill="white"/>
<path d="M69.5352 74.3711L103.019 80.2751L105.422 27.6356C105.468 26.6315 104.761 25.7493 103.771 25.5748L87.5366 22.7122C86.5467 22.5376 85.581 23.1249 85.2807 24.0842L69.5352 74.3711Z" fill="#222516"/>
<path opacity="0.2" d="M69.5352 74.3711L75.444 75.413L90.7298 23.2753L87.5366 22.7122C86.5467 22.5376 85.581 23.1249 85.2807 24.0842L69.5352 74.3711Z" fill="white"/>
<path d="M87.7754 22.7539L103.532 25.5323L103.573 21.144C103.583 20.1663 102.884 19.3254 101.921 19.1556L91.4706 17.3129C90.5078 17.1431 89.5633 17.6943 89.2376 18.6162L87.7754 22.7539Z" fill="#2E321F"/>
<path opacity="0.2" d="M87.7754 22.7539L91.7146 23.4485L93.7413 17.7133L91.4706 17.3129C90.5078 17.1431 89.5633 17.6943 89.2376 18.6162L87.7754 22.7539Z" fill="white"/>
<path d="M92.7559 17.541L100.634 18.9302L101.031 6.79453C101.068 5.64755 100.256 4.64758 99.1262 4.4483C97.996 4.24902 96.8913 4.91109 96.5342 6.00171L92.7559 17.541Z" fill="#C4E456"/>
<path opacity="0.2" d="M92.7559 17.541L94.7255 17.8883L99.1262 4.4483C97.996 4.24902 96.8913 4.91109 96.5342 6.00171L92.7559 17.541Z" fill="white"/>
</g>
<defs>
<filter id="filter0_d_133_2774" x="0.226562" y="0.974609" width="120.596" height="456.416" filterUnits="userSpaceOnUse" color-interpolation-filters="sRGB">
<feFlood flood-opacity="0" result="BackgroundImageFix"/>
<feColorMatrix in="SourceAlpha" type="matrix" values="0 0 0 0 0 0 0 0 0 0 0 0 0 0 0 0 0 0 127 0" result="hardAlpha"/>
<feOffset dx="2" dy="2"/>
<feComposite in2="hardAlpha" operator="out"/>
<feColorMatrix type="matrix" values="0 0 0 0 0.235294 0 0 0 0 0.25098 0 0 0 0 0.168627 0 0 0 0.2 0"/>
<feBlend mode="normal" in2="BackgroundImageFix" result="effect1_dropShadow_133_2774"/>
<feBlend mode="normal" in="SourceGraphic" in2="effect1_dropShadow_133_2774" result="shape"/>
</filter>
</defs>
</svg>
