<?xml version="1.0" encoding="UTF-8"?>
<svg width="16px" height="16px" viewBox="0 0 16 16" version="1.1" xmlns="http://www.w3.org/2000/svg" xmlns:xlink="http://www.w3.org/1999/xlink">
    <title>ph-medium</title>
    <g id="Page-1" stroke="none" stroke-width="1" fill="none" fill-rule="evenodd">
        <g id="REFACTOR---Testing-32-line-style-MEDIUM---REFACTOR" transform="translate(-204.000000, -996.000000)" fill="#000000" fill-rule="nonzero">
            <g id="ph-medium" transform="translate(204.000000, 996.000000)">
                <path d="M14,12 C14.2761424,12 14.5,12.2238576 14.5,12.5 C14.5,12.7454599 14.3231248,12.9496084 14.0898756,12.9919443 L14,13 L4.5,13 C4.22385763,13 4,12.7761424 4,12.5 C4,12.2545401 4.17687516,12.0503916 4.41012437,12.0080557 L4.5,12 L14,12 Z M14,10 C14.2761424,10 14.5,10.2238576 14.5,10.5 C14.5,10.7454599 14.3231248,10.9496084 14.0898756,10.9919443 L14,11 L4.5,11 C4.22385763,11 4,10.7761424 4,10.5 C4,10.2545401 4.17687516,10.0503916 4.41012437,10.0080557 L4.5,10 L14,10 Z M2.65354408,3.02414782 C2.67769289,3.03223166 2.69217418,3.03800239 2.70630451,3.04441119 C2.71847532,3.04997673 2.73072078,3.05611339 2.74272031,3.06276037 C2.75423171,3.06916758 2.76539098,3.07596718 2.77625211,3.08317996 C2.78927645,3.09170696 2.80215858,3.10113395 2.81461525,3.11121546 C2.82857564,3.12268549 2.84190656,3.13473092 2.85455733,3.14745339 C2.85945898,3.15222627 2.86454889,3.15757574 2.86953397,3.16305564 C2.88977294,3.18580476 2.90507848,3.20575827 2.91883933,3.22681289 L2.92399915,3.23500053 L5,6.557 L7.0666049,3.25049541 C7.08384454,3.22061429 7.10408567,3.19268292 7.12691636,3.16711324 L7.07600085,3.23500053 C7.09632795,3.20247716 7.11978238,3.17309773 7.14573068,3.14700841 C7.15809344,3.13473092 7.17142436,3.12268549 7.18537633,3.1113762 C7.19784142,3.10113395 7.21072355,3.09170696 7.22397674,3.08294705 C7.23460902,3.07596718 7.24576829,3.06916758 7.25720325,3.06280359 C7.26927922,3.05611339 7.28152468,3.04997673 7.29398048,3.04435859 C7.30782582,3.03800239 7.32230711,3.03223166 7.33710256,3.02713575 C7.34029391,3.02616563 7.34337035,3.02514173 7.34645592,3.02414782 L7.41012437,3.00805567 C7.4114202,3.00782047 7.41271777,3.00759026 7.41401705,3.00736507 C7.43745968,3.00335576 7.46095516,3.00093668 7.48456716,3.00018595 C7.48911107,3.00008735 7.49454534,3 7.5,3 L8.5,3 C8.77614237,3 9,3.22385763 9,3.5 C9,3.74545989 8.82312484,3.94960837 8.58987563,3.99194433 L8.5,4 L8,4 L8,8 L8.5,8 C8.77614237,8 9,8.22385763 9,8.5 C9,8.74545989 8.82312484,8.94960837 8.58987563,8.99194433 L8.5,9 L7,9 C6.72385763,9 6.5,8.77614237 6.5,8.5 C6.5,8.25454011 6.67687516,8.05039163 6.91012437,8.00805567 L7,8 L7,5.241 L5.42399915,7.76499947 C5.24448486,8.05222234 4.84608074,8.07615758 4.63008481,7.83680519 L4.57600085,7.76499947 L3,5.242 L3,8 C3.27614237,8 3.5,8.22385763 3.5,8.5 C3.5,8.74545989 3.32312484,8.94960837 3.08987563,8.99194433 L3,9 L1.5,9 C1.22385763,9 1,8.77614237 1,8.5 C1,8.25454011 1.17687516,8.05039163 1.41012437,8.00805567 L1.5,8 L2,8 L2,4 L1.5,4 C1.22385763,4 1,3.77614237 1,3.5 C1,3.25454011 1.17687516,3.05039163 1.41012437,3.00805567 L1.5,3 L2.5,3 L2.5,3 L2.51643951,3.00021897 C2.53971263,3.00100577 2.56286998,3.00341324 2.58573533,3.00740073 L2.58987563,3.00805567 L2.65354408,3.02414782 L2.65354408,3.02414782 Z M14,8 C14.2761424,8 14.5,8.22385763 14.5,8.5 C14.5,8.74545989 14.3231248,8.94960837 14.0898756,8.99194433 L14,9 L10.5,9 C10.2238576,9 10,8.77614237 10,8.5 C10,8.25454011 10.1768752,8.05039163 10.4101244,8.00805567 L10.5,8 L14,8 Z M14,6 C14.2761424,6 14.5,6.22385763 14.5,6.5 C14.5,6.74545989 14.3231248,6.94960837 14.0898756,6.99194433 L14,7 L10.5,7 C10.2238576,7 10,6.77614237 10,6.5 C10,6.25454011 10.1768752,6.05039163 10.4101244,6.00805567 L10.5,6 L14,6 Z" id="Combined-Shape"></path>
            </g>
        </g>
    </g>
</svg>