<?xml version="1.0" encoding="UTF-8"?>
<svg width="16px" height="16px" viewBox="0 0 16 16" version="1.1" xmlns="http://www.w3.org/2000/svg" xmlns:xlink="http://www.w3.org/1999/xlink">
    <title>ph-music-beam-angled</title>
    <g id="Page-1" stroke="none" stroke-width="1" fill="none" fill-rule="evenodd">
        <g id="REFACTOR---Testing-32-line-style-MEDIUM---REFACTOR" transform="translate(-172.000000, -964.000000)">
            <g id="ph-music-beam-angled" transform="translate(172.000000, 964.000000)">
                <polygon id="Fill-1" points="0 16 16 16 16 0 0 0"></polygon>
                <path d="M13.492643,1.91360655 L13.5,2 L13.5,10.75 C13.5,11.9928413 12.4924436,13 11.25,13 C10.0075564,13 9,11.9928413 9,10.75 C9,9.50715874 10.0075564,8.5 11.25,8.5 C11.712946,8.5 12.1432809,8.63983159 12.5010326,8.87958459 L12.5,5.6397537 L5.5,7.3897537 L5.5,12.75 C5.5,13.9410562 4.57465745,14.9156609 3.40402619,14.9948102 L3.25,15 C2.00755635,15 1,13.9928413 1,12.75 C1,11.5071587 2.00755635,10.5 3.25,10.5 C3.71294604,10.5 4.14328088,10.6398316 4.50103263,10.8795846 L4.5,4 L4.49999578,3.98898238 C4.50051094,3.96495901 4.50276653,3.94119224 4.50666782,3.91783996 L4.5,4 C4.5,3.9646249 4.50367368,3.93010783 4.51066034,3.89680949 C4.51495379,3.87650325 4.5204484,3.85673385 4.52710857,3.83742038 C4.53041213,3.8275224 4.53436437,3.81713131 4.53864621,3.80691256 C4.54539826,3.79111956 4.55260499,3.77612285 4.56053171,3.76152459 C4.56634219,3.75061253 4.57296617,3.73945961 4.5800001,3.72859686 C4.58867105,3.71529665 4.59773678,3.70261084 4.60738389,3.69036068 C4.61537546,3.68024911 4.62370892,3.67049266 4.63240001,3.6610711 C4.64180106,3.65076112 4.65196124,3.64061268 4.66256873,3.63089815 C4.67414044,3.62040841 4.68672319,3.60994605 4.69980412,3.60011059 C4.7095913,3.59260907 4.7203327,3.58515564 4.73140073,3.57811126 C4.74391828,3.57023271 4.75622604,3.56311591 4.76885039,3.55652235 C4.7765862,3.55247391 4.78496682,3.54839627 4.7934938,3.54454194 L4.80896344,3.53779224 C4.82354501,3.5317588 4.83847411,3.52639529 4.85371238,3.52174008 L4.87873219,3.51492875 L12.8787322,1.51492875 C13.1656171,1.44320753 13.4443375,1.6339428 13.492643,1.91360655 Z M3.25,11.5 C2.55975276,11.5 2,12.0595319 2,12.75 C2,13.4404681 2.55975276,14 3.25,14 C3.94024724,14 4.5,13.4404681 4.5,12.75 C4.5,12.0595319 3.94024724,11.5 3.25,11.5 Z M11.25,9.5 C10.5597528,9.5 10,10.0595319 10,10.75 C10,11.4404681 10.5597528,12 11.25,12 C11.9402472,12 12.5,11.4404681 12.5,10.75 C12.5,10.0595319 11.9402472,9.5 11.25,9.5 Z M12.5,2.64 L5.5,4.3897537 L5.5,6.3597537 L12.5,4.6097537 L12.5,2.64 Z" id="Combined-Shape" fill="#000000" fill-rule="nonzero"></path>
            </g>
        </g>
    </g>
</svg>