<svg xmlns="http://www.w3.org/2000/svg" width="217" height="199" viewBox="0 0 217 199">
  <g fill="none" fill-rule="evenodd">
    <g fill="#000" transform="rotate(-20 141.428 -249.712)">
      <path d="M73.5783829,69.1067961 L19.1495518,69.1067961 C11.9105926,69.1067961 6.02159845,63.0861981 6.02159845,55.6854369 C6.02159845,48.2846757 11.9105926,42.2640777 19.1495518,42.2640777 L72.8349887,42.2640777 C76.9463984,42.2640777 80.2912994,45.6089786 80.2912994,49.7203883 C80.2912994,53.8317981 76.9463984,57.176699 72.8349887,57.176699 L31.0796489,57.176699 C30.2560994,57.176699 29.5883868,56.5089864 29.5883868,55.6854369 C29.5883868,54.8618874 30.2560994,54.1941748 31.0796489,54.1941748 L72.8349887,54.1941748 C75.3019091,54.1941748 77.3087751,52.1873087 77.3087751,49.7203883 C77.3087751,47.253468 75.3019091,45.2466019 72.8349887,45.2466019 L19.1495518,45.2466019 C13.5550819,45.2466019 9.00412272,49.9295379 9.00412272,55.6854369 C9.00412272,61.4413359 13.5550819,66.1242718 19.1495518,66.1242718 L73.5783829,66.1242718 C82.6236334,66.1242718 89.9822664,58.7656388 89.9822664,49.7203883 C89.9822664,40.6751379 82.6236334,33.3165049 73.5783829,33.3165049 L31.8230431,33.3165049 C30.9994936,33.3165049 30.331781,32.6487922 30.331781,31.8252427 C30.331781,31.0016932 30.9994936,30.3339806 31.8230431,30.3339806 L73.5783829,30.3339806 C84.2681227,30.3339806 92.9647907,39.0306485 92.9647907,49.7203883 C92.9647907,60.4101282 84.2681227,69.1067961 73.5783829,69.1067961" opacity=".1"/>
      <path d="M71.5783829,67.1067961 L17.1495518,67.1067961 C9.91059262,67.1067961 4.02159845,61.0861981 4.02159845,53.6854369 C4.02159845,46.2846757 9.91059262,40.2640777 17.1495518,40.2640777 L70.8349887,40.2640777 C74.9463984,40.2640777 78.2912994,43.6089786 78.2912994,47.7203883 C78.2912994,51.8317981 74.9463984,55.176699 70.8349887,55.176699 L29.0796489,55.176699 C28.2560994,55.176699 27.5883868,54.5089864 27.5883868,53.6854369 C27.5883868,52.8618874 28.2560994,52.1941748 29.0796489,52.1941748 L70.8349887,52.1941748 C73.3019091,52.1941748 75.3087751,50.1873087 75.3087751,47.7203883 C75.3087751,45.253468 73.3019091,43.2466019 70.8349887,43.2466019 L17.1495518,43.2466019 C11.5550819,43.2466019 7.00412272,47.9295379 7.00412272,53.6854369 C7.00412272,59.4413359 11.5550819,64.1242718 17.1495518,64.1242718 L71.5783829,64.1242718 C80.6236334,64.1242718 87.9822664,56.7656388 87.9822664,47.7203883 C87.9822664,38.6751379 80.6236334,31.3165049 71.5783829,31.3165049 L29.8230431,31.3165049 C28.9994936,31.3165049 28.331781,30.6487922 28.331781,29.8252427 C28.331781,29.0016932 28.9994936,28.3339806 29.8230431,28.3339806 L71.5783829,28.3339806 C82.2681227,28.3339806 90.9647907,37.0306485 90.9647907,47.7203883 C90.9647907,58.4101282 82.2681227,67.1067961 71.5783829,67.1067961"/>
    </g>
    <g fill="#000" transform="rotate(10 -475.704 343.826)">
      <path d="M73.5783829,69.1067961 L19.1495518,69.1067961 C11.9105926,69.1067961 6.02159845,63.0861981 6.02159845,55.6854369 C6.02159845,48.2846757 11.9105926,42.2640777 19.1495518,42.2640777 L72.8349887,42.2640777 C76.9463984,42.2640777 80.2912994,45.6089786 80.2912994,49.7203883 C80.2912994,53.8317981 76.9463984,57.176699 72.8349887,57.176699 L31.0796489,57.176699 C30.2560994,57.176699 29.5883868,56.5089864 29.5883868,55.6854369 C29.5883868,54.8618874 30.2560994,54.1941748 31.0796489,54.1941748 L72.8349887,54.1941748 C75.3019091,54.1941748 77.3087751,52.1873087 77.3087751,49.7203883 C77.3087751,47.253468 75.3019091,45.2466019 72.8349887,45.2466019 L19.1495518,45.2466019 C13.5550819,45.2466019 9.00412272,49.9295379 9.00412272,55.6854369 C9.00412272,61.4413359 13.5550819,66.1242718 19.1495518,66.1242718 L73.5783829,66.1242718 C82.6236334,66.1242718 89.9822664,58.7656388 89.9822664,49.7203883 C89.9822664,40.6751379 82.6236334,33.3165049 73.5783829,33.3165049 L31.8230431,33.3165049 C30.9994936,33.3165049 30.331781,32.6487922 30.331781,31.8252427 C30.331781,31.0016932 30.9994936,30.3339806 31.8230431,30.3339806 L73.5783829,30.3339806 C84.2681227,30.3339806 92.9647907,39.0306485 92.9647907,49.7203883 C92.9647907,60.4101282 84.2681227,69.1067961 73.5783829,69.1067961" opacity=".1"/>
      <path d="M71.5783829,67.1067961 L17.1495518,67.1067961 C9.91059262,67.1067961 4.02159845,61.0861981 4.02159845,53.6854369 C4.02159845,46.2846757 9.91059262,40.2640777 17.1495518,40.2640777 L70.8349887,40.2640777 C74.9463984,40.2640777 78.2912994,43.6089786 78.2912994,47.7203883 C78.2912994,51.8317981 74.9463984,55.176699 70.8349887,55.176699 L29.0796489,55.176699 C28.2560994,55.176699 27.5883868,54.5089864 27.5883868,53.6854369 C27.5883868,52.8618874 28.2560994,52.1941748 29.0796489,52.1941748 L70.8349887,52.1941748 C73.3019091,52.1941748 75.3087751,50.1873087 75.3087751,47.7203883 C75.3087751,45.253468 73.3019091,43.2466019 70.8349887,43.2466019 L17.1495518,43.2466019 C11.5550819,43.2466019 7.00412272,47.9295379 7.00412272,53.6854369 C7.00412272,59.4413359 11.5550819,64.1242718 17.1495518,64.1242718 L71.5783829,64.1242718 C80.6236334,64.1242718 87.9822664,56.7656388 87.9822664,47.7203883 C87.9822664,38.6751379 80.6236334,31.3165049 71.5783829,31.3165049 L29.8230431,31.3165049 C28.9994936,31.3165049 28.331781,30.6487922 28.331781,29.8252427 C28.331781,29.0016932 28.9994936,28.3339806 29.8230431,28.3339806 L71.5783829,28.3339806 C82.2681227,28.3339806 90.9647907,37.0306485 90.9647907,47.7203883 C90.9647907,58.4101282 82.2681227,67.1067961 71.5783829,67.1067961"/>
    </g>
  </g>
</svg>
