<?xml version="1.0" encoding="UTF-8"?>
<svg width="181px" height="199px" viewBox="0 0 181 199" version="1.1" xmlns="http://www.w3.org/2000/svg" xmlns:xlink="http://www.w3.org/1999/xlink">
    <title>paperclips</title>
    <g id="paperclips" stroke="none" stroke-width="1" fill="none" fill-rule="evenodd">
        <g id="paperclip" transform="translate(119.457872, 62.000000) rotate(-20.000000) translate(-119.457872, -62.000000) translate(71.457872, 14.000000)" fill="#000000" fill-rule="nonzero">
            <path d="M73.192945,31.0634255 C83.9633721,31.0634255 92.692945,39.7929984 92.692945,50.5634255 C92.692945,61.2192736 84.1481197,69.877459 73.535981,70.0604697 L73.192945,70.0634255 L18.442945,70.0634255 C11.1450692,70.0634255 5.24294495,64.0086782 5.24294495,56.5634255 C5.24294495,49.2230356 10.979983,43.2342576 18.1354272,43.0670158 L18.442945,43.0634255 L72.442945,43.0634255 C76.5893721,43.0634255 79.942945,46.4169984 79.942945,50.5634255 C79.942945,54.6285502 76.7195954,57.931608 72.6859186,58.0595768 L72.442945,58.0634255 L18.442945,58.0634255 C17.6145178,58.0634255 16.942945,57.3918527 16.942945,56.5634255 C16.942945,55.7837294 17.537833,55.1429769 18.2984849,55.0702921 L18.442945,55.0634255 L72.442945,55.0634255 C74.9325178,55.0634255 76.942945,53.0529984 76.942945,50.5634255 C76.942945,48.1449833 75.0457582,46.1786982 72.6551278,46.0683133 L72.442945,46.0634255 L18.442945,46.0634255 C12.8193069,46.0634255 8.24294495,50.7581277 8.24294495,56.5634255 C8.24294495,62.2735545 12.6704921,66.9092024 18.1672325,67.0596563 L18.442945,67.0634255 L73.192945,67.0634255 C82.3065178,67.0634255 89.692945,59.6769984 89.692945,50.5634255 C89.692945,41.5570712 82.4792938,34.2374629 73.5138741,34.0664833 L73.192945,34.0634255 L13.192945,34.0634255 C12.3645178,34.0634255 11.692945,33.3918527 11.692945,32.5634255 C11.692945,31.7837294 12.287833,31.1429769 13.0484849,31.0702921 L13.192945,31.0634255 L73.192945,31.0634255 Z" id="shadow" opacity="0.100000001"></path>
            <path d="M71.9976,28.5 C82.7680271,28.5 91.4976,37.2295729 91.4976,48 C91.4976,58.6558481 82.9527748,67.3140334 72.3406361,67.4970442 L71.9976,67.5 L17.2476,67.5 C9.94972423,67.5 4.0476,61.4452526 4.0476,54 C4.0476,46.6596101 9.78463804,40.6708321 16.9400823,40.5035903 L17.2476,40.5 L71.2476,40.5 C75.3940271,40.5 78.7476,43.8535729 78.7476,48 C78.7476,52.0651246 75.5242504,55.3681825 71.4905737,55.4961513 L71.2476,55.5 L17.2476,55.5 C16.4191729,55.5 15.7476,54.8284271 15.7476,54 C15.7476,53.2203039 16.3424881,52.5795513 17.10314,52.5068666 L17.2476,52.5 L71.2476,52.5 C73.7371729,52.5 75.7476,50.4895729 75.7476,48 C75.7476,45.5815578 73.8504133,43.6152727 71.4597828,43.5048878 L71.2476,43.5 L17.2476,43.5 C11.623962,43.5 7.0476,48.1947022 7.0476,54 C7.0476,59.710129 11.4751472,64.3457769 16.9718875,64.4962308 L17.2476,64.5 L71.9976,64.5 C81.1111729,64.5 88.4976,57.1135729 88.4976,48 C88.4976,38.9936456 81.2839488,31.6740373 72.3185291,31.5030578 L71.9976,31.5 L11.9976,31.5 C11.1691729,31.5 10.4976,30.8284271 10.4976,30 C10.4976,29.2203039 11.0924881,28.5795513 11.85314,28.5068666 L11.9976,28.5 L71.9976,28.5 Z" id="shape"></path>
        </g>
        <g id="paperclip" transform="translate(55.413447, 143.434549) rotate(10.000000) translate(-55.413447, -143.434549) translate(7.413447, 95.434549)" fill="#000000" fill-rule="nonzero">
            <path d="M74.3145119,30.1223192 C85.084939,30.1223192 93.8145119,38.851892 93.8145119,49.6223192 C93.8145119,60.2781673 85.2696866,68.9363526 74.6575479,69.1193633 L74.3145119,69.1223192 L19.5645119,69.1223192 C12.2666361,69.1223192 6.36451186,63.0675718 6.36451186,55.6223192 C6.36451186,48.2819292 12.1015499,42.2931513 19.2569941,42.1259094 L19.5645119,42.1223192 L73.5645119,42.1223192 C77.710939,42.1223192 81.0645119,45.475892 81.0645119,49.6223192 C81.0645119,53.6874438 77.8411623,56.9905017 73.8074856,57.1184704 L73.5645119,57.1223192 L19.5645119,57.1223192 C18.7360847,57.1223192 18.0645119,56.4507463 18.0645119,55.6223192 C18.0645119,54.842623 18.6593999,54.2018705 19.4200519,54.1291857 L19.5645119,54.1223192 L73.5645119,54.1223192 C76.0540847,54.1223192 78.0645119,52.111892 78.0645119,49.6223192 C78.0645119,47.2038769 76.1673251,45.2375918 73.7766947,45.1272069 L73.5645119,45.1223192 L19.5645119,45.1223192 C13.9408738,45.1223192 9.36451186,49.8170213 9.36451186,55.6223192 C9.36451186,61.3324482 13.792059,65.968096 19.2887994,66.1185499 L19.5645119,66.1223192 L74.3145119,66.1223192 C83.4280847,66.1223192 90.8145119,58.735892 90.8145119,49.6223192 C90.8145119,40.6159648 83.6008607,33.2963565 74.635441,33.125377 L74.3145119,33.1223192 L14.3145119,33.1223192 C13.4860847,33.1223192 12.8145119,32.4507463 12.8145119,31.6223192 C12.8145119,30.842623 13.4093999,30.2018705 14.1700519,30.1291857 L14.3145119,30.1223192 L74.3145119,30.1223192 Z" id="shadow" opacity="0.200000003"></path>
            <path d="M71.9976,28.5 C82.7680271,28.5 91.4976,37.2295729 91.4976,48 C91.4976,58.6558481 82.9527748,67.3140334 72.3406361,67.4970442 L71.9976,67.5 L17.2476,67.5 C9.94972423,67.5 4.0476,61.4452526 4.0476,54 C4.0476,46.6596101 9.78463804,40.6708321 16.9400823,40.5035903 L17.2476,40.5 L71.2476,40.5 C75.3940271,40.5 78.7476,43.8535729 78.7476,48 C78.7476,52.0651246 75.5242504,55.3681825 71.4905737,55.4961513 L71.2476,55.5 L17.2476,55.5 C16.4191729,55.5 15.7476,54.8284271 15.7476,54 C15.7476,53.2203039 16.3424881,52.5795513 17.10314,52.5068666 L17.2476,52.5 L71.2476,52.5 C73.7371729,52.5 75.7476,50.4895729 75.7476,48 C75.7476,45.5815578 73.8504133,43.6152727 71.4597828,43.5048878 L71.2476,43.5 L17.2476,43.5 C11.623962,43.5 7.0476,48.1947022 7.0476,54 C7.0476,59.710129 11.4751472,64.3457769 16.9718875,64.4962308 L17.2476,64.5 L71.9976,64.5 C81.1111729,64.5 88.4976,57.1135729 88.4976,48 C88.4976,38.9936456 81.2839488,31.6740373 72.3185291,31.5030578 L71.9976,31.5 L11.9976,31.5 C11.1691729,31.5 10.4976,30.8284271 10.4976,30 C10.4976,29.2203039 11.0924881,28.5795513 11.85314,28.5068666 L11.9976,28.5 L71.9976,28.5 Z" id="shape"></path>
        </g>
    </g>
</svg>