<svg width="189" height="271" viewBox="0 0 189 271" fill="none" xmlns="http://www.w3.org/2000/svg">
<g filter="url(#filter0_d_215_32199)">
<path d="M169.023 50.8527C169.174 51.0036 169.294 51.1828 169.376 51.3801C169.458 51.5774 169.5 51.7888 169.5 52.0024C169.5 52.2159 169.458 52.4274 169.376 52.6247C169.294 52.8219 169.174 53.0012 169.023 53.1521L135.686 86.4646C131.724 90.4263 126.35 92.6518 120.747 92.6514C115.144 92.651 109.77 90.4248 105.809 86.4625C101.847 82.5002 99.6214 77.1264 99.6218 71.5233C99.6222 65.9201 101.848 60.5466 105.811 56.5849L146.147 15.6633C147.505 14.3045 149.117 13.2264 150.891 12.4906C152.666 11.7549 154.568 11.3758 156.489 11.375C158.41 11.3742 160.312 11.7518 162.087 12.4862C163.862 13.2206 165.475 14.2975 166.834 15.6552C168.192 17.0129 169.27 18.625 170.006 20.3994C170.742 22.1738 171.121 24.0757 171.122 25.9966C171.123 27.9175 170.745 29.8198 170.011 31.5947C169.276 33.3697 168.199 34.9826 166.842 36.3414L126.501 77.2468C125.747 78.0017 124.852 78.6006 123.866 79.0095C122.88 79.4183 121.824 79.6291 120.757 79.6296C119.69 79.6302 118.633 79.4206 117.647 79.0128C116.661 78.605 115.765 78.007 115.01 77.2529C114.255 76.4988 113.656 75.6034 113.248 74.6178C112.839 73.6322 112.628 72.5757 112.627 71.5087C112.627 70.4417 112.836 69.385 113.244 68.399C113.652 67.413 114.25 66.517 115.004 65.7621L148.841 31.3608C148.989 31.2027 149.167 31.0758 149.365 30.9877C149.563 30.8995 149.777 30.8519 149.994 30.8475C150.21 30.8431 150.426 30.8822 150.627 30.9623C150.828 31.0424 151.012 31.162 151.166 31.314C151.321 31.466 151.443 31.6474 151.526 31.8475C151.61 32.0476 151.652 32.2623 151.651 32.479C151.65 32.6957 151.606 32.9101 151.521 33.1095C151.436 33.3088 151.312 33.4892 151.156 33.6399L117.312 68.0493C116.858 68.5014 116.498 69.0384 116.252 69.6297C116.006 70.2209 115.879 70.8548 115.878 71.4952C115.877 72.1356 116.003 72.7698 116.247 73.3618C116.491 73.9538 116.849 74.4919 117.301 74.9454C117.754 75.3988 118.291 75.7588 118.882 76.0047C119.473 76.2507 120.107 76.3777 120.747 76.3787C121.388 76.3796 122.022 76.2544 122.614 76.0102C123.206 75.766 123.744 75.4076 124.198 74.9555L164.534 34.0502C165.591 32.9944 166.43 31.7408 167.003 30.3608C167.575 28.9808 167.871 27.5016 167.871 26.0075C167.872 24.5135 167.579 23.0339 167.008 21.6532C166.437 20.2725 165.6 19.0178 164.544 17.9607C163.489 16.9035 162.235 16.0647 160.855 15.4921C159.475 14.9195 157.996 14.6243 156.502 14.6233C155.008 14.6224 153.528 14.9157 152.147 15.4866C150.767 16.0575 149.512 16.8947 148.455 17.9505L108.118 58.8558C104.764 62.2072 102.879 66.7537 102.877 71.4952C102.875 76.2367 104.757 80.7847 108.108 84.1388C111.459 87.4929 116.006 89.3782 120.747 89.3801C125.489 89.382 130.037 87.5003 133.391 84.149L166.704 50.8365C166.856 50.6834 167.037 50.5622 167.237 50.48C167.437 50.3978 167.651 50.3562 167.867 50.3577C168.083 50.3592 168.296 50.4038 168.495 50.4888C168.693 50.5738 168.873 50.6975 169.023 50.8527Z" fill="#3C402B"/>
</g>
<g clip-path="url(#clip0_215_32199)">
<g filter="url(#filter1_d_215_32199)">
<path d="M99.3398 214.051C99.3952 214.257 99.4094 214.473 99.3816 214.684C99.3538 214.896 99.2845 215.1 99.1777 215.285C99.071 215.47 98.9288 215.632 98.7593 215.762C98.5899 215.892 98.3965 215.987 98.1902 216.043L52.6633 228.224C47.251 229.673 41.4844 228.914 36.6321 226.112C31.7799 223.31 28.2394 218.695 26.7895 213.283C25.3397 207.871 26.0993 202.104 28.9012 197.252C31.7031 192.4 36.3178 188.859 41.7301 187.409L97.1234 172.138C98.9786 171.64 100.914 171.513 102.818 171.763C104.723 172.013 106.56 172.636 108.224 173.595C109.887 174.555 111.346 175.833 112.516 177.357C113.686 178.88 114.544 180.619 115.042 182.474C115.54 184.33 115.668 186.265 115.418 188.169C115.168 190.074 114.545 191.911 113.585 193.575C112.626 195.239 111.347 196.697 109.824 197.867C108.3 199.037 106.561 199.895 104.706 200.393L49.3175 215.648C48.287 215.925 47.2121 215.996 46.1541 215.857C45.0962 215.718 44.0759 215.373 43.1515 214.84C42.2272 214.307 41.4169 213.597 40.7669 212.751C40.1169 211.904 39.6399 210.938 39.3632 209.908C39.0865 208.877 39.0154 207.803 39.1541 206.745C39.2929 205.687 39.6386 204.666 40.1716 203.742C40.7046 202.818 41.4145 202.007 42.2607 201.357C43.1069 200.707 44.0728 200.23 45.1033 199.954L91.6072 187.08C91.8146 187.017 92.0325 186.996 92.2481 187.019C92.4636 187.041 92.6725 187.107 92.8623 187.211C93.0521 187.316 93.2191 187.457 93.3535 187.628C93.4878 187.798 93.5867 187.993 93.6445 188.202C93.7023 188.411 93.7177 188.629 93.6898 188.844C93.6619 189.059 93.5913 189.266 93.4821 189.453C93.373 189.64 93.2275 189.804 93.0542 189.934C92.8809 190.064 92.6833 190.158 92.4731 190.211L45.958 203.088C45.3393 203.253 44.759 203.538 44.2504 203.927C43.7418 204.316 43.3148 204.802 42.9938 205.356C42.6728 205.91 42.4641 206.522 42.3796 207.157C42.295 207.791 42.3364 208.436 42.5012 209.055C42.666 209.674 42.9511 210.254 43.3402 210.763C43.7293 211.271 44.2147 211.698 44.7688 212.019C45.3229 212.34 45.9348 212.549 46.5696 212.634C47.2043 212.718 47.8495 212.677 48.4683 212.512L103.853 197.255C105.297 196.87 106.65 196.203 107.836 195.294C109.022 194.386 110.017 193.252 110.765 191.959C111.513 190.665 111.999 189.237 112.195 187.756C112.39 186.275 112.293 184.77 111.907 183.326C111.521 181.883 110.855 180.53 109.946 179.344C109.037 178.158 107.904 177.163 106.611 176.415C105.317 175.667 103.889 175.181 102.408 174.985C100.927 174.789 99.4215 174.887 97.9782 175.273L42.593 190.53C38.0126 191.755 34.1066 194.75 31.7342 198.855C29.3618 202.96 28.7174 207.84 29.9427 212.42C31.1681 217.001 34.1628 220.907 38.2681 223.279C42.3734 225.651 47.2529 226.296 51.8333 225.071L97.3391 212.877C97.5475 212.821 97.7652 212.807 97.9793 212.835C98.1933 212.864 98.3996 212.935 98.5858 213.044C98.7721 213.154 98.9348 213.299 99.0642 213.472C99.1937 213.645 99.2874 213.842 99.3398 214.051Z" fill="#3C402B"/>
</g>
</g>
<defs>
<filter id="filter0_d_215_32199" x="99.6218" y="11.375" width="73.5" height="83.2764" filterUnits="userSpaceOnUse" color-interpolation-filters="sRGB">
<feFlood flood-opacity="0" result="BackgroundImageFix"/>
<feColorMatrix in="SourceAlpha" type="matrix" values="0 0 0 0 0 0 0 0 0 0 0 0 0 0 0 0 0 0 127 0" result="hardAlpha"/>
<feOffset dx="2" dy="2"/>
<feComposite in2="hardAlpha" operator="out"/>
<feColorMatrix type="matrix" values="0 0 0 0 0.235294 0 0 0 0 0.25098 0 0 0 0 0.168627 0 0 0 0.2 0"/>
<feBlend mode="normal" in2="BackgroundImageFix" result="effect1_dropShadow_215_32199"/>
<feBlend mode="normal" in="SourceGraphic" in2="effect1_dropShadow_215_32199" result="shape"/>
</filter>
<filter id="filter1_d_215_32199" x="26.0699" y="171.638" width="91.4722" height="59.3047" filterUnits="userSpaceOnUse" color-interpolation-filters="sRGB">
<feFlood flood-opacity="0" result="BackgroundImageFix"/>
<feColorMatrix in="SourceAlpha" type="matrix" values="0 0 0 0 0 0 0 0 0 0 0 0 0 0 0 0 0 0 127 0" result="hardAlpha"/>
<feOffset dx="2" dy="2"/>
<feComposite in2="hardAlpha" operator="out"/>
<feColorMatrix type="matrix" values="0 0 0 0 0.235294 0 0 0 0 0.25098 0 0 0 0 0.168627 0 0 0 0.2 0"/>
<feBlend mode="normal" in2="BackgroundImageFix" result="effect1_dropShadow_215_32199"/>
<feBlend mode="normal" in="SourceGraphic" in2="effect1_dropShadow_215_32199" result="shape"/>
</filter>
<clipPath id="clip0_215_32199">
<rect width="104" height="104" fill="white" transform="translate(52 128) rotate(30)"/>
</clipPath>
</defs>
</svg>
