<svg width="454" height="223" viewBox="0 0 454 223" fill="none" xmlns="http://www.w3.org/2000/svg">
<g filter="url(#filter0_d_215_32198)">
<path d="M94.9157 113.933C95.0226 114.118 95.0919 114.322 95.1199 114.534C95.1478 114.746 95.1337 114.961 95.0785 115.167C95.0232 115.373 94.9278 115.567 94.7978 115.736C94.6677 115.906 94.5056 116.048 94.3206 116.154L53.4977 139.704C48.645 142.505 42.8784 143.264 37.4662 141.813C32.0541 140.362 27.4399 136.821 24.6386 131.969C21.8374 127.116 21.0786 121.349 22.5292 115.937C23.9797 110.525 27.5208 105.911 32.3735 103.11L81.9269 74.0223C83.5901 73.0612 85.4263 72.437 87.3306 72.1856C89.235 71.9341 91.1702 72.0602 93.0259 72.5566C94.8815 73.053 96.6212 73.9101 98.1456 75.0789C99.67 76.2477 100.949 77.7052 101.91 79.3684C102.871 81.0316 103.496 82.8678 103.747 84.7721C103.999 86.6765 103.872 88.6117 103.376 90.4674C102.88 92.323 102.023 94.0627 100.854 95.5871C99.685 97.1115 98.2274 98.3908 96.5642 99.3519L47.0111 128.422C46.0873 128.956 45.0674 129.303 44.0096 129.443C42.9518 129.583 41.8768 129.513 40.846 129.237C39.8152 128.962 38.8488 128.486 38.0019 127.837C37.155 127.188 36.4443 126.378 35.9103 125.454C35.3763 124.531 35.0295 123.511 34.8896 122.453C34.7498 121.395 34.8197 120.32 35.0953 119.289C35.3709 118.258 35.8469 117.292 36.496 116.445C37.1451 115.598 37.9547 114.887 38.8784 114.353L80.4658 89.882C80.6498 89.7676 80.855 89.6912 81.069 89.6573C81.2831 89.6234 81.5017 89.6327 81.7122 89.6845C81.9226 89.7364 82.1205 89.8298 82.2943 89.9593C82.4681 90.0889 82.6142 90.2518 82.7241 90.4386C82.8339 90.6255 82.9053 90.8324 82.934 91.0472C82.9627 91.262 82.9481 91.4804 82.8911 91.6895C82.8341 91.8986 82.7359 92.0942 82.6022 92.2648C82.4685 92.4353 82.3021 92.5774 82.1126 92.6827L40.5154 117.16C39.9603 117.479 39.4736 117.905 39.083 118.412C38.6925 118.92 38.4057 119.499 38.239 120.118C38.0724 120.736 38.0291 121.381 38.1118 122.016C38.1944 122.651 38.4013 123.263 38.7207 123.818C39.0401 124.374 39.4656 124.86 39.9731 125.251C40.4805 125.641 41.06 125.928 41.6783 126.095C42.2966 126.261 42.9416 126.305 43.5766 126.222C44.2116 126.139 44.8241 125.932 45.3792 125.613L94.9284 96.5415C96.2227 95.7953 97.3574 94.8014 98.2677 93.6167C99.178 92.432 99.846 91.0795 100.234 89.6366C100.621 88.1937 100.721 86.6886 100.527 85.2072C100.333 83.7258 99.8487 82.2972 99.1025 81.0028C98.3563 79.7085 97.3624 78.5738 96.1777 77.6635C94.9929 76.7532 93.6405 76.0852 92.1976 75.6976C90.7547 75.31 89.2496 75.2104 87.7682 75.4045C86.2868 75.5986 84.8582 76.0825 83.5638 76.8287L34.0146 105.9C29.9074 108.269 26.9096 112.173 25.6805 116.752C24.4515 121.332 25.092 126.212 27.4611 130.319C29.8302 134.426 33.7338 137.424 38.3132 138.653C42.8927 139.882 47.7727 139.242 51.8799 136.873L92.6792 113.317C92.866 113.209 93.0726 113.139 93.2868 113.111C93.501 113.083 93.7185 113.099 93.9268 113.156C94.135 113.213 94.3297 113.312 94.4995 113.445C94.6693 113.579 94.8108 113.745 94.9157 113.933Z" fill="#3C402B"/>
</g>
<g clip-path="url(#clip0_215_32198)">
<g filter="url(#filter1_d_215_32198)">
<path d="M303.969 42.7268C304.175 42.6714 304.39 42.6572 304.602 42.685C304.813 42.7129 305.018 42.7821 305.203 42.8889C305.387 42.9957 305.55 43.1379 305.68 43.3073C305.809 43.4768 305.905 43.6702 305.96 43.8765L318.141 89.4033C319.591 94.8156 318.831 100.582 316.029 105.435C313.227 110.287 308.613 113.827 303.2 115.277C297.788 116.727 292.021 115.967 287.169 113.165C282.317 110.364 278.776 105.749 277.327 100.337L262.056 44.9433C261.558 43.088 261.43 41.1529 261.68 39.2483C261.93 37.3437 262.553 35.5071 263.513 33.8431C264.472 32.1792 265.751 30.7206 267.274 29.5507C268.798 28.3807 270.537 27.5223 272.392 27.0244C274.247 26.5265 276.182 26.3989 278.087 26.6489C279.991 26.8988 281.828 27.5215 283.492 28.4813C285.156 29.4411 286.614 30.7192 287.784 32.2427C288.954 33.7662 289.813 35.5052 290.311 37.3605L305.565 92.7491C305.842 93.7796 305.913 94.8546 305.774 95.9125C305.636 96.9705 305.29 97.9908 304.757 98.9151C304.224 99.8395 303.514 100.65 302.668 101.3C301.822 101.95 300.856 102.427 299.825 102.703C298.795 102.98 297.72 103.051 296.662 102.913C295.604 102.774 294.584 102.428 293.659 101.895C292.735 101.362 291.925 100.652 291.275 99.806C290.625 98.9598 290.148 97.9939 289.871 96.9634L276.997 50.4594C276.934 50.252 276.913 50.0341 276.936 49.8186C276.959 49.603 277.024 49.3942 277.129 49.2044C277.233 49.0145 277.375 48.8475 277.545 48.7132C277.715 48.5789 277.91 48.4799 278.119 48.4221C278.328 48.3644 278.546 48.349 278.761 48.3769C278.976 48.4048 279.183 48.4754 279.371 48.5845C279.558 48.6937 279.721 48.8392 279.851 49.0125C279.982 49.1858 280.076 49.3833 280.128 49.5936L293.005 96.1086C293.17 96.7274 293.455 97.3077 293.844 97.8163C294.234 98.3249 294.719 98.7519 295.273 99.0729C295.827 99.3939 296.439 99.6026 297.074 99.6871C297.709 99.7716 298.354 99.7303 298.973 99.5655C299.591 99.4006 300.172 99.1155 300.68 98.7265C301.189 98.3374 301.616 97.8519 301.937 97.2978C302.258 96.7437 302.467 96.1318 302.551 95.4971C302.636 94.8623 302.594 94.2171 302.429 93.5983L287.173 38.2132C286.787 36.7698 286.121 35.4165 285.212 34.2307C284.303 33.0448 283.17 32.0495 281.876 31.3017C280.583 30.5538 279.155 30.0681 277.674 29.8721C276.192 29.6762 274.687 29.7739 273.244 30.1596C271.8 30.5454 270.447 31.2117 269.261 32.1205C268.075 33.0293 267.08 34.1627 266.332 35.4561C265.584 36.7495 265.099 38.1776 264.903 39.6587C264.707 41.1399 264.804 42.6451 265.19 44.0885L280.447 99.4736C281.672 104.054 284.667 107.96 288.772 110.332C292.878 112.705 297.757 113.349 302.338 112.124C306.918 110.899 310.824 107.904 313.196 103.799C315.569 99.6933 316.213 94.8137 314.988 90.2333L302.795 44.7276C302.738 44.5191 302.724 44.3015 302.753 44.0874C302.781 43.8733 302.852 43.6671 302.962 43.4808C303.071 43.2945 303.216 43.1319 303.389 43.0024C303.562 42.873 303.759 42.7793 303.969 42.7268Z" fill="#3C402B"/>
</g>
</g>
<g clip-path="url(#clip1_215_32198)">
<g filter="url(#filter2_d_215_32198)">
<path d="M410.11 134.095C410.316 134.15 410.509 134.245 410.679 134.375C410.848 134.505 410.991 134.667 411.097 134.852C411.204 135.037 411.273 135.241 411.301 135.453C411.329 135.665 411.315 135.88 411.259 136.086L399.045 181.604C397.595 187.016 394.053 191.63 389.201 194.432C384.348 197.233 378.581 197.992 373.169 196.541C367.757 195.09 363.143 191.549 360.342 186.697C357.54 181.844 356.782 176.077 358.232 170.665L372.704 115.058C373.2 113.202 374.057 111.462 375.226 109.938C376.395 108.414 377.853 107.134 379.516 106.173C381.179 105.212 383.015 104.588 384.919 104.337C386.824 104.085 388.759 104.211 390.615 104.708C392.47 105.204 394.21 106.061 395.734 107.23C397.259 108.399 398.538 109.856 399.499 111.519C400.46 113.183 401.084 115.019 401.336 116.923C401.587 118.827 401.461 120.763 400.965 122.618L386.482 178.214C386.206 179.245 385.73 180.211 385.081 181.058C384.432 181.905 383.622 182.615 382.698 183.149C381.775 183.683 380.755 184.03 379.697 184.17C378.639 184.31 377.564 184.24 376.533 183.964C375.502 183.689 374.536 183.213 373.689 182.564C372.842 181.915 372.132 181.105 371.598 180.181C371.064 179.257 370.717 178.238 370.577 177.18C370.437 176.122 370.507 175.047 370.783 174.016L382.885 127.305C382.935 127.094 383.026 126.895 383.153 126.72C383.28 126.545 383.442 126.397 383.627 126.285C383.812 126.172 384.019 126.099 384.233 126.067C384.447 126.036 384.666 126.048 384.876 126.102C385.086 126.157 385.282 126.252 385.455 126.384C385.627 126.516 385.771 126.68 385.878 126.869C385.986 127.057 386.055 127.265 386.081 127.48C386.107 127.695 386.09 127.913 386.03 128.121L373.925 174.843C373.758 175.461 373.715 176.106 373.797 176.741C373.88 177.377 374.087 177.989 374.406 178.544C374.726 179.099 375.151 179.586 375.659 179.976C376.166 180.367 376.745 180.654 377.364 180.82C377.982 180.987 378.627 181.03 379.262 180.948C379.897 180.865 380.51 180.658 381.065 180.339C381.62 180.019 382.106 179.594 382.497 179.086C382.888 178.579 383.174 177.999 383.341 177.381L397.821 121.788C398.208 120.345 398.308 118.84 398.114 117.358C397.92 115.877 397.436 114.448 396.69 113.154C395.944 111.86 394.95 110.725 393.765 109.815C392.58 108.904 391.228 108.236 389.785 107.849C388.342 107.461 386.837 107.362 385.356 107.556C383.874 107.75 382.445 108.234 381.151 108.98C379.857 109.726 378.722 110.72 377.812 111.905C376.902 113.089 376.234 114.442 375.846 115.885L361.366 171.478C360.137 176.058 360.778 180.938 363.147 185.045C365.516 189.152 369.419 192.15 373.999 193.379C378.578 194.608 383.458 193.967 387.565 191.598C391.673 189.229 394.671 185.326 395.9 180.746L408.093 135.24C408.148 135.032 408.245 134.836 408.376 134.665C408.508 134.494 408.673 134.351 408.861 134.244C409.049 134.138 409.256 134.069 409.47 134.044C409.685 134.018 409.902 134.035 410.11 134.095Z" fill="#3C402B"/>
</g>
</g>
<defs>
<filter id="filter0_d_215_32198" x="21.8088" y="72.0596" width="84.0641" height="72.4736" filterUnits="userSpaceOnUse" color-interpolation-filters="sRGB">
<feFlood flood-opacity="0" result="BackgroundImageFix"/>
<feColorMatrix in="SourceAlpha" type="matrix" values="0 0 0 0 0 0 0 0 0 0 0 0 0 0 0 0 0 0 127 0" result="hardAlpha"/>
<feOffset dx="2" dy="2"/>
<feComposite in2="hardAlpha" operator="out"/>
<feColorMatrix type="matrix" values="0 0 0 0 0.235294 0 0 0 0 0.25098 0 0 0 0 0.168627 0 0 0 0.2 0"/>
<feBlend mode="normal" in2="BackgroundImageFix" result="effect1_dropShadow_215_32198"/>
<feBlend mode="normal" in="SourceGraphic" in2="effect1_dropShadow_215_32198" result="shape"/>
</filter>
<filter id="filter1_d_215_32198" x="261.556" y="26.5244" width="59.3047" height="91.4722" filterUnits="userSpaceOnUse" color-interpolation-filters="sRGB">
<feFlood flood-opacity="0" result="BackgroundImageFix"/>
<feColorMatrix in="SourceAlpha" type="matrix" values="0 0 0 0 0 0 0 0 0 0 0 0 0 0 0 0 0 0 127 0" result="hardAlpha"/>
<feOffset dx="2" dy="2"/>
<feComposite in2="hardAlpha" operator="out"/>
<feColorMatrix type="matrix" values="0 0 0 0 0.235294 0 0 0 0 0.25098 0 0 0 0 0.168627 0 0 0 0.2 0"/>
<feBlend mode="normal" in2="BackgroundImageFix" result="effect1_dropShadow_215_32198"/>
<feBlend mode="normal" in="SourceGraphic" in2="effect1_dropShadow_215_32198" result="shape"/>
</filter>
<filter id="filter2_d_215_32198" x="357.512" y="104.211" width="55.8031" height="95.0505" filterUnits="userSpaceOnUse" color-interpolation-filters="sRGB">
<feFlood flood-opacity="0" result="BackgroundImageFix"/>
<feColorMatrix in="SourceAlpha" type="matrix" values="0 0 0 0 0 0 0 0 0 0 0 0 0 0 0 0 0 0 127 0" result="hardAlpha"/>
<feOffset dx="2" dy="2"/>
<feComposite in2="hardAlpha" operator="out"/>
<feColorMatrix type="matrix" values="0 0 0 0 0.235294 0 0 0 0 0.25098 0 0 0 0 0.168627 0 0 0 0.2 0"/>
<feBlend mode="normal" in2="BackgroundImageFix" result="effect1_dropShadow_215_32198"/>
<feBlend mode="normal" in="SourceGraphic" in2="effect1_dropShadow_215_32198" result="shape"/>
</filter>
<clipPath id="clip0_215_32198">
<rect width="104" height="104" fill="white" transform="translate(217.917 90.0667) rotate(-60)"/>
</clipPath>
<clipPath id="clip1_215_32198">
<rect width="104" height="104" fill="white" transform="translate(311.917 132.067) rotate(-30)"/>
</clipPath>
</defs>
</svg>
