<svg width="456" height="225" viewBox="0 0 456 225" fill="none" xmlns="http://www.w3.org/2000/svg">
<g opacity="0.2" clip-path="url(#clip0_215_32198)">
<path d="M305.968 44.7266C306.174 44.6712 306.39 44.657 306.601 44.6848C306.813 44.7126 307.017 44.7819 307.202 44.8887C307.387 44.9954 307.549 45.1376 307.679 45.3071C307.809 45.4765 307.904 45.6699 307.96 45.8763L320.141 91.4031C321.59 96.8154 320.831 102.582 318.029 107.434C315.227 112.287 310.612 115.827 305.2 117.277C299.788 118.727 294.021 117.967 289.169 115.165C284.317 112.363 280.776 107.749 279.326 102.336L264.055 46.943C263.557 45.0878 263.43 43.1526 263.68 41.2481C263.93 39.3435 264.553 37.5068 265.512 35.8429C266.472 34.179 267.75 32.7204 269.274 31.5504C270.797 30.3805 272.536 29.522 274.391 29.0241C276.247 28.5262 278.182 28.3986 280.086 28.6486C281.991 28.8986 283.828 29.5213 285.492 30.4811C287.156 31.4409 288.614 32.719 289.784 34.2425C290.954 35.766 291.812 37.505 292.31 39.3602L307.565 94.7489C307.842 95.7794 307.913 96.8543 307.774 97.9123C307.635 98.9702 307.29 99.9905 306.757 100.915C306.224 101.839 305.514 102.65 304.668 103.3C303.821 103.95 302.855 104.427 301.825 104.703C300.794 104.98 299.72 105.051 298.662 104.912C297.604 104.774 296.583 104.428 295.659 103.895C294.735 103.362 293.924 102.652 293.274 101.806C292.624 100.96 292.147 99.9936 291.871 98.9631L278.997 52.4592C278.934 52.2518 278.913 52.0339 278.936 51.8183C278.958 51.6028 279.024 51.394 279.128 51.2041C279.233 51.0143 279.374 50.8473 279.545 50.713C279.715 50.5786 279.91 50.4797 280.119 50.4219C280.328 50.3641 280.546 50.3488 280.761 50.3766C280.976 50.4045 281.183 50.4751 281.37 50.5843C281.557 50.6934 281.721 50.8389 281.851 51.0122C281.981 51.1855 282.075 51.3831 282.128 51.5933L295.005 98.1084C295.17 98.7272 295.455 99.3074 295.844 99.816C296.233 100.325 296.719 100.752 297.273 101.073C297.827 101.394 298.439 101.602 299.073 101.687C299.708 101.771 300.353 101.73 300.972 101.565C301.591 101.4 302.171 101.115 302.68 100.726C303.188 100.337 303.615 99.8517 303.936 99.2976C304.257 98.7435 304.466 98.1316 304.551 97.4968C304.635 96.8621 304.594 96.2169 304.429 95.5981L289.172 40.213C288.787 38.7696 288.12 37.4163 287.211 36.2304C286.303 35.0445 285.169 34.0493 283.876 33.3014C282.582 32.5536 281.154 32.0678 279.673 31.8719C278.192 31.6759 276.687 31.7736 275.243 32.1594C273.8 32.5452 272.447 33.2115 271.261 34.1202C270.075 35.029 269.08 36.1625 268.332 37.4559C267.584 38.7493 267.098 40.1773 266.902 41.6585C266.706 43.1396 266.804 44.6449 267.19 46.0883L282.447 101.473C283.672 106.054 286.667 109.96 290.772 112.332C294.877 114.705 299.757 115.349 304.337 114.124C308.918 112.898 312.824 109.904 315.196 105.798C317.568 101.693 318.213 96.8135 316.988 92.2331L304.794 46.7273C304.738 46.5189 304.724 46.3012 304.752 46.0871C304.781 45.8731 304.852 45.6669 304.961 45.4806C305.071 45.2943 305.216 45.1317 305.389 45.0022C305.562 44.8727 305.759 44.779 305.968 44.7266Z" fill="#3C402B"/>
</g>
<g opacity="0.2" clip-path="url(#clip1_215_32198)">
<path d="M412.11 136.094C412.316 136.15 412.509 136.245 412.679 136.375C412.848 136.505 412.99 136.667 413.097 136.852C413.204 137.037 413.273 137.241 413.301 137.453C413.329 137.664 413.315 137.88 413.259 138.086L401.045 183.604C399.594 189.016 396.053 193.63 391.201 196.431C386.348 199.233 380.581 199.991 375.169 198.541C369.757 197.09 365.143 193.549 362.341 188.696C359.54 183.844 358.781 178.077 360.232 172.665L374.704 117.058C375.2 115.202 376.057 113.462 377.226 111.938C378.395 110.413 379.852 109.134 381.515 108.173C383.179 107.212 385.015 106.588 386.919 106.336C388.824 106.085 390.759 106.211 392.614 106.707C394.47 107.204 396.21 108.061 397.734 109.23C399.259 110.398 400.538 111.856 401.499 113.519C402.46 115.182 403.084 117.019 403.336 118.923C403.587 120.827 403.461 122.762 402.965 124.618L388.481 180.213C388.206 181.244 387.73 182.211 387.081 183.058C386.431 183.904 385.622 184.615 384.698 185.149C383.774 185.683 382.754 186.03 381.697 186.17C380.639 186.31 379.564 186.24 378.533 185.964C377.502 185.689 376.536 185.213 375.689 184.563C374.842 183.914 374.131 183.105 373.597 182.181C373.063 181.257 372.717 180.237 372.577 179.179C372.437 178.122 372.507 177.047 372.782 176.016L384.885 129.305C384.934 129.094 385.025 128.895 385.153 128.72C385.28 128.544 385.441 128.396 385.627 128.284C385.812 128.172 386.018 128.098 386.233 128.067C386.447 128.036 386.666 128.048 386.876 128.102C387.085 128.156 387.282 128.252 387.454 128.384C387.626 128.515 387.771 128.68 387.878 128.868C387.986 129.056 388.055 129.264 388.081 129.479C388.107 129.695 388.089 129.913 388.03 130.121L375.924 176.843C375.758 177.461 375.714 178.106 375.797 178.741C375.88 179.376 376.087 179.989 376.406 180.544C376.725 181.099 377.151 181.586 377.658 181.976C378.166 182.367 378.745 182.654 379.364 182.82C379.982 182.987 380.627 183.03 381.262 182.947C381.897 182.865 382.509 182.658 383.064 182.338C383.62 182.019 384.106 181.594 384.497 181.086C384.887 180.579 385.174 179.999 385.341 179.381L399.821 123.788C400.208 122.345 400.308 120.84 400.114 119.358C399.92 117.877 399.436 116.448 398.69 115.154C397.943 113.859 396.949 112.725 395.765 111.814C394.58 110.904 393.228 110.236 391.785 109.849C390.342 109.461 388.837 109.361 387.355 109.555C385.874 109.75 384.445 110.233 383.151 110.98C381.857 111.726 380.722 112.72 379.812 113.904C378.901 115.089 378.233 116.442 377.846 117.885L363.366 173.478C362.137 178.057 362.777 182.937 365.146 187.045C367.515 191.152 371.419 194.15 375.999 195.379C380.578 196.608 385.458 195.967 389.565 193.598C393.672 191.229 396.67 187.325 397.899 182.746L410.093 137.24C410.148 137.031 410.244 136.836 410.376 136.665C410.508 136.494 410.673 136.351 410.861 136.244C411.048 136.137 411.256 136.069 411.47 136.043C411.684 136.018 411.902 136.035 412.11 136.094Z" fill="#3C402B"/>
</g>
<g opacity="0.2">
<path d="M96.9154 115.933C97.0223 116.118 97.0917 116.322 97.1196 116.534C97.1476 116.746 97.1335 116.961 97.0782 117.167C97.023 117.373 96.9276 117.567 96.7975 117.736C96.6675 117.905 96.5053 118.047 96.3203 118.154L55.4975 141.703C50.6448 144.505 44.8781 145.263 39.466 143.813C34.0539 142.362 29.4396 138.821 26.6384 133.968C23.8371 129.116 23.0783 123.349 24.5289 117.937C25.9795 112.525 29.5206 107.911 34.3733 105.109L83.9267 76.022C85.5898 75.0609 87.426 74.4368 89.3304 74.1853C91.2347 73.9339 93.17 74.0599 95.0256 74.5564C96.8813 75.0528 98.6209 75.9099 100.145 77.0786C101.67 78.2474 102.949 79.705 103.91 81.3682C104.871 83.0313 105.495 84.8675 105.747 86.7719C105.998 88.6762 105.872 90.6115 105.376 92.4671C104.879 94.3228 104.022 96.0624 102.854 97.5869C101.685 99.1113 100.227 100.391 98.564 101.352L49.0109 130.422C48.0871 130.956 47.0672 131.303 46.0094 131.443C44.9515 131.583 43.8765 131.513 42.8457 131.237C41.8149 130.962 40.8485 130.486 40.0016 129.837C39.1548 129.187 38.4441 128.378 37.9101 127.454C37.3761 126.53 37.0292 125.51 36.8894 124.453C36.7496 123.395 36.8195 122.32 37.0951 121.289C37.3707 120.258 37.8466 119.292 38.4958 118.445C39.1449 117.598 39.9544 116.887 40.8782 116.353L82.4655 91.8817C82.6496 91.7674 82.8547 91.691 83.0688 91.6571C83.2828 91.6232 83.5015 91.6324 83.7119 91.6843C83.9224 91.7362 84.1203 91.8296 84.2941 91.9591C84.4678 92.0886 84.614 92.2516 84.7238 92.4384C84.8337 92.6252 84.905 92.8321 84.9337 93.0469C84.9624 93.2618 84.9478 93.4801 84.8909 93.6893C84.8339 93.8984 84.7357 94.094 84.602 94.2645C84.4683 94.4351 84.3018 94.5772 84.1124 94.6825L42.5151 119.16C41.9601 119.479 41.4734 119.905 41.0828 120.412C40.6922 120.92 40.4054 121.499 40.2388 122.117C40.0721 122.736 40.0289 123.381 40.1115 124.016C40.1942 124.651 40.4011 125.263 40.7205 125.818C41.0398 126.373 41.4654 126.86 41.9728 127.251C42.4803 127.641 43.0597 127.928 43.678 128.095C44.2963 128.261 44.9414 128.304 45.5764 128.222C46.2114 128.139 46.8239 127.932 47.3789 127.613L96.9281 98.5412C98.2225 97.795 99.3572 96.8012 100.267 95.6164C101.178 94.4317 101.846 93.0793 102.233 91.6364C102.621 90.1935 102.721 88.6884 102.526 87.207C102.332 85.7256 101.848 84.2969 101.102 83.0026C100.356 81.7082 99.3622 80.5735 98.1774 79.6632C96.9927 78.753 95.6403 78.085 94.1974 77.6974C92.7545 77.3098 91.2494 77.2102 89.768 77.4042C88.2866 77.5983 86.8579 78.0823 85.5636 78.8285L36.0144 107.9C31.9072 110.269 28.9093 114.173 27.6803 118.752C26.4513 123.332 27.0918 128.212 29.4608 132.319C31.8299 136.426 35.7336 139.424 40.313 140.653C44.8924 141.882 49.7725 141.242 53.8797 138.872L94.679 115.317C94.8658 115.209 95.0723 115.138 95.2865 115.111C95.5007 115.083 95.7183 115.098 95.9265 115.156C96.1347 115.213 96.3294 115.311 96.4992 115.445C96.669 115.578 96.8105 115.744 96.9154 115.933Z" fill="#3C402B"/>
</g>
<path d="M94.9154 113.933C95.0223 114.118 95.0917 114.322 95.1196 114.534C95.1476 114.746 95.1335 114.961 95.0782 115.167C95.023 115.373 94.9276 115.567 94.7975 115.736C94.6675 115.905 94.5053 116.047 94.3203 116.154L53.4975 139.703C48.6448 142.505 42.8781 143.263 37.466 141.813C32.0539 140.362 27.4396 136.821 24.6384 131.968C21.8371 127.116 21.0783 121.349 22.5289 115.937C23.9795 110.525 27.5206 105.911 32.3733 103.109L81.9267 74.022C83.5898 73.0609 85.426 72.4368 87.3304 72.1853C89.2347 71.9339 91.17 72.0599 93.0256 72.5564C94.8813 73.0528 96.6209 73.9099 98.1454 75.0786C99.6698 76.2474 100.949 77.705 101.91 79.3682C102.871 81.0313 103.495 82.8675 103.747 84.7719C103.998 86.6762 103.872 88.6115 103.376 90.4671C102.879 92.3228 102.022 94.0624 100.854 95.5869C99.6847 97.1113 98.2272 98.3905 96.564 99.3516L47.0109 128.422C46.0871 128.956 45.0672 129.303 44.0094 129.443C42.9515 129.583 41.8765 129.513 40.8457 129.237C39.8149 128.962 38.8485 128.486 38.0016 127.837C37.1548 127.187 36.4441 126.378 35.9101 125.454C35.3761 124.53 35.0292 123.51 34.8894 122.453C34.7496 121.395 34.8195 120.32 35.0951 119.289C35.3707 118.258 35.8466 117.292 36.4958 116.445C37.1449 115.598 37.9544 114.887 38.8782 114.353L80.4655 89.8817C80.6496 89.7674 80.8547 89.691 81.0688 89.6571C81.2828 89.6232 81.5015 89.6324 81.7119 89.6843C81.9224 89.7362 82.1203 89.8296 82.2941 89.9591C82.4678 90.0886 82.614 90.2516 82.7238 90.4384C82.8337 90.6252 82.905 90.8321 82.9337 91.0469C82.9624 91.2618 82.9478 91.4801 82.8909 91.6893C82.8339 91.8984 82.7357 92.094 82.602 92.2645C82.4683 92.4351 82.3018 92.5772 82.1124 92.6825L40.5151 117.16C39.9601 117.479 39.4734 117.905 39.0828 118.412C38.6922 118.92 38.4054 119.499 38.2388 120.117C38.0721 120.736 38.0289 121.381 38.1115 122.016C38.1942 122.651 38.4011 123.263 38.7205 123.818C39.0398 124.373 39.4654 124.86 39.9728 125.251C40.4803 125.641 41.0597 125.928 41.678 126.095C42.2963 126.261 42.9414 126.304 43.5764 126.222C44.2114 126.139 44.8239 125.932 45.3789 125.613L94.9281 96.5412C96.2225 95.795 97.3572 94.8012 98.2675 93.6164C99.1777 92.4317 99.8457 91.0793 100.233 89.6364C100.621 88.1935 100.721 86.6884 100.526 85.207C100.332 83.7256 99.8484 82.2969 99.1022 81.0026C98.356 79.7082 97.3622 78.5735 96.1774 77.6632C94.9927 76.753 93.6403 76.085 92.1974 75.6974C90.7545 75.3098 89.2494 75.2102 87.768 75.4042C86.2866 75.5983 84.8579 76.0823 83.5636 76.8285L34.0144 105.9C29.9072 108.269 26.9093 112.173 25.6803 116.752C24.4513 121.332 25.0918 126.212 27.4608 130.319C29.8299 134.426 33.7336 137.424 38.313 138.653C42.8924 139.882 47.7725 139.242 51.8797 136.872L92.679 113.317C92.8658 113.209 93.0723 113.138 93.2865 113.111C93.5007 113.083 93.7183 113.098 93.9265 113.156C94.1347 113.213 94.3294 113.311 94.4992 113.445C94.669 113.578 94.8105 113.744 94.9154 113.933Z" fill="#3C402B"/>
<g clip-path="url(#clip2_215_32198)">
<path d="M303.968 42.7268C304.175 42.6714 304.39 42.6572 304.602 42.685C304.813 42.7129 305.017 42.7821 305.202 42.8889C305.387 42.9957 305.549 43.1379 305.679 43.3073C305.809 43.4768 305.905 43.6702 305.96 43.8765L318.141 89.4033C319.591 94.8156 318.831 100.582 316.029 105.435C313.227 110.287 308.613 113.827 303.2 115.277C297.788 116.727 292.021 115.967 287.169 113.165C282.317 110.364 278.776 105.749 277.326 100.337L262.056 44.9433C261.558 43.088 261.43 41.1529 261.68 39.2483C261.93 37.3437 262.553 35.5071 263.513 33.8431C264.472 32.1792 265.75 30.7206 267.274 29.5507C268.797 28.3807 270.536 27.5223 272.392 27.0244C274.247 26.5265 276.182 26.3989 278.087 26.6489C279.991 26.8988 281.828 27.5215 283.492 28.4813C285.156 29.4411 286.614 30.7192 287.784 32.2427C288.954 33.7662 289.813 35.5052 290.311 37.3605L305.565 92.7491C305.842 93.7796 305.913 94.8546 305.774 95.9125C305.636 96.9705 305.29 97.9908 304.757 98.9151C304.224 99.8395 303.514 100.65 302.668 101.3C301.822 101.95 300.856 102.427 299.825 102.703C298.795 102.98 297.72 103.051 296.662 102.913C295.604 102.774 294.584 102.428 293.659 101.895C292.735 101.362 291.925 100.652 291.275 99.806C290.625 98.9598 290.148 97.9939 289.871 96.9634L276.997 50.4594C276.934 50.252 276.913 50.0341 276.936 49.8186C276.959 49.603 277.024 49.3942 277.129 49.2044C277.233 49.0145 277.375 48.8475 277.545 48.7132C277.715 48.5789 277.91 48.4799 278.119 48.4221C278.328 48.3644 278.546 48.349 278.761 48.3769C278.976 48.4048 279.183 48.4754 279.37 48.5845C279.558 48.6937 279.721 48.8392 279.851 49.0125C279.981 49.1858 280.076 49.3833 280.128 49.5936L293.005 96.1086C293.17 96.7274 293.455 97.3077 293.844 97.8163C294.233 98.3249 294.719 98.7519 295.273 99.0729C295.827 99.3939 296.439 99.6026 297.074 99.6871C297.708 99.7716 298.354 99.7303 298.972 99.5655C299.591 99.4006 300.172 99.1155 300.68 98.7265C301.189 98.3374 301.616 97.8519 301.937 97.2978C302.258 96.7437 302.466 96.1318 302.551 95.4971C302.635 94.8623 302.594 94.2171 302.429 93.5983L287.173 38.2132C286.787 36.7698 286.12 35.4165 285.212 34.2307C284.303 33.0448 283.169 32.0495 281.876 31.3017C280.583 30.5538 279.155 30.068 277.673 29.8721C276.192 29.6762 274.687 29.7739 273.244 30.1596C271.8 30.5454 270.447 31.2117 269.261 32.1205C268.075 33.0293 267.08 34.1627 266.332 35.4561C265.584 36.7495 265.099 38.1776 264.903 39.6587C264.707 41.1399 264.804 42.6451 265.19 44.0885L280.447 99.4736C281.672 104.054 284.667 107.96 288.772 110.332C292.878 112.705 297.757 113.349 302.338 112.124C306.918 110.899 310.824 107.904 313.196 103.799C315.569 99.6933 316.213 94.8137 314.988 90.2333L302.795 44.7276C302.738 44.5191 302.724 44.3015 302.753 44.0874C302.781 43.8733 302.852 43.6671 302.962 43.4808C303.071 43.2945 303.216 43.1319 303.389 43.0024C303.562 42.873 303.759 42.7793 303.968 42.7268Z" fill="#3C402B"/>
</g>
<g clip-path="url(#clip3_215_32198)">
<path d="M410.11 134.095C410.316 134.15 410.509 134.245 410.679 134.375C410.848 134.505 410.991 134.667 411.097 134.852C411.204 135.037 411.273 135.241 411.301 135.453C411.329 135.665 411.315 135.88 411.259 136.086L399.045 181.604C397.595 187.016 394.053 191.63 389.201 194.432C384.348 197.233 378.581 197.992 373.169 196.541C367.757 195.09 363.143 191.549 360.342 186.697C357.54 181.844 356.782 176.077 358.232 170.665L372.704 115.058C373.2 113.202 374.057 111.462 375.226 109.938C376.395 108.414 377.853 107.134 379.516 106.173C381.179 105.212 383.015 104.588 384.919 104.337C386.824 104.085 388.759 104.211 390.615 104.708C392.47 105.204 394.21 106.061 395.734 107.23C397.259 108.399 398.538 109.856 399.499 111.519C400.46 113.183 401.084 115.019 401.336 116.923C401.587 118.827 401.461 120.763 400.965 122.618L386.482 178.214C386.206 179.245 385.73 180.211 385.081 181.058C384.432 181.905 383.622 182.615 382.698 183.149C381.775 183.683 380.755 184.03 379.697 184.17C378.639 184.31 377.564 184.24 376.533 183.964C375.502 183.689 374.536 183.213 373.689 182.564C372.842 181.915 372.132 181.105 371.598 180.181C371.064 179.257 370.717 178.238 370.577 177.18C370.437 176.122 370.507 175.047 370.783 174.016L382.885 127.305C382.935 127.094 383.026 126.895 383.153 126.72C383.28 126.545 383.442 126.397 383.627 126.285C383.812 126.172 384.019 126.099 384.233 126.067C384.447 126.036 384.666 126.048 384.876 126.102C385.086 126.157 385.282 126.252 385.455 126.384C385.627 126.516 385.771 126.68 385.878 126.869C385.986 127.057 386.055 127.265 386.081 127.48C386.107 127.695 386.09 127.913 386.03 128.121L373.925 174.843C373.758 175.461 373.715 176.106 373.797 176.742C373.88 177.377 374.087 177.989 374.406 178.544C374.726 179.099 375.151 179.586 375.659 179.976C376.166 180.367 376.745 180.654 377.364 180.82C377.982 180.987 378.627 181.03 379.262 180.948C379.897 180.865 380.51 180.658 381.065 180.339C381.62 180.019 382.106 179.594 382.497 179.086C382.888 178.579 383.174 177.999 383.341 177.381L397.821 121.788C398.208 120.345 398.308 118.84 398.114 117.358C397.92 115.877 397.436 114.448 396.69 113.154C395.944 111.86 394.95 110.725 393.765 109.815C392.58 108.904 391.228 108.236 389.785 107.849C388.342 107.461 386.837 107.362 385.356 107.556C383.874 107.75 382.445 108.234 381.151 108.98C379.857 109.726 378.722 110.72 377.812 111.905C376.902 113.089 376.234 114.442 375.846 115.885L361.366 171.478C360.137 176.058 360.778 180.938 363.147 185.045C365.516 189.152 369.419 192.15 373.999 193.379C378.578 194.608 383.458 193.967 387.565 191.598C391.673 189.229 394.671 185.326 395.9 180.746L408.093 135.24C408.148 135.032 408.245 134.836 408.376 134.665C408.508 134.494 408.673 134.351 408.861 134.244C409.049 134.138 409.256 134.069 409.47 134.044C409.685 134.018 409.902 134.035 410.11 134.095Z" fill="#3C402B"/>
</g>
<defs>
<clipPath id="clip0_215_32198">
<rect width="104" height="104" fill="white" transform="translate(219.917 92.0664) rotate(-60)"/>
</clipPath>
<clipPath id="clip1_215_32198">
<rect width="104" height="104" fill="white" transform="translate(313.917 134.066) rotate(-30)"/>
</clipPath>
<clipPath id="clip2_215_32198">
<rect width="104" height="104" fill="white" transform="translate(217.917 90.0667) rotate(-60)"/>
</clipPath>
<clipPath id="clip3_215_32198">
<rect width="104" height="104" fill="white" transform="translate(311.917 132.067) rotate(-30)"/>
</clipPath>
</defs>
</svg>
