<svg width="191" height="273" viewBox="0 0 191 273" fill="none" xmlns="http://www.w3.org/2000/svg">
<g opacity="0.2">
<path d="M171.023 52.8527C171.174 53.0036 171.294 53.1828 171.376 53.3801C171.458 53.5774 171.5 53.7888 171.5 54.0024C171.5 54.2159 171.458 54.4274 171.376 54.6247C171.294 54.8219 171.174 55.0012 171.023 55.1521L137.686 88.4646C133.724 92.4263 128.35 94.6518 122.747 94.6514C117.144 94.651 111.77 92.4248 107.809 88.4625C103.847 84.5003 101.621 79.1264 101.622 73.5233C101.622 67.9201 103.848 62.5466 107.811 58.5849L148.147 17.6633C149.505 16.3045 151.117 15.2264 152.891 14.4906C154.666 13.7549 156.568 13.3758 158.489 13.375C160.41 13.3742 162.312 13.7518 164.087 14.4862C165.862 15.2206 167.475 16.2975 168.834 17.6552C170.192 19.0129 171.27 20.625 172.006 22.3994C172.742 24.1738 173.121 26.0757 173.122 27.9966C173.123 29.9175 172.745 31.8198 172.011 33.5947C171.276 35.3697 170.199 36.9826 168.842 38.3414L128.501 79.2468C127.747 80.0017 126.852 80.6006 125.866 81.0095C124.88 81.4183 123.824 81.6291 122.757 81.6296C121.69 81.6302 120.633 81.4206 119.647 81.0128C118.661 80.605 117.765 80.007 117.01 79.2529C116.255 78.4988 115.656 77.6034 115.248 76.6178C114.839 75.6322 114.628 74.5757 114.627 73.5087C114.627 72.4417 114.836 71.385 115.244 70.399C115.652 69.413 116.25 68.517 117.004 67.7621L150.841 33.3608C150.989 33.2027 151.167 33.0758 151.365 32.9877C151.563 32.8995 151.777 32.8519 151.994 32.8475C152.21 32.8431 152.426 32.8822 152.627 32.9623C152.828 33.0424 153.012 33.162 153.166 33.314C153.321 33.466 153.443 33.6474 153.526 33.8475C153.61 34.0476 153.652 34.2623 153.651 34.479C153.65 34.6957 153.606 34.9101 153.521 35.1095C153.436 35.3088 153.312 35.4892 153.156 35.6399L119.312 70.0493C118.858 70.5014 118.498 71.0384 118.252 71.6297C118.006 72.2209 117.879 72.8548 117.878 73.4952C117.877 74.1356 118.003 74.7698 118.247 75.3618C118.491 75.9538 118.849 76.4919 119.301 76.9454C119.754 77.3988 120.291 77.7588 120.882 78.0047C121.473 78.2507 122.107 78.3777 122.747 78.3787C123.388 78.3796 124.022 78.2544 124.614 78.0102C125.206 77.766 125.744 77.4076 126.198 76.9555L166.534 36.0502C167.591 34.9944 168.43 33.7408 169.003 32.3608C169.575 30.9808 169.871 29.5016 169.871 28.0075C169.872 26.5135 169.579 25.0339 169.008 23.6532C168.437 22.2725 167.6 21.0178 166.544 19.9607C165.489 18.9035 164.235 18.0647 162.855 17.4921C161.475 16.9195 159.996 16.6243 158.502 16.6233C157.008 16.6224 155.528 16.9157 154.147 17.4866C152.767 18.0575 151.512 18.8947 150.455 19.9505L110.118 60.8558C106.764 64.2072 104.879 68.7537 104.877 73.4952C104.875 78.2367 106.757 82.7847 110.108 86.1388C113.459 89.4929 118.006 91.3782 122.747 91.3801C127.489 91.382 132.037 89.5003 135.391 86.1489L168.704 52.8365C168.856 52.6833 169.037 52.5622 169.237 52.48C169.437 52.3978 169.651 52.3562 169.867 52.3577C170.083 52.3592 170.296 52.4038 170.495 52.4888C170.693 52.5738 170.873 52.6975 171.023 52.8527Z" fill="#3C402B"/>
</g>
<g opacity="0.2" clip-path="url(#clip0_215_32199)">
<path d="M101.34 216.051C101.395 216.257 101.409 216.473 101.382 216.684C101.354 216.896 101.285 217.1 101.178 217.285C101.071 217.47 100.929 217.632 100.759 217.762C100.59 217.892 100.396 217.987 100.19 218.043L54.6633 230.224C49.251 231.673 43.4844 230.914 38.6321 228.112C33.7799 225.31 30.2394 220.695 28.7895 215.283C27.3397 209.871 28.0993 204.104 30.9012 199.252C33.7031 194.4 38.3178 190.859 43.7301 189.409L99.1234 174.138C100.979 173.64 102.914 173.513 104.818 173.763C106.723 174.013 108.56 174.636 110.224 175.595C111.887 176.555 113.346 177.833 114.516 179.357C115.686 180.88 116.544 182.619 117.042 184.474C117.54 186.33 117.668 188.265 117.418 190.169C117.168 192.074 116.545 193.911 115.585 195.575C114.626 197.239 113.347 198.697 111.824 199.867C110.3 201.037 108.561 201.895 106.706 202.393L51.3175 217.648C50.287 217.925 49.2121 217.996 48.1541 217.857C47.0962 217.718 46.0759 217.373 45.1515 216.84C44.2272 216.307 43.4169 215.597 42.7669 214.751C42.1169 213.904 41.6399 212.938 41.3632 211.908C41.0865 210.877 41.0154 209.803 41.1541 208.745C41.2929 207.687 41.6386 206.666 42.1716 205.742C42.7046 204.818 43.4145 204.007 44.2607 203.357C45.1069 202.707 46.0728 202.23 47.1033 201.954L93.6072 189.08C93.8146 189.017 94.0325 188.996 94.2481 189.019C94.4636 189.041 94.6725 189.107 94.8623 189.211C95.0521 189.316 95.2191 189.457 95.3535 189.628C95.4878 189.798 95.5867 189.993 95.6445 190.202C95.7023 190.411 95.7176 190.629 95.6898 190.844C95.6619 191.059 95.5913 191.266 95.4821 191.453C95.373 191.64 95.2275 191.804 95.0542 191.934C94.8809 192.064 94.6833 192.158 94.4731 192.211L47.958 205.088C47.3393 205.253 46.759 205.538 46.2504 205.927C45.7418 206.316 45.3148 206.802 44.9938 207.356C44.6728 207.91 44.4641 208.522 44.3796 209.157C44.295 209.791 44.3364 210.436 44.5012 211.055C44.666 211.674 44.9511 212.254 45.3402 212.763C45.7293 213.271 46.2147 213.698 46.7688 214.019C47.3229 214.34 47.9348 214.549 48.5696 214.634C49.2043 214.718 49.8495 214.677 50.4683 214.512L105.853 199.255C107.297 198.87 108.65 198.203 109.836 197.294C111.022 196.386 112.017 195.252 112.765 193.959C113.513 192.665 113.999 191.237 114.195 189.756C114.39 188.275 114.293 186.77 113.907 185.326C113.521 183.883 112.855 182.53 111.946 181.344C111.037 180.158 109.904 179.163 108.611 178.415C107.317 177.667 105.889 177.181 104.408 176.985C102.927 176.789 101.422 176.887 99.9782 177.273L44.593 192.53C40.0126 193.755 36.1066 196.75 33.7342 200.855C31.3618 204.96 30.7174 209.84 31.9427 214.42C33.1681 219.001 36.1628 222.907 40.2681 225.279C44.3734 227.651 49.2529 228.296 53.8333 227.071L99.3391 214.877C99.5475 214.821 99.7652 214.807 99.9793 214.835C100.193 214.864 100.4 214.935 100.586 215.044C100.772 215.154 100.935 215.299 101.064 215.472C101.194 215.645 101.287 215.842 101.34 216.051Z" fill="#3C402B"/>
</g>
<path d="M169.023 50.8527C169.174 51.0036 169.294 51.1828 169.376 51.3801C169.458 51.5774 169.5 51.7888 169.5 52.0024C169.5 52.2159 169.458 52.4274 169.376 52.6247C169.294 52.8219 169.174 53.0012 169.023 53.1521L135.686 86.4646C131.724 90.4263 126.35 92.6518 120.747 92.6514C115.144 92.651 109.77 90.4248 105.809 86.4625C101.847 82.5003 99.6214 77.1264 99.6218 71.5233C99.6222 65.9201 101.848 60.5466 105.811 56.5849L146.147 15.6633C147.505 14.3045 149.117 13.2264 150.891 12.4906C152.666 11.7549 154.568 11.3758 156.489 11.375C158.41 11.3742 160.312 11.7518 162.087 12.4862C163.862 13.2206 165.475 14.2975 166.834 15.6552C168.192 17.0129 169.27 18.625 170.006 20.3994C170.742 22.1738 171.121 24.0757 171.122 25.9966C171.123 27.9175 170.745 29.8198 170.011 31.5947C169.276 33.3697 168.199 34.9826 166.842 36.3414L126.501 77.2468C125.747 78.0017 124.852 78.6006 123.866 79.0095C122.88 79.4183 121.824 79.6291 120.757 79.6296C119.69 79.6302 118.633 79.4206 117.647 79.0128C116.661 78.605 115.765 78.007 115.01 77.2529C114.255 76.4988 113.656 75.6034 113.248 74.6178C112.839 73.6322 112.628 72.5757 112.627 71.5087C112.627 70.4417 112.836 69.385 113.244 68.399C113.652 67.413 114.25 66.517 115.004 65.7621L148.841 31.3608C148.989 31.2027 149.167 31.0758 149.365 30.9877C149.563 30.8995 149.777 30.8519 149.994 30.8475C150.21 30.8431 150.426 30.8822 150.627 30.9623C150.828 31.0424 151.012 31.162 151.166 31.314C151.321 31.466 151.443 31.6474 151.526 31.8475C151.61 32.0476 151.652 32.2623 151.651 32.479C151.65 32.6957 151.606 32.9101 151.521 33.1095C151.436 33.3088 151.312 33.4892 151.156 33.6399L117.312 68.0493C116.858 68.5014 116.498 69.0384 116.252 69.6297C116.006 70.2209 115.879 70.8548 115.878 71.4952C115.877 72.1356 116.003 72.7698 116.247 73.3618C116.491 73.9538 116.849 74.4919 117.301 74.9454C117.754 75.3988 118.291 75.7588 118.882 76.0047C119.473 76.2507 120.107 76.3777 120.747 76.3787C121.388 76.3796 122.022 76.2544 122.614 76.0102C123.206 75.766 123.744 75.4076 124.198 74.9555L164.534 34.0502C165.591 32.9944 166.43 31.7408 167.003 30.3608C167.575 28.9808 167.871 27.5016 167.871 26.0075C167.872 24.5135 167.579 23.0339 167.008 21.6532C166.437 20.2725 165.6 19.0178 164.544 17.9607C163.489 16.9035 162.235 16.0647 160.855 15.4921C159.475 14.9195 157.996 14.6243 156.502 14.6233C155.008 14.6224 153.528 14.9157 152.147 15.4866C150.767 16.0575 149.512 16.8947 148.455 17.9505L108.118 58.8558C104.764 62.2072 102.879 66.7537 102.877 71.4952C102.875 76.2367 104.757 80.7847 108.108 84.1388C111.459 87.4929 116.006 89.3782 120.747 89.3801C125.489 89.382 130.037 87.5003 133.391 84.1489L166.704 50.8365C166.856 50.6833 167.037 50.5622 167.237 50.48C167.437 50.3978 167.651 50.3562 167.867 50.3577C168.083 50.3592 168.296 50.4038 168.495 50.4888C168.693 50.5738 168.873 50.6975 169.023 50.8527Z" fill="#3C402B"/>
<g clip-path="url(#clip1_215_32199)">
<path d="M99.3398 214.051C99.3952 214.257 99.4094 214.473 99.3816 214.684C99.3538 214.896 99.2845 215.1 99.1777 215.285C99.071 215.47 98.9288 215.632 98.7593 215.762C98.5899 215.892 98.3965 215.987 98.1902 216.043L52.6633 228.224C47.251 229.673 41.4844 228.914 36.6321 226.112C31.7799 223.31 28.2394 218.695 26.7895 213.283C25.3397 207.871 26.0993 202.104 28.9012 197.252C31.7031 192.4 36.3178 188.859 41.7301 187.409L97.1234 172.138C98.9786 171.64 100.914 171.513 102.818 171.763C104.723 172.013 106.56 172.636 108.224 173.595C109.887 174.555 111.346 175.833 112.516 177.357C113.686 178.88 114.544 180.619 115.042 182.474C115.54 184.33 115.668 186.265 115.418 188.169C115.168 190.074 114.545 191.911 113.585 193.575C112.626 195.239 111.347 196.697 109.824 197.867C108.3 199.037 106.561 199.895 104.706 200.393L49.3175 215.648C48.287 215.925 47.2121 215.996 46.1541 215.857C45.0962 215.718 44.0759 215.373 43.1515 214.84C42.2272 214.307 41.4169 213.597 40.7669 212.751C40.1169 211.904 39.6399 210.938 39.3632 209.908C39.0865 208.877 39.0154 207.803 39.1541 206.745C39.2929 205.687 39.6386 204.666 40.1716 203.742C40.7046 202.818 41.4145 202.007 42.2607 201.357C43.1069 200.707 44.0728 200.23 45.1033 199.954L91.6072 187.08C91.8146 187.017 92.0325 186.996 92.2481 187.019C92.4636 187.041 92.6725 187.107 92.8623 187.211C93.0521 187.316 93.2191 187.457 93.3535 187.628C93.4878 187.798 93.5867 187.993 93.6445 188.202C93.7023 188.411 93.7176 188.629 93.6898 188.844C93.6619 189.059 93.5913 189.266 93.4821 189.453C93.373 189.64 93.2275 189.804 93.0542 189.934C92.8809 190.064 92.6833 190.158 92.4731 190.211L45.958 203.088C45.3393 203.253 44.759 203.538 44.2504 203.927C43.7418 204.316 43.3148 204.802 42.9938 205.356C42.6728 205.91 42.4641 206.522 42.3796 207.157C42.295 207.791 42.3364 208.436 42.5012 209.055C42.666 209.674 42.9511 210.254 43.3402 210.763C43.7293 211.271 44.2147 211.698 44.7688 212.019C45.3229 212.34 45.9348 212.549 46.5696 212.634C47.2043 212.718 47.8495 212.677 48.4683 212.512L103.853 197.255C105.297 196.87 106.65 196.203 107.836 195.294C109.022 194.386 110.017 193.252 110.765 191.959C111.513 190.665 111.999 189.237 112.195 187.756C112.39 186.275 112.293 184.77 111.907 183.326C111.521 181.883 110.855 180.53 109.946 179.344C109.037 178.158 107.904 177.163 106.611 176.415C105.317 175.667 103.889 175.181 102.408 174.985C100.927 174.789 99.4215 174.887 97.9782 175.273L42.593 190.53C38.0126 191.755 34.1066 194.75 31.7342 198.855C29.3618 202.96 28.7174 207.84 29.9427 212.42C31.1681 217.001 34.1628 220.907 38.2681 223.279C42.3734 225.651 47.2529 226.296 51.8333 225.071L97.3391 212.877C97.5475 212.821 97.7652 212.807 97.9793 212.835C98.1933 212.864 98.3996 212.935 98.5858 213.044C98.7721 213.154 98.9348 213.299 99.0642 213.472C99.1937 213.645 99.2874 213.842 99.3398 214.051Z" fill="#3C402B"/>
</g>
<defs>
<clipPath id="clip0_215_32199">
<rect width="104" height="104" fill="white" transform="translate(54 130) rotate(30)"/>
</clipPath>
<clipPath id="clip1_215_32199">
<rect width="104" height="104" fill="white" transform="translate(52 128) rotate(30)"/>
</clipPath>
</defs>
</svg>
