<?xml version="1.0" encoding="UTF-8"?>
<svg width="499px" height="1003px" viewBox="0 0 499 1003" version="1.1" xmlns="http://www.w3.org/2000/svg" xmlns:xlink="http://www.w3.org/1999/xlink">
    <title>phone</title>
    <g id="phone" stroke="none" stroke-width="1" fill="none" fill-rule="evenodd">
        <rect id="bounding-box" x="0" y="0" width="499" height="1003"></rect>
        <g transform="translate(0.000000, 113.000000)">
            <path d="M369.14,5.5 C396.754237,5.5 419.14,27.8857625 419.14,55.5 L419.14,201.806 L420.722339,201.806326 C421.873318,201.806326 422.80637,202.739379 422.80637,203.890358 L422.80637,261.22541 C422.80637,262.376389 421.873318,263.309441 420.722339,263.309441 L419.14,263.309 L419.14,309.685 L420.722339,309.68528 C421.873318,309.68528 422.80637,310.618333 422.80637,311.769312 L422.80637,430.260003 C422.80637,431.410982 421.873318,432.344035 420.722339,432.344035 L419.14,432.344 L419.14,839.13 C419.14,866.744237 396.754237,889.13 369.14,889.13 L56.5,889.13 C28.8857625,889.13 6.5,866.744237 6.5,839.13 L6.5,55.5 C6.5,27.8857625 28.8857625,5.5 56.5,5.5 L369.14,5.5 Z" id="shadow" fill="#35313D" opacity="0.100000001"></path>
            <g id="body" stroke="#000000">
                <path d="M360.039572,1 C376.853904,1 388.782346,6.55852073 396.894539,14.6325499 C407.56955,25.2573411 411.638307,40.1891695 411.638307,52.3512862 L411.638307,52.3512862 L411.638307,833.392182 C411.638307,843.256793 407.631963,858.56192 396.188996,869.491157 C388.175278,877.145101 376.509343,882.629505 360.039572,882.629505 L360.039572,882.629505 L50.4447475,882.629505 C34.2727612,882.629505 23.0549298,876.982446 15.4563505,869.087944 C4.42562583,857.627633 1,841.495927 1,831.220211 L1,831.220211 L1,53.9203785 C1,37.0616329 6.73310025,24.7758962 15.1328148,16.317359 C25.8039505,5.57149402 40.74014,1 53.5454035,1 L53.5454035,1 Z" stroke-width="2" fill="#FFFFFF"></path>
                <path d="M414.722339,311.18528 C415.435899,311.18528 416.081907,311.474507 416.549525,311.942125 C417.017143,312.409743 417.30637,313.055751 417.30637,313.769312 L417.30637,313.769312 L417.30637,432.260003 C417.30637,432.973564 417.017143,433.619572 416.549525,434.08719 C416.081907,434.554808 415.435899,434.844035 414.722339,434.844035 L414.722339,434.844035 L412.134831,434.844035 L412.134831,311.18528 Z" id="button-2" fill="#F2F2F2"></path>
                <path d="M414.722339,191.306326 C415.435899,191.306326 416.081907,191.595554 416.549525,192.063171 C417.017143,192.530789 417.30637,193.176797 417.30637,193.890358 L417.30637,193.890358 L417.30637,251.22541 C417.30637,251.93897 417.017143,252.584978 416.549525,253.052596 C416.081907,253.520214 415.435899,253.809441 414.722339,253.809441 L414.722339,253.809441 L412.134831,253.809441 L412.134831,191.306326 Z" id="button-1" fill="#1FA647"></path>
                <circle id="camera" fill="#F2F2F2" cx="120.873847" cy="34.7338642" r="9.22548198"></circle>
                <rect id="speaker-top" fill="#F2F2F2" x="159.019099" y="26.5606421" width="96.2548198" height="15.6722548" rx="7.83612741"></rect>
            </g>
            <g id="display" transform="translate(19.450964, 69.467728)">
                <rect id="screen-bg" stroke="#000000" fill="#35313D" x="0.5" y="0.5" width="374.125733" height="749.251467" rx="16"></rect>
                <g id="form" transform="translate(32.000000, 154.064543)">
                    <g id="password" transform="translate(0.450964, 194.467728)">
                        <rect id="field-bg" stroke="#FFFFFF" x="0.5" y="24.5" width="310" height="63" rx="8"></rect>
                        <path d="M274.99585,48.1944 C275.30185,47.9184 275.77735,47.9394 276.05485,48.2454 L276.05485,48.2454 L278.12035,50.5179 L278.13385,50.5134 L279.20485,51.6909 L279.20485,51.6909 L279.19135,51.6954 L280.65535,53.3049 L280.65535,53.3049 L280.66735,53.2989 L281.70235,54.4389 C281.69935,54.4404 281.69335,54.4419 281.68885,54.4434 L281.68885,54.4434 L285.46735,58.5984 C285.46885,58.5939 285.47185,58.5909 285.47335,58.5879 L285.47335,58.5879 L286.50685,59.7219 C286.50385,59.7249 286.50235,59.7294 286.49935,59.7339 L286.49935,59.7339 L288.21985,61.6269 C288.22285,61.6239 288.22585,61.6209 288.23035,61.6194 L288.23035,61.6194 L289.26835,62.7609 C289.26385,62.7624 289.26085,62.7654 289.25785,62.7684 L289.25785,62.7684 L291.05485,64.7454 C291.33385,65.0514 291.31135,65.5269 291.00385,65.8044 C290.86135,65.9349 290.67985,65.9994 290.49985,65.9994 C290.29585,65.9994 290.09335,65.9169 289.94485,65.7549 L289.94485,65.7549 L287.87785,63.4809 C286.50385,64.0929 284.89285,64.4994 282.99985,64.4994 C276.16135,64.4994 272.85835,59.2899 272.00785,57.6939 C271.77385,57.2529 271.77385,56.7474 272.00785,56.3064 C272.53885,55.3089 274.02985,52.8984 276.74185,51.2304 L276.74185,51.2304 L274.94485,49.2549 C274.66585,48.9474 274.68835,48.4734 274.99585,48.1944 Z M277.77985,52.3734 C275.22235,53.8464 273.81835,56.0964 273.33235,57.0114 C274.08235,58.3989 276.99685,62.9994 282.99985,62.9994 C284.44585,62.9994 285.70735,62.7279 286.80835,62.3034 L286.80835,62.3034 L285.34435,60.6939 C284.75635,61.0419 284.09785,61.2729 283.38835,61.3329 C283.25635,61.3434 283.12585,61.3479 282.99685,61.3479 C280.69135,61.3479 278.72335,59.6409 278.51785,57.3804 C278.41435,56.2524 278.76385,55.1469 279.50035,54.2664 L279.50035,54.2664 Z M282.99925,49.49955 C289.83775,49.49955 293.14225,54.71055 293.99125,56.30655 C294.22525,56.74755 294.22525,57.25305 293.99125,57.69405 C293.54875,58.52505 292.42675,60.33705 290.49775,61.88205 L290.49775,61.88205 L289.47925,60.76155 C291.24175,59.38155 292.26925,57.73755 292.66675,56.98905 C291.91675,55.60005 289.00225,50.99955 282.99925,50.99955 C282.21475,50.99955 281.49025,51.08505 280.80925,51.22455 L280.80925,51.22455 L279.66925,49.97055 C280.67275,49.68405 281.77225,49.49955 282.99925,49.49955 Z M280.53235,55.4019 C280.14235,55.9419 279.95185,56.5854 280.01185,57.2439 C280.15435,58.8129 281.63035,59.9799 283.26385,59.8389 C283.63435,59.8074 283.98535,59.7054 284.30935,59.5554 L284.30935,59.5554 Z M282.6109,52.66635 C285.0814,52.44285 287.2639,54.23085 287.4829,56.61735 C287.5369,57.20685 287.4604,57.78885 287.2759,58.33785 L287.2759,58.33785 L285.9874,56.92185 C285.9859,56.86485 285.9934,56.81085 285.9874,56.75385 C285.8689,55.43685 284.8189,54.40935 283.5094,54.19635 L283.5094,54.19635 L282.1969,52.75185 C282.3364,52.72635 282.4669,52.67835 282.6109,52.66635 Z" id="eye-off" fill="#FFFFFF"></path>
                        <path d="M21.264,58.824 C21.5946667,58.824 21.8986667,58.7426667 22.176,58.58 C22.4533333,58.4173333 22.676,58.1946667 22.844,57.912 C23.012,57.6293333 23.096,57.312 23.096,56.96 C23.096,56.6026667 23.012,56.2826667 22.844,56 C22.676,55.7173333 22.4533333,55.496 22.176,55.336 C21.8986667,55.176 21.5946667,55.096 21.264,55.096 C20.9066667,55.096 20.5853333,55.176 20.3,55.336 C20.0146667,55.496 19.7866667,55.7186667 19.616,56.004 C19.4453333,56.2893333 19.36,56.608 19.36,56.96 C19.36,57.312 19.4453333,57.6293333 19.616,57.912 C19.7866667,58.1946667 20.016,58.4173333 20.304,58.58 C20.592,58.7426667 20.912,58.824 21.264,58.824 Z M31.72,58.824 C32.0506667,58.824 32.3546667,58.7426667 32.632,58.58 C32.9093333,58.4173333 33.132,58.1946667 33.3,57.912 C33.468,57.6293333 33.552,57.312 33.552,56.96 C33.552,56.6026667 33.468,56.2826667 33.3,56 C33.132,55.7173333 32.9093333,55.496 32.632,55.336 C32.3546667,55.176 32.0506667,55.096 31.72,55.096 C31.3626667,55.096 31.0413333,55.176 30.756,55.336 C30.4706667,55.496 30.2426667,55.7186667 30.072,56.004 C29.9013333,56.2893333 29.816,56.608 29.816,56.96 C29.816,57.312 29.9013333,57.6293333 30.072,57.912 C30.2426667,58.1946667 30.472,58.4173333 30.76,58.58 C31.048,58.7426667 31.368,58.824 31.72,58.824 Z M42.176,58.824 C42.5066667,58.824 42.8106667,58.7426667 43.088,58.58 C43.3653333,58.4173333 43.588,58.1946667 43.756,57.912 C43.924,57.6293333 44.008,57.312 44.008,56.96 C44.008,56.6026667 43.924,56.2826667 43.756,56 C43.588,55.7173333 43.3653333,55.496 43.088,55.336 C42.8106667,55.176 42.5066667,55.096 42.176,55.096 C41.8186667,55.096 41.4973333,55.176 41.212,55.336 C40.9266667,55.496 40.6986667,55.7186667 40.528,56.004 C40.3573333,56.2893333 40.272,56.608 40.272,56.96 C40.272,57.312 40.3573333,57.6293333 40.528,57.912 C40.6986667,58.1946667 40.928,58.4173333 41.216,58.58 C41.504,58.7426667 41.824,58.824 42.176,58.824 Z M52.632,58.824 C52.9626667,58.824 53.2666667,58.7426667 53.544,58.58 C53.8213333,58.4173333 54.044,58.1946667 54.212,57.912 C54.38,57.6293333 54.464,57.312 54.464,56.96 C54.464,56.6026667 54.38,56.2826667 54.212,56 C54.044,55.7173333 53.8213333,55.496 53.544,55.336 C53.2666667,55.176 52.9626667,55.096 52.632,55.096 C52.2746667,55.096 51.9533333,55.176 51.668,55.336 C51.3826667,55.496 51.1546667,55.7186667 50.984,56.004 C50.8133333,56.2893333 50.728,56.608 50.728,56.96 C50.728,57.312 50.8133333,57.6293333 50.984,57.912 C51.1546667,58.1946667 51.384,58.4173333 51.672,58.58 C51.96,58.7426667 52.28,58.824 52.632,58.824 Z M63.088,58.824 C63.4186667,58.824 63.7226667,58.7426667 64,58.58 C64.2773333,58.4173333 64.5,58.1946667 64.668,57.912 C64.836,57.6293333 64.92,57.312 64.92,56.96 C64.92,56.6026667 64.836,56.2826667 64.668,56 C64.5,55.7173333 64.2773333,55.496 64,55.336 C63.7226667,55.176 63.4186667,55.096 63.088,55.096 C62.7306667,55.096 62.4093333,55.176 62.124,55.336 C61.8386667,55.496 61.6106667,55.7186667 61.44,56.004 C61.2693333,56.2893333 61.184,56.608 61.184,56.96 C61.184,57.312 61.2693333,57.6293333 61.44,57.912 C61.6106667,58.1946667 61.84,58.4173333 62.128,58.58 C62.416,58.7426667 62.736,58.824 63.088,58.824 Z M73.544,58.824 C73.8746667,58.824 74.1786667,58.7426667 74.456,58.58 C74.7333333,58.4173333 74.956,58.1946667 75.124,57.912 C75.292,57.6293333 75.376,57.312 75.376,56.96 C75.376,56.6026667 75.292,56.2826667 75.124,56 C74.956,55.7173333 74.7333333,55.496 74.456,55.336 C74.1786667,55.176 73.8746667,55.096 73.544,55.096 C73.1866667,55.096 72.8653333,55.176 72.58,55.336 C72.2946667,55.496 72.0666667,55.7186667 71.896,56.004 C71.7253333,56.2893333 71.64,56.608 71.64,56.96 C71.64,57.312 71.7253333,57.6293333 71.896,57.912 C72.0666667,58.1946667 72.296,58.4173333 72.584,58.58 C72.872,58.7426667 73.192,58.824 73.544,58.824 Z M84,58.824 C84.3306667,58.824 84.6346667,58.7426667 84.912,58.58 C85.1893333,58.4173333 85.412,58.1946667 85.58,57.912 C85.748,57.6293333 85.832,57.312 85.832,56.96 C85.832,56.6026667 85.748,56.2826667 85.58,56 C85.412,55.7173333 85.1893333,55.496 84.912,55.336 C84.6346667,55.176 84.3306667,55.096 84,55.096 C83.6426667,55.096 83.3213333,55.176 83.036,55.336 C82.7506667,55.496 82.5226667,55.7186667 82.352,56.004 C82.1813333,56.2893333 82.096,56.608 82.096,56.96 C82.096,57.312 82.1813333,57.6293333 82.352,57.912 C82.5226667,58.1946667 82.752,58.4173333 83.04,58.58 C83.328,58.7426667 83.648,58.824 84,58.824 Z M94.456,58.824 C94.7866667,58.824 95.0906667,58.7426667 95.368,58.58 C95.6453333,58.4173333 95.868,58.1946667 96.036,57.912 C96.204,57.6293333 96.288,57.312 96.288,56.96 C96.288,56.6026667 96.204,56.2826667 96.036,56 C95.868,55.7173333 95.6453333,55.496 95.368,55.336 C95.0906667,55.176 94.7866667,55.096 94.456,55.096 C94.0986667,55.096 93.7773333,55.176 93.492,55.336 C93.2066667,55.496 92.9786667,55.7186667 92.808,56.004 C92.6373333,56.2893333 92.552,56.608 92.552,56.96 C92.552,57.312 92.6373333,57.6293333 92.808,57.912 C92.9786667,58.1946667 93.208,58.4173333 93.496,58.58 C93.784,58.7426667 94.104,58.824 94.456,58.824 Z" id="••••••••" fill="#FFFFFF" fill-rule="nonzero"></path>
                        <path d="M2.296,12 L2.296,7.624 L5.568,7.624 C5.68,7.624 5.80666667,7.61866667 5.948,7.608 C6.08933333,7.59733333 6.232,7.58133333 6.376,7.56 C6.97333333,7.46933333 7.48133333,7.26 7.9,6.932 C8.31866667,6.604 8.63733333,6.192 8.856,5.696 C9.07466667,5.2 9.184,4.65333333 9.184,4.056 C9.184,3.45333333 9.076,2.904 8.86,2.408 C8.644,1.912 8.32666667,1.5 7.908,1.172 C7.48933333,0.844 6.97866667,0.634666667 6.376,0.544 C6.232,0.517333333 6.08933333,0.5 5.948,0.492 C5.80666667,0.484 5.68,0.48 5.568,0.48 L5.568,0.48 L1.12,0.48 L1.12,12 L2.296,12 Z M5.536,6.504 L2.296,6.504 L2.296,1.608 L5.536,1.608 C5.632,1.608 5.744,1.612 5.872,1.62 C6,1.628 6.12533333,1.64533333 6.248,1.672 C6.64266667,1.75733333 6.96666667,1.92 7.22,2.16 C7.47333333,2.4 7.66266667,2.68666667 7.788,3.02 C7.91333333,3.35333333 7.976,3.69866667 7.976,4.056 C7.976,4.41333333 7.91333333,4.75733333 7.788,5.088 C7.66266667,5.41866667 7.47333333,5.704 7.22,5.944 C6.96666667,6.184 6.64266667,6.34666667 6.248,6.432 C6.12533333,6.45866667 6,6.47733333 5.872,6.488 C5.744,6.49866667 5.632,6.504 5.536,6.504 L5.536,6.504 Z M13.256,12.24 C14.12,12.24 14.8613333,12.0453333 15.48,11.656 C15.8924444,11.3964444 16.2325926,11.0586667 16.5004444,10.6426667 L16.544,10.569 L16.544,12 L17.592,12 L17.592,6.632 C17.592,6.312 17.576,5.99733333 17.544,5.688 C17.512,5.37866667 17.4426667,5.09866667 17.336,4.848 C17.1066667,4.288 16.716,3.86 16.164,3.564 C15.612,3.268 14.9413333,3.12 14.152,3.12 C13.1973333,3.12 12.4213333,3.33333333 11.824,3.76 C11.2266667,4.18666667 10.8293333,4.78666667 10.632,5.56 L10.632,5.56 L11.776,5.896 C11.9413333,5.32 12.228,4.89866667 12.636,4.632 C13.044,4.36533333 13.544,4.232 14.136,4.232 C14.9946667,4.232 15.5973333,4.43733333 15.944,4.848 C16.2906667,5.25866667 16.456,5.89066667 16.44,6.744 L16.439,6.549 L16.36512,6.55904 C16.1914667,6.58293333 16.0077867,6.60704 15.81408,6.63136 L15.516,6.668 C15.0066667,6.72933333 14.4866667,6.80133333 13.956,6.884 C13.4253333,6.96666667 12.9413333,7.06133333 12.504,7.168 C12.072,7.28 11.692,7.44266667 11.364,7.656 C11.036,7.86933333 10.7773333,8.14266667 10.588,8.476 C10.3986667,8.80933333 10.304,9.21066667 10.304,9.68 C10.304,10.1386667 10.4133333,10.5626667 10.632,10.952 C10.8506667,11.3413333 11.18,11.6533333 11.62,11.888 C12.06,12.1226667 12.6053333,12.24 13.256,12.24 Z M13.392,11.224 C12.928,11.224 12.556,11.1466667 12.276,10.992 C11.996,10.8373333 11.7933333,10.6426667 11.668,10.408 C11.5426667,10.1733333 11.48,9.93066667 11.48,9.68 C11.48,9.37066667 11.5533333,9.112 11.7,8.904 C11.8466667,8.696 12.0346667,8.52933333 12.264,8.404 C12.4933333,8.27866667 12.7306667,8.18133333 12.976,8.112 C13.3386667,8.016 13.7453333,7.93333333 14.196,7.864 C14.6466667,7.79466667 15.1053333,7.73333333 15.572,7.68 C15.8053333,7.65333333 16.0303333,7.62666667 16.247,7.6 L16.422,7.578 L16.42112,7.67632 C16.42048,7.72954667 16.4197333,7.78613333 16.41888,7.84608 L16.416,8.036 C16.4106667,8.36933333 16.376,8.67466667 16.312,8.952 C16.2373333,9.384 16.0746667,9.772 15.824,10.116 C15.5733333,10.46 15.2426667,10.7306667 14.832,10.928 C14.4213333,11.1253333 13.9413333,11.224 13.392,11.224 Z M22.896,12.232 C23.9573333,12.232 24.7906667,11.9986667 25.396,11.532 C26.0013333,11.0653333 26.304,10.424 26.304,9.608 C26.304,9.16 26.208,8.784 26.016,8.48 C25.824,8.176 25.5013333,7.912 25.048,7.688 C24.5946667,7.464 23.9706667,7.25066667 23.176,7.048 C22.4986667,6.87733333 21.9773333,6.72 21.612,6.576 C21.2466667,6.432 20.9946667,6.27866667 20.856,6.116 C20.7173333,5.95333333 20.648,5.75733333 20.648,5.528 C20.648,5.11733333 20.84,4.788 21.224,4.54 C21.608,4.292 22.1066667,4.176 22.72,4.192 C23.3706667,4.20266667 23.908,4.356 24.332,4.652 C24.756,4.948 25.008,5.34933333 25.088,5.856 L25.088,5.856 L26.288,5.64 C26.2293333,5.13866667 26.0426667,4.69866667 25.728,4.32 C25.4133333,3.94133333 24.9986667,3.64666667 24.484,3.436 C23.9693333,3.22533333 23.3866667,3.12 22.736,3.12 C22.0853333,3.12 21.5146667,3.22266667 21.024,3.428 C20.5333333,3.63333333 20.1493333,3.92133333 19.872,4.292 C19.5946667,4.66266667 19.456,5.09333333 19.456,5.584 C19.456,5.98933333 19.5493333,6.332 19.736,6.612 C19.9226667,6.892 20.2373333,7.13866667 20.68,7.352 C21.1226667,7.56533333 21.736,7.77866667 22.52,7.992 C23.2506667,8.18933333 23.8,8.36 24.168,8.504 C24.536,8.648 24.78,8.804 24.9,8.972 C25.02,9.14 25.08,9.35733333 25.08,9.624 C25.08,10.0986667 24.8906667,10.4733333 24.512,10.748 C24.1333333,11.0226667 23.616,11.16 22.96,11.16 C22.288,11.16 21.724,11.0146667 21.268,10.724 C20.812,10.4333333 20.52,10.0426667 20.392,9.552 L20.392,9.552 L19.192,9.752 C19.3413333,10.5306667 19.7426667,11.1386667 20.396,11.576 C21.0493333,12.0133333 21.8826667,12.232 22.896,12.232 Z M31.296,12.232 C32.3573333,12.232 33.1906667,11.9986667 33.796,11.532 C34.4013333,11.0653333 34.704,10.424 34.704,9.608 C34.704,9.16 34.608,8.784 34.416,8.48 C34.224,8.176 33.9013333,7.912 33.448,7.688 C32.9946667,7.464 32.3706667,7.25066667 31.576,7.048 C30.8986667,6.87733333 30.3773333,6.72 30.012,6.576 C29.6466667,6.432 29.3946667,6.27866667 29.256,6.116 C29.1173333,5.95333333 29.048,5.75733333 29.048,5.528 C29.048,5.11733333 29.24,4.788 29.624,4.54 C30.008,4.292 30.5066667,4.176 31.12,4.192 C31.7706667,4.20266667 32.308,4.356 32.732,4.652 C33.156,4.948 33.408,5.34933333 33.488,5.856 L33.488,5.856 L34.688,5.64 C34.6293333,5.13866667 34.4426667,4.69866667 34.128,4.32 C33.8133333,3.94133333 33.3986667,3.64666667 32.884,3.436 C32.3693333,3.22533333 31.7866667,3.12 31.136,3.12 C30.4853333,3.12 29.9146667,3.22266667 29.424,3.428 C28.9333333,3.63333333 28.5493333,3.92133333 28.272,4.292 C27.9946667,4.66266667 27.856,5.09333333 27.856,5.584 C27.856,5.98933333 27.9493333,6.332 28.136,6.612 C28.3226667,6.892 28.6373333,7.13866667 29.08,7.352 C29.5226667,7.56533333 30.136,7.77866667 30.92,7.992 C31.6506667,8.18933333 32.2,8.36 32.568,8.504 C32.936,8.648 33.18,8.804 33.3,8.972 C33.42,9.14 33.48,9.35733333 33.48,9.624 C33.48,10.0986667 33.2906667,10.4733333 32.912,10.748 C32.5333333,11.0226667 32.016,11.16 31.36,11.16 C30.688,11.16 30.124,11.0146667 29.668,10.724 C29.212,10.4333333 28.92,10.0426667 28.792,9.552 L28.792,9.552 L27.592,9.752 C27.7413333,10.5306667 28.1426667,11.1386667 28.796,11.576 C29.4493333,12.0133333 30.2826667,12.232 31.296,12.232 Z M39.336,12 L41.488,5.12 L43.648,12 L44.672,12 L47.312,3.36 L46.144,3.36 L44.08,10.072 L42.024,3.36 L40.952,3.36 L38.896,10.072 L36.848,3.36 L35.672,3.352 L38.312,12 L39.336,12 Z M52.36,12.24 C53.2133333,12.24 53.9466667,12.048 54.56,11.664 C55.1733333,11.28 55.6426667,10.7453333 55.968,10.06 C56.2933333,9.37466667 56.456,8.57866667 56.456,7.672 C56.456,6.78133333 56.2946667,5.99333333 55.972,5.308 C55.6493333,4.62266667 55.1826667,4.08666667 54.572,3.7 C53.9613333,3.31333333 53.224,3.12 52.36,3.12 C51.5173333,3.12 50.7906667,3.31066667 50.18,3.692 C49.5693333,4.07333333 49.0986667,4.60533333 48.768,5.288 C48.4373333,5.97066667 48.272,6.76533333 48.272,7.672 C48.272,8.56266667 48.4346667,9.352 48.76,10.04 C49.0853333,10.728 49.552,11.2666667 50.16,11.656 C50.768,12.0453333 51.5013333,12.24 52.36,12.24 Z M52.36,11.112 C51.4266667,11.112 50.72,10.7986667 50.24,10.172 C49.76,9.54533333 49.52,8.712 49.52,7.672 C49.52,7 49.6226667,6.40666667 49.828,5.892 C50.0333333,5.37733333 50.3453333,4.97466667 50.764,4.684 C51.1826667,4.39333333 51.7146667,4.248 52.36,4.248 C53.3146667,4.248 54.028,4.55733333 54.5,5.176 C54.972,5.79466667 55.208,6.62666667 55.208,7.672 C55.208,8.69066667 54.9733333,9.51866667 54.504,10.156 C54.0346667,10.7933333 53.32,11.112 52.36,11.112 Z M59.392,12 L59.392,7.688 C59.392,7.34666667 59.416,7.00133333 59.464,6.652 C59.512,6.30266667 59.608,5.972 59.752,5.66 C59.896,5.348 60.112,5.08 60.4,4.856 C60.7146667,4.6 61.0586667,4.45066667 61.432,4.408 C61.8053333,4.36533333 62.1493333,4.384 62.464,4.464 L62.464,4.464 L62.464,3.36 C62.2133333,3.296 61.936,3.27333333 61.632,3.292 C61.328,3.31066667 61.0266667,3.372 60.728,3.476 C60.4293333,3.58 60.168,3.73066667 59.944,3.928 C59.7626667,4.06666667 59.5946667,4.244 59.44,4.46 C59.4013333,4.514 59.3645,4.56925 59.3295,4.62575 L59.272,4.726 L59.272,3.36 L58.216,3.36 L58.216,12 L59.392,12 Z M67.336,12.24 C68.1306667,12.24 68.8026667,12.0386667 69.352,11.636 C69.6571852,11.4122963 69.9212181,11.1441481 70.1440988,10.8315556 L70.167,10.797 L70.168,12 L71.224,12 L71.224,0.48 L70.04,0.48 L70.039,4.382 L69.9957531,4.32434568 C69.8507654,4.1497284 69.6908148,3.99125926 69.5159012,3.84893827 L69.336,3.712 C68.7813333,3.31733333 68.0986667,3.12 67.288,3.12 C66.4986667,3.12 65.8213333,3.32 65.256,3.72 C64.6906667,4.12 64.2573333,4.664 63.956,5.352 C63.6546667,6.04 63.504,6.81333333 63.504,7.672 C63.504,8.536 63.656,9.312 63.96,10 C64.264,10.688 64.7013333,11.2333333 65.272,11.636 C65.8426667,12.0386667 66.5306667,12.24 67.336,12.24 Z M67.456,11.144 C66.8533333,11.144 66.352,10.992 65.952,10.688 C65.552,10.384 65.252,9.96933333 65.052,9.444 C64.852,8.91866667 64.752,8.328 64.752,7.672 C64.752,7.02133333 64.8493333,6.43466667 65.044,5.912 C65.2386667,5.38933333 65.5386667,4.976 65.944,4.672 C66.3493333,4.368 66.8613333,4.216 67.48,4.216 C68.0826667,4.216 68.5826667,4.36266667 68.98,4.656 C69.3773333,4.94933333 69.6746667,5.356 69.872,5.876 C70.0693333,6.396 70.168,6.99466667 70.168,7.672 C70.168,8.33866667 70.0693333,8.93466667 69.872,9.46 C69.6746667,9.98533333 69.376,10.3973333 68.976,10.696 C68.576,10.9946667 68.0693333,11.144 67.456,11.144 Z" id="Password" fill="#FFFFFF" fill-rule="nonzero"></path>
                    </g>
                    <g id="email" transform="translate(0.450964, 76.467728)">
                        <rect id="field-bg" stroke="#FFFFFF" x="0.5" y="24.5" width="310" height="63" rx="8"></rect>
                        <path d="M18.296,62 L18.296,57.392 C18.296,56.9013333 18.352,56.464 18.464,56.08 C18.576,55.696 18.74,55.3693333 18.956,55.1 C19.172,54.8306667 19.4386667,54.624 19.756,54.48 C20.0733333,54.336 20.44,54.264 20.856,54.264 C21.3093333,54.264 21.6946667,54.3466667 22.012,54.512 C22.3293333,54.6773333 22.588,54.9106667 22.788,55.212 C22.988,55.5133333 23.1333333,55.8653333 23.224,56.268 C23.3146667,56.6706667 23.36,57.112 23.36,57.592 L23.36,57.592 L23.36,62 L24.544,62 L24.544,57.248 C24.544,56.8586667 24.5066667,56.468 24.432,56.076 C24.3573333,55.684 24.2373333,55.3133333 24.072,54.964 C23.9066667,54.6146667 23.6893333,54.304 23.42,54.032 C23.1506667,53.76 22.8226667,53.544 22.436,53.384 C22.0493333,53.224 21.5973333,53.144 21.08,53.144 C20.376,53.144 19.752,53.2986667 19.208,53.608 C18.8,53.84 18.458,54.1545 18.182,54.5515 L18.176,54.561 L18.176,50.48 L17.112,50.48 L17.112,62 L18.296,62 Z M34.208,58.008 C34.2346667,56.9946667 34.0933333,56.1226667 33.784,55.392 C33.4746667,54.6613333 33.0186667,54.1 32.416,53.708 C31.8133333,53.316 31.0853333,53.12 30.232,53.12 C29.4,53.12 28.6786667,53.3066667 28.068,53.68 C27.4573333,54.0533333 26.984,54.584 26.648,55.272 C26.312,55.96 26.144,56.776 26.144,57.72 C26.144,58.632 26.3146667,59.4266667 26.656,60.104 C26.9973333,60.7813333 27.476,61.3066667 28.092,61.68 C28.708,62.0533333 29.4373333,62.24 30.28,62.24 C31.1173333,62.24 31.868,62.0333333 32.532,61.62 C33.196,61.2066667 33.6986667,60.624 34.04,59.872 L34.04,59.872 L32.944,59.448 C32.6773333,59.9866667 32.3133333,60.3986667 31.852,60.684 C31.3906667,60.9693333 30.8506667,61.112 30.232,61.112 C29.3253333,61.112 28.6253333,60.812 28.132,60.212 C27.7208889,59.712 27.4810741,59.0425556 27.4125556,58.2036667 L27.401,58.008 L33.576,58.008 L34.208,58.008 Z M32.975,57.024 L27.424,57.024 L27.43825,56.892 C27.5204722,56.2342222 27.7123241,55.6902222 28.0138056,55.26 L28.132,55.104 C28.6253333,54.5013333 29.336,54.2 30.264,54.2 C31.1493333,54.2 31.8226667,54.4853333 32.284,55.056 C32.63,55.484 32.85225,56.0665 32.95075,56.8035 L32.975,57.024 Z M37.312,62 L37.312,50.24 L36.136,50.24 L36.136,62 L37.312,62 Z M41.048,62 L41.048,50.24 L39.872,50.24 L39.872,62 L41.048,62 Z M47.056,62.24 C47.9093333,62.24 48.6426667,62.048 49.256,61.664 C49.8693333,61.28 50.3386667,60.7453333 50.664,60.06 C50.9893333,59.3746667 51.152,58.5786667 51.152,57.672 C51.152,56.7813333 50.9906667,55.9933333 50.668,55.308 C50.3453333,54.6226667 49.8786667,54.0866667 49.268,53.7 C48.6573333,53.3133333 47.92,53.12 47.056,53.12 C46.2133333,53.12 45.4866667,53.3106667 44.876,53.692 C44.2653333,54.0733333 43.7946667,54.6053333 43.464,55.288 C43.1333333,55.9706667 42.968,56.7653333 42.968,57.672 C42.968,58.5626667 43.1306667,59.352 43.456,60.04 C43.7813333,60.728 44.248,61.2666667 44.856,61.656 C45.464,62.0453333 46.1973333,62.24 47.056,62.24 Z M47.056,61.112 C46.1226667,61.112 45.416,60.7986667 44.936,60.172 C44.456,59.5453333 44.216,58.712 44.216,57.672 C44.216,57 44.3186667,56.4066667 44.524,55.892 C44.7293333,55.3773333 45.0413333,54.9746667 45.46,54.684 C45.8786667,54.3933333 46.4106667,54.248 47.056,54.248 C48.0106667,54.248 48.724,54.5573333 49.196,55.176 C49.668,55.7946667 49.904,56.6266667 49.904,57.672 C49.904,58.6906667 49.6693333,59.5186667 49.2,60.156 C48.7306667,60.7933333 48.016,61.112 47.056,61.112 Z M59.048,63.68 C59.5706667,63.68 60.088,63.616 60.6,63.488 C61.112,63.36 61.6,63.1653333 62.064,62.904 L62.064,62.904 L61.688,62.008 C61.3306667,62.216 60.924,62.3786667 60.468,62.496 C60.012,62.6133333 59.5573333,62.672 59.104,62.672 C58.4053333,62.672 57.7573333,62.5506667 57.16,62.308 C56.5626667,62.0653333 56.04,61.724 55.592,61.284 C55.144,60.844 54.7933333,60.324 54.54,59.724 C54.2866667,59.124 54.1573333,58.4693333 54.152,57.76 C54.1413333,57.072 54.2453333,56.4226667 54.464,55.812 C54.6826667,55.2013333 55.0066667,54.6613333 55.436,54.192 C55.8653333,53.7226667 56.3906667,53.3546667 57.012,53.088 C57.6333333,52.8213333 58.344,52.688 59.144,52.688 C59.8053333,52.688 60.428,52.7893333 61.012,52.992 C61.596,53.1946667 62.1093333,53.5 62.552,53.908 C62.9946667,54.316 63.336,54.824 63.576,55.432 C63.816,56.04 63.92,56.7493333 63.888,57.56 C63.872,57.9546667 63.8106667,58.2973333 63.704,58.588 C63.5973333,58.8786667 63.4466667,59.104 63.252,59.264 C63.0573333,59.424 62.816,59.504 62.528,59.504 C62.1013333,59.504 61.796,59.38 61.612,59.132 C61.428,58.884 61.336,58.5626667 61.336,58.168 L61.336,58.168 L61.344,55.568 L60.496,55.568 L60.496,55.888 L60.3848163,55.795102 C60.3001361,55.7317551 60.208381,55.6758095 60.109551,55.6272653 L59.956,55.56 C59.5853333,55.416 59.2266667,55.344 58.88,55.344 C58.4106667,55.344 57.9893333,55.4453333 57.616,55.648 C57.2426667,55.8506667 56.9493333,56.1386667 56.736,56.512 C56.5226667,56.8853333 56.416,57.328 56.416,57.84 C56.416,58.3306667 56.5186667,58.7626667 56.724,59.136 C56.9293333,59.5093333 57.2146667,59.8013333 57.58,60.012 C57.9453333,60.2226667 58.3706667,60.328 58.856,60.328 C59.256,60.328 59.6413333,60.2426667 60.012,60.072 C60.2238095,59.9744762 60.4055782,59.8429932 60.5573061,59.677551 L60.628,59.593 L60.652625,59.636625 C60.7589583,59.809625 60.8952917,59.9592917 61.061625,60.085625 L61.192,60.176 C61.5546667,60.4053333 61.9813333,60.52 62.472,60.52 C63.2293333,60.52 63.82,60.264 64.244,59.752 C64.668,59.24 64.9066667,58.48 64.96,57.472 C64.9973333,56.736 64.9026667,56.024 64.676,55.336 C64.4493333,54.648 64.0906667,54.028 63.6,53.476 C63.1093333,52.924 62.4866667,52.4866667 61.732,52.164 C60.9773333,51.8413333 60.096,51.68 59.088,51.68 C58.208,51.68 57.4,51.8266667 56.664,52.12 C55.928,52.4133333 55.292,52.8306667 54.756,53.372 C54.22,53.9133333 53.8053333,54.556 53.512,55.3 C53.2186667,56.044 53.072,56.8666667 53.072,57.768 C53.072,58.616 53.2226667,59.4 53.524,60.12 C53.8253333,60.84 54.2453333,61.4653333 54.784,61.996 C55.3226667,62.5266667 55.9546667,62.94 56.68,63.236 C57.4053333,63.532 58.1946667,63.68 59.048,63.68 Z M58.92,59.304 C58.472,59.304 58.1173333,59.1773333 57.856,58.924 C57.5946667,58.6706667 57.464,58.3066667 57.464,57.832 C57.464,57.3626667 57.5906667,56.9973333 57.844,56.736 C58.0973333,56.4746667 58.464,56.344 58.944,56.344 C59.3653333,56.344 59.7026667,56.4693333 59.956,56.72 C60.2093333,56.9706667 60.336,57.3413333 60.336,57.832 C60.336,58.3333333 60.204,58.704 59.94,58.944 C59.676,59.184 59.336,59.304 58.92,59.304 Z M68.544,65.84 L68.544,60.969 L68.5785679,61.0137778 C68.7221728,61.1906667 68.8805926,61.3515556 69.0538272,61.4964444 L69.232,61.636 C69.7813333,62.0386667 70.4533333,62.24 71.248,62.24 C72.0533333,62.24 72.7413333,62.0386667 73.312,61.636 C73.8826667,61.2333333 74.32,60.688 74.624,60 C74.928,59.312 75.08,58.536 75.08,57.672 C75.08,56.8133333 74.9293333,56.04 74.628,55.352 C74.3266667,54.664 73.8933333,54.12 73.328,53.72 C72.7626667,53.32 72.0853333,53.12 71.296,53.12 C70.4853333,53.12 69.8026667,53.3173333 69.248,53.712 C68.9398519,53.9312593 68.6732675,54.1953745 68.4482469,54.5043457 L68.416,54.552 L68.416,53.36 L67.36,53.36 L67.36,65.84 L68.544,65.84 Z M71.128,61.144 C70.5146667,61.144 70.008,60.9946667 69.608,60.696 C69.208,60.3973333 68.9093333,59.9853333 68.712,59.46 C68.5146667,58.9346667 68.416,58.3386667 68.416,57.672 C68.416,56.9946667 68.5146667,56.396 68.712,55.876 C68.9093333,55.356 69.2066667,54.9493333 69.604,54.656 C70.0013333,54.3626667 70.5013333,54.216 71.104,54.216 C71.7226667,54.216 72.2333333,54.368 72.636,54.672 C73.0386667,54.976 73.3386667,55.3893333 73.536,55.912 C73.7333333,56.4346667 73.832,57.0213333 73.832,57.672 C73.832,58.328 73.732,58.9186667 73.532,59.444 C73.332,59.9693333 73.032,60.384 72.632,60.688 C72.232,60.992 71.7306667,61.144 71.128,61.144 Z M78.016,62 L78.016,57.392 C78.016,56.9013333 78.072,56.464 78.184,56.08 C78.296,55.696 78.46,55.3693333 78.676,55.1 C78.892,54.8306667 79.1586667,54.624 79.476,54.48 C79.7933333,54.336 80.16,54.264 80.576,54.264 C81.0293333,54.264 81.4146667,54.3466667 81.732,54.512 C82.0493333,54.6773333 82.308,54.9106667 82.508,55.212 C82.708,55.5133333 82.8533333,55.8653333 82.944,56.268 C83.0346667,56.6706667 83.08,57.112 83.08,57.592 L83.08,57.592 L83.08,62 L84.264,62 L84.264,57.248 C84.264,56.8586667 84.2266667,56.468 84.152,56.076 C84.0773333,55.684 83.9573333,55.3133333 83.792,54.964 C83.6266667,54.6146667 83.4093333,54.304 83.14,54.032 C82.8706667,53.76 82.5426667,53.544 82.156,53.384 C81.7693333,53.224 81.3173333,53.144 80.8,53.144 C80.096,53.144 79.472,53.2986667 78.928,53.608 C78.52,53.84 78.178,54.1545 77.902,54.5515 L77.896,54.561 L77.896,50.48 L76.832,50.48 L76.832,62 L78.016,62 Z M89.952,62.24 C90.8053333,62.24 91.5386667,62.048 92.152,61.664 C92.7653333,61.28 93.2346667,60.7453333 93.56,60.06 C93.8853333,59.3746667 94.048,58.5786667 94.048,57.672 C94.048,56.7813333 93.8866667,55.9933333 93.564,55.308 C93.2413333,54.6226667 92.7746667,54.0866667 92.164,53.7 C91.5533333,53.3133333 90.816,53.12 89.952,53.12 C89.1093333,53.12 88.3826667,53.3106667 87.772,53.692 C87.1613333,54.0733333 86.6906667,54.6053333 86.36,55.288 C86.0293333,55.9706667 85.864,56.7653333 85.864,57.672 C85.864,58.5626667 86.0266667,59.352 86.352,60.04 C86.6773333,60.728 87.144,61.2666667 87.752,61.656 C88.36,62.0453333 89.0933333,62.24 89.952,62.24 Z M89.952,61.112 C89.0186667,61.112 88.312,60.7986667 87.832,60.172 C87.352,59.5453333 87.112,58.712 87.112,57.672 C87.112,57 87.2146667,56.4066667 87.42,55.892 C87.6253333,55.3773333 87.9373333,54.9746667 88.356,54.684 C88.7746667,54.3933333 89.3066667,54.248 89.952,54.248 C90.9066667,54.248 91.62,54.5573333 92.092,55.176 C92.564,55.7946667 92.8,56.6266667 92.8,57.672 C92.8,58.6906667 92.5653333,59.5186667 92.096,60.156 C91.6266667,60.7933333 90.912,61.112 89.952,61.112 Z M99.032,62.232 C100.093333,62.232 100.926667,61.9986667 101.532,61.532 C102.137333,61.0653333 102.44,60.424 102.44,59.608 C102.44,59.16 102.344,58.784 102.152,58.48 C101.96,58.176 101.637333,57.912 101.184,57.688 C100.730667,57.464 100.106667,57.2506667 99.312,57.048 C98.6346667,56.8773333 98.1133333,56.72 97.748,56.576 C97.3826667,56.432 97.1306667,56.2786667 96.992,56.116 C96.8533333,55.9533333 96.784,55.7573333 96.784,55.528 C96.784,55.1173333 96.976,54.788 97.36,54.54 C97.744,54.292 98.2426667,54.176 98.856,54.192 C99.5066667,54.2026667 100.044,54.356 100.468,54.652 C100.892,54.948 101.144,55.3493333 101.224,55.856 L101.224,55.856 L102.424,55.64 C102.365333,55.1386667 102.178667,54.6986667 101.864,54.32 C101.549333,53.9413333 101.134667,53.6466667 100.62,53.436 C100.105333,53.2253333 99.5226667,53.12 98.872,53.12 C98.2213333,53.12 97.6506667,53.2226667 97.16,53.428 C96.6693333,53.6333333 96.2853333,53.9213333 96.008,54.292 C95.7306667,54.6626667 95.592,55.0933333 95.592,55.584 C95.592,55.9893333 95.6853333,56.332 95.872,56.612 C96.0586667,56.892 96.3733333,57.1386667 96.816,57.352 C97.2586667,57.5653333 97.872,57.7786667 98.656,57.992 C99.3866667,58.1893333 99.936,58.36 100.304,58.504 C100.672,58.648 100.916,58.804 101.036,58.972 C101.156,59.14 101.216,59.3573333 101.216,59.624 C101.216,60.0986667 101.026667,60.4733333 100.648,60.748 C100.269333,61.0226667 99.752,61.16 99.096,61.16 C98.424,61.16 97.86,61.0146667 97.404,60.724 C96.948,60.4333333 96.656,60.0426667 96.528,59.552 L96.528,59.552 L95.328,59.752 C95.4773333,60.5306667 95.8786667,61.1386667 96.532,61.576 C97.1853333,62.0133333 98.0186667,62.232 99.032,62.232 Z M105.384,65.84 L105.384,60.969 L105.418568,61.0137778 C105.562173,61.1906667 105.720593,61.3515556 105.893827,61.4964444 L106.072,61.636 C106.621333,62.0386667 107.293333,62.24 108.088,62.24 C108.893333,62.24 109.581333,62.0386667 110.152,61.636 C110.722667,61.2333333 111.16,60.688 111.464,60 C111.768,59.312 111.92,58.536 111.92,57.672 C111.92,56.8133333 111.769333,56.04 111.468,55.352 C111.166667,54.664 110.733333,54.12 110.168,53.72 C109.602667,53.32 108.925333,53.12 108.136,53.12 C107.325333,53.12 106.642667,53.3173333 106.088,53.712 C105.779852,53.9312593 105.513267,54.1953745 105.288247,54.5043457 L105.256,54.552 L105.256,53.36 L104.2,53.36 L104.2,65.84 L105.384,65.84 Z M107.968,61.144 C107.354667,61.144 106.848,60.9946667 106.448,60.696 C106.048,60.3973333 105.749333,59.9853333 105.552,59.46 C105.354667,58.9346667 105.256,58.3386667 105.256,57.672 C105.256,56.9946667 105.354667,56.396 105.552,55.876 C105.749333,55.356 106.046667,54.9493333 106.444,54.656 C106.841333,54.3626667 107.341333,54.216 107.944,54.216 C108.562667,54.216 109.073333,54.368 109.476,54.672 C109.878667,54.976 110.178667,55.3893333 110.376,55.912 C110.573333,56.4346667 110.672,57.0213333 110.672,57.672 C110.672,58.328 110.572,58.9186667 110.372,59.444 C110.172,59.9693333 109.872,60.384 109.472,60.688 C109.072,60.992 108.570667,61.144 107.968,61.144 Z M114.856,62 L114.856,57.392 C114.856,56.9013333 114.912,56.464 115.024,56.08 C115.136,55.696 115.3,55.3693333 115.516,55.1 C115.732,54.8306667 115.998667,54.624 116.316,54.48 C116.633333,54.336 117,54.264 117.416,54.264 C117.869333,54.264 118.254667,54.3466667 118.572,54.512 C118.889333,54.6773333 119.148,54.9106667 119.348,55.212 C119.548,55.5133333 119.693333,55.8653333 119.784,56.268 C119.874667,56.6706667 119.92,57.112 119.92,57.592 L119.92,57.592 L119.92,62 L121.104,62 L121.104,57.248 C121.104,56.8586667 121.066667,56.468 120.992,56.076 C120.917333,55.684 120.797333,55.3133333 120.632,54.964 C120.466667,54.6146667 120.249333,54.304 119.98,54.032 C119.710667,53.76 119.382667,53.544 118.996,53.384 C118.609333,53.224 118.157333,53.144 117.64,53.144 C116.936,53.144 116.312,53.2986667 115.768,53.608 C115.36,53.84 115.018,54.1545 114.742,54.5515 L114.736,54.56 L114.736,50.48 L113.672,50.48 L113.672,62 L114.856,62 Z M126.792,62.24 C127.645333,62.24 128.378667,62.048 128.992,61.664 C129.605333,61.28 130.074667,60.7453333 130.4,60.06 C130.725333,59.3746667 130.888,58.5786667 130.888,57.672 C130.888,56.7813333 130.726667,55.9933333 130.404,55.308 C130.081333,54.6226667 129.614667,54.0866667 129.004,53.7 C128.393333,53.3133333 127.656,53.12 126.792,53.12 C125.949333,53.12 125.222667,53.3106667 124.612,53.692 C124.001333,54.0733333 123.530667,54.6053333 123.2,55.288 C122.869333,55.9706667 122.704,56.7653333 122.704,57.672 C122.704,58.5626667 122.866667,59.352 123.192,60.04 C123.517333,60.728 123.984,61.2666667 124.592,61.656 C125.2,62.0453333 125.933333,62.24 126.792,62.24 Z M126.792,61.112 C125.858667,61.112 125.152,60.7986667 124.672,60.172 C124.192,59.5453333 123.952,58.712 123.952,57.672 C123.952,57 124.054667,56.4066667 124.26,55.892 C124.465333,55.3773333 124.777333,54.9746667 125.196,54.684 C125.614667,54.3933333 126.146667,54.248 126.792,54.248 C127.746667,54.248 128.46,54.5573333 128.932,55.176 C129.404,55.7946667 129.64,56.6266667 129.64,57.672 C129.64,58.6906667 129.405333,59.5186667 128.936,60.156 C128.466667,60.7933333 127.752,61.112 126.792,61.112 Z M133.824,62 L133.824,57.688 C133.824,57.3466667 133.848,57.0013333 133.896,56.652 C133.944,56.3026667 134.04,55.972 134.184,55.66 C134.328,55.348 134.544,55.08 134.832,54.856 C135.146667,54.6 135.490667,54.4506667 135.864,54.408 C136.237333,54.3653333 136.581333,54.384 136.896,54.464 L136.896,54.464 L136.896,53.36 C136.645333,53.296 136.368,53.2733333 136.064,53.292 C135.76,53.3106667 135.458667,53.372 135.16,53.476 C134.861333,53.58 134.6,53.7306667 134.376,53.928 C134.194667,54.0666667 134.026667,54.244 133.872,54.46 C133.833333,54.514 133.7965,54.56925 133.7615,54.62575 L133.704,54.726 L133.704,53.36 L132.648,53.36 L132.648,62 L133.824,62 Z M139.752,51.72 L139.752,50.4 L138.576,50.4 L138.576,51.72 L139.752,51.72 Z M139.752,62 L139.752,53.36 L138.576,53.36 L138.576,62 L139.752,62 Z M145.736,62.24 C146.594667,62.24 147.333333,62.0386667 147.952,61.636 C148.570667,61.2333333 149.04,60.648 149.36,59.88 L149.36,59.88 L148.176,59.528 C147.962667,60.0453333 147.649333,60.4386667 147.236,60.708 C146.822667,60.9773333 146.322667,61.112 145.736,61.112 C144.808,61.112 144.109333,60.7986667 143.64,60.172 C143.170667,59.5453333 142.930667,58.7146667 142.92,57.68 C142.925333,57.008 143.029333,56.4133333 143.232,55.896 C143.434667,55.3786667 143.744,54.9746667 144.16,54.684 C144.576,54.3933333 145.101333,54.248 145.736,54.248 C146.301333,54.248 146.804,54.3906667 147.244,54.676 C147.684,54.9613333 148.005333,55.3626667 148.208,55.88 L148.208,55.88 L149.36,55.512 C149.12,54.7706667 148.676,54.1866667 148.028,53.76 C147.38,53.3333333 146.618667,53.12 145.744,53.12 C144.885333,53.12 144.154667,53.3106667 143.552,53.692 C142.949333,54.0733333 142.488,54.6066667 142.168,55.292 C141.848,55.9773333 141.682667,56.7733333 141.672,57.68 C141.682667,58.5706667 141.844,59.3586667 142.156,60.044 C142.468,60.7293333 142.925333,61.2666667 143.528,61.656 C144.130667,62.0453333 144.866667,62.24 145.736,62.24 Z M154.616,62.24 C155.469333,62.24 156.202667,62.048 156.816,61.664 C157.429333,61.28 157.898667,60.7453333 158.224,60.06 C158.549333,59.3746667 158.712,58.5786667 158.712,57.672 C158.712,56.7813333 158.550667,55.9933333 158.228,55.308 C157.905333,54.6226667 157.438667,54.0866667 156.828,53.7 C156.217333,53.3133333 155.48,53.12 154.616,53.12 C153.773333,53.12 153.046667,53.3106667 152.436,53.692 C151.825333,54.0733333 151.354667,54.6053333 151.024,55.288 C150.693333,55.9706667 150.528,56.7653333 150.528,57.672 C150.528,58.5626667 150.690667,59.352 151.016,60.04 C151.341333,60.728 151.808,61.2666667 152.416,61.656 C153.024,62.0453333 153.757333,62.24 154.616,62.24 Z M154.616,61.112 C153.682667,61.112 152.976,60.7986667 152.496,60.172 C152.016,59.5453333 151.776,58.712 151.776,57.672 C151.776,57 151.878667,56.4066667 152.084,55.892 C152.289333,55.3773333 152.601333,54.9746667 153.02,54.684 C153.438667,54.3933333 153.970667,54.248 154.616,54.248 C155.570667,54.248 156.284,54.5573333 156.756,55.176 C157.228,55.7946667 157.464,56.6266667 157.464,57.672 C157.464,58.6906667 157.229333,59.5186667 156.76,60.156 C156.290667,60.7933333 155.576,61.112 154.616,61.112 Z M161.648,62 L161.648,57.392 C161.648,56.9013333 161.704,56.464 161.816,56.08 C161.928,55.696 162.092,55.3693333 162.308,55.1 C162.524,54.8306667 162.790667,54.624 163.108,54.48 C163.425333,54.336 163.792,54.264 164.208,54.264 C164.661333,54.264 165.046667,54.3466667 165.364,54.512 C165.681333,54.6773333 165.94,54.9106667 166.14,55.212 C166.34,55.5133333 166.485333,55.8653333 166.576,56.268 C166.666667,56.6706667 166.712,57.112 166.712,57.592 L166.712,57.592 L166.712,62 L167.896,62 L167.896,57.248 C167.896,56.8586667 167.858667,56.468 167.784,56.076 C167.709333,55.684 167.589333,55.3133333 167.424,54.964 C167.258667,54.6146667 167.041333,54.304 166.772,54.032 C166.502667,53.76 166.174667,53.544 165.788,53.384 C165.401333,53.224 164.949333,53.144 164.432,53.144 C163.728,53.144 163.104,53.2986667 162.56,53.608 C162.152,53.84 161.81,54.1545 161.534,54.5515 L161.528,54.561 L161.528,53.36 L160.464,53.36 L160.464,62 L161.648,62 Z M173.2,62.232 C174.261333,62.232 175.094667,61.9986667 175.7,61.532 C176.305333,61.0653333 176.608,60.424 176.608,59.608 C176.608,59.16 176.512,58.784 176.32,58.48 C176.128,58.176 175.805333,57.912 175.352,57.688 C174.898667,57.464 174.274667,57.2506667 173.48,57.048 C172.802667,56.8773333 172.281333,56.72 171.916,56.576 C171.550667,56.432 171.298667,56.2786667 171.16,56.116 C171.021333,55.9533333 170.952,55.7573333 170.952,55.528 C170.952,55.1173333 171.144,54.788 171.528,54.54 C171.912,54.292 172.410667,54.176 173.024,54.192 C173.674667,54.2026667 174.212,54.356 174.636,54.652 C175.06,54.948 175.312,55.3493333 175.392,55.856 L175.392,55.856 L176.592,55.64 C176.533333,55.1386667 176.346667,54.6986667 176.032,54.32 C175.717333,53.9413333 175.302667,53.6466667 174.788,53.436 C174.273333,53.2253333 173.690667,53.12 173.04,53.12 C172.389333,53.12 171.818667,53.2226667 171.328,53.428 C170.837333,53.6333333 170.453333,53.9213333 170.176,54.292 C169.898667,54.6626667 169.76,55.0933333 169.76,55.584 C169.76,55.9893333 169.853333,56.332 170.04,56.612 C170.226667,56.892 170.541333,57.1386667 170.984,57.352 C171.426667,57.5653333 172.04,57.7786667 172.824,57.992 C173.554667,58.1893333 174.104,58.36 174.472,58.504 C174.84,58.648 175.084,58.804 175.204,58.972 C175.324,59.14 175.384,59.3573333 175.384,59.624 C175.384,60.0986667 175.194667,60.4733333 174.816,60.748 C174.437333,61.0226667 173.92,61.16 173.264,61.16 C172.592,61.16 172.028,61.0146667 171.572,60.724 C171.116,60.4333333 170.824,60.0426667 170.696,59.552 L170.696,59.552 L169.496,59.752 C169.645333,60.5306667 170.046667,61.1386667 170.7,61.576 C171.353333,62.0133333 172.186667,62.232 173.2,62.232 Z M179.968,62 L179.968,60.632 L178.6,60.632 L178.6,62 L179.968,62 Z M186.016,62.24 C186.874667,62.24 187.613333,62.0386667 188.232,61.636 C188.850667,61.2333333 189.32,60.648 189.64,59.88 L189.64,59.88 L188.456,59.528 C188.242667,60.0453333 187.929333,60.4386667 187.516,60.708 C187.102667,60.9773333 186.602667,61.112 186.016,61.112 C185.088,61.112 184.389333,60.7986667 183.92,60.172 C183.450667,59.5453333 183.210667,58.7146667 183.2,57.68 C183.205333,57.008 183.309333,56.4133333 183.512,55.896 C183.714667,55.3786667 184.024,54.9746667 184.44,54.684 C184.856,54.3933333 185.381333,54.248 186.016,54.248 C186.581333,54.248 187.084,54.3906667 187.524,54.676 C187.964,54.9613333 188.285333,55.3626667 188.488,55.88 L188.488,55.88 L189.64,55.512 C189.4,54.7706667 188.956,54.1866667 188.308,53.76 C187.66,53.3333333 186.898667,53.12 186.024,53.12 C185.165333,53.12 184.434667,53.3106667 183.832,53.692 C183.229333,54.0733333 182.768,54.6066667 182.448,55.292 C182.128,55.9773333 181.962667,56.7733333 181.952,57.68 C181.962667,58.5706667 182.124,59.3586667 182.436,60.044 C182.748,60.7293333 183.205333,61.2666667 183.808,61.656 C184.410667,62.0453333 185.146667,62.24 186.016,62.24 Z M194.896,62.24 C195.749333,62.24 196.482667,62.048 197.096,61.664 C197.709333,61.28 198.178667,60.7453333 198.504,60.06 C198.829333,59.3746667 198.992,58.5786667 198.992,57.672 C198.992,56.7813333 198.830667,55.9933333 198.508,55.308 C198.185333,54.6226667 197.718667,54.0866667 197.108,53.7 C196.497333,53.3133333 195.76,53.12 194.896,53.12 C194.053333,53.12 193.326667,53.3106667 192.716,53.692 C192.105333,54.0733333 191.634667,54.6053333 191.304,55.288 C190.973333,55.9706667 190.808,56.7653333 190.808,57.672 C190.808,58.5626667 190.970667,59.352 191.296,60.04 C191.621333,60.728 192.088,61.2666667 192.696,61.656 C193.304,62.0453333 194.037333,62.24 194.896,62.24 Z M194.896,61.112 C193.962667,61.112 193.256,60.7986667 192.776,60.172 C192.296,59.5453333 192.056,58.712 192.056,57.672 C192.056,57 192.158667,56.4066667 192.364,55.892 C192.569333,55.3773333 192.881333,54.9746667 193.3,54.684 C193.718667,54.3933333 194.250667,54.248 194.896,54.248 C195.850667,54.248 196.564,54.5573333 197.036,55.176 C197.508,55.7946667 197.744,56.6266667 197.744,57.672 C197.744,58.6906667 197.509333,59.5186667 197.04,60.156 C196.570667,60.7933333 195.856,61.112 194.896,61.112 Z M201.928,62 L201.928,56.424 C201.928,55.7466667 202.112,55.204 202.48,54.796 C202.848,54.388 203.330667,54.184 203.928,54.184 C204.525333,54.184 205.006667,54.3826667 205.372,54.78 C205.737333,55.1773333 205.92,55.72 205.92,56.408 L205.92,56.408 L205.912,62 L207.072,62 L207.08,56.424 C207.08,55.8906667 207.18,55.4586667 207.38,55.128 C207.58,54.7973333 207.834667,54.5573333 208.144,54.408 C208.453333,54.2586667 208.770667,54.184 209.096,54.184 C209.666667,54.184 210.137333,54.3746667 210.508,54.756 C210.878667,55.1373333 211.064,55.6613333 211.064,56.328 L211.064,56.328 L211.056,62 L212.232,62 L212.24,56.104 C212.24,55.192 211.978667,54.468 211.456,53.932 C210.933333,53.396 210.237333,53.128 209.368,53.128 C208.792,53.128 208.276,53.2573333 207.82,53.516 C207.364,53.7746667 207.006667,54.136 206.748,54.6 L206.754,54.589 L206.712,54.504 C206.501714,54.12 206.223837,53.8143673 205.878367,53.587102 L205.7,53.48 C205.270667,53.2453333 204.781333,53.128 204.232,53.128 C203.656,53.128 203.141333,53.2546667 202.688,53.508 C202.36419,53.6889524 202.089361,53.9175238 201.86351,54.1937143 L201.8,54.277 L201.8,53.36 L200.744,53.36 L200.744,62 L201.928,62 Z" id="entry" fill="#FFFFFF" fill-rule="nonzero"></path>
                        <path d="M8.32,12 L8.32,10.872 L2.296,10.872 L2.296,6.72 L7.36,6.72 L7.36,5.592 L2.296,5.592 L2.296,1.608 L8.32,1.608 L8.32,0.48 L1.12,0.48 L1.12,12 L8.32,12 Z M11.416,12 L11.416,6.424 C11.416,5.74666667 11.6,5.204 11.968,4.796 C12.336,4.388 12.8186667,4.184 13.416,4.184 C14.0133333,4.184 14.4946667,4.38266667 14.86,4.78 C15.2253333,5.17733333 15.408,5.72 15.408,6.408 L15.408,6.408 L15.4,12 L16.56,12 L16.568,6.424 C16.568,5.89066667 16.668,5.45866667 16.868,5.128 C17.068,4.79733333 17.3226667,4.55733333 17.632,4.408 C17.9413333,4.25866667 18.2586667,4.184 18.584,4.184 C19.1546667,4.184 19.6253333,4.37466667 19.996,4.756 C20.3666667,5.13733333 20.552,5.66133333 20.552,6.328 L20.552,6.328 L20.544,12 L21.72,12 L21.728,6.104 C21.728,5.192 21.4666667,4.468 20.944,3.932 C20.4213333,3.396 19.7253333,3.128 18.856,3.128 C18.28,3.128 17.764,3.25733333 17.308,3.516 C16.852,3.77466667 16.4946667,4.136 16.236,4.6 L16.242,4.589 L16.2,4.504 C15.9897143,4.12 15.7118367,3.81436735 15.3663673,3.58710204 L15.188,3.48 C14.7586667,3.24533333 14.2693333,3.128 13.72,3.128 C13.144,3.128 12.6293333,3.25466667 12.176,3.508 C11.8521905,3.68895238 11.5773605,3.91752381 11.3515102,4.19371429 L11.288,4.277 L11.288,3.36 L10.232,3.36 L10.232,12 L11.416,12 Z M26.28,12.24 C27.144,12.24 27.8853333,12.0453333 28.504,11.656 C28.9164444,11.3964444 29.2565926,11.0586667 29.5244444,10.6426667 L29.568,10.569 L29.568,12 L30.616,12 L30.616,6.632 C30.616,6.312 30.6,5.99733333 30.568,5.688 C30.536,5.37866667 30.4666667,5.09866667 30.36,4.848 C30.1306667,4.288 29.74,3.86 29.188,3.564 C28.636,3.268 27.9653333,3.12 27.176,3.12 C26.2213333,3.12 25.4453333,3.33333333 24.848,3.76 C24.2506667,4.18666667 23.8533333,4.78666667 23.656,5.56 L23.656,5.56 L24.8,5.896 C24.9653333,5.32 25.252,4.89866667 25.66,4.632 C26.068,4.36533333 26.568,4.232 27.16,4.232 C28.0186667,4.232 28.6213333,4.43733333 28.968,4.848 C29.3146667,5.25866667 29.48,5.89066667 29.464,6.744 L29.463,6.549 L29.38912,6.55904 C29.2154667,6.58293333 29.0317867,6.60704 28.83808,6.63136 L28.54,6.668 C28.0306667,6.72933333 27.5106667,6.80133333 26.98,6.884 C26.4493333,6.96666667 25.9653333,7.06133333 25.528,7.168 C25.096,7.28 24.716,7.44266667 24.388,7.656 C24.06,7.86933333 23.8013333,8.14266667 23.612,8.476 C23.4226667,8.80933333 23.328,9.21066667 23.328,9.68 C23.328,10.1386667 23.4373333,10.5626667 23.656,10.952 C23.8746667,11.3413333 24.204,11.6533333 24.644,11.888 C25.084,12.1226667 25.6293333,12.24 26.28,12.24 Z M26.416,11.224 C25.952,11.224 25.58,11.1466667 25.3,10.992 C25.02,10.8373333 24.8173333,10.6426667 24.692,10.408 C24.5666667,10.1733333 24.504,9.93066667 24.504,9.68 C24.504,9.37066667 24.5773333,9.112 24.724,8.904 C24.8706667,8.696 25.0586667,8.52933333 25.288,8.404 C25.5173333,8.27866667 25.7546667,8.18133333 26,8.112 C26.3626667,8.016 26.7693333,7.93333333 27.22,7.864 C27.6706667,7.79466667 28.1293333,7.73333333 28.596,7.68 C28.8293333,7.65333333 29.0543333,7.62666667 29.271,7.6 L29.446,7.578 L29.44512,7.67632 C29.44448,7.72954667 29.4437333,7.78613333 29.44288,7.84608 L29.44,8.036 C29.4346667,8.36933333 29.4,8.67466667 29.336,8.952 C29.2613333,9.384 29.0986667,9.772 28.848,10.116 C28.5973333,10.46 28.2666667,10.7306667 27.856,10.928 C27.4453333,11.1253333 26.9653333,11.224 26.416,11.224 Z M34.032,1.72 L34.032,0.4 L32.856,0.4 L32.856,1.72 L34.032,1.72 Z M34.032,12 L34.032,3.36 L32.856,3.36 L32.856,12 L34.032,12 Z M37.768,12 L37.768,0.24 L36.592,0.24 L36.592,12 L37.768,12 Z" fill="#FFFFFF" fill-rule="nonzero"></path>
                    </g>
                    <path d="M6.19096396,29.4677284 L6.19096396,16.4677284 L22.110964,16.4677284 L22.110964,29.4677284 L25.030964,29.4677284 L25.030964,0.667728416 L22.110964,0.667728416 L22.110964,13.6477284 L6.19096396,13.6477284 L6.19096396,0.667728416 L3.25096396,0.667728416 L3.25096396,29.4677284 L6.19096396,29.4677284 Z M49.590964,19.4877284 C49.6576306,16.9543951 49.3042973,14.7743951 48.530964,12.9477284 C47.7576306,11.1210617 46.6176306,9.71772842 45.110964,8.73772842 C43.6042973,7.75772842 41.7842973,7.26772842 39.650964,7.26772842 C37.570964,7.26772842 35.7676306,7.73439508 34.240964,8.66772842 C32.7142973,9.60106175 31.530964,10.9277284 30.690964,12.6477284 C29.850964,14.3677284 29.430964,16.4077284 29.430964,18.7677284 C29.430964,21.0477284 29.8576306,23.0343951 30.710964,24.7277284 C31.5642973,26.4210617 32.760964,27.7343951 34.300964,28.6677284 C35.840964,29.6010617 37.6642973,30.0677284 39.770964,30.0677284 C41.8642973,30.0677284 43.740964,29.5510617 45.400964,28.5177284 C47.060964,27.4843951 48.3176306,26.0277284 49.170964,24.1477284 L49.170964,24.1477284 L46.430964,23.0877284 C45.7642973,24.4343951 44.8542973,25.4643951 43.700964,26.1777284 C42.5476306,26.8910617 41.1976306,27.2477284 39.650964,27.2477284 C37.3842973,27.2477284 35.6342973,26.4977284 34.400964,24.9977284 C33.3526306,23.7227284 32.749839,22.0070034 32.592589,19.8505534 L32.569964,19.4877284 L48.010964,19.4877284 L49.590964,19.4877284 Z M46.509964,17.0287284 L32.629964,17.0287284 L32.6558392,16.7860958 C32.8655898,15.0133066 33.3899662,13.5670481 34.2289685,12.4473203 L34.400964,12.2277284 C35.6342973,10.7210617 37.410964,9.96772842 39.730964,9.96772842 C41.9442973,9.96772842 43.6276306,10.6810617 44.780964,12.1077284 C45.7146148,13.2626491 46.2878347,14.8675621 46.5006238,16.9224676 L46.509964,17.0287284 Z M57.350964,29.4677284 L57.350964,0.0677284158 L54.410964,0.0677284158 L54.410964,29.4677284 L57.350964,29.4677284 Z M66.690964,29.4677284 L66.690964,0.0677284158 L63.750964,0.0677284158 L63.750964,29.4677284 L66.690964,29.4677284 Z M81.710964,30.0677284 C83.8442973,30.0677284 85.6776306,29.5877284 87.210964,28.6277284 C88.7442973,27.6677284 89.9176306,26.3310617 90.730964,24.6177284 C91.5442973,22.9043951 91.950964,20.9143951 91.950964,18.6477284 C91.950964,16.4210617 91.5476306,14.4510617 90.740964,12.7377284 C89.9342973,11.0243951 88.7676306,9.68439508 87.240964,8.71772842 C85.7142973,7.75106175 83.870964,7.26772842 81.710964,7.26772842 C79.6042973,7.26772842 77.7876306,7.74439508 76.260964,8.69772842 C74.7342973,9.65106175 73.5576306,10.9810617 72.730964,12.6877284 C71.9042973,14.3943951 71.490964,16.3810617 71.490964,18.6477284 C71.490964,20.8743951 71.8976306,22.8477284 72.710964,24.5677284 C73.5242973,26.2877284 74.690964,27.6343951 76.210964,28.6077284 C77.730964,29.5810617 79.5642973,30.0677284 81.710964,30.0677284 Z M81.710964,27.2477284 C79.3776306,27.2477284 77.610964,26.4643951 76.410964,24.8977284 C75.210964,23.3310617 74.610964,21.2477284 74.610964,18.6477284 C74.610964,16.9677284 74.8676306,15.4843951 75.380964,14.1977284 C75.8942973,12.9110617 76.6742973,11.9043951 77.720964,11.1777284 C78.7676306,10.4510617 80.0976306,10.0877284 81.710964,10.0877284 C84.0976306,10.0877284 85.880964,10.8610617 87.060964,12.4077284 C88.240964,13.9543951 88.830964,16.0343951 88.830964,18.6477284 C88.830964,21.1943951 88.2442973,23.2643951 87.070964,24.8577284 C85.8976306,26.4510617 84.110964,27.2477284 81.710964,27.2477284 Z M95.950964,33.6477284 C96.990964,33.8477284 97.820964,33.6410617 98.440964,33.0277284 C99.060964,32.4143951 99.370964,31.4943951 99.370964,30.2677284 L99.370964,30.2677284 L99.370964,25.2477284 L95.950964,25.2477284 L95.950964,29.4677284 L97.770964,29.4677284 C97.7976306,29.9610617 97.7842973,30.4210617 97.730964,30.8477284 C97.6776306,31.2743951 97.530964,31.6143951 97.290964,31.8677284 C97.050964,32.1210617 96.6642973,32.2277284 96.130964,32.1877284 L96.130964,32.1877284 L95.950964,33.6477284 Z M120.050964,29.4677284 L120.050964,10.3877284 L125.950964,10.3877284 L125.950964,7.86772842 L120.050964,7.86772842 L120.050964,5.94772842 C120.050964,4.86465149 120.286704,4.04855682 120.758183,3.49944439 L120.880964,3.36772842 C121.434297,2.82106175 122.270964,2.54772842 123.390964,2.54772842 L123.390964,2.54772842 L125.950964,2.54772842 L125.950964,0.0677284158 L123.190964,0.0677284158 C122.644297,0.0677284158 122.087631,0.101061749 121.520964,0.167728416 C120.954297,0.234395082 120.410964,0.377728416 119.890964,0.597728416 C119.370964,0.817728416 118.890964,1.16772842 118.450964,1.64772842 C118.050964,2.07439508 117.757631,2.53772842 117.570964,3.03772842 C117.384297,3.53772842 117.260964,4.06106175 117.200964,4.60772842 C117.140964,5.15439508 117.110964,5.70772842 117.110964,6.26772842 L117.110964,6.26772842 L117.110964,7.86772842 L113.370964,7.86772842 L113.370964,10.3877284 L117.110964,10.3877284 L117.110964,29.4677284 L120.050964,29.4677284 Z M132.090964,29.4677284 L132.090964,18.6877284 C132.090964,17.8343951 132.150964,16.9710617 132.270964,16.0977284 C132.390964,15.2243951 132.630964,14.3977284 132.990964,13.6177284 C133.350964,12.8377284 133.890964,12.1677284 134.610964,11.6077284 C135.397631,10.9677284 136.257631,10.5943951 137.190964,10.4877284 C138.124297,10.3810617 138.984297,10.4277284 139.770964,10.6277284 L139.770964,10.6277284 L139.770964,7.86772842 C139.144297,7.70772842 138.450964,7.65106175 137.690964,7.69772842 C136.930964,7.74439508 136.177631,7.89772842 135.430964,8.15772842 C134.684297,8.41772842 134.030964,8.79439508 133.470964,9.28772842 C133.017631,9.63439508 132.597631,10.0777284 132.210964,10.6177284 C132.082075,10.7977284 131.961334,10.983284 131.848742,11.1743951 L131.790964,11.2767284 L131.790964,7.86772842 L129.150964,7.86772842 L129.150964,29.4677284 L132.090964,29.4677284 Z M146.910964,3.76772842 L146.910964,0.467728416 L143.970964,0.467728416 L143.970964,3.76772842 L146.910964,3.76772842 Z M146.910964,29.4677284 L146.910964,7.86772842 L143.970964,7.86772842 L143.970964,29.4677284 L146.910964,29.4677284 Z M171.870964,19.4877284 C171.937631,16.9543951 171.584297,14.7743951 170.810964,12.9477284 C170.037631,11.1210617 168.897631,9.71772842 167.390964,8.73772842 C165.884297,7.75772842 164.064297,7.26772842 161.930964,7.26772842 C159.850964,7.26772842 158.047631,7.73439508 156.520964,8.66772842 C154.994297,9.60106175 153.810964,10.9277284 152.970964,12.6477284 C152.130964,14.3677284 151.710964,16.4077284 151.710964,18.7677284 C151.710964,21.0477284 152.137631,23.0343951 152.990964,24.7277284 C153.844297,26.4210617 155.040964,27.7343951 156.580964,28.6677284 C158.120964,29.6010617 159.944297,30.0677284 162.050964,30.0677284 C164.144297,30.0677284 166.020964,29.5510617 167.680964,28.5177284 C169.340964,27.4843951 170.597631,26.0277284 171.450964,24.1477284 L171.450964,24.1477284 L168.710964,23.0877284 C168.044297,24.4343951 167.134297,25.4643951 165.980964,26.1777284 C164.827631,26.8910617 163.477631,27.2477284 161.930964,27.2477284 C159.664297,27.2477284 157.914297,26.4977284 156.680964,24.9977284 C155.632631,23.7227284 155.029839,22.0070034 154.872589,19.8505534 L154.849964,19.4877284 L170.290964,19.4877284 L171.870964,19.4877284 Z M168.789964,17.0287284 L154.909964,17.0287284 L154.935839,16.7860958 C155.14559,15.0133066 155.669966,13.5670481 156.508968,12.4473203 L156.680964,12.2277284 C157.914297,10.7210617 159.690964,9.96772842 162.010964,9.96772842 C164.224297,9.96772842 165.907631,10.6810617 167.060964,12.1077284 C167.994615,13.2626491 168.567835,14.8675621 168.780624,16.9224676 L168.789964,17.0287284 Z M179.230964,29.4677284 L179.230964,17.9477284 C179.230964,16.7210617 179.370964,15.6277284 179.650964,14.6677284 C179.930964,13.7077284 180.340964,12.8910617 180.880964,12.2177284 C181.420964,11.5443951 182.087631,11.0277284 182.880964,10.6677284 C183.674297,10.3077284 184.590964,10.1277284 185.630964,10.1277284 C186.764297,10.1277284 187.727631,10.3343951 188.520964,10.7477284 C189.314297,11.1610617 189.960964,11.7443951 190.460964,12.4977284 C190.960964,13.2510617 191.324297,14.1310617 191.550964,15.1377284 C191.777631,16.1443951 191.890964,17.2477284 191.890964,18.4477284 L191.890964,18.4477284 L191.890964,29.4677284 L194.850964,29.4677284 L194.850964,17.5877284 C194.850964,16.6143951 194.757631,15.6377284 194.570964,14.6577284 C194.384297,13.6777284 194.084297,12.7510617 193.670964,11.8777284 C193.257631,11.0043951 192.714297,10.2277284 192.040964,9.54772842 C191.367631,8.86772842 190.547631,8.32772842 189.580964,7.92772842 C188.614297,7.52772842 187.484297,7.32772842 186.190964,7.32772842 C184.430964,7.32772842 182.870964,7.71439508 181.510964,8.48772842 C180.539535,9.04010937 179.717767,9.77956515 179.045658,10.7060958 L178.930964,10.8707284 L178.930964,7.86772842 L176.270964,7.86772842 L176.270964,29.4677284 L179.230964,29.4677284 Z M208.430964,30.0677284 C210.417631,30.0677284 212.097631,29.5643951 213.470964,28.5577284 C214.203408,28.0208395 214.841038,27.3815506 215.383853,26.6398617 L215.509964,26.4607284 L215.510964,29.4677284 L218.150964,29.4677284 L218.150964,0.667728416 L215.190964,0.667728416 L215.189964,10.4157284 L215.152342,10.3664395 C214.723364,9.83612842 214.24052,9.36395064 213.703808,8.94990619 L213.430964,8.74772842 C212.044297,7.76106175 210.337631,7.26772842 208.310964,7.26772842 C206.337631,7.26772842 204.644297,7.76772842 203.230964,8.76772842 C201.817631,9.76772842 200.734297,11.1277284 199.980964,12.8477284 C199.227631,14.5677284 198.850964,16.5010617 198.850964,18.6477284 C198.850964,20.8077284 199.230964,22.7477284 199.990964,24.4677284 C200.750964,26.1877284 201.844297,27.5510617 203.270964,28.5577284 C204.697631,29.5643951 206.417631,30.0677284 208.430964,30.0677284 Z M208.730964,27.3277284 C207.224297,27.3277284 205.970964,26.9477284 204.970964,26.1877284 C203.970964,25.4277284 203.220964,24.3910617 202.720964,23.0777284 C202.220964,21.7643951 201.970964,20.2877284 201.970964,18.6477284 C201.970964,17.0210617 202.214297,15.5543951 202.700964,14.2477284 C203.187631,12.9410617 203.937631,11.9077284 204.950964,11.1477284 C205.964297,10.3877284 207.244297,10.0077284 208.790964,10.0077284 C210.297631,10.0077284 211.547631,10.3743951 212.540964,11.1077284 C213.534297,11.8410617 214.277631,12.8577284 214.770964,14.1577284 C215.264297,15.4577284 215.510964,16.9543951 215.510964,18.6477284 C215.510964,20.3143951 215.264297,21.8043951 214.770964,23.1177284 C214.277631,24.4310617 213.530964,25.4610617 212.530964,26.2077284 C211.530964,26.9543951 210.264297,27.3277284 208.730964,27.3277284 Z M227.730964,29.4677284 L227.730964,26.0477284 L224.310964,26.0477284 L224.310964,29.4677284 L227.730964,29.4677284 Z" id="Hello,friend." fill="#FFFFFF" fill-rule="nonzero"></path>
                </g>
                <g id="status-bar" transform="translate(24.000000, 17.000000)" fill="#FFFFFF" fill-rule="nonzero">
                    <path d="M262.125733,1 C262.125733,0.587977341 262.596115,0.352786405 262.925733,0.6 L262.925733,0.6 L266.925733,3.6 C267.1924,3.8 267.1924,4.2 266.925733,4.4 L266.925733,4.4 L263.458733,6.99909221 L266.925733,9.6 C267.165733,9.78 267.189733,10.122 266.997733,10.3344 L266.925733,10.4 L262.925733,13.4 C262.596115,13.6472136 262.125733,13.4120227 262.125733,13 L262.125733,13 L262.125733,7.99909221 L258.925733,10.4 C258.70482,10.5656854 258.391419,10.5209139 258.225733,10.3 C258.078458,10.1036321 258.097469,9.83418821 258.258666,9.66036991 L258.325733,9.6 L261.792733,6.99909221 L258.325733,4.4 C258.10482,4.23431458 258.060048,3.9209139 258.225733,3.7 C258.373009,3.50363209 258.636999,3.4464384 258.849,3.55251916 L258.925733,3.6 L262.125733,5.99909221 Z M243.125733,1.0002 C246.439876,1.0002 249.125733,3.68605763 249.125733,7.0002 C249.125733,10.3143424 246.439876,13.0002 243.125733,13.0002 C239.811591,13.0002 237.125733,10.3143424 237.125733,7.0002 C237.125733,3.68605763 239.811591,1.0002 243.125733,1.0002 Z M296.836036,13 C295.945413,13 295.5001,11.9238268 296.129465,11.2924638 L296.129465,11.2924638 L306.421483,0.999446609 C307.051478,0.369451692 308.129036,0.816564971 308.129036,1.707 L308.129036,1.707 L308.129036,12 C308.129036,12.5521424 307.681178,13 307.129036,13 L307.129036,13 Z M283.125333,10.7504 C283.539333,10.7504 283.875333,11.0864 283.875333,11.5004 C283.875333,11.9144 283.539333,12.2504 283.125333,12.2504 C282.710333,12.2504 282.375333,11.9144 282.375333,11.5004 C282.375333,11.0864 282.710333,10.7504 283.125333,10.7504 Z M327.125733,2.0005 C327.954144,2.0005 328.625733,2.67162557 328.625733,3.5005 L328.625733,3.5005 L328.625733,10.5005 C328.625733,11.3286424 327.953876,12.0005 327.125733,12.0005 L327.125733,12.0005 L317.625733,12.0005 C316.797591,12.0005 316.125733,11.3286424 316.125733,10.5005 L316.125733,10.5005 L316.125733,3.5005 C316.125733,2.67162557 316.797323,2.0005 317.625733,2.0005 L317.625733,2.0005 Z M243.125733,2.0002 C240.363876,2.0002 238.125733,4.23834237 238.125733,7.0002 C238.125733,9.76205763 240.363876,12.0002 243.125733,12.0002 C245.887591,12.0002 248.125733,9.76205763 248.125733,7.0002 C248.125733,4.23834237 245.887591,2.0002 243.125733,2.0002 Z M263.125733,8 L263.125733,12 L265.792733,10 L263.125733,8 Z M307.129036,1.707 L304.628733,4.20609221 L304.628733,11.9990922 L307.129036,12 L307.129036,1.707 Z M327.125733,3.0005 L317.625733,3.0005 C317.349453,3.0005 317.125733,3.22406503 317.125733,3.5005 L317.125733,3.5005 L317.125733,10.5005 C317.125733,10.7763576 317.349876,11.0005 317.625733,11.0005 L317.625733,11.0005 L327.125733,11.0005 C327.401591,11.0005 327.625733,10.7763576 327.625733,10.5005 L327.625733,10.5005 L327.625733,3.5005 C327.625733,3.22406503 327.402014,3.0005 327.125733,3.0005 L327.125733,3.0005 Z M322.125733,4 C322.401876,4 322.625733,4.22385763 322.625733,4.5 L322.625733,4.5 L322.625733,9.5 C322.625733,9.77614237 322.401876,10 322.125733,10 L322.125733,10 L318.625733,10 C318.349591,10 318.125733,9.77614237 318.125733,9.5 L318.125733,9.5 L318.125733,4.5 C318.125733,4.22385763 318.349591,4 318.625733,4 L318.625733,4 Z M283.125033,8.0004 C284.088349,8.0004 284.993806,8.37088354 285.664445,9.01880973 C285.863041,9.21067988 285.868494,9.52721541 285.676624,9.72581163 C285.484754,9.92440785 285.168218,9.92986041 284.969622,9.73799027 C284.484336,9.26914015 283.827539,9.0004 283.125033,9.0004 C282.422528,9.0004 281.765731,9.26914015 281.280445,9.73799027 C281.081849,9.92986041 280.765313,9.92440785 280.573443,9.72581163 C280.381573,9.52721541 280.387026,9.21067988 280.585622,9.01880973 C281.256261,8.37088354 282.161718,8.0004 283.125033,8.0004 Z M330.125733,4.5005 C330.371193,4.5005 330.575342,4.67737516 330.617678,4.91062437 L330.625733,5.0005 L330.625733,9.0005 C330.625733,9.27664237 330.401876,9.5005 330.125733,9.5005 C329.880274,9.5005 329.676125,9.32362484 329.633789,9.09037563 L329.625733,9.0005 L329.625733,5.0005 C329.625733,4.72435763 329.849591,4.5005 330.125733,4.5005 Z M283.124933,5.0003 C284.897972,5.0003 286.560548,5.69175867 287.788731,6.90101162 C287.985503,7.0947515 287.987962,7.41132444 287.794222,7.60809708 C287.600482,7.80486972 287.283909,7.80732826 287.087136,7.61358838 C286.044681,6.58720003 284.63351,6.0003 283.124933,6.0003 C281.61732,6.0003 280.206118,6.58721304 279.162569,7.61374727 C278.965709,7.80739798 278.649137,7.80479602 278.455486,7.60793563 C278.261835,7.41107524 278.264437,7.09450344 278.461298,6.90085273 C279.690488,5.69170344 281.352932,5.0003 283.124933,5.0003 Z M267.375733,6.2505 C267.789733,6.2505 268.125733,6.5865 268.125733,7.0005 C268.125733,7.4145 267.789733,7.7505 267.375733,7.7505 C266.961733,7.7505 266.625733,7.4145 266.625733,7.0005 C266.625733,6.5865 266.961733,6.2505 267.375733,6.2505 Z M258.375733,6.2505 C258.789733,6.2505 259.125733,6.5865 259.125733,7.0005 C259.125733,7.4145 258.789733,7.7505 258.375733,7.7505 C257.961733,7.7505 257.625733,7.4145 257.625733,7.0005 C257.625733,6.5865 257.961733,6.2505 258.375733,6.2505 Z M243.125733,3.0002 C243.371193,3.0002 243.575342,3.17707516 243.617678,3.41032437 L243.625733,3.5002 L243.625733,6.5 L246.625733,6.5002 C246.871193,6.5002 247.075342,6.67707516 247.117678,6.91032437 L247.125733,7.0002 C247.125733,7.24565989 246.948858,7.44980837 246.715609,7.49214433 L246.625733,7.5002 L243.125733,7.5002 C242.880274,7.5002 242.676125,7.32332484 242.633789,7.09007563 L242.625733,7.0002 L242.625733,3.5002 C242.625733,3.22405763 242.849591,3.0002 243.125733,3.0002 Z M263.125733,2 L263.125733,6 L265.792733,4 L263.125733,2 Z M283.125233,2.0002 C285.704024,2.0002 288.122748,3.01207555 289.909947,4.78081616 C290.10622,4.97506211 290.107863,5.29164034 289.913617,5.48791341 C289.719371,5.68418649 289.402793,5.6858298 289.20652,5.49158384 C287.60501,3.90661474 285.438373,3.0002 283.125233,3.0002 C280.812094,3.0002 278.645456,3.90661474 277.043947,5.49158384 C276.847674,5.6858298 276.531096,5.68418649 276.33685,5.48791341 C276.142604,5.29164034 276.144247,4.97506211 276.34052,4.78081616 C278.127719,3.01207555 280.546443,2.0002 283.125233,2.0002 Z M247.410039,0.588791159 L247.479287,0.646646609 L249.479287,2.64664661 C249.674549,2.84190876 249.674549,3.15849124 249.479287,3.35375339 C249.30572,3.52731974 249.036296,3.54660489 248.841428,3.41160884 L248.77218,3.35375339 L246.77218,1.35375339 C246.576918,1.15849124 246.576918,0.841908755 246.77218,0.646646609 C246.945746,0.473080258 247.215171,0.453795107 247.410039,0.588791159 Z M239.479287,0.646646609 C239.652853,0.820212961 239.672138,1.08963736 239.537142,1.2845055 L239.479287,1.35375339 L237.479287,3.35375339 C237.284025,3.54901554 236.967442,3.54901554 236.77218,3.35375339 C236.598614,3.18018704 236.579329,2.91076264 236.714325,2.7158945 L236.77218,2.64664661 L238.77218,0.646646609 C238.967442,0.451384464 239.284025,0.451384464 239.479287,0.646646609 Z" id="status-icons"></path>
                    <path d="M1.908,11 L1.908,7.808 L4.254,7.808 C4.338,7.808 4.438,7.804 4.554,7.796 C4.67,7.788 4.782,7.776 4.89,7.76 C5.354,7.688 5.745,7.527 6.063,7.277 C6.381,7.027 6.621,6.713 6.783,6.335 C6.945,5.957 7.026,5.54 7.026,5.084 C7.026,4.624 6.946,4.205 6.786,3.827 C6.626,3.449 6.387,3.136 6.069,2.888 C5.751,2.64 5.358,2.48 4.89,2.408 C4.782,2.388 4.67,2.375 4.554,2.369 C4.438,2.363 4.338,2.36 4.254,2.36 L4.254,2.36 L0.84,2.36 L0.84,11 L1.908,11 Z M4.218,6.794 L1.908,6.794 L1.908,3.374 L4.218,3.374 C4.294,3.374 4.381,3.377 4.479,3.383 C4.577,3.389 4.67,3.404 4.758,3.428 C5.034,3.488 5.259,3.604 5.433,3.776 C5.607,3.948 5.734,4.149 5.814,4.379 C5.894,4.609 5.934,4.844 5.934,5.084 C5.934,5.324 5.894,5.559 5.814,5.789 C5.734,6.019 5.607,6.219 5.433,6.389 C5.259,6.559 5.034,6.676 4.758,6.74 C4.67,6.76 4.577,6.774 4.479,6.782 C4.381,6.79 4.294,6.794 4.218,6.794 L4.218,6.794 Z M9.294,11 L9.294,7.184 L13.842,7.184 L13.842,11 L14.91,11 L14.91,2.36 L13.842,2.36 L13.842,6.17 L9.294,6.17 L9.294,2.36 L8.226,2.36 L8.226,11 L9.294,11 Z M20.142,11.18 C21.006,11.18 21.738,10.99 22.338,10.61 C22.938,10.23 23.394,9.702 23.706,9.026 C24.018,8.35 24.174,7.568 24.174,6.68 C24.174,5.792 24.018,5.01 23.706,4.334 C23.394,3.658 22.938,3.13 22.338,2.75 C21.738,2.37 21.006,2.18 20.142,2.18 C19.282,2.18 18.552,2.37 17.952,2.75 C17.352,3.13 16.895,3.658 16.581,4.334 C16.267,5.01 16.11,5.792 16.11,6.68 C16.11,7.568 16.267,8.35 16.581,9.026 C16.895,9.702 17.352,10.23 17.952,10.61 C18.552,10.99 19.282,11.18 20.142,11.18 Z M20.142,10.16 C19.498,10.156 18.961,10.007 18.531,9.713 C18.101,9.419 17.778,9.012 17.562,8.492 C17.346,7.972 17.24,7.368 17.244,6.68 C17.248,5.988 17.358,5.38 17.574,4.856 C17.79,4.332 18.111,3.924 18.537,3.632 C18.963,3.34 19.498,3.196 20.142,3.2 C20.786,3.204 21.323,3.352 21.753,3.644 C22.183,3.936 22.505,4.342 22.719,4.862 C22.933,5.382 23.04,5.988 23.04,6.68 C23.04,7.368 22.933,7.974 22.719,8.498 C22.505,9.022 22.183,9.431 21.753,9.725 C21.323,10.019 20.786,10.164 20.142,10.16 Z M28.44,11.18 C28.888,11.18 29.308,11.123 29.7,11.009 C30.092,10.895 30.436,10.729 30.732,10.511 C31.028,10.293 31.259,10.022 31.425,9.698 C31.591,9.374 31.674,9.004 31.674,8.588 C31.674,8.172 31.598,7.827 31.446,7.553 C31.294,7.279 31.102,7.059 30.87,6.893 C30.638,6.727 30.399,6.598 30.153,6.506 C29.907,6.414 29.69,6.342 29.502,6.29 L29.502,6.29 L27.858,5.816 C27.646,5.756 27.429,5.679 27.207,5.585 C26.985,5.491 26.798,5.363 26.646,5.201 C26.494,5.039 26.418,4.826 26.418,4.562 C26.418,4.294 26.502,4.057 26.67,3.851 C26.838,3.645 27.064,3.484 27.348,3.368 C27.632,3.252 27.95,3.196 28.302,3.2 C28.67,3.204 29.008,3.275 29.316,3.413 C29.624,3.551 29.881,3.747 30.087,4.001 C30.293,4.255 30.426,4.558 30.486,4.91 L30.486,4.91 L31.62,4.712 C31.516,4.188 31.313,3.738 31.011,3.362 C30.709,2.986 30.329,2.697 29.871,2.495 C29.413,2.293 28.894,2.19 28.314,2.186 C27.742,2.182 27.228,2.276 26.772,2.468 C26.316,2.66 25.955,2.937 25.689,3.299 C25.423,3.661 25.29,4.098 25.29,4.61 C25.29,4.93 25.342,5.207 25.446,5.441 C25.55,5.675 25.69,5.875 25.866,6.041 C26.042,6.207 26.242,6.345 26.466,6.455 C26.69,6.565 26.922,6.656 27.162,6.728 L27.162,6.728 L29.364,7.382 C29.52,7.426 29.67,7.482 29.814,7.55 C29.958,7.618 30.087,7.701 30.201,7.799 C30.315,7.897 30.405,8.015 30.471,8.153 C30.537,8.291 30.57,8.456 30.57,8.648 C30.57,8.96 30.478,9.23 30.294,9.458 C30.11,9.686 29.861,9.861 29.547,9.983 C29.233,10.105 28.882,10.166 28.494,10.166 C27.894,10.166 27.373,10.013 26.931,9.707 C26.489,9.401 26.198,8.976 26.058,8.432 L26.058,8.432 L24.954,8.606 C25.05,9.134 25.257,9.591 25.575,9.977 C25.893,10.363 26.297,10.66 26.787,10.868 C27.277,11.076 27.828,11.18 28.44,11.18 Z" id="PHOS"></path>
                </g>
            </g>
        </g>
    </g>
</svg>