<svg xmlns="http://www.w3.org/2000/svg" width="311" height="401" viewBox="0 0 311 401">
  <g fill="none" fill-rule="evenodd" transform="rotate(-4 284.653 9.94)">
    <path fill="#35313D" d="M284.21123,376.951697 C284.21123,379.272197 281.93748,380.911847 279.73598,380.178297 L279.73598,380.178297 L272.53648,377.777897 C271.83863,377.544997 271.08468,377.544997 270.38598,377.777897 L270.38598,377.777897 L259.78648,381.311347 C259.08863,381.543397 258.33468,381.543397 257.63598,381.311347 L257.63598,381.311347 L247.03648,377.777897 C246.33863,377.544997 245.58468,377.544997 244.88598,377.777897 L244.88598,377.777897 L234.28648,381.311347 C233.58863,381.543397 232.83468,381.543397 232.13598,381.311347 L232.13598,381.311347 L221.53648,377.777897 C220.83863,377.544997 220.08383,377.544997 219.38598,377.777897 L219.38598,377.777897 L208.78648,381.311347 C208.08863,381.543397 207.33383,381.543397 206.63598,381.311347 L206.63598,381.311347 L196.03648,377.777897 C195.33863,377.544997 194.58383,377.544997 193.88598,377.777897 L193.88598,377.777897 L183.28648,381.311347 C182.58863,381.543397 181.83383,381.543397 181.13598,381.311347 L181.13598,381.311347 L170.53648,377.777897 C169.83863,377.544997 169.08383,377.544997 168.38598,377.777897 L168.38598,377.777897 L157.78648,381.311347 C157.08863,381.543397 156.33383,381.543397 155.63598,381.311347 L155.63598,381.311347 L145.03648,377.777897 C144.33863,377.544997 143.58383,377.544997 142.88598,377.777897 L142.88598,377.777897 L132.28648,381.311347 C131.58863,381.543397 130.83383,381.543397 130.13598,381.311347 L130.13598,381.311347 L119.53648,377.777897 C118.83863,377.544997 118.08383,377.544997 117.38598,377.777897 L117.38598,377.777897 L106.78648,381.311347 C106.08863,381.543397 105.33383,381.543397 104.63598,381.311347 L104.63598,381.311347 L94.0364803,377.777897 C93.3386303,377.544997 92.5838303,377.544997 91.8859803,377.777897 L91.8859803,377.777897 L81.2864803,381.311347 C80.5886303,381.543397 79.8338303,381.543397 79.1359803,381.311347 L79.1359803,381.311347 L68.5364803,377.777897 C67.8386303,377.544997 67.0838303,377.544997 66.3859803,377.777897 L66.3859803,377.777897 L55.7864803,381.311347 C55.0886303,381.543397 54.3338303,381.543397 53.6359803,381.311347 L53.6359803,381.311347 L43.0364803,377.777897 C42.3386303,377.544997 41.5838303,377.544997 40.8859803,377.777897 L40.8859803,377.777897 L30.2864803,381.311347 C29.5886303,381.543397 28.8338303,381.543397 28.1359803,381.311347 L28.1359803,381.311347 L17.5364803,377.777897 C16.8386303,377.544997 16.0838303,377.544997 15.3859803,377.777897 L15.3859803,377.777897 L8.18648031,380.178297 C5.98498031,380.911847 3.71123031,379.272197 3.71123031,376.951697 L3.71123031,376.951697 L3.71140031,6.2692821 C3.71140031,5.1647126 4.60683081,4.2692821 5.71140031,4.2692821 L282.2114,4.2692821 C283.31597,4.2692821 284.2114,5.1647126 284.2114,6.2692821 Z" opacity=".1"/>
    <path fill="#FFE8DC" stroke="#000" stroke-width=".85" d="M278.50017,0.425 C278.935094,0.425 279.328844,0.60128788 279.613863,0.88630682 C279.898882,1.17132576 280.07517,1.56507576 280.07517,1.99999981 L280.07517,1.99999981 L280.075,372.682415 C280.075,373.667632 279.606615,374.512615 278.904264,375.048131 C278.200006,375.585102 277.260519,375.811393 276.322169,375.555214 L276.322169,375.555214 L268.959794,373.105474 C268.256942,372.870904 267.503508,372.846295 266.789362,373.03169 L266.789362,373.03169 L255.941148,376.638776 C255.402876,376.817763 254.826476,376.839001 254.27864,376.702543 L254.27864,376.702543 L243.459794,373.105474 C242.756942,372.870904 242.003508,372.846295 241.289362,373.03169 L241.289362,373.03169 L230.441148,376.638776 C229.902876,376.817763 229.326476,376.839001 228.77864,376.702543 L228.77864,376.702543 L217.959794,373.105474 C217.256934,372.870902 216.502728,372.846311 215.789102,373.031702 L215.789102,373.031702 L204.941148,376.638776 C204.402884,376.817761 203.825911,376.839016 203.278451,376.702554 L203.278451,376.702554 L192.459794,373.105474 C191.756934,372.870902 191.002728,372.846311 190.289102,373.031702 L190.289102,373.031702 L179.441148,376.638776 C178.902884,376.817761 178.325911,376.839016 177.778451,376.702554 L177.778451,376.702554 L166.959794,373.105474 C166.256934,372.870902 165.502728,372.846311 164.789102,373.031702 L164.789102,373.031702 L153.941148,376.638776 C153.402884,376.817761 152.825911,376.839016 152.278451,376.702554 L152.278451,376.702554 L141.459794,373.105474 C140.756934,372.870902 140.002728,372.846311 139.289102,373.031702 L139.289102,373.031702 L128.441148,376.638776 C127.902884,376.817761 127.325911,376.839016 126.778451,376.702554 L126.778451,376.702554 L115.959794,373.105474 C115.256934,372.870902 114.502728,372.846311 113.789102,373.031702 L113.789102,373.031702 L102.941148,376.638776 C102.402884,376.817761 101.825911,376.839016 101.278451,376.702554 L101.278451,376.702554 L90.4597941,373.105474 C89.7569339,372.870902 89.0027277,372.846311 88.2891022,373.031702 L88.2891022,373.031702 L77.441148,376.638776 C76.9028836,376.817761 76.3259108,376.839016 75.7784512,376.702554 L75.7784512,376.702554 L64.9597941,373.105474 C64.2569339,372.870902 63.5027277,372.846311 62.7891022,373.031702 L62.7891022,373.031702 L51.941148,376.638776 C51.4028836,376.817761 50.8259108,376.839016 50.2784512,376.702554 L50.2784512,376.702554 L39.4597941,373.105474 C38.7569339,372.870902 38.0027277,372.846311 37.2891022,373.031702 L37.2891022,373.031702 L26.441148,376.638776 C25.9028836,376.817761 25.3259108,376.839016 24.7784512,376.702554 L24.7784512,376.702554 L13.9597941,373.105474 C13.256955,372.870909 12.5027731,372.846312 11.7891666,373.031686 L11.7891666,373.031686 L4.3408999,375.505809 C3.40630832,375.817219 2.45682054,375.63984 1.72691901,375.142713 C0.994893892,374.64414 0.483284051,373.824131 0.429680965,372.852828 L0.429680965,372.852828 L0.42517,2 C0.42517,1.56507576 0.60145788,1.17132576 0.88647682,0.88630682 C1.17149576,0.60128788 1.56524576,0.425 2.00017,0.425 L2.00017,0.425 Z"/>
    <g transform="translate(34 40.8)">
      <rect width="124.643" height="12" x="39.95" y="8" fill="#FFD5C0" rx="2"/>
      <rect width="35" height="12" x="176.4" y="8" fill="#FFD5C0" rx="2"/>
      <rect width="35" height="12" x="176.4" y="48.8" fill="#FFD5C0" rx="2"/>
      <rect width="35" height="12" x="176.4" y="89.8" fill="#FFD5C0" rx="2"/>
      <rect width="35" height="12" x="176.4" y="130.8" fill="#FFD5C0" rx="2"/>
      <rect width="35" height="12" x="176.4" y="171.2" fill="#FFD5C0" rx="2"/>
      <rect width="35" height="12" x="176.4" y="212" fill="#FFD5C0" rx="2"/>
      <rect width="124.643" height="12" x="39.95" y="48.8" fill="#FFD5C0" rx="2"/>
      <rect width="124.643" height="12" x="39.95" y="89.6" fill="#FFD5C0" rx="2"/>
      <rect width="124.643" height="12" x="39.95" y="130.4" fill="#FFD5C0" rx="2"/>
      <rect width="124.643" height="12" x="39.95" y="171.2" fill="#FFD5C0" rx="2"/>
      <rect width="124.643" height="12" x="39.95" y="212" fill="#FFD5C0" rx="2"/>
      <g transform="translate(0 81.6)">
        <path fill="#FF8E51" d="M23.8,13.6 C23.8,19.2321 19.2321,23.8 13.6,23.8 C7.9679,23.8 3.4,19.2321 3.4,13.6 C3.4,7.9679 7.9679,3.4 13.6,3.4 C19.2321,3.4 23.8,7.9679 23.8,13.6" opacity=".2"/>
        <path fill="#512A1A" d="M13.6,2.55 C19.701542,2.55 24.65,7.49845796 24.65,13.6 C24.65,19.701542 19.701542,24.65 13.6,24.65 C7.49845796,24.65 2.55,19.701542 2.55,13.6 C2.55,7.49845796 7.49845796,2.55 13.6,2.55 Z M13.6,4.25 C8.43734204,4.25 4.25,8.43734204 4.25,13.6 C4.25,18.762658 8.43734204,22.95 13.6,22.95 C18.762658,22.95 22.95,18.762658 22.95,13.6 C22.95,8.43734204 18.762658,4.25 13.6,4.25 Z M17.85,16.15 C18.319442,16.15 18.7,16.530558 18.7,17 C18.7,17.4359105 18.3718658,17.7951811 17.949128,17.8442814 L17.85,17.85 L9.35,17.85 C8.88055796,17.85 8.5,17.469442 8.5,17 C8.5,16.5640895 8.82813416,16.2048189 9.25087204,16.1557186 L9.35,16.15 L17.85,16.15 Z M9.775,10.2 C10.4788,10.2 11.05,10.7712 11.05,11.475 C11.05,12.1788 10.4788,12.75 9.775,12.75 C9.0712,12.75 8.5,12.1788 8.5,11.475 C8.5,10.7712 9.0712,10.2 9.775,10.2 Z M17.425,10.2 C18.1288,10.2 18.7,10.7712 18.7,11.475 C18.7,12.1788 18.1288,12.75 17.425,12.75 C16.7212,12.75 16.15,12.1788 16.15,11.475 C16.15,10.7712 16.7212,10.2 17.425,10.2 Z"/>
      </g>
      <g transform="translate(0 40.8)">
        <polygon fill="#FF8E51" points="23.801 5.951 13.601 15.301 3.401 5.951" opacity=".2"/>
        <path fill="#512A1A" fill-rule="nonzero" d="M23.8,5.10085 C23.803066,5.10085 23.8061283,5.10086623 23.8091866,5.10089862 C23.8314446,5.10115614 23.8531341,5.10223539 23.874758,5.10413862 C23.8933598,5.10571443 23.9117345,5.1079272 23.9299194,5.11071629 C23.9423194,5.11270611 23.9553302,5.1150094 23.9682893,5.11761578 C23.9905155,5.12198969 24.0117872,5.12715558 24.0327296,5.13310427 C24.0492802,5.13789262 24.0660983,5.14322218 24.0827647,5.14908381 C24.0976038,5.15424803 24.1122891,5.1598951 24.1267716,5.1659313 C24.1442926,5.1732385 24.1613674,5.18101262 24.1782152,5.18937608 C24.1940881,5.19731732 24.209842,5.20578841 24.2252883,5.21473173 C24.2407312,5.22355481 24.256078,5.23308716 24.271166,5.24314943 C24.2858868,5.25309958 24.3003384,5.26340859 24.3144441,5.27414858 C24.3277221,5.28414299 24.3406461,5.29460324 24.353317,5.30549459 C24.3715658,5.32123418 24.3894127,5.33791725 24.4065152,5.35533369 C24.4132681,5.36220532 24.4199724,5.36927467 24.426581,5.37648407 C24.4482511,5.40041713 24.4648654,5.42057814 24.4805389,5.44148514 L24.426581,5.37648407 C24.4616207,5.41470921 24.4925047,5.45527256 24.519257,5.4976187 C24.532122,5.5180473 24.5442819,5.53925399 24.5555297,5.56100863 C24.5602651,5.57009156 24.5648501,5.57937799 24.569254,5.5887258 C24.5796051,5.61073415 24.5890812,5.63329456 24.5975885,5.65632444 C24.6019968,5.6683003 24.6061035,5.68026203 24.6099346,5.69228929 C24.6173963,5.71557067 24.6239354,5.7396363 24.6294199,5.76410049 C24.6319869,5.77573146 24.6343511,5.78742784 24.6364669,5.7991579 C24.6453507,5.8481608 24.65,5.89896246 24.65,5.95085 L24.645668,5.86463061 C24.6471854,5.87962976 24.6483042,5.89465819 24.6490251,5.90969886 L24.65,5.95085 L24.65,20.40085 C24.65,21.3381166 23.8883187,22.10085 22.95,22.10085 L22.95,22.10085 L4.25,22.10085 C3.31168133,22.10085 2.55,21.3381166 2.55,20.40085 L2.55,20.40085 L2.55,5.95085 C2.55,5.94477526 2.55006373,5.93871541 2.55019054,5.93267108 C2.55066924,5.90854804 2.55225359,5.88371086 2.55492491,5.85895937 C2.56140818,5.79850464 2.57424406,5.73995204 2.59273973,5.68397477 C2.59564412,5.67522856 2.59876228,5.66627655 2.60203546,5.65736664 C2.61129062,5.63219416 2.62168245,5.60764056 2.63316168,5.58370762 C2.63620501,5.57728058 2.63960874,5.57040771 2.64311184,5.56357103 L2.64959082,5.55126071 C2.66141625,5.52909942 2.67419467,5.5075235 2.68787136,5.48658767 C2.6951284,5.47540282 2.70315373,5.46374453 2.71150524,5.45224257 C2.72976027,5.42714916 2.74890756,5.40356059 2.76924135,5.38106492 C2.77048912,5.37969235 2.7719504,5.37808615 2.77341898,5.37648407 L2.79348479,5.35533369 C2.81058734,5.33791725 2.82843421,5.32123418 2.84697389,5.305336 L2.77341898,5.37648407 C2.80900785,5.33765984 2.84737178,5.30289714 2.88792881,5.27222125 C2.90042426,5.26289309 2.91354897,5.25353326 2.92694349,5.24454436 C2.94413723,5.23288752 2.96145441,5.22217325 2.97906308,5.21213404 C2.99292618,5.20430491 3.00732014,5.19661686 3.02195359,5.18933819 C3.03939665,5.1806374 3.05711216,5.17260203 3.07503643,5.1652019 C3.08941502,5.1592315 3.10374647,5.15375241 3.118258,5.14865595 C3.13549698,5.14268506 3.15296256,5.13719601 3.17056085,5.13228136 C3.18930625,5.12692798 3.20856902,5.12225288 3.22807557,5.11824605 C3.24410652,5.11506598 3.25982577,5.11229877 3.27560155,5.10997456 C3.31588268,5.10395764 3.35757843,5.10085 3.4,5.10085 L3.32652133,5.10402699 C3.3474813,5.10221391 3.36850201,5.10117485 3.3895369,5.10091184 L3.4,5.10085 Z M11.745,14.75285 L5.583,20.40085 L21.616,20.40085 L15.454,14.75285 L14.1743659,15.927431 C13.876474,16.2004987 13.4325311,16.2232543 13.1102973,15.9956979 L13.0256341,15.927431 L11.745,14.75285 Z M22.95,7.88185 L16.712,13.59985 L22.95,19.31785 L22.95,7.88185 Z M4.249,7.88185 L4.249,19.31685 L10.487,13.60085 L4.249,7.88185 Z M21.615,6.79985 L5.584,6.79985 L13.59915,14.1474 L21.615,6.79985 Z"/>
      </g>
      <path fill="#FF8E51" d="M13.59932,14.45 C11.72252,14.45 10.19932,12.9268 10.19932,11.05 C10.19932,9.1732 11.72252,7.65 13.59932,7.65 C15.47612,7.65 16.99932,9.1732 16.99932,11.05 C16.99932,12.9268 15.47612,14.45 13.59932,14.45 M13.59932,2.55 C8.90562,2.55 5.09932,6.3563 5.09932,11.05 C5.09932,18.7 13.59932,24.65 13.59932,24.65 C13.59932,24.65 22.09932,18.7 22.09932,11.05 C22.09932,6.3563 18.29472,2.55 13.59932,2.55" opacity=".2"/>
      <path fill="#512A1A" fill-rule="nonzero" d="M13.59932,1.7 L13.8702034,1.70384814 C18.9091802,1.84718845 22.94932,5.97688835 22.94932,11.05 C22.94932,14.6368685 21.2690307,18.0814615 18.4907347,21.2765019 C17.8052456,22.0648144 17.0857858,22.7979441 16.3564126,23.4706032 L15.9908446,23.8020176 L15.9908446,23.8020176 L21.24932,23.8 C21.718762,23.8 22.09932,24.180558 22.09932,24.65 C22.09932,25.0859105 21.7711858,25.4451811 21.348448,25.4942814 L21.24932,25.5 L5.94932,25.5 C5.47987796,25.5 5.09932,25.119442 5.09932,24.65 C5.09932,24.2140895 5.42745416,23.8548189 5.85019204,23.8057186 L5.94932,23.8 L11.2077954,23.8020176 C10.3537279,23.0408978 9.50769467,22.1962597 8.70790531,21.2765019 C5.92960927,18.0814615 4.24932,14.6368685 4.24932,11.05 C4.24932,5.88685796 8.43617796,1.7 13.59932,1.7 L13.59932,1.7 Z M13.59932,3.4 L13.3517751,3.40393145 C9.2420363,3.53464983 5.94932,6.90857062 5.94932,11.05 C5.94932,14.1568815 7.45653073,17.2466635 9.99073469,20.1609981 C10.8904249,21.1956418 11.8563451,22.1325845 12.8216962,22.9531328 C13.0239526,23.1250508 13.2172832,23.2841928 13.3998828,23.4300831 L13.3998828,23.4300831 L13.59915,23.5875 L13.984867,23.2797932 L14.3769438,22.9531328 C15.3422949,22.1325845 16.3082151,21.1956418 17.2079053,20.1609981 C19.7421093,17.2466635 21.24932,14.1568815 21.24932,11.05 C21.24932,6.82512857 17.8246646,3.4 13.59932,3.4 L13.59932,3.4 Z M13.59932,6.8 L13.8051559,6.80490337 C16.055901,6.91236853 17.84932,8.77276508 17.84932,11.05 C17.84932,13.396242 15.945562,15.3 13.59932,15.3 C11.253078,15.3 9.34932,13.396242 9.34932,11.05 C9.34932,8.70375796 11.253078,6.8 13.59932,6.8 L13.59932,6.8 Z M13.59932,8.5 L13.4317639,8.50542849 C12.1023789,8.59183491 11.04932,9.69893636 11.04932,11.05 C11.04932,12.457358 12.191962,13.6 13.59932,13.6 L13.59932,13.6 L13.7668761,13.5945715 C15.0962611,13.5081651 16.14932,12.4010636 16.14932,11.05 C16.14932,9.64264204 15.006678,8.5 13.59932,8.5 L13.59932,8.5 Z"/>
      <g transform="translate(0 122.4)">
        <path fill="#FF8E51" d="M5.525,18.7 C7.1689,18.7 8.5,20.0328 8.5,21.675 C8.5,23.3172 7.1689,24.65 5.525,24.65 C3.8811,24.65 2.55,23.3172 2.55,21.675 C2.55,20.0328 3.8811,18.7 5.525,18.7 Z M19.125,15.3 C20.7689,15.3 22.1,16.6328 22.1,18.275 C22.1,19.9172 20.7689,21.25 19.125,21.25 C17.4811,21.25 16.15,19.9172 16.15,18.275 C16.15,16.6328 17.4811,15.3 19.125,15.3 Z" opacity=".2"/>
        <path fill="#512A1A" fill-rule="nonzero" d="M22.9447078,3.3040226 L22.95,3.4 L22.95,18.275 L22.9499375,18.2970986 C22.9380447,20.3990885 21.2304567,22.1 19.125,22.1 C17.0121699,22.1 15.3,20.3871542 15.3,18.275 C15.3,16.1628458 17.0121699,14.45 19.125,14.45 C19.9117736,14.45 20.6429893,14.6875137 21.2509253,15.0947149 L21.25,9.58858129 L9.35,12.5635813 L9.35,21.675 L9.3499375,21.6970986 C9.3380447,23.7990885 7.63045669,25.5 5.525,25.5 C3.41216986,25.5 1.7,23.7871542 1.7,21.675 C1.7,19.5628458 3.41216986,17.85 5.525,17.85 C6.31177364,17.85 7.04298927,18.0875137 7.6509253,18.4947149 L7.6499034,11.9126369 C7.64973482,11.9019225 7.64977066,11.8912331 7.65000805,11.8805735 L7.65,6.8 C7.65,6.44246563 7.87305406,6.12698872 8.20168789,6.00402757 L8.29384472,5.97537887 L21.8938447,2.57537887 C22.3987621,2.44914953 22.888803,2.80114679 22.9447078,3.3040226 Z M5.525,19.55 C4.35120418,19.55 3.4,20.5015797 3.4,21.675 C3.4,22.8484203 4.35120418,23.8 5.525,23.8 C6.69879582,23.8 7.65,22.8484203 7.65,21.675 C7.65,20.5015797 6.69879582,19.55 5.525,19.55 Z M19.125,16.15 C17.9512042,16.15 17,17.1015797 17,18.275 C17,19.4484203 17.9512042,20.4 19.125,20.4 C20.2987958,20.4 21.25,19.4484203 21.25,18.275 C21.25,17.1015797 20.2987958,16.15 19.125,16.15 Z M21.25,4.48885 L9.35,7.46385 L9.35,10.8105813 L21.25,7.83558129 L21.25,4.48885 Z"/>
      </g>
      <g transform="translate(0 163.2)">
        <path fill="#FF8E51" d="M4.25,18.7 L4.25,5.1 C4.25,4.6308 4.6308,4.25 5.1,4.25 L22.1,4.25 C22.5692,4.25 22.95,4.6308 22.95,5.1 L22.95,17 L18.4518,12.5018 C18.1186,12.1686 17.5814,12.1686 17.2482,12.5018 L12.5018,17.2482 C12.1686,17.5814 11.6314,17.5814 11.2982,17.2482 L9.1018,15.0518 C8.7686,14.7186 8.2314,14.7186 7.8982,15.0518 L4.25,18.7 Z" opacity=".2"/>
        <path fill="#512A1A" d="M22.1,3.4 C23.038642,3.4 23.8,4.16135796 23.8,5.1 L23.8,5.1 L23.8,22.1 C23.8,23.038642 23.038642,23.8 22.1,23.8 L22.1,23.8 L5.1,23.8 C4.16135796,23.8 3.4,23.038642 3.4,22.1 L3.4,22.1 L3.4,5.1 C3.4,4.16135796 4.16135796,3.4 5.1,3.4 L5.1,3.4 Z M17.85,13.1019 L13.1028408,17.8492408 C12.4727028,18.4793787 11.4743674,18.5125439 10.8054718,17.9487362 L10.6971592,17.8492408 L8.49924076,15.6528408 L5.099,19.053 L5.1,22.1 L22.1,22.1 L22.1,17.353 L17.85,13.1019 Z M22.1,5.1 L5.1,5.1 L5.099,16.647 L7.29715924,14.4507592 C7.92729722,13.8206213 8.92563256,13.7874561 9.59452815,14.3512638 L9.70284076,14.4507592 L11.9007592,16.6471592 L16.6471592,11.9007592 C17.2772972,11.2706213 18.2756326,11.2374561 18.9445282,11.8012638 L19.0528408,11.9007592 L22.1,14.947 L22.1,5.1 Z M10.625,8.5 C11.3288,8.5 11.9,9.0712 11.9,9.775 C11.9,10.4788 11.3288,11.05 10.625,11.05 C9.9212,11.05 9.35,10.4788 9.35,9.775 C9.35,9.0712 9.9212,8.5 10.625,8.5 Z"/>
      </g>
      <g transform="translate(0 204)">
        <path fill="#FF8E51" d="M3.4,22.1 L6.6062,12.4814 C6.7218,12.1346 7.0482,11.9 7.412,11.9 L22.1,11.9 L22.1,9.35 C22.1,8.8808 21.7192,8.5 21.25,8.5 L13.8839,8.5 C13.7003,8.5 13.5201,8.4405 13.3722,8.33 L10.4278,6.12 C10.2799,6.0095 10.0997,5.95 9.9161,5.95 L4.25,5.95 C3.7808,5.95 3.4,6.3308 3.4,6.8 L3.4,22.1 Z" opacity=".2"/>
        <path fill="#512A1A" fill-rule="nonzero" d="M2.77181798,22.6727224 L2.76453718,22.6645374 C2.75605309,22.6549944 2.74778071,22.6452589 2.73972741,22.6353384 C2.72585934,22.6181866 2.71273122,22.6006349 2.70028922,22.5826065 C2.69407996,22.5737556 2.68804888,22.564662 2.68219034,22.5554479 C2.67172587,22.5388086 2.66187415,22.5220753 2.65259476,22.5050159 C2.64617809,22.493355 2.64005698,22.4814213 2.63421388,22.4693281 C2.6243825,22.4489563 2.61541394,22.428434 2.60725558,22.4075546 C2.60235105,22.3946959 2.59760064,22.3815104 2.59317145,22.3681783 C2.58789536,22.352993 2.58331683,22.3379348 2.57915595,22.3227321 C2.57501076,22.3062536 2.57095015,22.2892195 2.5674106,22.2719952 C2.56243012,22.2502819 2.55879636,22.2285935 2.55601607,22.206704 C2.55628467,22.2039132 2.55599665,22.2015221 2.55571857,22.199128 L2.55363441,22.1858684 C2.55108247,22.160759 2.54965345,22.135405 2.54939215,22.1098688 L2.55,22.1 L2.55,6.8 C2.55,5.90402351 3.24371666,5.16958065 4.12315708,5.10466431 L4.25,5.1 L9.9161,5.1 C10.230863,5.1 10.539299,5.18739173 10.8074752,5.35168306 L10.9380512,5.44018845 L13.8839,7.65 L21.25,7.65 C22.1459765,7.65 22.8804194,8.34371666 22.9453357,9.22315708 L22.95,9.35 L22.9493922,11.05 L24.3219,11.05 C25.4351545,11.05 26.2359057,12.0991905 25.9711141,13.1553254 L25.932411,13.287303 L22.906411,22.368703 C22.7907419,22.7158402 22.465901,22.95 22.1,22.95 L22.1,22.95 L3.4,22.95 L3.4,22.95 L3.29275419,22.943299 L3.29275419,22.943299 L3.19125239,22.9245019 C3.16705567,22.9184436 3.14332278,22.9113571 3.12009372,22.9032978 C3.06973639,22.8852998 3.02129642,22.8630205 2.97554735,22.8366015 C2.92469971,22.8077156 2.87797224,22.7737266 2.83523613,22.7355763 C2.83471178,22.7347959 2.83375767,22.7339443 2.83280549,22.7330907 L2.77181798,22.6727224 L2.77181798,22.6727224 Z M24.31935,12.75 L7.4128042,12.7503677 L4.57895,21.25 L21.48715,21.25 L24.31935,12.75 Z M9.9161,6.8 L4.25,6.8 L4.24939215,16.862 L5.7998192,12.2126064 C6.0155672,11.5653624 6.59697301,11.1135478 7.26713602,11.0561825 L7.412,11.05 L21.2493922,11.05 L21.25,9.35 L13.8839,9.35 C13.569137,9.35 13.260701,9.26260827 12.9925248,9.09831694 L12.8619488,9.00981155 L9.9161,6.8 Z"/>
      </g>
    </g>
    <path fill="#512A1A" fill-rule="nonzero" d="M37.54017 317.725L37.54017 311.51 39.93517 311.51 39.93517 310.525 34.10017 310.525 34.10017 311.51 36.49517 311.51 36.49517 317.725 37.54017 317.725zM43.08017 317.875C43.6168367 317.875 44.0835033 317.754167 44.48017 317.5125 44.8768367 317.270833 45.1843367 316.935833 45.40267 316.5075 45.6210033 316.079167 45.73017 315.583333 45.73017 315.02 45.73017 314.463333 45.6218367 313.971667 45.40517 313.545 45.1885033 313.118333 44.8818367 312.783333 44.48517 312.54 44.0885033 312.296667 43.62017 312.175 43.08017 312.175 42.55017 312.175 42.0868367 312.294167 41.69017 312.5325 41.2935033 312.770833 40.98517 313.104167 40.76517 313.5325 40.54517 313.960833 40.43517 314.456667 40.43517 315.02 40.43517 315.58 40.54267 316.074167 40.75767 316.5025 40.97267 316.930833 41.2785033 317.266667 41.67517 317.51 42.0718367 317.753333 42.54017 317.875 43.08017 317.875zM43.08017 316.89C42.5768367 316.89 42.19517 316.72 41.93517 316.38 41.67517 316.04 41.54517 315.586667 41.54517 315.02 41.54517 314.653333 41.60017 314.330833 41.71017 314.0525 41.82017 313.774167 41.9885033 313.555833 42.21517 313.3975 42.4418367 313.239167 42.73017 313.16 43.08017 313.16 43.59017 313.16 43.9743367 313.329167 44.23267 313.6675 44.4910033 314.005833 44.62017 314.456667 44.62017 315.02 44.62017 315.57 44.49267 316.019167 44.23767 316.3675 43.98267 316.715833 43.5968367 316.89 43.08017 316.89zM48.92017 317.81C49.2468367 317.82 49.58017 317.791667 49.92017 317.725L49.92017 317.725 49.92017 316.84C49.5668367 316.89 49.2593367 316.900833 48.99767 316.8725 48.7360033 316.844167 48.54517 316.726667 48.42517 316.52 48.3618367 316.41 48.32767 316.275 48.32267 316.115 48.31767 315.955 48.31517 315.766667 48.31517 315.55L48.31517 313.165 49.92017 313.165 49.92017 312.325 48.31517 312.325 48.31517 310.825 47.26517 310.825 47.26417 312.325 46.23017 312.325 46.23017 313.165 47.26417 313.165 47.26517 315.6C47.26517 315.795556 47.2670219 315.977407 47.2707256 316.145556L47.27767 316.3875C47.2860033 316.619167 47.3485033 316.846667 47.46517 317.07 47.59517 317.32 47.7885033 317.503333 48.04517 317.62 48.3018367 317.736667 48.5935033 317.8 48.92017 317.81zM52.58017 317.875C53.0835033 317.875 53.50767 317.774167 53.85267 317.5725 54.0990986 317.428452 54.3144897 317.230408 54.4988435 316.978367L54.52517 316.939 54.52517 317.725 55.45017 317.725 55.45017 314.4C55.45017 314.173333 55.44017 313.961667 55.42017 313.765 55.40017 313.568333 55.3468367 313.381667 55.26017 313.205 55.0935033 312.848333 54.8310033 312.5875 54.47267 312.4225 54.1143367 312.2575 53.6935033 312.175 53.21017 312.175 52.5868367 312.175 52.08767 312.311667 51.71267 312.585 51.33767 312.858333 51.0835033 313.226667 50.95017 313.69L50.95017 313.69 51.92517 313.99C52.0185033 313.686667 52.1835033 313.469167 52.42017 313.3375 52.6568367 313.205833 52.9168367 313.14 53.20017 313.14 53.65017 313.14 53.96767 313.2425 54.15267 313.4475 54.33767 313.6525 54.4268367 313.966667 54.42017 314.39L54.41617 314.235 54.303295 314.25 54.303295 314.25 53.80267 314.32C53.46767 314.366667 53.1485033 314.416667 52.84517 314.47 52.5418367 314.523333 52.27017 314.585 52.03017 314.655 51.7535033 314.745 51.52017 314.8625 51.33017 315.0075 51.14017 315.1525 50.9968367 315.328333 50.90017 315.535 50.8035033 315.741667 50.75517 315.981667 50.75517 316.255 50.75517 316.548333 50.8243367 316.8175 50.96267 317.0625 51.1010033 317.3075 51.30517 317.504167 51.57517 317.6525 51.84517 317.800833 52.18017 317.875 52.58017 317.875zM52.76517 317.02C52.5418367 317.02 52.3585033 316.985 52.21517 316.915 52.0718367 316.845 51.96517 316.750833 51.89517 316.6325 51.82517 316.514167 51.79017 316.385 51.79017 316.245 51.79017 316.101667 51.82267 315.98 51.88767 315.88 51.95267 315.78 52.0410033 315.695 52.15267 315.625 52.2643367 315.555 52.3918367 315.495 52.53517 315.445 52.70517 315.391667 52.8993367 315.345833 53.11767 315.3075 53.3360033 315.269167 53.58017 315.23 53.85017 315.19L53.85017 315.19 54.40717 315.107 54.407045 315.14C54.4060033 315.18 54.4047012 315.2225 54.4031387 315.2675L54.39767 315.41C54.3893367 315.61 54.3568367 315.79 54.30017 315.95 54.26017 316.126667 54.17517 316.296667 54.04517 316.46 53.91517 316.623333 53.7435033 316.7575 53.53017 316.8625 53.3168367 316.9675 53.0618367 317.02 52.76517 317.02zM57.89517 317.725L57.89517 310.375 56.85017 310.375 56.85017 317.725 57.89517 317.725zM226.76017 317.875C227.25017 317.875 227.683503 317.7675 228.06017 317.5525 228.436837 317.3375 228.73267 317.041667 228.94767 316.665 229.16267 316.288333 229.27017 315.855 229.27017 315.365L229.27017 315.365 229.27017 312.885C229.27017 312.395 229.16267 311.961667 228.94767 311.585 228.73267 311.208333 228.436837 310.9125 228.06017 310.6975 227.683503 310.4825 227.25017 310.375 226.76017 310.375 226.27017 310.375 225.836837 310.4825 225.46017 310.6975 225.083503 310.9125 224.78767 311.208333 224.57267 311.585 224.35767 311.961667 224.25017 312.395 224.25017 312.885L224.25017 312.885 224.25017 315.365C224.25017 315.855 224.35767 316.288333 224.57267 316.665 224.78767 317.041667 225.083503 317.3375 225.46017 317.5525 225.836837 317.7675 226.27017 317.875 226.76017 317.875zM226.76017 316.875C226.493503 316.875 226.251003 316.810833 226.03267 316.6825 225.814337 316.554167 225.64017 316.380833 225.51017 316.1625 225.38017 315.944167 225.31517 315.7 225.31517 315.43L225.31517 315.43 225.31517 312.81C225.31517 312.543333 225.38017 312.300833 225.51017 312.0825 225.64017 311.864167 225.814337 311.690833 226.03267 311.5625 226.251003 311.434167 226.493503 311.37 226.76017 311.37 227.026837 311.37 227.269337 311.434167 227.48767 311.5625 227.706003 311.690833 227.88017 311.864167 228.01017 312.0825 228.14017 312.300833 228.20517 312.543333 228.20517 312.81L228.20517 312.81 228.20517 315.43C228.20517 315.7 228.14017 315.944167 228.01017 316.1625 227.88017 316.380833 227.706003 316.554167 227.48767 316.6825 227.269337 316.810833 227.026837 316.875 226.76017 316.875zM231.95517 317.725L231.95517 316.62 230.85017 316.62 230.85017 317.725 231.95517 317.725zM236.04517 317.875C236.53517 317.875 236.968503 317.7675 237.34517 317.5525 237.721837 317.3375 238.01767 317.041667 238.23267 316.665 238.44767 316.288333 238.55517 315.855 238.55517 315.365L238.55517 315.365 238.55517 312.885C238.55517 312.395 238.44767 311.961667 238.23267 311.585 238.01767 311.208333 237.721837 310.9125 237.34517 310.6975 236.968503 310.4825 236.53517 310.375 236.04517 310.375 235.55517 310.375 235.121837 310.4825 234.74517 310.6975 234.368503 310.9125 234.07267 311.208333 233.85767 311.585 233.64267 311.961667 233.53517 312.395 233.53517 312.885L233.53517 312.885 233.53517 315.365C233.53517 315.855 233.64267 316.288333 233.85767 316.665 234.07267 317.041667 234.368503 317.3375 234.74517 317.5525 235.121837 317.7675 235.55517 317.875 236.04517 317.875zM236.04517 316.875C235.778503 316.875 235.536003 316.810833 235.31767 316.6825 235.099337 316.554167 234.92517 316.380833 234.79517 316.1625 234.66517 315.944167 234.60017 315.7 234.60017 315.43L234.60017 315.43 234.60017 312.81C234.60017 312.543333 234.66517 312.300833 234.79517 312.0825 234.92517 311.864167 235.099337 311.690833 235.31767 311.5625 235.536003 311.434167 235.778503 311.37 236.04517 311.37 236.311837 311.37 236.554337 311.434167 236.77267 311.5625 236.991003 311.690833 237.16517 311.864167 237.29517 312.0825 237.42517 312.300833 237.49017 312.543333 237.49017 312.81L237.49017 312.81 237.49017 315.43C237.49017 315.7 237.42517 315.944167 237.29517 316.1625 237.16517 316.380833 236.991003 316.554167 236.77267 316.6825 236.554337 316.810833 236.311837 316.875 236.04517 316.875zM242.46517 317.875C242.95517 317.875 243.388503 317.7675 243.76517 317.5525 244.141837 317.3375 244.43767 317.041667 244.65267 316.665 244.86767 316.288333 244.97517 315.855 244.97517 315.365L244.97517 315.365 244.97517 312.885C244.97517 312.395 244.86767 311.961667 244.65267 311.585 244.43767 311.208333 244.141837 310.9125 243.76517 310.6975 243.388503 310.4825 242.95517 310.375 242.46517 310.375 241.97517 310.375 241.541837 310.4825 241.16517 310.6975 240.788503 310.9125 240.49267 311.208333 240.27767 311.585 240.06267 311.961667 239.95517 312.395 239.95517 312.885L239.95517 312.885 239.95517 315.365C239.95517 315.855 240.06267 316.288333 240.27767 316.665 240.49267 317.041667 240.788503 317.3375 241.16517 317.5525 241.541837 317.7675 241.97517 317.875 242.46517 317.875zM242.46517 316.875C242.198503 316.875 241.956003 316.810833 241.73767 316.6825 241.519337 316.554167 241.34517 316.380833 241.21517 316.1625 241.08517 315.944167 241.02017 315.7 241.02017 315.43L241.02017 315.43 241.02017 312.81C241.02017 312.543333 241.08517 312.300833 241.21517 312.0825 241.34517 311.864167 241.519337 311.690833 241.73767 311.5625 241.956003 311.434167 242.198503 311.37 242.46517 311.37 242.731837 311.37 242.974337 311.434167 243.19267 311.5625 243.411003 311.690833 243.58517 311.864167 243.71517 312.0825 243.84517 312.300833 243.91017 312.543333 243.91017 312.81L243.91017 312.81 243.91017 315.43C243.91017 315.7 243.84517 315.944167 243.71517 316.1625 243.58517 316.380833 243.411003 316.554167 243.19267 316.6825 242.974337 316.810833 242.731837 316.875 242.46517 316.875z"/>
    <polygon fill="#512A1A" fill-rule="nonzero" points="246.5 292.325 246.5 293.325 34 293.325 34 292.325"/>
  </g>
</svg>
