<svg width="272" height="733" viewBox="0 0 272 733" fill="none" xmlns="http://www.w3.org/2000/svg">
<rect width="272" height="733" fill="#BCADAF"/>
<rect opacity="0.2" x="4" y="16.5508" width="144" height="719" rx="8" transform="rotate(-5 4 16.5508)" fill="#3C402B"/>
<rect x="0.458325" y="13.0963" width="145" height="720" rx="8.5" transform="rotate(-5 0.458325 13.0963)" fill="#F8C666" stroke="#3C402B"/>
<path d="M1.69727 21.5203L56.9861 16.6831C57.2612 16.6591 57.5037 16.8625 57.5277 17.1376V17.1376C57.5518 17.4127 57.3483 17.6552 57.0732 17.6793L1.78442 22.5165L1.69727 21.5203Z" fill="#3C402B"/>
<path d="M2.48169 30.4861L57.7705 25.6489C58.0456 25.6249 58.2881 25.8284 58.3122 26.1035V26.1035C58.3362 26.3786 58.1327 26.6211 57.8577 26.6451L2.56885 31.4823L2.48169 30.4861Z" fill="#3C402B"/>
<path d="M3.26611 39.4517L58.5549 34.6145C58.83 34.5904 59.0725 34.7939 59.0966 35.069V35.069C59.1207 35.3441 58.9172 35.5866 58.6421 35.6107L3.35327 40.4479L3.26611 39.4517Z" fill="#3C402B"/>
<path d="M4.05054 48.4175L59.3393 43.5803C59.6144 43.5563 59.857 43.7598 59.881 44.0349V44.0349C59.9051 44.3099 59.7016 44.5525 59.4265 44.5765L4.13769 49.4137L4.05054 48.4175Z" fill="#3C402B"/>
<path d="M4.83496 57.3833L60.1238 52.5462C60.3989 52.5221 60.6414 52.7256 60.6654 53.0007V53.0007C60.6895 53.2758 60.486 53.5183 60.2109 53.5424L4.92212 58.3795L4.83496 57.3833Z" fill="#3C402B"/>
<path d="M5.61938 66.3491L60.9082 61.512C61.1833 61.4879 61.4258 61.6914 61.4499 61.9665V61.9665C61.4739 62.2416 61.2704 62.4841 60.9953 62.5082L5.70654 67.3453L5.61938 66.3491Z" fill="#3C402B"/>
<path d="M6.40356 75.3147L61.6924 70.4776C61.9675 70.4535 62.21 70.657 62.234 70.9321V70.9321C62.2581 71.2072 62.0546 71.4497 61.7795 71.4737L6.49072 76.3109L6.40356 75.3147Z" fill="#3C402B"/>
<path d="M7.18799 84.2805L94.355 76.6544C94.6301 76.6303 94.8726 76.8338 94.8967 77.1089V77.1089C94.9208 77.384 94.7173 77.6265 94.4422 77.6506L7.27514 85.2767L7.18799 84.2805Z" fill="#3C402B"/>
<path d="M7.97241 93.2463L63.2612 88.4092C63.5363 88.3851 63.7788 88.5886 63.8029 88.8637V88.8637C63.827 89.1388 63.6235 89.3813 63.3484 89.4054L8.05957 94.2425L7.97241 93.2463Z" fill="#3C402B"/>
<path d="M8.75684 102.212L64.0456 97.375C64.3207 97.3509 64.5633 97.5544 64.5873 97.8295V97.8295C64.6114 98.1046 64.4079 98.3471 64.1328 98.3712L8.84399 103.208L8.75684 102.212Z" fill="#3C402B"/>
<path d="M9.54126 111.178L64.8301 106.341C65.1052 106.317 65.3477 106.52 65.3717 106.795V106.795C65.3958 107.07 65.1923 107.313 64.9172 107.337L9.62842 112.174L9.54126 111.178Z" fill="#3C402B"/>
<path d="M10.3257 120.144L65.6145 115.306C65.8896 115.282 66.1321 115.486 66.1562 115.761V115.761C66.1802 116.036 65.9767 116.279 65.7016 116.303L10.4128 121.14L10.3257 120.144Z" fill="#3C402B"/>
<path d="M11.1101 129.109L66.3989 124.272C66.674 124.248 66.9165 124.452 66.9406 124.727V124.727C66.9647 125.002 66.7612 125.244 66.4861 125.268L11.1973 130.106L11.1101 129.109Z" fill="#3C402B"/>
<path d="M11.8945 138.075L67.1833 133.238C67.4584 133.214 67.7009 133.417 67.725 133.693V133.693C67.7491 133.968 67.5456 134.21 67.2705 134.234L11.9817 139.071L11.8945 138.075Z" fill="#3C402B"/>
<path d="M12.6787 147.041L67.9675 142.204C68.2426 142.18 68.4851 142.383 68.5092 142.658V142.658C68.5333 142.933 68.3298 143.176 68.0547 143.2L12.7659 148.037L12.6787 147.041Z" fill="#3C402B"/>
<path d="M13.4631 156.007L100.63 148.38C100.905 148.356 101.148 148.56 101.172 148.835V148.835C101.196 149.11 100.992 149.353 100.717 149.377L13.5503 157.003L13.4631 156.007Z" fill="#3C402B"/>
<path d="M14.2476 164.972L69.5364 160.135C69.8115 160.111 70.054 160.315 70.078 160.59V160.59C70.1021 160.865 69.8986 161.107 69.6235 161.131L14.3347 165.969L14.2476 164.972Z" fill="#3C402B"/>
<path d="M15.032 173.938L70.3208 169.101C70.5959 169.077 70.8384 169.281 70.8625 169.556V169.556C70.8865 169.831 70.683 170.073 70.4079 170.097L15.1191 174.934L15.032 173.938Z" fill="#3C402B"/>
<path d="M15.8164 182.904L71.1052 178.067C71.3803 178.043 71.6228 178.246 71.6469 178.521V178.521C71.671 178.796 71.4675 179.039 71.1924 179.063L15.9036 183.9L15.8164 182.904Z" fill="#3C402B"/>
<path d="M16.6008 191.87L71.8896 187.032C72.1647 187.008 72.4072 187.212 72.4313 187.487V187.487C72.4554 187.762 72.2519 188.005 71.9768 188.029L16.688 192.866L16.6008 191.87Z" fill="#3C402B"/>
<path d="M17.3853 200.835L72.6741 195.998C72.9492 195.974 73.1917 196.178 73.2157 196.453V196.453C73.2398 196.728 73.0363 196.97 72.7612 196.995L17.4724 201.832L17.3853 200.835Z" fill="#3C402B"/>
<path d="M18.1697 209.801L73.4585 204.964C73.7336 204.94 73.9761 205.144 74.0002 205.419V205.419C74.0242 205.694 73.8207 205.936 73.5456 205.96L18.2568 210.797L18.1697 209.801Z" fill="#3C402B"/>
<path d="M18.9539 218.767L74.2427 213.93C74.5178 213.906 74.7603 214.109 74.7843 214.384V214.384C74.8084 214.659 74.6049 214.902 74.3298 214.926L19.041 219.763L18.9539 218.767Z" fill="#3C402B"/>
<path d="M19.7383 227.733L106.905 220.107C107.18 220.082 107.423 220.286 107.447 220.561V220.561C107.471 220.836 107.268 221.079 106.992 221.103L19.8254 228.729L19.7383 227.733Z" fill="#3C402B"/>
<path d="M20.5229 236.698L75.8118 231.861C76.0868 231.837 76.3294 232.041 76.3534 232.316V232.316C76.3775 232.591 76.174 232.833 75.8989 232.858L20.6101 237.695L20.5229 236.698Z" fill="#3C402B"/>
<path d="M21.3074 245.664L76.5962 240.827C76.8713 240.803 77.1138 241.007 77.1379 241.282V241.282C77.1619 241.557 76.9584 241.799 76.6833 241.823L21.3945 246.661L21.3074 245.664Z" fill="#3C402B"/>
<path d="M22.0918 254.63L77.3806 249.793C77.6557 249.769 77.8982 249.972 77.9223 250.247V250.247C77.9463 250.522 77.7429 250.765 77.4678 250.789L22.179 255.626L22.0918 254.63Z" fill="#3C402B"/>
<path d="M22.8762 263.596L78.165 258.759C78.4401 258.734 78.6826 258.938 78.7067 259.213V259.213C78.7308 259.488 78.5273 259.731 78.2522 259.755L22.9634 264.592L22.8762 263.596Z" fill="#3C402B"/>
<path d="M23.6606 272.562L78.9495 267.724C79.2245 267.7 79.4671 267.904 79.4911 268.179V268.179C79.5152 268.454 79.3117 268.697 79.0366 268.721L23.7478 273.558L23.6606 272.562Z" fill="#3C402B"/>
<path d="M24.4451 281.527L79.7339 276.69C80.009 276.666 80.2515 276.87 80.2756 277.145V277.145C80.2996 277.42 80.0961 277.662 79.821 277.686L24.5322 282.524L24.4451 281.527Z" fill="#3C402B"/>
<path d="M25.2292 290.493L80.5181 285.656C80.7931 285.632 81.0357 285.835 81.0597 286.11V286.11C81.0838 286.385 80.8803 286.628 80.6052 286.652L25.3164 291.489L25.2292 290.493Z" fill="#3C402B"/>
<path d="M26.0137 299.459L113.181 291.833C113.456 291.809 113.698 292.012 113.722 292.287V292.287C113.746 292.562 113.543 292.805 113.268 292.829L26.1008 300.455L26.0137 299.459Z" fill="#3C402B"/>
<path d="M26.7981 308.424L82.0869 303.587C82.362 303.563 82.6045 303.767 82.6286 304.042V304.042C82.6526 304.317 82.4491 304.559 82.1741 304.583L26.8853 309.421L26.7981 308.424Z" fill="#3C402B"/>
<path d="M27.5825 317.39L82.8713 312.553C83.1464 312.529 83.3889 312.732 83.413 313.008V313.008C83.4371 313.283 83.2336 313.525 82.9585 313.549L27.6697 318.386L27.5825 317.39Z" fill="#3C402B"/>
<path d="M28.3669 326.356L83.6557 321.519C83.9308 321.495 84.1734 321.698 84.1974 321.973V321.973C84.2215 322.248 84.018 322.491 83.7429 322.515L28.4541 327.352L28.3669 326.356Z" fill="#3C402B"/>
<path d="M29.1514 335.322L84.4402 330.484C84.7153 330.46 84.9578 330.664 84.9818 330.939V330.939C85.0059 331.214 84.8024 331.457 84.5273 331.481L29.2385 336.318L29.1514 335.322Z" fill="#3C402B"/>
<path d="M29.9358 344.287L85.2246 339.45C85.4997 339.426 85.7422 339.63 85.7663 339.905V339.905C85.7903 340.18 85.5868 340.422 85.3118 340.446L30.0229 345.284L29.9358 344.287Z" fill="#3C402B"/>
<path d="M30.7202 353.253L86.009 348.416C86.2841 348.392 86.5266 348.595 86.5507 348.871V348.871C86.5748 349.146 86.3713 349.388 86.0962 349.412L30.8074 354.249L30.7202 353.253Z" fill="#3C402B"/>
<path d="M31.5044 362.219L86.7932 357.382C87.0683 357.358 87.3108 357.561 87.3349 357.836V357.836C87.3589 358.111 87.1554 358.354 86.8804 358.378L31.5916 363.215L31.5044 362.219Z" fill="#3C402B"/>
<path d="M32.2888 371.185L119.456 363.558C119.731 363.534 119.973 363.738 119.998 364.013V364.013C120.022 364.288 119.818 364.531 119.543 364.555L32.376 372.181L32.2888 371.185Z" fill="#3C402B"/>
<path d="M33.0732 380.15L88.362 375.313C88.6371 375.289 88.8797 375.493 88.9037 375.768V375.768C88.9278 376.043 88.7243 376.285 88.4492 376.309L33.1604 381.147L33.0732 380.15Z" fill="#3C402B"/>
<path d="M33.8577 389.116L89.1465 384.279C89.4216 384.255 89.6641 384.458 89.6881 384.734V384.734C89.7122 385.009 89.5087 385.251 89.2336 385.275L33.9448 390.112L33.8577 389.116Z" fill="#3C402B"/>
<path d="M34.6421 398.082L89.9309 393.245C90.206 393.221 90.4485 393.424 90.4726 393.699V393.699C90.4966 393.974 90.2931 394.217 90.0181 394.241L34.7292 399.078L34.6421 398.082Z" fill="#3C402B"/>
<path d="M35.4265 407.048L90.7153 402.21C90.9904 402.186 91.2329 402.39 91.257 402.665V402.665C91.2811 402.94 91.0776 403.183 90.8025 403.207L35.5137 408.044L35.4265 407.048Z" fill="#3C402B"/>
<path d="M36.2109 416.013L91.4997 411.176C91.7748 411.152 92.0174 411.356 92.0414 411.631V411.631C92.0655 411.906 91.862 412.148 91.5869 412.172L36.2981 417.01L36.2109 416.013Z" fill="#3C402B"/>
<path d="M36.9954 424.979L92.2842 420.142C92.5593 420.118 92.8018 420.322 92.8258 420.597V420.597C92.8499 420.872 92.6464 421.114 92.3713 421.138L37.0825 425.975L36.9954 424.979Z" fill="#3C402B"/>
<path d="M37.7795 433.945L93.0683 429.108C93.3434 429.084 93.586 429.287 93.61 429.562V429.562C93.6341 429.837 93.4306 430.08 93.1555 430.104L37.8667 434.941L37.7795 433.945Z" fill="#3C402B"/>
<path d="M38.564 442.911L125.731 435.285C126.006 435.26 126.249 435.464 126.273 435.739V435.739C126.297 436.014 126.093 436.257 125.818 436.281L38.6511 443.907L38.564 442.911Z" fill="#3C402B"/>
<path d="M39.3486 451.876L94.6374 447.039C94.9125 447.015 95.155 447.219 95.1791 447.494V447.494C95.2032 447.769 94.9997 448.011 94.7246 448.036L39.4358 452.873L39.3486 451.876Z" fill="#3C402B"/>
<path d="M40.1331 460.842L95.4219 456.005C95.697 455.981 95.9395 456.185 95.9635 456.46V456.46C95.9876 456.735 95.7841 456.977 95.509 457.001L40.2202 461.838L40.1331 460.842Z" fill="#3C402B"/>
<path d="M40.9175 469.808L96.2063 464.971C96.4814 464.947 96.7239 465.15 96.748 465.425V465.425C96.772 465.7 96.5685 465.943 96.2934 465.967L41.0046 470.804L40.9175 469.808Z" fill="#3C402B"/>
<path d="M41.7019 478.774L96.9907 473.937C97.2658 473.912 97.5083 474.116 97.5324 474.391V474.391C97.5565 474.666 97.353 474.909 97.0779 474.933L41.7891 479.77L41.7019 478.774Z" fill="#3C402B"/>
<path d="M42.4863 487.74L97.7751 482.902C98.0502 482.878 98.2927 483.082 98.3168 483.357V483.357C98.3409 483.632 98.1374 483.874 97.8623 483.899L42.5735 488.736L42.4863 487.74Z" fill="#3C402B"/>
<path d="M43.2708 496.705L98.5596 491.868C98.8346 491.844 99.0772 492.048 99.1012 492.323V492.323C99.1253 492.598 98.9218 492.84 98.6467 492.864L43.3579 497.702L43.2708 496.705Z" fill="#3C402B"/>
<path d="M44.0549 505.671L99.3437 500.834C99.6188 500.81 99.8613 501.013 99.8854 501.288V501.288C99.9095 501.563 99.706 501.806 99.4309 501.83L44.1421 506.667L44.0549 505.671Z" fill="#3C402B"/>
<path d="M44.8394 514.637L132.006 507.011C132.281 506.987 132.524 507.19 132.548 507.465V507.465C132.572 507.74 132.369 507.983 132.094 508.007L44.9265 515.633L44.8394 514.637Z" fill="#3C402B"/>
<path d="M45.6238 523.603L100.913 518.765C101.188 518.741 101.43 518.945 101.454 519.22V519.22C101.478 519.495 101.275 519.738 101 519.762L45.7109 524.599L45.6238 523.603Z" fill="#3C402B"/>
<path d="M46.4082 532.568L101.697 527.731C101.972 527.707 102.215 527.911 102.239 528.186V528.186C102.263 528.461 102.059 528.703 101.784 528.727L46.4954 533.565L46.4082 532.568Z" fill="#3C402B"/>
<path d="M47.1926 541.534L102.481 536.697C102.757 536.673 102.999 536.876 103.023 537.151V537.151C103.047 537.426 102.844 537.669 102.569 537.693L47.2798 542.53L47.1926 541.534Z" fill="#3C402B"/>
<path d="M47.9771 550.5L103.266 545.663C103.541 545.639 103.783 545.842 103.808 546.117V546.117C103.832 546.392 103.628 546.635 103.353 546.659L48.0642 551.496L47.9771 550.5Z" fill="#3C402B"/>
<path d="M48.7615 559.466L104.05 554.628C104.325 554.604 104.568 554.808 104.592 555.083V555.083C104.616 555.358 104.413 555.601 104.137 555.625L48.8486 560.462L48.7615 559.466Z" fill="#3C402B"/>
<path d="M49.5459 568.431L104.835 563.594C105.11 563.57 105.352 563.774 105.376 564.049V564.049C105.4 564.324 105.197 564.566 104.922 564.59L49.6331 569.428L49.5459 568.431Z" fill="#3C402B"/>
<path d="M50.3301 577.397L105.619 572.56C105.894 572.536 106.136 572.739 106.161 573.014V573.014C106.185 573.289 105.981 573.532 105.706 573.556L50.4172 578.393L50.3301 577.397Z" fill="#3C402B"/>
<path d="M51.1145 586.363L138.282 578.737C138.557 578.713 138.799 578.916 138.823 579.191V579.191C138.847 579.466 138.644 579.709 138.369 579.733L51.2017 587.359L51.1145 586.363Z" fill="#3C402B"/>
<path d="M51.8989 595.329L107.188 590.491C107.463 590.467 107.705 590.671 107.729 590.946V590.946C107.753 591.221 107.55 591.464 107.275 591.488L51.9861 596.325L51.8989 595.329Z" fill="#3C402B"/>
<path d="M52.6833 604.294L107.972 599.457C108.247 599.433 108.49 599.637 108.514 599.912V599.912C108.538 600.187 108.334 600.429 108.059 600.453L52.7705 605.291L52.6833 604.294Z" fill="#3C402B"/>
<path d="M53.4678 613.26L108.757 608.423C109.032 608.399 109.274 608.602 109.298 608.877V608.877C109.322 609.152 109.119 609.395 108.844 609.419L53.5549 614.256L53.4678 613.26Z" fill="#3C402B"/>
<path d="M54.2522 622.226L109.541 617.389C109.816 617.365 110.059 617.568 110.083 617.843V617.843C110.107 618.118 109.903 618.361 109.628 618.385L54.3394 623.222L54.2522 622.226Z" fill="#3C402B"/>
<path d="M55.0366 631.192L110.325 626.355C110.601 626.33 110.843 626.534 110.867 626.809V626.809C110.891 627.084 110.688 627.327 110.413 627.351L55.1238 632.188L55.0366 631.192Z" fill="#3C402B"/>
<path d="M55.821 640.157L111.11 635.32C111.385 635.296 111.627 635.5 111.652 635.775V635.775C111.676 636.05 111.472 636.292 111.197 636.317L55.9082 641.154L55.821 640.157Z" fill="#3C402B"/>
<path d="M56.6052 649.123L111.894 644.286C112.169 644.262 112.412 644.465 112.436 644.74V644.74C112.46 645.016 112.256 645.258 111.981 645.282L56.6924 650.119L56.6052 649.123Z" fill="#3C402B"/>
<path d="M57.3896 658.089L144.557 650.463C144.832 650.439 145.074 650.642 145.098 650.917V650.917C145.122 651.192 144.919 651.435 144.644 651.459L57.4768 659.085L57.3896 658.089Z" fill="#3C402B"/>
<path d="M58.1741 667.054L113.463 662.217C113.738 662.193 113.98 662.397 114.005 662.672V662.672C114.029 662.947 113.825 663.189 113.55 663.213L58.2612 668.051L58.1741 667.054Z" fill="#3C402B"/>
<path d="M58.9585 676.02L114.247 671.183C114.522 671.159 114.765 671.363 114.789 671.638V671.638C114.813 671.913 114.61 672.155 114.334 672.179L59.0457 677.016L58.9585 676.02Z" fill="#3C402B"/>
<path d="M59.7429 684.986L115.032 680.149C115.307 680.125 115.549 680.328 115.573 680.603V680.603C115.597 680.878 115.394 681.121 115.119 681.145L59.8301 685.982L59.7429 684.986Z" fill="#3C402B"/>
<path d="M60.5273 693.952L115.816 689.115C116.091 689.09 116.334 689.294 116.358 689.569V689.569C116.382 689.844 116.178 690.087 115.903 690.111L60.6145 694.948L60.5273 693.952Z" fill="#3C402B"/>
<path d="M61.3118 702.917L116.601 698.08C116.876 698.056 117.118 698.26 117.142 698.535V698.535C117.166 698.81 116.963 699.052 116.688 699.077L61.3989 703.914L61.3118 702.917Z" fill="#3C402B"/>
<path d="M62.0962 711.883L117.385 707.046C117.66 707.022 117.903 707.226 117.927 707.501V707.501C117.951 707.776 117.747 708.018 117.472 708.042L62.1833 712.879L62.0962 711.883Z" fill="#3C402B"/>
<path d="M62.8804 720.849L118.169 716.012C118.444 715.988 118.687 716.191 118.711 716.466V716.466C118.735 716.741 118.531 716.984 118.256 717.008L62.9675 721.845L62.8804 720.849Z" fill="#3C402B"/>
<path d="M111.957 65.5783L113.7 85.5022C113.723 85.7664 113.64 86.029 113.47 86.2321C113.299 86.4353 113.055 86.5624 112.791 86.5855C112.526 86.6086 112.264 86.5259 112.061 86.3554C111.858 86.1849 111.73 85.9407 111.707 85.6765L110.118 67.5121L106.829 69.8992C106.614 70.055 106.346 70.1193 106.084 70.0777C105.822 70.0362 105.587 69.8922 105.432 69.6776C105.276 69.4629 105.211 69.1951 105.253 68.9331C105.294 68.6711 105.438 68.4363 105.653 68.2805L110.373 64.8561C110.516 64.752 110.684 64.6879 110.86 64.6702C111.036 64.6524 111.214 64.6818 111.375 64.7552C111.536 64.8287 111.675 64.9436 111.777 65.0882C111.879 65.2328 111.941 65.4019 111.957 65.5783Z" fill="#3C402B"/>
<path d="M123.96 156.88C123.983 157.144 123.9 157.406 123.73 157.61C123.559 157.813 123.315 157.94 123.051 157.963L113.089 158.835C112.904 158.851 112.718 158.815 112.552 158.732C112.386 158.648 112.247 158.52 112.15 158.362C112.053 158.204 112.001 158.021 112.002 157.836C112.002 157.65 112.055 157.468 112.153 157.31L120.066 144.582C120.349 144.137 120.541 143.64 120.631 143.12C120.722 142.6 120.708 142.067 120.591 141.552C120.475 141.037 120.257 140.551 119.952 140.12C119.646 139.69 119.258 139.324 118.811 139.045C118.363 138.765 117.865 138.576 117.344 138.49C116.824 138.404 116.291 138.421 115.777 138.542C115.263 138.662 114.778 138.883 114.35 139.192C113.922 139.501 113.559 139.891 113.283 140.341C113.117 140.606 112.983 140.89 112.883 141.187C112.798 141.438 112.617 141.645 112.379 141.763C112.142 141.881 111.867 141.9 111.616 141.815C111.364 141.73 111.157 141.549 111.039 141.312C110.921 141.074 110.903 140.799 110.987 140.548C111.257 139.745 111.694 139.009 112.269 138.387C112.845 137.766 113.545 137.273 114.324 136.941C115.103 136.609 115.944 136.446 116.791 136.463C117.638 136.479 118.471 136.675 119.237 137.037C120.003 137.399 120.683 137.918 121.234 138.562C121.784 139.206 122.192 139.959 122.431 140.771C122.669 141.584 122.733 142.438 122.618 143.277C122.503 144.116 122.212 144.921 121.763 145.64L114.907 156.668L122.877 155.971C123.141 155.947 123.403 156.03 123.607 156.201C123.81 156.371 123.937 156.615 123.96 156.88Z" fill="#3C402B"/>
<path d="M129.712 222.628C129.83 223.974 129.555 225.326 128.922 226.519C128.289 227.713 127.323 228.698 126.143 229.355C124.962 230.012 123.616 230.313 122.268 230.222C120.92 230.131 119.627 229.652 118.545 228.843C118.435 228.766 118.342 228.668 118.27 228.554C118.199 228.441 118.151 228.314 118.13 228.182C118.109 228.049 118.114 227.914 118.146 227.784C118.179 227.653 118.236 227.531 118.317 227.424C118.397 227.316 118.498 227.226 118.614 227.159C118.73 227.091 118.858 227.048 118.991 227.031C119.124 227.014 119.259 227.024 119.388 227.06C119.518 227.097 119.638 227.158 119.743 227.242C120.392 227.728 121.149 228.048 121.949 228.176C122.749 228.304 123.569 228.235 124.336 227.976C125.104 227.717 125.798 227.275 126.357 226.688C126.916 226.102 127.324 225.388 127.546 224.609C127.768 223.829 127.798 223.008 127.632 222.215C127.466 221.421 127.109 220.68 126.593 220.055C126.078 219.43 125.418 218.94 124.67 218.627C123.923 218.314 123.11 218.187 122.303 218.257C122.118 218.274 121.932 218.238 121.766 218.154C121.6 218.071 121.461 217.943 121.364 217.785C121.267 217.626 121.215 217.444 121.216 217.259C121.216 217.073 121.269 216.891 121.367 216.733L125.591 209.939L117.621 210.636C117.357 210.66 117.094 210.577 116.891 210.406C116.688 210.236 116.561 209.992 116.538 209.727C116.515 209.463 116.597 209.201 116.768 208.998C116.938 208.794 117.182 208.667 117.447 208.644L127.409 207.773C127.594 207.756 127.78 207.792 127.945 207.876C128.111 207.959 128.251 208.087 128.348 208.245C128.445 208.404 128.496 208.586 128.496 208.771C128.495 208.957 128.443 209.139 128.345 209.297L123.963 216.345C125.478 216.617 126.861 217.379 127.9 218.514C128.939 219.65 129.576 221.095 129.712 222.628Z" fill="#3C402B"/>
<path d="M136.896 293.271C136.919 293.535 136.837 293.798 136.666 294.001C136.496 294.204 136.251 294.331 135.987 294.354L133.995 294.529L134.518 300.506C134.541 300.77 134.458 301.033 134.288 301.236C134.117 301.439 133.873 301.566 133.609 301.589C133.345 301.612 133.082 301.53 132.879 301.359C132.676 301.189 132.549 300.944 132.525 300.68L132.003 294.703L123.037 295.487C122.877 295.501 122.717 295.477 122.568 295.415C122.42 295.354 122.289 295.258 122.186 295.136C122.083 295.014 122.01 294.868 121.975 294.712C121.939 294.556 121.942 294.393 121.983 294.238L125.743 279.856C125.817 279.607 125.985 279.396 126.211 279.268C126.437 279.14 126.704 279.106 126.956 279.172C127.207 279.237 127.423 279.398 127.557 279.62C127.692 279.843 127.735 280.108 127.677 280.362L124.276 293.371L131.828 292.711L131.305 286.733C131.282 286.469 131.365 286.207 131.535 286.003C131.706 285.8 131.95 285.673 132.214 285.65C132.479 285.627 132.741 285.71 132.944 285.88C133.147 286.051 133.275 286.295 133.298 286.559L133.821 292.536L135.813 292.362C136.077 292.339 136.34 292.422 136.543 292.592C136.746 292.763 136.873 293.007 136.896 293.271Z" fill="#3C402B"/>
<path d="M142.262 366.08C142.38 367.427 142.106 368.778 141.472 369.971C140.839 371.165 139.874 372.15 138.693 372.807C137.512 373.464 136.167 373.765 134.818 373.674C133.47 373.584 132.177 373.104 131.095 372.295C130.985 372.218 130.892 372.12 130.821 372.006C130.749 371.893 130.702 371.766 130.68 371.634C130.659 371.501 130.665 371.366 130.697 371.236C130.729 371.106 130.787 370.983 130.867 370.876C130.947 370.768 131.049 370.678 131.164 370.611C131.28 370.543 131.409 370.5 131.542 370.483C131.675 370.466 131.81 370.476 131.939 370.512C132.068 370.549 132.188 370.611 132.293 370.694C133.061 371.269 133.979 371.611 134.936 371.679C135.894 371.746 136.85 371.537 137.692 371.076C138.534 370.614 139.225 369.921 139.683 369.077C140.141 368.234 140.346 367.276 140.275 366.319C140.203 365.362 139.858 364.446 139.28 363.68C138.702 362.913 137.915 362.33 137.015 361.999C136.114 361.667 135.137 361.602 134.2 361.811C133.263 362.02 132.406 362.494 131.732 363.177C131.586 363.324 131.398 363.421 131.194 363.456C130.99 363.492 130.78 363.463 130.593 363.373C130.407 363.284 130.252 363.139 130.151 362.959C130.05 362.778 130.008 362.571 130.03 362.365L131.083 352.808C131.109 352.578 131.213 352.365 131.378 352.203C131.543 352.042 131.759 351.942 131.989 351.922L139.959 351.225C140.223 351.202 140.486 351.284 140.689 351.455C140.892 351.625 141.019 351.87 141.042 352.134C141.065 352.398 140.983 352.661 140.812 352.864C140.642 353.067 140.397 353.194 140.133 353.217L132.981 353.843L132.258 360.381C133.278 359.89 134.402 359.655 135.534 359.695C136.665 359.734 137.77 360.048 138.754 360.608C139.738 361.168 140.571 361.959 141.182 362.912C141.793 363.865 142.164 364.953 142.262 366.08Z" fill="#3C402B"/>
<path d="M141.95 431.356C141.292 431.414 140.646 431.565 140.03 431.804L143.251 424.709C143.36 424.466 143.369 424.19 143.275 423.941C143.181 423.692 142.992 423.491 142.749 423.382C142.507 423.272 142.231 423.264 141.982 423.358C141.733 423.452 141.532 423.641 141.422 423.884L136.211 435.382C135.562 436.779 135.392 438.351 135.728 439.854C136.063 441.358 136.885 442.709 138.067 443.697C139.248 444.686 140.722 445.257 142.261 445.323C143.8 445.389 145.318 444.945 146.579 444.06C147.84 443.176 148.774 441.9 149.237 440.431C149.699 438.961 149.664 437.381 149.137 435.933C148.609 434.486 147.619 433.253 146.32 432.425C145.021 431.598 143.485 431.222 141.95 431.356ZM142.996 443.31C142.011 443.397 141.023 443.189 140.156 442.713C139.289 442.237 138.582 441.515 138.125 440.638C137.669 439.761 137.483 438.768 137.59 437.785C137.698 436.802 138.095 435.873 138.73 435.115C139.366 434.358 140.212 433.806 141.161 433.529C142.111 433.252 143.121 433.263 144.064 433.561C145.007 433.858 145.841 434.429 146.46 435.2C147.079 435.971 147.455 436.909 147.542 437.894C147.657 439.215 147.243 440.528 146.391 441.543C145.538 442.559 144.317 443.195 142.996 443.31Z" fill="#3C402B"/>
<path d="M153.575 495.876L149.341 516.323C149.282 516.577 149.126 516.799 148.906 516.939C148.686 517.08 148.42 517.129 148.164 517.076C147.908 517.023 147.684 516.872 147.538 516.656C147.392 516.439 147.337 516.174 147.384 515.917L151.345 496.786L142.722 497.541C142.458 497.564 142.195 497.481 141.992 497.311C141.789 497.14 141.662 496.896 141.638 496.632C141.615 496.367 141.698 496.105 141.869 495.902C142.039 495.699 142.283 495.571 142.547 495.548L152.509 494.677C152.665 494.663 152.821 494.686 152.966 494.744C153.111 494.801 153.24 494.892 153.344 495.009C153.447 495.125 153.522 495.264 153.562 495.415C153.603 495.565 153.607 495.723 153.575 495.876Z" fill="#3C402B"/>
<path d="M158.098 576.409C159.075 575.589 159.765 574.478 160.068 573.239C160.37 572 160.27 570.696 159.782 569.517C159.293 568.339 158.442 567.347 157.351 566.685C156.26 566.023 154.987 565.726 153.716 565.838C152.445 565.949 151.243 566.462 150.283 567.303C149.324 568.144 148.658 569.269 148.382 570.515C148.105 571.76 148.233 573.061 148.746 574.229C149.26 575.397 150.132 576.371 151.237 577.01C149.962 577.885 149.012 579.158 148.537 580.629C148.062 582.101 148.087 583.689 148.609 585.144C149.132 586.6 150.121 587.842 151.424 588.676C152.726 589.51 154.268 589.889 155.808 589.754C157.349 589.619 158.802 588.978 159.939 587.931C161.077 586.883 161.836 585.488 162.098 583.964C162.359 582.44 162.108 580.872 161.385 579.505C160.661 578.139 159.505 577.05 158.098 576.409ZM150.255 572.168C150.186 571.38 150.352 570.589 150.732 569.895C151.113 569.202 151.691 568.637 152.392 568.271C153.094 567.906 153.888 567.757 154.675 567.843C155.461 567.929 156.204 568.247 156.811 568.755C157.417 569.264 157.858 569.941 158.08 570.7C158.301 571.46 158.292 572.268 158.054 573.022C157.816 573.777 157.36 574.444 156.743 574.939C156.126 575.434 155.376 575.735 154.588 575.804C153.531 575.897 152.481 575.565 151.668 574.884C150.856 574.202 150.347 573.225 150.255 572.168ZM155.634 587.758C154.649 587.845 153.66 587.637 152.793 587.161C151.926 586.685 151.22 585.963 150.763 585.086C150.306 584.209 150.12 583.216 150.228 582.233C150.335 581.25 150.732 580.321 151.368 579.564C152.004 578.806 152.85 578.254 153.799 577.977C154.748 577.701 155.758 577.712 156.702 578.009C157.645 578.306 158.479 578.877 159.098 579.648C159.716 580.419 160.093 581.357 160.179 582.342C160.295 583.663 159.881 584.976 159.028 585.991C158.176 587.007 156.955 587.643 155.634 587.758Z" fill="#3C402B"/>
<path d="M160.079 638.564C159.08 638.651 158.111 638.952 157.238 639.446C156.366 639.94 155.609 640.615 155.02 641.427C154.431 642.239 154.024 643.168 153.825 644.151C153.626 645.134 153.641 646.148 153.868 647.124C154.095 648.101 154.53 649.018 155.142 649.812C155.754 650.606 156.53 651.26 157.417 651.728C158.304 652.196 159.281 652.469 160.282 652.526C161.283 652.584 162.285 652.426 163.22 652.063L159.999 659.159C159.889 659.401 159.881 659.677 159.975 659.926C160.069 660.175 160.258 660.376 160.501 660.485C160.743 660.595 161.019 660.603 161.268 660.509C161.517 660.415 161.718 660.226 161.828 659.984L167.039 648.486C167.556 647.372 167.771 646.142 167.663 644.919C167.554 643.696 167.126 642.523 166.421 641.518C165.715 640.512 164.758 639.71 163.645 639.192C162.532 638.674 161.302 638.457 160.079 638.564ZM161.125 650.519C160.14 650.605 159.151 650.397 158.284 649.921C157.417 649.446 156.711 648.724 156.254 647.847C155.798 646.969 155.611 645.976 155.719 644.993C155.827 644.01 156.223 643.081 156.859 642.324C157.495 641.566 158.341 641.014 159.29 640.738C160.239 640.461 161.25 640.472 162.193 640.769C163.136 641.067 163.97 641.637 164.589 642.408C165.208 643.179 165.584 644.117 165.67 645.102C165.786 646.423 165.372 647.736 164.519 648.752C163.667 649.768 162.446 650.403 161.125 650.519Z" fill="#3C402B"/>
<path opacity="0.2" d="M146.547 674.299C144.371 673.916 142.919 671.841 143.302 669.666L208.247 301.348C208.439 300.26 209.476 299.533 210.564 299.725L211.548 299.899L227.294 249.612C227.594 248.653 228.56 248.065 229.55 248.24L229.789 248.282L231.251 244.144C231.577 243.223 232.521 242.671 233.484 242.841L234.77 243.068L238.548 231.529C238.905 230.438 240.01 229.776 241.14 229.975C242.27 230.174 243.082 231.174 243.044 232.321L242.648 244.457L243.934 244.684C244.897 244.854 245.596 245.694 245.587 246.672L245.546 251.06L245.784 251.103C246.774 251.277 247.481 252.159 247.435 253.163L245.032 305.803L246.017 305.977C247.104 306.168 247.831 307.206 247.639 308.293L182.695 676.612C182.311 678.787 180.236 680.24 178.061 679.856L146.547 674.299Z" fill="#3C402B"/>
<path d="M140.81 666.579C140.378 669.026 142.013 671.36 144.46 671.792L175.974 677.349C178.421 677.78 180.755 676.146 181.187 673.698L246.131 305.38C246.371 304.021 245.463 302.724 244.104 302.484L243.551 302.387L245.935 250.186C245.989 248.992 245.192 247.936 244.05 247.648L244.087 243.677C244.098 242.455 243.225 241.404 242.021 241.191L241.162 241.04L241.544 229.338C241.59 227.942 240.602 226.725 239.227 226.483C237.852 226.24 236.508 227.046 236.073 228.373L232.43 239.5L231.571 239.349C230.367 239.136 229.187 239.825 228.779 240.978L227.456 244.722C226.284 244.602 225.174 245.322 224.817 246.463L209.203 296.33L208.65 296.233C207.291 295.993 205.994 296.901 205.754 298.261L140.81 666.579Z" stroke="#3C402B"/>
<path d="M141.303 666.666C140.919 668.842 142.372 670.916 144.547 671.3L176.061 676.857C178.237 677.24 180.311 675.788 180.695 673.612L245.639 305.294C245.831 304.206 245.105 303.169 244.017 302.977L208.564 296.726C207.476 296.534 206.439 297.26 206.247 298.348L141.303 666.666Z" fill="#1F2310"/>
<g opacity="0.2">
<path d="M204.978 377.524L196.824 376.087L197.431 372.644C197.445 372.564 197.468 372.459 197.498 372.329C197.526 372.193 197.559 372.075 197.596 371.972C197.758 371.499 197.988 371.129 198.288 370.862C198.589 370.592 198.939 370.416 199.339 370.335C199.735 370.253 200.161 370.252 200.618 370.333C201.075 370.414 201.477 370.562 201.824 370.779C202.168 370.992 202.435 371.276 202.625 371.633C202.816 371.986 202.906 372.41 202.897 372.907C202.893 373.015 202.883 373.138 202.867 373.275C202.85 373.412 202.835 373.519 202.822 373.594L202.487 375.497L205.25 375.984L204.978 377.524ZM201.048 375.243L201.372 373.409C201.386 373.329 201.397 373.242 201.406 373.146C201.415 373.05 201.416 372.961 201.407 372.878C201.387 372.66 201.321 372.483 201.209 372.346C201.093 372.209 200.957 372.105 200.802 372.035C200.644 371.961 200.492 371.91 200.344 371.885C200.197 371.859 200.038 371.854 199.868 371.871C199.695 371.883 199.532 371.934 199.38 372.024C199.224 372.113 199.099 372.257 199.006 372.454C198.969 372.53 198.939 372.614 198.915 372.707C198.891 372.8 198.872 372.886 198.858 372.965L198.534 374.8L201.048 375.243Z" fill="white"/>
<path d="M206.277 370.159L198.123 368.721L198.395 367.18L201.747 367.772L202.39 364.125L199.038 363.534L199.309 361.994L207.463 363.431L207.192 364.972L203.828 364.378L203.185 368.025L206.549 368.618L206.277 370.159Z" fill="white"/>
<path d="M208.531 358.372C208.387 359.187 208.085 359.86 207.626 360.39C207.167 360.917 206.591 361.284 205.896 361.492C205.202 361.697 204.432 361.725 203.587 361.576C202.741 361.427 202.027 361.137 201.445 360.708C200.864 360.274 200.448 359.732 200.197 359.08C199.946 358.425 199.893 357.69 200.037 356.874C200.18 356.059 200.482 355.388 200.94 354.862C201.4 354.331 201.976 353.964 202.67 353.76C203.365 353.551 204.135 353.521 204.981 353.671C205.826 353.82 206.54 354.111 207.121 354.544C207.703 354.974 208.119 355.516 208.37 356.172C208.621 356.823 208.674 357.557 208.531 358.372ZM207.081 358.116C207.18 357.601 207.144 357.151 206.975 356.766C206.805 356.382 206.524 356.068 206.131 355.824C205.739 355.575 205.259 355.401 204.693 355.301C204.127 355.202 203.621 355.202 203.175 355.302C202.73 355.399 202.362 355.599 202.071 355.902C201.78 356.205 201.585 356.614 201.486 357.13C201.388 357.646 201.423 358.096 201.593 358.48C201.762 358.864 202.043 359.18 202.436 359.428C202.828 359.673 203.308 359.845 203.874 359.945C204.441 360.045 204.946 360.046 205.391 359.95C205.837 359.849 206.206 359.647 206.497 359.345C206.787 359.042 206.982 358.632 207.081 358.116Z" fill="white"/>
<path d="M209.97 350.209C209.864 350.813 209.662 351.339 209.364 351.789C209.064 352.234 208.688 352.579 208.236 352.822C207.782 353.061 207.271 353.174 206.706 353.16L206.751 351.509C207.239 351.479 207.641 351.308 207.957 350.998C208.272 350.688 208.47 350.306 208.55 349.853C208.594 349.6 208.598 349.348 208.561 349.096C208.523 348.844 208.441 348.629 208.312 348.451C208.185 348.269 208.008 348.158 207.781 348.118C207.698 348.103 207.617 348.102 207.537 348.115C207.453 348.124 207.373 348.151 207.295 348.195C207.217 348.24 207.138 348.31 207.059 348.405C206.981 348.496 206.903 348.617 206.826 348.767L205.83 350.775C205.757 350.925 205.66 351.099 205.539 351.296C205.42 351.489 205.265 351.67 205.076 351.839C204.886 352.008 204.654 352.136 204.377 352.224C204.098 352.307 203.764 352.314 203.375 352.245C202.828 352.149 202.397 351.931 202.083 351.591C201.77 351.252 201.565 350.836 201.468 350.344C201.372 349.852 201.375 349.328 201.477 348.769C201.584 348.208 201.769 347.723 202.032 347.314C202.295 346.905 202.63 346.583 203.037 346.347C203.441 346.111 203.909 345.971 204.442 345.929L204.432 347.644C204.157 347.658 203.915 347.73 203.705 347.86C203.495 347.991 203.323 348.161 203.188 348.371C203.055 348.577 202.963 348.802 202.912 349.046C202.862 349.286 202.855 349.52 202.893 349.749C202.927 349.973 203.002 350.165 203.118 350.326C203.234 350.483 203.389 350.578 203.581 350.612C203.759 350.643 203.914 350.614 204.046 350.524C204.175 350.434 204.288 350.312 204.385 350.158C204.483 350.004 204.569 349.844 204.645 349.678L205.28 348.331C205.374 348.129 205.491 347.908 205.63 347.668C205.766 347.428 205.938 347.205 206.145 347C206.349 346.791 206.599 346.634 206.893 346.531C207.189 346.423 207.542 346.406 207.954 346.478C208.392 346.555 208.758 346.716 209.054 346.958C209.347 347.197 209.574 347.49 209.734 347.837C209.891 348.184 209.988 348.563 210.024 348.974C210.061 349.382 210.043 349.793 209.97 350.209Z" fill="white"/>
<path d="M210.597 345.661L202.443 344.223L203.05 340.78C203.064 340.701 203.086 340.596 203.117 340.465C203.145 340.33 203.177 340.211 203.215 340.109C203.376 339.635 203.607 339.265 203.907 338.999C204.207 338.729 204.558 338.553 204.957 338.472C205.353 338.39 205.78 338.389 206.236 338.47C206.693 338.55 207.095 338.699 207.442 338.916C207.786 339.128 208.053 339.413 208.243 339.769C208.434 340.122 208.525 340.547 208.515 341.043C208.511 341.152 208.501 341.274 208.485 341.412C208.469 341.549 208.454 341.655 208.44 341.731L208.105 343.633L210.868 344.121L210.597 345.661ZM206.667 343.38L206.99 341.545C207.004 341.466 207.016 341.378 207.025 341.283C207.034 341.187 207.034 341.097 207.025 341.014C207.005 340.797 206.939 340.62 206.827 340.483C206.711 340.346 206.576 340.242 206.421 340.172C206.263 340.097 206.11 340.047 205.963 340.021C205.815 339.995 205.657 339.99 205.486 340.007C205.313 340.019 205.15 340.07 204.998 340.16C204.842 340.25 204.718 340.393 204.624 340.591C204.588 340.666 204.557 340.75 204.533 340.843C204.509 340.936 204.49 341.023 204.476 341.102L204.152 342.937L206.667 343.38Z" fill="white"/>
<path d="M211.896 338.295L203.741 336.857L204.013 335.317L207.365 335.908L208.008 332.261L204.656 331.67L204.928 330.13L213.082 331.568L212.81 333.108L209.447 332.515L208.804 336.162L212.167 336.755L211.896 338.295Z" fill="white"/>
<path d="M214.149 326.509C214.005 327.324 213.704 327.997 213.244 328.527C212.786 329.053 212.209 329.421 211.514 329.629C210.82 329.834 210.051 329.861 209.205 329.712C208.359 329.563 207.646 329.274 207.064 328.844C206.482 328.411 206.066 327.868 205.815 327.217C205.565 326.562 205.511 325.826 205.655 325.011C205.799 324.195 206.1 323.525 206.559 322.998C207.018 322.468 207.595 322.101 208.289 321.896C208.983 321.688 209.753 321.658 210.599 321.807C211.445 321.956 212.158 322.247 212.74 322.681C213.322 323.11 213.738 323.653 213.988 324.308C214.239 324.96 214.293 325.693 214.149 326.509ZM212.699 326.253C212.798 325.737 212.763 325.287 212.593 324.903C212.423 324.519 212.142 324.205 211.749 323.96C211.357 323.712 210.878 323.538 210.311 323.438C209.745 323.338 209.239 323.338 208.793 323.439C208.348 323.536 207.98 323.735 207.689 324.038C207.398 324.341 207.203 324.751 207.105 325.266C207.006 325.782 207.041 326.232 207.211 326.616C207.381 327.001 207.662 327.317 208.054 327.565C208.447 327.809 208.926 327.982 209.493 328.081C210.059 328.181 210.565 328.183 211.01 328.086C211.456 327.986 211.824 327.784 212.115 327.481C212.406 327.178 212.601 326.769 212.699 326.253Z" fill="white"/>
<path d="M214.875 321.396L206.721 319.958L207.328 316.515C207.342 316.436 207.365 316.331 207.396 316.2C207.423 316.065 207.456 315.946 207.493 315.843C207.655 315.37 207.885 315 208.185 314.733C208.486 314.463 208.836 314.288 209.236 314.206C209.632 314.124 210.058 314.124 210.515 314.204C211.198 314.325 211.753 314.598 212.18 315.023C212.604 315.448 212.808 316.033 212.794 316.778L212.719 317.466L212.384 319.368L215.147 319.855L214.875 321.396ZM215.686 316.798L212.084 317.821L212.058 316.181L215.994 315.053L215.686 316.798ZM210.945 319.115L211.269 317.28C211.283 317.201 211.294 317.113 211.303 317.017C211.313 316.922 211.313 316.832 211.304 316.749C211.284 316.531 211.218 316.354 211.106 316.218C210.99 316.08 210.854 315.977 210.699 315.907C210.541 315.832 210.389 315.782 210.241 315.756C210.094 315.73 209.935 315.725 209.765 315.742C209.592 315.754 209.429 315.805 209.277 315.895C209.121 315.984 208.996 316.128 208.903 316.326C208.866 316.401 208.836 316.485 208.812 316.578C208.788 316.671 208.769 316.757 208.755 316.837L208.431 318.671L210.945 319.115Z" fill="white"/>
</g>
<path opacity="0.2" d="M141.303 666.666C140.919 668.842 142.372 670.916 144.547 671.3L148.486 671.995L214.473 297.768L208.564 296.726C207.476 296.534 206.439 297.26 206.247 298.348L141.303 666.666Z" fill="white"/>
<path d="M209.548 296.898L243.032 302.802L245.435 250.163C245.481 249.159 244.774 248.277 243.784 248.102L227.55 245.24C226.56 245.065 225.594 245.652 225.294 246.612L209.548 296.898Z" fill="#222516"/>
<path opacity="0.2" d="M209.548 296.898L215.457 297.94L230.743 245.803L227.55 245.24C226.56 245.065 225.594 245.652 225.294 246.612L209.548 296.898Z" fill="white"/>
<path d="M227.789 245.281L243.545 248.06L243.587 243.671C243.596 242.694 242.897 241.853 241.934 241.683L231.484 239.84C230.521 239.67 229.577 240.222 229.251 241.143L227.789 245.281Z" fill="#2E321F"/>
<path opacity="0.2" d="M227.789 245.281L231.728 245.976L233.755 240.241L231.484 239.84C230.521 239.67 229.577 240.222 229.251 241.143L227.789 245.281Z" fill="white"/>
<path d="M232.77 240.068L240.648 241.458L241.045 229.322C241.082 228.175 240.27 227.175 239.14 226.976V226.976C238.01 226.776 236.905 227.438 236.548 228.529L232.77 240.068Z" fill="#C4E456"/>
<path opacity="0.2" d="M232.77 240.068L234.74 240.416L239.14 226.976V226.976C238.01 226.776 236.905 227.438 236.548 228.529L232.77 240.068Z" fill="white"/>
</svg>
