<svg width="272" height="734" viewBox="0 0 272 734" fill="none" xmlns="http://www.w3.org/2000/svg">
<rect opacity="0.3" x="0.458325" y="13.0963" width="145" height="720" rx="8.5" transform="rotate(-5 0.458325 13.0963)" stroke="#3C402B"/>
<g opacity="0.3">
<path d="M1.69727 21.5203L56.9861 16.6831C57.2612 16.6591 57.5037 16.8625 57.5277 17.1376C57.5518 17.4127 57.3483 17.6552 57.0732 17.6793L1.78442 22.5165L1.69727 21.5203Z" fill="#3C402B"/>
<path d="M2.48169 30.4861L57.7705 25.6489C58.0456 25.6249 58.2881 25.8284 58.3122 26.1035C58.3362 26.3786 58.1327 26.6211 57.8577 26.6451L2.56885 31.4823L2.48169 30.4861Z" fill="#3C402B"/>
<path d="M3.26611 39.4517L58.5549 34.6145C58.83 34.5904 59.0725 34.7939 59.0966 35.069C59.1207 35.3441 58.9172 35.5866 58.6421 35.6107L3.35327 40.4479L3.26611 39.4517Z" fill="#3C402B"/>
<path d="M4.05054 48.4175L59.3393 43.5803C59.6144 43.5563 59.857 43.7598 59.881 44.0349C59.9051 44.3099 59.7016 44.5525 59.4265 44.5765L4.13769 49.4137L4.05054 48.4175Z" fill="#3C402B"/>
<path d="M4.83496 57.3833L60.1238 52.5462C60.3989 52.5221 60.6414 52.7256 60.6654 53.0007C60.6895 53.2758 60.486 53.5183 60.2109 53.5424L4.92212 58.3795L4.83496 57.3833Z" fill="#3C402B"/>
<path d="M5.61938 66.3491L60.9082 61.512C61.1833 61.4879 61.4258 61.6914 61.4499 61.9665C61.4739 62.2416 61.2704 62.4841 60.9953 62.5082L5.70654 67.3453L5.61938 66.3491Z" fill="#3C402B"/>
<path d="M6.40356 75.3147L61.6924 70.4776C61.9675 70.4535 62.21 70.657 62.234 70.9321C62.2581 71.2072 62.0546 71.4497 61.7795 71.4737L6.49072 76.3109L6.40356 75.3147Z" fill="#3C402B"/>
<path d="M7.18799 84.2805L94.355 76.6544C94.6301 76.6303 94.8726 76.8338 94.8967 77.1089C94.9208 77.384 94.7173 77.6265 94.4422 77.6506L7.27514 85.2767L7.18799 84.2805Z" fill="#3C402B"/>
</g>
<g opacity="0.3">
<path d="M7.97241 93.2463L63.2612 88.4092C63.5363 88.3851 63.7788 88.5886 63.8029 88.8637C63.827 89.1388 63.6235 89.3813 63.3484 89.4054L8.05957 94.2425L7.97241 93.2463Z" fill="#3C402B"/>
<path d="M8.75684 102.212L64.0456 97.375C64.3207 97.3509 64.5633 97.5544 64.5873 97.8295C64.6114 98.1046 64.4079 98.3471 64.1328 98.3712L8.84399 103.208L8.75684 102.212Z" fill="#3C402B"/>
<path d="M9.54126 111.178L64.8301 106.341C65.1052 106.317 65.3477 106.52 65.3717 106.795C65.3958 107.07 65.1923 107.313 64.9172 107.337L9.62842 112.174L9.54126 111.178Z" fill="#3C402B"/>
<path d="M10.3257 120.144L65.6145 115.306C65.8896 115.282 66.1321 115.486 66.1562 115.761C66.1802 116.036 65.9767 116.279 65.7016 116.303L10.4128 121.14L10.3257 120.144Z" fill="#3C402B"/>
<path d="M11.1101 129.109L66.3989 124.272C66.674 124.248 66.9165 124.452 66.9406 124.727C66.9647 125.002 66.7612 125.244 66.4861 125.268L11.1973 130.106L11.1101 129.109Z" fill="#3C402B"/>
<path d="M11.8945 138.075L67.1833 133.238C67.4584 133.214 67.7009 133.417 67.725 133.693C67.7491 133.968 67.5456 134.21 67.2705 134.234L11.9817 139.071L11.8945 138.075Z" fill="#3C402B"/>
<path d="M12.6787 147.041L67.9675 142.204C68.2426 142.18 68.4851 142.383 68.5092 142.658C68.5333 142.933 68.3298 143.176 68.0547 143.2L12.7659 148.037L12.6787 147.041Z" fill="#3C402B"/>
<path d="M13.4631 156.007L100.63 148.38C100.905 148.356 101.148 148.56 101.172 148.835C101.196 149.11 100.992 149.353 100.717 149.377L13.5503 157.003L13.4631 156.007Z" fill="#3C402B"/>
</g>
<g opacity="0.3">
<path d="M14.2476 164.972L69.5364 160.135C69.8115 160.111 70.054 160.315 70.078 160.59C70.1021 160.865 69.8986 161.107 69.6235 161.131L14.3347 165.969L14.2476 164.972Z" fill="#3C402B"/>
<path d="M15.032 173.938L70.3208 169.101C70.5959 169.077 70.8384 169.281 70.8625 169.556C70.8865 169.831 70.683 170.073 70.4079 170.097L15.1191 174.934L15.032 173.938Z" fill="#3C402B"/>
<path d="M15.8164 182.904L71.1052 178.067C71.3803 178.043 71.6228 178.246 71.6469 178.521C71.671 178.796 71.4675 179.039 71.1924 179.063L15.9036 183.9L15.8164 182.904Z" fill="#3C402B"/>
<path d="M16.6008 191.87L71.8896 187.032C72.1647 187.008 72.4072 187.212 72.4313 187.487C72.4554 187.762 72.2519 188.005 71.9768 188.029L16.688 192.866L16.6008 191.87Z" fill="#3C402B"/>
<path d="M17.3853 200.835L72.6741 195.998C72.9492 195.974 73.1917 196.178 73.2157 196.453C73.2398 196.728 73.0363 196.97 72.7612 196.995L17.4724 201.832L17.3853 200.835Z" fill="#3C402B"/>
<path d="M18.1697 209.801L73.4585 204.964C73.7336 204.94 73.9761 205.144 74.0002 205.419C74.0242 205.694 73.8207 205.936 73.5456 205.96L18.2568 210.797L18.1697 209.801Z" fill="#3C402B"/>
<path d="M18.9539 218.767L74.2427 213.93C74.5178 213.906 74.7603 214.109 74.7843 214.384C74.8084 214.659 74.6049 214.902 74.3298 214.926L19.041 219.763L18.9539 218.767Z" fill="#3C402B"/>
<path d="M19.7383 227.733L106.905 220.107C107.18 220.082 107.423 220.286 107.447 220.561C107.471 220.836 107.268 221.079 106.992 221.103L19.8254 228.729L19.7383 227.733Z" fill="#3C402B"/>
</g>
<g opacity="0.3">
<path d="M20.5229 236.698L75.8118 231.861C76.0868 231.837 76.3294 232.041 76.3534 232.316C76.3775 232.591 76.174 232.833 75.8989 232.858L20.6101 237.695L20.5229 236.698Z" fill="#3C402B"/>
<path d="M21.3074 245.664L76.5962 240.827C76.8713 240.803 77.1138 241.007 77.1379 241.282C77.1619 241.557 76.9584 241.799 76.6833 241.823L21.3945 246.661L21.3074 245.664Z" fill="#3C402B"/>
<path d="M22.0918 254.63L77.3806 249.793C77.6557 249.769 77.8982 249.972 77.9223 250.247C77.9463 250.522 77.7429 250.765 77.4678 250.789L22.179 255.626L22.0918 254.63Z" fill="#3C402B"/>
<path d="M22.8762 263.596L78.165 258.759C78.4401 258.734 78.6826 258.938 78.7067 259.213C78.7308 259.488 78.5273 259.731 78.2522 259.755L22.9634 264.592L22.8762 263.596Z" fill="#3C402B"/>
<path d="M23.6606 272.562L78.9495 267.724C79.2245 267.7 79.4671 267.904 79.4911 268.179C79.5152 268.454 79.3117 268.697 79.0366 268.721L23.7478 273.558L23.6606 272.562Z" fill="#3C402B"/>
<path d="M24.4451 281.527L79.7339 276.69C80.009 276.666 80.2515 276.87 80.2756 277.145C80.2996 277.42 80.0961 277.662 79.821 277.686L24.5322 282.524L24.4451 281.527Z" fill="#3C402B"/>
<path d="M25.2292 290.493L80.5181 285.656C80.7931 285.632 81.0357 285.835 81.0597 286.11C81.0838 286.385 80.8803 286.628 80.6052 286.652L25.3164 291.489L25.2292 290.493Z" fill="#3C402B"/>
<path d="M26.0137 299.459L113.181 291.833C113.456 291.809 113.698 292.012 113.722 292.287C113.746 292.562 113.543 292.805 113.268 292.829L26.1008 300.455L26.0137 299.459Z" fill="#3C402B"/>
</g>
<g opacity="0.3">
<path d="M26.7981 308.424L82.0869 303.587C82.362 303.563 82.6045 303.767 82.6286 304.042C82.6526 304.317 82.4491 304.559 82.1741 304.583L26.8853 309.421L26.7981 308.424Z" fill="#3C402B"/>
<path d="M27.5825 317.39L82.8713 312.553C83.1464 312.529 83.3889 312.732 83.413 313.008C83.4371 313.283 83.2336 313.525 82.9585 313.549L27.6697 318.386L27.5825 317.39Z" fill="#3C402B"/>
<path d="M28.3669 326.356L83.6558 321.519C83.9308 321.495 84.1734 321.698 84.1974 321.973C84.2215 322.248 84.018 322.491 83.7429 322.515L28.4541 327.352L28.3669 326.356Z" fill="#3C402B"/>
<path d="M29.1514 335.322L84.4402 330.484C84.7153 330.46 84.9578 330.664 84.9818 330.939C85.0059 331.214 84.8024 331.457 84.5273 331.481L29.2385 336.318L29.1514 335.322Z" fill="#3C402B"/>
<path d="M29.9358 344.287L85.2246 339.45C85.4997 339.426 85.7422 339.63 85.7663 339.905C85.7903 340.18 85.5868 340.422 85.3118 340.446L30.0229 345.284L29.9358 344.287Z" fill="#3C402B"/>
<path d="M30.7202 353.253L86.009 348.416C86.2841 348.392 86.5266 348.595 86.5507 348.871C86.5748 349.146 86.3713 349.388 86.0962 349.412L30.8074 354.249L30.7202 353.253Z" fill="#3C402B"/>
<path d="M31.5044 362.219L86.7932 357.382C87.0683 357.358 87.3108 357.561 87.3349 357.836C87.3589 358.111 87.1554 358.354 86.8804 358.378L31.5916 363.215L31.5044 362.219Z" fill="#3C402B"/>
<path d="M32.2888 371.185L119.456 363.558C119.731 363.534 119.973 363.738 119.998 364.013C120.022 364.288 119.818 364.531 119.543 364.555L32.376 372.181L32.2888 371.185Z" fill="#3C402B"/>
</g>
<g opacity="0.3">
<path d="M33.0732 380.15L88.362 375.313C88.6371 375.289 88.8797 375.493 88.9037 375.768C88.9278 376.043 88.7243 376.285 88.4492 376.309L33.1604 381.147L33.0732 380.15Z" fill="#3C402B"/>
<path d="M33.8577 389.116L89.1465 384.279C89.4216 384.255 89.6641 384.458 89.6881 384.734C89.7122 385.009 89.5087 385.251 89.2336 385.275L33.9448 390.112L33.8577 389.116Z" fill="#3C402B"/>
<path d="M34.6421 398.082L89.9309 393.245C90.206 393.221 90.4485 393.424 90.4726 393.699C90.4966 393.974 90.2931 394.217 90.0181 394.241L34.7292 399.078L34.6421 398.082Z" fill="#3C402B"/>
<path d="M35.4265 407.048L90.7153 402.21C90.9904 402.186 91.2329 402.39 91.257 402.665C91.2811 402.94 91.0776 403.183 90.8025 403.207L35.5137 408.044L35.4265 407.048Z" fill="#3C402B"/>
<path d="M36.2109 416.013L91.4997 411.176C91.7748 411.152 92.0174 411.356 92.0414 411.631C92.0655 411.906 91.862 412.148 91.5869 412.172L36.2981 417.01L36.2109 416.013Z" fill="#3C402B"/>
<path d="M36.9954 424.979L92.2842 420.142C92.5593 420.118 92.8018 420.322 92.8258 420.597C92.8499 420.872 92.6464 421.114 92.3713 421.138L37.0825 425.975L36.9954 424.979Z" fill="#3C402B"/>
<path d="M37.7795 433.945L93.0683 429.108C93.3434 429.084 93.586 429.287 93.61 429.562C93.6341 429.837 93.4306 430.08 93.1555 430.104L37.8667 434.941L37.7795 433.945Z" fill="#3C402B"/>
<path d="M38.564 442.911L125.731 435.285C126.006 435.26 126.249 435.464 126.273 435.739C126.297 436.014 126.093 436.257 125.818 436.281L38.6511 443.907L38.564 442.911Z" fill="#3C402B"/>
</g>
<g opacity="0.3">
<path d="M39.3486 451.876L94.6374 447.039C94.9125 447.015 95.155 447.219 95.1791 447.494C95.2032 447.769 94.9997 448.011 94.7246 448.036L39.4358 452.873L39.3486 451.876Z" fill="#3C402B"/>
<path d="M40.1331 460.842L95.4219 456.005C95.697 455.981 95.9395 456.185 95.9635 456.46C95.9876 456.735 95.7841 456.977 95.509 457.001L40.2202 461.838L40.1331 460.842Z" fill="#3C402B"/>
<path d="M40.9175 469.808L96.2063 464.971C96.4814 464.947 96.7239 465.15 96.748 465.425C96.772 465.7 96.5685 465.943 96.2934 465.967L41.0046 470.804L40.9175 469.808Z" fill="#3C402B"/>
<path d="M41.7019 478.774L96.9907 473.937C97.2658 473.912 97.5083 474.116 97.5324 474.391C97.5565 474.666 97.353 474.909 97.0779 474.933L41.7891 479.77L41.7019 478.774Z" fill="#3C402B"/>
<path d="M42.4863 487.74L97.7751 482.902C98.0502 482.878 98.2927 483.082 98.3168 483.357C98.3409 483.632 98.1374 483.874 97.8623 483.899L42.5735 488.736L42.4863 487.74Z" fill="#3C402B"/>
<path d="M43.2708 496.705L98.5596 491.868C98.8347 491.844 99.0772 492.048 99.1012 492.323C99.1253 492.598 98.9218 492.84 98.6467 492.864L43.3579 497.702L43.2708 496.705Z" fill="#3C402B"/>
<path d="M44.0549 505.671L99.3437 500.834C99.6188 500.81 99.8613 501.013 99.8854 501.288C99.9095 501.563 99.706 501.806 99.4309 501.83L44.1421 506.667L44.0549 505.671Z" fill="#3C402B"/>
<path d="M44.8394 514.637L132.006 507.011C132.281 506.987 132.524 507.19 132.548 507.465C132.572 507.74 132.369 507.983 132.094 508.007L44.9265 515.633L44.8394 514.637Z" fill="#3C402B"/>
</g>
<g opacity="0.3">
<path d="M45.6238 523.603L100.913 518.765C101.188 518.741 101.43 518.945 101.454 519.22C101.478 519.495 101.275 519.738 101 519.762L45.7109 524.599L45.6238 523.603Z" fill="#3C402B"/>
<path d="M46.4082 532.568L101.697 527.731C101.972 527.707 102.215 527.911 102.239 528.186C102.263 528.461 102.059 528.703 101.784 528.727L46.4954 533.565L46.4082 532.568Z" fill="#3C402B"/>
<path d="M47.1926 541.534L102.481 536.697C102.757 536.673 102.999 536.876 103.023 537.151C103.047 537.426 102.844 537.669 102.569 537.693L47.2798 542.53L47.1926 541.534Z" fill="#3C402B"/>
<path d="M47.9771 550.5L103.266 545.663C103.541 545.639 103.783 545.842 103.808 546.117C103.832 546.392 103.628 546.635 103.353 546.659L48.0642 551.496L47.9771 550.5Z" fill="#3C402B"/>
<path d="M48.7615 559.466L104.05 554.628C104.325 554.604 104.568 554.808 104.592 555.083C104.616 555.358 104.413 555.601 104.137 555.625L48.8486 560.462L48.7615 559.466Z" fill="#3C402B"/>
<path d="M49.5459 568.431L104.835 563.594C105.11 563.57 105.352 563.774 105.376 564.049C105.4 564.324 105.197 564.566 104.922 564.59L49.6331 569.428L49.5459 568.431Z" fill="#3C402B"/>
<path d="M50.3301 577.397L105.619 572.56C105.894 572.536 106.136 572.739 106.161 573.014C106.185 573.289 105.981 573.532 105.706 573.556L50.4172 578.393L50.3301 577.397Z" fill="#3C402B"/>
<path d="M51.1145 586.363L138.282 578.737C138.557 578.713 138.799 578.916 138.823 579.191C138.847 579.466 138.644 579.709 138.369 579.733L51.2017 587.359L51.1145 586.363Z" fill="#3C402B"/>
</g>
<g opacity="0.3">
<path d="M51.8989 595.329L107.188 590.491C107.463 590.467 107.705 590.671 107.729 590.946C107.753 591.221 107.55 591.464 107.275 591.488L51.9861 596.325L51.8989 595.329Z" fill="#3C402B"/>
<path d="M52.6833 604.294L107.972 599.457C108.247 599.433 108.49 599.637 108.514 599.912C108.538 600.187 108.334 600.429 108.059 600.453L52.7705 605.291L52.6833 604.294Z" fill="#3C402B"/>
<path d="M53.4678 613.26L108.757 608.423C109.032 608.399 109.274 608.602 109.298 608.877C109.322 609.152 109.119 609.395 108.844 609.419L53.5549 614.256L53.4678 613.26Z" fill="#3C402B"/>
<path d="M54.2522 622.226L109.541 617.389C109.816 617.365 110.059 617.568 110.083 617.843C110.107 618.118 109.903 618.361 109.628 618.385L54.3394 623.222L54.2522 622.226Z" fill="#3C402B"/>
<path d="M55.0366 631.192L110.325 626.355C110.601 626.33 110.843 626.534 110.867 626.809C110.891 627.084 110.688 627.327 110.413 627.351L55.1238 632.188L55.0366 631.192Z" fill="#3C402B"/>
<path d="M55.821 640.157L111.11 635.32C111.385 635.296 111.627 635.5 111.652 635.775C111.676 636.05 111.472 636.292 111.197 636.317L55.9082 641.154L55.821 640.157Z" fill="#3C402B"/>
<path d="M56.6052 649.123L111.894 644.286C112.169 644.262 112.412 644.465 112.436 644.74C112.46 645.016 112.256 645.258 111.981 645.282L56.6924 650.119L56.6052 649.123Z" fill="#3C402B"/>
<path d="M57.3896 658.089L144.557 650.463C144.832 650.439 145.074 650.642 145.098 650.917C145.122 651.192 144.919 651.435 144.644 651.459L57.4768 659.085L57.3896 658.089Z" fill="#3C402B"/>
</g>
<g opacity="0.3">
<path d="M58.1741 667.054L113.463 662.217C113.738 662.193 113.98 662.397 114.005 662.672C114.029 662.947 113.825 663.189 113.55 663.213L58.2612 668.051L58.1741 667.054Z" fill="#3C402B"/>
<path d="M58.9585 676.02L114.247 671.183C114.522 671.159 114.765 671.363 114.789 671.638C114.813 671.913 114.61 672.155 114.334 672.179L59.0457 677.016L58.9585 676.02Z" fill="#3C402B"/>
<path d="M59.7429 684.986L115.032 680.149C115.307 680.125 115.549 680.328 115.573 680.603C115.597 680.878 115.394 681.121 115.119 681.145L59.8301 685.982L59.7429 684.986Z" fill="#3C402B"/>
<path d="M60.5273 693.952L115.816 689.115C116.091 689.09 116.334 689.294 116.358 689.569C116.382 689.844 116.178 690.087 115.903 690.111L60.6145 694.948L60.5273 693.952Z" fill="#3C402B"/>
<path d="M61.3118 702.917L116.601 698.08C116.876 698.056 117.118 698.26 117.142 698.535C117.166 698.81 116.963 699.052 116.688 699.077L61.3989 703.914L61.3118 702.917Z" fill="#3C402B"/>
<path d="M62.0962 711.883L117.385 707.046C117.66 707.022 117.903 707.226 117.927 707.501C117.951 707.776 117.747 708.018 117.472 708.042L62.1833 712.879L62.0962 711.883Z" fill="#3C402B"/>
<path d="M62.8804 720.849L118.169 716.012C118.444 715.988 118.687 716.191 118.711 716.466C118.735 716.741 118.531 716.984 118.256 717.008L62.9675 721.845L62.8804 720.849Z" fill="#3C402B"/>
</g>
<path d="M111.957 65.5783L113.7 85.5022C113.723 85.7664 113.64 86.029 113.47 86.2321C113.299 86.4353 113.055 86.5624 112.791 86.5855C112.526 86.6086 112.264 86.5259 112.061 86.3554C111.858 86.1849 111.73 85.9407 111.707 85.6765L110.118 67.5121L106.829 69.8992C106.614 70.055 106.346 70.1193 106.084 70.0777C105.822 70.0362 105.587 69.8922 105.432 69.6776C105.276 69.4629 105.211 69.1951 105.253 68.9331C105.294 68.6711 105.438 68.4363 105.653 68.2805L110.373 64.8561C110.516 64.752 110.684 64.6879 110.86 64.6702C111.036 64.6524 111.214 64.6818 111.375 64.7552C111.536 64.8287 111.675 64.9436 111.777 65.0882C111.879 65.2328 111.941 65.4019 111.957 65.5783Z" fill="#3C402B"/>
<path d="M123.96 156.88C123.983 157.144 123.9 157.406 123.73 157.61C123.559 157.813 123.315 157.94 123.051 157.963L113.089 158.835C112.904 158.851 112.718 158.815 112.552 158.732C112.386 158.648 112.247 158.52 112.15 158.362C112.053 158.204 112.001 158.021 112.002 157.836C112.002 157.65 112.055 157.468 112.153 157.31L120.066 144.582C120.349 144.137 120.541 143.64 120.631 143.12C120.722 142.6 120.708 142.067 120.591 141.552C120.475 141.037 120.257 140.551 119.952 140.12C119.646 139.69 119.258 139.324 118.811 139.045C118.363 138.765 117.865 138.576 117.344 138.49C116.824 138.404 116.291 138.421 115.777 138.542C115.263 138.662 114.778 138.883 114.35 139.192C113.922 139.501 113.559 139.891 113.283 140.341C113.117 140.606 112.983 140.89 112.883 141.187C112.798 141.438 112.617 141.645 112.379 141.763C112.142 141.881 111.867 141.9 111.616 141.815C111.364 141.73 111.157 141.549 111.039 141.312C110.921 141.074 110.903 140.799 110.987 140.548C111.257 139.745 111.694 139.009 112.269 138.387C112.845 137.766 113.545 137.273 114.324 136.941C115.103 136.609 115.944 136.446 116.791 136.463C117.638 136.479 118.471 136.675 119.237 137.037C120.003 137.399 120.683 137.918 121.234 138.562C121.784 139.206 122.192 139.959 122.431 140.771C122.669 141.584 122.733 142.438 122.618 143.277C122.503 144.116 122.212 144.921 121.763 145.64L114.907 156.668L122.877 155.971C123.141 155.947 123.403 156.03 123.607 156.201C123.81 156.371 123.937 156.615 123.96 156.88Z" fill="#3C402B"/>
<path d="M129.712 222.628C129.83 223.974 129.555 225.326 128.922 226.519C128.289 227.713 127.323 228.698 126.143 229.355C124.962 230.012 123.616 230.313 122.268 230.222C120.92 230.131 119.627 229.652 118.545 228.843C118.435 228.766 118.342 228.668 118.27 228.554C118.199 228.441 118.151 228.314 118.13 228.182C118.109 228.049 118.114 227.914 118.146 227.784C118.179 227.653 118.236 227.531 118.317 227.424C118.397 227.316 118.498 227.226 118.614 227.159C118.73 227.091 118.858 227.048 118.991 227.031C119.124 227.014 119.259 227.024 119.388 227.06C119.518 227.097 119.638 227.158 119.743 227.242C120.392 227.728 121.149 228.048 121.949 228.176C122.749 228.304 123.569 228.235 124.336 227.976C125.104 227.717 125.798 227.275 126.357 226.688C126.916 226.102 127.324 225.388 127.546 224.609C127.768 223.829 127.798 223.008 127.632 222.215C127.466 221.421 127.109 220.68 126.593 220.055C126.078 219.43 125.418 218.94 124.67 218.627C123.923 218.314 123.11 218.187 122.303 218.257C122.118 218.274 121.932 218.238 121.766 218.154C121.6 218.071 121.461 217.943 121.364 217.785C121.267 217.626 121.215 217.444 121.216 217.259C121.216 217.073 121.269 216.891 121.367 216.733L125.591 209.939L117.621 210.636C117.357 210.66 117.094 210.577 116.891 210.406C116.688 210.236 116.561 209.992 116.538 209.727C116.515 209.463 116.597 209.201 116.768 208.998C116.938 208.794 117.182 208.667 117.447 208.644L127.409 207.773C127.594 207.756 127.78 207.792 127.945 207.876C128.111 207.959 128.251 208.087 128.348 208.245C128.445 208.404 128.496 208.586 128.496 208.771C128.495 208.957 128.443 209.139 128.345 209.297L123.963 216.345C125.478 216.617 126.861 217.379 127.9 218.514C128.939 219.65 129.576 221.095 129.712 222.628Z" fill="#3C402B"/>
<path d="M136.896 293.271C136.919 293.535 136.837 293.798 136.666 294.001C136.496 294.204 136.251 294.331 135.987 294.354L133.995 294.529L134.518 300.506C134.541 300.77 134.458 301.033 134.288 301.236C134.117 301.439 133.873 301.566 133.609 301.589C133.345 301.612 133.082 301.53 132.879 301.359C132.676 301.189 132.549 300.944 132.525 300.68L132.003 294.703L123.037 295.487C122.877 295.501 122.717 295.477 122.568 295.415C122.42 295.354 122.289 295.258 122.186 295.136C122.083 295.014 122.01 294.868 121.975 294.712C121.939 294.556 121.942 294.393 121.983 294.238L125.743 279.856C125.817 279.607 125.985 279.396 126.211 279.268C126.437 279.14 126.704 279.106 126.956 279.172C127.207 279.237 127.423 279.398 127.557 279.62C127.692 279.843 127.735 280.108 127.677 280.362L124.276 293.371L131.828 292.711L131.305 286.733C131.282 286.469 131.365 286.207 131.535 286.003C131.706 285.8 131.95 285.673 132.214 285.65C132.479 285.627 132.741 285.71 132.944 285.88C133.147 286.051 133.275 286.295 133.298 286.559L133.821 292.536L135.813 292.362C136.077 292.339 136.34 292.422 136.543 292.592C136.746 292.763 136.873 293.007 136.896 293.271Z" fill="#3C402B"/>
<path d="M142.262 366.08C142.38 367.427 142.106 368.778 141.472 369.971C140.839 371.165 139.874 372.15 138.693 372.807C137.512 373.464 136.167 373.765 134.818 373.674C133.47 373.584 132.177 373.104 131.095 372.295C130.985 372.218 130.892 372.12 130.821 372.006C130.749 371.893 130.702 371.766 130.68 371.634C130.659 371.501 130.665 371.366 130.697 371.236C130.729 371.106 130.787 370.983 130.867 370.876C130.947 370.768 131.049 370.678 131.164 370.611C131.28 370.543 131.409 370.5 131.542 370.483C131.675 370.466 131.81 370.476 131.939 370.512C132.068 370.549 132.188 370.611 132.293 370.694C133.061 371.269 133.979 371.611 134.936 371.679C135.894 371.746 136.85 371.537 137.692 371.076C138.534 370.614 139.225 369.921 139.683 369.077C140.141 368.234 140.346 367.276 140.275 366.319C140.203 365.362 139.858 364.446 139.28 363.68C138.702 362.913 137.915 362.33 137.015 361.999C136.114 361.667 135.137 361.602 134.2 361.811C133.263 362.02 132.406 362.494 131.732 363.177C131.586 363.324 131.398 363.421 131.194 363.456C130.99 363.492 130.78 363.463 130.593 363.373C130.407 363.284 130.252 363.139 130.151 362.959C130.05 362.778 130.008 362.571 130.03 362.365L131.083 352.808C131.109 352.578 131.213 352.365 131.378 352.203C131.543 352.042 131.759 351.942 131.989 351.922L139.959 351.225C140.223 351.202 140.486 351.284 140.689 351.455C140.892 351.625 141.019 351.87 141.042 352.134C141.065 352.398 140.983 352.661 140.812 352.864C140.642 353.067 140.397 353.194 140.133 353.217L132.981 353.843L132.258 360.381C133.278 359.89 134.402 359.655 135.534 359.695C136.665 359.734 137.77 360.048 138.754 360.608C139.738 361.168 140.571 361.959 141.182 362.912C141.793 363.865 142.164 364.953 142.262 366.08Z" fill="#3C402B"/>
<path d="M141.95 431.356C141.292 431.414 140.646 431.565 140.03 431.804L143.251 424.709C143.36 424.466 143.369 424.19 143.275 423.941C143.181 423.692 142.992 423.491 142.749 423.382C142.507 423.272 142.231 423.264 141.982 423.358C141.733 423.452 141.532 423.641 141.422 423.884L136.211 435.382C135.562 436.779 135.392 438.351 135.728 439.854C136.063 441.358 136.885 442.709 138.067 443.697C139.248 444.686 140.722 445.257 142.261 445.323C143.8 445.389 145.318 444.945 146.579 444.06C147.84 443.176 148.774 441.9 149.237 440.431C149.699 438.961 149.664 437.381 149.137 435.933C148.609 434.486 147.619 433.253 146.32 432.425C145.021 431.598 143.485 431.222 141.95 431.356ZM142.996 443.31C142.011 443.397 141.023 443.189 140.156 442.713C139.289 442.237 138.582 441.515 138.125 440.638C137.669 439.761 137.483 438.768 137.59 437.785C137.698 436.802 138.095 435.873 138.73 435.115C139.366 434.358 140.212 433.806 141.161 433.529C142.111 433.252 143.121 433.263 144.064 433.561C145.007 433.858 145.841 434.429 146.46 435.2C147.079 435.971 147.455 436.909 147.542 437.894C147.657 439.215 147.243 440.528 146.391 441.543C145.538 442.559 144.317 443.195 142.996 443.31Z" fill="#3C402B"/>
<path d="M153.575 495.876L149.341 516.323C149.282 516.577 149.126 516.799 148.906 516.939C148.686 517.08 148.42 517.129 148.164 517.076C147.908 517.023 147.684 516.872 147.538 516.656C147.392 516.439 147.337 516.174 147.384 515.917L151.345 496.786L142.722 497.541C142.458 497.564 142.195 497.481 141.992 497.311C141.789 497.14 141.662 496.896 141.638 496.632C141.615 496.367 141.698 496.105 141.869 495.902C142.039 495.699 142.283 495.571 142.547 495.548L152.509 494.677C152.665 494.663 152.821 494.686 152.966 494.744C153.111 494.801 153.24 494.892 153.344 495.009C153.447 495.125 153.522 495.264 153.562 495.415C153.603 495.565 153.607 495.723 153.575 495.876Z" fill="#3C402B"/>
<path d="M158.098 576.409C159.075 575.589 159.765 574.478 160.068 573.239C160.37 572 160.27 570.696 159.782 569.517C159.293 568.339 158.442 567.347 157.351 566.685C156.26 566.023 154.987 565.726 153.716 565.838C152.445 565.949 151.243 566.462 150.283 567.303C149.324 568.144 148.658 569.269 148.382 570.515C148.105 571.76 148.233 573.061 148.746 574.229C149.26 575.397 150.132 576.371 151.237 577.01C149.962 577.885 149.012 579.158 148.537 580.629C148.062 582.101 148.087 583.689 148.609 585.144C149.132 586.6 150.121 587.842 151.424 588.676C152.726 589.51 154.268 589.889 155.808 589.754C157.349 589.619 158.802 588.978 159.939 587.931C161.077 586.883 161.836 585.488 162.098 583.964C162.359 582.44 162.108 580.872 161.385 579.505C160.661 578.139 159.505 577.05 158.098 576.409ZM150.255 572.168C150.186 571.38 150.352 570.589 150.732 569.895C151.113 569.202 151.691 568.637 152.392 568.271C153.094 567.906 153.888 567.757 154.675 567.843C155.461 567.929 156.204 568.247 156.811 568.755C157.417 569.264 157.858 569.941 158.08 570.7C158.301 571.46 158.292 572.268 158.054 573.022C157.816 573.777 157.36 574.444 156.743 574.939C156.126 575.434 155.376 575.735 154.588 575.804C153.531 575.897 152.481 575.565 151.668 574.884C150.856 574.202 150.347 573.225 150.255 572.168ZM155.634 587.758C154.649 587.845 153.66 587.637 152.793 587.161C151.926 586.685 151.22 585.963 150.763 585.086C150.306 584.209 150.12 583.216 150.228 582.233C150.335 581.25 150.732 580.321 151.368 579.564C152.004 578.806 152.85 578.254 153.799 577.977C154.748 577.701 155.758 577.712 156.702 578.009C157.645 578.306 158.479 578.877 159.098 579.648C159.716 580.419 160.093 581.357 160.179 582.342C160.295 583.663 159.881 584.976 159.028 585.991C158.176 587.007 156.955 587.643 155.634 587.758Z" fill="#3C402B"/>
<path d="M160.079 638.564C159.08 638.651 158.111 638.952 157.238 639.446C156.366 639.94 155.609 640.615 155.02 641.427C154.431 642.239 154.024 643.168 153.825 644.151C153.626 645.134 153.641 646.148 153.868 647.124C154.095 648.101 154.53 649.018 155.142 649.812C155.754 650.606 156.53 651.26 157.417 651.728C158.304 652.196 159.281 652.469 160.282 652.526C161.283 652.584 162.285 652.426 163.22 652.063L159.999 659.159C159.889 659.401 159.881 659.677 159.975 659.926C160.069 660.175 160.258 660.376 160.501 660.485C160.743 660.595 161.019 660.603 161.268 660.509C161.517 660.415 161.718 660.226 161.828 659.984L167.039 648.486C167.556 647.372 167.771 646.142 167.663 644.919C167.554 643.696 167.126 642.523 166.421 641.518C165.715 640.512 164.758 639.71 163.645 639.192C162.532 638.674 161.302 638.457 160.079 638.564ZM161.125 650.519C160.14 650.605 159.151 650.397 158.284 649.921C157.417 649.446 156.711 648.724 156.254 647.847C155.798 646.969 155.611 645.976 155.719 644.993C155.827 644.01 156.223 643.081 156.859 642.324C157.495 641.566 158.341 641.014 159.29 640.738C160.239 640.461 161.25 640.472 162.193 640.769C163.136 641.067 163.97 641.637 164.589 642.408C165.208 643.179 165.584 644.117 165.67 645.102C165.786 646.423 165.372 647.736 164.519 648.752C163.667 649.768 162.446 650.403 161.125 650.519Z" fill="#3C402B"/>
<path opacity="0.3" d="M140.81 666.579C140.378 669.026 142.013 671.36 144.46 671.792L175.974 677.349C178.421 677.78 180.755 676.146 181.187 673.698L246.131 305.38C246.371 304.021 245.463 302.724 244.104 302.484L243.551 302.387L245.935 250.186C245.989 248.992 245.192 247.936 244.05 247.648L244.087 243.677C244.098 242.455 243.225 241.404 242.021 241.191L241.162 241.04L241.544 229.338C241.59 227.942 240.602 226.725 239.227 226.483C237.852 226.24 236.508 227.046 236.073 228.373L232.43 239.5L231.571 239.349C230.367 239.136 229.187 239.825 228.779 240.978L227.456 244.722C226.284 244.602 225.174 245.322 224.817 246.463L209.203 296.33L208.65 296.233C207.291 295.993 205.994 296.901 205.754 298.261L140.81 666.579Z" stroke="#3C402B"/>
<g opacity="0.4">
<path d="M204.978 377.524L196.824 376.087L197.431 372.644C197.445 372.564 197.468 372.459 197.498 372.329C197.526 372.193 197.559 372.075 197.596 371.972C197.758 371.499 197.988 371.129 198.288 370.862C198.589 370.592 198.939 370.416 199.339 370.335C199.735 370.253 200.161 370.252 200.618 370.333C201.075 370.414 201.477 370.562 201.824 370.779C202.168 370.992 202.435 371.276 202.625 371.633C202.816 371.986 202.906 372.41 202.897 372.907C202.893 373.015 202.883 373.138 202.867 373.275C202.85 373.412 202.835 373.519 202.822 373.594L202.487 375.497L205.25 375.984L204.978 377.524ZM201.048 375.243L201.372 373.409C201.386 373.329 201.397 373.242 201.406 373.146C201.415 373.05 201.416 372.961 201.407 372.878C201.387 372.66 201.321 372.483 201.209 372.346C201.093 372.209 200.957 372.105 200.802 372.035C200.644 371.961 200.492 371.91 200.344 371.885C200.197 371.859 200.038 371.854 199.868 371.871C199.695 371.883 199.532 371.934 199.38 372.024C199.224 372.113 199.099 372.257 199.006 372.454C198.969 372.53 198.939 372.614 198.915 372.707C198.891 372.8 198.872 372.886 198.858 372.965L198.534 374.8L201.048 375.243Z" fill="#3C402B"/>
<path d="M206.277 370.159L198.123 368.721L198.395 367.18L201.747 367.772L202.39 364.125L199.038 363.534L199.309 361.994L207.463 363.431L207.192 364.972L203.828 364.378L203.185 368.025L206.549 368.618L206.277 370.159Z" fill="#3C402B"/>
<path d="M208.531 358.372C208.387 359.187 208.085 359.86 207.626 360.39C207.167 360.917 206.591 361.284 205.896 361.492C205.202 361.697 204.432 361.725 203.587 361.576C202.741 361.427 202.027 361.137 201.445 360.708C200.864 360.274 200.448 359.732 200.197 359.08C199.946 358.425 199.893 357.69 200.037 356.874C200.18 356.059 200.482 355.388 200.94 354.862C201.4 354.331 201.976 353.964 202.67 353.76C203.365 353.551 204.135 353.521 204.981 353.671C205.826 353.82 206.54 354.111 207.121 354.544C207.703 354.974 208.119 355.516 208.37 356.172C208.621 356.823 208.674 357.557 208.531 358.372ZM207.081 358.116C207.18 357.601 207.144 357.151 206.975 356.766C206.805 356.382 206.524 356.068 206.131 355.824C205.739 355.575 205.259 355.401 204.693 355.301C204.127 355.202 203.621 355.202 203.175 355.302C202.73 355.399 202.362 355.599 202.071 355.902C201.78 356.205 201.585 356.614 201.486 357.13C201.388 357.646 201.423 358.096 201.593 358.48C201.762 358.864 202.043 359.18 202.436 359.428C202.828 359.673 203.308 359.845 203.874 359.945C204.441 360.045 204.946 360.046 205.391 359.95C205.837 359.849 206.206 359.647 206.497 359.345C206.787 359.042 206.982 358.632 207.081 358.116Z" fill="#3C402B"/>
<path d="M209.97 350.209C209.864 350.813 209.662 351.339 209.364 351.789C209.064 352.234 208.688 352.579 208.236 352.822C207.782 353.061 207.271 353.174 206.706 353.16L206.751 351.509C207.239 351.479 207.641 351.308 207.957 350.998C208.272 350.688 208.47 350.306 208.55 349.853C208.594 349.6 208.598 349.348 208.561 349.096C208.523 348.844 208.441 348.629 208.312 348.451C208.185 348.269 208.008 348.158 207.781 348.118C207.698 348.103 207.617 348.102 207.537 348.115C207.453 348.124 207.373 348.151 207.295 348.195C207.217 348.24 207.138 348.31 207.059 348.405C206.981 348.496 206.903 348.617 206.826 348.767L205.83 350.775C205.757 350.925 205.66 351.099 205.539 351.296C205.42 351.489 205.265 351.67 205.076 351.839C204.886 352.008 204.654 352.136 204.377 352.224C204.098 352.307 203.764 352.314 203.375 352.245C202.828 352.149 202.397 351.931 202.083 351.591C201.77 351.252 201.565 350.836 201.468 350.344C201.372 349.852 201.375 349.328 201.477 348.769C201.584 348.208 201.769 347.723 202.032 347.314C202.295 346.905 202.63 346.583 203.037 346.347C203.441 346.111 203.909 345.971 204.442 345.929L204.432 347.644C204.157 347.658 203.915 347.73 203.705 347.86C203.495 347.991 203.323 348.161 203.188 348.371C203.055 348.577 202.963 348.802 202.912 349.046C202.862 349.286 202.855 349.52 202.893 349.749C202.927 349.973 203.002 350.165 203.118 350.326C203.234 350.483 203.389 350.578 203.581 350.612C203.759 350.643 203.914 350.614 204.046 350.524C204.175 350.434 204.288 350.312 204.385 350.158C204.483 350.004 204.569 349.844 204.645 349.678L205.28 348.331C205.374 348.129 205.491 347.908 205.63 347.668C205.766 347.428 205.938 347.205 206.145 347C206.349 346.791 206.599 346.634 206.893 346.531C207.189 346.423 207.542 346.406 207.954 346.478C208.392 346.555 208.758 346.716 209.054 346.958C209.347 347.197 209.574 347.49 209.734 347.837C209.891 348.184 209.988 348.563 210.024 348.974C210.061 349.382 210.043 349.793 209.97 350.209Z" fill="#3C402B"/>
<path d="M210.597 345.661L202.443 344.223L203.05 340.78C203.064 340.701 203.086 340.596 203.117 340.465C203.145 340.33 203.177 340.211 203.215 340.109C203.376 339.635 203.607 339.265 203.907 338.999C204.207 338.729 204.558 338.553 204.957 338.472C205.353 338.39 205.78 338.389 206.236 338.47C206.693 338.55 207.095 338.699 207.442 338.916C207.786 339.128 208.053 339.413 208.243 339.769C208.434 340.122 208.525 340.547 208.515 341.043C208.511 341.152 208.501 341.274 208.485 341.412C208.469 341.549 208.454 341.655 208.44 341.731L208.105 343.633L210.868 344.121L210.597 345.661ZM206.667 343.38L206.99 341.545C207.004 341.466 207.016 341.378 207.025 341.283C207.034 341.187 207.034 341.097 207.025 341.014C207.005 340.797 206.939 340.62 206.827 340.483C206.711 340.346 206.576 340.242 206.421 340.172C206.263 340.097 206.11 340.047 205.963 340.021C205.815 339.995 205.657 339.99 205.486 340.007C205.313 340.019 205.15 340.07 204.998 340.16C204.842 340.25 204.718 340.393 204.624 340.591C204.588 340.666 204.557 340.75 204.533 340.843C204.509 340.936 204.49 341.023 204.476 341.102L204.152 342.937L206.667 343.38Z" fill="#3C402B"/>
<path d="M211.896 338.295L203.741 336.857L204.013 335.317L207.365 335.908L208.008 332.261L204.656 331.67L204.928 330.13L213.082 331.568L212.81 333.108L209.447 332.515L208.804 336.162L212.167 336.755L211.896 338.295Z" fill="#3C402B"/>
<path d="M214.149 326.509C214.005 327.324 213.704 327.997 213.244 328.527C212.786 329.053 212.209 329.421 211.514 329.629C210.82 329.834 210.051 329.861 209.205 329.712C208.359 329.563 207.646 329.274 207.064 328.844C206.482 328.411 206.066 327.868 205.815 327.217C205.565 326.562 205.511 325.826 205.655 325.011C205.799 324.195 206.1 323.525 206.559 322.998C207.018 322.468 207.595 322.101 208.289 321.896C208.983 321.688 209.753 321.658 210.599 321.807C211.445 321.956 212.158 322.248 212.74 322.681C213.322 323.11 213.738 323.653 213.988 324.308C214.239 324.96 214.293 325.693 214.149 326.509ZM212.699 326.253C212.798 325.737 212.763 325.287 212.593 324.903C212.423 324.519 212.142 324.205 211.749 323.96C211.357 323.712 210.878 323.538 210.311 323.438C209.745 323.338 209.239 323.338 208.793 323.439C208.348 323.536 207.98 323.735 207.689 324.038C207.398 324.341 207.203 324.751 207.105 325.266C207.006 325.782 207.041 326.232 207.211 326.616C207.381 327.001 207.662 327.317 208.054 327.565C208.447 327.809 208.926 327.982 209.493 328.081C210.059 328.181 210.565 328.183 211.01 328.086C211.456 327.986 211.824 327.784 212.115 327.481C212.406 327.178 212.601 326.769 212.699 326.253Z" fill="#3C402B"/>
<path d="M214.875 321.396L206.721 319.958L207.328 316.515C207.342 316.436 207.365 316.331 207.396 316.2C207.423 316.065 207.456 315.946 207.493 315.843C207.655 315.37 207.885 315 208.185 314.733C208.486 314.463 208.836 314.288 209.236 314.206C209.632 314.124 210.058 314.124 210.515 314.204C211.198 314.325 211.753 314.598 212.18 315.023C212.604 315.448 212.808 316.033 212.794 316.778L212.719 317.466L212.384 319.368L215.147 319.855L214.875 321.396ZM215.686 316.798L212.084 317.821L212.058 316.181L215.994 315.053L215.686 316.798ZM210.945 319.115L211.269 317.28C211.283 317.201 211.294 317.113 211.303 317.017C211.313 316.922 211.313 316.832 211.304 316.749C211.284 316.531 211.218 316.354 211.106 316.218C210.99 316.08 210.854 315.977 210.699 315.907C210.541 315.832 210.389 315.782 210.241 315.756C210.094 315.73 209.935 315.725 209.765 315.742C209.592 315.754 209.429 315.805 209.277 315.895C209.121 315.984 208.996 316.128 208.903 316.326C208.866 316.401 208.836 316.485 208.812 316.578C208.788 316.671 208.769 316.757 208.755 316.837L208.431 318.671L210.945 319.115Z" fill="#3C402B"/>
</g>
<circle cx="132" cy="61" r="4" fill="#3C402B"/>
<circle cx="138" cy="133" r="4" fill="#3C402B"/>
<circle cx="144" cy="205" r="4" fill="#3C402B"/>
<path d="M197.686 64.64V61.334C197.686 60.974 197.652 60.644 197.584 60.344C197.516 60.04 197.406 59.776 197.254 59.552C197.106 59.324 196.912 59.148 196.672 59.024C196.436 58.9 196.148 58.838 195.808 58.838C195.496 58.838 195.22 58.892 194.98 59C194.744 59.108 194.544 59.264 194.38 59.468C194.22 59.668 194.098 59.912 194.014 60.2C193.93 60.488 193.888 60.816 193.888 61.184L193.264 61.046C193.264 60.382 193.38 59.824 193.612 59.372C193.844 58.92 194.164 58.578 194.572 58.346C194.98 58.114 195.448 57.998 195.976 57.998C196.364 57.998 196.702 58.058 196.99 58.178C197.282 58.298 197.528 58.46 197.728 58.664C197.932 58.868 198.096 59.102 198.22 59.366C198.344 59.626 198.434 59.904 198.49 60.2C198.546 60.492 198.574 60.784 198.574 61.076V64.64H197.686ZM193 64.64V58.16H193.798V59.756H193.888V64.64H193Z" fill="#3C402B"/>
<path d="M202.609 64.802C202.221 64.802 201.881 64.742 201.589 64.622C201.301 64.502 201.055 64.34 200.851 64.136C200.651 63.932 200.489 63.7 200.365 63.44C200.241 63.176 200.151 62.898 200.095 62.606C200.039 62.31 200.011 62.016 200.011 61.724V58.16H200.899V61.466C200.899 61.822 200.933 62.152 201.001 62.456C201.069 62.76 201.177 63.026 201.325 63.254C201.477 63.478 201.671 63.652 201.907 63.776C202.147 63.9 202.437 63.962 202.777 63.962C203.089 63.962 203.363 63.908 203.599 63.8C203.839 63.692 204.039 63.538 204.199 63.338C204.363 63.134 204.487 62.888 204.571 62.6C204.655 62.308 204.697 61.98 204.697 61.616L205.321 61.754C205.321 62.418 205.205 62.976 204.973 63.428C204.741 63.88 204.421 64.222 204.013 64.454C203.605 64.686 203.137 64.802 202.609 64.802ZM204.787 64.64V63.044H204.697V58.16H205.579V64.64H204.787Z" fill="#3C402B"/>
<path d="M214.984 64.64L214.99 60.386C214.99 59.886 214.85 59.494 214.57 59.21C214.294 58.922 213.942 58.778 213.514 58.778C213.27 58.778 213.032 58.834 212.8 58.946C212.568 59.058 212.376 59.238 212.224 59.486C212.076 59.734 212.002 60.058 212.002 60.458L211.48 60.308C211.468 59.844 211.558 59.438 211.75 59.09C211.946 58.742 212.214 58.472 212.554 58.28C212.898 58.084 213.286 57.986 213.718 57.986C214.37 57.986 214.892 58.188 215.284 58.592C215.676 58.992 215.872 59.534 215.872 60.218L215.866 64.64H214.984ZM207.25 64.64V58.16H208.042V59.756H208.138V64.64H207.25ZM211.126 64.64L211.132 60.446C211.132 59.93 210.994 59.524 210.718 59.228C210.446 58.928 210.086 58.778 209.638 58.778C209.19 58.778 208.828 58.932 208.552 59.24C208.276 59.544 208.138 59.95 208.138 60.458L207.61 60.17C207.61 59.754 207.708 59.382 207.904 59.054C208.1 58.722 208.368 58.462 208.708 58.274C209.048 58.082 209.434 57.986 209.866 57.986C210.278 57.986 210.644 58.074 210.964 58.25C211.288 58.426 211.542 58.682 211.726 59.018C211.91 59.354 212.002 59.762 212.002 60.242L211.996 64.64H211.126Z" fill="#3C402B"/>
<path d="M220.338 64.82C219.742 64.82 219.238 64.67 218.826 64.37C218.414 64.066 218.102 63.656 217.89 63.14C217.678 62.62 217.572 62.038 217.572 61.394C217.572 60.738 217.678 60.154 217.89 59.642C218.106 59.126 218.422 58.72 218.838 58.424C219.254 58.128 219.766 57.98 220.374 57.98C220.966 57.98 221.474 58.13 221.898 58.43C222.322 58.73 222.646 59.138 222.87 59.654C223.098 60.17 223.212 60.75 223.212 61.394C223.212 62.042 223.098 62.624 222.87 63.14C222.642 63.656 222.314 64.066 221.886 64.37C221.458 64.67 220.942 64.82 220.338 64.82ZM217.422 64.64V56H218.31V59.762H218.214V64.64H217.422ZM220.248 63.998C220.7 63.998 221.076 63.884 221.376 63.656C221.676 63.428 221.9 63.118 222.048 62.726C222.2 62.33 222.276 61.886 222.276 61.394C222.276 60.906 222.202 60.466 222.054 60.074C221.906 59.682 221.68 59.372 221.376 59.144C221.076 58.916 220.694 58.802 220.23 58.802C219.778 58.802 219.402 58.912 219.102 59.132C218.806 59.352 218.584 59.658 218.436 60.05C218.288 60.438 218.214 60.886 218.214 61.394C218.214 61.894 218.288 62.342 218.436 62.738C218.584 63.13 218.808 63.438 219.108 63.662C219.408 63.886 219.788 63.998 220.248 63.998Z" fill="#3C402B"/>
<path d="M227.271 64.82C226.639 64.82 226.091 64.68 225.627 64.4C225.167 64.12 224.809 63.726 224.553 63.218C224.297 62.71 224.169 62.114 224.169 61.43C224.169 60.722 224.295 60.11 224.547 59.594C224.799 59.078 225.153 58.68 225.609 58.4C226.069 58.12 226.611 57.98 227.235 57.98C227.875 57.98 228.421 58.128 228.873 58.424C229.325 58.716 229.667 59.136 229.899 59.684C230.131 60.232 230.237 60.886 230.217 61.646H229.317V61.334C229.301 60.494 229.119 59.86 228.771 59.432C228.427 59.004 227.923 58.79 227.259 58.79C226.563 58.79 226.029 59.016 225.657 59.468C225.289 59.92 225.105 60.564 225.105 61.4C225.105 62.216 225.289 62.85 225.657 63.302C226.029 63.75 226.555 63.974 227.235 63.974C227.699 63.974 228.103 63.868 228.447 63.656C228.795 63.44 229.069 63.13 229.269 62.726L230.091 63.044C229.835 63.608 229.457 64.046 228.957 64.358C228.461 64.666 227.899 64.82 227.271 64.82ZM224.793 61.646V60.908H229.743V61.646H224.793Z" fill="#3C402B"/>
<path d="M231.549 64.64V58.16H232.341V59.72L232.185 59.516C232.257 59.324 232.351 59.148 232.467 58.988C232.583 58.824 232.709 58.69 232.845 58.586C233.013 58.438 233.209 58.326 233.433 58.25C233.657 58.17 233.883 58.124 234.111 58.112C234.339 58.096 234.547 58.112 234.735 58.16V58.988C234.499 58.928 234.241 58.914 233.961 58.946C233.681 58.978 233.423 59.09 233.187 59.282C232.971 59.45 232.809 59.652 232.701 59.888C232.593 60.12 232.521 60.368 232.485 60.632C232.449 60.892 232.431 61.15 232.431 61.406V64.64H231.549Z" fill="#3C402B"/>
<path d="M235.753 61.238V60.482H239.353V61.238H235.753Z" fill="#3C402B"/>
<path d="M243.618 64.82C242.974 64.82 242.424 64.674 241.968 64.382C241.512 64.09 241.162 63.686 240.918 63.17C240.674 62.654 240.552 62.062 240.552 61.394C240.552 60.714 240.676 60.118 240.924 59.606C241.172 59.094 241.524 58.696 241.98 58.412C242.44 58.124 242.986 57.98 243.618 57.98C244.266 57.98 244.818 58.126 245.274 58.418C245.734 58.706 246.084 59.108 246.324 59.624C246.568 60.136 246.69 60.726 246.69 61.394C246.69 62.074 246.568 62.672 246.324 63.188C246.08 63.7 245.728 64.1 245.268 64.388C244.808 64.676 244.258 64.82 243.618 64.82ZM243.618 63.974C244.338 63.974 244.874 63.736 245.226 63.26C245.578 62.78 245.754 62.158 245.754 61.394C245.754 60.61 245.576 59.986 245.22 59.522C244.868 59.058 244.334 58.826 243.618 58.826C243.134 58.826 242.734 58.936 242.418 59.156C242.106 59.372 241.872 59.674 241.716 60.062C241.564 60.446 241.488 60.89 241.488 61.394C241.488 62.174 241.668 62.8 242.028 63.272C242.388 63.74 242.918 63.974 243.618 63.974Z" fill="#3C402B"/>
<path d="M252.694 64.64V61.334C252.694 60.974 252.66 60.644 252.592 60.344C252.524 60.04 252.414 59.776 252.262 59.552C252.114 59.324 251.92 59.148 251.68 59.024C251.444 58.9 251.156 58.838 250.816 58.838C250.504 58.838 250.228 58.892 249.988 59C249.752 59.108 249.552 59.264 249.388 59.468C249.228 59.668 249.106 59.912 249.022 60.2C248.938 60.488 248.896 60.816 248.896 61.184L248.272 61.046C248.272 60.382 248.388 59.824 248.62 59.372C248.852 58.92 249.172 58.578 249.58 58.346C249.988 58.114 250.456 57.998 250.984 57.998C251.372 57.998 251.71 58.058 251.998 58.178C252.29 58.298 252.536 58.46 252.736 58.664C252.94 58.868 253.104 59.102 253.228 59.366C253.352 59.626 253.442 59.904 253.498 60.2C253.554 60.492 253.582 60.784 253.582 61.076V64.64H252.694ZM248.008 64.64V58.16H248.806V59.756H248.896V64.64H248.008Z" fill="#3C402B"/>
<path d="M257.834 64.82C257.202 64.82 256.654 64.68 256.19 64.4C255.73 64.12 255.372 63.726 255.116 63.218C254.86 62.71 254.732 62.114 254.732 61.43C254.732 60.722 254.858 60.11 255.11 59.594C255.362 59.078 255.716 58.68 256.172 58.4C256.632 58.12 257.174 57.98 257.798 57.98C258.438 57.98 258.984 58.128 259.436 58.424C259.888 58.716 260.23 59.136 260.462 59.684C260.694 60.232 260.8 60.886 260.78 61.646H259.88V61.334C259.864 60.494 259.682 59.86 259.334 59.432C258.99 59.004 258.486 58.79 257.822 58.79C257.126 58.79 256.592 59.016 256.22 59.468C255.852 59.92 255.668 60.564 255.668 61.4C255.668 62.216 255.852 62.85 256.22 63.302C256.592 63.75 257.118 63.974 257.798 63.974C258.262 63.974 258.666 63.868 259.01 63.656C259.358 63.44 259.632 63.13 259.832 62.726L260.654 63.044C260.398 63.608 260.02 64.046 259.52 64.358C259.024 64.666 258.462 64.82 257.834 64.82ZM255.356 61.646V60.908H260.306V61.646H255.356Z" fill="#3C402B"/>
<path d="M197.686 136.64V133.334C197.686 132.974 197.652 132.644 197.584 132.344C197.516 132.04 197.406 131.776 197.254 131.552C197.106 131.324 196.912 131.148 196.672 131.024C196.436 130.9 196.148 130.838 195.808 130.838C195.496 130.838 195.22 130.892 194.98 131C194.744 131.108 194.544 131.264 194.38 131.468C194.22 131.668 194.098 131.912 194.014 132.2C193.93 132.488 193.888 132.816 193.888 133.184L193.264 133.046C193.264 132.382 193.38 131.824 193.612 131.372C193.844 130.92 194.164 130.578 194.572 130.346C194.98 130.114 195.448 129.998 195.976 129.998C196.364 129.998 196.702 130.058 196.99 130.178C197.282 130.298 197.528 130.46 197.728 130.664C197.932 130.868 198.096 131.102 198.22 131.366C198.344 131.626 198.434 131.904 198.49 132.2C198.546 132.492 198.574 132.784 198.574 133.076V136.64H197.686ZM193 136.64V130.16H193.798V131.756H193.888V136.64H193Z" fill="#3C402B"/>
<path d="M202.609 136.802C202.221 136.802 201.881 136.742 201.589 136.622C201.301 136.502 201.055 136.34 200.851 136.136C200.651 135.932 200.489 135.7 200.365 135.44C200.241 135.176 200.151 134.898 200.095 134.606C200.039 134.31 200.011 134.016 200.011 133.724V130.16H200.899V133.466C200.899 133.822 200.933 134.152 201.001 134.456C201.069 134.76 201.177 135.026 201.325 135.254C201.477 135.478 201.671 135.652 201.907 135.776C202.147 135.9 202.437 135.962 202.777 135.962C203.089 135.962 203.363 135.908 203.599 135.8C203.839 135.692 204.039 135.538 204.199 135.338C204.363 135.134 204.487 134.888 204.571 134.6C204.655 134.308 204.697 133.98 204.697 133.616L205.321 133.754C205.321 134.418 205.205 134.976 204.973 135.428C204.741 135.88 204.421 136.222 204.013 136.454C203.605 136.686 203.137 136.802 202.609 136.802ZM204.787 136.64V135.044H204.697V130.16H205.579V136.64H204.787Z" fill="#3C402B"/>
<path d="M214.984 136.64L214.99 132.386C214.99 131.886 214.85 131.494 214.57 131.21C214.294 130.922 213.942 130.778 213.514 130.778C213.27 130.778 213.032 130.834 212.8 130.946C212.568 131.058 212.376 131.238 212.224 131.486C212.076 131.734 212.002 132.058 212.002 132.458L211.48 132.308C211.468 131.844 211.558 131.438 211.75 131.09C211.946 130.742 212.214 130.472 212.554 130.28C212.898 130.084 213.286 129.986 213.718 129.986C214.37 129.986 214.892 130.188 215.284 130.592C215.676 130.992 215.872 131.534 215.872 132.218L215.866 136.64H214.984ZM207.25 136.64V130.16H208.042V131.756H208.138V136.64H207.25ZM211.126 136.64L211.132 132.446C211.132 131.93 210.994 131.524 210.718 131.228C210.446 130.928 210.086 130.778 209.638 130.778C209.19 130.778 208.828 130.932 208.552 131.24C208.276 131.544 208.138 131.95 208.138 132.458L207.61 132.17C207.61 131.754 207.708 131.382 207.904 131.054C208.1 130.722 208.368 130.462 208.708 130.274C209.048 130.082 209.434 129.986 209.866 129.986C210.278 129.986 210.644 130.074 210.964 130.25C211.288 130.426 211.542 130.682 211.726 131.018C211.91 131.354 212.002 131.762 212.002 132.242L211.996 136.64H211.126Z" fill="#3C402B"/>
<path d="M220.338 136.82C219.742 136.82 219.238 136.67 218.826 136.37C218.414 136.066 218.102 135.656 217.89 135.14C217.678 134.62 217.572 134.038 217.572 133.394C217.572 132.738 217.678 132.154 217.89 131.642C218.106 131.126 218.422 130.72 218.838 130.424C219.254 130.128 219.766 129.98 220.374 129.98C220.966 129.98 221.474 130.13 221.898 130.43C222.322 130.73 222.646 131.138 222.87 131.654C223.098 132.17 223.212 132.75 223.212 133.394C223.212 134.042 223.098 134.624 222.87 135.14C222.642 135.656 222.314 136.066 221.886 136.37C221.458 136.67 220.942 136.82 220.338 136.82ZM217.422 136.64V128H218.31V131.762H218.214V136.64H217.422ZM220.248 135.998C220.7 135.998 221.076 135.884 221.376 135.656C221.676 135.428 221.9 135.118 222.048 134.726C222.2 134.33 222.276 133.886 222.276 133.394C222.276 132.906 222.202 132.466 222.054 132.074C221.906 131.682 221.68 131.372 221.376 131.144C221.076 130.916 220.694 130.802 220.23 130.802C219.778 130.802 219.402 130.912 219.102 131.132C218.806 131.352 218.584 131.658 218.436 132.05C218.288 132.438 218.214 132.886 218.214 133.394C218.214 133.894 218.288 134.342 218.436 134.738C218.584 135.13 218.808 135.438 219.108 135.662C219.408 135.886 219.788 135.998 220.248 135.998Z" fill="#3C402B"/>
<path d="M227.271 136.82C226.639 136.82 226.091 136.68 225.627 136.4C225.167 136.12 224.809 135.726 224.553 135.218C224.297 134.71 224.169 134.114 224.169 133.43C224.169 132.722 224.295 132.11 224.547 131.594C224.799 131.078 225.153 130.68 225.609 130.4C226.069 130.12 226.611 129.98 227.235 129.98C227.875 129.98 228.421 130.128 228.873 130.424C229.325 130.716 229.667 131.136 229.899 131.684C230.131 132.232 230.237 132.886 230.217 133.646H229.317V133.334C229.301 132.494 229.119 131.86 228.771 131.432C228.427 131.004 227.923 130.79 227.259 130.79C226.563 130.79 226.029 131.016 225.657 131.468C225.289 131.92 225.105 132.564 225.105 133.4C225.105 134.216 225.289 134.85 225.657 135.302C226.029 135.75 226.555 135.974 227.235 135.974C227.699 135.974 228.103 135.868 228.447 135.656C228.795 135.44 229.069 135.13 229.269 134.726L230.091 135.044C229.835 135.608 229.457 136.046 228.957 136.358C228.461 136.666 227.899 136.82 227.271 136.82ZM224.793 133.646V132.908H229.743V133.646H224.793Z" fill="#3C402B"/>
<path d="M231.549 136.64V130.16H232.341V131.72L232.185 131.516C232.257 131.324 232.351 131.148 232.467 130.988C232.583 130.824 232.709 130.69 232.845 130.586C233.013 130.438 233.209 130.326 233.433 130.25C233.657 130.17 233.883 130.124 234.111 130.112C234.339 130.096 234.547 130.112 234.735 130.16V130.988C234.499 130.928 234.241 130.914 233.961 130.946C233.681 130.978 233.423 131.09 233.187 131.282C232.971 131.45 232.809 131.652 232.701 131.888C232.593 132.12 232.521 132.368 232.485 132.632C232.449 132.892 232.431 133.15 232.431 133.406V136.64H231.549Z" fill="#3C402B"/>
<path d="M235.753 133.238V132.482H239.353V133.238H235.753Z" fill="#3C402B"/>
<path d="M244.44 136.64C244.076 136.716 243.716 136.746 243.36 136.73C243.008 136.714 242.692 136.638 242.412 136.502C242.136 136.366 241.926 136.154 241.782 135.866C241.666 135.626 241.602 135.384 241.59 135.14C241.582 134.892 241.578 134.61 241.578 134.294V128.36H242.454V134.258C242.454 134.53 242.456 134.758 242.46 134.942C242.468 135.122 242.51 135.282 242.586 135.422C242.73 135.69 242.958 135.85 243.27 135.902C243.586 135.954 243.976 135.942 244.44 135.866V136.64ZM240.192 130.916V130.16H244.44V130.916H240.192Z" fill="#3C402B"/>
<path d="M247.097 136.64L245.117 130.154L245.999 130.16L247.535 135.194L249.077 130.16H249.881L251.423 135.194L252.971 130.16H253.847L251.867 136.64H251.099L249.479 131.48L247.865 136.64H247.097Z" fill="#3C402B"/>
<path d="M257.399 136.82C256.755 136.82 256.206 136.674 255.75 136.382C255.293 136.09 254.944 135.686 254.7 135.17C254.456 134.654 254.333 134.062 254.333 133.394C254.333 132.714 254.458 132.118 254.706 131.606C254.954 131.094 255.306 130.696 255.762 130.412C256.222 130.124 256.767 129.98 257.399 129.98C258.048 129.98 258.6 130.126 259.056 130.418C259.516 130.706 259.866 131.108 260.105 131.624C260.35 132.136 260.472 132.726 260.472 133.394C260.472 134.074 260.35 134.672 260.105 135.188C259.861 135.7 259.509 136.1 259.049 136.388C258.59 136.676 258.039 136.82 257.399 136.82ZM257.399 135.974C258.119 135.974 258.656 135.736 259.007 135.26C259.359 134.78 259.535 134.158 259.535 133.394C259.535 132.61 259.358 131.986 259.002 131.522C258.65 131.058 258.116 130.826 257.399 130.826C256.915 130.826 256.516 130.936 256.2 131.156C255.888 131.372 255.653 131.674 255.498 132.062C255.346 132.446 255.27 132.89 255.27 133.394C255.27 134.174 255.45 134.8 255.81 135.272C256.17 135.74 256.699 135.974 257.399 135.974Z" fill="#3C402B"/>
<path d="M197.686 208.64V205.334C197.686 204.974 197.652 204.644 197.584 204.344C197.516 204.04 197.406 203.776 197.254 203.552C197.106 203.324 196.912 203.148 196.672 203.024C196.436 202.9 196.148 202.838 195.808 202.838C195.496 202.838 195.22 202.892 194.98 203C194.744 203.108 194.544 203.264 194.38 203.468C194.22 203.668 194.098 203.912 194.014 204.2C193.93 204.488 193.888 204.816 193.888 205.184L193.264 205.046C193.264 204.382 193.38 203.824 193.612 203.372C193.844 202.92 194.164 202.578 194.572 202.346C194.98 202.114 195.448 201.998 195.976 201.998C196.364 201.998 196.702 202.058 196.99 202.178C197.282 202.298 197.528 202.46 197.728 202.664C197.932 202.868 198.096 203.102 198.22 203.366C198.344 203.626 198.434 203.904 198.49 204.2C198.546 204.492 198.574 204.784 198.574 205.076V208.64H197.686ZM193 208.64V202.16H193.798V203.756H193.888V208.64H193Z" fill="#3C402B"/>
<path d="M202.609 208.802C202.221 208.802 201.881 208.742 201.589 208.622C201.301 208.502 201.055 208.34 200.851 208.136C200.651 207.932 200.489 207.7 200.365 207.44C200.241 207.176 200.151 206.898 200.095 206.606C200.039 206.31 200.011 206.016 200.011 205.724V202.16H200.899V205.466C200.899 205.822 200.933 206.152 201.001 206.456C201.069 206.76 201.177 207.026 201.325 207.254C201.477 207.478 201.671 207.652 201.907 207.776C202.147 207.9 202.437 207.962 202.777 207.962C203.089 207.962 203.363 207.908 203.599 207.8C203.839 207.692 204.039 207.538 204.199 207.338C204.363 207.134 204.487 206.888 204.571 206.6C204.655 206.308 204.697 205.98 204.697 205.616L205.321 205.754C205.321 206.418 205.205 206.976 204.973 207.428C204.741 207.88 204.421 208.222 204.013 208.454C203.605 208.686 203.137 208.802 202.609 208.802ZM204.787 208.64V207.044H204.697V202.16H205.579V208.64H204.787Z" fill="#3C402B"/>
<path d="M214.984 208.64L214.99 204.386C214.99 203.886 214.85 203.494 214.57 203.21C214.294 202.922 213.942 202.778 213.514 202.778C213.27 202.778 213.032 202.834 212.8 202.946C212.568 203.058 212.376 203.238 212.224 203.486C212.076 203.734 212.002 204.058 212.002 204.458L211.48 204.308C211.468 203.844 211.558 203.438 211.75 203.09C211.946 202.742 212.214 202.472 212.554 202.28C212.898 202.084 213.286 201.986 213.718 201.986C214.37 201.986 214.892 202.188 215.284 202.592C215.676 202.992 215.872 203.534 215.872 204.218L215.866 208.64H214.984ZM207.25 208.64V202.16H208.042V203.756H208.138V208.64H207.25ZM211.126 208.64L211.132 204.446C211.132 203.93 210.994 203.524 210.718 203.228C210.446 202.928 210.086 202.778 209.638 202.778C209.19 202.778 208.828 202.932 208.552 203.24C208.276 203.544 208.138 203.95 208.138 204.458L207.61 204.17C207.61 203.754 207.708 203.382 207.904 203.054C208.1 202.722 208.368 202.462 208.708 202.274C209.048 202.082 209.434 201.986 209.866 201.986C210.278 201.986 210.644 202.074 210.964 202.25C211.288 202.426 211.542 202.682 211.726 203.018C211.91 203.354 212.002 203.762 212.002 204.242L211.996 208.64H211.126Z" fill="#3C402B"/>
<path d="M220.338 208.82C219.742 208.82 219.238 208.67 218.826 208.37C218.414 208.066 218.102 207.656 217.89 207.14C217.678 206.62 217.572 206.038 217.572 205.394C217.572 204.738 217.678 204.154 217.89 203.642C218.106 203.126 218.422 202.72 218.838 202.424C219.254 202.128 219.766 201.98 220.374 201.98C220.966 201.98 221.474 202.13 221.898 202.43C222.322 202.73 222.646 203.138 222.87 203.654C223.098 204.17 223.212 204.75 223.212 205.394C223.212 206.042 223.098 206.624 222.87 207.14C222.642 207.656 222.314 208.066 221.886 208.37C221.458 208.67 220.942 208.82 220.338 208.82ZM217.422 208.64V200H218.31V203.762H218.214V208.64H217.422ZM220.248 207.998C220.7 207.998 221.076 207.884 221.376 207.656C221.676 207.428 221.9 207.118 222.048 206.726C222.2 206.33 222.276 205.886 222.276 205.394C222.276 204.906 222.202 204.466 222.054 204.074C221.906 203.682 221.68 203.372 221.376 203.144C221.076 202.916 220.694 202.802 220.23 202.802C219.778 202.802 219.402 202.912 219.102 203.132C218.806 203.352 218.584 203.658 218.436 204.05C218.288 204.438 218.214 204.886 218.214 205.394C218.214 205.894 218.288 206.342 218.436 206.738C218.584 207.13 218.808 207.438 219.108 207.662C219.408 207.886 219.788 207.998 220.248 207.998Z" fill="#3C402B"/>
<path d="M227.271 208.82C226.639 208.82 226.091 208.68 225.627 208.4C225.167 208.12 224.809 207.726 224.553 207.218C224.297 206.71 224.169 206.114 224.169 205.43C224.169 204.722 224.295 204.11 224.547 203.594C224.799 203.078 225.153 202.68 225.609 202.4C226.069 202.12 226.611 201.98 227.235 201.98C227.875 201.98 228.421 202.128 228.873 202.424C229.325 202.716 229.667 203.136 229.899 203.684C230.131 204.232 230.237 204.886 230.217 205.646H229.317V205.334C229.301 204.494 229.119 203.86 228.771 203.432C228.427 203.004 227.923 202.79 227.259 202.79C226.563 202.79 226.029 203.016 225.657 203.468C225.289 203.92 225.105 204.564 225.105 205.4C225.105 206.216 225.289 206.85 225.657 207.302C226.029 207.75 226.555 207.974 227.235 207.974C227.699 207.974 228.103 207.868 228.447 207.656C228.795 207.44 229.069 207.13 229.269 206.726L230.091 207.044C229.835 207.608 229.457 208.046 228.957 208.358C228.461 208.666 227.899 208.82 227.271 208.82ZM224.793 205.646V204.908H229.743V205.646H224.793Z" fill="#3C402B"/>
<path d="M231.549 208.64V202.16H232.341V203.72L232.185 203.516C232.257 203.324 232.351 203.148 232.467 202.988C232.583 202.824 232.709 202.69 232.845 202.586C233.013 202.438 233.209 202.326 233.433 202.25C233.657 202.17 233.883 202.124 234.111 202.112C234.339 202.096 234.547 202.112 234.735 202.16V202.988C234.499 202.928 234.241 202.914 233.961 202.946C233.681 202.978 233.423 203.09 233.187 203.282C232.971 203.45 232.809 203.652 232.701 203.888C232.593 204.12 232.521 204.368 232.485 204.632C232.449 204.892 232.431 205.15 232.431 205.406V208.64H231.549Z" fill="#3C402B"/>
<path d="M235.753 205.238V204.482H239.353V205.238H235.753Z" fill="#3C402B"/>
<path d="M244.44 208.64C244.076 208.716 243.716 208.746 243.36 208.73C243.008 208.714 242.692 208.638 242.412 208.502C242.136 208.366 241.926 208.154 241.782 207.866C241.666 207.626 241.602 207.384 241.59 207.14C241.582 206.892 241.578 206.61 241.578 206.294V200.36H242.454V206.258C242.454 206.53 242.456 206.758 242.46 206.942C242.468 207.122 242.51 207.282 242.586 207.422C242.73 207.69 242.958 207.85 243.27 207.902C243.586 207.954 243.976 207.942 244.44 207.866V208.64ZM240.192 202.916V202.16H244.44V202.916H240.192Z" fill="#3C402B"/>
<path d="M250.397 208.64V205.334C250.397 204.974 250.363 204.644 250.295 204.344C250.227 204.04 250.117 203.776 249.965 203.552C249.817 203.324 249.623 203.148 249.383 203.024C249.147 202.9 248.859 202.838 248.519 202.838C248.207 202.838 247.931 202.892 247.691 203C247.455 203.108 247.255 203.264 247.091 203.468C246.931 203.668 246.809 203.912 246.725 204.2C246.641 204.488 246.599 204.816 246.599 205.184L245.975 205.046C245.975 204.382 246.091 203.824 246.323 203.372C246.555 202.92 246.875 202.578 247.283 202.346C247.691 202.114 248.159 201.998 248.687 201.998C249.075 201.998 249.413 202.058 249.701 202.178C249.993 202.298 250.239 202.46 250.439 202.664C250.643 202.868 250.807 203.102 250.931 203.366C251.055 203.626 251.145 203.904 251.201 204.2C251.257 204.492 251.285 204.784 251.285 205.076V208.64H250.397ZM245.711 208.64V200H246.509V204.878H246.599V208.64H245.711Z" fill="#3C402B"/>
<path d="M252.842 208.64V202.16H253.634V203.72L253.478 203.516C253.55 203.324 253.644 203.148 253.76 202.988C253.876 202.824 254.002 202.69 254.138 202.586C254.306 202.438 254.502 202.326 254.726 202.25C254.95 202.17 255.176 202.124 255.404 202.112C255.632 202.096 255.84 202.112 256.028 202.16V202.988C255.792 202.928 255.534 202.914 255.254 202.946C254.974 202.978 254.716 203.09 254.48 203.282C254.264 203.45 254.102 203.652 253.994 203.888C253.886 204.12 253.814 204.368 253.778 204.632C253.742 204.892 253.724 205.15 253.724 205.406V208.64H252.842Z" fill="#3C402B"/>
<path d="M259.791 208.82C259.159 208.82 258.611 208.68 258.147 208.4C257.687 208.12 257.329 207.726 257.073 207.218C256.817 206.71 256.689 206.114 256.689 205.43C256.689 204.722 256.815 204.11 257.067 203.594C257.319 203.078 257.673 202.68 258.129 202.4C258.589 202.12 259.131 201.98 259.755 201.98C260.395 201.98 260.941 202.128 261.393 202.424C261.845 202.716 262.187 203.136 262.419 203.684C262.651 204.232 262.757 204.886 262.737 205.646H261.837V205.334C261.821 204.494 261.639 203.86 261.291 203.432C260.947 203.004 260.443 202.79 259.779 202.79C259.083 202.79 258.549 203.016 258.177 203.468C257.809 203.92 257.625 204.564 257.625 205.4C257.625 206.216 257.809 206.85 258.177 207.302C258.549 207.75 259.075 207.974 259.755 207.974C260.219 207.974 260.623 207.868 260.967 207.656C261.315 207.44 261.589 207.13 261.789 206.726L262.611 207.044C262.355 207.608 261.977 208.046 261.477 208.358C260.981 208.666 260.419 208.82 259.791 208.82ZM257.313 205.646V204.908H262.263V205.646H257.313Z" fill="#3C402B"/>
<path d="M266.811 208.82C266.178 208.82 265.631 208.68 265.167 208.4C264.707 208.12 264.348 207.726 264.092 207.218C263.837 206.71 263.709 206.114 263.709 205.43C263.709 204.722 263.835 204.11 264.087 203.594C264.339 203.078 264.692 202.68 265.148 202.4C265.608 202.12 266.15 201.98 266.774 201.98C267.414 201.98 267.96 202.128 268.412 202.424C268.865 202.716 269.206 203.136 269.438 203.684C269.671 204.232 269.776 204.886 269.757 205.646H268.856V205.334C268.84 204.494 268.659 203.86 268.311 203.432C267.966 203.004 267.463 202.79 266.799 202.79C266.103 202.79 265.569 203.016 265.197 203.468C264.829 203.92 264.645 204.564 264.645 205.4C264.645 206.216 264.829 206.85 265.197 207.302C265.569 207.75 266.094 207.974 266.774 207.974C267.238 207.974 267.643 207.868 267.987 207.656C268.335 207.44 268.609 207.13 268.809 206.726L269.631 207.044C269.375 207.608 268.996 208.046 268.496 208.358C268 208.666 267.438 208.82 266.811 208.82ZM264.333 205.646V204.908H269.283V205.646H264.333Z" fill="#3C402B"/>
<path d="M132 61H188" stroke="#3C402B"/>
<path d="M138 133H188" stroke="#3C402B"/>
<path d="M144 205H188" stroke="#3C402B"/>
</svg>
