<svg width="676" height="452" viewBox="0 0 676 452" fill="none" xmlns="http://www.w3.org/2000/svg">
<path d="M652 0.5L22 0.5C10.1259 0.5 0.5 10.1259 0.5 22L0.5 428C0.5 439.874 10.1259 449.5 22 449.5H49.5C53.6421 449.5 57 446.142 57 442L57 239.5H617V442C617 446.142 620.358 449.5 624.5 449.5H652C663.874 449.5 673.5 439.874 673.5 428V22C673.5 10.1259 663.874 0.5 652 0.5Z" fill="#EEEAE3" stroke="#B9B7AC"/>
<path d="M57 239H113V442.5C113 446.366 109.866 449.5 106 449.5H64C60.134 449.5 57 446.366 57 442.5V239Z" fill="#EEEAE3" stroke="#B9B7AC"/>
<path d="M113 239H169L169 442.5C169 446.366 165.866 449.5 162 449.5H120C116.134 449.5 113 446.366 113 442.5L113 239Z" fill="#EEEAE3" stroke="#B9B7AC"/>
<path d="M169 239H225V442.5C225 446.366 221.866 449.5 218 449.5H176C172.134 449.5 169 446.366 169 442.5V239Z" fill="#EEEAE3" stroke="#B9B7AC"/>
<path d="M225 239H281V442.5C281 446.366 277.866 449.5 274 449.5H232C228.134 449.5 225 446.366 225 442.5V239Z" fill="#EEEAE3" stroke="#B9B7AC"/>
<path d="M281 239H337V442.5C337 446.366 333.866 449.5 330 449.5H288C284.134 449.5 281 446.366 281 442.5V239Z" fill="#EEEAE3" stroke="#B9B7AC"/>
<path d="M337 239H393V442.5C393 446.366 389.866 449.5 386 449.5H344C340.134 449.5 337 446.366 337 442.5V239Z" fill="#EEEAE3" stroke="#B9B7AC"/>
<path d="M393 239H449V442.5C449 446.366 445.866 449.5 442 449.5H400C396.134 449.5 393 446.366 393 442.5V239Z" fill="#EEEAE3" stroke="#B9B7AC"/>
<path d="M449 239H505V442.5C505 446.366 501.866 449.5 498 449.5H456C452.134 449.5 449 446.366 449 442.5V239Z" fill="#EEEAE3" stroke="#B9B7AC"/>
<path d="M505 239H561V442.5C561 446.366 557.866 449.5 554 449.5H512C508.134 449.5 505 446.366 505 442.5V239Z" fill="#EEEAE3" stroke="#B9B7AC"/>
<path d="M561 239H617V442.5C617 446.366 613.866 449.5 610 449.5H568C564.134 449.5 561 446.366 561 442.5V239Z" fill="#EEEAE3" stroke="#B9B7AC"/>
<path d="M95.5 239H130.5V358C130.5 361.866 127.366 365 123.5 365H102.5C98.634 365 95.5 361.866 95.5 358V239Z" fill="#EEEAE3" stroke="#B9B7AC"/>
<path d="M151.5 238.998H186.5V357.998C186.5 361.864 183.366 364.998 179.5 364.998H158.5C154.634 364.998 151.5 361.864 151.5 357.998V238.998Z" fill="#EEEAE3" stroke="#B9B7AC"/>
<path d="M263.5 239H298.5V358C298.5 361.866 295.366 365 291.5 365H270.5C266.634 365 263.5 361.866 263.5 358V239Z" fill="#EEEAE3" stroke="#B9B7AC"/>
<path d="M319.5 239H354.5V358C354.5 361.866 351.366 365 347.5 365H326.5C322.634 365 319.5 361.866 319.5 358V239Z" fill="#EEEAE3" stroke="#B9B7AC"/>
<path d="M375.499 239H410.499V358C410.499 361.866 407.365 365 403.499 365H382.499C378.633 365 375.499 361.866 375.499 358V239Z" fill="#EEEAE3" stroke="#B9B7AC"/>
<path d="M487.5 239H522.5V358C522.5 361.866 519.366 365 515.5 365H494.5C490.634 365 487.5 361.866 487.5 358V239Z" fill="#EEEAE3" stroke="#B9B7AC"/>
<path d="M543.5 239H578.5V358C578.5 361.866 575.366 365 571.5 365H550.5C546.634 365 543.5 361.866 543.5 358V239Z" fill="#EEEAE3" stroke="#B9B7AC"/>
<circle opacity="0.3" cx="505" cy="120" r="63" stroke="#3C402B"/>
<circle opacity="0.3" cx="505" cy="120" r="70" stroke="#3C402B"/>
<path opacity="0.2" d="M425.375 120C419.688 132.124 416.844 126.063 414 120H425.375ZM402.625 120H414C411.156 113.937 408.313 107.876 402.625 120Z" fill="#3C402B"/>
<path d="M426.167 120.372C423.761 125.491 421.639 127.875 419.473 127.875C416.728 127.875 415.018 124.231 413.208 120.372C411.78 117.327 410.161 113.875 408.531 113.875C406.737 113.875 404.56 117.945 403.421 120.372C403.32 120.578 403.142 120.735 402.926 120.811C402.709 120.887 402.472 120.875 402.264 120.777C402.057 120.68 401.896 120.505 401.816 120.29C401.736 120.075 401.744 119.837 401.837 119.628C404.234 114.509 406.361 112.125 408.531 112.125C411.276 112.125 412.986 115.769 414.796 119.628C416.22 122.673 417.839 126.125 419.469 126.125C421.262 126.125 423.44 122.055 424.579 119.628C424.68 119.422 424.858 119.265 425.074 119.189C425.291 119.113 425.528 119.125 425.736 119.223C425.943 119.32 426.104 119.495 426.184 119.71C426.264 119.925 426.256 120.163 426.162 120.372H426.167Z" fill="#3C402B"/>
<path opacity="0.2" d="M456 36.875V43H444.625V36.875H456ZM456 43V49.125H467.375V43H456Z" fill="#3C402B"/>
<path d="M468.25 43V49.125C468.25 49.3571 468.158 49.5796 467.994 49.7437C467.83 49.9078 467.607 50 467.375 50H456C455.768 50 455.545 49.9078 455.381 49.7437C455.217 49.5796 455.125 49.3571 455.125 49.125V37.75H445.5V43C445.5 43.2321 445.408 43.4546 445.244 43.6187C445.08 43.7828 444.857 43.875 444.625 43.875C444.393 43.875 444.17 43.7828 444.006 43.6187C443.842 43.4546 443.75 43.2321 443.75 43V36.875C443.75 36.6429 443.842 36.4204 444.006 36.2563C444.17 36.0922 444.393 36 444.625 36H456C456.232 36 456.455 36.0922 456.619 36.2563C456.783 36.4204 456.875 36.6429 456.875 36.875V48.25H466.5V43C466.5 42.7679 466.592 42.5454 466.756 42.3813C466.92 42.2172 467.143 42.125 467.375 42.125C467.607 42.125 467.83 42.2172 467.994 42.3813C468.158 42.5454 468.25 42.7679 468.25 43Z" fill="#3C402B"/>
<path opacity="0.2" d="M548.313 35.125L554 43H542.625L548.313 35.125ZM565.375 43H554L559.688 50.875L565.375 43Z" fill="#3C402B"/>
<path d="M566.084 43.5124L560.397 51.3874C560.316 51.5003 560.209 51.5923 560.085 51.6558C559.962 51.7192 559.825 51.7523 559.686 51.7523C559.547 51.7523 559.41 51.7192 559.286 51.6558C559.163 51.5923 559.056 51.5003 558.975 51.3874L548.313 36.6196L543.335 43.5102C543.268 43.6036 543.183 43.6828 543.085 43.7433C542.987 43.8039 542.879 43.8445 542.765 43.863C542.652 43.8815 542.535 43.8774 542.423 43.8511C542.312 43.8247 542.206 43.7765 542.112 43.7093C542.019 43.6421 541.94 43.5571 541.879 43.4593C541.819 43.3615 541.778 43.2527 541.76 43.1391C541.741 43.0256 541.745 42.9095 541.772 42.7975C541.798 42.6855 541.846 42.5799 541.913 42.4865L547.601 34.6115C547.682 34.4986 547.789 34.4066 547.912 34.3431C548.036 34.2797 548.173 34.2466 548.312 34.2466C548.451 34.2466 548.588 34.2797 548.711 34.3431C548.835 34.4066 548.942 34.4986 549.023 34.6115L559.688 49.3771L564.666 42.4865C564.733 42.3931 564.818 42.3139 564.916 42.2534C565.013 42.1929 565.122 42.1522 565.236 42.1337C565.349 42.1152 565.465 42.1193 565.577 42.1457C565.689 42.172 565.795 42.2202 565.888 42.2874C565.982 42.3546 566.061 42.4396 566.121 42.5374C566.182 42.6353 566.223 42.7441 566.241 42.8576C566.26 42.9712 566.256 43.0872 566.229 43.1992C566.203 43.3112 566.155 43.4169 566.087 43.5102L566.084 43.5124Z" fill="#3C402B"/>
<path opacity="0.2" d="M596 113V120H584.625L596 113ZM607.375 120H596V127L607.375 120Z" fill="#3C402B"/>
<path d="M607.833 120.744L596.458 127.744C596.325 127.826 596.174 127.87 596.018 127.874C595.862 127.877 595.709 127.839 595.573 127.763C595.437 127.687 595.324 127.576 595.245 127.442C595.166 127.308 595.125 127.155 595.125 126.999V114.566L585.083 120.744C584.886 120.857 584.652 120.889 584.432 120.832C584.212 120.776 584.023 120.637 583.904 120.443C583.785 120.25 583.746 120.017 583.795 119.796C583.844 119.574 583.977 119.38 584.166 119.255L595.541 112.255C595.674 112.173 595.826 112.128 595.981 112.125C596.137 112.122 596.291 112.16 596.426 112.236C596.562 112.312 596.675 112.423 596.754 112.557C596.833 112.691 596.875 112.844 596.875 112.999V125.433L606.916 119.255C607.114 119.142 607.347 119.11 607.567 119.167C607.787 119.223 607.977 119.362 608.096 119.556C608.215 119.749 608.254 119.981 608.205 120.203C608.156 120.425 608.022 120.619 607.833 120.744Z" fill="#3C402B"/>
<rect opacity="0.3" x="448.5" y="117.75" width="36" height="4.5" rx="2.25" stroke="#3C402B"/>
<rect opacity="0.3" x="289.75" y="37.75" width="66.5" height="66.5" rx="10.5" stroke="#3C402B"/>
<rect opacity="0.3" x="295" y="43" width="56" height="56" rx="7" stroke="#3C402B"/>
<path d="M329.125 80.6257C329.125 80.8578 329.033 81.0803 328.869 81.2444C328.705 81.4085 328.482 81.5007 328.25 81.5007H317.75C317.518 81.5007 317.295 81.4085 317.131 81.2444C316.967 81.0803 316.875 80.8578 316.875 80.6257C316.875 80.3936 316.967 80.1711 317.131 80.007C317.295 79.8429 317.518 79.7507 317.75 79.7507H328.25C328.482 79.7507 328.705 79.8429 328.869 80.007C329.033 80.1711 329.125 80.3936 329.125 80.6257ZM334.119 69.5066L323.619 59.0066C323.538 58.9253 323.441 58.8607 323.335 58.8167C323.229 58.7727 323.115 58.75 323 58.75C322.885 58.75 322.771 58.7727 322.665 58.8167C322.559 58.8607 322.462 58.9253 322.381 59.0066L311.881 69.5066C311.758 69.629 311.675 69.785 311.641 69.9548C311.607 70.1246 311.625 70.3007 311.691 70.4606C311.757 70.6206 311.869 70.7573 312.013 70.8534C312.157 70.9496 312.327 71.0008 312.5 71.0007H316.875V73.6257C316.875 73.8578 316.967 74.0803 317.131 74.2444C317.295 74.4085 317.518 74.5007 317.75 74.5007H328.25C328.482 74.5007 328.705 74.4085 328.869 74.2444C329.033 74.0803 329.125 73.8578 329.125 73.6257V71.0007H333.5C333.673 71.0008 333.842 70.9496 333.986 70.8534C334.13 70.7573 334.243 70.6206 334.309 70.4606C334.375 70.3007 334.393 70.1246 334.359 69.9548C334.325 69.785 334.242 69.629 334.119 69.5066ZM328.25 76.2507H317.75C317.518 76.2507 317.295 76.3429 317.131 76.507C316.967 76.6711 316.875 76.8936 316.875 77.1257C316.875 77.3578 316.967 77.5803 317.131 77.7444C317.295 77.9085 317.518 78.0007 317.75 78.0007H328.25C328.482 78.0007 328.705 77.9085 328.869 77.7444C329.033 77.5803 329.125 77.3578 329.125 77.1257C329.125 76.8936 329.033 76.6711 328.869 76.507C328.705 76.3429 328.482 76.2507 328.25 76.2507Z" fill="#3C402B"/>
<rect opacity="0.3" x="289.75" y="121.75" width="66.5" height="66.5" rx="10.5" stroke="#3C402B"/>
<rect opacity="0.3" x="295" y="127" width="56" height="56" rx="7" stroke="#3C402B"/>
<path d="M316.875 145.375C316.875 145.143 316.967 144.92 317.131 144.756C317.295 144.592 317.518 144.5 317.75 144.5H328.25C328.482 144.5 328.705 144.592 328.869 144.756C329.033 144.92 329.125 145.143 329.125 145.375C329.125 145.607 329.033 145.83 328.869 145.994C328.705 146.158 328.482 146.25 328.25 146.25H317.75C317.518 146.25 317.295 146.158 317.131 145.994C316.967 145.83 316.875 145.607 316.875 145.375ZM334.308 155.54C334.242 155.38 334.13 155.244 333.986 155.148C333.842 155.051 333.673 155 333.5 155H329.125V152.375C329.125 152.143 329.033 151.92 328.869 151.756C328.705 151.592 328.482 151.5 328.25 151.5H317.75C317.518 151.5 317.295 151.592 317.131 151.756C316.967 151.92 316.875 152.143 316.875 152.375V155H312.5C312.327 155 312.157 155.051 312.013 155.147C311.869 155.243 311.757 155.38 311.691 155.54C311.625 155.7 311.607 155.876 311.641 156.046C311.675 156.216 311.758 156.372 311.881 156.494L322.381 166.994C322.462 167.075 322.559 167.14 322.665 167.184C322.771 167.228 322.885 167.251 323 167.251C323.115 167.251 323.229 167.228 323.335 167.184C323.441 167.14 323.538 167.075 323.619 166.994L334.119 156.494C334.241 156.372 334.325 156.216 334.358 156.046C334.392 155.876 334.375 155.7 334.308 155.54ZM317.75 149.75H328.25C328.482 149.75 328.705 149.658 328.869 149.494C329.033 149.33 329.125 149.107 329.125 148.875C329.125 148.643 329.033 148.42 328.869 148.256C328.705 148.092 328.482 148 328.25 148H317.75C317.518 148 317.295 148.092 317.131 148.256C316.967 148.42 316.875 148.643 316.875 148.875C316.875 149.107 316.967 149.33 317.131 149.494C317.295 149.658 317.518 149.75 317.75 149.75Z" fill="#3C402B"/>
<rect opacity="0.3" x="221.5" y="36" width="14" height="154" rx="7" stroke="#3C402B"/>
<rect x="207.5" y="102.5" width="42" height="21" rx="3.5" fill="#EEEAE3" stroke="#3C402B" stroke-opacity="0.3"/>
<rect opacity="0.3" x="212.167" y="107.166" width="32.6667" height="2.33333" rx="1.16667" fill="#3C402B"/>
<rect opacity="0.3" x="212.167" y="111.832" width="32.6667" height="2.33333" rx="1.16667" fill="#3C402B"/>
<rect opacity="0.3" x="212.167" y="116.498" width="32.6667" height="2.33333" rx="1.16667" fill="#3C402B"/>
<path d="M0.5 106V105.5H2.98023e-08V106H0.5ZM0.5 113H2.98023e-08V113.5H0.5V113ZM0.500004 120V119.5H3.8445e-06L3.8445e-06 120H0.500004ZM0.500004 127H3.8445e-06V127.5H0.500004V127ZM0.500004 134L0.500004 133.5H3.8445e-06V134H0.500004ZM0.500004 141H3.8445e-06V141.5H0.500004V141ZM0.500004 148V147.5H3.8445e-06L3.8445e-06 148H0.500004ZM0.500004 155H3.8445e-06V155.5H0.500004V155ZM0.500004 162V161.5H3.8445e-06V162H0.500004ZM0.500004 169H3.8445e-06V169.5H0.500004V169ZM0.500004 176V175.5H3.8445e-06L3.8445e-06 176H0.500004ZM0.500004 183H3.8445e-06V183.5H0.500004V183ZM0.500004 190V189.5H3.8445e-06V190H0.500004ZM0.500004 197H3.8445e-06V197.5H0.500004V197ZM0.500004 204V203.5H3.8445e-06L3.8445e-06 204H0.500004ZM0.500004 211H3.8445e-06V211.5H0.500004V211ZM0.5 106.5H165.5V105.5H0.5V106.5ZM1 113V106H2.98023e-08L2.98023e-08 113H1ZM165.5 112.5H0.5V113.5H165.5V112.5ZM168.5 109.5C168.5 111.157 167.157 112.5 165.5 112.5V113.5C167.709 113.5 169.5 111.709 169.5 109.5H168.5ZM165.5 106.5C167.157 106.5 168.5 107.843 168.5 109.5H169.5C169.5 107.291 167.709 105.5 165.5 105.5V106.5ZM0.500004 120.5H165.5V119.5H0.500004V120.5ZM1 127L1 120H3.8445e-06L3.8445e-06 127H1ZM165.5 126.5H0.500004V127.5H165.5V126.5ZM168.5 123.5C168.5 125.157 167.157 126.5 165.5 126.5V127.5C167.709 127.5 169.5 125.709 169.5 123.5H168.5ZM165.5 120.5C167.157 120.5 168.5 121.843 168.5 123.5H169.5C169.5 121.291 167.709 119.5 165.5 119.5V120.5ZM165.5 133.5H0.500004L0.500004 134.5H165.5V133.5ZM169.5 137.5C169.5 135.291 167.709 133.5 165.5 133.5V134.5C167.157 134.5 168.5 135.843 168.5 137.5H169.5ZM165.5 141.5C167.709 141.5 169.5 139.709 169.5 137.5H168.5C168.5 139.157 167.157 140.5 165.5 140.5V141.5ZM0.500004 141.5H165.5V140.5H0.500004V141.5ZM3.8445e-06 134L3.8445e-06 141H1V134H3.8445e-06ZM0.500004 148.5H165.5V147.5H0.500004V148.5ZM1 155L1 148H3.8445e-06L3.8445e-06 155H1ZM165.5 154.5H0.500004V155.5H165.5V154.5ZM168.5 151.5C168.5 153.157 167.157 154.5 165.5 154.5V155.5C167.709 155.5 169.5 153.709 169.5 151.5H168.5ZM165.5 148.5C167.157 148.5 168.5 149.843 168.5 151.5H169.5C169.5 149.291 167.709 147.5 165.5 147.5V148.5ZM165.5 161.5H0.500004V162.5H165.5V161.5ZM169.5 165.5C169.5 163.291 167.709 161.5 165.5 161.5V162.5C167.157 162.5 168.5 163.843 168.5 165.5H169.5ZM165.5 169.5C167.709 169.5 169.5 167.709 169.5 165.5H168.5C168.5 167.157 167.157 168.5 165.5 168.5V169.5ZM0.500004 169.5H165.5V168.5H0.500004V169.5ZM3.8445e-06 162L3.8445e-06 169H1V162H3.8445e-06ZM0.500004 176.5H165.5V175.5H0.500004V176.5ZM1 183L1 176H3.8445e-06L3.8445e-06 183H1ZM165.5 182.5H0.500004V183.5H165.5V182.5ZM168.5 179.5C168.5 181.157 167.157 182.5 165.5 182.5V183.5C167.709 183.5 169.5 181.709 169.5 179.5H168.5ZM165.5 176.5C167.157 176.5 168.5 177.843 168.5 179.5H169.5C169.5 177.291 167.709 175.5 165.5 175.5V176.5ZM165.5 189.5H0.500004L0.500004 190.5H165.5V189.5ZM169.5 193.5C169.5 191.291 167.709 189.5 165.5 189.5V190.5C167.157 190.5 168.5 191.843 168.5 193.5H169.5ZM165.5 197.5C167.709 197.5 169.5 195.709 169.5 193.5H168.5C168.5 195.157 167.157 196.5 165.5 196.5V197.5ZM0.500004 197.5H165.5V196.5H0.500004V197.5ZM3.8445e-06 190L3.8445e-06 197H1V190H3.8445e-06ZM0.500004 204.5H165.5V203.5H0.500004V204.5ZM1 211V204H3.8445e-06L3.8445e-06 211H1ZM165.5 210.5H0.500004V211.5H165.5V210.5ZM168.5 207.5C168.5 209.157 167.157 210.5 165.5 210.5V211.5C167.709 211.5 169.5 209.709 169.5 207.5H168.5ZM165.5 204.5C167.157 204.5 168.5 205.843 168.5 207.5H169.5C169.5 205.291 167.709 203.5 165.5 203.5V204.5Z" fill="#B9B7AC"/>
<circle opacity="0.3" cx="57" cy="57" r="28" stroke="#3C402B"/>
<circle opacity="0.3" cx="57" cy="57" r="21" stroke="#3C402B"/>
<g opacity="0.4">
<path d="M295.455 208.158C294.699 208.158 294.051 207.994 293.512 207.665C292.973 207.332 292.559 206.87 292.268 206.279C291.981 205.687 291.838 205.001 291.838 204.221C291.838 203.44 291.981 202.754 292.268 202.163C292.559 201.571 292.973 201.111 293.512 200.782C294.051 200.449 294.699 200.283 295.455 200.283C296.211 200.283 296.858 200.449 297.397 200.782C297.94 201.111 298.355 201.571 298.642 202.163C298.932 202.754 299.077 203.44 299.077 204.221C299.077 205.001 298.932 205.687 298.642 206.279C298.355 206.87 297.94 207.332 297.397 207.665C296.858 207.994 296.211 208.158 295.455 208.158ZM295.455 206.966C295.962 206.97 296.384 206.858 296.72 206.63C297.06 206.403 297.313 206.083 297.481 205.67C297.653 205.257 297.739 204.774 297.739 204.221C297.739 203.668 297.653 203.188 297.481 202.782C297.313 202.373 297.06 202.054 296.72 201.827C296.384 201.599 295.962 201.482 295.455 201.475C294.947 201.471 294.526 201.583 294.19 201.811C293.854 202.038 293.6 202.359 293.428 202.772C293.26 203.185 293.176 203.668 293.176 204.221C293.176 204.774 293.26 205.255 293.428 205.664C293.596 206.07 293.848 206.387 294.184 206.615C294.524 206.842 294.947 206.959 295.455 206.966Z" fill="#3C402B"/>
<path d="M307.52 208.158C306.764 208.158 306.116 207.994 305.577 207.665C305.038 207.332 304.623 206.87 304.333 206.279C304.046 205.687 303.902 205.001 303.902 204.221C303.902 203.44 304.046 202.754 304.333 202.163C304.623 201.571 305.038 201.111 305.577 200.782C306.116 200.449 306.764 200.283 307.52 200.283C308.391 200.283 309.117 200.502 309.698 200.939C310.279 201.373 310.687 201.96 310.922 202.698L309.646 203.05C309.499 202.556 309.249 202.171 308.895 201.895C308.542 201.615 308.083 201.475 307.52 201.475C307.012 201.475 306.589 201.589 306.249 201.816C305.913 202.044 305.659 202.364 305.488 202.777C305.32 203.186 305.234 203.668 305.231 204.221C305.231 204.774 305.315 205.257 305.483 205.67C305.654 206.079 305.91 206.398 306.249 206.625C306.589 206.853 307.012 206.966 307.52 206.966C308.083 206.966 308.542 206.826 308.895 206.546C309.249 206.266 309.499 205.881 309.646 205.391L310.922 205.743C310.687 206.482 310.279 207.07 309.698 207.507C309.117 207.941 308.391 208.158 307.52 208.158Z" fill="#3C402B"/>
<path d="M318.091 208.001V201.627H315.644V200.441H321.803V201.627H319.356V208.001H318.091Z" fill="#3C402B"/>
<path d="M326.112 208.001L328.495 200.441H330.349L332.732 208.001H331.43L329.267 201.218H329.551L327.414 208.001H326.112ZM327.44 206.363V205.181H331.409V206.363H327.44Z" fill="#3C402B"/>
<path d="M338.844 208.001L336.461 200.441H337.763L339.758 206.772L341.779 200.441H343.081L340.697 208.001H338.844Z" fill="#3C402B"/>
<path d="M348.07 208.001V200.441H352.952V201.627H349.335V203.491H352.322V204.677H349.335V206.814H352.952V208.001H348.07Z" fill="#3C402B"/>
</g>
<g opacity="0.4">
<path d="M485.816 208.001L483.605 200.441H484.934L486.44 205.901L487.942 200.452L489.27 200.441L490.777 205.901L492.278 200.441H493.607L491.402 208.001H490.152L488.603 202.625L487.065 208.001H485.816Z" fill="#3C402B"/>
<path d="M497.4 208.001L499.784 200.441H501.637L504.02 208.001H502.718L500.555 201.218H500.839L498.702 208.001H497.4ZM498.728 206.363V205.182H502.697V206.363H498.728Z" fill="#3C402B"/>
<path d="M510.132 208.001L507.749 200.441H509.051L511.046 206.773L513.067 200.441H514.369L511.985 208.001H510.132Z" fill="#3C402B"/>
<path d="M519.358 208.001V200.441H524.24V201.628H520.623V203.492H523.61V204.678H520.623V206.815H524.24V208.001H519.358Z" fill="#3C402B"/>
</g>
<g opacity="0.4">
<path d="M217.243 208.001L214.86 200.441H216.162L218.157 206.772L220.178 200.441H221.48L219.097 208.001H217.243Z" fill="#3C402B"/>
<path d="M229.461 208.158C228.705 208.158 228.058 207.994 227.519 207.665C226.98 207.332 226.565 206.87 226.274 206.279C225.987 205.687 225.844 205.001 225.844 204.221C225.844 203.44 225.987 202.754 226.274 202.163C226.565 201.571 226.98 201.111 227.519 200.782C228.058 200.449 228.705 200.283 229.461 200.283C230.217 200.283 230.865 200.449 231.404 200.782C231.946 201.111 232.361 201.571 232.648 202.163C232.938 202.754 233.084 203.44 233.084 204.221C233.084 205.001 232.938 205.687 232.648 206.279C232.361 206.87 231.946 207.332 231.404 207.665C230.865 207.994 230.217 208.158 229.461 208.158ZM229.461 206.966C229.969 206.97 230.39 206.858 230.726 206.63C231.066 206.403 231.32 206.083 231.488 205.67C231.659 205.257 231.745 204.774 231.745 204.221C231.745 203.668 231.659 203.188 231.488 202.782C231.32 202.373 231.066 202.054 230.726 201.827C230.39 201.599 229.969 201.482 229.461 201.475C228.954 201.471 228.532 201.583 228.196 201.811C227.86 202.038 227.606 202.359 227.435 202.772C227.267 203.185 227.183 203.668 227.183 204.221C227.183 204.774 227.267 205.255 227.435 205.664C227.603 206.07 227.855 206.387 228.191 206.615C228.53 206.842 228.954 206.959 229.461 206.966Z" fill="#3C402B"/>
<path d="M238.434 208.001V200.441H239.699V206.814H243.038V208.001H238.434Z" fill="#3C402B"/>
</g>
<path d="M73.746 54.6413C73.2586 54.6669 72.8446 54.6004 72.5038 54.4421C72.1671 54.2835 71.9092 54.0627 71.7301 53.7796C71.551 53.4966 71.4525 53.1834 71.4345 52.8398C71.4161 52.4883 71.4703 52.1851 71.5971 51.9301C71.7277 51.6709 71.9107 51.455 72.146 51.2825C72.3853 51.1097 72.6645 50.9729 72.9836 50.8721C73.307 50.775 73.6648 50.6861 74.0572 50.6055C74.4533 50.5207 74.8399 50.4463 75.2171 50.3825C75.598 50.3145 75.9312 50.2509 76.2165 50.1919L75.915 50.4C75.8934 49.7602 75.7448 49.2934 75.469 48.9994C75.1933 48.7054 74.7338 48.5753 74.0907 48.609C73.6473 48.6323 73.2771 48.7518 72.98 48.9676C72.6869 49.1833 72.4897 49.51 72.3885 49.9479L71.5184 49.7412C71.6359 49.1542 71.9099 48.6893 72.3406 48.3463C72.7712 48.0032 73.344 47.813 74.0591 47.7755C74.6502 47.7445 75.1574 47.8301 75.5806 48.0323C76.0075 48.2302 76.3179 48.5344 76.5116 48.9448C76.6013 49.1283 76.6643 49.3353 76.7004 49.5657C76.7365 49.7962 76.7608 50.0312 76.7734 50.2709L76.9841 54.2914L76.1992 54.3325L76.1141 52.7087L76.3468 52.7927C76.1562 53.3594 75.8368 53.8007 75.3887 54.1166C74.9407 54.4325 74.3931 54.6074 73.746 54.6413ZM73.8079 53.875C74.2194 53.8535 74.575 53.7607 74.8748 53.5968C75.1747 53.4329 75.4118 53.2182 75.5861 52.9527C75.7602 52.6832 75.8668 52.3852 75.9058 52.0588C75.9428 51.8485 75.9568 51.6195 75.9478 51.3716C75.9387 51.1197 75.9308 50.9319 75.9243 50.8081L76.269 50.9642C75.9715 51.0199 75.648 51.0769 75.2986 51.1353C74.9532 51.1934 74.612 51.2574 74.2752 51.3271C73.9424 51.3966 73.6421 51.4744 73.3742 51.5606C73.1932 51.6221 73.0193 51.7053 72.8526 51.8102C72.6856 51.9111 72.5503 52.0423 72.4466 52.204C72.3469 52.3654 72.3032 52.562 72.3153 52.7937C72.3251 52.9814 72.3806 53.1608 72.4817 53.3317C72.5868 53.5024 72.7462 53.6403 72.96 53.7452C73.1778 53.85 73.4604 53.8932 73.8079 53.875Z" fill="#3C402B"/>
<path d="M78.5439 54.2096L78.2048 47.7385L78.9957 47.6971L79.0773 49.2549L78.9109 49.0594C78.9727 48.8639 79.0574 48.6832 79.1648 48.5173C79.2721 48.3475 79.3909 48.2071 79.5213 48.0961C79.6813 47.9395 79.8712 47.8174 80.0909 47.7298C80.3104 47.6382 80.5337 47.5804 80.7607 47.5565C80.9876 47.5286 81.1961 47.5337 81.3864 47.5718L81.4297 48.3986C81.1909 48.3511 80.9325 48.3506 80.6546 48.3972C80.3767 48.4438 80.1249 48.5692 79.8992 48.7732C79.6923 48.9523 79.5411 49.1625 79.4456 49.4038C79.3499 49.6412 79.291 49.8926 79.2689 50.1581C79.2465 50.4197 79.242 50.6783 79.2554 50.9339L79.4247 54.1635L78.5439 54.2096Z" fill="#3C402B"/>
<path d="M82.8622 53.9833L82.5231 47.5122L83.314 47.4707L83.3956 49.0286L83.2292 48.8331C83.291 48.6375 83.3757 48.4569 83.4831 48.291C83.5904 48.1212 83.7092 47.9808 83.8396 47.8698C83.9996 47.7132 84.1895 47.5911 84.4092 47.5035C84.6287 47.4119 84.852 47.3541 85.079 47.3302C85.3059 47.3023 85.5144 47.3074 85.7047 47.3455L85.748 48.1723C85.5092 48.1248 85.2508 48.1243 84.9729 48.1709C84.695 48.2175 84.4432 48.3428 84.2175 48.5469C84.0106 48.726 83.8594 48.9362 83.7639 49.1775C83.6682 49.4149 83.6093 49.6663 83.5872 49.9318C83.5648 50.1934 83.5603 50.4519 83.5737 50.7076L83.743 53.9372L82.8622 53.9833Z" fill="#3C402B"/>
<path d="M89.7752 53.8013C89.1321 53.835 88.5752 53.718 88.1045 53.4502C87.6339 53.1825 87.2632 52.7974 86.9925 52.2948C86.7219 51.7923 86.569 51.2075 86.5341 50.5404C86.4985 49.8614 86.5911 49.2597 86.812 48.7354C87.0329 48.2111 87.3635 47.7953 87.8041 47.4878C88.2483 47.1761 88.7861 47.0037 89.4172 46.9706C90.0643 46.9367 90.6232 47.0536 91.0939 47.3214C91.5683 47.5849 91.9389 47.968 92.2055 48.4708C92.476 48.9693 92.6287 49.5521 92.6637 50.2192C92.6993 50.8983 92.6087 51.5018 92.3921 52.0299C92.1752 52.554 91.8446 52.9718 91.4003 53.2835C90.956 53.5952 90.4143 53.7678 89.7752 53.8013ZM89.7309 52.9564C90.4499 52.9187 90.9727 52.653 91.2993 52.1593C91.6257 51.6615 91.7689 51.0311 91.7289 50.2682C91.6879 49.4852 91.4775 48.8714 91.0977 48.4267C90.7219 47.9817 90.1765 47.778 89.4615 47.8155C88.9781 47.8408 88.5844 47.9716 88.2804 48.2078C87.9801 48.4399 87.7622 48.7537 87.6268 49.1493C87.4951 49.5408 87.4424 49.9881 87.4688 50.4914C87.5096 51.2704 87.7221 51.8861 88.1063 52.3386C88.4903 52.7871 89.0319 52.9931 89.7309 52.9564Z" fill="#3C402B"/>
<path d="M95.2993 53.3315L92.9826 46.958L93.8637 46.9179L95.6611 51.8646L96.9375 46.7568L97.7404 46.7147L99.5437 51.6611L100.826 46.553L101.701 46.5071L100.063 53.0819L99.2959 53.1221L97.408 48.0539L96.0663 53.2913L95.2993 53.3315Z" fill="#3C402B"/>
<path d="M102.822 49.5306L102.782 48.7757L106.377 48.5872L106.417 49.3422L102.822 49.5306Z" fill="#3C402B"/>
<path d="M108.793 52.6243L108.429 45.6739C108.42 45.5061 108.419 45.3399 108.426 45.1753C108.438 45.0105 108.468 44.8527 108.516 44.702C108.564 44.5473 108.644 44.4029 108.757 44.2687C108.882 44.118 109.02 44.0066 109.173 43.9346C109.325 43.8585 109.484 43.8061 109.651 43.7773C109.822 43.7483 109.989 43.7296 110.153 43.721L110.98 43.6776L111.019 44.4206L110.252 44.4608C109.916 44.4784 109.669 44.5735 109.509 44.746C109.354 44.9184 109.286 45.1803 109.304 45.5319L109.674 52.5782L108.793 52.6243ZM107.373 46.9669L107.333 46.212L111.102 46.0144L111.142 46.7694L107.373 46.9669Z" fill="#3C402B"/>
<path d="M114.085 52.5272C113.598 52.5528 113.184 52.4864 112.843 52.328C112.506 52.1694 112.248 51.9486 112.069 51.6656C111.89 51.3825 111.792 51.0693 111.774 50.7257C111.755 50.3742 111.809 50.071 111.936 49.816C112.067 49.5568 112.25 49.3409 112.485 49.1684C112.724 48.9956 113.004 48.8588 113.323 48.758C113.646 48.6609 114.004 48.5721 114.396 48.4914C114.792 48.4066 115.179 48.3322 115.556 48.2684C115.937 48.2004 116.27 48.1369 116.556 48.0778L116.254 48.2859C116.233 47.6462 116.084 47.1793 115.808 46.8853C115.532 46.5914 115.073 46.4612 114.43 46.4949C113.986 46.5182 113.616 46.6377 113.319 46.8536C113.026 47.0692 112.829 47.396 112.728 47.8339L111.858 47.6271C111.975 47.0402 112.249 46.5752 112.68 46.2322C113.11 45.8892 113.683 45.6989 114.398 45.6614C114.989 45.6305 115.497 45.716 115.92 45.9182C116.347 46.1161 116.657 46.4203 116.851 46.8307C116.941 47.0142 117.003 47.2212 117.04 47.4517C117.076 47.6821 117.1 47.9171 117.113 48.1568L117.323 52.1773L116.538 52.2184L116.453 50.5947L116.686 50.6786C116.495 51.2453 116.176 51.6867 115.728 52.0025C115.28 52.3184 114.732 52.4933 114.085 52.5272ZM114.147 51.7609C114.559 51.7394 114.914 51.6466 115.214 51.4827C115.514 51.3188 115.751 51.1041 115.925 50.8386C116.099 50.5691 116.206 50.2712 116.245 49.9447C116.282 49.7344 116.296 49.5054 116.287 49.2575C116.278 49.0057 116.27 48.8178 116.263 48.694L116.608 48.8502C116.311 48.9058 115.987 48.9628 115.638 49.0212C115.292 49.0793 114.951 49.1433 114.614 49.213C114.282 49.2825 113.981 49.3603 113.713 49.4465C113.532 49.508 113.358 49.5912 113.192 49.6961C113.025 49.797 112.889 49.9283 112.786 50.0899C112.686 50.2513 112.642 50.4479 112.654 50.6796C112.664 50.8673 112.72 51.0467 112.821 51.2176C112.926 51.3883 113.085 51.5262 113.299 51.6311C113.517 51.7359 113.8 51.7792 114.147 51.7609Z" fill="#3C402B"/>
<path d="M122.406 51.9109C122.047 52.0058 121.689 52.0546 121.332 52.0573C120.98 52.0597 120.661 52.0004 120.374 51.8792C120.091 51.7579 119.87 51.5571 119.711 51.2771C119.583 51.0435 119.506 50.8052 119.482 50.5621C119.461 50.3149 119.442 50.0335 119.425 49.7179L119.115 43.792L119.99 43.7462L120.298 49.6361C120.313 49.9077 120.326 50.1353 120.34 50.3189C120.357 50.4982 120.408 50.6558 120.491 50.7916C120.649 51.0517 120.885 51.1995 121.199 51.2351C121.518 51.2705 121.906 51.2381 122.366 51.138L122.406 51.9109ZM117.864 46.4171L117.825 45.6621L122.067 45.4398L122.107 46.1947L117.864 46.4171Z" fill="#3C402B"/>
<path d="M123.383 48.453L123.344 47.6981L126.939 47.5097L126.978 48.2646L123.383 48.453Z" fill="#3C402B"/>
<path d="M128.833 51.5741L128.372 42.7662L129.252 42.72L129.714 51.5279L128.833 51.5741Z" fill="#3C402B"/>
<path d="M131.227 43.7281L131.175 42.7394L132.056 42.6933L132.107 43.6819L131.227 43.7281ZM131.63 51.4275L131.291 44.9564L132.172 44.9102L132.511 51.3813L131.63 51.4275Z" fill="#3C402B"/>
<path d="M138.981 51.0423L138.808 47.7408C138.789 47.3813 138.738 47.0535 138.654 46.7575C138.57 46.4575 138.447 46.1996 138.283 45.9838C138.123 45.7639 137.92 45.5983 137.674 45.487C137.432 45.3756 137.141 45.3287 136.802 45.3465C136.49 45.3628 136.217 45.4312 135.983 45.5516C135.753 45.6718 135.562 45.8381 135.409 46.0504C135.259 46.2585 135.15 46.5085 135.081 46.8005C135.013 47.0925 134.988 47.4223 135.007 47.7898L134.377 47.6846C134.342 47.0215 134.429 46.4582 134.637 45.9947C134.845 45.5312 135.146 45.1729 135.542 44.9199C135.937 44.6668 136.398 44.5265 136.926 44.4989C137.313 44.4786 137.654 44.5208 137.948 44.6255C138.245 44.7301 138.5 44.879 138.71 45.0723C138.924 45.2653 139.1 45.4904 139.238 45.7475C139.375 46.0007 139.48 46.2736 139.551 46.5663C139.623 46.8549 139.666 47.1451 139.681 47.4367L139.868 50.9958L138.981 51.0423ZM134.301 51.2875L133.962 44.8164L134.759 44.7746L134.843 46.3684L134.932 46.3637L135.188 51.241L134.301 51.2875Z" fill="#3C402B"/>
<path d="M144.123 50.953C143.492 50.9861 142.938 50.875 142.46 50.6196C141.986 50.3641 141.607 49.9894 141.325 49.4954C141.043 49.0015 140.884 48.4131 140.848 47.73C140.811 47.023 140.905 46.4052 141.13 45.8767C141.354 45.3482 141.687 44.9323 142.128 44.6288C142.572 44.3251 143.106 44.1569 143.729 44.1243C144.368 44.0908 144.921 44.21 145.388 44.4819C145.855 44.7499 146.219 45.1514 146.479 45.6865C146.739 46.2216 146.879 46.8692 146.899 47.6292L146 47.6763L145.984 47.3647C145.924 46.5267 145.709 45.9031 145.339 45.4939C144.973 45.0845 144.459 44.8971 143.796 44.9319C143.101 44.9683 142.579 45.222 142.231 45.6928C141.888 46.1634 141.738 46.8162 141.781 47.6511C141.824 48.4659 142.041 49.0894 142.432 49.5216C142.827 49.9495 143.364 50.1456 144.043 50.11C144.506 50.0858 144.904 49.9588 145.237 49.7291C145.573 49.4951 145.83 49.1712 146.009 48.7573L146.846 49.0319C146.62 49.6085 146.266 50.0657 145.783 50.4034C145.304 50.7369 144.75 50.9201 144.123 50.953ZM141.483 47.913L141.444 47.1761L146.387 46.917L146.426 47.654L141.483 47.913Z" fill="#3C402B"/>
<path d="M150.809 50.5966C150.05 50.6364 149.417 50.5054 148.908 50.2036C148.404 49.9015 148.08 49.4619 147.938 48.8845L148.829 48.6876C148.944 49.0501 149.177 49.3323 149.528 49.5342C149.883 49.7319 150.312 49.8176 150.815 49.7912C151.307 49.7654 151.689 49.6433 151.962 49.4247C152.234 49.2021 152.361 48.9131 152.343 48.5575C152.332 48.3578 152.278 48.1985 152.179 48.0794C152.085 47.9562 151.897 47.8479 151.616 47.7545C151.334 47.6611 150.916 47.5548 150.361 47.4357C149.766 47.3067 149.298 47.171 148.958 47.0286C148.618 46.8862 148.373 46.7148 148.222 46.5144C148.071 46.31 147.988 46.056 147.972 45.7525C147.953 45.385 148.04 45.058 148.233 44.7715C148.426 44.4809 148.702 44.2502 149.062 44.0791C149.421 43.9041 149.845 43.8038 150.332 43.7782C150.819 43.7527 151.259 43.8098 151.651 43.9495C152.046 44.0849 152.369 44.2883 152.62 44.5596C152.87 44.8308 153.027 45.153 153.091 45.5262L152.201 45.7351C152.121 45.3588 151.916 45.0691 151.585 44.8662C151.257 44.659 150.85 44.5642 150.362 44.5818C149.902 44.5939 149.533 44.7013 149.255 44.9041C148.977 45.1029 148.846 45.3561 148.863 45.6637C148.872 45.8355 148.931 45.9806 149.042 46.099C149.152 46.2133 149.345 46.3173 149.623 46.411C149.904 46.5044 150.302 46.6017 150.816 46.7029C151.419 46.8235 151.894 46.9588 152.243 47.1088C152.591 47.2588 152.843 47.4438 152.999 47.664C153.155 47.8841 153.241 48.162 153.259 48.4975C153.291 49.1087 153.088 49.602 152.651 49.9773C152.218 50.3485 151.604 50.5549 150.809 50.5966Z" fill="#3C402B"/>
<path d="M154.384 46.8284L154.344 46.0734L157.939 45.885L157.979 46.64L154.384 46.8284Z" fill="#3C402B"/>
<path d="M162.197 49.9878C161.809 50.0081 161.467 49.966 161.169 49.8614C160.875 49.7567 160.621 49.6077 160.406 49.4147C160.196 49.2215 160.022 48.9982 159.885 48.7451C159.747 48.4879 159.643 48.215 159.571 47.9264C159.5 47.6337 159.457 47.3416 159.441 47.05L159.255 43.4909L160.142 43.4444L160.315 46.7459C160.333 47.1014 160.384 47.4291 160.468 47.7292C160.552 48.0292 160.674 48.2892 160.834 48.5091C160.997 48.7248 161.2 48.8885 161.442 48.9999C161.688 49.1112 161.981 49.1579 162.321 49.1401C162.632 49.1238 162.903 49.0555 163.133 48.9353C163.367 48.8149 163.559 48.6507 163.708 48.4426C163.861 48.2303 163.972 47.9781 164.041 47.6861C164.11 47.3901 164.134 47.0604 164.115 46.6969L164.746 46.802C164.78 47.4651 164.694 48.0284 164.486 48.4919C164.278 48.9555 163.976 49.3137 163.581 49.5668C163.185 49.8198 162.724 49.9602 162.197 49.9878ZM164.363 49.712L164.28 48.1182L164.19 48.1229L163.934 43.2456L164.815 43.1995L165.154 49.6706L164.363 49.712Z" fill="#3C402B"/>
<path d="M169.744 49.6103C169.149 49.6415 168.638 49.518 168.211 49.24C167.784 48.958 167.451 48.5649 167.212 48.0607C166.973 47.5525 166.837 46.9768 166.803 46.3337C166.769 45.6786 166.844 45.0899 167.029 44.5675C167.217 44.0409 167.512 43.6189 167.912 43.3015C168.312 42.9842 168.815 42.8096 169.422 42.7777C170.014 42.7468 170.529 42.87 170.968 43.1474C171.407 43.4248 171.752 43.8153 172.003 44.3188C172.257 44.8222 172.401 45.3954 172.435 46.0385C172.469 46.6857 172.386 47.2728 172.185 47.8C171.984 48.3273 171.678 48.7539 171.267 49.0799C170.855 49.4018 170.348 49.5786 169.744 49.6103ZM166.974 52.4592L166.484 43.112L167.275 43.0705L167.53 47.9419L167.626 47.9368L167.861 52.4127L166.974 52.4592ZM169.612 48.7941C170.063 48.7704 170.432 48.6369 170.72 48.3935C171.008 48.1501 171.215 47.8288 171.342 47.4296C171.474 47.0262 171.526 46.5789 171.5 46.0875C171.475 45.6002 171.378 45.1647 171.21 44.781C171.041 44.3972 170.799 44.0995 170.484 43.8877C170.172 43.6757 169.785 43.5819 169.322 43.6062C168.87 43.6298 168.501 43.7593 168.212 43.9947C167.928 44.2299 167.723 44.5471 167.595 44.9463C167.468 45.3416 167.417 45.7928 167.444 46.3001C167.47 46.7994 167.568 47.2429 167.736 47.6307C167.904 48.0144 168.144 48.3102 168.456 48.5182C168.767 48.7262 169.152 48.8182 169.612 48.7941Z" fill="#3C402B"/>
<circle cx="275.775" cy="73.0938" r="4" transform="rotate(-3 275.775 73.0938)" fill="#3C402B"/>
<path d="M178.231 46.1602L246.138 42.6013C248.344 42.4857 250.226 44.1804 250.342 46.3865L251.598 70.3536C251.714 72.5597 253.596 74.2544 255.802 74.1388L275.775 73.092" stroke="#3C402B"/>
<path d="M89.1532 91.0652C88.6658 91.0907 88.2518 91.0243 87.911 90.8659C87.5743 90.7073 87.3164 90.4865 87.1373 90.2035C86.9583 89.9205 86.8597 89.6072 86.8417 89.2637C86.8233 88.9121 86.8775 88.6089 87.0043 88.3539C87.135 88.0947 87.3179 87.8788 87.5532 87.7063C87.7925 87.5335 88.0717 87.3967 88.3909 87.2959C88.7142 87.1988 89.0721 87.11 89.4644 87.0293C89.8605 86.9445 90.2471 86.8702 90.6243 86.8063C91.0053 86.7383 91.3384 86.6748 91.6237 86.6158L91.3222 86.8238C91.3007 86.1841 91.152 85.7172 90.8763 85.4232C90.6005 85.1293 90.1411 84.9991 89.4979 85.0328C89.0546 85.0561 88.6843 85.1756 88.3872 85.3915C88.0941 85.6071 87.8969 85.9339 87.7957 86.3718L86.9257 86.165C87.0431 85.5781 87.3172 85.1131 87.7478 84.7701C88.1784 84.4271 88.7513 84.2368 89.4663 84.1994C90.0575 84.1684 90.5646 84.2539 90.9878 84.4561C91.4147 84.654 91.7251 84.9582 91.9188 85.3686C92.0086 85.5522 92.0715 85.7591 92.1076 85.9896C92.1437 86.22 92.168 86.455 92.1806 86.6947L92.3913 90.7152L91.6064 90.7563L91.5213 89.1326L91.754 89.2165C91.5634 89.7833 91.2441 90.2246 90.796 90.5405C90.3479 90.8563 89.8003 91.0312 89.1532 91.0652ZM89.2152 90.2989C89.6266 90.2773 89.9822 90.1846 90.2821 90.0206C90.5819 89.8567 90.819 89.642 90.9933 89.3765C91.1675 89.1071 91.274 88.8091 91.313 88.4826C91.35 88.2724 91.3641 88.0433 91.3551 87.7954C91.3459 87.5436 91.338 87.3557 91.3315 87.2319L91.6762 87.3881C91.3787 87.4437 91.0552 87.5007 90.7058 87.5591C90.3604 87.6172 90.0193 87.6812 89.6825 87.7509C89.3496 87.8204 89.0493 87.8982 88.7814 87.9844C88.6004 88.0459 88.4265 88.1292 88.2598 88.234C88.0928 88.3349 87.9575 88.4662 87.8538 88.6278C87.7542 88.7893 87.7104 88.9858 87.7225 89.2175C87.7324 89.4052 87.7878 89.5846 87.8889 89.7555C87.994 89.9263 88.1534 90.0641 88.3672 90.1691C88.585 90.2738 88.8676 90.3171 89.2152 90.2989Z" fill="#3C402B"/>
<path d="M93.9511 90.6335L93.612 84.1623L94.4029 84.1209L94.4846 85.6787L94.3181 85.4832C94.3799 85.2877 94.4646 85.107 94.5721 84.9412C94.6793 84.7713 94.7981 84.6309 94.9285 84.5199C95.0885 84.3633 95.2784 84.2412 95.4981 84.1536C95.7176 84.062 95.9409 84.0042 96.168 83.9803C96.3948 83.9524 96.6034 83.9575 96.7936 83.9956L96.837 84.8225C96.5981 84.7749 96.3398 84.7744 96.0618 84.821C95.7839 84.8676 95.5321 84.993 95.3065 85.1971C95.0996 85.3761 94.9484 85.5863 94.8529 85.8277C94.7571 86.065 94.6982 86.3164 94.6761 86.582C94.6537 86.8435 94.6493 87.1021 94.6627 87.3577L94.8319 90.5873L93.9511 90.6335Z" fill="#3C402B"/>
<path d="M98.2694 90.4071L97.9303 83.936L98.7212 83.8946L98.8028 85.4524L98.6364 85.2569C98.6982 85.0614 98.7829 84.8807 98.8904 84.7148C98.9976 84.545 99.1164 84.4046 99.2468 84.2936C99.4068 84.137 99.5967 84.0149 99.8164 83.9273C100.036 83.8357 100.259 83.7779 100.486 83.754C100.713 83.7261 100.922 83.7312 101.112 83.7693L101.155 84.5961C100.916 84.5486 100.658 84.5481 100.38 84.5947C100.102 84.6413 99.8504 84.7667 99.6248 84.9708C99.4179 85.1498 99.2666 85.36 99.1711 85.6014C99.0754 85.8387 99.0165 86.0901 98.9944 86.3557C98.972 86.6172 98.9676 86.8758 98.981 87.1314L99.1502 90.361L98.2694 90.4071Z" fill="#3C402B"/>
<path d="M105.182 90.2251C104.539 90.2588 103.982 90.1418 103.512 89.8741C103.041 89.6063 102.67 89.2212 102.4 88.7187C102.129 88.2161 101.976 87.6313 101.941 86.9643C101.906 86.2852 101.998 85.6835 102.219 85.1592C102.44 84.635 102.771 84.2191 103.211 83.9116C103.656 83.5999 104.193 83.4275 104.824 83.3945C105.472 83.3606 106.03 83.4775 106.501 83.7452C106.976 84.0087 107.346 84.3919 107.613 84.8946C107.883 85.3931 108.036 85.9759 108.071 86.643C108.106 87.3221 108.016 87.9257 107.799 88.4537C107.582 88.9778 107.252 89.3957 106.808 89.7073C106.363 90.019 105.822 90.1916 105.182 90.2251ZM105.138 89.3803C105.857 89.3426 106.38 89.0768 106.707 88.5831C107.033 88.0853 107.176 87.455 107.136 86.692C107.095 85.9091 106.885 85.2952 106.505 84.8505C106.129 84.4056 105.584 84.2018 104.869 84.2393C104.385 84.2646 103.992 84.3954 103.688 84.6317C103.387 84.8637 103.169 85.1775 103.034 85.5732C102.902 85.9646 102.85 86.412 102.876 86.9153C102.917 87.6942 103.129 88.3099 103.514 88.7624C103.898 89.211 104.439 89.4169 105.138 89.3803Z" fill="#3C402B"/>
<path d="M110.707 89.7553L108.39 83.3819L109.271 83.3417L111.068 88.2884L112.345 83.1806L113.148 83.1385L114.951 88.0849L116.233 82.9768L117.108 82.931L115.47 89.5057L114.703 89.5459L112.815 84.4777L111.474 89.7151L110.707 89.7553Z" fill="#3C402B"/>
<path d="M118.229 85.9544L118.189 85.1995L121.784 85.0111L121.824 85.766L118.229 85.9544Z" fill="#3C402B"/>
<path d="M124.2 89.0482L123.836 82.0977C123.827 81.9299 123.826 81.7638 123.834 81.5991C123.845 81.4343 123.875 81.2765 123.923 81.1258C123.971 80.9711 124.052 80.8267 124.165 80.6926C124.289 80.5419 124.427 80.4305 124.58 80.3584C124.732 80.2823 124.891 80.2299 125.058 80.2011C125.229 80.1722 125.396 80.1534 125.56 80.1448L126.387 80.1015L126.426 80.8445L125.659 80.8846C125.323 80.9022 125.076 80.9973 124.917 81.1699C124.762 81.3422 124.693 81.6042 124.712 81.9557L125.081 89.002L124.2 89.0482ZM122.78 83.3907L122.74 82.6358L126.509 82.4383L126.549 83.1932L122.78 83.3907Z" fill="#3C402B"/>
<path d="M129.492 88.9511C129.005 88.9766 128.591 88.9102 128.25 88.7518C127.913 88.5932 127.656 88.3724 127.476 88.0894C127.297 87.8064 127.199 87.4931 127.181 87.1496C127.162 86.7981 127.217 86.4948 127.344 86.2398C127.474 85.9806 127.657 85.7648 127.892 85.5922C128.132 85.4194 128.411 85.2826 128.73 85.1818C129.053 85.0847 129.411 84.9959 129.804 84.9152C130.2 84.8304 130.586 84.7561 130.963 84.6922C131.344 84.6242 131.678 84.5607 131.963 84.5017L131.661 84.7097C131.64 84.07 131.491 83.6031 131.215 83.3092C130.94 83.0152 130.48 82.8851 129.837 82.9188C129.394 82.942 129.023 83.0615 128.726 83.2774C128.433 83.493 128.236 83.8198 128.135 84.2577L127.265 84.0509C127.382 83.464 127.656 82.999 128.087 82.656C128.518 82.313 129.09 82.1227 129.805 82.0853C130.397 82.0543 130.904 82.1399 131.327 82.342C131.754 82.5399 132.064 82.8441 132.258 83.2545C132.348 83.4381 132.411 83.6451 132.447 83.8755C132.483 84.1059 132.507 84.341 132.52 84.5806L132.73 88.6011L131.946 88.6423L131.86 87.0185L132.093 87.1024C131.903 87.6692 131.583 88.1105 131.135 88.4264C130.687 88.7423 130.139 88.9172 129.492 88.9511ZM129.554 88.1848C129.966 88.1632 130.321 88.0705 130.621 87.9066C130.921 87.7426 131.158 87.5279 131.332 87.2624C131.507 86.993 131.613 86.695 131.652 86.3685C131.689 86.1583 131.703 85.9292 131.694 85.6813C131.685 85.4295 131.677 85.2416 131.671 85.1178L132.015 85.274C131.718 85.3296 131.394 85.3866 131.045 85.445C130.7 85.5032 130.358 85.5671 130.022 85.6368C129.689 85.7063 129.388 85.7842 129.121 85.8703C128.94 85.9319 128.766 86.0151 128.599 86.1199C128.432 86.2208 128.297 86.3521 128.193 86.5137C128.093 86.6752 128.05 86.8717 128.062 87.1034C128.072 87.2912 128.127 87.4705 128.228 87.6414C128.333 87.8122 128.493 87.95 128.706 88.055C128.924 88.1597 129.207 88.203 129.554 88.1848Z" fill="#3C402B"/>
<path d="M137.813 88.3347C137.454 88.4297 137.096 88.4785 136.74 88.4811C136.387 88.4836 136.068 88.4242 135.781 88.3031C135.498 88.1817 135.277 87.981 135.119 87.7009C134.99 87.4673 134.914 87.229 134.889 86.9859C134.868 86.7387 134.849 86.4573 134.833 86.1417L134.522 80.2159L135.397 80.17L135.706 86.0599C135.72 86.3316 135.734 86.5591 135.747 86.7427C135.765 86.922 135.815 87.0796 135.898 87.2154C136.056 87.4755 136.292 87.6234 136.606 87.659C136.925 87.6944 137.314 87.662 137.773 87.5618L137.813 88.3347ZM133.272 82.8409L133.232 82.0859L137.474 81.8636L137.514 82.6186L133.272 82.8409Z" fill="#3C402B"/>
<path d="M138.791 84.8769L138.751 84.1219L142.346 83.9335L142.386 84.6884L138.791 84.8769Z" fill="#3C402B"/>
<path d="M144.24 87.9979L143.779 79.19L144.66 79.1438L145.121 87.9517L144.24 87.9979Z" fill="#3C402B"/>
<path d="M146.634 80.1519L146.582 79.1632L147.463 79.1171L147.515 80.1057L146.634 80.1519ZM147.037 87.8513L146.698 81.3802L147.579 81.334L147.918 87.8052L147.037 87.8513Z" fill="#3C402B"/>
<path d="M154.388 87.4661L154.215 84.1646C154.196 83.8051 154.145 83.4773 154.061 83.1813C153.978 82.8813 153.854 82.6234 153.69 82.4077C153.531 82.1877 153.328 82.0221 153.081 81.9109C152.839 81.7994 152.548 81.7525 152.209 81.7703C151.897 81.7867 151.625 81.855 151.391 81.9754C151.161 82.0956 150.969 82.2619 150.816 82.4742C150.667 82.6823 150.558 82.9324 150.489 83.2244C150.42 83.5164 150.395 83.8461 150.414 84.2136L149.784 84.1084C149.749 83.4454 149.836 82.8821 150.044 82.4185C150.252 81.955 150.554 81.5967 150.949 81.3437C151.344 81.0907 151.805 80.9503 152.333 80.9227C152.72 80.9024 153.061 80.9446 153.355 81.0494C153.653 81.1539 153.907 81.3028 154.117 81.4961C154.332 81.6891 154.508 81.9142 154.645 82.1714C154.783 82.4245 154.887 82.6974 154.959 82.9901C155.03 83.2788 155.073 83.5689 155.088 83.8605L155.275 87.4196L154.388 87.4661ZM149.708 87.7113L149.369 81.2402L150.166 81.1985L150.25 82.7923L150.34 82.7876L150.595 87.6649L149.708 87.7113Z" fill="#3C402B"/>
<path d="M159.531 87.3768C158.899 87.4099 158.345 87.2988 157.867 87.0434C157.393 86.7879 157.015 86.4132 156.732 85.9193C156.45 85.4254 156.291 84.8369 156.255 84.1538C156.218 83.4468 156.312 82.829 156.537 82.3006C156.761 81.7721 157.094 81.3561 157.535 81.0526C157.98 80.7489 158.513 80.5807 159.137 80.5481C159.776 80.5146 160.329 80.6338 160.796 80.9058C161.262 81.1737 161.626 81.5752 161.886 82.1103C162.146 82.6454 162.287 83.293 162.306 84.053L161.408 84.1001L161.391 83.7885C161.331 82.9505 161.116 82.3269 160.746 81.9177C160.381 81.5083 159.866 81.321 159.203 81.3557C158.508 81.3922 157.986 81.6458 157.639 82.1166C157.295 82.5873 157.145 83.24 157.189 84.0749C157.231 84.8898 157.448 85.5133 157.839 85.9454C158.234 86.3733 158.771 86.5695 159.45 86.5339C159.914 86.5096 160.312 86.3826 160.644 86.1529C160.98 85.919 161.238 85.595 161.416 85.1811L162.254 85.4557C162.028 86.0323 161.673 86.4895 161.19 86.8272C160.711 87.1608 160.158 87.344 159.531 87.3768ZM156.89 84.3369L156.851 83.5999L161.794 83.3408L161.833 84.0778L156.89 84.3369Z" fill="#3C402B"/>
<path d="M166.217 87.0204C165.458 87.0602 164.824 86.9292 164.315 86.6274C163.811 86.3254 163.487 85.8857 163.345 85.3084L164.236 85.1115C164.351 85.4739 164.584 85.7561 164.935 85.958C165.29 86.1557 165.719 86.2414 166.222 86.215C166.714 86.1893 167.096 86.0671 167.369 85.8485C167.642 85.6259 167.769 85.3369 167.75 84.9814C167.739 84.7817 167.685 84.6223 167.587 84.5033C167.492 84.38 167.304 84.2717 167.023 84.1783C166.742 84.0849 166.324 83.9787 165.769 83.8595C165.173 83.7305 164.705 83.5948 164.365 83.4524C164.025 83.31 163.78 83.1386 163.629 82.9382C163.478 82.7339 163.395 82.4799 163.379 82.1763C163.36 81.8088 163.447 81.4818 163.64 81.1953C163.833 80.9048 164.11 80.674 164.469 80.5029C164.828 80.3279 165.252 80.2276 165.739 80.2021C166.226 80.1765 166.666 80.2336 167.058 80.3733C167.453 80.5088 167.777 80.7121 168.027 80.9834C168.278 81.2547 168.435 81.5769 168.498 81.9501L167.608 82.1589C167.528 81.7826 167.323 81.493 166.992 81.29C166.664 81.0828 166.257 80.988 165.769 81.0056C165.309 81.0177 164.94 81.1251 164.663 81.328C164.385 81.5268 164.254 81.78 164.27 82.0876C164.279 82.2593 164.338 82.4044 164.449 82.5228C164.559 82.6372 164.753 82.7412 165.03 82.8348C165.311 82.9282 165.709 83.0255 166.223 83.1268C166.826 83.2474 167.302 83.3826 167.65 83.5326C167.998 83.6826 168.25 83.8677 168.406 84.0878C168.562 84.308 168.648 84.5858 168.666 84.9213C168.698 85.5325 168.496 86.0258 168.059 86.4012C167.626 86.7723 167.011 86.9788 166.217 87.0204Z" fill="#3C402B"/>
<path d="M169.791 83.2522L169.751 82.4972L173.346 82.3088L173.386 83.0638L169.791 83.2522Z" fill="#3C402B"/>
<path d="M177.641 86.4277C177.038 86.4593 176.515 86.3365 176.072 86.0593C175.628 85.7782 175.279 85.3859 175.025 84.8825C174.77 84.3792 174.626 83.8039 174.592 83.1568C174.558 82.5137 174.639 81.9286 174.836 81.4016C175.037 80.8744 175.341 80.4499 175.749 80.1281C176.156 79.8063 176.656 79.6299 177.247 79.599C177.854 79.5671 178.373 79.6881 178.804 79.962C179.235 80.2358 179.57 80.6248 179.809 81.129C180.051 81.629 180.19 82.2065 180.224 82.8616C180.258 83.5048 180.182 84.0915 179.998 84.6219C179.813 85.1483 179.523 85.574 179.127 85.8992C178.732 86.2203 178.236 86.3965 177.641 86.4277ZM177.688 85.6021C178.147 85.578 178.521 85.4463 178.809 85.2069C179.097 84.9675 179.304 84.6482 179.431 84.249C179.558 83.8458 179.609 83.3946 179.583 82.8952C179.556 82.3879 179.459 81.9444 179.291 81.5647C179.122 81.181 178.883 80.8871 178.572 80.6831C178.264 80.4789 177.885 80.3886 177.434 80.4123C176.97 80.4366 176.593 80.5705 176.301 80.8141C176.01 81.0577 175.8 81.3791 175.673 81.7783C175.55 82.1773 175.501 82.6205 175.526 83.1078C175.552 83.5992 175.649 84.0387 175.818 84.4264C175.99 84.8099 176.232 85.1076 176.543 85.3196C176.855 85.5316 177.236 85.6258 177.688 85.6021ZM179.753 86.1368L179.497 81.2655L179.401 81.2705L179.205 77.5137L180.091 77.4672L180.544 86.0953L179.753 86.1368Z" fill="#3C402B"/>
<path d="M184.936 86.0454C184.293 86.0791 183.736 85.9621 183.266 85.6943C182.795 85.4266 182.424 85.0415 182.154 84.5389C181.883 84.0364 181.73 83.4516 181.695 82.7845C181.66 82.1055 181.752 81.5038 181.973 80.9795C182.194 80.4552 182.525 80.0394 182.965 79.7319C183.409 79.4202 183.947 79.2478 184.578 79.2148C185.225 79.1808 185.784 79.2977 186.255 79.5655C186.729 79.829 187.1 80.2121 187.367 80.7149C187.637 81.2134 187.79 81.7962 187.825 82.4633C187.86 83.1424 187.77 83.7459 187.553 84.274C187.336 84.7981 187.006 85.2159 186.561 85.5276C186.117 85.8393 185.575 86.0119 184.936 86.0454ZM184.892 85.2005C185.611 85.1629 186.134 84.8971 186.46 84.4034C186.787 83.9056 186.93 83.2752 186.89 82.5123C186.849 81.7294 186.639 81.1155 186.259 80.6708C185.883 80.2259 185.338 80.0221 184.623 80.0596C184.139 80.0849 183.745 80.2157 183.441 80.4519C183.141 80.684 182.923 80.9978 182.788 81.3934C182.656 81.7849 182.603 82.2322 182.63 82.7355C182.671 83.5145 182.883 84.1302 183.267 84.5827C183.651 85.0312 184.193 85.2372 184.892 85.2005Z" fill="#3C402B"/>
<path d="M190.46 85.5756L188.144 79.2021L189.025 79.162L190.822 84.1087L192.099 79.0009L192.901 78.9588L194.705 83.9052L195.987 78.7971L196.862 78.7512L195.224 85.326L194.457 85.3662L192.569 80.298L191.227 85.5354L190.46 85.5756Z" fill="#3C402B"/>
<path d="M202.954 84.9208L202.781 81.6194C202.762 81.2599 202.711 80.9321 202.627 80.6361C202.544 80.336 202.42 80.0782 202.256 79.8624C202.097 79.6425 201.894 79.4769 201.648 79.3656C201.405 79.2541 201.115 79.2073 200.775 79.2251C200.464 79.2414 200.191 79.3098 199.957 79.4302C199.727 79.5504 199.535 79.7167 199.382 79.929C199.233 80.1371 199.124 80.3871 199.055 80.6791C198.986 80.9711 198.961 81.3009 198.981 81.6684L198.35 81.5632C198.315 80.9001 198.402 80.3368 198.61 79.8733C198.818 79.4098 199.12 79.0515 199.515 78.7984C199.91 78.5454 200.372 78.4051 200.899 78.3774C201.286 78.3571 201.627 78.3994 201.921 78.5041C202.219 78.6087 202.473 78.7576 202.683 78.9508C202.898 79.1439 203.074 79.369 203.211 79.6261C203.349 79.8793 203.453 80.1522 203.525 80.4449C203.596 80.7335 203.639 81.0237 203.654 81.3153L203.841 84.8744L202.954 84.9208ZM198.275 85.1661L197.935 78.695L198.732 78.6532L198.816 80.247L198.906 80.2423L199.161 85.1196L198.275 85.1661Z" fill="#3C402B"/>
<path d="M564.093 201.179L561.776 194.806L562.657 194.765L564.455 199.712L565.731 194.604L566.534 194.562L568.337 199.509L569.62 194.401L570.495 194.355L568.857 200.929L568.09 200.97L566.202 195.901L564.86 201.139L564.093 201.179Z" fill="#3C402B"/>
<path d="M573.411 200.871C572.924 200.897 572.51 200.83 572.169 200.672C571.832 200.513 571.575 200.292 571.395 200.009C571.216 199.726 571.118 199.413 571.1 199.069C571.081 198.718 571.136 198.415 571.263 198.16C571.393 197.901 571.576 197.685 571.811 197.512C572.051 197.339 572.33 197.203 572.649 197.102C572.972 197.005 573.33 196.916 573.723 196.835C574.119 196.75 574.505 196.676 574.882 196.612C575.263 196.544 575.597 196.481 575.882 196.422L575.58 196.63C575.559 195.99 575.41 195.523 575.134 195.229C574.859 194.935 574.399 194.805 573.756 194.839C573.313 194.862 572.942 194.981 572.645 195.197C572.352 195.413 572.155 195.74 572.054 196.178L571.184 195.971C571.301 195.384 571.575 194.919 572.006 194.576C572.437 194.233 573.009 194.043 573.724 194.005C574.316 193.974 574.823 194.06 575.246 194.262C575.673 194.46 575.983 194.764 576.177 195.174C576.267 195.358 576.33 195.565 576.366 195.795C576.402 196.026 576.426 196.261 576.439 196.501L576.649 200.521L575.865 200.562L575.779 198.938L576.012 199.022C575.822 199.589 575.502 200.03 575.054 200.346C574.606 200.662 574.058 200.837 573.411 200.871ZM573.473 200.105C573.885 200.083 574.24 199.99 574.54 199.826C574.84 199.663 575.077 199.448 575.251 199.182C575.426 198.913 575.532 198.615 575.571 198.288C575.608 198.078 575.622 197.849 575.613 197.601C575.604 197.349 575.596 197.162 575.59 197.038L575.934 197.194C575.637 197.25 575.313 197.307 574.964 197.365C574.619 197.423 574.277 197.487 573.941 197.557C573.608 197.626 573.307 197.704 573.04 197.79C572.859 197.852 572.685 197.935 572.518 198.04C572.351 198.141 572.216 198.272 572.112 198.434C572.012 198.595 571.969 198.792 571.981 199.023C571.991 199.211 572.046 199.39 572.147 199.561C572.252 199.732 572.412 199.87 572.625 199.975C572.843 200.08 573.126 200.123 573.473 200.105Z" fill="#3C402B"/>
<path d="M579.725 200.36L577.037 194.012L577.93 193.965L580.12 199.186L581.74 193.765L582.645 193.718L580.636 200.312L579.725 200.36Z" fill="#3C402B"/>
<path d="M586.574 200.181C585.943 200.214 585.389 200.103 584.911 199.848C584.436 199.592 584.058 199.217 583.776 198.724C583.494 198.23 583.335 197.641 583.299 196.958C583.262 196.251 583.356 195.633 583.58 195.105C583.805 194.576 584.138 194.16 584.579 193.857C585.023 193.553 585.557 193.385 586.18 193.352C586.819 193.319 587.372 193.438 587.839 193.71C588.306 193.978 588.669 194.38 588.93 194.915C589.19 195.45 589.33 196.097 589.35 196.857L588.451 196.904L588.435 196.593C588.375 195.755 588.16 195.131 587.79 194.722C587.424 194.313 586.91 194.125 586.247 194.16C585.552 194.196 585.03 194.45 584.682 194.921C584.339 195.392 584.188 196.044 584.232 196.879C584.275 197.694 584.492 198.318 584.883 198.75C585.278 199.178 585.815 199.374 586.494 199.338C586.957 199.314 587.355 199.187 587.688 198.957C588.024 198.723 588.281 198.399 588.46 197.985L589.297 198.26C589.071 198.837 588.717 199.294 588.234 199.632C587.755 199.965 587.201 200.148 586.574 200.181ZM583.934 197.141L583.895 196.404L588.838 196.145L588.877 196.882L583.934 197.141Z" fill="#3C402B"/>
<path d="M590.539 196.386L590.499 195.631L594.094 195.443L594.134 196.198L590.539 196.386Z" fill="#3C402B"/>
<path d="M598.292 199.561C597.533 199.601 596.9 199.47 596.391 199.168C595.887 198.866 595.563 198.426 595.421 197.849L596.312 197.652C596.427 198.015 596.66 198.297 597.011 198.499C597.366 198.696 597.795 198.782 598.298 198.756C598.79 198.73 599.172 198.608 599.445 198.389C599.717 198.167 599.844 197.877 599.826 197.522C599.815 197.322 599.761 197.163 599.663 197.044C599.568 196.921 599.38 196.812 599.099 196.719C598.818 196.625 598.399 196.519 597.844 196.4C597.249 196.271 596.781 196.135 596.441 195.993C596.101 195.851 595.856 195.679 595.705 195.479C595.554 195.274 595.471 195.02 595.455 194.717C595.436 194.349 595.523 194.022 595.716 193.736C595.909 193.445 596.185 193.215 596.545 193.044C596.904 192.868 597.328 192.768 597.815 192.743C598.302 192.717 598.742 192.774 599.134 192.914C599.529 193.049 599.852 193.253 600.103 193.524C600.354 193.795 600.511 194.117 600.574 194.491L599.684 194.7C599.604 194.323 599.399 194.034 599.068 193.831C598.74 193.623 598.333 193.529 597.845 193.546C597.385 193.558 597.016 193.666 596.738 193.869C596.46 194.067 596.329 194.321 596.346 194.628C596.355 194.8 596.414 194.945 596.525 195.063C596.635 195.178 596.828 195.282 597.106 195.375C597.387 195.469 597.785 195.566 598.299 195.667C598.902 195.788 599.378 195.923 599.726 196.073C600.074 196.223 600.326 196.408 600.482 196.628C600.638 196.849 600.724 197.126 600.742 197.462C600.774 198.073 600.572 198.566 600.135 198.942C599.701 199.313 599.087 199.519 598.292 199.561Z" fill="#3C402B"/>
<path d="M604.026 199.267C603.538 199.292 603.124 199.226 602.783 199.067C602.447 198.909 602.189 198.688 602.01 198.405C601.831 198.122 601.732 197.809 601.714 197.465C601.696 197.114 601.75 196.81 601.877 196.555C602.007 196.296 602.19 196.08 602.426 195.908C602.665 195.735 602.944 195.598 603.263 195.497C603.587 195.4 603.944 195.311 604.337 195.231C604.733 195.146 605.12 195.072 605.497 195.008C605.878 194.94 606.211 194.876 606.496 194.817L606.195 195.025C606.173 194.385 606.024 193.919 605.749 193.625C605.473 193.331 605.013 193.201 604.37 193.234C603.927 193.257 603.557 193.377 603.26 193.593C602.966 193.808 602.769 194.135 602.668 194.573L601.798 194.366C601.916 193.779 602.19 193.314 602.62 192.971C603.051 192.628 603.624 192.438 604.339 192.401C604.93 192.37 605.437 192.455 605.86 192.657C606.287 192.855 606.597 193.16 606.791 193.57C606.881 193.754 606.944 193.961 606.98 194.191C607.016 194.421 607.04 194.656 607.053 194.896L607.264 198.917L606.479 198.958L606.394 197.334L606.626 197.418C606.436 197.985 606.116 198.426 605.668 198.742C605.22 199.058 604.673 199.233 604.026 199.267ZM604.088 198.5C604.499 198.479 604.855 198.386 605.154 198.222C605.454 198.058 605.691 197.843 605.866 197.578C606.04 197.308 606.146 197.01 606.185 196.684C606.222 196.474 606.236 196.245 606.227 195.997C606.218 195.745 606.21 195.557 606.204 195.433L606.549 195.589C606.251 195.645 605.928 195.702 605.578 195.76C605.233 195.819 604.892 195.883 604.555 195.952C604.222 196.022 603.922 196.1 603.654 196.186C603.473 196.247 603.299 196.331 603.132 196.435C602.965 196.536 602.83 196.668 602.726 196.829C602.627 196.991 602.583 197.187 602.595 197.419C602.605 197.607 602.66 197.786 602.761 197.957C602.866 198.128 603.026 198.265 603.24 198.37C603.457 198.475 603.74 198.518 604.088 198.5Z" fill="#3C402B"/>
<path d="M609.968 198.775L607.651 192.401L608.532 192.361L610.329 197.308L611.606 192.2L612.409 192.158L614.212 197.104L615.494 191.996L616.369 191.951L614.731 198.525L613.964 198.565L612.076 193.497L610.735 198.735L609.968 198.775Z" fill="#3C402B"/>
<path d="M621.311 198.18C620.951 198.275 620.593 198.324 620.237 198.327C619.885 198.329 619.565 198.27 619.279 198.149C618.996 198.027 618.775 197.827 618.616 197.547C618.488 197.313 618.411 197.075 618.386 196.832C618.365 196.584 618.347 196.303 618.33 195.987L618.02 190.062L618.894 190.016L619.203 195.906C619.217 196.177 619.231 196.405 619.245 196.588C619.262 196.768 619.313 196.925 619.396 197.061C619.554 197.321 619.79 197.469 620.104 197.505C620.422 197.54 620.811 197.508 621.27 197.407L621.311 198.18ZM616.769 192.687L616.73 191.932L620.972 191.709L621.011 192.464L616.769 192.687Z" fill="#3C402B"/>
<path d="M625.064 198.164C624.42 198.198 623.864 198.081 623.393 197.813C622.922 197.545 622.552 197.16 622.281 196.658C622.01 196.155 621.857 195.57 621.822 194.903C621.787 194.224 621.88 193.622 622.1 193.098C622.321 192.574 622.652 192.158 623.092 191.851C623.537 191.539 624.074 191.366 624.706 191.333C625.353 191.299 625.912 191.416 626.382 191.684C626.857 191.948 627.227 192.331 627.494 192.833C627.764 193.332 627.917 193.915 627.952 194.582C627.988 195.261 627.897 195.865 627.68 196.393C627.464 196.917 627.133 197.335 626.689 197.646C626.244 197.958 625.703 198.13 625.064 198.164ZM625.019 197.319C625.738 197.281 626.261 197.016 626.588 196.522C626.914 196.024 627.057 195.394 627.017 194.631C626.976 193.848 626.766 193.234 626.386 192.789C626.01 192.344 625.465 192.141 624.75 192.178C624.267 192.204 623.873 192.334 623.569 192.571C623.268 192.803 623.051 193.116 622.915 193.512C622.783 193.903 622.731 194.351 622.757 194.854C622.798 195.633 623.011 196.249 623.395 196.701C623.779 197.15 624.32 197.356 625.019 197.319Z" fill="#3C402B"/>
<path d="M632.155 197.792C631.512 197.826 630.955 197.709 630.485 197.441C630.014 197.174 629.643 196.788 629.373 196.286C629.102 195.783 628.949 195.199 628.914 194.531C628.879 193.852 628.971 193.251 629.192 192.726C629.413 192.202 629.744 191.786 630.184 191.479C630.629 191.167 631.166 190.995 631.797 190.962C632.445 190.928 633.003 191.045 633.474 191.312C633.949 191.576 634.319 191.959 634.586 192.462C634.856 192.96 635.009 193.543 635.044 194.21C635.079 194.889 634.989 195.493 634.772 196.021C634.555 196.545 634.225 196.963 633.781 197.275C633.336 197.586 632.795 197.759 632.155 197.792ZM632.111 196.947C632.83 196.91 633.353 196.644 633.68 196.15C634.006 195.653 634.149 195.022 634.109 194.259C634.068 193.476 633.858 192.862 633.478 192.418C633.102 191.973 632.557 191.769 631.842 191.807C631.358 191.832 630.965 191.963 630.661 192.199C630.36 192.431 630.142 192.745 630.007 193.14C629.875 193.532 629.823 193.979 629.849 194.482C629.89 195.261 630.102 195.877 630.487 196.33C630.871 196.778 631.412 196.984 632.111 196.947Z" fill="#3C402B"/>
<path d="M640.059 197.198C639.699 197.293 639.341 197.342 638.985 197.344C638.633 197.347 638.313 197.287 638.026 197.166C637.743 197.045 637.523 196.844 637.364 196.564C637.235 196.33 637.159 196.092 637.134 195.849C637.113 195.602 637.094 195.32 637.078 195.005L636.767 189.079L637.642 189.033L637.951 194.923C637.965 195.195 637.979 195.422 637.993 195.606C638.01 195.785 638.06 195.943 638.143 196.079C638.301 196.339 638.537 196.487 638.852 196.522C639.17 196.558 639.559 196.525 640.018 196.425L640.059 197.198ZM635.517 191.704L635.477 190.949L639.72 190.727L639.759 191.482L635.517 191.704Z" fill="#3C402B"/>
<path d="M646.007 196.886L645.834 193.585C645.815 193.225 645.764 192.897 645.68 192.601C645.597 192.301 645.473 192.043 645.309 191.828C645.15 191.608 644.947 191.442 644.701 191.331C644.458 191.219 644.168 191.173 643.828 191.19C643.517 191.207 643.244 191.275 643.01 191.395C642.78 191.516 642.588 191.682 642.435 191.894C642.286 192.102 642.177 192.352 642.108 192.644C642.039 192.936 642.014 193.266 642.034 193.634L641.403 193.528C641.368 192.865 641.455 192.302 641.663 191.839C641.871 191.375 642.173 191.017 642.568 190.764C642.963 190.511 643.425 190.37 643.952 190.343C644.339 190.322 644.68 190.365 644.974 190.469C645.272 190.574 645.526 190.723 645.736 190.916C645.951 191.109 646.127 191.334 646.264 191.591C646.402 191.845 646.506 192.117 646.578 192.41C646.649 192.699 646.692 192.989 646.707 193.281L646.894 196.84L646.007 196.886ZM641.328 197.131L640.875 188.503L641.672 188.461L641.928 193.333L642.018 193.328L642.214 197.085L641.328 197.131Z" fill="#3C402B"/>
<path d="M390.332 210.286L388.015 203.912L388.896 203.872L390.693 208.819L391.97 203.711L392.773 203.669L394.576 208.615L395.858 203.507L396.733 203.461L395.095 210.036L394.328 210.076L392.44 205.008L391.098 210.245L390.332 210.286Z" fill="#3C402B"/>
<path d="M399.65 209.978C399.163 210.003 398.748 209.937 398.408 209.778C398.071 209.62 397.813 209.399 397.634 209.116C397.455 208.833 397.356 208.52 397.338 208.176C397.32 207.825 397.374 207.521 397.501 207.266C397.632 207.007 397.815 206.791 398.05 206.619C398.289 206.446 398.568 206.309 398.888 206.208C399.211 206.111 399.569 206.022 399.961 205.942C400.357 205.857 400.744 205.783 401.121 205.719C401.502 205.651 401.835 205.587 402.12 205.528L401.819 205.736C401.797 205.096 401.649 204.63 401.373 204.336C401.097 204.042 400.638 203.912 399.995 203.945C399.551 203.968 399.181 204.088 398.884 204.304C398.591 204.519 398.394 204.846 398.292 205.284L397.422 205.077C397.54 204.49 397.814 204.025 398.244 203.682C398.675 203.339 399.248 203.149 399.963 203.112C400.554 203.081 401.061 203.166 401.484 203.368C401.911 203.566 402.222 203.871 402.415 204.281C402.505 204.465 402.568 204.672 402.604 204.902C402.64 205.132 402.665 205.367 402.677 205.607L402.888 209.628L402.103 209.669L402.018 208.045L402.251 208.129C402.06 208.696 401.741 209.137 401.293 209.453C400.845 209.769 400.297 209.944 399.65 209.978ZM399.712 209.211C400.123 209.19 400.479 209.097 400.779 208.933C401.079 208.769 401.316 208.554 401.49 208.289C401.664 208.019 401.771 207.721 401.81 207.395C401.847 207.185 401.861 206.956 401.852 206.708C401.843 206.456 401.835 206.268 401.828 206.144L402.173 206.3C401.875 206.356 401.552 206.413 401.202 206.471C400.857 206.53 400.516 206.594 400.179 206.663C399.846 206.733 399.546 206.811 399.278 206.897C399.097 206.958 398.923 207.042 398.756 207.146C398.589 207.247 398.454 207.379 398.35 207.54C398.251 207.702 398.207 207.898 398.219 208.13C398.229 208.318 398.284 208.497 398.386 208.668C398.491 208.839 398.65 208.976 398.864 209.081C399.082 209.186 399.364 209.229 399.712 209.211Z" fill="#3C402B"/>
<path d="M405.963 209.466L403.275 203.118L404.168 203.072L406.358 208.292L407.979 202.872L408.884 202.824L406.874 209.419L405.963 209.466Z" fill="#3C402B"/>
<path d="M412.813 209.288C412.182 209.321 411.627 209.21 411.149 208.954C410.675 208.699 410.297 208.324 410.015 207.83C409.732 207.336 409.573 206.748 409.538 206.065C409.501 205.358 409.594 204.74 409.819 204.211C410.044 203.683 410.376 203.267 410.817 202.963C411.262 202.66 411.796 202.492 412.419 202.459C413.058 202.425 413.611 202.545 414.078 202.817C414.544 203.085 414.908 203.486 415.168 204.021C415.429 204.556 415.569 205.204 415.589 205.964L414.69 206.011L414.673 205.699C414.614 204.861 414.399 204.238 414.029 203.829C413.663 203.419 413.148 203.232 412.485 203.267C411.79 203.303 411.269 203.557 410.921 204.027C410.577 204.498 410.427 205.151 410.471 205.986C410.513 206.801 410.73 207.424 411.122 207.856C411.516 208.284 412.053 208.48 412.733 208.445C413.196 208.42 413.594 208.293 413.926 208.064C414.262 207.83 414.52 207.506 414.698 207.092L415.536 207.367C415.31 207.943 414.955 208.4 414.472 208.738C413.993 209.072 413.44 209.255 412.813 209.288ZM410.172 206.248L410.133 205.511L415.077 205.252L415.115 205.989L410.172 206.248Z" fill="#3C402B"/>
<path d="M416.777 205.493L416.738 204.738L420.333 204.55L420.372 205.305L416.777 205.493Z" fill="#3C402B"/>
<path d="M424.531 208.668C423.772 208.707 423.138 208.576 422.63 208.275C422.125 207.972 421.802 207.533 421.659 206.955L422.55 206.759C422.665 207.121 422.899 207.403 423.25 207.605C423.604 207.803 424.033 207.889 424.537 207.862C425.028 207.836 425.41 207.714 425.683 207.496C425.956 207.273 426.083 206.984 426.064 206.629C426.054 206.429 425.999 206.269 425.901 206.15C425.806 206.027 425.619 205.919 425.337 205.825C425.056 205.732 424.638 205.626 424.083 205.507C423.487 205.378 423.02 205.242 422.68 205.1C422.34 204.957 422.094 204.786 421.944 204.585C421.793 204.381 421.709 204.127 421.694 203.823C421.674 203.456 421.761 203.129 421.955 202.842C422.148 202.552 422.424 202.321 422.783 202.15C423.143 201.975 423.566 201.875 424.053 201.849C424.541 201.824 424.98 201.881 425.372 202.02C425.768 202.156 426.091 202.359 426.341 202.631C426.592 202.902 426.749 203.224 426.813 203.597L425.922 203.806C425.843 203.43 425.637 203.14 425.306 202.937C424.979 202.73 424.571 202.635 424.084 202.653C423.624 202.665 423.255 202.772 422.977 202.975C422.699 203.174 422.568 203.427 422.584 203.735C422.593 203.906 422.653 204.052 422.763 204.17C422.873 204.284 423.067 204.388 423.344 204.482C423.626 204.575 424.023 204.673 424.537 204.774C425.14 204.894 425.616 205.03 425.964 205.18C426.313 205.33 426.565 205.515 426.72 205.735C426.876 205.955 426.963 206.233 426.98 206.568C427.012 207.18 426.81 207.673 426.373 208.048C425.94 208.419 425.326 208.626 424.531 208.668Z" fill="#3C402B"/>
<path d="M428.12 200.585L428.068 199.596L428.948 199.55L429 200.538L428.12 200.585ZM428.523 208.284L428.184 201.813L429.065 201.767L429.404 208.238L428.523 208.284Z" fill="#3C402B"/>
<path d="M435.874 207.899L435.701 204.597C435.682 204.238 435.631 203.91 435.547 203.614C435.463 203.314 435.34 203.056 435.176 202.84C435.016 202.62 434.813 202.455 434.567 202.344C434.325 202.232 434.034 202.185 433.695 202.203C433.383 202.219 433.11 202.288 432.876 202.408C432.646 202.528 432.455 202.695 432.302 202.907C432.152 203.115 432.043 203.365 431.974 203.657C431.906 203.949 431.881 204.279 431.9 204.646L431.27 204.541C431.235 203.878 431.322 203.315 431.53 202.851C431.738 202.388 432.039 202.029 432.435 201.776C432.83 201.523 433.291 201.383 433.818 201.355C434.206 201.335 434.547 201.377 434.84 201.482C435.138 201.587 435.393 201.736 435.603 201.929C435.817 202.122 435.993 202.347 436.131 202.604C436.268 202.857 436.373 203.13 436.444 203.423C436.515 203.712 436.559 204.002 436.574 204.293L436.761 207.852L435.874 207.899ZM431.194 208.144L430.855 201.673L431.652 201.631L431.735 203.225L431.825 203.22L432.081 208.098L431.194 208.144Z" fill="#3C402B"/>
<path d="M441.016 207.81C440.385 207.843 439.831 207.732 439.352 207.476C438.878 207.221 438.5 206.846 438.218 206.352C437.936 205.858 437.777 205.27 437.741 204.587C437.704 203.88 437.798 203.262 438.022 202.733C438.247 202.205 438.58 201.789 439.021 201.485C439.465 201.182 439.999 201.014 440.622 200.981C441.261 200.947 441.814 201.067 442.281 201.339C442.748 201.606 443.111 202.008 443.372 202.543C443.632 203.078 443.772 203.726 443.792 204.486L442.893 204.533L442.877 204.221C442.817 203.383 442.602 202.76 442.232 202.35C441.866 201.941 441.352 201.754 440.689 201.788C439.994 201.825 439.472 202.079 439.124 202.549C438.78 203.02 438.63 203.673 438.674 204.508C438.717 205.323 438.934 205.946 439.325 206.378C439.72 206.806 440.257 207.002 440.936 206.967C441.399 206.942 441.797 206.815 442.13 206.586C442.466 206.352 442.723 206.028 442.902 205.614L443.739 205.888C443.513 206.465 443.159 206.922 442.676 207.26C442.197 207.594 441.643 207.777 441.016 207.81ZM438.376 204.77L438.337 204.033L443.28 203.774L443.319 204.511L438.376 204.77Z" fill="#3C402B"/>
<path d="M582.098 67.0539L579.781 60.6804L580.662 60.6402L582.46 65.587L583.736 60.4792L584.539 60.4371L586.342 65.3835L587.625 60.2754L588.5 60.2295L586.862 66.8043L586.095 66.8444L584.207 61.7763L582.865 67.0137L582.098 67.0539Z" fill="#3C402B"/>
<path d="M591.416 66.7458C590.929 66.7713 590.515 66.7049 590.174 66.5465C589.837 66.3879 589.58 66.1671 589.401 65.8841C589.221 65.6011 589.123 65.2878 589.105 64.9443C589.086 64.5928 589.141 64.2895 589.268 64.0345C589.398 63.7753 589.581 63.5595 589.816 63.3869C590.056 63.2142 590.335 63.0774 590.654 62.9765C590.977 62.8795 591.335 62.7906 591.728 62.71C592.124 62.6251 592.51 62.5508 592.887 62.487C593.268 62.4189 593.602 62.3554 593.887 62.2964L593.585 62.5045C593.564 61.8647 593.415 61.3979 593.139 61.1039C592.864 60.8099 592.404 60.6798 591.761 60.7135C591.318 60.7367 590.947 60.8563 590.65 61.0721C590.357 61.2877 590.16 61.6145 590.059 62.0524L589.189 61.8457C589.306 61.2587 589.58 60.7937 590.011 60.4507C590.442 60.1077 591.014 59.9175 591.729 59.88C592.321 59.849 592.828 59.9346 593.251 60.1367C593.678 60.3346 593.988 60.6388 594.182 61.0492C594.272 61.2328 594.335 61.4398 594.371 61.6702C594.407 61.9006 594.431 62.1357 594.444 62.3754L594.654 66.3958L593.87 66.437L593.784 64.8132L594.017 64.8971C593.827 65.4639 593.507 65.9052 593.059 66.2211C592.611 66.537 592.063 66.7119 591.416 66.7458ZM591.478 65.9795C591.89 65.9579 592.245 65.8652 592.545 65.7013C592.845 65.5374 593.082 65.3227 593.257 65.0572C593.431 64.7877 593.537 64.4897 593.576 64.1632C593.613 63.953 593.627 63.7239 593.618 63.4761C593.609 63.2242 593.601 63.0364 593.595 62.9125L593.939 63.0687C593.642 63.1244 593.318 63.1814 592.969 63.2397C592.624 63.2979 592.282 63.3618 591.946 63.4316C591.613 63.5011 591.312 63.5789 591.045 63.665C590.864 63.7266 590.69 63.8098 590.523 63.9147C590.356 64.0155 590.221 64.1468 590.117 64.3085C590.017 64.4699 589.974 64.6665 589.986 64.8981C589.996 65.0859 590.051 65.2652 590.152 65.4362C590.257 65.6069 590.417 65.7447 590.63 65.8497C590.848 65.9544 591.131 65.9977 591.478 65.9795Z" fill="#3C402B"/>
<path d="M597.73 66.2347L595.042 59.8866L595.935 59.8399L598.125 65.0604L599.745 59.6401L600.65 59.5927L598.641 66.1869L597.73 66.2347Z" fill="#3C402B"/>
<path d="M604.579 66.056C603.948 66.089 603.394 65.9779 602.916 65.7226C602.442 65.467 602.063 65.0923 601.781 64.5984C601.499 64.1045 601.34 63.516 601.304 62.8329C601.267 62.1259 601.361 61.5082 601.586 60.9797C601.81 60.4512 602.143 60.0352 602.584 59.7317C603.028 59.428 603.562 59.2599 604.185 59.2272C604.824 59.1937 605.377 59.3129 605.844 59.5849C606.311 59.8528 606.675 60.2543 606.935 60.7895C607.195 61.3246 607.335 61.9721 607.355 62.7321L606.456 62.7792L606.44 62.4677C606.38 61.6296 606.165 61.006 605.795 60.5968C605.429 60.1874 604.915 60.0001 604.252 60.0348C603.557 60.0713 603.035 60.3249 602.687 60.7958C602.344 61.2664 602.194 61.9191 602.237 62.754C602.28 63.5689 602.497 64.1924 602.888 64.6245C603.283 65.0524 603.82 65.2486 604.499 65.213C604.962 65.1887 605.36 65.0617 605.693 64.832C606.029 64.5981 606.286 64.2742 606.465 63.8603L607.302 64.1348C607.076 64.7114 606.722 65.1686 606.239 65.5063C605.76 65.8399 605.206 66.0231 604.579 66.056ZM601.939 63.016L601.9 62.279L606.843 62.0199L606.882 62.7569L601.939 63.016Z" fill="#3C402B"/>
<path d="M608.544 62.2613L608.504 61.5063L612.099 61.3179L612.139 62.0729L608.544 62.2613Z" fill="#3C402B"/>
<path d="M617.397 65.204C617.037 65.2989 616.679 65.3477 616.323 65.3504C615.971 65.3528 615.651 65.2935 615.364 65.1723C615.082 65.0509 614.861 64.8502 614.702 64.5701C614.574 64.3365 614.497 64.0982 614.472 63.8552C614.451 63.6079 614.433 63.3265 614.416 63.011L614.105 57.0851L614.98 57.0393L615.289 62.9292C615.303 63.2008 615.317 63.4284 615.331 63.6119C615.348 63.7913 615.398 63.9488 615.482 64.0847C615.639 64.3448 615.876 64.4926 616.19 64.5282C616.508 64.5636 616.897 64.5312 617.356 64.431L617.397 65.204ZM612.855 59.7101L612.816 58.9552L617.058 58.7328L617.097 59.4878L612.855 59.7101Z" fill="#3C402B"/>
<path d="M618.672 65.1371L618.333 58.666L619.124 58.6246L619.205 60.1824L619.039 59.9869C619.101 59.7914 619.185 59.6107 619.293 59.4449C619.4 59.275 619.519 59.1346 619.649 59.0236C619.809 58.867 619.999 58.7449 620.219 58.6573C620.438 58.5657 620.662 58.5079 620.889 58.484C621.115 58.4561 621.324 58.4612 621.514 58.4993L621.558 59.3262C621.319 59.2786 621.06 59.2781 620.782 59.3247C620.505 59.3713 620.253 59.4967 620.027 59.7008C619.82 59.8798 619.669 60.09 619.574 60.3314C619.478 60.5687 619.419 60.8201 619.397 61.0857C619.374 61.3472 619.37 61.6058 619.383 61.8614L619.553 65.091L618.672 65.1371Z" fill="#3C402B"/>
<path d="M622.706 57.2051L622.655 56.2165L623.535 56.1703L623.587 57.159L622.706 57.2051ZM623.11 64.9046L622.771 58.4334L623.652 58.3873L623.991 64.8584L623.11 64.9046Z" fill="#3C402B"/>
<path d="M627.648 64.847C627.161 64.8725 626.747 64.8061 626.406 64.6477C626.069 64.4891 625.811 64.2683 625.632 63.9853C625.453 63.7023 625.354 63.389 625.336 63.0455C625.318 62.694 625.372 62.3907 625.499 62.1357C625.63 61.8765 625.813 61.6607 626.048 61.4881C626.287 61.3154 626.566 61.1786 626.886 61.0777C627.209 60.9807 627.567 60.8918 627.959 60.8112C628.355 60.7263 628.742 60.652 629.119 60.5881C629.5 60.5201 629.833 60.4566 630.118 60.3976L629.817 60.6056C629.795 59.9659 629.647 59.499 629.371 59.2051C629.095 58.9111 628.636 58.781 627.993 58.8147C627.549 58.8379 627.179 58.9574 626.882 59.1733C626.589 59.3889 626.392 59.7157 626.29 60.1536L625.42 59.9468C625.538 59.3599 625.812 58.8949 626.243 58.5519C626.673 58.2089 627.246 58.0187 627.961 57.9812C628.552 57.9502 629.059 58.0358 629.483 58.2379C629.909 58.4358 630.22 58.74 630.414 59.1504C630.503 59.334 630.566 59.541 630.602 59.7714C630.638 60.0018 630.663 60.2369 630.675 60.4765L630.886 64.497L630.101 64.5382L630.016 62.9144L630.249 62.9983C630.058 63.5651 629.739 64.0064 629.291 64.3223C628.843 64.6382 628.295 64.8131 627.648 64.847ZM627.71 64.0807C628.121 64.0591 628.477 63.9664 628.777 63.8025C629.077 63.6385 629.314 63.4238 629.488 63.1584C629.662 62.8889 629.769 62.5909 629.808 62.2644C629.845 62.0542 629.859 61.8251 629.85 61.5773C629.841 61.3254 629.833 61.1375 629.826 61.0137L630.171 61.1699C629.873 61.2255 629.55 61.2825 629.201 61.3409C628.855 61.3991 628.514 61.463 628.177 61.5327C627.844 61.6022 627.544 61.6801 627.276 61.7662C627.095 61.8278 626.921 61.911 626.755 62.0159C626.588 62.1167 626.452 62.248 626.349 62.4096C626.249 62.5711 626.205 62.7676 626.217 62.9993C626.227 63.1871 626.283 63.3664 626.384 63.5374C626.489 63.7081 626.648 63.8459 626.862 63.9509C627.08 64.0556 627.362 64.0989 627.71 64.0807Z" fill="#3C402B"/>
<path d="M637.119 64.1703L636.946 60.8689C636.928 60.5094 636.876 60.1816 636.793 59.8856C636.709 59.5855 636.585 59.3277 636.422 59.1119C636.262 58.892 636.059 58.7264 635.813 58.6151C635.571 58.5036 635.28 58.4568 634.94 58.4746C634.629 58.4909 634.356 58.5593 634.122 58.6797C633.892 58.7999 633.7 58.9662 633.547 59.1785C633.398 59.3866 633.289 59.6366 633.22 59.9286C633.151 60.2206 633.127 60.5504 633.146 60.9179L632.515 60.8127C632.481 60.1496 632.567 59.5863 632.775 59.1228C632.983 58.6593 633.285 58.301 633.68 58.0479C634.076 57.7949 634.537 57.6546 635.064 57.6269C635.452 57.6066 635.792 57.6489 636.086 57.7536C636.384 57.8582 636.638 58.0071 636.849 58.2003C637.063 58.3934 637.239 58.6185 637.377 58.8756C637.514 59.1288 637.619 59.4017 637.69 59.6944C637.761 59.983 637.804 60.2732 637.82 60.5648L638.006 64.1239L637.119 64.1703ZM632.44 64.4156L632.101 57.9445L632.898 57.9027L632.981 59.4965L633.071 59.4918L633.327 64.3691L632.44 64.4156Z" fill="#3C402B"/>
<path d="M642.292 66.9635C641.96 66.9809 641.63 66.9481 641.301 66.8652C640.977 66.7861 640.673 66.6478 640.39 66.4503C640.108 66.2568 639.866 65.9971 639.664 65.6712L640.438 65.1861C640.637 65.5361 640.902 65.7806 641.234 65.9194C641.57 66.062 641.907 66.1245 642.247 66.1067C642.714 66.0822 643.087 65.9745 643.365 65.7837C643.648 65.5966 643.846 65.3299 643.96 64.9834C644.074 64.637 644.116 64.2102 644.086 63.7031L643.995 61.9775L644.097 61.9722L643.854 57.3285L644.639 57.2874L644.973 63.6686C644.983 63.8524 644.986 64.0285 644.983 64.1969C644.984 64.369 644.974 64.5378 644.955 64.703C644.904 65.1903 644.768 65.596 644.544 65.9202C644.325 66.2441 644.025 66.4921 643.646 66.6642C643.27 66.8361 642.819 66.9358 642.292 66.9635ZM642.081 64.0906C641.478 64.1222 640.955 63.9994 640.512 63.7222C640.068 63.441 639.719 63.0487 639.465 62.5454C639.21 62.042 639.066 61.4668 639.032 60.8197C638.998 60.1766 639.079 59.5915 639.276 59.0645C639.477 58.5373 639.781 58.1127 640.189 57.791C640.596 57.4692 641.096 57.2928 641.687 57.2618C642.294 57.23 642.813 57.351 643.244 57.6248C643.675 57.8987 644.01 58.2877 644.249 58.7919C644.491 59.2919 644.63 59.8694 644.664 60.5245C644.698 61.1676 644.622 61.7544 644.438 62.2848C644.253 62.8111 643.963 63.2369 643.567 63.5621C643.172 63.8832 642.676 64.0594 642.081 64.0906ZM642.128 63.265C642.587 63.2409 642.961 63.1092 643.249 62.8698C643.537 62.6304 643.744 62.3111 643.871 61.9119C643.999 61.5087 644.049 61.0574 644.023 60.5581C643.996 60.0508 643.899 59.6073 643.731 59.2276C643.562 58.8438 643.323 58.55 643.012 58.346C642.705 58.1418 642.325 58.0515 641.874 58.0752C641.411 58.0994 641.033 58.2334 640.741 58.477C640.45 58.7206 640.24 59.042 640.113 59.4412C639.99 59.8402 639.941 60.2834 639.966 60.7707C639.992 61.262 640.089 61.7015 640.258 62.0892C640.43 62.4728 640.672 62.7705 640.984 62.9825C641.295 63.1945 641.677 63.2886 642.128 63.265Z" fill="#3C402B"/>
<path d="M646.773 63.6644L646.311 54.8565L647.192 54.8104L647.654 63.6183L646.773 63.6644Z" fill="#3C402B"/>
<path d="M652.198 63.5604C651.566 63.5935 651.012 63.4823 650.534 63.227C650.06 62.9715 649.682 62.5967 649.399 62.1028C649.117 61.6089 648.958 61.0204 648.922 60.3374C648.885 59.6303 648.979 59.0126 649.204 58.4841C649.428 57.9556 649.761 57.5396 650.202 57.2362C650.647 56.9325 651.18 56.7643 651.804 56.7316C652.443 56.6982 652.996 56.8174 653.463 57.0893C653.929 57.3573 654.293 57.7588 654.553 58.2939C654.813 58.829 654.954 59.4765 654.973 60.2366L654.075 60.2837L654.058 59.9721C653.998 59.1341 653.783 58.5105 653.413 58.1013C653.048 57.6919 652.533 57.5045 651.87 57.5393C651.175 57.5757 650.653 57.8293 650.306 58.3002C649.962 58.7708 649.812 59.4236 649.856 60.2584C649.898 61.0733 650.115 61.6968 650.506 62.1289C650.901 62.5569 651.438 62.753 652.117 62.7174C652.581 62.6931 652.979 62.5661 653.311 62.3364C653.647 62.1025 653.905 61.7786 654.083 61.3647L654.921 61.6392C654.695 62.2159 654.34 62.673 653.857 63.0108C653.378 63.3443 652.825 63.5275 652.198 63.5604ZM649.557 60.5204L649.518 59.7834L654.461 59.5244L654.5 60.2614L649.557 60.5204Z" fill="#3C402B"/>
<circle cx="602.043" cy="146.117" r="4" transform="rotate(-3 602.043 146.117)" fill="#3C402B"/>
<path d="M368.391 78.2523L366.075 71.8788L366.956 71.8387L368.753 76.7854L370.029 71.6776L370.832 71.6355L372.636 76.5819L373.918 71.4738L374.793 71.4279L373.155 78.0027L372.388 78.0429L370.5 72.9747L369.158 78.2121L368.391 78.2523Z" fill="#3C402B"/>
<path d="M377.71 77.9442C377.222 77.9698 376.808 77.9033 376.467 77.745C376.131 77.5864 375.873 77.3656 375.694 77.0825C375.515 76.7995 375.416 76.4863 375.398 76.1427C375.38 75.7912 375.434 75.488 375.561 75.233C375.691 74.9738 375.874 74.7579 376.11 74.5854C376.349 74.4126 376.628 74.2758 376.947 74.175C377.271 74.0779 377.628 73.989 378.021 73.9084C378.417 73.8236 378.804 73.7492 379.181 73.6854C379.562 73.6174 379.895 73.5538 380.18 73.4948L379.879 73.7029C379.857 73.0631 379.708 72.5963 379.433 72.3023C379.157 72.0083 378.697 71.8782 378.054 71.9119C377.611 71.9351 377.241 72.0547 376.944 72.2705C376.65 72.4862 376.453 72.8129 376.352 73.2508L375.482 73.0441C375.6 72.4571 375.874 71.9922 376.304 71.6491C376.735 71.3061 377.308 71.1159 378.023 71.0784C378.614 71.0474 379.121 71.133 379.544 71.3351C379.971 71.5331 380.281 71.8372 380.475 72.2477C380.565 72.4312 380.628 72.6382 380.664 72.8686C380.7 73.0991 380.724 73.3341 380.737 73.5738L380.948 77.5943L380.163 77.6354L380.078 76.0116L380.31 76.0956C380.12 76.6623 379.8 77.1036 379.352 77.4195C378.904 77.7354 378.357 77.9103 377.71 77.9442ZM377.772 77.1779C378.183 77.1564 378.539 77.0636 378.838 76.8997C379.138 76.7358 379.375 76.5211 379.55 76.2556C379.724 75.9861 379.83 75.6881 379.869 75.3616C379.906 75.1514 379.92 74.9224 379.911 74.6745C379.902 74.4226 379.894 74.2348 379.888 74.111L380.233 74.2671C379.935 74.3228 379.612 74.3798 379.262 74.4382C378.917 74.4963 378.576 74.5603 378.239 74.63C377.906 74.6995 377.606 74.7773 377.338 74.8635C377.157 74.925 376.983 75.0082 376.816 75.1131C376.649 75.214 376.514 75.3452 376.41 75.5069C376.311 75.6683 376.267 75.8649 376.279 76.0966C376.289 76.2843 376.344 76.4636 376.445 76.6346C376.55 76.8053 376.71 76.9432 376.924 77.0481C377.141 77.1529 377.424 77.1961 377.772 77.1779Z" fill="#3C402B"/>
<path d="M384.023 77.4331L381.335 71.0851L382.228 71.0383L384.418 76.2588L386.039 70.8386L386.943 70.7912L384.934 77.3854L384.023 77.4331Z" fill="#3C402B"/>
<path d="M390.872 77.2544C390.241 77.2875 389.687 77.1763 389.209 76.921C388.735 76.6655 388.357 76.2907 388.074 75.7968C387.792 75.3029 387.633 74.7144 387.597 74.0314C387.56 73.3243 387.654 72.7066 387.879 72.1781C388.103 71.6496 388.436 71.2336 388.877 70.9302C389.321 70.6265 389.855 70.4583 390.479 70.4256C391.118 70.3921 391.671 70.5114 392.138 70.7833C392.604 71.0512 392.968 71.4528 393.228 71.9879C393.488 72.523 393.629 73.1705 393.648 73.9306L392.75 73.9777L392.733 73.6661C392.673 72.8281 392.458 72.2045 392.088 71.7953C391.723 71.3859 391.208 71.1985 390.545 71.2333C389.85 71.2697 389.328 71.5233 388.981 71.9942C388.637 72.4648 388.487 73.1176 388.53 73.9524C388.573 74.7673 388.79 75.3908 389.181 75.8229C389.576 76.2508 390.113 76.447 390.792 76.4114C391.256 76.3871 391.654 76.2601 391.986 76.0304C392.322 75.7965 392.58 75.4726 392.758 75.0587L393.596 75.3332C393.37 75.9099 393.015 76.367 392.532 76.7048C392.053 77.0383 391.5 77.2215 390.872 77.2544ZM388.232 74.2144L388.193 73.4774L393.136 73.2184L393.175 73.9554L388.232 74.2144Z" fill="#3C402B"/>
<path d="M394.837 73.4597L394.797 72.7047L398.392 72.5163L398.432 73.2713L394.837 73.4597Z" fill="#3C402B"/>
<path d="M402.591 76.6342C401.832 76.674 401.198 76.543 400.69 76.2412C400.185 75.9392 399.862 75.4995 399.719 74.9222L400.61 74.7253C400.725 75.0878 400.958 75.3699 401.309 75.5719C401.664 75.7696 402.093 75.8552 402.597 75.8288C403.088 75.8031 403.47 75.6809 403.743 75.4623C404.016 75.2398 404.143 74.9507 404.124 74.5952C404.114 74.3955 404.059 74.2361 403.961 74.1171C403.866 73.9939 403.678 73.8856 403.397 73.7922C403.116 73.6987 402.698 73.5925 402.143 73.4734C401.547 73.3444 401.079 73.2087 400.739 73.0662C400.399 72.9238 400.154 72.7524 400.003 72.5521C399.853 72.3477 399.769 72.0937 399.753 71.7901C399.734 71.4226 399.821 71.0956 400.014 70.8091C400.207 70.5186 400.484 70.2878 400.843 70.1168C401.203 69.9417 401.626 69.8414 402.113 69.8159C402.601 69.7904 403.04 69.8474 403.432 69.9871C403.828 70.1226 404.151 70.326 404.401 70.5972C404.652 70.8685 404.809 71.1907 404.872 71.5639L403.982 71.7728C403.902 71.3964 403.697 71.1068 403.366 70.9038C403.039 70.6967 402.631 70.6019 402.143 70.6194C401.683 70.6315 401.314 70.739 401.037 70.9418C400.759 71.1406 400.628 71.3938 400.644 71.7014C400.653 71.8731 400.713 72.0182 400.823 72.1366C400.933 72.251 401.127 72.355 401.404 72.4486C401.685 72.542 402.083 72.6393 402.597 72.7406C403.2 72.8612 403.676 72.9965 404.024 73.1464C404.372 73.2964 404.624 73.4815 404.78 73.7016C404.936 73.9218 405.023 74.1996 405.04 74.5352C405.072 75.1463 404.87 75.6396 404.433 76.015C404 76.3862 403.386 76.5926 402.591 76.6342Z" fill="#3C402B"/>
<path d="M408.983 76.3053C408.38 76.3369 407.857 76.2141 407.413 75.9369C406.97 75.6557 406.621 75.2634 406.366 74.7601C406.112 74.2567 405.967 73.6815 405.934 73.0344C405.9 72.3912 405.981 71.8062 406.178 71.2792C406.379 70.7519 406.683 70.3274 407.091 70.0057C407.498 69.6839 407.998 69.5075 408.589 69.4765C409.196 69.4447 409.715 69.5657 410.146 69.8395C410.577 70.1133 410.912 70.5023 411.151 71.0065C411.393 71.5065 411.531 72.0841 411.566 72.7392C411.6 73.3823 411.524 73.9691 411.34 74.4994C411.155 75.0258 410.865 75.4516 410.469 75.7767C410.074 76.0979 409.578 76.2741 408.983 76.3053ZM409.03 75.4797C409.489 75.4556 409.863 75.3239 410.151 75.0845C410.438 74.8451 410.646 74.5258 410.773 74.1266C410.9 73.7234 410.951 73.2721 410.925 72.7728C410.898 72.2655 410.801 71.822 410.633 71.4422C410.464 71.0585 410.225 70.7647 409.914 70.5607C409.606 70.3565 409.227 70.2662 408.776 70.2899C408.312 70.3141 407.935 70.4481 407.643 70.6917C407.352 70.9353 407.142 71.2567 407.015 71.6559C406.892 72.0549 406.843 72.498 406.868 72.9854C406.894 73.4767 406.991 73.9162 407.16 74.3039C407.332 74.6874 407.574 74.9852 407.885 75.1972C408.197 75.4092 408.578 75.5033 409.03 75.4797ZM411.149 78.8954L410.915 74.4196L411.011 74.4145L410.755 69.5432L411.546 69.5018L412.036 78.8489L411.149 78.8954Z" fill="#3C402B"/>
<path d="M416.05 75.9169C415.662 75.9372 415.319 75.8951 415.022 75.7905C414.728 75.6858 414.473 75.5368 414.259 75.3438C414.049 75.1505 413.875 74.9273 413.737 74.6742C413.6 74.417 413.495 74.1441 413.424 73.8555C413.353 73.5628 413.309 73.2707 413.294 72.9791L413.107 69.42L413.994 69.3735L414.167 72.675C414.186 73.0305 414.237 73.3582 414.321 73.6583C414.405 73.9583 414.527 74.2183 414.686 74.4382C414.85 74.6539 415.053 74.8176 415.295 74.929C415.541 75.0403 415.834 75.087 416.173 75.0692C416.485 75.0529 416.756 74.9846 416.986 74.8644C417.22 74.744 417.411 74.5798 417.561 74.3717C417.714 74.1594 417.825 73.9072 417.894 73.6152C417.962 73.3192 417.987 72.9895 417.968 72.626L418.598 72.7311C418.633 73.3942 418.546 73.9575 418.338 74.421C418.13 74.8846 417.829 75.2428 417.433 75.4959C417.038 75.7489 416.577 75.8892 416.05 75.9169ZM418.216 75.6411L418.133 74.0473L418.043 74.052L417.787 69.1747L418.668 69.1285L419.007 75.5997L418.216 75.6411Z" fill="#3C402B"/>
<path d="M422.543 75.5946C422.055 75.6202 421.641 75.5537 421.3 75.3954C420.964 75.2368 420.706 75.016 420.527 74.7329C420.348 74.4499 420.249 74.1367 420.231 73.7931C420.213 73.4416 420.267 73.1384 420.394 72.8834C420.524 72.6242 420.707 72.4083 420.943 72.2358C421.182 72.063 421.461 71.9262 421.78 71.8254C422.104 71.7283 422.461 71.6394 422.854 71.5588C423.25 71.474 423.637 71.3996 424.014 71.3358C424.395 71.2678 424.728 71.2042 425.013 71.1452L424.712 71.3533C424.69 70.7135 424.541 70.2467 424.266 69.9527C423.99 69.6587 423.53 69.5286 422.887 69.5623C422.444 69.5855 422.074 69.7051 421.777 69.9209C421.483 70.1366 421.286 70.4633 421.185 70.9012L420.315 70.6945C420.433 70.1075 420.707 69.6426 421.137 69.2995C421.568 68.9565 422.141 68.7663 422.856 68.7288C423.447 68.6978 423.954 68.7834 424.377 68.9855C424.804 69.1835 425.114 69.4876 425.308 69.8981C425.398 70.0816 425.461 70.2886 425.497 70.519C425.533 70.7495 425.557 70.9845 425.57 71.2242L425.781 75.2447L424.996 75.2858L424.911 73.662L425.143 73.746C424.953 74.3127 424.633 74.754 424.185 75.0699C423.737 75.3858 423.19 75.5607 422.543 75.5946ZM422.605 74.8283C423.016 74.8068 423.372 74.714 423.671 74.5501C423.971 74.3862 424.208 74.1715 424.383 73.906C424.557 73.6365 424.663 73.3385 424.702 73.012C424.739 72.8018 424.753 72.5728 424.744 72.3249C424.735 72.073 424.727 71.8852 424.721 71.7614L425.066 71.9175C424.768 71.9732 424.445 72.0302 424.095 72.0886C423.75 72.1467 423.409 72.2107 423.072 72.2804C422.739 72.3499 422.439 72.4277 422.171 72.5139C421.99 72.5754 421.816 72.6586 421.649 72.7635C421.482 72.8644 421.347 72.9956 421.243 73.1573C421.144 73.3187 421.1 73.5153 421.112 73.747C421.122 73.9347 421.177 74.1141 421.278 74.285C421.383 74.4557 421.543 74.5936 421.757 74.6985C421.974 74.8033 422.257 74.8465 422.605 74.8283Z" fill="#3C402B"/>
<path d="M427.341 75.1629L427.001 68.6918L427.792 68.6504L427.874 70.2082L427.707 70.0127C427.769 69.8172 427.854 69.6365 427.961 69.4706C428.069 69.3008 428.188 69.1604 428.318 69.0494C428.478 68.8928 428.668 68.7707 428.888 68.6831C429.107 68.5915 429.33 68.5337 429.557 68.5098C429.784 68.4819 429.993 68.487 430.183 68.5251L430.226 69.3519C429.988 69.3044 429.729 69.3039 429.451 69.3505C429.173 69.3971 428.921 69.5225 428.696 69.7265C428.489 69.9056 428.338 70.1158 428.242 70.3571C428.147 70.5945 428.088 70.8459 428.065 71.1114C428.043 71.373 428.039 71.6315 428.052 71.8872L428.221 75.1168L427.341 75.1629Z" fill="#3C402B"/>
<path d="M434.289 74.979C433.658 75.0121 433.104 74.9009 432.626 74.6456C432.152 74.3901 431.774 74.0153 431.491 73.5214C431.209 73.0275 431.05 72.439 431.014 71.756C430.977 71.049 431.071 70.4312 431.296 69.9027C431.52 69.3742 431.853 68.9583 432.294 68.6548C432.738 68.3511 433.272 68.1829 433.896 68.1503C434.535 68.1168 435.088 68.236 435.555 68.5079C436.021 68.7759 436.385 69.1774 436.645 69.7125C436.905 70.2476 437.046 70.8952 437.065 71.6552L436.167 71.7023L436.15 71.3907C436.09 70.5527 435.875 69.9291 435.505 69.5199C435.139 69.1105 434.625 68.9231 433.962 68.9579C433.267 68.9943 432.745 69.2479 432.398 69.7188C432.054 70.1894 431.904 70.8422 431.947 71.677C431.99 72.4919 432.207 73.1154 432.598 73.5475C432.993 73.9755 433.53 74.1716 434.209 74.136C434.673 74.1118 435.07 73.9848 435.403 73.755C435.739 73.5211 435.997 73.1972 436.175 72.7833L437.013 73.0578C436.787 73.6345 436.432 74.0916 435.949 74.4294C435.47 74.7629 434.917 74.9461 434.289 74.979ZM431.649 71.939L431.61 71.202L436.553 70.943L436.592 71.68L431.649 71.939Z" fill="#3C402B"/>
<circle cx="412.884" cy="148.02" r="4" transform="rotate(-3 412.884 148.02)" fill="#3C402B"/>
<path d="M602.043 146.117L604.137 186.063" stroke="#3C402B"/>
<circle cx="276.752" cy="168.172" r="4" transform="rotate(-3 276.752 168.172)" fill="#3C402B"/>
<circle cx="428.569" cy="46.0586" r="4" transform="rotate(-3 428.569 46.0586)" fill="#3C402B"/>
<circle cx="4" cy="4" r="4" transform="matrix(-0.99863 0.052336 0.052336 0.99863 588.141 33.6914)" fill="#3C402B"/>
<path d="M412.884 148.02L415.396 195.954" stroke="#3C402B"/>
<path d="M276.752 168.171L188.872 172.777C186.666 172.892 184.784 171.198 184.668 168.992L180.691 93.0957" stroke="#3C402B"/>
<path d="M428.569 46.06L404.602 47.316C402.396 47.4317 400.701 49.3138 400.817 51.5199L401.445 63.5035" stroke="#3C402B"/>
<path d="M584.355 37.8955L612.317 36.43C614.523 36.3144 616.405 38.0091 616.521 40.2152L617.149 52.1988" stroke="#3C402B"/>
</svg>
