<svg xmlns="http://www.w3.org/2000/svg" width="864" height="1194" viewBox="0 0 864 1194">
  <g fill="none" fill-rule="evenodd">
    <rect width="857.25" height="1188" x="6" y="6" fill="#35313D" opacity=".1" rx="53"/>
    <path fill="#FFF" fill-rule="nonzero" stroke="#000" stroke-width="2" d="M814.199723,1 C825.811639,1 836.323986,5.71486809 843.933386,13.3377555 C851.543365,20.9612245 856.25,31.4931009 856.25,43.1265851 L856.25,43.1265851 L856.25,1144.87341 C856.25,1156.50624 851.543011,1167.03809 843.932874,1174.66172 C836.3233,1182.28478 825.810952,1187 814.199723,1187 L814.199723,1187 L43.0502766,1187 C31.4383607,1187 20.9260139,1182.28513 13.3166145,1174.66224 C5.70663458,1167.03878 1,1156.5069 1,1144.87341 L1,1144.87341 L1,43.1265851 C1,31.493764 5.70698937,20.961907 13.3171264,13.3382807 C20.9266999,5.71521884 31.4390482,1 43.0502766,1 L43.0502766,1 Z"/>
    <circle cx="428.625" cy="46.125" r="6.875" fill="#F2F2F2" stroke="#000"/>
    <path fill="#2D2E2C" fill-rule="nonzero" d="M811.882043,80 L45.3679567,80 C44.4122693,80 43.625,80.7811043 43.625,81.7425499 L43.625,1104.75745 C43.625,1105.71659 44.4060027,1106.5 45.3679567,1106.5 L811.882043,1106.5 C812.837731,1106.5 813.625,1105.7189 813.625,1104.75745 L813.625,81.7425499 C813.625,80.7834111 812.843997,80 811.882043,80 Z M811.882043,81 C812.292367,81 812.625,81.3363567 812.625,81.7425499 L812.625,1104.75745 C812.625,1105.16755 812.284471,1105.5 811.882043,1105.5 L45.3679567,1105.5 C44.957633,1105.5 44.625,1105.16364 44.625,1104.75745 L44.625,81.7425499 C44.625,81.3324509 44.9655288,81 45.3679567,81 L811.882043,81 Z"/>
    <rect width="768" height="1024.5" x="44.625" y="81" fill="#245633" rx=".75"/>
    <path fill="#FFF" d="M9.00025,32.000025 C9.00025,26.017775 11.29675,20.562525 15.05325,16.467275 L47.533,48.947025 C43.43775,52.703525 37.9825,55.000025 32.00025,55.000025 C19.318,55.000025 9.00025,44.682275 9.00025,32.000025 M55.00025,32.000025 C55.00025,37.982275 52.70375,43.437525 48.94725,47.532775 L16.46725,15.053025 C20.5625,11.296525 26.018,9.000025 32.00025,9.000025 C44.6825,9.000025 55.00025,19.317775 55.00025,32.000025 M49.76025,49.576775 C54.2335,45.057275 57.00025,38.846025 57.00025,32.000025 C57.00025,18.215025 45.7855,7.000025 32.00025,7.000025 C25.15525,7.000025 18.94475,9.766025 14.4255,14.238275 C14.3905,14.265025 14.3545,14.290275 14.3225,14.322525 C14.2905,14.354275 14.26525,14.390275 14.2385,14.425275 C9.76625,18.944525 7.00025,25.155025 7.00025,32.000025 C7.00025,45.785025 18.215,57.000025 32.00025,57.000025 C38.84625,57.000025 45.05725,54.233275 49.57675,49.760275 C49.61075,49.734025 49.64625,49.709025 49.67775,49.677525 C49.709,49.646275 49.734,49.611025 49.76025,49.576775" transform="translate(664.625 985)"/>
    <path fill="#FFF" d="M32.0016,6.9996 C45.7856,6.9996 57.0016,18.2156 57.0016,31.9996 C57.0016,45.7836 45.7856,56.9996 32.0016,56.9996 C18.2176,56.9996 7.0016,45.7836 7.0016,31.9996 C7.0016,18.2156 18.2176,6.9996 32.0016,6.9996 Z M32.0016,8.9996 C19.3176,8.9996 9.0016,19.3196 9.0016,31.9996 C9.0016,44.6796 19.3176,54.9996 32.0016,54.9996 C44.6856,54.9996 55.0016,44.6796 55.0016,31.9996 C55.0016,19.3196 44.6856,8.9996 32.0016,8.9996 Z M39.0016,22.9996 C39.5144358,22.9996 39.9371072,23.3856402 39.9948723,23.8829789 L40.0016,23.9996 L40.0016,39.9996 C40.0016,40.5518847 39.5538847,40.9996 39.0016,40.9996 C38.4887642,40.9996 38.0660928,40.6135598 38.0083277,40.1162211 L38.0016,39.9996 L38.0016,23.9996 C38.0016,23.4473153 38.4493153,22.9996 39.0016,22.9996 Z M24.528,23.1196 C24.856,22.9396 25.252,22.9636 25.556,23.1676 L25.556,23.1676 L37.556,31.1676 C37.832,31.3516 38,31.6676 38,31.9996 C38,32.3356 37.832,32.6476 37.556,32.8316 L37.556,32.8316 L25.556,40.8316 C25.388,40.9436 25.196,40.9996 25,40.9996 C24.84,40.9996 24.676,40.9596 24.528,40.8796 C24.204,40.7076 24,40.3676 24,39.9996 L24,39.9996 L24,23.9996 C24,23.6316 24.204,23.2916 24.528,23.1196 Z" transform="translate(480.625 985)"/>
    <path fill="#FFF" d="M40,40 C40,41.104 39.104,42 38,42 C36.896,42 36,41.104 36,40 L36,24 C36,22.896 36.896,22 38,22 C39.104,22 40,22.896 40,24 L40,40 Z M28,40 C28,41.104 27.104,42 26,42 C24.896,42 24,41.104 24,40 L24,24 C24,22.896 24.896,22 26,22 C27.104,22 28,22.896 28,24 L28,40 Z M32,6 C17.664,6 6,17.664 6,32 C6,46.336 17.664,58 32,58 C46.336,58 58,46.336 58,32 C58,17.664 46.336,6 32,6 L32,6 Z" transform="translate(396.625 985)"/>
    <path fill="#FFF" d="M32,7 C45.784,7 57,18.216 57,32 C57,45.784 45.784,57 32,57 C18.216,57 7,45.784 7,32 C7,18.216 18.216,7 32,7 Z M32,9 C19.316,9 9,19.32 9,32 C9,44.68 19.316,55 32,55 C44.684,55 55,44.68 55,32 C55,19.32 44.684,9 32,9 Z M25,23 C25.552,23 26,23.448 26,24 L26,24 L26,40 C26,40.552 25.552,41 25,41 C24.448,41 24,40.552 24,40 L24,40 L24,24 C24,23.448 24.448,23 25,23 Z M38.4448,23.1672 C38.7488,22.9632 39.1408,22.9392 39.4728,23.1192 C39.7968,23.2912 40.0008,23.6312 40.0008,23.9992 L40.0008,23.9992 L40.0008,39.9992 C40.0008,40.3672 39.7968,40.7072 39.4728,40.8792 C39.3248,40.9592 39.1608,40.9992 39.0008,40.9992 C38.8048,40.9992 38.6128,40.9432 38.4448,40.8312 L38.4448,40.8312 L26.4448,32.8312 C26.1688,32.6472 26.0008,32.3352 26.0008,31.9992 C26.0008,31.6672 26.1688,31.3552 26.4448,31.1672 L26.4448,31.1672 Z" transform="translate(312.625 985)"/>
    <path stroke="#FFF" stroke-linecap="round" stroke-linejoin="round" stroke-width="2" d="M32,54 C32,54 7,40 7,23 C7,15.82025 12.82025,10 20,10 C25.4045,10 30.03875,13.298 32,17.99125 L32,17.99125 C33.96125,13.298 38.5955,10 44,10 C51.17975,10 57,15.82025 57,23 C57,40 32,54 32,54 Z" transform="translate(128.625 985)"/>
    <g fill="#FFF" transform="translate(128.625 923)">
      <rect width="600" height="4" y="10" opacity=".3" rx="2"/>
      <rect width="360" height="4" y="10" rx="2"/>
      <circle cx="358.375" cy="12" r="12"/>
    </g>
    <path fill="#FFF" fill-rule="nonzero" d="M132.069 908L132.069 899.36 140.565 908 142.869 908 134.157 899.06 142.209 890.72 139.953 890.72 132.069 898.88 132.069 890.72 130.305 890.72 130.305 908 132.069 908zM146.313 908L146.313 901.088C146.313 900.352 146.397 899.696 146.565 899.12 146.733 898.544 146.979 898.054 147.303 897.65 147.627 897.246 148.027 896.936 148.503 896.72 148.979 896.504 149.529 896.396 150.153 896.396 150.833 896.396 151.411 896.52 151.887 896.768 152.363 897.016 152.751 897.366 153.051 897.818 153.351 898.27 153.569 898.798 153.705 899.402 153.841 900.006 153.909 900.668 153.909 901.388L153.909 901.388 153.909 908 155.685 908 155.685 900.872C155.685 900.288 155.629 899.702 155.517 899.114 155.405 898.526 155.225 897.97 154.977 897.446 154.729 896.922 154.403 896.456 153.999 896.048 153.595 895.64 153.103 895.316 152.523 895.076 151.943 894.836 151.265 894.716 150.489 894.716 149.433 894.716 148.497 894.948 147.681 895.412 147.1098 895.7368 146.62484 896.1694 146.22612 896.7098L146.133 896.843 146.133 890.72 144.537 890.72 144.537 908 146.313 908zM160.569 908L160.569 901.532C160.569 901.02 160.605 900.502 160.677 899.978 160.749 899.454 160.893 898.958 161.109 898.49 161.325 898.022 161.649 897.62 162.081 897.284 162.553 896.9 163.069 896.676 163.629 896.612 164.189 896.548 164.705 896.576 165.177 896.696L165.177 896.696 165.177 895.04C164.801 894.944 164.385 894.91 163.929 894.938 163.473 894.966 163.021 895.058 162.573 895.214 162.125 895.37 161.733 895.596 161.397 895.892 161.125 896.1 160.873 896.366 160.641 896.69 160.583 896.771 160.52775 896.853875 160.47525 896.938625L160.389 897.089 160.389 895.04 158.805 895.04 158.805 908 160.569 908zM172.413 908.324C173.469 908.324 174.405 908.092 175.221 907.628 175.7922 907.3032 176.27716 906.8706 176.67588 906.3302L176.769 906.196 176.769 908 178.353 908 178.353 895.04 176.589 895.04 176.589 901.952C176.589 902.68 176.505 903.334 176.337 903.914 176.169 904.494 175.923 904.986 175.599 905.39 175.275 905.794 174.875 906.104 174.399 906.32 173.923 906.536 173.373 906.644 172.749 906.644 172.069 906.644 171.491 906.52 171.015 906.272 170.539 906.024 170.151 905.674 169.851 905.222 169.551 904.77 169.333 904.24 169.197 903.632 169.061 903.024 168.993 902.364 168.993 901.652L168.993 901.652 168.993 895.04 167.217 895.04 167.217 902.168C167.217 902.752 167.273 903.338 167.385 903.926 167.497 904.514 167.677 905.07 167.925 905.594 168.173 906.118 168.499 906.584 168.903 906.992 169.307 907.4 169.799 907.724 170.379 907.964 170.959 908.204 171.637 908.324 172.413 908.324zM185.421 908.36C186.717 908.36 187.829 908.068 188.757 907.484 189.375667 907.094667 189.885889 906.588 190.287667 905.964L190.353 905.856 190.353 908 191.925 908 191.925 899.948C191.925 899.468 191.901 898.996 191.853 898.532 191.805 898.068 191.701 897.648 191.541 897.272 191.197 896.432 190.611 895.79 189.783 895.346 188.955 894.902 187.949 894.68 186.765 894.68 185.333 894.68 184.169 895 183.273 895.64 182.377 896.28 181.781 897.18 181.485 898.34L181.485 898.34 183.201 898.844C183.449 897.98 183.879 897.348 184.491 896.948 185.103 896.548 185.853 896.348 186.741 896.348 188.029 896.348 188.933 896.656 189.453 897.272 189.898714 897.8 190.144592 898.571918 190.190633 899.587755L190.196 899.823 189.8865 899.8655C189.663167 899.8955 189.429389 899.925722 189.185167 899.956167L188.811 900.002C188.047 900.094 187.267 900.202 186.471 900.326 185.675 900.45 184.949 900.592 184.293 900.752 183.645 900.92 183.075 901.164 182.583 901.484 182.091 901.804 181.703 902.214 181.419 902.714 181.135 903.214 180.993 903.816 180.993 904.52 180.993 905.208 181.157 905.844 181.485 906.428 181.813 907.012 182.307 907.48 182.967 907.832 183.627 908.184 184.445 908.36 185.421 908.36zM185.625 906.836C184.929 906.836 184.371 906.72 183.951 906.488 183.531 906.256 183.227 905.964 183.039 905.612 182.851 905.26 182.757 904.896 182.757 904.52 182.757 904.056 182.867 903.668 183.087 903.356 183.307 903.044 183.589 902.794 183.933 902.606 184.277 902.418 184.633 902.272 185.001 902.168 185.545 902.024 186.155 901.9 186.831 901.796 187.507 901.692 188.195 901.6 188.895 901.52 189.245 901.48 189.5825 901.44 189.9075 901.4L190.17 901.367 190.169082 901.480571C190.167776 901.592571 190.166143 901.714857 190.164184 901.847429L190.161 902.054C190.153 902.554 190.101 903.012 190.005 903.428 189.893 904.076 189.649 904.658 189.273 905.174 188.897 905.69 188.401 906.096 187.785 906.392 187.169 906.688 186.449 906.836 185.625 906.836zM196.809 908L196.809 901.088C196.809 900.352 196.893 899.696 197.061 899.12 197.229 898.544 197.475 898.054 197.799 897.65 198.123 897.246 198.523 896.936 198.999 896.72 199.475 896.504 200.025 896.396 200.649 896.396 201.329 896.396 201.907 896.52 202.383 896.768 202.859 897.016 203.247 897.366 203.547 897.818 203.847 898.27 204.065 898.798 204.201 899.402 204.337 900.006 204.405 900.668 204.405 901.388L204.405 901.388 204.405 908 206.181 908 206.181 900.872C206.181 900.288 206.125 899.702 206.013 899.114 205.901 898.526 205.721 897.97 205.473 897.446 205.225 896.922 204.899 896.456 204.495 896.048 204.091 895.64 203.599 895.316 203.019 895.076 202.439 894.836 201.761 894.716 200.985 894.716 199.929 894.716 198.993 894.948 198.177 895.412 197.6058 895.7368 197.12084 896.1694 196.72212 896.7098L196.629 896.843 196.629 895.04 195.033 895.04 195.033 908 196.809 908zM214.449 914.12C215.505 914.12 216.419 913.968 217.191 913.664 217.963 913.36 218.587 912.896 219.063 912.272 219.539 911.648 219.853 910.852 220.005 909.884 220.061 909.556 220.099 909.222 220.119 908.882 220.139 908.542 220.149 908.188 220.149 907.82L220.149 907.82 220.149 895.04 218.577 895.04 218.577 896.829 218.510157 896.731306C218.23214 896.354116 217.912388 896.021967 217.550901 895.73486L217.329 895.568C216.497 894.976 215.473 894.68 214.257 894.68 213.073 894.68 212.057 894.98 211.209 895.58 210.361 896.18 209.711 896.996 209.259 898.028 208.807 899.06 208.581 900.22 208.581 901.508 208.581 902.804 208.809 903.968 209.265 905 209.721 906.032 210.377 906.85 211.233 907.454 212.089 908.058 213.121 908.36 214.329 908.36 215.521 908.36 216.529 908.058 217.353 907.454 217.727545 907.179455 218.060769 906.860281 218.352669 906.496479L218.373 906.469 218.373 907.796C218.380111 908.699111 218.279765 909.469481 218.071963 910.107111L217.989 910.34C217.725 911.02 217.303 911.534 216.723 911.882 216.143 912.23 215.385 912.404 214.449 912.404 213.769 912.404 213.103 912.246 212.451 911.93 211.799 911.614 211.293 911.096 210.933 910.376L210.933 910.376 209.337 911.264C209.705 911.936 210.161 912.482 210.705 912.902 211.249 913.322 211.843 913.63 212.487 913.826 213.131 914.022 213.785 914.12 214.449 914.12zM214.509 906.716C213.605 906.716 212.853 906.488 212.253 906.032 211.653 905.576 211.203 904.954 210.903 904.166 210.603 903.378 210.453 902.492 210.453 901.508 210.453 900.532 210.599 899.652 210.891 898.868 211.183 898.084 211.633 897.464 212.241 897.008 212.849 896.552 213.617 896.324 214.545 896.324 215.449 896.324 216.199 896.544 216.795 896.984 217.391 897.424 217.837 898.034 218.133 898.814 218.429 899.594 218.577 900.492 218.577 901.508 218.577 902.508 218.429 903.402 218.133 904.19 217.837 904.978 217.389 905.596 216.789 906.044 216.189 906.492 215.429 906.716 214.509 906.716zM229.329 908.36C230.537 908.36 231.569 908.058 232.425 907.454 233.281 906.85 233.937 906.032 234.393 905 234.849 903.968 235.077 902.804 235.077 901.508 235.077 900.22 234.851 899.06 234.399 898.028 233.947 896.996 233.297 896.18 232.449 895.58 231.601 894.98 230.585 894.68 229.401 894.68 228.185 894.68 227.161 894.976 226.329 895.568 225.950818 895.837091 225.614372 896.151223 225.319661 896.510397L225.273 896.57 225.273 890.72 223.497 890.72 223.497 908 225.081 908 225.081 906.195 225.135149 906.272843C225.410521 906.654496 225.727215 906.991521 226.085231 907.283917L226.305 907.454C227.129 908.058 228.137 908.36 229.329 908.36zM229.149 906.716C228.229 906.716 227.469 906.492 226.869 906.044 226.269 905.596 225.821 904.978 225.525 904.19 225.229 903.402 225.081 902.508 225.081 901.508 225.081 900.492 225.229 899.594 225.525 898.814 225.821 898.034 226.267 897.424 226.863 896.984 227.459 896.544 228.209 896.324 229.113 896.324 230.041 896.324 230.807 896.552 231.411 897.008 232.015 897.464 232.465 898.084 232.761 898.868 233.057 899.652 233.205 900.532 233.205 901.508 233.205 902.492 233.055 903.378 232.755 904.166 232.455 904.954 232.005 905.576 231.405 906.032 230.805 906.488 230.053 906.716 229.149 906.716zM239.721 892.58L239.721 890.6 237.957 890.6 237.957 892.58 239.721 892.58zM239.721 908L239.721 895.04 237.957 895.04 237.957 908 239.721 908zM245.085 908L245.085 901.088C245.085 900.352 245.169 899.696 245.337 899.12 245.505 898.544 245.751 898.054 246.075 897.65 246.399 897.246 246.799 896.936 247.275 896.72 247.751 896.504 248.301 896.396 248.925 896.396 249.605 896.396 250.183 896.52 250.659 896.768 251.135 897.016 251.523 897.366 251.823 897.818 252.123 898.27 252.341 898.798 252.477 899.402 252.613 900.006 252.681 900.668 252.681 901.388L252.681 901.388 252.681 908 254.457 908 254.457 900.872C254.457 900.288 254.401 899.702 254.289 899.114 254.177 898.526 253.997 897.97 253.749 897.446 253.501 896.922 253.175 896.456 252.771 896.048 252.367 895.64 251.875 895.316 251.295 895.076 250.715 894.836 250.037 894.716 249.261 894.716 248.205 894.716 247.269 894.948 246.453 895.412 245.8818 895.7368 245.39684 896.1694 244.99812 896.7098L244.905 896.843 244.905 895.04 243.309 895.04 243.309 908 245.085 908zM140.609 869.48C143.265 869.48 145.478333 868.816 147.249 867.488 149.019667 866.16 150.262333 864.370667 150.977 862.12L150.977 862.12 147.089 861.048C146.641 862.541333 145.878333 863.714667 144.801 864.568 143.723667 865.421333 142.326333 865.848 140.609 865.848 139.062333 865.848 137.771667 865.501333 136.737 864.808 135.702333 864.114667 134.926333 863.141333 134.409 861.888 133.891667 860.634667 133.633 859.165333 133.633 857.48 133.643667 855.794667 133.907667 854.325333 134.425 853.072 134.942333 851.818667 135.715667 850.845333 136.745 850.152 137.774333 849.458667 139.062333 849.112 140.609 849.112 142.326333 849.112 143.723667 849.536 144.801 850.384 145.878333 851.232 146.641 852.408 147.089 853.912L147.089 853.912 150.977 852.84C150.262333 850.589333 149.019667 848.8 147.249 847.472 145.478333 846.144 143.265 845.48 140.609 845.48 138.305 845.48 136.331667 845.984 134.689 846.992 133.046333 848 131.785 849.405333 130.905 851.208 130.025 853.010667 129.585 855.101333 129.585 857.48 129.585 859.858667 130.025 861.949333 130.905 863.752 131.785 865.554667 133.046333 866.96 134.689 867.968 136.331667 868.976 138.305 869.48 140.609 869.48zM162.129 869.48C163.857 869.48 165.366333 869.093333 166.657 868.32 167.947667 867.546667 168.953 866.474667 169.673 865.104 170.393 863.733333 170.753 862.152 170.753 860.36 170.753 858.578667 170.395667 857.002667 169.681 855.632 168.966333 854.261333 167.963667 853.186667 166.673 852.408 165.382333 851.629333 163.867667 851.24 162.129 851.24 160.433 851.24 158.939667 851.624 157.649 852.392 156.358333 853.16 155.350333 854.226667 154.625 855.592 153.899667 856.957333 153.537 858.546667 153.537 860.36 153.537 862.141333 153.891667 863.717333 154.601 865.088 155.310333 866.458667 156.310333 867.533333 157.601 868.312 158.891667 869.090667 160.401 869.48 162.129 869.48zM162.129 865.864C160.646333 865.864 159.523667 865.365333 158.761 864.368 157.998333 863.370667 157.617 862.034667 157.617 860.36 157.617 859.272 157.777 858.314667 158.097 857.488 158.417 856.661333 158.910333 856.016 159.577 855.552 160.243667 855.088 161.094333 854.856 162.129 854.856 163.643667 854.856 164.779667 855.354667 165.537 856.352 166.294333 857.349333 166.673 858.685333 166.673 860.36 166.673 861.981333 166.299667 863.304 165.553 864.328 164.806333 865.352 163.665 865.864 162.129 865.864zM178.145 869L178.145 860.12C178.145 859.064 178.262333 858.197333 178.497 857.52 178.731667 856.842667 179.043667 856.309333 179.433 855.92 179.822333 855.530667 180.257 855.256 180.737 855.096 181.217 854.936 181.702333 854.856 182.193 854.856 183.110333 854.856 183.838333 855.053333 184.377 855.448 184.915667 855.842667 185.321 856.346667 185.593 856.96 185.865 857.573333 186.038333 858.210667 186.113 858.872 186.187667 859.533333 186.225 860.136 186.225 860.68L186.225 860.68 186.225 869 190.129 869 190.129 859.352C190.129 858.936 190.094333 858.394667 190.025 857.728 189.955667 857.061333 189.803667 856.354667 189.569 855.608 189.334333 854.861333 188.971667 854.157333 188.481 853.496 187.990333 852.834667 187.329 852.290667 186.497 851.864 185.665 851.437333 184.609 851.224 183.329 851.224 181.707667 851.224 180.342333 851.578667 179.233 852.288 178.678333 852.642667 178.191 853.058 177.771 853.534L177.681 853.641 177.681 851.72 174.241 851.72 174.241 869 178.145 869zM198.161 869L198.161 860.12C198.161 859.064 198.278333 858.197333 198.513 857.52 198.747667 856.842667 199.059667 856.309333 199.449 855.92 199.838333 855.530667 200.273 855.256 200.753 855.096 201.233 854.936 201.718333 854.856 202.209 854.856 203.126333 854.856 203.854333 855.053333 204.393 855.448 204.931667 855.842667 205.337 856.346667 205.609 856.96 205.881 857.573333 206.054333 858.210667 206.129 858.872 206.203667 859.533333 206.241 860.136 206.241 860.68L206.241 860.68 206.241 869 210.145 869 210.145 859.352C210.145 858.936 210.110333 858.394667 210.041 857.728 209.971667 857.061333 209.819667 856.354667 209.585 855.608 209.350333 854.861333 208.987667 854.157333 208.497 853.496 208.006333 852.834667 207.345 852.290667 206.513 851.864 205.681 851.437333 204.625 851.224 203.345 851.224 201.723667 851.224 200.358333 851.578667 199.249 852.288 198.694333 852.642667 198.207 853.058 197.787 853.534L197.697 853.641 197.697 851.72 194.257 851.72 194.257 869 198.161 869zM219.137 869.48C220.694333 869.48 221.993 869.189333 223.033 868.608 223.813 868.172 224.5195 867.5485 225.1525 866.7375L225.201 866.673 225.201 869 228.577 869 228.577 858.392C228.577 857.645333 228.545 856.954667 228.481 856.32 228.417 855.685333 228.230333 855.064 227.921 854.456 227.355667 853.314667 226.489 852.493333 225.321 851.992 224.153 851.490667 222.801 851.24 221.265 851.24 219.227667 851.24 217.609 851.682667 216.409 852.568 215.209 853.453333 214.395667 854.626667 213.969 856.088L213.969 856.088 217.489 857.192C217.777 856.306667 218.283667 855.682667 219.009 855.32 219.734333 854.957333 220.486333 854.776 221.265 854.776 222.555667 854.776 223.473 855.058667 224.017 855.624 224.435462 856.058872 224.689821 856.679937 224.780077 857.487195L224.798 857.689 224.439 857.742C224.153 857.784 223.870167 857.825167 223.5905 857.8655L222.761 857.984C221.667667 858.138667 220.654333 858.306667 219.721 858.488 218.787667 858.669333 217.974333 858.872 217.281 859.096 216.363667 859.405333 215.617 859.802667 215.041 860.288 214.465 860.773333 214.038333 861.349333 213.761 862.016 213.483667 862.682667 213.345 863.432 213.345 864.264 213.345 865.213333 213.566333 866.082667 214.009 866.872 214.451667 867.661333 215.105 868.293333 215.969 868.768 216.833 869.242667 217.889 869.48 219.137 869.48zM219.905 866.408C219.297 866.408 218.787667 866.312 218.377 866.12 217.966333 865.928 217.654333 865.669333 217.441 865.344 217.227667 865.018667 217.121 864.642667 217.121 864.216 217.121 863.842667 217.203667 863.517333 217.369 863.24 217.534333 862.962667 217.771667 862.717333 218.081 862.504 218.390333 862.290667 218.769 862.104 219.217 861.944 219.675667 861.794667 220.203667 861.658667 220.801 861.536 221.398333 861.413333 222.113 861.282667 222.945 861.144 223.465 861.057333 224.049583 860.962333 224.69875 860.859L224.746 860.852 224.745653 860.885551C224.740755 861.098776 224.733408 861.334041 224.723612 861.591347L224.713 861.856C224.686333 862.490667 224.571667 863.053333 224.369 863.544 224.241 863.938667 223.993 864.36 223.625 864.808 223.257 865.256 222.763667 865.634667 222.145 865.944 221.526333 866.253333 220.779667 866.408 219.905 866.408zM236.913 849.096L236.913 845.56 233.057 845.56 233.057 849.096 236.913 849.096zM236.913 869L236.913 851.72 233.057 851.72 233.057 869 236.913 869zM248.385 869.48C250.614333 869.48 252.361 868.984 253.625 867.992 254.889 867 255.521 865.634667 255.521 863.896 255.521 863 255.337 862.237333 254.969 861.608 254.601 860.978667 254.003667 860.437333 253.177 859.984 252.350333 859.530667 251.249 859.128 249.873 858.776 248.529 858.434667 247.518333 858.146667 246.841 857.912 246.163667 857.677333 245.713 857.442667 245.489 857.208 245.265 856.973333 245.153 856.690667 245.153 856.36 245.153 855.773333 245.430333 855.317333 245.985 854.992 246.539667 854.666667 247.270333 854.530667 248.177 854.584 249.126333 854.637333 249.886333 854.877333 250.457 855.304 251.027667 855.730667 251.361 856.312 251.457 857.048L251.457 857.048 255.393 856.344C255.243667 855.309333 254.849 854.408 254.209 853.64 253.569 852.872 252.729 852.28 251.689 851.864 250.649 851.448 249.457 851.24 248.113 851.24 246.737 851.24 245.542333 851.456 244.529 851.888 243.515667 852.32 242.726333 852.936 242.161 853.736 241.595667 854.536 241.313 855.474667 241.313 856.552 241.313 857.416 241.499667 858.152 241.873 858.76 242.246333 859.368 242.859667 859.893333 243.713 860.336 244.566333 860.778667 245.718333 861.192 247.169 861.576 248.470333 861.917333 249.435667 862.2 250.065 862.424 250.694333 862.648 251.102333 862.88 251.289 863.12 251.475667 863.36 251.569 863.677333 251.569 864.072 251.569 864.712 251.315667 865.216 250.809 865.584 250.302333 865.952 249.585 866.136 248.657 866.136 247.601 866.136 246.726333 865.890667 246.033 865.4 245.339667 864.909333 244.891667 864.237333 244.689 863.384L244.689 863.384 240.753 863.992C241.041 865.730667 241.851667 867.08 243.185 868.04 244.518333 869 246.251667 869.48 248.385 869.48zM265.713 869.48C267.942333 869.48 269.689 868.984 270.953 867.992 272.217 867 272.849 865.634667 272.849 863.896 272.849 863 272.665 862.237333 272.297 861.608 271.929 860.978667 271.331667 860.437333 270.505 859.984 269.678333 859.530667 268.577 859.128 267.201 858.776 265.857 858.434667 264.846333 858.146667 264.169 857.912 263.491667 857.677333 263.041 857.442667 262.817 857.208 262.593 856.973333 262.481 856.690667 262.481 856.36 262.481 855.773333 262.758333 855.317333 263.313 854.992 263.867667 854.666667 264.598333 854.530667 265.505 854.584 266.454333 854.637333 267.214333 854.877333 267.785 855.304 268.355667 855.730667 268.689 856.312 268.785 857.048L268.785 857.048 272.721 856.344C272.571667 855.309333 272.177 854.408 271.537 853.64 270.897 852.872 270.057 852.28 269.017 851.864 267.977 851.448 266.785 851.24 265.441 851.24 264.065 851.24 262.870333 851.456 261.857 851.888 260.843667 852.32 260.054333 852.936 259.489 853.736 258.923667 854.536 258.641 855.474667 258.641 856.552 258.641 857.416 258.827667 858.152 259.201 858.76 259.574333 859.368 260.187667 859.893333 261.041 860.336 261.894333 860.778667 263.046333 861.192 264.497 861.576 265.798333 861.917333 266.763667 862.2 267.393 862.424 268.022333 862.648 268.430333 862.88 268.617 863.12 268.803667 863.36 268.897 863.677333 268.897 864.072 268.897 864.712 268.643667 865.216 268.137 865.584 267.630333 865.952 266.913 866.136 265.985 866.136 264.929 866.136 264.054333 865.890667 263.361 865.4 262.667667 864.909333 262.219667 864.237333 262.017 863.384L262.017 863.384 258.081 863.992C258.369 865.730667 259.179667 867.08 260.513 868.04 261.846333 869 263.579667 869.48 265.713 869.48zM281.201 869.48C282.758333 869.48 284.057 869.189333 285.097 868.608 285.877 868.172 286.5835 867.5485 287.2165 866.7375L287.265 866.673 287.265 869 290.641 869 290.641 858.392C290.641 857.645333 290.609 856.954667 290.545 856.32 290.481 855.685333 290.294333 855.064 289.985 854.456 289.419667 853.314667 288.553 852.493333 287.385 851.992 286.217 851.490667 284.865 851.24 283.329 851.24 281.291667 851.24 279.673 851.682667 278.473 852.568 277.273 853.453333 276.459667 854.626667 276.033 856.088L276.033 856.088 279.553 857.192C279.841 856.306667 280.347667 855.682667 281.073 855.32 281.798333 854.957333 282.550333 854.776 283.329 854.776 284.619667 854.776 285.537 855.058667 286.081 855.624 286.499462 856.058872 286.753821 856.679937 286.844077 857.487195L286.862 857.689 286.503 857.742C286.217 857.784 285.934167 857.825167 285.6545 857.8655L284.825 857.984C283.731667 858.138667 282.718333 858.306667 281.785 858.488 280.851667 858.669333 280.038333 858.872 279.345 859.096 278.427667 859.405333 277.681 859.802667 277.105 860.288 276.529 860.773333 276.102333 861.349333 275.825 862.016 275.547667 862.682667 275.409 863.432 275.409 864.264 275.409 865.213333 275.630333 866.082667 276.073 866.872 276.515667 867.661333 277.169 868.293333 278.033 868.768 278.897 869.242667 279.953 869.48 281.201 869.48zM281.969 866.408C281.361 866.408 280.851667 866.312 280.441 866.12 280.030333 865.928 279.718333 865.669333 279.505 865.344 279.291667 865.018667 279.185 864.642667 279.185 864.216 279.185 863.842667 279.267667 863.517333 279.433 863.24 279.598333 862.962667 279.835667 862.717333 280.145 862.504 280.454333 862.290667 280.833 862.104 281.281 861.944 281.739667 861.794667 282.267667 861.658667 282.865 861.536 283.462333 861.413333 284.177 861.282667 285.009 861.144 285.529 861.057333 286.113583 860.962333 286.76275 860.859L286.81 860.852 286.809653 860.885551C286.804755 861.098776 286.797408 861.334041 286.787612 861.591347L286.777 861.856C286.750333 862.490667 286.635667 863.053333 286.433 863.544 286.305 863.938667 286.057 864.36 285.689 864.808 285.321 865.256 284.827667 865.634667 284.209 865.944 283.590333 866.253333 282.843667 866.408 281.969 866.408zM298.977 849.096L298.977 845.56 295.121 845.56 295.121 849.096 298.977 849.096zM298.977 869L298.977 851.72 295.121 851.72 295.121 869 298.977 869zM310.449 869.48C312.678333 869.48 314.425 868.984 315.689 867.992 316.953 867 317.585 865.634667 317.585 863.896 317.585 863 317.401 862.237333 317.033 861.608 316.665 860.978667 316.067667 860.437333 315.241 859.984 314.414333 859.530667 313.313 859.128 311.937 858.776 310.593 858.434667 309.582333 858.146667 308.905 857.912 308.227667 857.677333 307.777 857.442667 307.553 857.208 307.329 856.973333 307.217 856.690667 307.217 856.36 307.217 855.773333 307.494333 855.317333 308.049 854.992 308.603667 854.666667 309.334333 854.530667 310.241 854.584 311.190333 854.637333 311.950333 854.877333 312.521 855.304 313.091667 855.730667 313.425 856.312 313.521 857.048L313.521 857.048 317.457 856.344C317.307667 855.309333 316.913 854.408 316.273 853.64 315.633 852.872 314.793 852.28 313.753 851.864 312.713 851.448 311.521 851.24 310.177 851.24 308.801 851.24 307.606333 851.456 306.593 851.888 305.579667 852.32 304.790333 852.936 304.225 853.736 303.659667 854.536 303.377 855.474667 303.377 856.552 303.377 857.416 303.563667 858.152 303.937 858.76 304.310333 859.368 304.923667 859.893333 305.777 860.336 306.630333 860.778667 307.782333 861.192 309.233 861.576 310.534333 861.917333 311.499667 862.2 312.129 862.424 312.758333 862.648 313.166333 862.88 313.353 863.12 313.539667 863.36 313.633 863.677333 313.633 864.072 313.633 864.712 313.379667 865.216 312.873 865.584 312.366333 865.952 311.649 866.136 310.721 866.136 309.665 866.136 308.790333 865.890667 308.097 865.4 307.403667 864.909333 306.955667 864.237333 306.753 863.384L306.753 863.384 302.817 863.992C303.105 865.730667 303.915667 867.08 305.249 868.04 306.582333 869 308.315667 869.48 310.449 869.48zM334.433 869.48C336.118333 869.48 337.531667 869.08 338.673 868.28 338.84859 868.156923 339.017489 868.026966 339.179698 867.89013L339.361 867.73 339.361 869 342.769 869 342.769 845.96 338.881 845.96 338.881 852.558 338.713 852.432C337.672644 851.690311 336.402316 851.294744 334.902013 851.245298L334.577 851.24C332.945 851.24 331.526333 851.637333 330.321 852.432 329.115667 853.226667 328.185 854.309333 327.529 855.68 326.873 857.050667 326.545 858.610667 326.545 860.36 326.545 862.088 326.870333 863.64 327.521 865.016 328.171667 866.392 329.089 867.48 330.273 868.28 331.457 869.08 332.843667 869.48 334.433 869.48zM335.025 866.024C334.022333 866.024 333.195667 865.773333 332.545 865.272 331.894333 864.770667 331.411667 864.090667 331.097 863.232 330.782333 862.373333 330.625 861.416 330.625 860.36 330.625 859.314667 330.785 858.362667 331.105 857.504 331.425 856.645333 331.921 855.962667 332.593 855.456 333.265 854.949333 334.118333 854.696 335.153 854.696 336.134333 854.696 336.934333 854.933333 337.553 855.408 338.171667 855.882667 338.627667 856.544 338.921 857.392 339.214333 858.24 339.361 859.229333 339.361 860.36 339.361 861.48 339.214333 862.466667 338.921 863.32 338.627667 864.173333 338.163667 864.837333 337.529 865.312 336.894333 865.786667 336.059667 866.024 335.025 866.024zM362.929 861.432C363.078333 859.362667 362.849 857.565333 362.241 856.04 361.633 854.514667 360.702333 853.333333 359.449 852.496 358.195667 851.658667 356.673 851.24 354.881 851.24 353.185 851.24 351.691667 851.624 350.401 852.392 349.110333 853.16 348.102333 854.24 347.377 855.632 346.651667 857.024 346.289 858.664 346.289 860.552 346.289 862.301333 346.659667 863.848 347.401 865.192 348.142333 866.536 349.174333 867.586667 350.497 868.344 351.819667 869.101333 353.355667 869.48 355.105 869.48 356.769 869.48 358.291667 869.048 359.673 868.184 361.054333 867.32 362.075667 866.109333 362.737 864.552L362.737 864.552 358.929 863.4C358.555667 864.2 358.025 864.810667 357.337 865.232 356.649 865.653333 355.830333 865.864 354.881 865.864 353.409 865.864 352.289 865.384 351.521 864.424 350.9578 863.72 350.601107 862.803757 350.45092 861.675271L350.423 861.432 361.041 861.432 362.929 861.432zM359.014 858.52L350.517 858.52 350.531 858.438125C350.693 857.57225 350.9765 856.848969 351.3815 856.268281L351.521 856.08C352.289 855.104 353.462333 854.616 355.041 854.616 356.438333 854.616 357.462333 855.048 358.113 855.912 358.560333 856.506 358.856417 857.339479 359.00125 858.412438L359.014 858.52zM376.769 869L376.769 859.4 384.865 859.4 384.865 855.56 376.769 855.56 376.769 849.816 386.785 849.816 386.785 845.96 372.913 845.96 372.913 869 376.769 869zM394.497 869.48C396.054333 869.48 397.353 869.189333 398.393 868.608 399.173 868.172 399.8795 867.5485 400.5125 866.7375L400.561 866.673 400.561 869 403.937 869 403.937 858.392C403.937 857.645333 403.905 856.954667 403.841 856.32 403.777 855.685333 403.590333 855.064 403.281 854.456 402.715667 853.314667 401.849 852.493333 400.681 851.992 399.513 851.490667 398.161 851.24 396.625 851.24 394.587667 851.24 392.969 851.682667 391.769 852.568 390.569 853.453333 389.755667 854.626667 389.329 856.088L389.329 856.088 392.849 857.192C393.137 856.306667 393.643667 855.682667 394.369 855.32 395.094333 854.957333 395.846333 854.776 396.625 854.776 397.915667 854.776 398.833 855.058667 399.377 855.624 399.795462 856.058872 400.049821 856.679937 400.140077 857.487195L400.158 857.689 399.799 857.742C399.513 857.784 399.230167 857.825167 398.9505 857.8655L398.121 857.984C397.027667 858.138667 396.014333 858.306667 395.081 858.488 394.147667 858.669333 393.334333 858.872 392.641 859.096 391.723667 859.405333 390.977 859.802667 390.401 860.288 389.825 860.773333 389.398333 861.349333 389.121 862.016 388.843667 862.682667 388.705 863.432 388.705 864.264 388.705 865.213333 388.926333 866.082667 389.369 866.872 389.811667 867.661333 390.465 868.293333 391.329 868.768 392.193 869.242667 393.249 869.48 394.497 869.48zM395.265 866.408C394.657 866.408 394.147667 866.312 393.737 866.12 393.326333 865.928 393.014333 865.669333 392.801 865.344 392.587667 865.018667 392.481 864.642667 392.481 864.216 392.481 863.842667 392.563667 863.517333 392.729 863.24 392.894333 862.962667 393.131667 862.717333 393.441 862.504 393.750333 862.290667 394.129 862.104 394.577 861.944 395.035667 861.794667 395.563667 861.658667 396.161 861.536 396.758333 861.413333 397.473 861.282667 398.305 861.144 398.825 861.057333 399.409583 860.962333 400.05875 860.859L400.106 860.852 400.105653 860.885551C400.100755 861.098776 400.093408 861.334041 400.083612 861.591347L400.073 861.856C400.046333 862.490667 399.931667 863.053333 399.729 863.544 399.601 863.938667 399.353 864.36 398.985 864.808 398.617 865.256 398.123667 865.634667 397.505 865.944 396.886333 866.253333 396.139667 866.408 395.265 866.408zM415.601 869.48C417.531667 869.48 419.163667 869.008 420.497 868.064 421.830333 867.12 422.763667 865.768 423.297 864.008L423.297 864.008 419.361 863.128C419.062333 864.013333 418.617 864.690667 418.025 865.16 417.433 865.629333 416.625 865.864 415.601 865.864 414.150333 865.864 413.057 865.357333 412.321 864.344 411.585 863.330667 411.217 862.002667 411.217 860.36 411.217 859.304 411.371667 858.36 411.681 857.528 411.990333 856.696 412.470333 856.042667 413.121 855.568 413.771667 855.093333 414.598333 854.856 415.601 854.856 416.486333 854.856 417.275667 855.114667 417.969 855.632 418.662333 856.149333 419.158333 856.872 419.457 857.8L419.457 857.8 423.297 856.76C422.881 855.053333 421.993 853.706667 420.633 852.72 419.273 851.733333 417.611667 851.24 415.649 851.24 413.899667 851.24 412.390333 851.632 411.121 852.416 409.851667 853.2 408.873 854.277333 408.185 855.648 407.497 857.018667 407.147667 858.589333 407.137 860.36 407.147667 862.098667 407.486333 863.656 408.153 865.032 408.819667 866.408 409.782333 867.493333 411.041 868.288 412.299667 869.082667 413.819667 869.48 415.601 869.48zM442.193 861.432C442.342333 859.362667 442.113 857.565333 441.505 856.04 440.897 854.514667 439.966333 853.333333 438.713 852.496 437.459667 851.658667 435.937 851.24 434.145 851.24 432.449 851.24 430.955667 851.624 429.665 852.392 428.374333 853.16 427.366333 854.24 426.641 855.632 425.915667 857.024 425.553 858.664 425.553 860.552 425.553 862.301333 425.923667 863.848 426.665 865.192 427.406333 866.536 428.438333 867.586667 429.761 868.344 431.083667 869.101333 432.619667 869.48 434.369 869.48 436.033 869.48 437.555667 869.048 438.937 868.184 440.318333 867.32 441.339667 866.109333 442.001 864.552L442.001 864.552 438.193 863.4C437.819667 864.2 437.289 864.810667 436.601 865.232 435.913 865.653333 435.094333 865.864 434.145 865.864 432.673 865.864 431.553 865.384 430.785 864.424 430.2218 863.72 429.865107 862.803757 429.71492 861.675271L429.687 861.432 440.305 861.432 442.193 861.432zM438.278 858.52L429.781 858.52 429.795 858.438125C429.957 857.57225 430.2405 856.848969 430.6455 856.268281L430.785 856.08C431.553 855.104 432.726333 854.616 434.305 854.616 435.702333 854.616 436.726333 855.048 437.377 855.912 437.824333 856.506 438.120417 857.339479 438.26525 858.412438L438.278 858.52z"/>
    <rect width="600" height="600" x="128.625" y="165" fill="#FFF" opacity=".1"/>
  </g>
</svg>
