<svg xmlns="http://www.w3.org/2000/svg" width="864" height="1194" viewBox="0 0 864 1194">
  <g fill="none" fill-rule="evenodd">
    <path stroke="#245633" d="M814.199723,0.5 C825.949815,0.5 836.587291,5.27090638 844.287252,12.9845153 C851.987472,20.6983845 856.75,31.3551269 856.75,43.1265851 L856.75,43.1265851 L856.75,1144.87341 C856.75,1156.6442 851.987121,1167.30093 844.28674,1175.01496 C836.586602,1182.72875 825.949119,1187.5 814.199723,1187.5 L814.199723,1187.5 L43.0502766,1187.5 C31.3001855,1187.5 20.6627086,1182.72909 12.9627482,1175.01548 C5.26252803,1167.30162 0.5,1156.64487 0.5,1144.87341 L0.5,1144.87341 L0.5,43.1265851 C0.5,31.3557978 5.26287937,20.6990705 12.96326,12.9850405 C20.6633982,5.27125349 31.3008812,0.5 43.0502766,0.5 L43.0502766,0.5 Z" opacity=".2"/>
    <circle cx="428.625" cy="46.125" r="5.875" stroke="#245633" opacity=".2"/>
    <rect width="767" height="1023.5" x="45.125" y="81.5" stroke="#245633" opacity=".2" rx=".75"/>
    <path fill="#245633" d="M9.00025,32.000025 C9.00025,26.017775 11.29675,20.562525 15.05325,16.467275 L47.533,48.947025 C43.43775,52.703525 37.9825,55.000025 32.00025,55.000025 C19.318,55.000025 9.00025,44.682275 9.00025,32.000025 M55.00025,32.000025 C55.00025,37.982275 52.70375,43.437525 48.94725,47.532775 L16.46725,15.053025 C20.5625,11.296525 26.018,9.000025 32.00025,9.000025 C44.6825,9.000025 55.00025,19.317775 55.00025,32.000025 M49.76025,49.576775 C54.2335,45.057275 57.00025,38.846025 57.00025,32.000025 C57.00025,18.215025 45.7855,7.000025 32.00025,7.000025 C25.15525,7.000025 18.94475,9.766025 14.4255,14.238275 C14.3905,14.265025 14.3545,14.290275 14.3225,14.322525 C14.2905,14.354275 14.26525,14.390275 14.2385,14.425275 C9.76625,18.944525 7.00025,25.155025 7.00025,32.000025 C7.00025,45.785025 18.215,57.000025 32.00025,57.000025 C38.84625,57.000025 45.05725,54.233275 49.57675,49.760275 C49.61075,49.734025 49.64625,49.709025 49.67775,49.677525 C49.709,49.646275 49.734,49.611025 49.76025,49.576775" transform="translate(664.625 985)"/>
    <path fill="#245633" d="M32.0016,6.9996 C45.7856,6.9996 57.0016,18.2156 57.0016,31.9996 C57.0016,45.7836 45.7856,56.9996 32.0016,56.9996 C18.2176,56.9996 7.0016,45.7836 7.0016,31.9996 C7.0016,18.2156 18.2176,6.9996 32.0016,6.9996 Z M32.0016,8.9996 C19.3176,8.9996 9.0016,19.3196 9.0016,31.9996 C9.0016,44.6796 19.3176,54.9996 32.0016,54.9996 C44.6856,54.9996 55.0016,44.6796 55.0016,31.9996 C55.0016,19.3196 44.6856,8.9996 32.0016,8.9996 Z M39.0016,22.9996 C39.5144358,22.9996 39.9371072,23.3856402 39.9948723,23.8829789 L40.0016,23.9996 L40.0016,39.9996 C40.0016,40.5518847 39.5538847,40.9996 39.0016,40.9996 C38.4887642,40.9996 38.0660928,40.6135598 38.0083277,40.1162211 L38.0016,39.9996 L38.0016,23.9996 C38.0016,23.4473153 38.4493153,22.9996 39.0016,22.9996 Z M24.528,23.1196 C24.856,22.9396 25.252,22.9636 25.556,23.1676 L25.556,23.1676 L37.556,31.1676 C37.832,31.3516 38,31.6676 38,31.9996 C38,32.3356 37.832,32.6476 37.556,32.8316 L37.556,32.8316 L25.556,40.8316 C25.388,40.9436 25.196,40.9996 25,40.9996 C24.84,40.9996 24.676,40.9596 24.528,40.8796 C24.204,40.7076 24,40.3676 24,39.9996 L24,39.9996 L24,23.9996 C24,23.6316 24.204,23.2916 24.528,23.1196 Z" transform="translate(480.625 985)"/>
    <path fill="#245633" d="M40,40 C40,41.104 39.104,42 38,42 C36.896,42 36,41.104 36,40 L36,24 C36,22.896 36.896,22 38,22 C39.104,22 40,22.896 40,24 L40,40 Z M28,40 C28,41.104 27.104,42 26,42 C24.896,42 24,41.104 24,40 L24,24 C24,22.896 24.896,22 26,22 C27.104,22 28,22.896 28,24 L28,40 Z M32,6 C17.664,6 6,17.664 6,32 C6,46.336 17.664,58 32,58 C46.336,58 58,46.336 58,32 C58,17.664 46.336,6 32,6 L32,6 Z" transform="translate(396.625 985)"/>
    <path fill="#245633" d="M32,7 C45.784,7 57,18.216 57,32 C57,45.784 45.784,57 32,57 C18.216,57 7,45.784 7,32 C7,18.216 18.216,7 32,7 Z M32,9 C19.316,9 9,19.32 9,32 C9,44.68 19.316,55 32,55 C44.684,55 55,44.68 55,32 C55,19.32 44.684,9 32,9 Z M25,23 C25.552,23 26,23.448 26,24 L26,24 L26,40 C26,40.552 25.552,41 25,41 C24.448,41 24,40.552 24,40 L24,40 L24,24 C24,23.448 24.448,23 25,23 Z M38.4448,23.1672 C38.7488,22.9632 39.1408,22.9392 39.4728,23.1192 C39.7968,23.2912 40.0008,23.6312 40.0008,23.9992 L40.0008,23.9992 L40.0008,39.9992 C40.0008,40.3672 39.7968,40.7072 39.4728,40.8792 C39.3248,40.9592 39.1608,40.9992 39.0008,40.9992 C38.8048,40.9992 38.6128,40.9432 38.4448,40.8312 L38.4448,40.8312 L26.4448,32.8312 C26.1688,32.6472 26.0008,32.3352 26.0008,31.9992 C26.0008,31.6672 26.1688,31.3552 26.4448,31.1672 L26.4448,31.1672 Z" transform="translate(312.625 985)"/>
    <path stroke="#245633" stroke-linecap="round" stroke-linejoin="round" stroke-width="2" d="M32,54 C32,54 7,40 7,23 C7,15.82025 12.82025,10 20,10 C25.4045,10 30.03875,13.298 32,17.99125 L32,17.99125 C33.96125,13.298 38.5955,10 44,10 C51.17975,10 57,15.82025 57,23 C57,40 32,54 32,54 Z" transform="translate(128.625 985)"/>
    <g stroke="#245633" opacity=".2" transform="translate(128.625 923)">
      <rect width="599" height="3" x=".5" y="10.5" rx="1.5"/>
      <rect width="359" height="3" x=".5" y="10.5" rx="1.5"/>
      <circle cx="358.375" cy="12" r="11.5"/>
    </g>
    <path stroke="#245633" d="M214.257 895.18C215.353582 895.18 216.281205 895.438024 217.033632 895.971716 218.024685 896.744895 218.187968 897.127231 218.8148 898.13571L218.94673 898.346055 219.05763 895.54 219.649002 895.54 219.649042 907.813545C219.641432 908.40299 219.632909 908.630862 219.619863 908.852639 219.600956 909.174046 219.56507 909.489787 219.511052 909.806438 219.373693 910.681198 219.096255 911.404007 218.66546 911.968748 218.244162 912.521038 217.690698 912.929858 217.007801 913.198771 216.28738 913.48246 215.433834 913.62 214.449 913.62 213.834254 913.62 213.228796 913.52912 212.632581 913.347663 212.046319 913.169235 211.505752 912.888548 211.010558 912.50623 210.713133 912.2766 210.445494 912.004792 210.206836 911.691513L210.033263 911.448788 210.758509 911.045268C211.213715 911.724063 211.680759 912.112323 212.232931 912.37994 212.956093 912.730429 213.69503 912.904 214.449 912.904 215.493534 912.904 216.334635 912.698114 216.980248 912.310746 217.65405 911.906465 218.148029 911.311912 218.455105 910.520958 218.732881 909.690916 218.850281 908.959812 218.870232 908.148927L218.873 907.796 218.873 904.718977C218.317073 905.825828 217.770444 906.528069 217.057403 907.050735 216.313949 907.595694 215.402545 907.86 214.329 907.86 213.235098 907.86 212.297565 907.593225 211.521267 907.045463 210.737681 906.492559 210.139548 905.742117 209.722343 904.797918 209.292732 903.82564 209.081 902.728537 209.081 901.508 209.081 900.29468 209.291052 899.201109 209.716997 898.228596 210.130198 897.285182 210.722132 896.536982 211.497795 895.988164 212.265448 895.445013 213.186675 895.18 214.257 895.18zM214.545 895.824C213.493464 895.824 212.628167 896.092625 211.941 896.608 211.258823 897.119633 210.750363 897.813044 210.422444 898.693487 210.111141 899.529312 209.953 900.46716 209.953 901.508 209.953 902.558203 210.11564 903.503158 210.435719 904.343899 210.771708 905.22643 211.279138 905.919877 211.950458 906.430081 212.630922 906.947233 213.481246 907.216 214.509 907.216 215.552471 907.216 216.409422 906.951419 217.088145 906.44464 217.76147 905.941891 218.268528 905.251094 218.601067 904.365822 218.916472 903.526164 219.077 902.573929 219.077 901.508 219.077 900.424653 218.915963 899.467963 218.600471 898.636601 218.26743 897.758991 217.76179 897.076243 217.091968 896.581744 216.417304 896.08367 215.570908 895.824 214.545 895.824zM224.773 891.22L224.773 898.19144C225.4495 897.057967 225.964188 896.441232 226.618878 895.975395 227.372369 895.439257 228.301802 895.18 229.401 895.18 230.471325 895.18 231.392552 895.445013 232.160205 895.988164 232.935868 896.536982 233.527802 897.285182 233.941003 898.228596 234.366948 899.201109 234.577 900.29468 234.577 901.508 234.577 902.728537 234.365268 903.82564 233.935657 904.797918 233.518452 905.742117 232.920319 906.492559 232.136733 907.045463 231.360435 907.593225 230.422902 907.86 229.329 907.86 228.258076 907.86 227.348502 907.596983 226.606131 907.054576 225.613568 906.258127 225.45812 905.872187 224.821155 904.830154L224.686951 904.612684 224.59643 907.5 223.997 907.5 223.997 891.22 224.773 891.22zM229.113 895.824L229.113 895.824 228.837652 895.830422C227.934621 895.873183 227.179363 896.128949 226.566032 896.581744 225.89621 897.076243 225.39057 897.758991 225.057529 898.636601 224.742037 899.467963 224.581 900.424653 224.581 901.508 224.581 902.573929 224.741528 903.526164 225.056933 904.365822 225.389472 905.251094 225.89653 905.941891 226.569855 906.44464 227.248578 906.951419 228.105529 907.216 229.149 907.216 230.176754 907.216 231.027078 906.947233 231.707542 906.430081 232.378862 905.919877 232.886292 905.22643 233.222281 904.343899 233.54236 903.503158 233.705 902.558203 233.705 901.508 233.705 900.466377 233.544573 899.52784 233.228771 898.691393 232.896829 897.812194 232.388986 897.119854 231.712267 896.608953 231.029083 896.093172 230.165469 895.824 229.113 895.824L229.113 895.824zM186.765 895.18C187.854945 895.18 188.783539 895.377407 189.546712 895.786645 190.267101 896.172941 190.778806 896.730174 191.080923 897.467778 191.222576 897.800662 191.313175 898.172816 191.355654 898.58345 191.386491 898.881543 191.407033 899.183064 191.417301 899.488011L191.425 899.948 191.425 907.5 190.853 907.5 190.853 903.700401C190.146524 905.49079 189.473235 906.442497 188.49069 907.060823 187.636772 907.598202 186.612095 907.86 185.421 907.86 184.540141 907.86 183.799012 907.709073 183.202294 907.390824 182.633494 907.087464 182.204049 906.687212 181.920947 906.183153 181.635038 905.674096 181.493 905.119549 181.493 904.52 181.493 903.913627 181.608595 903.392577 181.853762 902.960945 182.09812 902.530738 182.432374 902.178422 182.855614 901.903144 183.305155 901.610759 183.826597 901.38945 184.411478 901.23776 185.054966 901.080812 185.767148 900.941676 186.547961 900.820041 187.338116 900.696952 188.112388 900.589738 188.872211 900.498239 189.49368 900.421581 189.728621 900.391199 189.953066 900.361049 190.679557 898.446061 190.351677 897.561456 189.835069 896.949474 189.241811 896.246691 188.229414 895.848 186.741 895.848 185.743167 895.848 184.903855 896.080836 184.217449 896.529467 183.696374 896.870039 183.283213 897.352676 182.987615 897.985086L182.882296 898.229275 182.124709 898.006767C182.463938 897.109925 182.925392 896.502743 183.563619 896.046867 184.38505 895.46013 185.455418 895.18 186.765 895.18zM189.846422 900.903744C189.522804 900.943574 189.186739 900.983404 188.838227 901.023234 188.131696 901.10398 187.437278 901.196844 186.754971 901.301814 186.059767 901.408769 185.4325 901.536559 184.873054 901.684647 184.46128 901.800946 184.070638 901.960982 183.693217 902.167247 183.280323 902.392899 182.942368 902.693468 182.678371 903.067864 182.403912 903.457096 182.257 903.938873 182.257 904.52 182.257 904.976805 182.369409 905.419625 182.597962 905.847554 182.827838 906.277959 183.194171 906.641152 183.709241 906.925667 184.189897 907.191173 184.825996 907.336 185.625 907.336 186.532415 907.336 187.323797 907.168346 188.001556 906.84267 188.695916 906.509016 189.253472 906.049816 189.677097 905.468458 190.095398 904.894407 190.368586 904.247678 190.495171 903.527634 190.599603 903.071042 190.666067 902.562825 189.846422 900.903744zM177.853 895.54L177.853 907.5 177.269 907.5 177.269 904.402937C176.455768 905.952685 175.824695 906.70954 174.973849 907.193355 174.229671 907.616515 173.375287 907.824 172.413 907.824 171.710548 907.824 171.095662 907.719434 170.570176 907.501992 170.055172 907.288887 169.617181 907.002636 169.258291 906.640193 168.894163 906.272459 168.600456 905.852376 168.376939 905.380105 168.146838 904.893925 167.980081 904.377983 167.876169 903.832444 167.77013 903.275736 167.717 902.720928 167.717 902.168L167.717 902.168 167.717 895.54 168.493 895.54 168.493 901.659645C168.524226 902.684902 168.594814 903.230407 168.709058 903.741145 168.859485 904.413641 169.102735 904.998778 169.434409 905.498499 169.782192 906.022492 170.232209 906.427952 170.783972 906.715425 171.323391 906.996467 171.977112 907.144 172.749 907.144 173.451786 907.144 174.070008 907.018362 174.605613 906.775314 175.154462 906.526257 175.615498 906.168615 175.989057 905.702818 176.351374 905.25104 176.629269 904.702122 176.817259 904.053109 176.99717 903.431986 177.089 902.731811 177.089 901.952L177.089 901.952 177.089 895.54 177.853 895.54zM200.985 895.216C201.687452 895.216 202.302338 895.320566 202.827824 895.538008 203.342828 895.751113 203.780819 896.037364 204.139709 896.399807 204.503837 896.767541 204.797544 897.187624 205.021061 897.659895 205.251162 898.146075 205.417919 898.662017 205.521831 899.207556 205.62787 899.764264 205.681 900.319072 205.681 900.872L205.681 900.872 205.681 907.5 204.905 907.5 204.905 901.381496C204.879388 900.392433 204.80791 899.82121 204.688788 899.292167 204.538371 898.624142 204.29525 898.0412 203.963591 897.541501 203.615808 897.017508 203.165791 896.612048 202.614028 896.324575 202.074609 896.043533 201.420888 895.896 200.649 895.896 199.946214 895.896 199.327992 896.021638 198.792387 896.264686 198.243538 896.513743 197.782502 896.871385 197.408943 897.337182 197.046674 897.7889 196.768959 898.335571 196.581 898.98 196.401049 899.596976 196.309 900.299424 196.309 901.088L196.309 901.088 196.309 907.5 195.533 907.5 195.533 895.54 196.129 895.54 196.129 898.632772C196.942175 897.087279 197.573298 896.330464 198.424151 895.846645 199.168329 895.423485 200.022713 895.216 200.985 895.216zM163.959644 895.43706C164.212743 895.421519 164.451899 895.426983 164.677 895.454478L164.677 895.454478 164.677 896.111925C164.266448 896.066683 163.927356 896.074647 163.572227 896.115234 162.919359 896.189847 162.316244 896.448046 161.77403 896.889324 161.275975 897.2767 160.903931 897.741165 160.65502 898.280471 160.418479 898.792977 160.260505 899.336077 160.181654 899.909937 160.106501 900.456888 160.069 900.997579 160.069 901.532L160.069 901.532 160.069 907.5 159.305 907.5 159.305 895.54 159.889 895.54 159.889 898.804329C161.009502 896.999129 161.326358 896.575459 161.700725 896.289179 162.015957 896.013076 162.352976 895.820062 162.737424 895.686191 163.141232 895.54558 163.548592 895.4623 163.959644 895.43706zM145.633 891.22L145.633 898.632772C146.446175 897.087279 147.077298 896.330464 147.928151 895.846645 148.672329 895.423485 149.526713 895.216 150.489 895.216 151.191452 895.216 151.806338 895.320566 152.331824 895.538008 152.846828 895.751113 153.284819 896.037364 153.643709 896.399807 154.007837 896.767541 154.301544 897.187624 154.525061 897.659895 154.755162 898.146075 154.921919 898.662017 155.025831 899.207556 155.13187 899.764264 155.185 900.319072 155.185 900.872L155.185 900.872 155.185 907.5 154.409 907.5 154.409 901.381496C154.383388 900.392433 154.31191 899.82121 154.192788 899.292167 154.042371 898.624142 153.79925 898.0412 153.467591 897.541501 153.119808 897.017508 152.669791 896.612048 152.118028 896.324575 151.578609 896.043533 150.924888 895.896 150.153 895.896 149.450214 895.896 148.831992 896.021638 148.296387 896.264686 147.747538 896.513743 147.286502 896.871385 146.912943 897.337182 146.550674 897.7889 146.272959 898.335571 146.085 898.98 145.905049 899.596976 145.813 900.299424 145.813 901.088L145.813 901.088 145.813 907.5 145.037 907.5 145.037 891.22 145.633 891.22zM131.569 891.22L131.569 898.139 131.569 898.138401 131.569 907.5 130.805 907.5 130.805 891.22 131.569 891.22zM140.165163 891.22L141.031261 891.22 133.460431 899.06162 141.683603 907.5 140.774572 907.5 132.533 899.119 140.165163 891.22zM239.221 895.54L239.221 907.5 238.457 907.5 238.457 895.54 239.221 895.54zM249.261 895.216C249.963452 895.216 250.578338 895.320566 251.103824 895.538008 251.618828 895.751113 252.056819 896.037364 252.415709 896.399807 252.779837 896.767541 253.073544 897.187624 253.297061 897.659895 253.527162 898.146075 253.693919 898.662017 253.797831 899.207556 253.90387 899.764264 253.957 900.319072 253.957 900.872L253.957 900.872 253.957 907.5 253.181 907.5 253.181 901.381496C253.155388 900.392433 253.08391 899.82121 252.964788 899.292167 252.814371 898.624142 252.57125 898.0412 252.239591 897.541501 251.891808 897.017508 251.441791 896.612048 250.890028 896.324575 250.350609 896.043533 249.696888 895.896 248.925 895.896 248.222214 895.896 247.603992 896.021638 247.068387 896.264686 246.519538 896.513743 246.058502 896.871385 245.684943 897.337182 245.322674 897.7889 245.044959 898.335571 244.857 898.98 244.677049 899.596976 244.585 900.299424 244.585 901.088L244.585 901.088 244.585 907.5 243.809 907.5 243.809 895.54 244.405 895.54 244.405 898.632772C245.218175 897.087279 245.849298 896.330464 246.700151 895.846645 247.444329 895.423485 248.298713 895.216 249.261 895.216zM239.221 891.1L239.221 892.08 238.457 892.08 238.457 891.1 239.221 891.1zM283.329 851.74C284.789718 851.74 286.076578 851.974507 287.187787 852.451464 288.243161 852.904455 289.026147 853.646683 289.539361 854.682729 289.819413 855.233176 289.989567 855.795435 290.047523 856.370166 290.097483 856.865606 290.127332 857.396024 290.137274 857.961407L290.141 858.392 290.141 868.5 287.765 868.5 287.765 865.04328C286.841802 866.58738 285.924791 867.572475 284.853039 868.171556 283.878162 868.716488 282.659038 868.98 281.201 868.98 280.049319 868.98 279.072092 868.768372 278.273752 868.329778 277.497215 867.903162 276.90727 867.337415 276.509102 866.627429 276.107948 865.912117 275.909 865.124016 275.909 864.264 275.909 863.50348 276.033007 862.817759 276.286648 862.208045 276.533589 861.614437 276.914457 861.102378 277.427177 860.670364 277.961047 860.220529 278.655134 859.856291 279.498715 859.571785 280.175441 859.353151 280.969405 859.155808 281.88036 858.978822 282.620804 858.834964 283.412028 858.6996 284.254367 858.57263L284.895711 858.478975 285.725871 858.36038C286.005959 858.319986 286.289217 858.278757 286.575647 858.236694 287.298385 856.549474 286.949268 855.805212 286.441286 855.27731 285.826067 854.637964 284.804251 854.276 283.329 854.276 282.473329 854.276 281.646619 854.474173 280.849393 854.872786 280.212349 855.191308 279.715054 855.679785 279.365939 856.34591L279.255067 856.574542 276.680575 855.767088C277.16916 854.525439 277.843132 853.654055 278.769843 852.970348 279.896488 852.139134 281.42045 851.74 283.329 851.74zM286.68415 860.365217C286.033651 860.468762 285.447868 860.563958 284.926801 860.650803 284.087664 860.790659 283.366877 860.922502 282.76442 861.046221 282.1466 861.173095 281.600593 861.314113 281.112832 861.473129 280.618752 861.649586 280.202156 861.857206 279.861134 862.092394 279.487192 862.350285 279.203144 862.649125 279.003527 862.983968 278.794822 863.334053 278.685 863.743648 278.685 864.216 278.685 864.747232 278.82169 865.213768 279.086878 865.618178 279.347834 866.016137 279.725761 866.33755 280.229235 866.572941 280.696816 866.79155 281.275516 866.908 281.969 866.908 282.932124 866.908 283.752182 866.731426 284.432607 866.391214 285.120602 866.047216 285.666452 865.623174 286.075363 865.12537 286.484238 864.627609 286.75641 864.156677 286.902193 863.717804 287.118278 863.188301 287.247041 862.580451 287.287183 861.612055 287.298463 861.315848 287.303287 861.046928 286.68415 860.365217zM342.269 846.46L342.269 868.5 339.861 868.5 339.861 866.620128C338.903547 867.477324 338.653518 867.68306 338.386012 867.870564 337.321931 868.616415 336.002088 868.98 334.433 868.98 332.951685 868.98 331.657257 868.611873 330.552929 867.865706 329.442045 867.115108 328.583306 866.092882 327.973012 864.802258 327.352215 863.489426 327.045 862.008165 327.045 860.36 327.045 858.691936 327.354264 857.2033 327.980008 855.895852 328.59496 854.610952 329.466007 853.594578 330.596215 852.849441 331.721679 852.107431 333.047164 851.741253 334.569562 851.740004 336.628139 851.802893 337.937032 852.313848 339.016954 853.328112L339.185641 853.492449 339.368189 846.46 342.269 846.46zM335.153 854.196C333.993836 854.196 333.043003 854.49052 332.291987 855.056762 331.545865 855.619314 330.99203 856.375329 330.636478 857.329395 330.296914 858.240558 330.125 859.250485 330.125 860.36 330.125 861.479544 330.294014 862.493938 330.62753 863.404042 330.977304 864.358508 331.517219 865.111304 332.239831 865.66807 332.970563 866.231094 333.896076 866.524 335.025 866.524 336.187087 866.524 337.117893 866.243837 337.828461 865.712403 338.539546 865.180584 339.064754 864.439891 339.393843 863.48254 339.703284 862.582348 339.861 861.541872 339.861 860.36 339.861 859.166659 339.703016 858.123248 339.393528 857.228547 339.064965 856.2787 338.549397 855.542266 337.857359 855.011307 337.160236 854.476445 336.262108 854.196 335.153 854.196zM140.609 845.98C143.142551 845.98 145.258333 846.604 146.949 847.872 148.506087 849.039815 149.632457 850.583231 150.332534 852.499035L150.332534 852.499035 147.404615 853.306321C146.828295 851.774365 146.086123 850.759245 145.110254 849.991111 143.953443 849.080552 142.45648 848.612 140.609 848.612 138.948214 848.612 137.569414 848.993847 136.46567 849.737302 135.356859 850.484169 134.520425 851.53034 133.962824 852.881229 133.42347 854.187913 133.144134 855.719171 133.133 857.48 133.133 859.238895 133.407101 860.771195 133.946824 862.078771 134.504525 863.429903 135.343888 864.476351 136.458663 865.223365 137.567706 865.966539 138.948912 866.348 140.609 866.348 142.456981 866.348 143.954332 865.876474 145.111451 864.959944 146.151148 864.136422 146.921708 863.037159 147.41533 861.656633L147.41533 861.656633 150.319487 862.457368C149.512299 864.533934 148.425551 865.980587 146.949 867.088 145.258333 868.356 143.142551 868.98 140.609 868.98 138.408231 868.98 136.520612 868.505312 134.950508 867.541839 133.388713 866.583464 132.190849 865.246275 131.35432 863.532657 130.505095 861.793033 130.085 859.774722 130.085 857.48 130.085 855.185278 130.505095 853.166967 131.35432 851.427343 132.190849 849.713725 133.388713 848.376536 134.950508 847.418161 136.520612 846.454688 138.408231 845.98 140.609 845.98zM162.129 851.74C163.767741 851.74 165.197409 852.101715 166.414712 852.836121 167.626348 853.567108 168.566827 854.576595 169.237646 855.863165 169.917371 857.166816 170.253 858.666505 170.253 860.36 170.253 862.063385 169.915065 863.567996 169.230354 864.871482 168.554538 866.158037 167.611655 867.165113 166.400013 867.891097 165.182598 868.62054 163.757884 868.98 162.129 868.98 160.500616 868.98 159.076332 868.618129 157.859288 867.883879 156.648186 867.153214 155.710584 866.144206 155.04506 864.858195 154.370204 863.554149 154.037 862.054014 154.037 860.36 154.037 858.636765 154.37691 857.124739 155.066558 855.826578 155.747446 854.544906 156.69292 853.542731 157.904679 852.821684 159.121686 852.097514 160.530686 851.74 162.129 851.74zM162.129 854.356C160.975751 854.356 160.032654 854.625682 159.291372 855.141614 158.545037 855.661063 157.98927 856.381238 157.630716 857.307503 157.290605 858.186123 157.117 859.203133 157.117 860.36 157.117 862.165803 157.54336 863.598814 158.363821 864.671725 159.216427 865.786671 160.464256 866.364 162.129 866.364 163.855445 866.364 165.122237 865.76741 165.957004 864.622586 166.759103 863.522564 167.173 862.104876 167.173 860.36 167.173 858.554788 166.749674 857.122197 165.935204 856.04962 165.089381 854.935755 163.829111 854.356 162.129 854.356zM310.177 851.74C311.450737 851.74 312.58131 851.93384 313.567305 852.328238 314.524262 852.711021 315.299622 853.252972 315.888889 853.960092 316.369834 854.537226 316.697012 855.197698 316.872342 855.940638L316.872342 855.940638 313.894831 856.473201C313.676926 855.749429 313.321714 855.278365 312.820401 854.903551 312.181635 854.42597 311.334657 854.144653 310.270361 854.084863 309.24357 854.024463 308.421911 854.193613 307.796034 854.560713 307.066499 854.988614 306.717 855.593857 306.717 856.36 306.717 856.825701 306.876127 857.223034 307.191322 857.553238 307.449299 857.823499 307.956602 858.112579 308.741317 858.384449 309.427753 858.622269 310.45184 858.91469 311.813083 859.260401 313.139918 859.599824 314.203265 859.985167 315.000584 860.422406 315.735105 860.825208 316.2736 861.299845 316.601376 861.86039 316.928782 862.420302 317.085 863.10034 317.085 863.896 317.085 865.464562 316.522929 866.701928 315.380309 867.598668 314.190772 868.532229 312.541812 868.98 310.449 868.98 308.438807 868.98 306.799575 868.540297 305.541152 867.634233 304.444844 866.844891 303.737197 865.76724 303.410442 864.40626L303.410442 864.40626 306.411609 863.942665C306.73358 864.807084 307.188029 865.36927 307.808166 865.808136 308.577817 866.352812 309.546183 866.636 310.721 866.636 311.781009 866.636 312.590986 866.406799 313.166833 865.988552 313.809063 865.52209 314.133 864.884211 314.133 864.072 314.133 863.546128 313.994533 863.130417 313.747676 862.81303 313.524809 862.526486 313.056081 862.22325 312.296662 861.952949 311.658428 861.72578 310.679619 861.438527 309.360946 861.092647 307.953734 860.72015 306.835147 860.321642 306.00724 859.892165 305.249293 859.49898 304.695628 859.039938 304.363086 858.498368 304.033989 857.962412 303.877 857.312051 303.877 856.552 303.877 855.586125 304.125929 854.742579 304.633333 854.024555 305.147555 853.296883 305.868232 852.74052 306.789083 852.347947 307.746976 851.939582 308.876981 851.74 310.177 851.74zM354.881 851.74C356.562293 851.74 357.994118 852.125334 359.171242 852.911753 360.342479 853.694239 361.208694 854.800544 361.776538 856.225135 362.272391 857.469117 362.501185 858.902171 362.47054 860.522907L362.457478 860.932 349.865915 860.932C350.026714 862.743117 350.446373 863.881107 351.130566 864.736348 351.987808 865.8079 353.230705 866.364 354.881 866.364 355.932579 866.364 356.836977 866.124526 357.598126 865.658396 358.179652 865.302267 358.662557 864.826603 359.044133 864.228916L359.182469 863.999059 362.026603 864.859469C361.325808 866.184395 360.485456 867.086071 359.407853 867.760093 358.106699 868.573943 356.672246 868.98 355.105 868.98 353.450907 868.98 351.9968 868.626595 350.745446 867.910094 349.503578 867.199024 348.534836 866.212361 347.838814 864.950507 347.136064 863.676457 346.789 862.209496 346.789 860.552 346.789 858.753648 347.129143 857.18968 347.820414 855.863051 348.500936 854.557048 349.445466 853.542406 350.656679 852.821684 351.873686 852.097514 353.282686 851.74 354.881 851.74zM355.041 854.116C353.287108 854.116 351.992438 854.671153 350.971393 855.982253 350.449661 856.73031 350.104887 857.692932 349.931645 859.027461L349.931645 859.027461 359.557201 858.905429 359.52528 858.576668C359.380651 857.287116 359.033468 856.303112 358.512408 855.611212 357.777144 854.634878 356.631898 854.116 355.041 854.116zM434.145 851.74C435.826293 851.74 437.258118 852.125334 438.435242 852.911753 439.606479 853.694239 440.472694 854.800544 441.040538 856.225135 441.536391 857.469117 441.765185 858.902171 441.73454 860.522907L441.721478 860.932 429.129915 860.932C429.290714 862.743117 429.710373 863.881107 430.394566 864.736348 431.251808 865.8079 432.494705 866.364 434.145 866.364 435.196579 866.364 436.100977 866.124526 436.862126 865.658396 437.443652 865.302267 437.926557 864.826603 438.308133 864.228916L438.446469 863.999059 441.290603 864.859469C440.589808 866.184395 439.749456 867.086071 438.671853 867.760093 437.370699 868.573943 435.936246 868.98 434.369 868.98 432.714907 868.98 431.2608 868.626595 430.009446 867.910094 428.767578 867.199024 427.798836 866.212361 427.102814 864.950507 426.400064 863.676457 426.053 862.209496 426.053 860.552 426.053 858.753648 426.393143 857.18968 427.084414 855.863051 427.764936 854.557048 428.709466 853.542406 429.920679 852.821684 431.137686 852.097514 432.546686 851.74 434.145 851.74zM434.305 854.116C432.551108 854.116 431.256438 854.671153 430.235393 855.982253 429.713661 856.73031 429.368887 857.692932 429.195645 859.027461L429.195645 859.027461 438.821201 858.905429 438.78928 858.576668C438.644651 857.287116 438.297468 856.303112 437.776408 855.611212 437.041144 854.634878 435.895898 854.116 434.305 854.116zM265.441 851.74C266.714737 851.74 267.84531 851.93384 268.831305 852.328238 269.788262 852.711021 270.563622 853.252972 271.152889 853.960092 271.633834 854.537226 271.961012 855.197698 272.136342 855.940638L272.136342 855.940638 269.158831 856.473201C268.940926 855.749429 268.585714 855.278365 268.084401 854.903551 267.445635 854.42597 266.598657 854.144653 265.534361 854.084863 264.50757 854.024463 263.685911 854.193613 263.060034 854.560713 262.330499 854.988614 261.981 855.593857 261.981 856.36 261.981 856.825701 262.140127 857.223034 262.455322 857.553238 262.713299 857.823499 263.220602 858.112579 264.005317 858.384449 264.691753 858.622269 265.71584 858.91469 267.077083 859.260401 268.403918 859.599824 269.467265 859.985167 270.264584 860.422406 270.999105 860.825208 271.5376 861.299845 271.865376 861.86039 272.192782 862.420302 272.349 863.10034 272.349 863.896 272.349 865.464562 271.786929 866.701928 270.644309 867.598668 269.454772 868.532229 267.805812 868.98 265.713 868.98 263.702807 868.98 262.063575 868.540297 260.805152 867.634233 259.708844 866.844891 259.001197 865.76724 258.674442 864.40626L258.674442 864.40626 261.675609 863.942665C261.99758 864.807084 262.452029 865.36927 263.072166 865.808136 263.841817 866.352812 264.810183 866.636 265.985 866.636 267.045009 866.636 267.854986 866.406799 268.430833 865.988552 269.073063 865.52209 269.397 864.884211 269.397 864.072 269.397 863.546128 269.258533 863.130417 269.011676 862.81303 268.788809 862.526486 268.320081 862.22325 267.560662 861.952949 266.922428 861.72578 265.943619 861.438527 264.624946 861.092647 263.217734 860.72015 262.099147 860.321642 261.27124 859.892165 260.513293 859.49898 259.959628 859.039938 259.627086 858.498368 259.297989 857.962412 259.141 857.312051 259.141 856.552 259.141 855.586125 259.389929 854.742579 259.897333 854.024555 260.411555 853.296883 261.132232 852.74052 262.053083 852.347947 263.010976 851.939582 264.140981 851.74 265.441 851.74zM248.113 851.74C249.386737 851.74 250.51731 851.93384 251.503305 852.328238 252.460262 852.711021 253.235622 853.252972 253.824889 853.960092 254.305834 854.537226 254.633012 855.197698 254.808342 855.940638L254.808342 855.940638 251.830831 856.473201C251.612926 855.749429 251.257714 855.278365 250.756401 854.903551 250.117635 854.42597 249.270657 854.144653 248.206361 854.084863 247.17957 854.024463 246.357911 854.193613 245.732034 854.560713 245.002499 854.988614 244.653 855.593857 244.653 856.36 244.653 856.825701 244.812127 857.223034 245.127322 857.553238 245.385299 857.823499 245.892602 858.112579 246.677317 858.384449 247.363753 858.622269 248.38784 858.91469 249.749083 859.260401 251.075918 859.599824 252.139265 859.985167 252.936584 860.422406 253.671105 860.825208 254.2096 861.299845 254.537376 861.86039 254.864782 862.420302 255.021 863.10034 255.021 863.896 255.021 865.464562 254.458929 866.701928 253.316309 867.598668 252.126772 868.532229 250.477812 868.98 248.385 868.98 246.374807 868.98 244.735575 868.540297 243.477152 867.634233 242.380844 866.844891 241.673197 865.76724 241.346442 864.40626L241.346442 864.40626 244.347609 863.942665C244.66958 864.807084 245.124029 865.36927 245.744166 865.808136 246.513817 866.352812 247.482183 866.636 248.657 866.636 249.717009 866.636 250.526986 866.406799 251.102833 865.988552 251.745063 865.52209 252.069 864.884211 252.069 864.072 252.069 863.546128 251.930533 863.130417 251.683676 862.81303 251.460809 862.526486 250.992081 862.22325 250.232662 861.952949 249.594428 861.72578 248.615619 861.438527 247.296946 861.092647 245.889734 860.72015 244.771147 860.321642 243.94324 859.892165 243.185293 859.49898 242.631628 859.039938 242.299086 858.498368 241.969989 857.962412 241.813 857.312051 241.813 856.552 241.813 855.586125 242.061929 854.742579 242.569333 854.024555 243.083555 853.296883 243.804232 852.74052 244.725083 852.347947 245.682976 851.939582 246.812981 851.74 248.113 851.74zM415.649 851.74C417.494139 851.74 419.059506 852.19617 420.339386 853.124711 421.475281 853.948791 422.254529 855.044371 422.680966 856.408829L422.680966 856.408829 419.754691 857.201362C419.348102 856.267427 418.871703 855.681707 418.268013 855.231261 417.487131 854.648603 416.598412 854.356 415.601 854.356 414.4764 854.356 413.554303 854.632995 412.826324 855.164062 412.098898 855.694725 411.558491 856.422738 411.212343 857.353756 410.883978 858.236946 410.717 859.238662 410.717 860.36 410.717 862.127315 411.126166 863.549763 411.916448 864.637833 412.743225 865.776149 413.964461 866.364 415.601 866.364 416.761114 866.364 417.667761 866.081284 418.335623 865.551808 418.89852 865.105547 419.348404 864.494241 419.675708 863.710706L419.675708 863.710706 422.633023 864.371894C422.042824 865.884553 421.262997 866.909044 420.208082 867.655924 418.95343 868.544217 417.415798 868.98 415.601 868.98 413.925515 868.98 412.492917 868.613362 411.307929 867.865213 410.128608 867.120641 409.227518 866.10306 408.602969 864.813992 407.966976 863.501302 407.647163 862.015075 407.636991 860.363012 407.647153 858.676164 407.976179 857.178591 408.631865 855.872302 409.276857 854.587319 410.193587 853.576498 411.383746 852.841399 412.579424 852.102892 414.002483 851.74 415.649 851.74zM396.625 851.74C398.085718 851.74 399.372578 851.974507 400.483787 852.451464 401.539161 852.904455 402.322147 853.646683 402.835361 854.682729 403.115413 855.233176 403.285567 855.795435 403.343523 856.370166 403.393483 856.865606 403.423332 857.396024 403.433274 857.961407L403.437 858.392 403.437 868.5 401.061 868.5 401.061 865.04328C400.137802 866.58738 399.220791 867.572475 398.149039 868.171556 397.174162 868.716488 395.955038 868.98 394.497 868.98 393.345319 868.98 392.368092 868.768372 391.569752 868.329778 390.793215 867.903162 390.20327 867.337415 389.805102 866.627429 389.403948 865.912117 389.205 865.124016 389.205 864.264 389.205 863.50348 389.329007 862.817759 389.582648 862.208045 389.829589 861.614437 390.210457 861.102378 390.723177 860.670364 391.257047 860.220529 391.951134 859.856291 392.794715 859.571785 393.471441 859.353151 394.265405 859.155808 395.17636 858.978822 395.916804 858.834964 396.708028 858.6996 397.550367 858.57263L398.191711 858.478975 399.021871 858.36038C399.301959 858.319986 399.585217 858.278757 399.871647 858.236694 400.594385 856.549474 400.245268 855.805212 399.737286 855.27731 399.122067 854.637964 398.100251 854.276 396.625 854.276 395.769329 854.276 394.942619 854.474173 394.145393 854.872786 393.508349 855.191308 393.011054 855.679785 392.661939 856.34591L392.551067 856.574542 389.976575 855.767088C390.46516 854.525439 391.139132 853.654055 392.065843 852.970348 393.192488 852.139134 394.71645 851.74 396.625 851.74zM399.98015 860.365217C399.329651 860.468762 398.743868 860.563958 398.222801 860.650803 397.383664 860.790659 396.662877 860.922502 396.06042 861.046221 395.4426 861.173095 394.896593 861.314113 394.408832 861.473129 393.914752 861.649586 393.498156 861.857206 393.157134 862.092394 392.783192 862.350285 392.499144 862.649125 392.299527 862.983968 392.090822 863.334053 391.981 863.743648 391.981 864.216 391.981 864.747232 392.11769 865.213768 392.382878 865.618178 392.643834 866.016137 393.021761 866.33755 393.525235 866.572941 393.992816 866.79155 394.571516 866.908 395.265 866.908 396.228124 866.908 397.048182 866.731426 397.728607 866.391214 398.416602 866.047216 398.962452 865.623174 399.371363 865.12537 399.780238 864.627609 400.05241 864.156677 400.198193 863.717804 400.414278 863.188301 400.543041 862.580451 400.583183 861.612055 400.594463 861.315848 400.599287 861.046928 399.98015 860.365217zM221.265 851.74C222.725718 851.74 224.012578 851.974507 225.123787 852.451464 226.179161 852.904455 226.962147 853.646683 227.475361 854.682729 227.755413 855.233176 227.925567 855.795435 227.983523 856.370166 228.033483 856.865606 228.063332 857.396024 228.073274 857.961407L228.077 858.392 228.077 868.5 225.701 868.5 225.701 865.04328C224.777802 866.58738 223.860791 867.572475 222.789039 868.171556 221.814162 868.716488 220.595038 868.98 219.137 868.98 217.985319 868.98 217.008092 868.768372 216.209752 868.329778 215.433215 867.903162 214.84327 867.337415 214.445102 866.627429 214.043948 865.912117 213.845 865.124016 213.845 864.264 213.845 863.50348 213.969007 862.817759 214.222648 862.208045 214.469589 861.614437 214.850457 861.102378 215.363177 860.670364 215.897047 860.220529 216.591134 859.856291 217.434715 859.571785 218.111441 859.353151 218.905405 859.155808 219.81636 858.978822 220.556804 858.834964 221.348028 858.6996 222.190367 858.57263L222.831711 858.478975 223.661871 858.36038C223.941959 858.319986 224.225217 858.278757 224.511647 858.236694 225.234385 856.549474 224.885268 855.805212 224.377286 855.27731 223.762067 854.637964 222.740251 854.276 221.265 854.276 220.409329 854.276 219.582619 854.474173 218.785393 854.872786 218.148349 855.191308 217.651054 855.679785 217.301939 856.34591L217.191067 856.574542 214.616575 855.767088C215.10516 854.525439 215.779132 853.654055 216.705843 852.970348 217.832488 852.139134 219.35645 851.74 221.265 851.74zM224.62015 860.365217C223.969651 860.468762 223.383868 860.563958 222.862801 860.650803 222.023664 860.790659 221.302877 860.922502 220.70042 861.046221 220.0826 861.173095 219.536593 861.314113 219.048832 861.473129 218.554752 861.649586 218.138156 861.857206 217.797134 862.092394 217.423192 862.350285 217.139144 862.649125 216.939527 862.983968 216.730822 863.334053 216.621 863.743648 216.621 864.216 216.621 864.747232 216.75769 865.213768 217.022878 865.618178 217.283834 866.016137 217.661761 866.33755 218.165235 866.572941 218.632816 866.79155 219.211516 866.908 219.905 866.908 220.868124 866.908 221.688182 866.731426 222.368607 866.391214 223.056602 866.047216 223.602452 865.623174 224.011363 865.12537 224.420238 864.627609 224.69241 864.156677 224.838193 863.717804 225.054278 863.188301 225.183041 862.580451 225.223183 861.612055 225.234463 861.315848 225.239287 861.046928 224.62015 860.365217zM236.413 852.22L236.413 868.5 233.557 868.5 233.557 852.22 236.413 852.22zM203.345 851.724C204.531125 851.724 205.512762 851.91297 206.284842 852.308909 207.042961 852.697688 207.648055 853.190911 208.095451 853.793923 208.551782 854.408978 208.889734 855.063422 209.108003 855.757913 209.33181 856.470025 209.477553 857.143858 209.543682 857.779721 209.610807 858.425156 209.645 858.949232 209.645 859.352L209.645 859.352 209.645 868.5 206.741 868.5 206.741 860.674803C206.724209 859.864434 206.687218 859.359507 206.625843 858.815905 206.545453 858.103876 206.358924 857.417658 206.06607 856.7573 205.757953 856.062527 205.298676 855.491724 204.688509 855.044671 204.076957 854.596603 203.254708 854.356 202.209 854.356 201.665093 854.356 201.127012 854.444283 200.594886 854.621658 200.043557 854.805435 199.542909 855.118984 199.095447 855.566447 198.659363 856.00253 198.303789 856.596516 198.040551 857.356317 197.791111 858.076292 197.661 858.996795 197.661 860.12L197.661 860.12 197.661 868.5 194.757 868.5 194.757 852.22 197.197 852.22 197.197 855.107285C198.037847 853.902043 198.698304 853.233605 199.518354 852.709246 200.554738 852.046559 201.832193 851.724 203.345 851.724zM183.329 851.724C184.515125 851.724 185.496762 851.91297 186.268842 852.308909 187.026961 852.697688 187.632055 853.190911 188.079451 853.793923 188.535782 854.408978 188.873734 855.063422 189.092003 855.757913 189.31581 856.470025 189.461553 857.143858 189.527682 857.779721 189.594807 858.425156 189.629 858.949232 189.629 859.352L189.629 859.352 189.629 868.5 186.725 868.5 186.725 860.674803C186.708209 859.864434 186.671218 859.359507 186.609843 858.815905 186.529453 858.103876 186.342924 857.417658 186.05007 856.7573 185.741953 856.062527 185.282676 855.491724 184.672509 855.044671 184.060957 854.596603 183.238708 854.356 182.193 854.356 181.649093 854.356 181.111012 854.444283 180.578886 854.621658 180.027557 854.805435 179.526909 855.118984 179.079447 855.566447 178.643363 856.00253 178.287789 856.596516 178.024551 857.356317 177.775111 858.076292 177.645 858.996795 177.645 860.12L177.645 860.12 177.645 868.5 174.741 868.5 174.741 852.22 177.181 852.22 177.181 855.107285C178.021847 853.902043 178.682304 853.233605 179.502354 852.709246 180.538738 852.046559 181.816193 851.724 183.329 851.724zM373.413 846.46L386.285 846.46 386.285 849.316 376.269 849.316 376.269 856.06 384.365 856.06 384.365 858.9 376.269 858.9 376.269 868.5 373.413 868.5 373.413 846.46zM298.477 852.22L298.477 868.5 295.621 868.5 295.621 852.22 298.477 852.22zM298.477 846.06L298.477 848.596 295.621 848.596 295.621 846.06 298.477 846.06zM236.413 846.06L236.413 848.596 233.557 848.596 233.557 846.06 236.413 846.06z" opacity=".2"/>
    <rect width="599" height="599" x="129.125" y="165.5" stroke="#245633" opacity=".2"/>
    <g transform="translate(132.5 1053)">
      <circle cx="28.125" cy="4" r="4" fill="#245633"/>
      <circle cx="212" cy="4" r="4" fill="#245633"/>
      <circle cx="296.125" cy="4" r="4" fill="#245633"/>
      <polygon fill="#245633" fill-rule="nonzero" points="28.625 5 28.625 67 27.625 67 27.625 5"/>
      <g fill-rule="nonzero" transform="translate(0 72)">
        <path fill="#245633" d="M1.8 9L1.8 5.544C1.8 5.176 1.842 4.848 1.926 4.56 2.01 4.272 2.133 4.027 2.295 3.825 2.457 3.623 2.657 3.468 2.895 3.36 3.133 3.252 3.408 3.198 3.72 3.198 4.06 3.198 4.349 3.26 4.587 3.384 4.825 3.508 5.019 3.683 5.169 3.909 5.319 4.135 5.428 4.399 5.496 4.701 5.564 5.003 5.598 5.334 5.598 5.694L5.598 5.694 5.598 9 6.486 9 6.486 5.436C6.486 5.144 6.458 4.851 6.402 4.557 6.346 4.263 6.256 3.985 6.132 3.723 6.008 3.461 5.845 3.228 5.643 3.024 5.441 2.82 5.195 2.658 4.905 2.538 4.615 2.418 4.276 2.358 3.888 2.358 3.36 2.358 2.892 2.474 2.484 2.706 2.19257143 2.87171429 1.94604082 3.09355102 1.74440816 3.3715102L1.709 3.424 1.71.36.912.36.912 9 1.8 9zM13.734 6.006C13.754 5.246 13.648 4.592 13.416 4.044 13.184 3.496 12.842 3.075 12.39 2.781 11.938 2.487 11.392 2.34 10.752 2.34 10.128 2.34 9.587 2.48 9.129 2.76 8.671 3.04 8.316 3.438 8.064 3.954 7.812 4.47 7.686 5.082 7.686 5.79 7.686 6.474 7.814 7.07 8.07 7.578 8.326 8.086 8.685 8.48 9.147 8.76 9.609 9.04 10.156 9.18 10.788 9.18 11.416 9.18 11.979 9.025 12.477 8.715 12.975 8.405 13.352 7.968 13.608 7.404L13.608 7.404 12.786 7.086C12.586 7.49 12.313 7.799 11.967 8.013 11.621 8.227 11.216 8.334 10.752 8.334 10.072 8.334 9.547 8.109 9.177 7.659 8.881 7.299 8.7034 6.82188 8.6442 6.22764L8.627 6.006 13.26 6.006 13.734 6.006zM12.809 5.268L8.646 5.268 8.67195 5.05944C8.73855 4.62696 8.87175 4.2636 9.07155 3.96936L9.177 3.828C9.547 3.376 10.08 3.15 10.776 3.15 11.44 3.15 11.945 3.364 12.291 3.792 12.5678 4.1344 12.739 4.60864 12.8046 5.21472L12.809 5.268zM16.914 9.18C17.562 9.18 18.118 9.034 18.582 8.742 18.872 8.5595 19.1143438 8.3254375 19.3090313 8.0398125L19.38 7.927 19.38 9 20.166 9 20.166 4.974C20.166 4.734 20.154 4.498 20.13 4.266 20.106 4.034 20.054 3.824 19.974 3.636 19.802 3.216 19.509 2.895 19.095 2.673 18.681 2.451 18.178 2.34 17.586 2.34 16.87 2.34 16.288 2.5 15.84 2.82 15.392 3.14 15.094 3.59 14.946 4.17L14.946 4.17 15.804 4.422C15.928 3.99 16.143 3.674 16.449 3.474 16.755 3.274 17.13 3.174 17.574 3.174 18.218 3.174 18.67 3.328 18.93 3.636 19.19 3.944 19.314 4.418 19.302 5.058L19.301 4.912 19.14675 4.93275C19.063 4.944 18.9763125 4.9553125 18.8866875 4.9666875L18.609 5.001C18.227 5.047 17.837 5.101 17.439 5.163 17.041 5.225 16.678 5.296 16.35 5.376 16.026 5.46 15.741 5.582 15.495 5.742 15.249 5.902 15.055 6.107 14.913 6.357 14.771 6.607 14.7 6.908 14.7 7.26 14.7 7.604 14.782 7.922 14.946 8.214 15.11 8.506 15.357 8.74 15.687 8.916 16.017 9.092 16.426 9.18 16.914 9.18zM17.016 8.418C16.668 8.418 16.389 8.36 16.179 8.244 15.969 8.128 15.817 7.982 15.723 7.806 15.629 7.63 15.582 7.448 15.582 7.26 15.582 7.028 15.637 6.834 15.747 6.678 15.857 6.522 15.998 6.397 16.17 6.303 16.342 6.209 16.52 6.136 16.704 6.084 16.976 6.012 17.281 5.95 17.619 5.898 17.957 5.846 18.301 5.8 18.651 5.76 18.7676667 5.74666667 18.8815556 5.73333333 18.9926667 5.72L19.288 5.684 19.28784 5.75724C19.28736 5.79716 19.2868 5.8396 19.28616 5.88456L19.284 6.027C19.28 6.277 19.254 6.506 19.206 6.714 19.15 7.038 19.028 7.329 18.84 7.587 18.652 7.845 18.404 8.048 18.096 8.196 17.788 8.344 17.428 8.418 17.016 8.418zM22.608 9L22.608 5.766C22.608 5.51 22.626 5.251 22.662 4.989 22.698 4.727 22.77 4.479 22.878 4.245 22.986 4.011 23.148 3.81 23.364 3.642 23.6 3.45 23.858 3.338 24.138 3.306 24.418 3.274 24.676 3.288 24.912 3.348L24.912 3.348 24.912 2.52C24.724 2.472 24.516 2.455 24.288 2.469 24.06 2.483 23.834 2.529 23.61 2.607 23.386 2.685 23.19 2.798 23.022 2.946 22.886 3.05 22.76 3.183 22.644 3.345 22.6053333 3.399 22.5691111 3.45466667 22.5353333 3.512L22.518 3.544 22.518 2.52 21.726 2.52 21.726 9 22.608 9zM28.503 9.09C28.857 9.106 29.216 9.076 29.58 9L29.58 9 29.58 8.226C29.116 8.302 28.727 8.314 28.413 8.262 28.099 8.21 27.87 8.05 27.726 7.782 27.65 7.642 27.609 7.481 27.603 7.299 27.597 7.117 27.594 6.89 27.594 6.618L27.594 3.276 29.58 3.276 29.58 2.52 27.594 2.52 27.594.72 26.718.72 26.718 2.52 25.332 2.52 25.332 3.276 26.718 3.276 26.7189375 6.8844375C26.7201875 7.0336875 26.7226875 7.1741875 26.7264375 7.3059375L26.733 7.497C26.743 7.743 26.806 7.986 26.922 8.226 27.066 8.514 27.277 8.726 27.555 8.862 27.833 8.998 28.149 9.074 28.503 9.09zM34.338 5.598L34.338 4.842 30.738 4.842 30.738 5.598 34.338 5.598zM38.349 9.09C38.703 9.106 39.062 9.076 39.426 9L39.426 9 39.426 8.226C38.962 8.302 38.573 8.314 38.259 8.262 37.945 8.21 37.716 8.05 37.572 7.782 37.496 7.642 37.455 7.481 37.449 7.299 37.443 7.117 37.44 6.89 37.44 6.618L37.44 3.276 39.426 3.276 39.426 2.52 37.44 2.52 37.44.72 36.564.72 36.564 2.52 35.178 2.52 35.178 3.276 36.564 3.276 36.5649375 6.8844375C36.5661875 7.0336875 36.5686875 7.1741875 36.5724375 7.3059375L36.579 7.497C36.589 7.743 36.652 7.986 36.768 8.226 36.912 8.514 37.123 8.726 37.401 8.862 37.679 8.998 37.995 9.074 38.349 9.09zM41.586 9L41.586 5.544C41.586 5.176 41.628 4.848 41.712 4.56 41.796 4.272 41.919 4.027 42.081 3.825 42.243 3.623 42.443 3.468 42.681 3.36 42.919 3.252 43.194 3.198 43.506 3.198 43.846 3.198 44.135 3.26 44.373 3.384 44.611 3.508 44.805 3.683 44.955 3.909 45.105 4.135 45.214 4.399 45.282 4.701 45.35 5.003 45.384 5.334 45.384 5.694L45.384 5.694 45.384 9 46.272 9 46.272 5.436C46.272 5.144 46.244 4.851 46.188 4.557 46.132 4.263 46.042 3.985 45.918 3.723 45.794 3.461 45.631 3.228 45.429 3.024 45.227 2.82 44.981 2.658 44.691 2.538 44.401 2.418 44.062 2.358 43.674 2.358 43.146 2.358 42.678 2.474 42.27 2.706 41.9785714 2.87171429 41.7320408 3.09355102 41.5304082 3.3715102L41.495 3.424 41.496.36 40.698.36 40.698 9 41.586 9zM48.834 1.29L48.834.3 47.952.3 47.952 1.29 48.834 1.29zM48.834 9L48.834 2.52 47.952 2.52 47.952 9 48.834 9zM51.516 9L51.516 5.544C51.516 5.176 51.558 4.848 51.642 4.56 51.726 4.272 51.849 4.027 52.011 3.825 52.173 3.623 52.373 3.468 52.611 3.36 52.849 3.252 53.124 3.198 53.436 3.198 53.776 3.198 54.065 3.26 54.303 3.384 54.541 3.508 54.735 3.683 54.885 3.909 55.035 4.135 55.144 4.399 55.212 4.701 55.28 5.003 55.314 5.334 55.314 5.694L55.314 5.694 55.314 9 56.202 9 56.202 5.436C56.202 5.144 56.174 4.851 56.118 4.557 56.062 4.263 55.972 3.985 55.848 3.723 55.724 3.461 55.561 3.228 55.359 3.024 55.157 2.82 54.911 2.658 54.621 2.538 54.331 2.418 53.992 2.358 53.604 2.358 53.076 2.358 52.608 2.474 52.2 2.706 51.9085714 2.87171429 51.6620408 3.09355102 51.4604082 3.3715102L51.425 3.424 51.426 2.52 50.628 2.52 50.628 9 51.516 9zM150.4 9.174C151.196 9.174 151.821 8.999 152.275 8.649 152.729 8.299 152.956 7.818 152.956 7.206 152.956 6.87 152.884 6.588 152.74 6.36 152.596 6.132 152.354 5.934 152.014 5.766 151.674 5.598 151.206 5.438 150.61 5.286 150.102 5.158 149.711 5.04 149.437 4.932 149.163 4.824 148.974 4.709 148.87 4.587 148.766 4.465 148.714 4.318 148.714 4.146 148.714 3.838 148.858 3.591 149.146 3.405 149.434 3.219 149.808 3.132 150.268 3.144 150.756 3.152 151.159 3.267 151.477 3.489 151.795 3.711 151.984 4.012 152.044 4.392L152.044 4.392 152.944 4.23C152.9 3.854 152.76 3.524 152.524 3.24 152.288 2.956 151.977 2.735 151.591 2.577 151.205 2.419 150.768 2.34 150.28 2.34 149.792 2.34 149.364 2.417 148.996 2.571 148.628 2.725 148.34 2.941 148.132 3.219 147.924 3.497 147.82 3.82 147.82 4.188 147.82 4.492 147.89 4.749 148.03 4.959 148.17 5.169 148.406 5.354 148.738 5.514 149.07 5.674 149.53 5.834 150.118 5.994 150.666 6.142 151.078 6.27 151.354 6.378 151.63 6.486 151.813 6.603 151.903 6.729 151.993 6.855 152.038 7.018 152.038 7.218 152.038 7.574 151.896 7.855 151.612 8.061 151.328 8.267 150.94 8.37 150.448 8.37 149.944 8.37 149.521 8.261 149.179 8.043 148.837 7.825 148.618 7.532 148.522 7.164L148.522 7.164 147.622 7.314C147.734 7.898 148.035 8.354 148.525 8.682 149.015 9.01 149.64 9.174 150.4 9.174zM155.17 9L155.17 5.88 158.35 9 159.634 9 156.202 5.76 159.238 2.52 158.062 2.52 155.17 5.64 155.17.36 154.282.36 154.276 9 155.17 9zM161.236 1.29L161.236.3 160.354.3 160.354 1.29 161.236 1.29zM161.236 9L161.236 2.52 160.354 2.52 160.354 9 161.236 9zM163.822 2.52L163.03 2.52 163.03 11.88 163.918 11.88 163.917 8.225 163.959388 8.27920408C164.052612 8.39193878 164.154 8.49585714 164.263551 8.59095918L164.434 8.727C164.846 9.029 165.35 9.18 165.946 9.18 166.55 9.18 167.066 9.029 167.494 8.727 167.922 8.425 168.25 8.016 168.478 7.5 168.706 6.984 168.82 6.402 168.82 5.754 168.82 5.11 168.707 4.53 168.481 4.014 168.255 3.498 167.93 3.09 167.506 2.79 167.082 2.49 166.574 2.34 165.982 2.34 165.374 2.34 164.862 2.488 164.446 2.784 164.208286 2.95314286 164.003551 3.15787755 163.831796 3.39820408L163.821 3.414 163.822 2.52zM165.856 8.358C165.396 8.358 165.016 8.246 164.716 8.022 164.416 7.798 164.192 7.489 164.044 7.095 163.896 6.701 163.822 6.254 163.822 5.754 163.822 5.246 163.896 4.797 164.044 4.407 164.192 4.017 164.415 3.712 164.713 3.492 165.011 3.272 165.386 3.162 165.838 3.162 166.302 3.162 166.685 3.276 166.987 3.504 167.289 3.732 167.514 4.042 167.662 4.434 167.81 4.826 167.884 5.266 167.884 5.754 167.884 6.246 167.809 6.689 167.659 7.083 167.509 7.477 167.284 7.788 166.984 8.016 166.684 8.244 166.308 8.358 165.856 8.358zM173.62 5.598L173.62 4.842 170.02 4.842 170.02 5.598 173.62 5.598zM178.09 9.18C178.694 9.18 179.21 9.029 179.638 8.727 180.066 8.425 180.394 8.016 180.622 7.5 180.85 6.984 180.964 6.402 180.964 5.754 180.964 5.11 180.851 4.53 180.625 4.014 180.399 3.498 180.074 3.09 179.65 2.79 179.226 2.49 178.718 2.34 178.126 2.34 177.518 2.34 177.006 2.488 176.59 2.784 176.411714 2.91085714 176.25198 3.05773469 176.110796 3.22463265L176.061 3.288 176.062.36 175.174.36 175.174 9 175.966 9 175.965 8.098C176.095707 8.28398639 176.243224 8.44830612 176.407551 8.59095918L176.578 8.727C176.99 9.029 177.494 9.18 178.09 9.18zM178 8.358C177.54 8.358 177.16 8.246 176.86 8.022 176.56 7.798 176.336 7.489 176.188 7.095 176.04 6.701 175.966 6.254 175.966 5.754 175.966 5.246 176.04 4.797 176.188 4.407 176.336 4.017 176.559 3.712 176.857 3.492 177.155 3.272 177.53 3.162 177.982 3.162 178.446 3.162 178.829 3.276 179.131 3.504 179.433 3.732 179.658 4.042 179.806 4.434 179.954 4.826 180.028 5.266 180.028 5.754 180.028 6.246 179.953 6.689 179.803 7.083 179.653 7.477 179.428 7.788 179.128 8.016 178.828 8.244 178.452 8.358 178 8.358zM184.138 9.18C184.786 9.18 185.342 9.034 185.806 8.742 186.096 8.5595 186.338344 8.3254375 186.533031 8.0398125L186.604 7.927 186.604 9 187.39 9 187.39 4.974C187.39 4.734 187.378 4.498 187.354 4.266 187.33 4.034 187.278 3.824 187.198 3.636 187.026 3.216 186.733 2.895 186.319 2.673 185.905 2.451 185.402 2.34 184.81 2.34 184.094 2.34 183.512 2.5 183.064 2.82 182.616 3.14 182.318 3.59 182.17 4.17L182.17 4.17 183.028 4.422C183.152 3.99 183.367 3.674 183.673 3.474 183.979 3.274 184.354 3.174 184.798 3.174 185.442 3.174 185.894 3.328 186.154 3.636 186.414 3.944 186.538 4.418 186.526 5.058L186.524 4.912 186.37075 4.93275C186.287 4.944 186.200312 4.9553125 186.110687 4.9666875L185.833 5.001C185.451 5.047 185.061 5.101 184.663 5.163 184.265 5.225 183.902 5.296 183.574 5.376 183.25 5.46 182.965 5.582 182.719 5.742 182.473 5.902 182.279 6.107 182.137 6.357 181.995 6.607 181.924 6.908 181.924 7.26 181.924 7.604 182.006 7.922 182.17 8.214 182.334 8.506 182.581 8.74 182.911 8.916 183.241 9.092 183.65 9.18 184.138 9.18zM184.24 8.418C183.892 8.418 183.613 8.36 183.403 8.244 183.193 8.128 183.041 7.982 182.947 7.806 182.853 7.63 182.806 7.448 182.806 7.26 182.806 7.028 182.861 6.834 182.971 6.678 183.081 6.522 183.222 6.397 183.394 6.303 183.566 6.209 183.744 6.136 183.928 6.084 184.2 6.012 184.505 5.95 184.843 5.898 185.181 5.846 185.525 5.8 185.875 5.76 185.991667 5.74666667 186.105556 5.73333333 186.216667 5.72L186.512 5.684 186.51184 5.75724C186.51136 5.79716 186.5108 5.8396 186.51016 5.88456L186.508 6.027C186.504 6.277 186.478 6.506 186.43 6.714 186.374 7.038 186.252 7.329 186.064 7.587 185.876 7.845 185.628 8.048 185.32 8.196 185.012 8.344 184.652 8.418 184.24 8.418zM191.638 9.18C192.282 9.18 192.836 9.029 193.3 8.727 193.764 8.425 194.116 7.986 194.356 7.41L194.356 7.41 193.468 7.146C193.308 7.534 193.073 7.829 192.763 8.031 192.453 8.233 192.078 8.334 191.638 8.334 190.942 8.334 190.418 8.099 190.066 7.629 189.714 7.159 189.534 6.536 189.526 5.76 189.53 5.256 189.608 4.81 189.76 4.422 189.912 4.034 190.144 3.731 190.456 3.513 190.768 3.295 191.162 3.186 191.638 3.186 192.062 3.186 192.439 3.293 192.769 3.507 193.099 3.721 193.34 4.022 193.492 4.41L193.492 4.41 194.356 4.134C194.176 3.578 193.843 3.14 193.357 2.82 192.871 2.5 192.3 2.34 191.644 2.34 191 2.34 190.452 2.483 190 2.769 189.548 3.055 189.202 3.455 188.962 3.969 188.722 4.483 188.598 5.08 188.59 5.76 188.598 6.428 188.719 7.019 188.953 7.533 189.187 8.047 189.53 8.45 189.982 8.742 190.434 9.034 190.986 9.18 191.638 9.18zM196.48 9L196.48 5.88 199.66 9 200.944 9 197.512 5.76 200.548 2.52 199.372 2.52 196.48 5.64 196.48.36 195.592.36 195.586 9 196.48 9zM205.024 5.598L205.024 4.842 201.424 4.842 201.424 5.598 205.024 5.598zM209.035 9.09C209.389 9.106 209.748 9.076 210.112 9L210.112 9 210.112 8.226C209.648 8.302 209.259 8.314 208.945 8.262 208.631 8.21 208.402 8.05 208.258 7.782 208.182 7.642 208.141 7.481 208.135 7.299 208.129 7.117 208.126 6.89 208.126 6.618L208.126 3.276 210.112 3.276 210.112 2.52 208.126 2.52 208.126.72 207.25.72 207.25 2.52 205.864 2.52 205.864 3.276 207.25 3.276 207.250937 6.8844375C207.252187 7.0336875 207.254687 7.1741875 207.258437 7.3059375L207.265 7.497C207.275 7.743 207.338 7.986 207.454 8.226 207.598 8.514 207.809 8.726 208.087 8.862 208.365 8.998 208.681 9.074 209.035 9.09zM212.272 9L212.272 5.544C212.272 5.176 212.314 4.848 212.398 4.56 212.482 4.272 212.605 4.027 212.767 3.825 212.929 3.623 213.129 3.468 213.367 3.36 213.605 3.252 213.88 3.198 214.192 3.198 214.532 3.198 214.821 3.26 215.059 3.384 215.297 3.508 215.491 3.683 215.641 3.909 215.791 4.135 215.9 4.399 215.968 4.701 216.036 5.003 216.07 5.334 216.07 5.694L216.07 5.694 216.07 9 216.958 9 216.958 5.436C216.958 5.144 216.93 4.851 216.874 4.557 216.818 4.263 216.728 3.985 216.604 3.723 216.48 3.461 216.317 3.228 216.115 3.024 215.913 2.82 215.667 2.658 215.377 2.538 215.087 2.418 214.748 2.358 214.36 2.358 213.832 2.358 213.364 2.474 212.956 2.706 212.664571 2.87171429 212.418041 3.09355102 212.216408 3.3715102L212.182 3.423 212.182.36 211.384.36 211.384 9 212.272 9zM219.52 1.29L219.52.3 218.638.3 218.638 1.29 219.52 1.29zM219.52 9L219.52 2.52 218.638 2.52 218.638 9 219.52 9zM222.202 9L222.202 5.544C222.202 5.176 222.244 4.848 222.328 4.56 222.412 4.272 222.535 4.027 222.697 3.825 222.859 3.623 223.059 3.468 223.297 3.36 223.535 3.252 223.81 3.198 224.122 3.198 224.462 3.198 224.751 3.26 224.989 3.384 225.227 3.508 225.421 3.683 225.571 3.909 225.721 4.135 225.83 4.399 225.898 4.701 225.966 5.003 226 5.334 226 5.694L226 5.694 226 9 226.888 9 226.888 5.436C226.888 5.144 226.86 4.851 226.804 4.557 226.748 4.263 226.658 3.985 226.534 3.723 226.41 3.461 226.247 3.228 226.045 3.024 225.843 2.82 225.597 2.658 225.307 2.538 225.017 2.418 224.678 2.358 224.29 2.358 223.762 2.358 223.294 2.474 222.886 2.706 222.594571 2.87171429 222.348041 3.09355102 222.146408 3.3715102L222.112 3.423 222.112 2.52 221.314 2.52 221.314 9 222.202 9zM368.587 9.174C369.383 9.174 370.008 8.999 370.462 8.649 370.916 8.299 371.143 7.818 371.143 7.206 371.143 6.87 371.071 6.588 370.927 6.36 370.783 6.132 370.541 5.934 370.201 5.766 369.861 5.598 369.393 5.438 368.797 5.286 368.289 5.158 367.898 5.04 367.624 4.932 367.35 4.824 367.161 4.709 367.057 4.587 366.953 4.465 366.901 4.318 366.901 4.146 366.901 3.838 367.045 3.591 367.333 3.405 367.621 3.219 367.995 3.132 368.455 3.144 368.943 3.152 369.346 3.267 369.664 3.489 369.982 3.711 370.171 4.012 370.231 4.392L370.231 4.392 371.131 4.23C371.087 3.854 370.947 3.524 370.711 3.24 370.475 2.956 370.164 2.735 369.778 2.577 369.392 2.419 368.955 2.34 368.467 2.34 367.979 2.34 367.551 2.417 367.183 2.571 366.815 2.725 366.527 2.941 366.319 3.219 366.111 3.497 366.007 3.82 366.007 4.188 366.007 4.492 366.077 4.749 366.217 4.959 366.357 5.169 366.593 5.354 366.925 5.514 367.257 5.674 367.717 5.834 368.305 5.994 368.853 6.142 369.265 6.27 369.541 6.378 369.817 6.486 370 6.603 370.09 6.729 370.18 6.855 370.225 7.018 370.225 7.218 370.225 7.574 370.083 7.855 369.799 8.061 369.515 8.267 369.127 8.37 368.635 8.37 368.131 8.37 367.708 8.261 367.366 8.043 367.024 7.825 366.805 7.532 366.709 7.164L366.709 7.164 365.809 7.314C365.921 7.898 366.222 8.354 366.712 8.682 367.202 9.01 367.827 9.174 368.587 9.174zM373.357 9L373.357 5.88 376.537 9 377.821 9 374.389 5.76 377.425 2.52 376.249 2.52 373.357 5.64 373.357.36 372.469.36 372.463 9 373.357 9zM379.423 1.29L379.423.3 378.541.3 378.541 1.29 379.423 1.29zM379.423 9L379.423 2.52 378.541 2.52 378.541 9 379.423 9zM382.105 11.88L382.105 8.226 382.146388 8.27920408C382.239612 8.39193878 382.341 8.49585714 382.450551 8.59095918L382.621 8.727C383.033 9.029 383.537 9.18 384.133 9.18 384.737 9.18 385.253 9.029 385.681 8.727 386.109 8.425 386.437 8.016 386.665 7.5 386.893 6.984 387.007 6.402 387.007 5.754 387.007 5.11 386.894 4.53 386.668 4.014 386.442 3.498 386.117 3.09 385.693 2.79 385.269 2.49 384.761 2.34 384.169 2.34 383.561 2.34 383.049 2.488 382.633 2.784 382.395286 2.95314286 382.190551 3.15787755 382.018796 3.39820408L382.009 3.413 382.009 2.52 381.217 2.52 381.217 11.88 382.105 11.88zM384.043 8.358C383.583 8.358 383.203 8.246 382.903 8.022 382.603 7.798 382.379 7.489 382.231 7.095 382.083 6.701 382.009 6.254 382.009 5.754 382.009 5.246 382.083 4.797 382.231 4.407 382.379 4.017 382.602 3.712 382.9 3.492 383.198 3.272 383.573 3.162 384.025 3.162 384.489 3.162 384.872 3.276 385.174 3.504 385.476 3.732 385.701 4.042 385.849 4.434 385.997 4.826 386.071 5.266 386.071 5.754 386.071 6.246 385.996 6.689 385.846 7.083 385.696 7.477 385.471 7.788 385.171 8.016 384.871 8.244 384.495 8.358 384.043 8.358zM391.807 5.598L391.807 4.842 388.207 4.842 388.207 5.598 391.807 5.598zM394.891 9L394.891 3.276 396.661 3.276 396.661 2.52 394.891 2.52 394.891 1.944C394.891 1.64228571 394.95198 1.40963265 395.073939 1.24604082L395.14 1.17C395.306 1.006 395.557.924 395.893.924L395.893.924 396.661.924 396.661.18 395.833.18C395.669.18 395.502.19 395.332.21 395.162.23 394.999.273 394.843.339 394.687.405 394.543.51 394.411.654 394.291.782 394.203.921 394.147 1.071 394.091 1.221 394.054 1.378 394.036 1.542 394.018 1.706 394.009 1.872 394.009 2.04L394.009 2.04 394.008 2.52 392.887 2.52 392.887 3.276 394.008 3.276 394.009 9 394.891 9zM400.327 9.18C400.967 9.18 401.517 9.036 401.977 8.748 402.437 8.46 402.789 8.059 403.033 7.545 403.277 7.031 403.399 6.434 403.399 5.754 403.399 5.086 403.278 4.495 403.036 3.981 402.794 3.467 402.444 3.065 401.986 2.775 401.528 2.485 400.975 2.34 400.327 2.34 399.695 2.34 399.15 2.483 398.692 2.769 398.234 3.055 397.881 3.454 397.633 3.966 397.385 4.478 397.261 5.074 397.261 5.754 397.261 6.422 397.383 7.014 397.627 7.53 397.871 8.046 398.221 8.45 398.677 8.742 399.133 9.034 399.683 9.18 400.327 9.18zM400.327 8.334C399.627 8.334 399.097 8.099 398.737 7.629 398.377 7.159 398.197 6.534 398.197 5.754 398.197 5.25 398.274 4.805 398.428 4.419 398.582 4.033 398.816 3.731 399.13 3.513 399.444 3.295 399.843 3.186 400.327 3.186 401.043 3.186 401.578 3.418 401.932 3.882 402.286 4.346 402.463 4.97 402.463 5.754 402.463 6.518 402.287 7.139 401.935 7.617 401.583 8.095 401.047 8.334 400.327 8.334zM405.601 9L405.601 5.766C405.601 5.51 405.619 5.251 405.655 4.989 405.691 4.727 405.763 4.479 405.871 4.245 405.979 4.011 406.141 3.81 406.357 3.642 406.593 3.45 406.851 3.338 407.131 3.306 407.411 3.274 407.669 3.288 407.905 3.348L407.905 3.348 407.905 2.52C407.717 2.472 407.509 2.455 407.281 2.469 407.053 2.483 406.827 2.529 406.603 2.607 406.379 2.685 406.183 2.798 406.015 2.946 405.879 3.05 405.753 3.183 405.637 3.345 405.598333 3.399 405.562111 3.45466667 405.528333 3.512L405.51 3.546 405.511 2.52 404.719 2.52 404.719 9 405.601 9zM411.193 9L412.807 3.84 414.427 9 415.195 9 417.175 2.52 416.299 2.52 414.751 7.554 413.209 2.52 412.405 2.52 410.863 7.554 409.327 2.52 408.445 2.514 410.425 9 411.193 9zM420.109 9.18C420.757 9.18 421.313 9.034 421.777 8.742 422.067 8.5595 422.309344 8.3254375 422.504031 8.0398125L422.575 7.927 422.575 9 423.361 9 423.361 4.974C423.361 4.734 423.349 4.498 423.325 4.266 423.301 4.034 423.249 3.824 423.169 3.636 422.997 3.216 422.704 2.895 422.29 2.673 421.876 2.451 421.373 2.34 420.781 2.34 420.065 2.34 419.483 2.5 419.035 2.82 418.587 3.14 418.289 3.59 418.141 4.17L418.141 4.17 418.999 4.422C419.123 3.99 419.338 3.674 419.644 3.474 419.95 3.274 420.325 3.174 420.769 3.174 421.413 3.174 421.865 3.328 422.125 3.636 422.385 3.944 422.509 4.418 422.497 5.058L422.496 4.912 422.34175 4.93275C422.258 4.944 422.171312 4.9553125 422.081687 4.9666875L421.804 5.001C421.422 5.047 421.032 5.101 420.634 5.163 420.236 5.225 419.873 5.296 419.545 5.376 419.221 5.46 418.936 5.582 418.69 5.742 418.444 5.902 418.25 6.107 418.108 6.357 417.966 6.607 417.895 6.908 417.895 7.26 417.895 7.604 417.977 7.922 418.141 8.214 418.305 8.506 418.552 8.74 418.882 8.916 419.212 9.092 419.621 9.18 420.109 9.18zM420.211 8.418C419.863 8.418 419.584 8.36 419.374 8.244 419.164 8.128 419.012 7.982 418.918 7.806 418.824 7.63 418.777 7.448 418.777 7.26 418.777 7.028 418.832 6.834 418.942 6.678 419.052 6.522 419.193 6.397 419.365 6.303 419.537 6.209 419.715 6.136 419.899 6.084 420.171 6.012 420.476 5.95 420.814 5.898 421.152 5.846 421.496 5.8 421.846 5.76 421.962667 5.74666667 422.076556 5.73333333 422.187667 5.72L422.483 5.684 422.48284 5.75724C422.48236 5.79716 422.4818 5.8396 422.48116 5.88456L422.479 6.027C422.475 6.277 422.449 6.506 422.401 6.714 422.345 7.038 422.223 7.329 422.035 7.587 421.847 7.845 421.599 8.048 421.291 8.196 420.983 8.344 420.623 8.418 420.211 8.418zM425.803 9L425.803 5.766C425.803 5.51 425.821 5.251 425.857 4.989 425.893 4.727 425.965 4.479 426.073 4.245 426.181 4.011 426.343 3.81 426.559 3.642 426.795 3.45 427.053 3.338 427.333 3.306 427.613 3.274 427.871 3.288 428.107 3.348L428.107 3.348 428.107 2.52C427.919 2.472 427.711 2.455 427.483 2.469 427.255 2.483 427.029 2.529 426.805 2.607 426.581 2.685 426.385 2.798 426.217 2.946 426.081 3.05 425.955 3.183 425.839 3.345 425.800333 3.399 425.764111 3.45466667 425.730333 3.512L425.713 3.544 425.713 2.52 424.921 2.52 424.921 9 425.803 9zM431.761 9.18C432.357 9.18 432.861 9.029 433.273 8.727 433.508429 8.55442857 433.711204 8.34659184 433.881327 8.1034898L433.885 8.098 433.885 9 434.677 9 434.677.36 433.789.36 433.789 3.288 433.740204 3.22463265C433.646082 3.11336735 433.543714 3.011 433.433102 2.91753061L433.261 2.784C432.845 2.488 432.333 2.34 431.725 2.34 431.133 2.34 430.625 2.49 430.201 2.79 429.777 3.09 429.452 3.498 429.226 4.014 429 4.53 428.887 5.11 428.887 5.754 428.887 6.402 429.001 6.984 429.229 7.5 429.457 8.016 429.785 8.425 430.213 8.727 430.641 9.029 431.157 9.18 431.761 9.18zM431.851 8.358C431.399 8.358 431.023 8.244 430.723 8.016 430.423 7.788 430.198 7.477 430.048 7.083 429.898 6.689 429.823 6.246 429.823 5.754 429.823 5.266 429.896 4.826 430.042 4.434 430.188 4.042 430.413 3.732 430.717 3.504 431.021 3.276 431.405 3.162 431.869 3.162 432.321 3.162 432.696 3.272 432.994 3.492 433.292 3.712 433.515 4.017 433.663 4.407 433.811 4.797 433.885 5.246 433.885 5.754 433.885 6.254 433.811 6.701 433.663 7.095 433.515 7.489 433.291 7.798 432.991 8.022 432.691 8.246 432.311 8.358 431.851 8.358zM439.837 5.598L439.837 4.842 436.237 4.842 436.237 5.598 439.837 5.598zM443.848 9.09C444.202 9.106 444.561 9.076 444.925 9L444.925 9 444.925 8.226C444.461 8.302 444.072 8.314 443.758 8.262 443.444 8.21 443.215 8.05 443.071 7.782 442.995 7.642 442.954 7.481 442.948 7.299 442.942 7.117 442.939 6.89 442.939 6.618L442.939 3.276 444.925 3.276 444.925 2.52 442.939 2.52 442.939.72 442.063.72 442.063 2.52 440.677 2.52 440.677 3.276 442.063 3.276 442.063937 6.8844375C442.065187 7.0336875 442.067687 7.1741875 442.071437 7.3059375L442.078 7.497C442.088 7.743 442.151 7.986 442.267 8.226 442.411 8.514 442.622 8.726 442.9 8.862 443.178 8.998 443.494 9.074 443.848 9.09zM447.085 9L447.085 5.544C447.085 5.176 447.127 4.848 447.211 4.56 447.295 4.272 447.418 4.027 447.58 3.825 447.742 3.623 447.942 3.468 448.18 3.36 448.418 3.252 448.693 3.198 449.005 3.198 449.345 3.198 449.634 3.26 449.872 3.384 450.11 3.508 450.304 3.683 450.454 3.909 450.604 4.135 450.713 4.399 450.781 4.701 450.849 5.003 450.883 5.334 450.883 5.694L450.883 5.694 450.883 9 451.771 9 451.771 5.436C451.771 5.144 451.743 4.851 451.687 4.557 451.631 4.263 451.541 3.985 451.417 3.723 451.293 3.461 451.13 3.228 450.928 3.024 450.726 2.82 450.48 2.658 450.19 2.538 449.9 2.418 449.561 2.358 449.173 2.358 448.645 2.358 448.177 2.474 447.769 2.706 447.477571 2.87171429 447.231041 3.09355102 447.029408 3.3715102L446.995 3.423 446.995.36 446.197.36 446.197 9 447.085 9zM454.333 1.29L454.333.3 453.451.3 453.451 1.29 454.333 1.29zM454.333 9L454.333 2.52 453.451 2.52 453.451 9 454.333 9zM457.015 9L457.015 5.544C457.015 5.176 457.057 4.848 457.141 4.56 457.225 4.272 457.348 4.027 457.51 3.825 457.672 3.623 457.872 3.468 458.11 3.36 458.348 3.252 458.623 3.198 458.935 3.198 459.275 3.198 459.564 3.26 459.802 3.384 460.04 3.508 460.234 3.683 460.384 3.909 460.534 4.135 460.643 4.399 460.711 4.701 460.779 5.003 460.813 5.334 460.813 5.694L460.813 5.694 460.813 9 461.701 9 461.701 5.436C461.701 5.144 461.673 4.851 461.617 4.557 461.561 4.263 461.471 3.985 461.347 3.723 461.223 3.461 461.06 3.228 460.858 3.024 460.656 2.82 460.41 2.658 460.12 2.538 459.83 2.418 459.491 2.358 459.103 2.358 458.575 2.358 458.107 2.474 457.699 2.706 457.407571 2.87171429 457.161041 3.09355102 456.959408 3.3715102L456.925 3.423 456.925 2.52 456.127 2.52 456.127 9 457.015 9zM531.185 11.88L531.185 8.226 531.226388 8.27920408C531.319612 8.39193878 531.421 8.49585714 531.530551 8.59095918L531.701 8.727C532.113 9.029 532.617 9.18 533.213 9.18 533.817 9.18 534.333 9.029 534.761 8.727 535.189 8.425 535.517 8.016 535.745 7.5 535.973 6.984 536.087 6.402 536.087 5.754 536.087 5.11 535.974 4.53 535.748 4.014 535.522 3.498 535.197 3.09 534.773 2.79 534.349 2.49 533.841 2.34 533.249 2.34 532.641 2.34 532.129 2.488 531.713 2.784 531.475286 2.95314286 531.270551 3.15787755 531.098796 3.39820408L531.089 3.413 531.089 2.52 530.297 2.52 530.297 11.88 531.185 11.88zM533.123 8.358C532.663 8.358 532.283 8.246 531.983 8.022 531.683 7.798 531.459 7.489 531.311 7.095 531.163 6.701 531.089 6.254 531.089 5.754 531.089 5.246 531.163 4.797 531.311 4.407 531.459 4.017 531.682 3.712 531.98 3.492 532.278 3.272 532.653 3.162 533.105 3.162 533.569 3.162 533.952 3.276 534.254 3.504 534.556 3.732 534.781 4.042 534.929 4.434 535.077 4.826 535.151 5.266 535.151 5.754 535.151 6.246 535.076 6.689 534.926 7.083 534.776 7.477 534.551 7.788 534.251 8.016 533.951 8.244 533.575 8.358 533.123 8.358zM538.289 9L538.289 5.766C538.289 5.51 538.307 5.251 538.343 4.989 538.379 4.727 538.451 4.479 538.559 4.245 538.667 4.011 538.829 3.81 539.045 3.642 539.281 3.45 539.539 3.338 539.819 3.306 540.099 3.274 540.357 3.288 540.593 3.348L540.593 3.348 540.593 2.52C540.405 2.472 540.197 2.455 539.969 2.469 539.741 2.483 539.515 2.529 539.291 2.607 539.067 2.685 538.871 2.798 538.703 2.946 538.567 3.05 538.441 3.183 538.325 3.345 538.286333 3.399 538.250111 3.45466667 538.216333 3.512L538.199 3.544 538.199 2.52 537.407 2.52 537.407 9 538.289 9zM544.439 9.18C545.079 9.18 545.629 9.036 546.089 8.748 546.549 8.46 546.901 8.059 547.145 7.545 547.389 7.031 547.511 6.434 547.511 5.754 547.511 5.086 547.39 4.495 547.148 3.981 546.906 3.467 546.556 3.065 546.098 2.775 545.64 2.485 545.087 2.34 544.439 2.34 543.807 2.34 543.262 2.483 542.804 2.769 542.346 3.055 541.993 3.454 541.745 3.966 541.497 4.478 541.373 5.074 541.373 5.754 541.373 6.422 541.495 7.014 541.739 7.53 541.983 8.046 542.333 8.45 542.789 8.742 543.245 9.034 543.795 9.18 544.439 9.18zM544.439 8.334C543.739 8.334 543.209 8.099 542.849 7.629 542.489 7.159 542.309 6.534 542.309 5.754 542.309 5.25 542.386 4.805 542.54 4.419 542.694 4.033 542.928 3.731 543.242 3.513 543.556 3.295 543.955 3.186 544.439 3.186 545.155 3.186 545.69 3.418 546.044 3.882 546.398 4.346 546.575 4.97 546.575 5.754 546.575 6.518 546.399 7.139 546.047 7.617 545.695 8.095 545.159 8.334 544.439 8.334zM549.713 9L549.713 5.544C549.713 5.176 549.755 4.848 549.839 4.56 549.923 4.272 550.046 4.027 550.208 3.825 550.37 3.623 550.57 3.468 550.808 3.36 551.046 3.252 551.321 3.198 551.633 3.198 551.973 3.198 552.262 3.26 552.5 3.384 552.738 3.508 552.932 3.683 553.082 3.909 553.232 4.135 553.341 4.399 553.409 4.701 553.477 5.003 553.511 5.334 553.511 5.694L553.511 5.694 553.511 9 554.399 9 554.399 5.436C554.399 5.144 554.371 4.851 554.315 4.557 554.259 4.263 554.169 3.985 554.045 3.723 553.921 3.461 553.758 3.228 553.556 3.024 553.354 2.82 553.108 2.658 552.818 2.538 552.528 2.418 552.189 2.358 551.801 2.358 551.273 2.358 550.805 2.474 550.397 2.706 550.105571 2.87171429 549.859041 3.09355102 549.657408 3.3715102L549.623 3.423 549.623.36 548.825.36 548.825 9 549.713 9zM556.961 1.29L556.961.3 556.079.3 556.079 1.29 556.961 1.29zM556.961 9L556.961 2.52 556.079 2.52 556.079 9 556.961 9zM561.671 9.18C562.275 9.18 562.791 9.029 563.219 8.727 563.647 8.425 563.975 8.016 564.203 7.5 564.431 6.984 564.545 6.402 564.545 5.754 564.545 5.11 564.432 4.53 564.206 4.014 563.98 3.498 563.655 3.09 563.231 2.79 562.807 2.49 562.299 2.34 561.707 2.34 561.099 2.34 560.587 2.488 560.171 2.784 559.992714 2.91085714 559.83298 3.05773469 559.691796 3.22463265L559.643 3.287 559.643.36 558.755.36 558.755 9 559.547 9 559.547 8.099C559.677041 8.28431973 559.824224 8.44830612 559.988551 8.59095918L560.159 8.727C560.571 9.029 561.075 9.18 561.671 9.18zM561.581 8.358C561.121 8.358 560.741 8.246 560.441 8.022 560.141 7.798 559.917 7.489 559.769 7.095 559.621 6.701 559.547 6.254 559.547 5.754 559.547 5.246 559.621 4.797 559.769 4.407 559.917 4.017 560.14 3.712 560.438 3.492 560.736 3.272 561.111 3.162 561.563 3.162 562.027 3.162 562.41 3.276 562.712 3.504 563.014 3.732 563.239 4.042 563.387 4.434 563.535 4.826 563.609 5.266 563.609 5.754 563.609 6.246 563.534 6.689 563.384 7.083 563.234 7.477 563.009 7.788 562.709 8.016 562.409 8.244 562.033 8.358 561.581 8.358zM566.867 1.29L566.867.3 565.985.3 565.985 1.29 566.867 1.29zM566.867 9L566.867 2.52 565.985 2.52 565.985 9 566.867 9zM571.118 9.09C571.472 9.106 571.831 9.076 572.195 9L572.195 9 572.195 8.226C571.731 8.302 571.342 8.314 571.028 8.262 570.714 8.21 570.485 8.05 570.341 7.782 570.265 7.642 570.224 7.481 570.218 7.299 570.212 7.117 570.209 6.89 570.209 6.618L570.209 6.618 570.208 3.276 572.195 3.276 572.195 2.52 570.208 2.52 570.209.72 569.333.72 569.333 2.52 567.947 2.52 567.947 3.276 569.333 3.276 569.333938 6.8844375C569.335188 7.0336875 569.337688 7.1741875 569.341438 7.3059375L569.348 7.497C569.358 7.743 569.421 7.986 569.537 8.226 569.681 8.514 569.892 8.726 570.17 8.862 570.448 8.998 570.764 9.074 571.118 9.09zM576.953 5.598L576.953 4.842 573.353 4.842 573.353 5.598 576.953 5.598zM580.964 9.09C581.318 9.106 581.677 9.076 582.041 9L582.041 9 582.041 8.226C581.577 8.302 581.188 8.314 580.874 8.262 580.56 8.21 580.331 8.05 580.187 7.782 580.111 7.642 580.07 7.481 580.064 7.299 580.058 7.117 580.055 6.89 580.055 6.618L580.055 6.618 580.054 3.276 582.041 3.276 582.041 2.52 580.054 2.52 580.055.72 579.179.72 579.178 2.52 577.793 2.52 577.793 3.276 579.178 3.276 579.179 6.654C579.179 6.891 579.181813 7.1083125 579.187438 7.3059375L579.194 7.497C579.204 7.743 579.267 7.986 579.383 8.226 579.527 8.514 579.738 8.726 580.016 8.862 580.294 8.998 580.61 9.074 580.964 9.09zM584.201 9L584.201 5.544C584.201 5.176 584.243 4.848 584.327 4.56 584.411 4.272 584.534 4.027 584.696 3.825 584.858 3.623 585.058 3.468 585.296 3.36 585.534 3.252 585.809 3.198 586.121 3.198 586.461 3.198 586.75 3.26 586.988 3.384 587.226 3.508 587.42 3.683 587.57 3.909 587.72 4.135 587.829 4.399 587.897 4.701 587.965 5.003 587.999 5.334 587.999 5.694L587.999 5.694 587.999 9 588.887 9 588.887 5.436C588.887 5.144 588.859 4.851 588.803 4.557 588.747 4.263 588.657 3.985 588.533 3.723 588.409 3.461 588.246 3.228 588.044 3.024 587.842 2.82 587.596 2.658 587.306 2.538 587.016 2.418 586.677 2.358 586.289 2.358 585.761 2.358 585.293 2.474 584.885 2.706 584.593571 2.87171429 584.347041 3.09355102 584.145408 3.3715102L584.11 3.424 584.111.36 583.313.36 583.313 9 584.201 9zM591.449 1.29L591.449.3 590.567.3 590.567 1.29 591.449 1.29zM591.449 9L591.449 2.52 590.567 2.52 590.567 9 591.449 9zM594.131 9L594.131 5.544C594.131 5.176 594.173 4.848 594.257 4.56 594.341 4.272 594.464 4.027 594.626 3.825 594.788 3.623 594.988 3.468 595.226 3.36 595.464 3.252 595.739 3.198 596.051 3.198 596.391 3.198 596.68 3.26 596.918 3.384 597.156 3.508 597.35 3.683 597.5 3.909 597.65 4.135 597.759 4.399 597.827 4.701 597.895 5.003 597.929 5.334 597.929 5.694L597.929 5.694 597.929 9 598.817 9 598.817 5.436C598.817 5.144 598.789 4.851 598.733 4.557 598.677 4.263 598.587 3.985 598.463 3.723 598.339 3.461 598.176 3.228 597.974 3.024 597.772 2.82 597.526 2.658 597.236 2.538 596.946 2.418 596.607 2.358 596.219 2.358 595.691 2.358 595.223 2.474 594.815 2.706 594.523571 2.87171429 594.277041 3.09355102 594.075408 3.3715102L594.041 3.423 594.041 2.52 593.243 2.52 593.243 9 594.131 9z"/>
        <path fill="#00592B" d="M254.388,11.88 L254.388,8.226 L254.429388,8.27920408 C254.522612,8.39193878 254.624,8.49585714 254.733551,8.59095918 L254.904,8.727 C255.316,9.029 255.82,9.18 256.416,9.18 C257.02,9.18 257.536,9.029 257.964,8.727 C258.392,8.425 258.72,8.016 258.948,7.5 C259.176,6.984 259.29,6.402 259.29,5.754 C259.29,5.11 259.177,4.53 258.951,4.014 C258.725,3.498 258.4,3.09 257.976,2.79 C257.552,2.49 257.044,2.34 256.452,2.34 C255.844,2.34 255.332,2.488 254.916,2.784 C254.678286,2.95314286 254.473551,3.15787755 254.301796,3.39820408 L254.292,3.413 L254.292,2.52 L253.5,2.52 L253.5,11.88 L254.388,11.88 Z M256.326,8.358 C255.866,8.358 255.486,8.246 255.186,8.022 C254.886,7.798 254.662,7.489 254.514,7.095 C254.366,6.701 254.292,6.254 254.292,5.754 C254.292,5.246 254.366,4.797 254.514,4.407 C254.662,4.017 254.885,3.712 255.183,3.492 C255.481,3.272 255.856,3.162 256.308,3.162 C256.772,3.162 257.155,3.276 257.457,3.504 C257.759,3.732 257.984,4.042 258.132,4.434 C258.28,4.826 258.354,5.266 258.354,5.754 C258.354,6.246 258.279,6.689 258.129,7.083 C257.979,7.477 257.754,7.788 257.454,8.016 C257.154,8.244 256.778,8.358 256.326,8.358 Z M262.464,9.18 C263.112,9.18 263.668,9.034 264.132,8.742 C264.422,8.5595 264.664344,8.3254375 264.859031,8.0398125 L264.93,7.927 L264.93,9 L265.716,9 L265.716,4.974 C265.716,4.734 265.704,4.498 265.68,4.266 C265.656,4.034 265.604,3.824 265.524,3.636 C265.352,3.216 265.059,2.895 264.645,2.673 C264.231,2.451 263.728,2.34 263.136,2.34 C262.42,2.34 261.838,2.5 261.39,2.82 C260.942,3.14 260.644,3.59 260.496,4.17 L260.496,4.17 L261.354,4.422 C261.478,3.99 261.693,3.674 261.999,3.474 C262.305,3.274 262.68,3.174 263.124,3.174 C263.768,3.174 264.22,3.328 264.48,3.636 C264.74,3.944 264.864,4.418 264.852,5.058 L264.851,4.912 L264.69675,4.93275 C264.613,4.944 264.526312,4.9553125 264.436687,4.9666875 L264.159,5.001 C263.777,5.047 263.387,5.101 262.989,5.163 C262.591,5.225 262.228,5.296 261.9,5.376 C261.576,5.46 261.291,5.582 261.045,5.742 C260.799,5.902 260.605,6.107 260.463,6.357 C260.321,6.607 260.25,6.908 260.25,7.26 C260.25,7.604 260.332,7.922 260.496,8.214 C260.66,8.506 260.907,8.74 261.237,8.916 C261.567,9.092 261.976,9.18 262.464,9.18 Z M262.566,8.418 C262.218,8.418 261.939,8.36 261.729,8.244 C261.519,8.128 261.367,7.982 261.273,7.806 C261.179,7.63 261.132,7.448 261.132,7.26 C261.132,7.028 261.187,6.834 261.297,6.678 C261.407,6.522 261.548,6.397 261.72,6.303 C261.892,6.209 262.07,6.136 262.254,6.084 C262.526,6.012 262.831,5.95 263.169,5.898 C263.507,5.846 263.851,5.8 264.201,5.76 C264.317667,5.74666667 264.431556,5.73333333 264.542667,5.72 L264.838,5.684 L264.83784,5.75724 C264.83736,5.79716 264.8368,5.8396 264.83616,5.88456 L264.834,6.027 C264.83,6.277 264.804,6.506 264.756,6.714 C264.7,7.038 264.578,7.329 264.39,7.587 C264.202,7.845 263.954,8.048 263.646,8.196 C263.338,8.344 262.978,8.418 262.566,8.418 Z M269.754,9.162 C270.282,9.162 270.75,9.046 271.158,8.814 C271.449429,8.64828571 271.695959,8.42644898 271.897592,8.1484898 L271.932,8.096 L271.932,9 L272.724,9 L272.724,2.52 L271.842,2.52 L271.842,5.976 C271.842,6.34 271.8,6.667 271.716,6.957 C271.632,7.247 271.509,7.493 271.347,7.695 C271.185,7.897 270.985,8.052 270.747,8.16 C270.509,8.268 270.234,8.322 269.922,8.322 C269.582,8.322 269.293,8.26 269.055,8.136 C268.817,8.012 268.623,7.837 268.473,7.611 C268.323,7.385 268.214,7.12 268.146,6.816 C268.078,6.512 268.044,6.182 268.044,5.826 L268.044,5.826 L268.044,2.52 L267.156,2.52 L267.156,6.084 C267.156,6.376 267.184,6.669 267.24,6.963 C267.296,7.257 267.386,7.535 267.51,7.797 C267.634,8.059 267.797,8.292 267.999,8.496 C268.201,8.7 268.447,8.862 268.737,8.982 C269.027,9.102 269.366,9.162 269.754,9.162 Z M276.822,9.174 C277.618,9.174 278.243,8.999 278.697,8.649 C279.151,8.299 279.378,7.818 279.378,7.206 C279.378,6.87 279.306,6.588 279.162,6.36 C279.018,6.132 278.776,5.934 278.436,5.766 C278.096,5.598 277.628,5.438 277.032,5.286 C276.524,5.158 276.133,5.04 275.859,4.932 C275.585,4.824 275.396,4.709 275.292,4.587 C275.188,4.465 275.136,4.318 275.136,4.146 C275.136,3.838 275.28,3.591 275.568,3.405 C275.856,3.219 276.23,3.132 276.69,3.144 C277.178,3.152 277.581,3.267 277.899,3.489 C278.217,3.711 278.406,4.012 278.466,4.392 L278.466,4.392 L279.366,4.23 C279.322,3.854 279.182,3.524 278.946,3.24 C278.71,2.956 278.399,2.735 278.013,2.577 C277.627,2.419 277.19,2.34 276.702,2.34 C276.214,2.34 275.786,2.417 275.418,2.571 C275.05,2.725 274.762,2.941 274.554,3.219 C274.346,3.497 274.242,3.82 274.242,4.188 C274.242,4.492 274.312,4.749 274.452,4.959 C274.592,5.169 274.828,5.354 275.16,5.514 C275.492,5.674 275.952,5.834 276.54,5.994 C277.088,6.142 277.5,6.27 277.776,6.378 C278.052,6.486 278.235,6.603 278.325,6.729 C278.415,6.855 278.46,7.018 278.46,7.218 C278.46,7.574 278.318,7.855 278.034,8.061 C277.75,8.267 277.362,8.37 276.87,8.37 C276.366,8.37 275.943,8.261 275.601,8.043 C275.259,7.825 275.04,7.532 274.944,7.164 L274.944,7.164 L274.044,7.314 C274.156,7.898 274.457,8.354 274.947,8.682 C275.437,9.01 276.062,9.174 276.822,9.174 Z M286.392,6.006 C286.412,5.246 286.306,4.592 286.074,4.044 C285.842,3.496 285.5,3.075 285.048,2.781 C284.596,2.487 284.05,2.34 283.41,2.34 C282.786,2.34 282.245,2.48 281.787,2.76 C281.329,3.04 280.974,3.438 280.722,3.954 C280.47,4.47 280.344,5.082 280.344,5.79 C280.344,6.474 280.472,7.07 280.728,7.578 C280.984,8.086 281.343,8.48 281.805,8.76 C282.267,9.04 282.814,9.18 283.446,9.18 C284.074,9.18 284.637,9.025 285.135,8.715 C285.633,8.405 286.01,7.968 286.266,7.404 L286.266,7.404 L285.444,7.086 C285.244,7.49 284.971,7.799 284.625,8.013 C284.279,8.227 283.874,8.334 283.41,8.334 C282.73,8.334 282.205,8.109 281.835,7.659 C281.539,7.299 281.3614,6.82188 281.3022,6.22764 L281.285,6.006 L285.918,6.006 L286.392,6.006 Z M285.467,5.268 L281.304,5.268 L281.32995,5.05944 C281.39655,4.62696 281.52975,4.2636 281.72955,3.96936 L281.835,3.828 C282.205,3.376 282.738,3.15 283.434,3.15 C284.098,3.15 284.603,3.364 284.949,3.792 C285.2258,4.1344 285.397,4.60864 285.4626,5.21472 L285.467,5.268 Z M291.198,5.598 L291.198,4.842 L287.598,4.842 L287.598,5.598 L291.198,5.598 Z M295.446,9.18 C296.09,9.18 296.644,9.029 297.108,8.727 C297.572,8.425 297.924,7.986 298.164,7.41 L298.164,7.41 L297.276,7.146 C297.116,7.534 296.881,7.829 296.571,8.031 C296.261,8.233 295.886,8.334 295.446,8.334 C294.75,8.334 294.226,8.099 293.874,7.629 C293.522,7.159 293.342,6.536 293.334,5.76 C293.338,5.256 293.416,4.81 293.568,4.422 C293.72,4.034 293.952,3.731 294.264,3.513 C294.576,3.295 294.97,3.186 295.446,3.186 C295.87,3.186 296.247,3.293 296.577,3.507 C296.907,3.721 297.148,4.022 297.3,4.41 L297.3,4.41 L298.164,4.134 C297.984,3.578 297.651,3.14 297.165,2.82 C296.679,2.5 296.108,2.34 295.452,2.34 C294.808,2.34 294.26,2.483 293.808,2.769 C293.356,3.055 293.01,3.455 292.77,3.969 C292.53,4.483 292.406,5.08 292.398,5.76 C292.406,6.428 292.527,7.019 292.761,7.533 C292.995,8.047 293.338,8.45 293.79,8.742 C294.242,9.034 294.794,9.18 295.446,9.18 Z M300.402,1.29 L300.402,0.3 L299.52,0.3 L299.52,1.29 L300.402,1.29 Z M300.402,9 L300.402,2.52 L299.52,2.52 L299.52,9 L300.402,9 Z M303.084,9 L303.084,5.766 C303.084,5.51 303.102,5.251 303.138,4.989 C303.174,4.727 303.246,4.479 303.354,4.245 C303.462,4.011 303.624,3.81 303.84,3.642 C304.076,3.45 304.334,3.338 304.614,3.306 C304.894,3.274 305.152,3.288 305.388,3.348 L305.388,3.348 L305.388,2.52 C305.2,2.472 304.992,2.455 304.764,2.469 C304.536,2.483 304.31,2.529 304.086,2.607 C303.862,2.685 303.666,2.798 303.498,2.946 C303.362,3.05 303.236,3.183 303.12,3.345 C303.081333,3.399 303.045111,3.45466667 303.011333,3.512 L302.994,3.544 L302.994,2.52 L302.202,2.52 L302.202,9 L303.084,9 Z M309.216,9.18 C309.86,9.18 310.414,9.029 310.878,8.727 C311.342,8.425 311.694,7.986 311.934,7.41 L311.934,7.41 L311.046,7.146 C310.886,7.534 310.651,7.829 310.341,8.031 C310.031,8.233 309.656,8.334 309.216,8.334 C308.52,8.334 307.996,8.099 307.644,7.629 C307.292,7.159 307.112,6.536 307.104,5.76 C307.108,5.256 307.186,4.81 307.338,4.422 C307.49,4.034 307.722,3.731 308.034,3.513 C308.346,3.295 308.74,3.186 309.216,3.186 C309.64,3.186 310.017,3.293 310.347,3.507 C310.677,3.721 310.918,4.022 311.07,4.41 L311.07,4.41 L311.934,4.134 C311.754,3.578 311.421,3.14 310.935,2.82 C310.449,2.5 309.878,2.34 309.222,2.34 C308.578,2.34 308.03,2.483 307.578,2.769 C307.126,3.055 306.78,3.455 306.54,3.969 C306.3,4.483 306.176,5.08 306.168,5.76 C306.176,6.428 306.297,7.019 306.531,7.533 C306.765,8.047 307.108,8.45 307.56,8.742 C308.012,9.034 308.564,9.18 309.216,9.18 Z M314.172,9 L314.172,0.18 L313.29,0.18 L313.29,9 L314.172,9 Z M321.66,6.006 C321.68,5.246 321.574,4.592 321.342,4.044 C321.11,3.496 320.768,3.075 320.316,2.781 C319.864,2.487 319.318,2.34 318.678,2.34 C318.054,2.34 317.513,2.48 317.055,2.76 C316.597,3.04 316.242,3.438 315.99,3.954 C315.738,4.47 315.612,5.082 315.612,5.79 C315.612,6.474 315.74,7.07 315.996,7.578 C316.252,8.086 316.611,8.48 317.073,8.76 C317.535,9.04 318.082,9.18 318.714,9.18 C319.342,9.18 319.905,9.025 320.403,8.715 C320.901,8.405 321.278,7.968 321.534,7.404 L321.534,7.404 L320.712,7.086 C320.512,7.49 320.239,7.799 319.893,8.013 C319.547,8.227 319.142,8.334 318.678,8.334 C317.998,8.334 317.473,8.109 317.103,7.659 C316.807,7.299 316.6294,6.82188 316.5702,6.22764 L316.553,6.006 L321.186,6.006 L321.66,6.006 Z M320.735,5.268 L316.572,5.268 L316.59795,5.05944 C316.66455,4.62696 316.79775,4.2636 316.99755,3.96936 L317.103,3.828 C317.473,3.376 318.006,3.15 318.702,3.15 C319.366,3.15 319.871,3.364 320.217,3.792 C320.4938,4.1344 320.665,4.60864 320.7306,5.21472 L320.735,5.268 Z M326.466,5.598 L326.466,4.842 L322.866,4.842 L322.866,5.598 L326.466,5.598 Z M329.55,9 L329.55,3.276 L331.32,3.276 L331.32,2.52 L329.55,2.52 L329.55,1.944 C329.55,1.64228571 329.61098,1.40963265 329.732939,1.24604082 L329.799,1.17 C329.965,1.006 330.216,0.924 330.552,0.924 L330.552,0.924 L331.32,0.924 L331.32,0.18 L330.492,0.18 C330.328,0.18 330.161,0.19 329.991,0.21 C329.821,0.23 329.658,0.273 329.502,0.339 C329.346,0.405 329.202,0.51 329.07,0.654 C328.95,0.782 328.862,0.921 328.806,1.071 C328.75,1.221 328.713,1.378 328.695,1.542 C328.677,1.706 328.668,1.872 328.668,2.04 L328.668,2.04 L328.668,2.52 L327.546,2.52 L327.546,3.276 L328.668,3.276 L328.668,9 L329.55,9 Z M333.462,1.29 L333.462,0.3 L332.58,0.3 L332.58,1.29 L333.462,1.29 Z M333.462,9 L333.462,2.52 L332.58,2.52 L332.58,9 L333.462,9 Z M336.264,9 L336.264,0.18 L335.382,0.18 L335.382,9 L336.264,9 Z M339.066,9 L339.066,0.18 L338.184,0.18 L338.184,9 L339.066,9 Z"/>
      </g>
      <polyline stroke="#245633" points="212 4 212 25 187 25 187 67"/>
      <polyline stroke="#245633" points="380 4 380.002 25 413.5 25 413.5 67"/>
      <polygon fill="#245633" fill-rule="nonzero" points="296.625 5 296.625 67 295.625 67 295.625 5"/>
      <circle cx="380.125" cy="4" r="4" fill="#245633"/>
      <circle cx="564.125" cy="4" r="4" fill="#245633"/>
      <polygon fill="#245633" fill-rule="nonzero" points="564.625 5 564.625 67 563.625 67 563.625 5"/>
    </g>
  </g>
</svg>
