<?xml version="1.0" encoding="UTF-8"?>
<svg width="864px" height="1194px" viewBox="0 0 864 1194" version="1.1" xmlns="http://www.w3.org/2000/svg" xmlns:xlink="http://www.w3.org/1999/xlink">
    <title>tablet-spec</title>
    <g id="tablet-spec" stroke="none" stroke-width="1" fill="none" fill-rule="evenodd">
        <g id="tablet">
            <path d="M814.199723,0.5 C825.949815,0.5 836.587291,5.27090638 844.287252,12.9845153 C851.987472,20.6983845 856.75,31.3551269 856.75,43.1265851 L856.75,43.1265851 L856.75,1144.87341 C856.75,1156.6442 851.987121,1167.30093 844.28674,1175.01496 C836.586602,1182.72875 825.949119,1187.5 814.199723,1187.5 L814.199723,1187.5 L43.0502766,1187.5 C31.3001855,1187.5 20.6627086,1182.72909 12.9627482,1175.01548 C5.26252803,1167.30162 0.5,1156.64487 0.5,1144.87341 L0.5,1144.87341 L0.5,43.1265851 C0.5,31.3557978 5.26287937,20.6990705 12.96326,12.9850405 C20.6633982,5.27125349 31.3008812,0.5 43.0502766,0.5 L43.0502766,0.5 Z" id="tablet-body" stroke="#245633" opacity="0.200000003"></path>
            <circle id="camera" stroke="#245633" opacity="0.200000003" cx="428.625" cy="46.125" r="5.875"></circle>
            <path d="M813.116604,81.5979792 L813.125,81.7425499 L813.125,1104.75745 L813.116569,1104.90197 L813.116569,1104.90197 L813.125,1104.75745 L813.125,81.7425499 L813.116637,81.5985106 C813.098038,81.4392256 813.04899,81.2885097 812.975291,81.1526869 C813.048902,81.2880964 813.097967,81.4385118 813.116604,81.5979792 Z" id="screen-border" stroke="#245633" opacity="0.200000003"></path>
            <g id="prohibit-thin" transform="translate(664.625000, 985.000000)" fill="#245633" fill-rule="nonzero">
                <path d="M32,9 C44.7042847,9 55,19.2957153 55,32 C55,44.7042847 44.7042847,55 32,55 C19.2957153,55 9,44.7042847 9,32 C9,19.2957153 19.2957153,9 32,9 Z M16.4594435,17.8742909 C13.0673742,21.6040276 11,26.560157 11,32 C11,43.5997153 20.4002847,53 32,53 C37.439843,53 42.3959724,50.9326258 46.1257091,47.5405565 Z M32,11 C26.560157,11 21.6040276,13.0673742 17.8742909,16.4594435 L47.5405565,46.1257091 C50.9326258,42.3959724 53,37.439843 53,32 C53,20.4002847 43.5997153,11 32,11 Z" id="Combined-Shape"></path>
            </g>
            <g id="skip-forward-thin" transform="translate(480.625000, 985.000000)" fill="#245633">
                <path d="M32.0016,6.9996 C45.7856,6.9996 57.0016,18.2156 57.0016,31.9996 C57.0016,45.7836 45.7856,56.9996 32.0016,56.9996 C18.2176,56.9996 7.0016,45.7836 7.0016,31.9996 C7.0016,18.2156 18.2176,6.9996 32.0016,6.9996 Z M32.0016,8.9996 C19.3176,8.9996 9.0016,19.3196 9.0016,31.9996 C9.0016,44.6796 19.3176,54.9996 32.0016,54.9996 C44.6856,54.9996 55.0016,44.6796 55.0016,31.9996 C55.0016,19.3196 44.6856,8.9996 32.0016,8.9996 Z M39.0016,22.9996 C39.5144358,22.9996 39.9371072,23.3856402 39.9948723,23.8829789 L40.0016,23.9996 L40.0016,39.9996 C40.0016,40.5518847 39.5538847,40.9996 39.0016,40.9996 C38.4887642,40.9996 38.0660928,40.6135598 38.0083277,40.1162211 L38.0016,39.9996 L38.0016,23.9996 C38.0016,23.4473153 38.4493153,22.9996 39.0016,22.9996 Z M24.528,23.1196 C24.856,22.9396 25.252,22.9636 25.556,23.1676 L25.556,23.1676 L37.556,31.1676 C37.832,31.3516 38,31.6676 38,31.9996 C38,32.3356 37.832,32.6476 37.556,32.8316 L37.556,32.8316 L25.556,40.8316 C25.388,40.9436 25.196,40.9996 25,40.9996 C24.84,40.9996 24.676,40.9596 24.528,40.8796 C24.204,40.7076 24,40.3676 24,39.9996 L24,39.9996 L24,23.9996 C24,23.6316 24.204,23.2916 24.528,23.1196 Z" id="Combined-Shape"></path>
            </g>
            <g id="pause-fill" transform="translate(396.625000, 985.000000)" fill="#245633">
                <path d="M40,40 C40,41.104 39.104,42 38,42 C36.896,42 36,41.104 36,40 L36,24 C36,22.896 36.896,22 38,22 C39.104,22 40,22.896 40,24 L40,40 Z M28,40 C28,41.104 27.104,42 26,42 C24.896,42 24,41.104 24,40 L24,24 C24,22.896 24.896,22 26,22 C27.104,22 28,22.896 28,24 L28,40 Z M32,6 C17.664,6 6,17.664 6,32 C6,46.336 17.664,58 32,58 C46.336,58 58,46.336 58,32 C58,17.664 46.336,6 32,6 L32,6 Z" id="pause"></path>
            </g>
            <g id="skip-back-thin" transform="translate(312.625000, 985.000000)" fill="#245633">
                <path d="M32,7 C45.784,7 57,18.216 57,32 C57,45.784 45.784,57 32,57 C18.216,57 7,45.784 7,32 C7,18.216 18.216,7 32,7 Z M32,9 C19.316,9 9,19.32 9,32 C9,44.68 19.316,55 32,55 C44.684,55 55,44.68 55,32 C55,19.32 44.684,9 32,9 Z M25,23 C25.552,23 26,23.448 26,24 L26,24 L26,40 C26,40.552 25.552,41 25,41 C24.448,41 24,40.552 24,40 L24,40 L24,24 C24,23.448 24.448,23 25,23 Z M38.4448,23.1672 C38.7488,22.9632 39.1408,22.9392 39.4728,23.1192 C39.7968,23.2912 40.0008,23.6312 40.0008,23.9992 L40.0008,23.9992 L40.0008,39.9992 C40.0008,40.3672 39.7968,40.7072 39.4728,40.8792 C39.3248,40.9592 39.1608,40.9992 39.0008,40.9992 C38.8048,40.9992 38.6128,40.9432 38.4448,40.8312 L38.4448,40.8312 L26.4448,32.8312 C26.1688,32.6472 26.0008,32.3352 26.0008,31.9992 C26.0008,31.6672 26.1688,31.3552 26.4448,31.1672 L26.4448,31.1672 Z" id="Combined-Shape"></path>
            </g>
            <g id="heart-thin" transform="translate(128.625000, 985.000000)" fill="#245633" fill-rule="nonzero">
                <path d="M44.1669216,9.00378358 C39.1817401,9.11711379 34.70195,11.7684054 32.1612239,15.8805231 L31.998,16.15 L31.9631176,16.0899668 C29.3923616,11.7658705 24.699637,9 19.5,9 C11.4917153,9 5,15.4917153 5,23.5 C5,31.0690465 10.0080878,38.918261 18.3179323,46.6687891 C21.1949637,49.3521741 24.2737859,51.8329943 27.3525791,54.0532778 C28.2764386,54.7195227 29.1441582,55.3213378 29.9398092,55.8540392 L30.5618296,56.2661138 L31.4759026,56.8516583 C31.7973096,57.0494472 32.2026904,57.0494472 32.5240974,56.8516583 L32.8289726,56.6598789 C33.0110389,56.5439867 33.2145498,56.4126002 33.4381704,56.2661138 L33.6684448,56.1146088 C34.5681614,55.5201531 35.5695848,54.8305635 36.6474209,54.0532778 C39.7262141,51.8329943 42.8050363,49.3521741 45.6820677,46.6687891 C53.9919122,38.918261 59,31.0690465 59,23.5 C59,15.4930506 52.5056204,9 44.5,9 L44.1669216,9.00378358 Z M44.5,11 C51.4011426,11 57,16.5977118 57,23.5 C57,30.3684535 52.2580878,37.800489 44.3179323,45.2062109 C41.5074637,47.8275134 38.4925359,50.2568495 35.4775791,52.4310972 C34.5733136,53.0832117 33.7248342,53.6716868 32.9481911,54.1916742 L32,54.816 L31.4340698,54.4459381 C30.5564427,53.8660774 29.5773973,53.1918974 28.5224209,52.4310972 C25.5074641,50.2568495 22.4925363,47.8275134 19.6820677,45.2062109 C11.7419122,37.800489 7,30.3684535 7,23.5 C7,16.5962847 12.5962847,11 19.5,11 C24.5670368,11 29.0757326,14.0469534 31.0148231,18.637144 C31.122216,18.8913632 31.3298931,19.0898997 31.5886856,19.1857488 L31.6966856,19.2257488 C32.1992294,19.4118761 32.7591643,19.1687574 32.9662903,18.674498 C34.8985333,14.0636356 39.416009,11 44.5,11 Z" id="Stroke-2"></path>
            </g>
            <g id="progress-bar" opacity="0.200000003" transform="translate(128.625000, 923.000000)" stroke="#245633">
                <rect id="progress-bg" x="0.5" y="10.5" width="599" height="3" rx="1.5"></rect>
                <rect id="progress-fill" x="0.5" y="10.5" width="359" height="3" rx="1.5"></rect>
                <circle id="progress-dot" cx="358.375" cy="12" r="11.5"></circle>
            </g>
            <path d="M214.257,895.18 C215.353582,895.18 216.281205,895.438024 217.033632,895.971716 C218.024685,896.744895 218.187968,897.127231 218.8148,898.13571 L218.94673,898.346055 L219.05763,895.54 L219.649002,895.54 L219.649042,907.813545 C219.641432,908.40299 219.632909,908.630862 219.619863,908.852639 C219.600956,909.174046 219.56507,909.489787 219.511052,909.806438 C219.373693,910.681198 219.096255,911.404007 218.66546,911.968748 C218.244162,912.521038 217.690698,912.929858 217.007801,913.198771 C216.28738,913.48246 215.433834,913.62 214.449,913.62 C213.834254,913.62 213.228796,913.52912 212.632581,913.347663 C212.046319,913.169235 211.505752,912.888548 211.010558,912.50623 C210.713133,912.2766 210.445494,912.004792 210.206836,911.691513 L210.033263,911.448788 L210.758509,911.045268 C211.213715,911.724063 211.680759,912.112323 212.232931,912.37994 C212.956093,912.730429 213.69503,912.904 214.449,912.904 C215.493534,912.904 216.334635,912.698114 216.980248,912.310746 C217.65405,911.906465 218.148029,911.311912 218.455105,910.520958 C218.732881,909.690916 218.850281,908.959812 218.870232,908.148927 L218.873,907.796 L218.873,904.718977 C218.317073,905.825828 217.770444,906.528069 217.057403,907.050735 C216.313949,907.595694 215.402545,907.86 214.329,907.86 C213.235098,907.86 212.297565,907.593225 211.521267,907.045463 C210.737681,906.492559 210.139548,905.742117 209.722343,904.797918 C209.292732,903.82564 209.081,902.728537 209.081,901.508 C209.081,900.29468 209.291052,899.201109 209.716997,898.228596 C210.130198,897.285182 210.722132,896.536982 211.497795,895.988164 C212.265448,895.445013 213.186675,895.18 214.257,895.18 Z M214.545,895.824 C213.493464,895.824 212.628167,896.092625 211.941,896.608 C211.258823,897.119633 210.750363,897.813044 210.422444,898.693487 C210.111141,899.529312 209.953,900.46716 209.953,901.508 C209.953,902.558203 210.11564,903.503158 210.435719,904.343899 C210.771708,905.22643 211.279138,905.919877 211.950458,906.430081 C212.630922,906.947233 213.481246,907.216 214.509,907.216 C215.552471,907.216 216.409422,906.951419 217.088145,906.44464 C217.76147,905.941891 218.268528,905.251094 218.601067,904.365822 C218.916472,903.526164 219.077,902.573929 219.077,901.508 C219.077,900.424653 218.915963,899.467963 218.600471,898.636601 C218.26743,897.758991 217.76179,897.076243 217.091968,896.581744 C216.417304,896.08367 215.570908,895.824 214.545,895.824 Z M224.773,891.22 L224.773,898.19144 C225.4495,897.057967 225.964188,896.441232 226.618878,895.975395 C227.372369,895.439257 228.301802,895.18 229.401,895.18 C230.471325,895.18 231.392552,895.445013 232.160205,895.988164 C232.935868,896.536982 233.527802,897.285182 233.941003,898.228596 C234.366948,899.201109 234.577,900.29468 234.577,901.508 C234.577,902.728537 234.365268,903.82564 233.935657,904.797918 C233.518452,905.742117 232.920319,906.492559 232.136733,907.045463 C231.360435,907.593225 230.422902,907.86 229.329,907.86 C228.258076,907.86 227.348502,907.596983 226.606131,907.054576 C225.613568,906.258127 225.45812,905.872187 224.821155,904.830154 L224.686951,904.612684 L224.59643,907.5 L223.997,907.5 L223.997,891.22 L224.773,891.22 Z M229.113,895.824 L229.113,895.824 L228.837652,895.830422 C227.934621,895.873183 227.179363,896.128949 226.566032,896.581744 C225.89621,897.076243 225.39057,897.758991 225.057529,898.636601 C224.742037,899.467963 224.581,900.424653 224.581,901.508 C224.581,902.573929 224.741528,903.526164 225.056933,904.365822 C225.389472,905.251094 225.89653,905.941891 226.569855,906.44464 C227.248578,906.951419 228.105529,907.216 229.149,907.216 C230.176754,907.216 231.027078,906.947233 231.707542,906.430081 C232.378862,905.919877 232.886292,905.22643 233.222281,904.343899 C233.54236,903.503158 233.705,902.558203 233.705,901.508 C233.705,900.466377 233.544573,899.52784 233.228771,898.691393 C232.896829,897.812194 232.388986,897.119854 231.712267,896.608953 C231.029083,896.093172 230.165469,895.824 229.113,895.824 L229.113,895.824 Z M186.765,895.18 C187.854945,895.18 188.783539,895.377407 189.546712,895.786645 C190.267101,896.172941 190.778806,896.730174 191.080923,897.467778 C191.222576,897.800662 191.313175,898.172816 191.355654,898.58345 C191.386491,898.881543 191.407033,899.183064 191.417301,899.488011 L191.425,899.948 L191.425,907.5 L190.853,907.5 L190.853,903.700401 C190.146524,905.49079 189.473235,906.442497 188.49069,907.060823 C187.636772,907.598202 186.612095,907.86 185.421,907.86 C184.540141,907.86 183.799012,907.709073 183.202294,907.390824 C182.633494,907.087464 182.204049,906.687212 181.920947,906.183153 C181.635038,905.674096 181.493,905.119549 181.493,904.52 C181.493,903.913627 181.608595,903.392577 181.853762,902.960945 C182.09812,902.530738 182.432374,902.178422 182.855614,901.903144 C183.305155,901.610759 183.826597,901.38945 184.411478,901.23776 C185.054966,901.080812 185.767148,900.941676 186.547961,900.820041 C187.338116,900.696952 188.112388,900.589738 188.872211,900.498239 C189.49368,900.421581 189.728621,900.391199 189.953066,900.361049 C190.679557,898.446061 190.351677,897.561456 189.835069,896.949474 C189.241811,896.246691 188.229414,895.848 186.741,895.848 C185.743167,895.848 184.903855,896.080836 184.217449,896.529467 C183.696374,896.870039 183.283213,897.352676 182.987615,897.985086 L182.882296,898.229275 L182.124709,898.006767 C182.463938,897.109925 182.925392,896.502743 183.563619,896.046867 C184.38505,895.46013 185.455418,895.18 186.765,895.18 Z M189.846422,900.903744 C189.522804,900.943574 189.186739,900.983404 188.838227,901.023234 C188.131696,901.10398 187.437278,901.196844 186.754971,901.301814 C186.059767,901.408769 185.4325,901.536559 184.873054,901.684647 C184.46128,901.800946 184.070638,901.960982 183.693217,902.167247 C183.280323,902.392899 182.942368,902.693468 182.678371,903.067864 C182.403912,903.457096 182.257,903.938873 182.257,904.52 C182.257,904.976805 182.369409,905.419625 182.597962,905.847554 C182.827838,906.277959 183.194171,906.641152 183.709241,906.925667 C184.189897,907.191173 184.825996,907.336 185.625,907.336 C186.532415,907.336 187.323797,907.168346 188.001556,906.84267 C188.695916,906.509016 189.253472,906.049816 189.677097,905.468458 C190.095398,904.894407 190.368586,904.247678 190.495171,903.527634 C190.599603,903.071042 190.666067,902.562825 189.846422,900.903744 Z M177.853,895.54 L177.853,907.5 L177.269,907.5 L177.269,904.402937 C176.455768,905.952685 175.824695,906.70954 174.973849,907.193355 C174.229671,907.616515 173.375287,907.824 172.413,907.824 C171.710548,907.824 171.095662,907.719434 170.570176,907.501992 C170.055172,907.288887 169.617181,907.002636 169.258291,906.640193 C168.894163,906.272459 168.600456,905.852376 168.376939,905.380105 C168.146838,904.893925 167.980081,904.377983 167.876169,903.832444 C167.77013,903.275736 167.717,902.720928 167.717,902.168 L167.717,902.168 L167.717,895.54 L168.493,895.54 L168.493,901.659645 C168.524226,902.684902 168.594814,903.230407 168.709058,903.741145 C168.859485,904.413641 169.102735,904.998778 169.434409,905.498499 C169.782192,906.022492 170.232209,906.427952 170.783972,906.715425 C171.323391,906.996467 171.977112,907.144 172.749,907.144 C173.451786,907.144 174.070008,907.018362 174.605613,906.775314 C175.154462,906.526257 175.615498,906.168615 175.989057,905.702818 C176.351374,905.25104 176.629269,904.702122 176.817259,904.053109 C176.99717,903.431986 177.089,902.731811 177.089,901.952 L177.089,901.952 L177.089,895.54 L177.853,895.54 Z M200.985,895.216 C201.687452,895.216 202.302338,895.320566 202.827824,895.538008 C203.342828,895.751113 203.780819,896.037364 204.139709,896.399807 C204.503837,896.767541 204.797544,897.187624 205.021061,897.659895 C205.251162,898.146075 205.417919,898.662017 205.521831,899.207556 C205.62787,899.764264 205.681,900.319072 205.681,900.872 L205.681,900.872 L205.681,907.5 L204.905,907.5 L204.905,901.381496 C204.879388,900.392433 204.80791,899.82121 204.688788,899.292167 C204.538371,898.624142 204.29525,898.0412 203.963591,897.541501 C203.615808,897.017508 203.165791,896.612048 202.614028,896.324575 C202.074609,896.043533 201.420888,895.896 200.649,895.896 C199.946214,895.896 199.327992,896.021638 198.792387,896.264686 C198.243538,896.513743 197.782502,896.871385 197.408943,897.337182 C197.046674,897.7889 196.768959,898.335571 196.581,898.98 C196.401049,899.596976 196.309,900.299424 196.309,901.088 L196.309,901.088 L196.309,907.5 L195.533,907.5 L195.533,895.54 L196.129,895.54 L196.129,898.632772 C196.942175,897.087279 197.573298,896.330464 198.424151,895.846645 C199.168329,895.423485 200.022713,895.216 200.985,895.216 Z M163.959644,895.43706 C164.212743,895.421519 164.451899,895.426983 164.677,895.454478 L164.677,895.454478 L164.677,896.111925 C164.266448,896.066683 163.927356,896.074647 163.572227,896.115234 C162.919359,896.189847 162.316244,896.448046 161.77403,896.889324 C161.275975,897.2767 160.903931,897.741165 160.65502,898.280471 C160.418479,898.792977 160.260505,899.336077 160.181654,899.909937 C160.106501,900.456888 160.069,900.997579 160.069,901.532 L160.069,901.532 L160.069,907.5 L159.305,907.5 L159.305,895.54 L159.889,895.54 L159.889,898.804329 C161.009502,896.999129 161.326358,896.575459 161.700725,896.289179 C162.015957,896.013076 162.352976,895.820062 162.737424,895.686191 C163.141232,895.54558 163.548592,895.4623 163.959644,895.43706 Z M145.633,891.22 L145.633,898.632772 C146.446175,897.087279 147.077298,896.330464 147.928151,895.846645 C148.672329,895.423485 149.526713,895.216 150.489,895.216 C151.191452,895.216 151.806338,895.320566 152.331824,895.538008 C152.846828,895.751113 153.284819,896.037364 153.643709,896.399807 C154.007837,896.767541 154.301544,897.187624 154.525061,897.659895 C154.755162,898.146075 154.921919,898.662017 155.025831,899.207556 C155.13187,899.764264 155.185,900.319072 155.185,900.872 L155.185,900.872 L155.185,907.5 L154.409,907.5 L154.409,901.381496 C154.383388,900.392433 154.31191,899.82121 154.192788,899.292167 C154.042371,898.624142 153.79925,898.0412 153.467591,897.541501 C153.119808,897.017508 152.669791,896.612048 152.118028,896.324575 C151.578609,896.043533 150.924888,895.896 150.153,895.896 C149.450214,895.896 148.831992,896.021638 148.296387,896.264686 C147.747538,896.513743 147.286502,896.871385 146.912943,897.337182 C146.550674,897.7889 146.272959,898.335571 146.085,898.98 C145.905049,899.596976 145.813,900.299424 145.813,901.088 L145.813,901.088 L145.813,907.5 L145.037,907.5 L145.037,891.22 L145.633,891.22 Z M131.569,891.22 L131.569,898.139 L131.569,898.138401 L131.569,907.5 L130.805,907.5 L130.805,891.22 L131.569,891.22 Z M140.165163,891.22 L141.031261,891.22 L133.460431,899.06162 L141.683603,907.5 L140.774572,907.5 L132.533,899.119 L140.165163,891.22 Z M239.221,895.54 L239.221,907.5 L238.457,907.5 L238.457,895.54 L239.221,895.54 Z M249.261,895.216 C249.963452,895.216 250.578338,895.320566 251.103824,895.538008 C251.618828,895.751113 252.056819,896.037364 252.415709,896.399807 C252.779837,896.767541 253.073544,897.187624 253.297061,897.659895 C253.527162,898.146075 253.693919,898.662017 253.797831,899.207556 C253.90387,899.764264 253.957,900.319072 253.957,900.872 L253.957,900.872 L253.957,907.5 L253.181,907.5 L253.181,901.381496 C253.155388,900.392433 253.08391,899.82121 252.964788,899.292167 C252.814371,898.624142 252.57125,898.0412 252.239591,897.541501 C251.891808,897.017508 251.441791,896.612048 250.890028,896.324575 C250.350609,896.043533 249.696888,895.896 248.925,895.896 C248.222214,895.896 247.603992,896.021638 247.068387,896.264686 C246.519538,896.513743 246.058502,896.871385 245.684943,897.337182 C245.322674,897.7889 245.044959,898.335571 244.857,898.98 C244.677049,899.596976 244.585,900.299424 244.585,901.088 L244.585,901.088 L244.585,907.5 L243.809,907.5 L243.809,895.54 L244.405,895.54 L244.405,898.632772 C245.218175,897.087279 245.849298,896.330464 246.700151,895.846645 C247.444329,895.423485 248.298713,895.216 249.261,895.216 Z M239.221,891.1 L239.221,892.08 L238.457,892.08 L238.457,891.1 L239.221,891.1 Z" id="artist" stroke="#245633" opacity="0.200000003"></path>
            <path d="M283.329,851.74 C284.789718,851.74 286.076578,851.974507 287.187787,852.451464 C288.243161,852.904455 289.026147,853.646683 289.539361,854.682729 C289.819413,855.233176 289.989567,855.795435 290.047523,856.370166 C290.097483,856.865606 290.127332,857.396024 290.137274,857.961407 L290.141,858.392 L290.141,868.5 L287.765,868.5 L287.765,865.04328 C286.841802,866.58738 285.924791,867.572475 284.853039,868.171556 C283.878162,868.716488 282.659038,868.98 281.201,868.98 C280.049319,868.98 279.072092,868.768372 278.273752,868.329778 C277.497215,867.903162 276.90727,867.337415 276.509102,866.627429 C276.107948,865.912117 275.909,865.124016 275.909,864.264 C275.909,863.50348 276.033007,862.817759 276.286648,862.208045 C276.533589,861.614437 276.914457,861.102378 277.427177,860.670364 C277.961047,860.220529 278.655134,859.856291 279.498715,859.571785 C280.175441,859.353151 280.969405,859.155808 281.88036,858.978822 C282.620804,858.834964 283.412028,858.6996 284.254367,858.57263 L284.895711,858.478975 L285.725871,858.36038 C286.005959,858.319986 286.289217,858.278757 286.575647,858.236694 C287.298385,856.549474 286.949268,855.805212 286.441286,855.27731 C285.826067,854.637964 284.804251,854.276 283.329,854.276 C282.473329,854.276 281.646619,854.474173 280.849393,854.872786 C280.212349,855.191308 279.715054,855.679785 279.365939,856.34591 L279.255067,856.574542 L276.680575,855.767088 C277.16916,854.525439 277.843132,853.654055 278.769843,852.970348 C279.896488,852.139134 281.42045,851.74 283.329,851.74 Z M286.68415,860.365217 C286.033651,860.468762 285.447868,860.563958 284.926801,860.650803 C284.087664,860.790659 283.366877,860.922502 282.76442,861.046221 C282.1466,861.173095 281.600593,861.314113 281.112832,861.473129 C280.618752,861.649586 280.202156,861.857206 279.861134,862.092394 C279.487192,862.350285 279.203144,862.649125 279.003527,862.983968 C278.794822,863.334053 278.685,863.743648 278.685,864.216 C278.685,864.747232 278.82169,865.213768 279.086878,865.618178 C279.347834,866.016137 279.725761,866.33755 280.229235,866.572941 C280.696816,866.79155 281.275516,866.908 281.969,866.908 C282.932124,866.908 283.752182,866.731426 284.432607,866.391214 C285.120602,866.047216 285.666452,865.623174 286.075363,865.12537 C286.484238,864.627609 286.75641,864.156677 286.902193,863.717804 C287.118278,863.188301 287.247041,862.580451 287.287183,861.612055 C287.298463,861.315848 287.303287,861.046928 286.68415,860.365217 Z M342.269,846.46 L342.269,868.5 L339.861,868.5 L339.861,866.620128 C338.903547,867.477324 338.653518,867.68306 338.386012,867.870564 C337.321931,868.616415 336.002088,868.98 334.433,868.98 C332.951685,868.98 331.657257,868.611873 330.552929,867.865706 C329.442045,867.115108 328.583306,866.092882 327.973012,864.802258 C327.352215,863.489426 327.045,862.008165 327.045,860.36 C327.045,858.691936 327.354264,857.2033 327.980008,855.895852 C328.59496,854.610952 329.466007,853.594578 330.596215,852.849441 C331.721679,852.107431 333.047164,851.741253 334.569562,851.740004 C336.628139,851.802893 337.937032,852.313848 339.016954,853.328112 L339.185641,853.492449 L339.368189,846.46 L342.269,846.46 Z M335.153,854.196 C333.993836,854.196 333.043003,854.49052 332.291987,855.056762 C331.545865,855.619314 330.99203,856.375329 330.636478,857.329395 C330.296914,858.240558 330.125,859.250485 330.125,860.36 C330.125,861.479544 330.294014,862.493938 330.62753,863.404042 C330.977304,864.358508 331.517219,865.111304 332.239831,865.66807 C332.970563,866.231094 333.896076,866.524 335.025,866.524 C336.187087,866.524 337.117893,866.243837 337.828461,865.712403 C338.539546,865.180584 339.064754,864.439891 339.393843,863.48254 C339.703284,862.582348 339.861,861.541872 339.861,860.36 C339.861,859.166659 339.703016,858.123248 339.393528,857.228547 C339.064965,856.2787 338.549397,855.542266 337.857359,855.011307 C337.160236,854.476445 336.262108,854.196 335.153,854.196 Z M140.609,845.98 C143.142551,845.98 145.258333,846.604 146.949,847.872 C148.506087,849.039815 149.632457,850.583231 150.332534,852.499035 L150.332534,852.499035 L147.404615,853.306321 C146.828295,851.774365 146.086123,850.759245 145.110254,849.991111 C143.953443,849.080552 142.45648,848.612 140.609,848.612 C138.948214,848.612 137.569414,848.993847 136.46567,849.737302 C135.356859,850.484169 134.520425,851.53034 133.962824,852.881229 C133.42347,854.187913 133.144134,855.719171 133.133,857.48 C133.133,859.238895 133.407101,860.771195 133.946824,862.078771 C134.504525,863.429903 135.343888,864.476351 136.458663,865.223365 C137.567706,865.966539 138.948912,866.348 140.609,866.348 C142.456981,866.348 143.954332,865.876474 145.111451,864.959944 C146.151148,864.136422 146.921708,863.037159 147.41533,861.656633 L147.41533,861.656633 L150.319487,862.457368 C149.512299,864.533934 148.425551,865.980587 146.949,867.088 C145.258333,868.356 143.142551,868.98 140.609,868.98 C138.408231,868.98 136.520612,868.505312 134.950508,867.541839 C133.388713,866.583464 132.190849,865.246275 131.35432,863.532657 C130.505095,861.793033 130.085,859.774722 130.085,857.48 C130.085,855.185278 130.505095,853.166967 131.35432,851.427343 C132.190849,849.713725 133.388713,848.376536 134.950508,847.418161 C136.520612,846.454688 138.408231,845.98 140.609,845.98 Z M162.129,851.74 C163.767741,851.74 165.197409,852.101715 166.414712,852.836121 C167.626348,853.567108 168.566827,854.576595 169.237646,855.863165 C169.917371,857.166816 170.253,858.666505 170.253,860.36 C170.253,862.063385 169.915065,863.567996 169.230354,864.871482 C168.554538,866.158037 167.611655,867.165113 166.400013,867.891097 C165.182598,868.62054 163.757884,868.98 162.129,868.98 C160.500616,868.98 159.076332,868.618129 157.859288,867.883879 C156.648186,867.153214 155.710584,866.144206 155.04506,864.858195 C154.370204,863.554149 154.037,862.054014 154.037,860.36 C154.037,858.636765 154.37691,857.124739 155.066558,855.826578 C155.747446,854.544906 156.69292,853.542731 157.904679,852.821684 C159.121686,852.097514 160.530686,851.74 162.129,851.74 Z M162.129,854.356 C160.975751,854.356 160.032654,854.625682 159.291372,855.141614 C158.545037,855.661063 157.98927,856.381238 157.630716,857.307503 C157.290605,858.186123 157.117,859.203133 157.117,860.36 C157.117,862.165803 157.54336,863.598814 158.363821,864.671725 C159.216427,865.786671 160.464256,866.364 162.129,866.364 C163.855445,866.364 165.122237,865.76741 165.957004,864.622586 C166.759103,863.522564 167.173,862.104876 167.173,860.36 C167.173,858.554788 166.749674,857.122197 165.935204,856.04962 C165.089381,854.935755 163.829111,854.356 162.129,854.356 Z M310.177,851.74 C311.450737,851.74 312.58131,851.93384 313.567305,852.328238 C314.524262,852.711021 315.299622,853.252972 315.888889,853.960092 C316.369834,854.537226 316.697012,855.197698 316.872342,855.940638 L316.872342,855.940638 L313.894831,856.473201 C313.676926,855.749429 313.321714,855.278365 312.820401,854.903551 C312.181635,854.42597 311.334657,854.144653 310.270361,854.084863 C309.24357,854.024463 308.421911,854.193613 307.796034,854.560713 C307.066499,854.988614 306.717,855.593857 306.717,856.36 C306.717,856.825701 306.876127,857.223034 307.191322,857.553238 C307.449299,857.823499 307.956602,858.112579 308.741317,858.384449 C309.427753,858.622269 310.45184,858.91469 311.813083,859.260401 C313.139918,859.599824 314.203265,859.985167 315.000584,860.422406 C315.735105,860.825208 316.2736,861.299845 316.601376,861.86039 C316.928782,862.420302 317.085,863.10034 317.085,863.896 C317.085,865.464562 316.522929,866.701928 315.380309,867.598668 C314.190772,868.532229 312.541812,868.98 310.449,868.98 C308.438807,868.98 306.799575,868.540297 305.541152,867.634233 C304.444844,866.844891 303.737197,865.76724 303.410442,864.40626 L303.410442,864.40626 L306.411609,863.942665 C306.73358,864.807084 307.188029,865.36927 307.808166,865.808136 C308.577817,866.352812 309.546183,866.636 310.721,866.636 C311.781009,866.636 312.590986,866.406799 313.166833,865.988552 C313.809063,865.52209 314.133,864.884211 314.133,864.072 C314.133,863.546128 313.994533,863.130417 313.747676,862.81303 C313.524809,862.526486 313.056081,862.22325 312.296662,861.952949 C311.658428,861.72578 310.679619,861.438527 309.360946,861.092647 C307.953734,860.72015 306.835147,860.321642 306.00724,859.892165 C305.249293,859.49898 304.695628,859.039938 304.363086,858.498368 C304.033989,857.962412 303.877,857.312051 303.877,856.552 C303.877,855.586125 304.125929,854.742579 304.633333,854.024555 C305.147555,853.296883 305.868232,852.74052 306.789083,852.347947 C307.746976,851.939582 308.876981,851.74 310.177,851.74 Z M354.881,851.74 C356.562293,851.74 357.994118,852.125334 359.171242,852.911753 C360.342479,853.694239 361.208694,854.800544 361.776538,856.225135 C362.272391,857.469117 362.501185,858.902171 362.47054,860.522907 L362.457478,860.932 L349.865915,860.932 C350.026714,862.743117 350.446373,863.881107 351.130566,864.736348 C351.987808,865.8079 353.230705,866.364 354.881,866.364 C355.932579,866.364 356.836977,866.124526 357.598126,865.658396 C358.179652,865.302267 358.662557,864.826603 359.044133,864.228916 L359.182469,863.999059 L362.026603,864.859469 C361.325808,866.184395 360.485456,867.086071 359.407853,867.760093 C358.106699,868.573943 356.672246,868.98 355.105,868.98 C353.450907,868.98 351.9968,868.626595 350.745446,867.910094 C349.503578,867.199024 348.534836,866.212361 347.838814,864.950507 C347.136064,863.676457 346.789,862.209496 346.789,860.552 C346.789,858.753648 347.129143,857.18968 347.820414,855.863051 C348.500936,854.557048 349.445466,853.542406 350.656679,852.821684 C351.873686,852.097514 353.282686,851.74 354.881,851.74 Z M355.041,854.116 C353.287108,854.116 351.992438,854.671153 350.971393,855.982253 C350.449661,856.73031 350.104887,857.692932 349.931645,859.027461 L349.931645,859.027461 L359.557201,858.905429 L359.52528,858.576668 C359.380651,857.287116 359.033468,856.303112 358.512408,855.611212 C357.777144,854.634878 356.631898,854.116 355.041,854.116 Z M434.145,851.74 C435.826293,851.74 437.258118,852.125334 438.435242,852.911753 C439.606479,853.694239 440.472694,854.800544 441.040538,856.225135 C441.536391,857.469117 441.765185,858.902171 441.73454,860.522907 L441.721478,860.932 L429.129915,860.932 C429.290714,862.743117 429.710373,863.881107 430.394566,864.736348 C431.251808,865.8079 432.494705,866.364 434.145,866.364 C435.196579,866.364 436.100977,866.124526 436.862126,865.658396 C437.443652,865.302267 437.926557,864.826603 438.308133,864.228916 L438.446469,863.999059 L441.290603,864.859469 C440.589808,866.184395 439.749456,867.086071 438.671853,867.760093 C437.370699,868.573943 435.936246,868.98 434.369,868.98 C432.714907,868.98 431.2608,868.626595 430.009446,867.910094 C428.767578,867.199024 427.798836,866.212361 427.102814,864.950507 C426.400064,863.676457 426.053,862.209496 426.053,860.552 C426.053,858.753648 426.393143,857.18968 427.084414,855.863051 C427.764936,854.557048 428.709466,853.542406 429.920679,852.821684 C431.137686,852.097514 432.546686,851.74 434.145,851.74 Z M434.305,854.116 C432.551108,854.116 431.256438,854.671153 430.235393,855.982253 C429.713661,856.73031 429.368887,857.692932 429.195645,859.027461 L429.195645,859.027461 L438.821201,858.905429 L438.78928,858.576668 C438.644651,857.287116 438.297468,856.303112 437.776408,855.611212 C437.041144,854.634878 435.895898,854.116 434.305,854.116 Z M265.441,851.74 C266.714737,851.74 267.84531,851.93384 268.831305,852.328238 C269.788262,852.711021 270.563622,853.252972 271.152889,853.960092 C271.633834,854.537226 271.961012,855.197698 272.136342,855.940638 L272.136342,855.940638 L269.158831,856.473201 C268.940926,855.749429 268.585714,855.278365 268.084401,854.903551 C267.445635,854.42597 266.598657,854.144653 265.534361,854.084863 C264.50757,854.024463 263.685911,854.193613 263.060034,854.560713 C262.330499,854.988614 261.981,855.593857 261.981,856.36 C261.981,856.825701 262.140127,857.223034 262.455322,857.553238 C262.713299,857.823499 263.220602,858.112579 264.005317,858.384449 C264.691753,858.622269 265.71584,858.91469 267.077083,859.260401 C268.403918,859.599824 269.467265,859.985167 270.264584,860.422406 C270.999105,860.825208 271.5376,861.299845 271.865376,861.86039 C272.192782,862.420302 272.349,863.10034 272.349,863.896 C272.349,865.464562 271.786929,866.701928 270.644309,867.598668 C269.454772,868.532229 267.805812,868.98 265.713,868.98 C263.702807,868.98 262.063575,868.540297 260.805152,867.634233 C259.708844,866.844891 259.001197,865.76724 258.674442,864.40626 L258.674442,864.40626 L261.675609,863.942665 C261.99758,864.807084 262.452029,865.36927 263.072166,865.808136 C263.841817,866.352812 264.810183,866.636 265.985,866.636 C267.045009,866.636 267.854986,866.406799 268.430833,865.988552 C269.073063,865.52209 269.397,864.884211 269.397,864.072 C269.397,863.546128 269.258533,863.130417 269.011676,862.81303 C268.788809,862.526486 268.320081,862.22325 267.560662,861.952949 C266.922428,861.72578 265.943619,861.438527 264.624946,861.092647 C263.217734,860.72015 262.099147,860.321642 261.27124,859.892165 C260.513293,859.49898 259.959628,859.039938 259.627086,858.498368 C259.297989,857.962412 259.141,857.312051 259.141,856.552 C259.141,855.586125 259.389929,854.742579 259.897333,854.024555 C260.411555,853.296883 261.132232,852.74052 262.053083,852.347947 C263.010976,851.939582 264.140981,851.74 265.441,851.74 Z M248.113,851.74 C249.386737,851.74 250.51731,851.93384 251.503305,852.328238 C252.460262,852.711021 253.235622,853.252972 253.824889,853.960092 C254.305834,854.537226 254.633012,855.197698 254.808342,855.940638 L254.808342,855.940638 L251.830831,856.473201 C251.612926,855.749429 251.257714,855.278365 250.756401,854.903551 C250.117635,854.42597 249.270657,854.144653 248.206361,854.084863 C247.17957,854.024463 246.357911,854.193613 245.732034,854.560713 C245.002499,854.988614 244.653,855.593857 244.653,856.36 C244.653,856.825701 244.812127,857.223034 245.127322,857.553238 C245.385299,857.823499 245.892602,858.112579 246.677317,858.384449 C247.363753,858.622269 248.38784,858.91469 249.749083,859.260401 C251.075918,859.599824 252.139265,859.985167 252.936584,860.422406 C253.671105,860.825208 254.2096,861.299845 254.537376,861.86039 C254.864782,862.420302 255.021,863.10034 255.021,863.896 C255.021,865.464562 254.458929,866.701928 253.316309,867.598668 C252.126772,868.532229 250.477812,868.98 248.385,868.98 C246.374807,868.98 244.735575,868.540297 243.477152,867.634233 C242.380844,866.844891 241.673197,865.76724 241.346442,864.40626 L241.346442,864.40626 L244.347609,863.942665 C244.66958,864.807084 245.124029,865.36927 245.744166,865.808136 C246.513817,866.352812 247.482183,866.636 248.657,866.636 C249.717009,866.636 250.526986,866.406799 251.102833,865.988552 C251.745063,865.52209 252.069,864.884211 252.069,864.072 C252.069,863.546128 251.930533,863.130417 251.683676,862.81303 C251.460809,862.526486 250.992081,862.22325 250.232662,861.952949 C249.594428,861.72578 248.615619,861.438527 247.296946,861.092647 C245.889734,860.72015 244.771147,860.321642 243.94324,859.892165 C243.185293,859.49898 242.631628,859.039938 242.299086,858.498368 C241.969989,857.962412 241.813,857.312051 241.813,856.552 C241.813,855.586125 242.061929,854.742579 242.569333,854.024555 C243.083555,853.296883 243.804232,852.74052 244.725083,852.347947 C245.682976,851.939582 246.812981,851.74 248.113,851.74 Z M415.649,851.74 C417.494139,851.74 419.059506,852.19617 420.339386,853.124711 C421.475281,853.948791 422.254529,855.044371 422.680966,856.408829 L422.680966,856.408829 L419.754691,857.201362 C419.348102,856.267427 418.871703,855.681707 418.268013,855.231261 C417.487131,854.648603 416.598412,854.356 415.601,854.356 C414.4764,854.356 413.554303,854.632995 412.826324,855.164062 C412.098898,855.694725 411.558491,856.422738 411.212343,857.353756 C410.883978,858.236946 410.717,859.238662 410.717,860.36 C410.717,862.127315 411.126166,863.549763 411.916448,864.637833 C412.743225,865.776149 413.964461,866.364 415.601,866.364 C416.761114,866.364 417.667761,866.081284 418.335623,865.551808 C418.89852,865.105547 419.348404,864.494241 419.675708,863.710706 L419.675708,863.710706 L422.633023,864.371894 C422.042824,865.884553 421.262997,866.909044 420.208082,867.655924 C418.95343,868.544217 417.415798,868.98 415.601,868.98 C413.925515,868.98 412.492917,868.613362 411.307929,867.865213 C410.128608,867.120641 409.227518,866.10306 408.602969,864.813992 C407.966976,863.501302 407.647163,862.015075 407.636991,860.363012 C407.647153,858.676164 407.976179,857.178591 408.631865,855.872302 C409.276857,854.587319 410.193587,853.576498 411.383746,852.841399 C412.579424,852.102892 414.002483,851.74 415.649,851.74 Z M396.625,851.74 C398.085718,851.74 399.372578,851.974507 400.483787,852.451464 C401.539161,852.904455 402.322147,853.646683 402.835361,854.682729 C403.115413,855.233176 403.285567,855.795435 403.343523,856.370166 C403.393483,856.865606 403.423332,857.396024 403.433274,857.961407 L403.437,858.392 L403.437,868.5 L401.061,868.5 L401.061,865.04328 C400.137802,866.58738 399.220791,867.572475 398.149039,868.171556 C397.174162,868.716488 395.955038,868.98 394.497,868.98 C393.345319,868.98 392.368092,868.768372 391.569752,868.329778 C390.793215,867.903162 390.20327,867.337415 389.805102,866.627429 C389.403948,865.912117 389.205,865.124016 389.205,864.264 C389.205,863.50348 389.329007,862.817759 389.582648,862.208045 C389.829589,861.614437 390.210457,861.102378 390.723177,860.670364 C391.257047,860.220529 391.951134,859.856291 392.794715,859.571785 C393.471441,859.353151 394.265405,859.155808 395.17636,858.978822 C395.916804,858.834964 396.708028,858.6996 397.550367,858.57263 L398.191711,858.478975 L399.021871,858.36038 C399.301959,858.319986 399.585217,858.278757 399.871647,858.236694 C400.594385,856.549474 400.245268,855.805212 399.737286,855.27731 C399.122067,854.637964 398.100251,854.276 396.625,854.276 C395.769329,854.276 394.942619,854.474173 394.145393,854.872786 C393.508349,855.191308 393.011054,855.679785 392.661939,856.34591 L392.551067,856.574542 L389.976575,855.767088 C390.46516,854.525439 391.139132,853.654055 392.065843,852.970348 C393.192488,852.139134 394.71645,851.74 396.625,851.74 Z M399.98015,860.365217 C399.329651,860.468762 398.743868,860.563958 398.222801,860.650803 C397.383664,860.790659 396.662877,860.922502 396.06042,861.046221 C395.4426,861.173095 394.896593,861.314113 394.408832,861.473129 C393.914752,861.649586 393.498156,861.857206 393.157134,862.092394 C392.783192,862.350285 392.499144,862.649125 392.299527,862.983968 C392.090822,863.334053 391.981,863.743648 391.981,864.216 C391.981,864.747232 392.11769,865.213768 392.382878,865.618178 C392.643834,866.016137 393.021761,866.33755 393.525235,866.572941 C393.992816,866.79155 394.571516,866.908 395.265,866.908 C396.228124,866.908 397.048182,866.731426 397.728607,866.391214 C398.416602,866.047216 398.962452,865.623174 399.371363,865.12537 C399.780238,864.627609 400.05241,864.156677 400.198193,863.717804 C400.414278,863.188301 400.543041,862.580451 400.583183,861.612055 C400.594463,861.315848 400.599287,861.046928 399.98015,860.365217 Z M221.265,851.74 C222.725718,851.74 224.012578,851.974507 225.123787,852.451464 C226.179161,852.904455 226.962147,853.646683 227.475361,854.682729 C227.755413,855.233176 227.925567,855.795435 227.983523,856.370166 C228.033483,856.865606 228.063332,857.396024 228.073274,857.961407 L228.077,858.392 L228.077,868.5 L225.701,868.5 L225.701,865.04328 C224.777802,866.58738 223.860791,867.572475 222.789039,868.171556 C221.814162,868.716488 220.595038,868.98 219.137,868.98 C217.985319,868.98 217.008092,868.768372 216.209752,868.329778 C215.433215,867.903162 214.84327,867.337415 214.445102,866.627429 C214.043948,865.912117 213.845,865.124016 213.845,864.264 C213.845,863.50348 213.969007,862.817759 214.222648,862.208045 C214.469589,861.614437 214.850457,861.102378 215.363177,860.670364 C215.897047,860.220529 216.591134,859.856291 217.434715,859.571785 C218.111441,859.353151 218.905405,859.155808 219.81636,858.978822 C220.556804,858.834964 221.348028,858.6996 222.190367,858.57263 L222.831711,858.478975 L223.661871,858.36038 C223.941959,858.319986 224.225217,858.278757 224.511647,858.236694 C225.234385,856.549474 224.885268,855.805212 224.377286,855.27731 C223.762067,854.637964 222.740251,854.276 221.265,854.276 C220.409329,854.276 219.582619,854.474173 218.785393,854.872786 C218.148349,855.191308 217.651054,855.679785 217.301939,856.34591 L217.191067,856.574542 L214.616575,855.767088 C215.10516,854.525439 215.779132,853.654055 216.705843,852.970348 C217.832488,852.139134 219.35645,851.74 221.265,851.74 Z M224.62015,860.365217 C223.969651,860.468762 223.383868,860.563958 222.862801,860.650803 C222.023664,860.790659 221.302877,860.922502 220.70042,861.046221 C220.0826,861.173095 219.536593,861.314113 219.048832,861.473129 C218.554752,861.649586 218.138156,861.857206 217.797134,862.092394 C217.423192,862.350285 217.139144,862.649125 216.939527,862.983968 C216.730822,863.334053 216.621,863.743648 216.621,864.216 C216.621,864.747232 216.75769,865.213768 217.022878,865.618178 C217.283834,866.016137 217.661761,866.33755 218.165235,866.572941 C218.632816,866.79155 219.211516,866.908 219.905,866.908 C220.868124,866.908 221.688182,866.731426 222.368607,866.391214 C223.056602,866.047216 223.602452,865.623174 224.011363,865.12537 C224.420238,864.627609 224.69241,864.156677 224.838193,863.717804 C225.054278,863.188301 225.183041,862.580451 225.223183,861.612055 C225.234463,861.315848 225.239287,861.046928 224.62015,860.365217 Z M236.413,852.22 L236.413,868.5 L233.557,868.5 L233.557,852.22 L236.413,852.22 Z M203.345,851.724 C204.531125,851.724 205.512762,851.91297 206.284842,852.308909 C207.042961,852.697688 207.648055,853.190911 208.095451,853.793923 C208.551782,854.408978 208.889734,855.063422 209.108003,855.757913 C209.33181,856.470025 209.477553,857.143858 209.543682,857.779721 C209.610807,858.425156 209.645,858.949232 209.645,859.352 L209.645,859.352 L209.645,868.5 L206.741,868.5 L206.741,860.674803 C206.724209,859.864434 206.687218,859.359507 206.625843,858.815905 C206.545453,858.103876 206.358924,857.417658 206.06607,856.7573 C205.757953,856.062527 205.298676,855.491724 204.688509,855.044671 C204.076957,854.596603 203.254708,854.356 202.209,854.356 C201.665093,854.356 201.127012,854.444283 200.594886,854.621658 C200.043557,854.805435 199.542909,855.118984 199.095447,855.566447 C198.659363,856.00253 198.303789,856.596516 198.040551,857.356317 C197.791111,858.076292 197.661,858.996795 197.661,860.12 L197.661,860.12 L197.661,868.5 L194.757,868.5 L194.757,852.22 L197.197,852.22 L197.197,855.107285 C198.037847,853.902043 198.698304,853.233605 199.518354,852.709246 C200.554738,852.046559 201.832193,851.724 203.345,851.724 Z M183.329,851.724 C184.515125,851.724 185.496762,851.91297 186.268842,852.308909 C187.026961,852.697688 187.632055,853.190911 188.079451,853.793923 C188.535782,854.408978 188.873734,855.063422 189.092003,855.757913 C189.31581,856.470025 189.461553,857.143858 189.527682,857.779721 C189.594807,858.425156 189.629,858.949232 189.629,859.352 L189.629,859.352 L189.629,868.5 L186.725,868.5 L186.725,860.674803 C186.708209,859.864434 186.671218,859.359507 186.609843,858.815905 C186.529453,858.103876 186.342924,857.417658 186.05007,856.7573 C185.741953,856.062527 185.282676,855.491724 184.672509,855.044671 C184.060957,854.596603 183.238708,854.356 182.193,854.356 C181.649093,854.356 181.111012,854.444283 180.578886,854.621658 C180.027557,854.805435 179.526909,855.118984 179.079447,855.566447 C178.643363,856.00253 178.287789,856.596516 178.024551,857.356317 C177.775111,858.076292 177.645,858.996795 177.645,860.12 L177.645,860.12 L177.645,868.5 L174.741,868.5 L174.741,852.22 L177.181,852.22 L177.181,855.107285 C178.021847,853.902043 178.682304,853.233605 179.502354,852.709246 C180.538738,852.046559 181.816193,851.724 183.329,851.724 Z M373.413,846.46 L386.285,846.46 L386.285,849.316 L376.269,849.316 L376.269,856.06 L384.365,856.06 L384.365,858.9 L376.269,858.9 L376.269,868.5 L373.413,868.5 L373.413,846.46 Z M298.477,852.22 L298.477,868.5 L295.621,868.5 L295.621,852.22 L298.477,852.22 Z M298.477,846.06 L298.477,848.596 L295.621,848.596 L295.621,846.06 L298.477,846.06 Z M236.413,846.06 L236.413,848.596 L233.557,848.596 L233.557,846.06 L236.413,846.06 Z" id="song" stroke="#245633" opacity="0.200000003"></path>
            <rect id="album-art" stroke="#245633" opacity="0.200000003" x="129.125" y="165.5" width="599" height="599"></rect>
            <g id="spec" transform="translate(131.500000, 1053.000000)">
                <circle id="Oval" fill="#245633" cx="29.125" cy="4" r="4"></circle>
                <circle id="Oval-Copy" fill="#245633" cx="213" cy="4" r="4"></circle>
                <circle id="Oval-Copy-16" fill="#245633" cx="297.125" cy="4" r="4"></circle>
                <polygon id="Path-3" fill="#245633" fill-rule="nonzero" points="29.625 5 29.625 67 28.625 67 28.625 5"></polygon>
                <path d="M2.425,81 L2.425,77.544 C2.425,77.176 2.467,76.848 2.551,76.56 C2.635,76.272 2.758,76.027 2.92,75.825 C3.082,75.623 3.282,75.468 3.52,75.36 C3.758,75.252 4.033,75.198 4.345,75.198 C4.685,75.198 4.974,75.26 5.212,75.384 C5.45,75.508 5.644,75.683 5.794,75.909 C5.944,76.135 6.053,76.399 6.121,76.701 C6.189,77.003 6.223,77.334 6.223,77.694 L6.223,77.694 L6.223,81 L7.111,81 L7.111,77.436 C7.111,77.144 7.083,76.851 7.027,76.557 C6.971,76.263 6.881,75.985 6.757,75.723 C6.633,75.461 6.47,75.228 6.268,75.024 C6.066,74.82 5.82,74.658 5.53,74.538 C5.24,74.418 4.901,74.358 4.513,74.358 C3.985,74.358 3.517,74.474 3.109,74.706 C2.81757143,74.8717143 2.57104082,75.093551 2.36940816,75.3715102 L2.334,75.424 L2.335,72.36 L1.537,72.36 L1.537,81 L2.425,81 Z M14.359,78.006 C14.379,77.246 14.273,76.592 14.041,76.044 C13.809,75.496 13.467,75.075 13.015,74.781 C12.563,74.487 12.017,74.34 11.377,74.34 C10.753,74.34 10.212,74.48 9.754,74.76 C9.296,75.04 8.941,75.438 8.689,75.954 C8.437,76.47 8.311,77.082 8.311,77.79 C8.311,78.474 8.439,79.07 8.695,79.578 C8.951,80.086 9.31,80.48 9.772,80.76 C10.234,81.04 10.781,81.18 11.413,81.18 C12.041,81.18 12.604,81.025 13.102,80.715 C13.6,80.405 13.977,79.968 14.233,79.404 L14.233,79.404 L13.411,79.086 C13.211,79.49 12.938,79.799 12.592,80.013 C12.246,80.227 11.841,80.334 11.377,80.334 C10.697,80.334 10.172,80.109 9.802,79.659 C9.506,79.299 9.3284,78.82188 9.2692,78.22764 L9.252,78.006 L13.885,78.006 L14.359,78.006 Z M13.434,77.268 L9.271,77.268 L9.29695,77.05944 C9.36355,76.62696 9.49675,76.2636 9.69655,75.96936 L9.802,75.828 C10.172,75.376 10.705,75.15 11.401,75.15 C12.065,75.15 12.57,75.364 12.916,75.792 C13.1928,76.1344 13.364,76.60864 13.4296,77.21472 L13.434,77.268 Z M17.539,81.18 C18.187,81.18 18.743,81.034 19.207,80.742 C19.497,80.5595 19.7393438,80.3254375 19.9340313,80.0398125 L20.005,79.927 L20.005,81 L20.791,81 L20.791,76.974 C20.791,76.734 20.779,76.498 20.755,76.266 C20.731,76.034 20.679,75.824 20.599,75.636 C20.427,75.216 20.134,74.895 19.72,74.673 C19.306,74.451 18.803,74.34 18.211,74.34 C17.495,74.34 16.913,74.5 16.465,74.82 C16.017,75.14 15.719,75.59 15.571,76.17 L15.571,76.17 L16.429,76.422 C16.553,75.99 16.768,75.674 17.074,75.474 C17.38,75.274 17.755,75.174 18.199,75.174 C18.843,75.174 19.295,75.328 19.555,75.636 C19.815,75.944 19.939,76.418 19.927,77.058 L19.926,76.912 L19.77175,76.93275 C19.688,76.944 19.6013125,76.9553125 19.5116875,76.9666875 L19.234,77.001 C18.852,77.047 18.462,77.101 18.064,77.163 C17.666,77.225 17.303,77.296 16.975,77.376 C16.651,77.46 16.366,77.582 16.12,77.742 C15.874,77.902 15.68,78.107 15.538,78.357 C15.396,78.607 15.325,78.908 15.325,79.26 C15.325,79.604 15.407,79.922 15.571,80.214 C15.735,80.506 15.982,80.74 16.312,80.916 C16.642,81.092 17.051,81.18 17.539,81.18 Z M17.641,80.418 C17.293,80.418 17.014,80.36 16.804,80.244 C16.594,80.128 16.442,79.982 16.348,79.806 C16.254,79.63 16.207,79.448 16.207,79.26 C16.207,79.028 16.262,78.834 16.372,78.678 C16.482,78.522 16.623,78.397 16.795,78.303 C16.967,78.209 17.145,78.136 17.329,78.084 C17.601,78.012 17.906,77.95 18.244,77.898 C18.582,77.846 18.926,77.8 19.276,77.76 C19.3926667,77.7466667 19.5065556,77.7333333 19.6176667,77.72 L19.913,77.684 L19.91284,77.75724 C19.91236,77.79716 19.9118,77.8396 19.91116,77.88456 L19.909,78.027 C19.905,78.277 19.879,78.506 19.831,78.714 C19.775,79.038 19.653,79.329 19.465,79.587 C19.277,79.845 19.029,80.048 18.721,80.196 C18.413,80.344 18.053,80.418 17.641,80.418 Z M23.233,81 L23.233,77.766 C23.233,77.51 23.251,77.251 23.287,76.989 C23.323,76.727 23.395,76.479 23.503,76.245 C23.611,76.011 23.773,75.81 23.989,75.642 C24.225,75.45 24.483,75.338 24.763,75.306 C25.043,75.274 25.301,75.288 25.537,75.348 L25.537,75.348 L25.537,74.52 C25.349,74.472 25.141,74.455 24.913,74.469 C24.685,74.483 24.459,74.529 24.235,74.607 C24.011,74.685 23.815,74.798 23.647,74.946 C23.511,75.05 23.385,75.183 23.269,75.345 C23.2303333,75.399 23.1941111,75.4546667 23.1603333,75.512 L23.143,75.544 L23.143,74.52 L22.351,74.52 L22.351,81 L23.233,81 Z M29.128,81.09 C29.482,81.106 29.841,81.076 30.205,81 L30.205,81 L30.205,80.226 C29.741,80.302 29.352,80.314 29.038,80.262 C28.724,80.21 28.495,80.05 28.351,79.782 C28.275,79.642 28.234,79.481 28.228,79.299 C28.222,79.117 28.219,78.89 28.219,78.618 L28.219,75.276 L30.205,75.276 L30.205,74.52 L28.219,74.52 L28.219,72.72 L27.343,72.72 L27.343,74.52 L25.957,74.52 L25.957,75.276 L27.343,75.276 L27.3439375,78.8844375 C27.3451875,79.0336875 27.3476875,79.1741875 27.3514375,79.3059375 L27.358,79.497 C27.368,79.743 27.431,79.986 27.547,80.226 C27.691,80.514 27.902,80.726 28.18,80.862 C28.458,80.998 28.774,81.074 29.128,81.09 Z M34.963,77.598 L34.963,76.842 L31.363,76.842 L31.363,77.598 L34.963,77.598 Z M38.974,81.09 C39.328,81.106 39.687,81.076 40.051,81 L40.051,81 L40.051,80.226 C39.587,80.302 39.198,80.314 38.884,80.262 C38.57,80.21 38.341,80.05 38.197,79.782 C38.121,79.642 38.08,79.481 38.074,79.299 C38.068,79.117 38.065,78.89 38.065,78.618 L38.065,75.276 L40.051,75.276 L40.051,74.52 L38.065,74.52 L38.065,72.72 L37.189,72.72 L37.189,74.52 L35.803,74.52 L35.803,75.276 L37.189,75.276 L37.1899375,78.8844375 C37.1911875,79.0336875 37.1936875,79.1741875 37.1974375,79.3059375 L37.204,79.497 C37.214,79.743 37.277,79.986 37.393,80.226 C37.537,80.514 37.748,80.726 38.026,80.862 C38.304,80.998 38.62,81.074 38.974,81.09 Z M42.211,81 L42.211,77.544 C42.211,77.176 42.253,76.848 42.337,76.56 C42.421,76.272 42.544,76.027 42.706,75.825 C42.868,75.623 43.068,75.468 43.306,75.36 C43.544,75.252 43.819,75.198 44.131,75.198 C44.471,75.198 44.76,75.26 44.998,75.384 C45.236,75.508 45.43,75.683 45.58,75.909 C45.73,76.135 45.839,76.399 45.907,76.701 C45.975,77.003 46.009,77.334 46.009,77.694 L46.009,77.694 L46.009,81 L46.897,81 L46.897,77.436 C46.897,77.144 46.869,76.851 46.813,76.557 C46.757,76.263 46.667,75.985 46.543,75.723 C46.419,75.461 46.256,75.228 46.054,75.024 C45.852,74.82 45.606,74.658 45.316,74.538 C45.026,74.418 44.687,74.358 44.299,74.358 C43.771,74.358 43.303,74.474 42.895,74.706 C42.6035714,74.8717143 42.3570408,75.093551 42.1554082,75.3715102 L42.12,75.424 L42.121,72.36 L41.323,72.36 L41.323,81 L42.211,81 Z M49.459,73.29 L49.459,72.3 L48.577,72.3 L48.577,73.29 L49.459,73.29 Z M49.459,81 L49.459,74.52 L48.577,74.52 L48.577,81 L49.459,81 Z M52.141,81 L52.141,77.544 C52.141,77.176 52.183,76.848 52.267,76.56 C52.351,76.272 52.474,76.027 52.636,75.825 C52.798,75.623 52.998,75.468 53.236,75.36 C53.474,75.252 53.749,75.198 54.061,75.198 C54.401,75.198 54.69,75.26 54.928,75.384 C55.166,75.508 55.36,75.683 55.51,75.909 C55.66,76.135 55.769,76.399 55.837,76.701 C55.905,77.003 55.939,77.334 55.939,77.694 L55.939,77.694 L55.939,81 L56.827,81 L56.827,77.436 C56.827,77.144 56.799,76.851 56.743,76.557 C56.687,76.263 56.597,75.985 56.473,75.723 C56.349,75.461 56.186,75.228 55.984,75.024 C55.782,74.82 55.536,74.658 55.246,74.538 C54.956,74.418 54.617,74.358 54.229,74.358 C53.701,74.358 53.233,74.474 52.825,74.706 C52.5335714,74.8717143 52.2870408,75.093551 52.0854082,75.3715102 L52.05,75.424 L52.051,74.52 L51.253,74.52 L51.253,81 L52.141,81 Z" id="heart-thin" fill="#245633" fill-rule="nonzero"></path>
                <path d="M142.258,81.174 C143.054,81.174 143.679,80.999 144.133,80.649 C144.587,80.299 144.814,79.818 144.814,79.206 C144.814,78.87 144.742,78.588 144.598,78.36 C144.454,78.132 144.212,77.934 143.872,77.766 C143.532,77.598 143.064,77.438 142.468,77.286 C141.96,77.158 141.569,77.04 141.295,76.932 C141.021,76.824 140.832,76.709 140.728,76.587 C140.624,76.465 140.572,76.318 140.572,76.146 C140.572,75.838 140.716,75.591 141.004,75.405 C141.292,75.219 141.666,75.132 142.126,75.144 C142.614,75.152 143.017,75.267 143.335,75.489 C143.653,75.711 143.842,76.012 143.902,76.392 L143.902,76.392 L144.802,76.23 C144.758,75.854 144.618,75.524 144.382,75.24 C144.146,74.956 143.835,74.735 143.449,74.577 C143.063,74.419 142.626,74.34 142.138,74.34 C141.65,74.34 141.222,74.417 140.854,74.571 C140.486,74.725 140.198,74.941 139.99,75.219 C139.782,75.497 139.678,75.82 139.678,76.188 C139.678,76.492 139.748,76.749 139.888,76.959 C140.028,77.169 140.264,77.354 140.596,77.514 C140.928,77.674 141.388,77.834 141.976,77.994 C142.524,78.142 142.936,78.27 143.212,78.378 C143.488,78.486 143.671,78.603 143.761,78.729 C143.851,78.855 143.896,79.018 143.896,79.218 C143.896,79.574 143.754,79.855 143.47,80.061 C143.186,80.267 142.798,80.37 142.306,80.37 C141.802,80.37 141.379,80.261 141.037,80.043 C140.695,79.825 140.476,79.532 140.38,79.164 L140.38,79.164 L139.48,79.314 C139.592,79.898 139.893,80.354 140.383,80.682 C140.873,81.01 141.498,81.174 142.258,81.174 Z M147.028,81 L147.028,77.88 L150.208,81 L151.492,81 L148.06,77.76 L151.096,74.52 L149.92,74.52 L147.028,77.64 L147.028,72.36 L146.14,72.36 L146.134,81 L147.028,81 Z M153.094,73.29 L153.094,72.3 L152.212,72.3 L152.212,73.29 L153.094,73.29 Z M153.094,81 L153.094,74.52 L152.212,74.52 L152.212,81 L153.094,81 Z M155.776,83.88 L155.776,80.226 L155.817388,80.2792041 C155.910612,80.3919388 156.012,80.4958571 156.121551,80.5909592 L156.292,80.727 C156.704,81.029 157.208,81.18 157.804,81.18 C158.408,81.18 158.924,81.029 159.352,80.727 C159.78,80.425 160.108,80.016 160.336,79.5 C160.564,78.984 160.678,78.402 160.678,77.754 C160.678,77.11 160.565,76.53 160.339,76.014 C160.113,75.498 159.788,75.09 159.364,74.79 C158.94,74.49 158.432,74.34 157.84,74.34 C157.232,74.34 156.72,74.488 156.304,74.784 C156.066286,74.9531429 155.861551,75.1578776 155.689796,75.3982041 L155.68,75.413 L155.68,74.52 L154.888,74.52 L154.888,83.88 L155.776,83.88 Z M157.714,80.358 C157.254,80.358 156.874,80.246 156.574,80.022 C156.274,79.798 156.05,79.489 155.902,79.095 C155.754,78.701 155.68,78.254 155.68,77.754 C155.68,77.246 155.754,76.797 155.902,76.407 C156.05,76.017 156.273,75.712 156.571,75.492 C156.869,75.272 157.244,75.162 157.696,75.162 C158.16,75.162 158.543,75.276 158.845,75.504 C159.147,75.732 159.372,76.042 159.52,76.434 C159.668,76.826 159.742,77.266 159.742,77.754 C159.742,78.246 159.667,78.689 159.517,79.083 C159.367,79.477 159.142,79.788 158.842,80.016 C158.542,80.244 158.166,80.358 157.714,80.358 Z M165.478,77.598 L165.478,76.842 L161.878,76.842 L161.878,77.598 L165.478,77.598 Z M169.948,81.18 C170.552,81.18 171.068,81.029 171.496,80.727 C171.924,80.425 172.252,80.016 172.48,79.5 C172.708,78.984 172.822,78.402 172.822,77.754 C172.822,77.11 172.709,76.53 172.483,76.014 C172.257,75.498 171.932,75.09 171.508,74.79 C171.084,74.49 170.576,74.34 169.984,74.34 C169.376,74.34 168.864,74.488 168.448,74.784 C168.269714,74.9108571 168.10998,75.0577347 167.968796,75.2246327 L167.919,75.288 L167.92,72.36 L167.032,72.36 L167.032,81 L167.824,81 L167.823,80.098 C167.953707,80.2839864 168.101224,80.4483061 168.265551,80.5909592 L168.436,80.727 C168.848,81.029 169.352,81.18 169.948,81.18 Z M169.858,80.358 C169.398,80.358 169.018,80.246 168.718,80.022 C168.418,79.798 168.194,79.489 168.046,79.095 C167.898,78.701 167.824,78.254 167.824,77.754 C167.824,77.246 167.898,76.797 168.046,76.407 C168.194,76.017 168.417,75.712 168.715,75.492 C169.013,75.272 169.388,75.162 169.84,75.162 C170.304,75.162 170.687,75.276 170.989,75.504 C171.291,75.732 171.516,76.042 171.664,76.434 C171.812,76.826 171.886,77.266 171.886,77.754 C171.886,78.246 171.811,78.689 171.661,79.083 C171.511,79.477 171.286,79.788 170.986,80.016 C170.686,80.244 170.31,80.358 169.858,80.358 Z M175.996,81.18 C176.644,81.18 177.2,81.034 177.664,80.742 C177.954,80.5595 178.196344,80.3254375 178.391031,80.0398125 L178.462,79.927 L178.462,81 L179.248,81 L179.248,76.974 C179.248,76.734 179.236,76.498 179.212,76.266 C179.188,76.034 179.136,75.824 179.056,75.636 C178.884,75.216 178.591,74.895 178.177,74.673 C177.763,74.451 177.26,74.34 176.668,74.34 C175.952,74.34 175.37,74.5 174.922,74.82 C174.474,75.14 174.176,75.59 174.028,76.17 L174.028,76.17 L174.886,76.422 C175.01,75.99 175.225,75.674 175.531,75.474 C175.837,75.274 176.212,75.174 176.656,75.174 C177.3,75.174 177.752,75.328 178.012,75.636 C178.272,75.944 178.396,76.418 178.384,77.058 L178.383,76.912 L178.22875,76.93275 C178.145,76.944 178.058312,76.9553125 177.968687,76.9666875 L177.691,77.001 C177.309,77.047 176.919,77.101 176.521,77.163 C176.123,77.225 175.76,77.296 175.432,77.376 C175.108,77.46 174.823,77.582 174.577,77.742 C174.331,77.902 174.137,78.107 173.995,78.357 C173.853,78.607 173.782,78.908 173.782,79.26 C173.782,79.604 173.864,79.922 174.028,80.214 C174.192,80.506 174.439,80.74 174.769,80.916 C175.099,81.092 175.508,81.18 175.996,81.18 Z M176.098,80.418 C175.75,80.418 175.471,80.36 175.261,80.244 C175.051,80.128 174.899,79.982 174.805,79.806 C174.711,79.63 174.664,79.448 174.664,79.26 C174.664,79.028 174.719,78.834 174.829,78.678 C174.939,78.522 175.08,78.397 175.252,78.303 C175.424,78.209 175.602,78.136 175.786,78.084 C176.058,78.012 176.363,77.95 176.701,77.898 C177.039,77.846 177.383,77.8 177.733,77.76 C177.849667,77.7466667 177.963556,77.7333333 178.074667,77.72 L178.37,77.684 L178.36984,77.75724 C178.36936,77.79716 178.3688,77.8396 178.36816,77.88456 L178.366,78.027 C178.362,78.277 178.336,78.506 178.288,78.714 C178.232,79.038 178.11,79.329 177.922,79.587 C177.734,79.845 177.486,80.048 177.178,80.196 C176.87,80.344 176.51,80.418 176.098,80.418 Z M183.496,81.18 C184.14,81.18 184.694,81.029 185.158,80.727 C185.622,80.425 185.974,79.986 186.214,79.41 L186.214,79.41 L185.326,79.146 C185.166,79.534 184.931,79.829 184.621,80.031 C184.311,80.233 183.936,80.334 183.496,80.334 C182.8,80.334 182.276,80.099 181.924,79.629 C181.572,79.159 181.392,78.536 181.384,77.76 C181.388,77.256 181.466,76.81 181.618,76.422 C181.77,76.034 182.002,75.731 182.314,75.513 C182.626,75.295 183.02,75.186 183.496,75.186 C183.92,75.186 184.297,75.293 184.627,75.507 C184.957,75.721 185.198,76.022 185.35,76.41 L185.35,76.41 L186.214,76.134 C186.034,75.578 185.701,75.14 185.215,74.82 C184.729,74.5 184.158,74.34 183.502,74.34 C182.858,74.34 182.31,74.483 181.858,74.769 C181.406,75.055 181.06,75.455 180.82,75.969 C180.58,76.483 180.456,77.08 180.448,77.76 C180.456,78.428 180.577,79.019 180.811,79.533 C181.045,80.047 181.388,80.45 181.84,80.742 C182.292,81.034 182.844,81.18 183.496,81.18 Z M188.338,81 L188.338,77.88 L191.518,81 L192.802,81 L189.37,77.76 L192.406,74.52 L191.23,74.52 L188.338,77.64 L188.338,72.36 L187.45,72.36 L187.444,81 L188.338,81 Z M196.882,77.598 L196.882,76.842 L193.282,76.842 L193.282,77.598 L196.882,77.598 Z M199.324,81 L199.324,77.766 C199.324,77.51 199.342,77.251 199.378,76.989 C199.414,76.727 199.486,76.479 199.594,76.245 C199.702,76.011 199.864,75.81 200.08,75.642 C200.316,75.45 200.574,75.338 200.854,75.306 C201.134,75.274 201.392,75.288 201.628,75.348 L201.628,75.348 L201.628,74.52 C201.44,74.472 201.232,74.455 201.004,74.469 C200.776,74.483 200.55,74.529 200.326,74.607 C200.102,74.685 199.906,74.798 199.738,74.946 C199.602,75.05 199.476,75.183 199.36,75.345 C199.321333,75.399 199.285111,75.4546667 199.251333,75.512 L199.234,75.544 L199.234,74.52 L198.442,74.52 L198.442,81 L199.324,81 Z M208.456,78.006 C208.476,77.246 208.37,76.592 208.138,76.044 C207.906,75.496 207.564,75.075 207.112,74.781 C206.66,74.487 206.114,74.34 205.474,74.34 C204.85,74.34 204.309,74.48 203.851,74.76 C203.393,75.04 203.038,75.438 202.786,75.954 C202.534,76.47 202.408,77.082 202.408,77.79 C202.408,78.474 202.536,79.07 202.792,79.578 C203.048,80.086 203.407,80.48 203.869,80.76 C204.331,81.04 204.878,81.18 205.51,81.18 C206.138,81.18 206.701,81.025 207.199,80.715 C207.697,80.405 208.074,79.968 208.33,79.404 L208.33,79.404 L207.508,79.086 C207.308,79.49 207.035,79.799 206.689,80.013 C206.343,80.227 205.938,80.334 205.474,80.334 C204.794,80.334 204.269,80.109 203.899,79.659 C203.603,79.299 203.4254,78.82188 203.3662,78.22764 L203.349,78.006 L207.982,78.006 L208.456,78.006 Z M207.531,77.268 L203.368,77.268 L203.39395,77.05944 C203.46055,76.62696 203.59375,76.2636 203.79355,75.96936 L203.899,75.828 C204.269,75.376 204.802,75.15 205.498,75.15 C206.162,75.15 206.667,75.364 207.013,75.792 C207.2898,76.1344 207.461,76.60864 207.5266,77.21472 L207.531,77.268 Z M214.410204,75.3982041 C214.238449,75.1578776 214.033714,74.9531429 213.796,74.784 C213.38,74.488 212.868,74.34 212.26,74.34 C211.668,74.34 211.16,74.49 210.736,74.79 C210.312,75.09 209.987,75.498 209.761,76.014 C209.535,76.53 209.422,77.11 209.422,77.754 C209.422,78.402 209.536,78.984 209.764,79.5 C209.992,80.016 210.32,80.425 210.748,80.727 C211.176,81.029 211.692,81.18 212.296,81.18 C212.892,81.18 213.396,81.029 213.808,80.727 C213.984571,80.5975714 214.142776,80.4483061 214.282612,80.2792041 L214.318,80.233 L214.318,80.898 C214.321333,81.3213333 214.277444,81.6863333 214.186333,81.993 L214.126,82.17 C213.994,82.51 213.783,82.767 213.493,82.941 C213.203,83.115 212.824,83.202 212.356,83.202 C212.016,83.202 211.683,83.123 211.357,82.965 C211.031,82.807 210.778,82.548 210.598,82.188 L210.598,82.188 L209.8,82.632 C209.984,82.968 210.212,83.241 210.484,83.451 C210.756,83.661 211.053,83.815 211.375,83.913 C211.697,84.011 212.024,84.06 212.356,84.06 C212.884,84.06 213.341,83.984 213.727,83.832 C214.113,83.68 214.425,83.448 214.663,83.136 C214.901,82.824 215.058,82.426 215.134,81.942 C215.162,81.778 215.181,81.611 215.191,81.441 C215.201,81.271 215.206,81.094 215.206,80.91 L215.206,80.91 L215.206,74.52 L214.42,74.52 L214.42,75.414 L214.410204,75.3982041 Z M212.386,80.358 C211.934,80.358 211.558,80.244 211.258,80.016 C210.958,79.788 210.733,79.477 210.583,79.083 C210.433,78.689 210.358,78.246 210.358,77.754 C210.358,77.266 210.431,76.826 210.577,76.434 C210.723,76.042 210.948,75.732 211.252,75.504 C211.556,75.276 211.94,75.162 212.404,75.162 C212.856,75.162 213.231,75.272 213.529,75.492 C213.827,75.712 214.05,76.017 214.198,76.407 C214.346,76.797 214.42,77.246 214.42,77.754 C214.42,78.254 214.346,78.701 214.198,79.095 C214.05,79.489 213.826,79.798 213.526,80.022 C213.226,80.246 212.846,80.358 212.386,80.358 Z M219.364,81.162 C219.892,81.162 220.36,81.046 220.768,80.814 C221.059429,80.6482857 221.305959,80.426449 221.507592,80.1484898 L221.542,80.096 L221.542,81 L222.334,81 L222.334,74.52 L221.452,74.52 L221.452,77.976 C221.452,78.34 221.41,78.667 221.326,78.957 C221.242,79.247 221.119,79.493 220.957,79.695 C220.795,79.897 220.595,80.052 220.357,80.16 C220.119,80.268 219.844,80.322 219.532,80.322 C219.192,80.322 218.903,80.26 218.665,80.136 C218.427,80.012 218.233,79.837 218.083,79.611 C217.933,79.385 217.824,79.12 217.756,78.816 C217.688,78.512 217.654,78.182 217.654,77.826 L217.654,77.826 L217.654,74.52 L216.766,74.52 L216.766,78.084 C216.766,78.376 216.794,78.669 216.85,78.963 C216.906,79.257 216.996,79.535 217.12,79.797 C217.244,80.059 217.407,80.292 217.609,80.496 C217.811,80.7 218.057,80.862 218.347,80.982 C218.637,81.102 218.976,81.162 219.364,81.162 Z M225.016,81 L225.016,72.18 L224.134,72.18 L224.134,81 L225.016,81 Z M228.67,81.18 C229.318,81.18 229.874,81.034 230.338,80.742 C230.628,80.5595 230.870344,80.3254375 231.065031,80.0398125 L231.136,79.927 L231.136,81 L231.922,81 L231.922,76.974 C231.922,76.734 231.91,76.498 231.886,76.266 C231.862,76.034 231.81,75.824 231.73,75.636 C231.558,75.216 231.265,74.895 230.851,74.673 C230.437,74.451 229.934,74.34 229.342,74.34 C228.626,74.34 228.044,74.5 227.596,74.82 C227.148,75.14 226.85,75.59 226.702,76.17 L226.702,76.17 L227.56,76.422 C227.684,75.99 227.899,75.674 228.205,75.474 C228.511,75.274 228.886,75.174 229.33,75.174 C229.974,75.174 230.426,75.328 230.686,75.636 C230.946,75.944 231.07,76.418 231.058,77.058 L231.057,76.912 L230.90275,76.93275 C230.819,76.944 230.732313,76.9553125 230.642688,76.9666875 L230.365,77.001 C229.983,77.047 229.593,77.101 229.195,77.163 C228.797,77.225 228.434,77.296 228.106,77.376 C227.782,77.46 227.497,77.582 227.251,77.742 C227.005,77.902 226.811,78.107 226.669,78.357 C226.527,78.607 226.456,78.908 226.456,79.26 C226.456,79.604 226.538,79.922 226.702,80.214 C226.866,80.506 227.113,80.74 227.443,80.916 C227.773,81.092 228.182,81.18 228.67,81.18 Z M228.772,80.418 C228.424,80.418 228.145,80.36 227.935,80.244 C227.725,80.128 227.573,79.982 227.479,79.806 C227.385,79.63 227.338,79.448 227.338,79.26 C227.338,79.028 227.393,78.834 227.503,78.678 C227.613,78.522 227.754,78.397 227.926,78.303 C228.098,78.209 228.276,78.136 228.46,78.084 C228.732,78.012 229.037,77.95 229.375,77.898 C229.713,77.846 230.057,77.8 230.407,77.76 C230.523667,77.7466667 230.637556,77.7333333 230.748667,77.72 L231.044,77.684 L231.04384,77.75724 C231.04336,77.79716 231.0428,77.8396 231.04216,77.88456 L231.04,78.027 C231.036,78.277 231.01,78.506 230.962,78.714 C230.906,79.038 230.784,79.329 230.596,79.587 C230.408,79.845 230.16,80.048 229.852,80.196 C229.544,80.344 229.184,80.418 228.772,80.418 Z M234.364,81 L234.364,77.766 C234.364,77.51 234.382,77.251 234.418,76.989 C234.454,76.727 234.526,76.479 234.634,76.245 C234.742,76.011 234.904,75.81 235.12,75.642 C235.356,75.45 235.614,75.338 235.894,75.306 C236.174,75.274 236.432,75.288 236.668,75.348 L236.668,75.348 L236.668,74.52 C236.48,74.472 236.272,74.455 236.044,74.469 C235.816,74.483 235.59,74.529 235.366,74.607 C235.142,74.685 234.946,74.798 234.778,74.946 C234.642,75.05 234.516,75.183 234.4,75.345 C234.361333,75.399 234.325111,75.4546667 234.291333,75.512 L234.274,75.544 L234.274,74.52 L233.482,74.52 L233.482,81 L234.364,81 Z" id="skip-back-regular" fill="#245633" fill-rule="nonzero"></path>
                <path d="M360.258,81.174 C361.054,81.174 361.679,80.999 362.133,80.649 C362.587,80.299 362.814,79.818 362.814,79.206 C362.814,78.87 362.742,78.588 362.598,78.36 C362.454,78.132 362.212,77.934 361.872,77.766 C361.532,77.598 361.064,77.438 360.468,77.286 C359.96,77.158 359.569,77.04 359.295,76.932 C359.021,76.824 358.832,76.709 358.728,76.587 C358.624,76.465 358.572,76.318 358.572,76.146 C358.572,75.838 358.716,75.591 359.004,75.405 C359.292,75.219 359.666,75.132 360.126,75.144 C360.614,75.152 361.017,75.267 361.335,75.489 C361.653,75.711 361.842,76.012 361.902,76.392 L361.902,76.392 L362.802,76.23 C362.758,75.854 362.618,75.524 362.382,75.24 C362.146,74.956 361.835,74.735 361.449,74.577 C361.063,74.419 360.626,74.34 360.138,74.34 C359.65,74.34 359.222,74.417 358.854,74.571 C358.486,74.725 358.198,74.941 357.99,75.219 C357.782,75.497 357.678,75.82 357.678,76.188 C357.678,76.492 357.748,76.749 357.888,76.959 C358.028,77.169 358.264,77.354 358.596,77.514 C358.928,77.674 359.388,77.834 359.976,77.994 C360.524,78.142 360.936,78.27 361.212,78.378 C361.488,78.486 361.671,78.603 361.761,78.729 C361.851,78.855 361.896,79.018 361.896,79.218 C361.896,79.574 361.754,79.855 361.47,80.061 C361.186,80.267 360.798,80.37 360.306,80.37 C359.802,80.37 359.379,80.261 359.037,80.043 C358.695,79.825 358.476,79.532 358.38,79.164 L358.38,79.164 L357.48,79.314 C357.592,79.898 357.893,80.354 358.383,80.682 C358.873,81.01 359.498,81.174 360.258,81.174 Z M365.028,81 L365.028,77.88 L368.208,81 L369.492,81 L366.06,77.76 L369.096,74.52 L367.92,74.52 L365.028,77.64 L365.028,72.36 L364.14,72.36 L364.134,81 L365.028,81 Z M371.094,73.29 L371.094,72.3 L370.212,72.3 L370.212,73.29 L371.094,73.29 Z M371.094,81 L371.094,74.52 L370.212,74.52 L370.212,81 L371.094,81 Z M373.776,83.88 L373.776,80.226 L373.817388,80.2792041 C373.910612,80.3919388 374.012,80.4958571 374.121551,80.5909592 L374.292,80.727 C374.704,81.029 375.208,81.18 375.804,81.18 C376.408,81.18 376.924,81.029 377.352,80.727 C377.78,80.425 378.108,80.016 378.336,79.5 C378.564,78.984 378.678,78.402 378.678,77.754 C378.678,77.11 378.565,76.53 378.339,76.014 C378.113,75.498 377.788,75.09 377.364,74.79 C376.94,74.49 376.432,74.34 375.84,74.34 C375.232,74.34 374.72,74.488 374.304,74.784 C374.066286,74.9531429 373.861551,75.1578776 373.689796,75.3982041 L373.68,75.413 L373.68,74.52 L372.888,74.52 L372.888,83.88 L373.776,83.88 Z M375.714,80.358 C375.254,80.358 374.874,80.246 374.574,80.022 C374.274,79.798 374.05,79.489 373.902,79.095 C373.754,78.701 373.68,78.254 373.68,77.754 C373.68,77.246 373.754,76.797 373.902,76.407 C374.05,76.017 374.273,75.712 374.571,75.492 C374.869,75.272 375.244,75.162 375.696,75.162 C376.16,75.162 376.543,75.276 376.845,75.504 C377.147,75.732 377.372,76.042 377.52,76.434 C377.668,76.826 377.742,77.266 377.742,77.754 C377.742,78.246 377.667,78.689 377.517,79.083 C377.367,79.477 377.142,79.788 376.842,80.016 C376.542,80.244 376.166,80.358 375.714,80.358 Z M383.478,77.598 L383.478,76.842 L379.878,76.842 L379.878,77.598 L383.478,77.598 Z M386.562,81 L386.561,75.276 L388.332,75.276 L388.332,74.52 L386.561,74.52 L386.562,73.944 C386.562,73.6422857 386.62298,73.4096327 386.744939,73.2460408 L386.811,73.17 C386.977,73.006 387.228,72.924 387.564,72.924 L387.564,72.924 L388.332,72.924 L388.332,72.18 L387.504,72.18 C387.34,72.18 387.173,72.19 387.003,72.21 C386.833,72.23 386.67,72.273 386.514,72.339 C386.358,72.405 386.214,72.51 386.082,72.654 C385.962,72.782 385.874,72.921 385.818,73.071 C385.762,73.221 385.725,73.378 385.707,73.542 C385.689,73.706 385.68,73.872 385.68,74.04 L385.68,74.04 L385.679,74.52 L384.558,74.52 L384.558,75.276 L385.679,75.276 L385.68,81 L386.562,81 Z M391.998,81.18 C392.638,81.18 393.188,81.036 393.648,80.748 C394.108,80.46 394.46,80.059 394.704,79.545 C394.948,79.031 395.07,78.434 395.07,77.754 C395.07,77.086 394.949,76.495 394.707,75.981 C394.465,75.467 394.115,75.065 393.657,74.775 C393.199,74.485 392.646,74.34 391.998,74.34 C391.366,74.34 390.821,74.483 390.363,74.769 C389.905,75.055 389.552,75.454 389.304,75.966 C389.056,76.478 388.932,77.074 388.932,77.754 C388.932,78.422 389.054,79.014 389.298,79.53 C389.542,80.046 389.892,80.45 390.348,80.742 C390.804,81.034 391.354,81.18 391.998,81.18 Z M391.998,80.334 C391.298,80.334 390.768,80.099 390.408,79.629 C390.048,79.159 389.868,78.534 389.868,77.754 C389.868,77.25 389.945,76.805 390.099,76.419 C390.253,76.033 390.487,75.731 390.801,75.513 C391.115,75.295 391.514,75.186 391.998,75.186 C392.714,75.186 393.249,75.418 393.603,75.882 C393.957,76.346 394.134,76.97 394.134,77.754 C394.134,78.518 393.958,79.139 393.606,79.617 C393.254,80.095 392.718,80.334 391.998,80.334 Z M397.272,81 L397.272,77.766 C397.272,77.51 397.29,77.251 397.326,76.989 C397.362,76.727 397.434,76.479 397.542,76.245 C397.65,76.011 397.812,75.81 398.028,75.642 C398.264,75.45 398.522,75.338 398.802,75.306 C399.082,75.274 399.34,75.288 399.576,75.348 L399.576,75.348 L399.576,74.52 C399.388,74.472 399.18,74.455 398.952,74.469 C398.724,74.483 398.498,74.529 398.274,74.607 C398.05,74.685 397.854,74.798 397.686,74.946 C397.55,75.05 397.424,75.183 397.308,75.345 C397.269333,75.399 397.233111,75.4546667 397.199333,75.512 L397.181,75.546 L397.182,74.52 L396.39,74.52 L396.39,81 L397.272,81 Z M402.864,81 L404.478,75.84 L406.098,81 L406.866,81 L408.846,74.52 L407.97,74.52 L406.422,79.554 L404.88,74.52 L404.076,74.52 L402.534,79.554 L400.998,74.52 L400.116,74.514 L402.096,81 L402.864,81 Z M411.78,81.18 C412.428,81.18 412.984,81.034 413.448,80.742 C413.738,80.5595 413.980344,80.3254375 414.175031,80.0398125 L414.245,79.928 L414.246,81 L415.032,81 L415.032,76.974 C415.032,76.734 415.02,76.498 414.996,76.266 C414.972,76.034 414.92,75.824 414.84,75.636 C414.668,75.216 414.375,74.895 413.961,74.673 C413.547,74.451 413.044,74.34 412.452,74.34 C411.736,74.34 411.154,74.5 410.706,74.82 C410.258,75.14 409.96,75.59 409.812,76.17 L409.812,76.17 L410.67,76.422 C410.794,75.99 411.009,75.674 411.315,75.474 C411.621,75.274 411.996,75.174 412.44,75.174 C413.084,75.174 413.536,75.328 413.796,75.636 C414.056,75.944 414.18,76.418 414.168,77.058 L414.167,76.912 L414.01275,76.93275 C413.929,76.944 413.842312,76.9553125 413.752687,76.9666875 L413.475,77.001 C413.093,77.047 412.703,77.101 412.305,77.163 C411.907,77.225 411.544,77.296 411.216,77.376 C410.892,77.46 410.607,77.582 410.361,77.742 C410.115,77.902 409.921,78.107 409.779,78.357 C409.637,78.607 409.566,78.908 409.566,79.26 C409.566,79.604 409.648,79.922 409.812,80.214 C409.976,80.506 410.223,80.74 410.553,80.916 C410.883,81.092 411.292,81.18 411.78,81.18 Z M411.882,80.418 C411.534,80.418 411.255,80.36 411.045,80.244 C410.835,80.128 410.683,79.982 410.589,79.806 C410.495,79.63 410.448,79.448 410.448,79.26 C410.448,79.028 410.503,78.834 410.613,78.678 C410.723,78.522 410.864,78.397 411.036,78.303 C411.208,78.209 411.386,78.136 411.57,78.084 C411.842,78.012 412.147,77.95 412.485,77.898 C412.823,77.846 413.167,77.8 413.517,77.76 C413.633667,77.7466667 413.747556,77.7333333 413.858667,77.72 L414.154,77.684 L414.15384,77.75724 C414.15336,77.79716 414.1528,77.8396 414.15216,77.88456 L414.15,78.027 C414.146,78.277 414.12,78.506 414.072,78.714 C414.016,79.038 413.894,79.329 413.706,79.587 C413.518,79.845 413.27,80.048 412.962,80.196 C412.654,80.344 412.294,80.418 411.882,80.418 Z M417.474,81 L417.474,77.766 C417.474,77.51 417.492,77.251 417.528,76.989 C417.564,76.727 417.636,76.479 417.744,76.245 C417.852,76.011 418.014,75.81 418.23,75.642 C418.466,75.45 418.724,75.338 419.004,75.306 C419.284,75.274 419.542,75.288 419.778,75.348 L419.778,75.348 L419.778,74.52 C419.59,74.472 419.382,74.455 419.154,74.469 C418.926,74.483 418.7,74.529 418.476,74.607 C418.252,74.685 418.056,74.798 417.888,74.946 C417.752,75.05 417.626,75.183 417.51,75.345 C417.471333,75.399 417.435111,75.4546667 417.401333,75.512 L417.383,75.546 L417.384,74.52 L416.592,74.52 L416.592,81 L417.474,81 Z M423.432,81.18 C424.028,81.18 424.532,81.029 424.944,80.727 C425.179429,80.5544286 425.382204,80.3465918 425.552327,80.1034898 L425.556,80.098 L425.556,81 L426.348,81 L426.348,72.36 L425.46,72.36 L425.46,75.288 L425.411204,75.2246327 C425.317082,75.1133673 425.214714,75.011 425.104102,74.9175306 L424.932,74.784 C424.516,74.488 424.004,74.34 423.396,74.34 C422.804,74.34 422.296,74.49 421.872,74.79 C421.448,75.09 421.123,75.498 420.897,76.014 C420.671,76.53 420.558,77.11 420.558,77.754 C420.558,78.402 420.672,78.984 420.9,79.5 C421.128,80.016 421.456,80.425 421.884,80.727 C422.312,81.029 422.828,81.18 423.432,81.18 Z M423.522,80.358 C423.07,80.358 422.694,80.244 422.394,80.016 C422.094,79.788 421.869,79.477 421.719,79.083 C421.569,78.689 421.494,78.246 421.494,77.754 C421.494,77.266 421.567,76.826 421.713,76.434 C421.859,76.042 422.084,75.732 422.388,75.504 C422.692,75.276 423.076,75.162 423.54,75.162 C423.992,75.162 424.367,75.272 424.665,75.492 C424.963,75.712 425.186,76.017 425.334,76.407 C425.482,76.797 425.556,77.246 425.556,77.754 C425.556,78.254 425.482,78.701 425.334,79.095 C425.186,79.489 424.962,79.798 424.662,80.022 C424.362,80.246 423.982,80.358 423.522,80.358 Z M431.508,77.598 L431.508,76.842 L427.908,76.842 L427.908,77.598 L431.508,77.598 Z M433.95,81 L433.95,77.766 C433.95,77.51 433.968,77.251 434.004,76.989 C434.04,76.727 434.112,76.479 434.22,76.245 C434.328,76.011 434.49,75.81 434.706,75.642 C434.942,75.45 435.2,75.338 435.48,75.306 C435.76,75.274 436.018,75.288 436.254,75.348 L436.254,75.348 L436.254,74.52 C436.066,74.472 435.858,74.455 435.63,74.469 C435.402,74.483 435.176,74.529 434.952,74.607 C434.728,74.685 434.532,74.798 434.364,74.946 C434.228,75.05 434.102,75.183 433.986,75.345 C433.947333,75.399 433.911111,75.4546667 433.877333,75.512 L433.86,75.544 L433.86,74.52 L433.068,74.52 L433.068,81 L433.95,81 Z M443.082,78.006 C443.102,77.246 442.996,76.592 442.764,76.044 C442.532,75.496 442.19,75.075 441.738,74.781 C441.286,74.487 440.74,74.34 440.1,74.34 C439.476,74.34 438.935,74.48 438.477,74.76 C438.019,75.04 437.664,75.438 437.412,75.954 C437.16,76.47 437.034,77.082 437.034,77.79 C437.034,78.474 437.162,79.07 437.418,79.578 C437.674,80.086 438.033,80.48 438.495,80.76 C438.957,81.04 439.504,81.18 440.136,81.18 C440.764,81.18 441.327,81.025 441.825,80.715 C442.323,80.405 442.7,79.968 442.956,79.404 L442.956,79.404 L442.134,79.086 C441.934,79.49 441.661,79.799 441.315,80.013 C440.969,80.227 440.564,80.334 440.1,80.334 C439.42,80.334 438.895,80.109 438.525,79.659 C438.229,79.299 438.0514,78.82188 437.9922,78.22764 L437.975,78.006 L442.608,78.006 L443.082,78.006 Z M442.157,77.268 L437.994,77.268 L438.01995,77.05944 C438.08655,76.62696 438.21975,76.2636 438.41955,75.96936 L438.525,75.828 C438.895,75.376 439.428,75.15 440.124,75.15 C440.788,75.15 441.293,75.364 441.639,75.792 C441.9158,76.1344 442.087,76.60864 442.1526,77.21472 L442.157,77.268 Z M446.982,84.06 C447.51,84.06 447.967,83.984 448.353,83.832 C448.739,83.68 449.051,83.448 449.289,83.136 C449.527,82.824 449.684,82.426 449.76,81.942 C449.788,81.778 449.807,81.611 449.817,81.441 C449.827,81.271 449.832,81.094 449.832,80.91 L449.832,80.91 L449.832,74.52 L449.046,74.52 L449.045,75.413 L449.036204,75.3982041 C448.907388,75.2179592 448.76002,75.0577347 448.594102,74.9175306 L448.422,74.784 C448.006,74.488 447.494,74.34 446.886,74.34 C446.294,74.34 445.786,74.49 445.362,74.79 C444.938,75.09 444.613,75.498 444.387,76.014 C444.161,76.53 444.048,77.11 444.048,77.754 C444.048,78.402 444.162,78.984 444.39,79.5 C444.618,80.016 444.946,80.425 445.374,80.727 C445.802,81.029 446.318,81.18 446.922,81.18 C447.518,81.18 448.022,81.029 448.434,80.727 C448.610571,80.5975714 448.768776,80.4483061 448.908612,80.2792041 L448.944,80.233 L448.944,80.898 C448.947333,81.3213333 448.903444,81.6863333 448.812333,81.993 L448.752,82.17 C448.62,82.51 448.409,82.767 448.119,82.941 C447.829,83.115 447.45,83.202 446.982,83.202 C446.642,83.202 446.309,83.123 445.983,82.965 C445.657,82.807 445.404,82.548 445.224,82.188 L445.224,82.188 L444.426,82.632 C444.61,82.968 444.838,83.241 445.11,83.451 C445.382,83.661 445.679,83.815 446.001,83.913 C446.323,84.011 446.65,84.06 446.982,84.06 Z M447.012,80.358 C446.56,80.358 446.184,80.244 445.884,80.016 C445.584,79.788 445.359,79.477 445.209,79.083 C445.059,78.689 444.984,78.246 444.984,77.754 C444.984,77.266 445.057,76.826 445.203,76.434 C445.349,76.042 445.574,75.732 445.878,75.504 C446.182,75.276 446.566,75.162 447.03,75.162 C447.482,75.162 447.857,75.272 448.155,75.492 C448.453,75.712 448.676,76.017 448.824,76.407 C448.972,76.797 449.046,77.246 449.046,77.754 C449.046,78.254 448.972,78.701 448.824,79.095 C448.676,79.489 448.452,79.798 448.152,80.022 C447.852,80.246 447.472,80.358 447.012,80.358 Z M453.99,81.162 C454.518,81.162 454.986,81.046 455.394,80.814 C455.685429,80.6482857 455.931959,80.426449 456.133592,80.1484898 L456.167,80.098 L456.168,81 L456.96,81 L456.96,74.52 L456.078,74.52 L456.078,77.976 C456.078,78.34 456.036,78.667 455.952,78.957 C455.868,79.247 455.745,79.493 455.583,79.695 C455.421,79.897 455.221,80.052 454.983,80.16 C454.745,80.268 454.47,80.322 454.158,80.322 C453.818,80.322 453.529,80.26 453.291,80.136 C453.053,80.012 452.859,79.837 452.709,79.611 C452.559,79.385 452.45,79.12 452.382,78.816 C452.314,78.512 452.28,78.182 452.28,77.826 L452.28,77.826 L452.28,74.52 L451.392,74.52 L451.392,78.084 C451.392,78.376 451.42,78.669 451.476,78.963 C451.532,79.257 451.622,79.535 451.746,79.797 C451.87,80.059 452.033,80.292 452.235,80.496 C452.437,80.7 452.683,80.862 452.973,80.982 C453.263,81.102 453.602,81.162 453.99,81.162 Z M459.642,81 L459.642,72.18 L458.76,72.18 L458.76,81 L459.642,81 Z M463.296,81.18 C463.944,81.18 464.5,81.034 464.964,80.742 C465.254,80.5595 465.496344,80.3254375 465.691031,80.0398125 L465.762,79.927 L465.762,81 L466.548,81 L466.548,76.974 C466.548,76.734 466.536,76.498 466.512,76.266 C466.488,76.034 466.436,75.824 466.356,75.636 C466.184,75.216 465.891,74.895 465.477,74.673 C465.063,74.451 464.56,74.34 463.968,74.34 C463.252,74.34 462.67,74.5 462.222,74.82 C461.774,75.14 461.476,75.59 461.328,76.17 L461.328,76.17 L462.186,76.422 C462.31,75.99 462.525,75.674 462.831,75.474 C463.137,75.274 463.512,75.174 463.956,75.174 C464.6,75.174 465.052,75.328 465.312,75.636 C465.572,75.944 465.696,76.418 465.684,77.058 L465.683,76.912 L465.52875,76.93275 C465.445,76.944 465.358313,76.9553125 465.268687,76.9666875 L464.991,77.001 C464.609,77.047 464.219,77.101 463.821,77.163 C463.423,77.225 463.06,77.296 462.732,77.376 C462.408,77.46 462.123,77.582 461.877,77.742 C461.631,77.902 461.437,78.107 461.295,78.357 C461.153,78.607 461.082,78.908 461.082,79.26 C461.082,79.604 461.164,79.922 461.328,80.214 C461.492,80.506 461.739,80.74 462.069,80.916 C462.399,81.092 462.808,81.18 463.296,81.18 Z M463.398,80.418 C463.05,80.418 462.771,80.36 462.561,80.244 C462.351,80.128 462.199,79.982 462.105,79.806 C462.011,79.63 461.964,79.448 461.964,79.26 C461.964,79.028 462.019,78.834 462.129,78.678 C462.239,78.522 462.38,78.397 462.552,78.303 C462.724,78.209 462.902,78.136 463.086,78.084 C463.358,78.012 463.663,77.95 464.001,77.898 C464.339,77.846 464.683,77.8 465.033,77.76 C465.149667,77.7466667 465.263556,77.7333333 465.374667,77.72 L465.67,77.684 L465.66984,77.75724 C465.66936,77.79716 465.6688,77.8396 465.66816,77.88456 L465.666,78.027 C465.662,78.277 465.636,78.506 465.588,78.714 C465.532,79.038 465.41,79.329 465.222,79.587 C465.034,79.845 464.786,80.048 464.478,80.196 C464.17,80.344 463.81,80.418 463.398,80.418 Z M468.99,81 L468.99,77.766 C468.99,77.51 469.008,77.251 469.044,76.989 C469.08,76.727 469.152,76.479 469.26,76.245 C469.368,76.011 469.53,75.81 469.746,75.642 C469.982,75.45 470.24,75.338 470.52,75.306 C470.8,75.274 471.058,75.288 471.294,75.348 L471.294,75.348 L471.294,74.52 C471.106,74.472 470.898,74.455 470.67,74.469 C470.442,74.483 470.216,74.529 469.992,74.607 C469.768,74.685 469.572,74.798 469.404,74.946 C469.268,75.05 469.142,75.183 469.026,75.345 C468.987333,75.399 468.951111,75.4546667 468.917333,75.512 L468.9,75.544 L468.9,74.52 L468.108,74.52 L468.108,81 L468.99,81 Z" id="skip-forward-regular" fill="#245633" fill-rule="nonzero"></path>
                <path d="M531.81,83.88 L531.81,80.226 L531.851388,80.2792041 C531.944612,80.3919388 532.046,80.4958571 532.155551,80.5909592 L532.326,80.727 C532.738,81.029 533.242,81.18 533.838,81.18 C534.442,81.18 534.958,81.029 535.386,80.727 C535.814,80.425 536.142,80.016 536.37,79.5 C536.598,78.984 536.712,78.402 536.712,77.754 C536.712,77.11 536.599,76.53 536.373,76.014 C536.147,75.498 535.822,75.09 535.398,74.79 C534.974,74.49 534.466,74.34 533.874,74.34 C533.266,74.34 532.754,74.488 532.338,74.784 C532.100286,74.9531429 531.895551,75.1578776 531.723796,75.3982041 L531.714,75.413 L531.714,74.52 L530.922,74.52 L530.922,83.88 L531.81,83.88 Z M533.748,80.358 C533.288,80.358 532.908,80.246 532.608,80.022 C532.308,79.798 532.084,79.489 531.936,79.095 C531.788,78.701 531.714,78.254 531.714,77.754 C531.714,77.246 531.788,76.797 531.936,76.407 C532.084,76.017 532.307,75.712 532.605,75.492 C532.903,75.272 533.278,75.162 533.73,75.162 C534.194,75.162 534.577,75.276 534.879,75.504 C535.181,75.732 535.406,76.042 535.554,76.434 C535.702,76.826 535.776,77.266 535.776,77.754 C535.776,78.246 535.701,78.689 535.551,79.083 C535.401,79.477 535.176,79.788 534.876,80.016 C534.576,80.244 534.2,80.358 533.748,80.358 Z M538.914,81 L538.914,77.766 C538.914,77.51 538.932,77.251 538.968,76.989 C539.004,76.727 539.076,76.479 539.184,76.245 C539.292,76.011 539.454,75.81 539.67,75.642 C539.906,75.45 540.164,75.338 540.444,75.306 C540.724,75.274 540.982,75.288 541.218,75.348 L541.218,75.348 L541.218,74.52 C541.03,74.472 540.822,74.455 540.594,74.469 C540.366,74.483 540.14,74.529 539.916,74.607 C539.692,74.685 539.496,74.798 539.328,74.946 C539.192,75.05 539.066,75.183 538.95,75.345 C538.911333,75.399 538.875111,75.4546667 538.841333,75.512 L538.824,75.544 L538.824,74.52 L538.032,74.52 L538.032,81 L538.914,81 Z M545.064,81.18 C545.704,81.18 546.254,81.036 546.714,80.748 C547.174,80.46 547.526,80.059 547.77,79.545 C548.014,79.031 548.136,78.434 548.136,77.754 C548.136,77.086 548.015,76.495 547.773,75.981 C547.531,75.467 547.181,75.065 546.723,74.775 C546.265,74.485 545.712,74.34 545.064,74.34 C544.432,74.34 543.887,74.483 543.429,74.769 C542.971,75.055 542.618,75.454 542.37,75.966 C542.122,76.478 541.998,77.074 541.998,77.754 C541.998,78.422 542.12,79.014 542.364,79.53 C542.608,80.046 542.958,80.45 543.414,80.742 C543.87,81.034 544.42,81.18 545.064,81.18 Z M545.064,80.334 C544.364,80.334 543.834,80.099 543.474,79.629 C543.114,79.159 542.934,78.534 542.934,77.754 C542.934,77.25 543.011,76.805 543.165,76.419 C543.319,76.033 543.553,75.731 543.867,75.513 C544.181,75.295 544.58,75.186 545.064,75.186 C545.78,75.186 546.315,75.418 546.669,75.882 C547.023,76.346 547.2,76.97 547.2,77.754 C547.2,78.518 547.024,79.139 546.672,79.617 C546.32,80.095 545.784,80.334 545.064,80.334 Z M550.338,81 L550.338,77.544 C550.338,77.176 550.38,76.848 550.464,76.56 C550.548,76.272 550.671,76.027 550.833,75.825 C550.995,75.623 551.195,75.468 551.433,75.36 C551.671,75.252 551.946,75.198 552.258,75.198 C552.598,75.198 552.887,75.26 553.125,75.384 C553.363,75.508 553.557,75.683 553.707,75.909 C553.857,76.135 553.966,76.399 554.034,76.701 C554.102,77.003 554.136,77.334 554.136,77.694 L554.136,77.694 L554.136,81 L555.024,81 L555.024,77.436 C555.024,77.144 554.996,76.851 554.94,76.557 C554.884,76.263 554.794,75.985 554.67,75.723 C554.546,75.461 554.383,75.228 554.181,75.024 C553.979,74.82 553.733,74.658 553.443,74.538 C553.153,74.418 552.814,74.358 552.426,74.358 C551.898,74.358 551.43,74.474 551.022,74.706 C550.730571,74.8717143 550.484041,75.093551 550.282408,75.3715102 L550.248,75.423 L550.248,72.36 L549.45,72.36 L549.45,81 L550.338,81 Z M557.586,73.29 L557.586,72.3 L556.704,72.3 L556.704,73.29 L557.586,73.29 Z M557.586,81 L557.586,74.52 L556.704,74.52 L556.704,81 L557.586,81 Z M562.296,81.18 C562.9,81.18 563.416,81.029 563.844,80.727 C564.272,80.425 564.6,80.016 564.828,79.5 C565.056,78.984 565.17,78.402 565.17,77.754 C565.17,77.11 565.057,76.53 564.831,76.014 C564.605,75.498 564.28,75.09 563.856,74.79 C563.432,74.49 562.924,74.34 562.332,74.34 C561.724,74.34 561.212,74.488 560.796,74.784 C560.617714,74.9108571 560.45798,75.0577347 560.316796,75.2246327 L560.268,75.287 L560.268,72.36 L559.38,72.36 L559.38,81 L560.172,81 L560.172,80.099 C560.302041,80.2843197 560.449224,80.4483061 560.613551,80.5909592 L560.784,80.727 C561.196,81.029 561.7,81.18 562.296,81.18 Z M562.206,80.358 C561.746,80.358 561.366,80.246 561.066,80.022 C560.766,79.798 560.542,79.489 560.394,79.095 C560.246,78.701 560.172,78.254 560.172,77.754 C560.172,77.246 560.246,76.797 560.394,76.407 C560.542,76.017 560.765,75.712 561.063,75.492 C561.361,75.272 561.736,75.162 562.188,75.162 C562.652,75.162 563.035,75.276 563.337,75.504 C563.639,75.732 563.864,76.042 564.012,76.434 C564.16,76.826 564.234,77.266 564.234,77.754 C564.234,78.246 564.159,78.689 564.009,79.083 C563.859,79.477 563.634,79.788 563.334,80.016 C563.034,80.244 562.658,80.358 562.206,80.358 Z M567.492,73.29 L567.492,72.3 L566.61,72.3 L566.61,73.29 L567.492,73.29 Z M567.492,81 L567.492,74.52 L566.61,74.52 L566.61,81 L567.492,81 Z M571.743,81.09 C572.097,81.106 572.456,81.076 572.82,81 L572.82,81 L572.82,80.226 C572.356,80.302 571.967,80.314 571.653,80.262 C571.339,80.21 571.11,80.05 570.966,79.782 C570.89,79.642 570.849,79.481 570.843,79.299 C570.837,79.117 570.834,78.89 570.834,78.618 L570.834,78.618 L570.833,75.276 L572.82,75.276 L572.82,74.52 L570.833,74.52 L570.834,72.72 L569.958,72.72 L569.958,74.52 L568.572,74.52 L568.572,75.276 L569.958,75.276 L569.958938,78.8844375 C569.960187,79.0336875 569.962688,79.1741875 569.966437,79.3059375 L569.973,79.497 C569.983,79.743 570.046,79.986 570.162,80.226 C570.306,80.514 570.517,80.726 570.795,80.862 C571.073,80.998 571.389,81.074 571.743,81.09 Z M577.578,77.598 L577.578,76.842 L573.978,76.842 L573.978,77.598 L577.578,77.598 Z M581.589,81.09 C581.943,81.106 582.302,81.076 582.666,81 L582.666,81 L582.666,80.226 C582.202,80.302 581.813,80.314 581.499,80.262 C581.185,80.21 580.956,80.05 580.812,79.782 C580.736,79.642 580.695,79.481 580.689,79.299 C580.683,79.117 580.68,78.89 580.68,78.618 L580.68,78.618 L580.679,75.276 L582.666,75.276 L582.666,74.52 L580.679,74.52 L580.68,72.72 L579.804,72.72 L579.803,74.52 L578.418,74.52 L578.418,75.276 L579.803,75.276 L579.804,78.654 C579.804,78.891 579.806812,79.1083125 579.812437,79.3059375 L579.819,79.497 C579.829,79.743 579.892,79.986 580.008,80.226 C580.152,80.514 580.363,80.726 580.641,80.862 C580.919,80.998 581.235,81.074 581.589,81.09 Z M584.826,81 L584.826,77.544 C584.826,77.176 584.868,76.848 584.952,76.56 C585.036,76.272 585.159,76.027 585.321,75.825 C585.483,75.623 585.683,75.468 585.921,75.36 C586.159,75.252 586.434,75.198 586.746,75.198 C587.086,75.198 587.375,75.26 587.613,75.384 C587.851,75.508 588.045,75.683 588.195,75.909 C588.345,76.135 588.454,76.399 588.522,76.701 C588.59,77.003 588.624,77.334 588.624,77.694 L588.624,77.694 L588.624,81 L589.512,81 L589.512,77.436 C589.512,77.144 589.484,76.851 589.428,76.557 C589.372,76.263 589.282,75.985 589.158,75.723 C589.034,75.461 588.871,75.228 588.669,75.024 C588.467,74.82 588.221,74.658 587.931,74.538 C587.641,74.418 587.302,74.358 586.914,74.358 C586.386,74.358 585.918,74.474 585.51,74.706 C585.218571,74.8717143 584.972041,75.093551 584.770408,75.3715102 L584.735,75.424 L584.736,72.36 L583.938,72.36 L583.938,81 L584.826,81 Z M592.074,73.29 L592.074,72.3 L591.192,72.3 L591.192,73.29 L592.074,73.29 Z M592.074,81 L592.074,74.52 L591.192,74.52 L591.192,81 L592.074,81 Z M594.756,81 L594.756,77.544 C594.756,77.176 594.798,76.848 594.882,76.56 C594.966,76.272 595.089,76.027 595.251,75.825 C595.413,75.623 595.613,75.468 595.851,75.36 C596.089,75.252 596.364,75.198 596.676,75.198 C597.016,75.198 597.305,75.26 597.543,75.384 C597.781,75.508 597.975,75.683 598.125,75.909 C598.275,76.135 598.384,76.399 598.452,76.701 C598.52,77.003 598.554,77.334 598.554,77.694 L598.554,77.694 L598.554,81 L599.442,81 L599.442,77.436 C599.442,77.144 599.414,76.851 599.358,76.557 C599.302,76.263 599.212,75.985 599.088,75.723 C598.964,75.461 598.801,75.228 598.599,75.024 C598.397,74.82 598.151,74.658 597.861,74.538 C597.571,74.418 597.232,74.358 596.844,74.358 C596.316,74.358 595.848,74.474 595.44,74.706 C595.148571,74.8717143 594.902041,75.093551 594.700408,75.3715102 L594.666,75.423 L594.666,74.52 L593.868,74.52 L593.868,81 L594.756,81 Z" id="prohibit-thin" fill="#245633" fill-rule="nonzero"></path>
                <path d="M272.347,83.88 L272.347,80.226 L272.388388,80.2792041 C272.481612,80.3919388 272.583,80.4958571 272.692551,80.5909592 L272.863,80.727 C273.275,81.029 273.779,81.18 274.375,81.18 C274.979,81.18 275.495,81.029 275.923,80.727 C276.351,80.425 276.679,80.016 276.907,79.5 C277.135,78.984 277.249,78.402 277.249,77.754 C277.249,77.11 277.136,76.53 276.91,76.014 C276.684,75.498 276.359,75.09 275.935,74.79 C275.511,74.49 275.003,74.34 274.411,74.34 C273.803,74.34 273.291,74.488 272.875,74.784 C272.637286,74.9531429 272.432551,75.1578776 272.260796,75.3982041 L272.251,75.413 L272.251,74.52 L271.459,74.52 L271.459,83.88 L272.347,83.88 Z M274.285,80.358 C273.825,80.358 273.445,80.246 273.145,80.022 C272.845,79.798 272.621,79.489 272.473,79.095 C272.325,78.701 272.251,78.254 272.251,77.754 C272.251,77.246 272.325,76.797 272.473,76.407 C272.621,76.017 272.844,75.712 273.142,75.492 C273.44,75.272 273.815,75.162 274.267,75.162 C274.731,75.162 275.114,75.276 275.416,75.504 C275.718,75.732 275.943,76.042 276.091,76.434 C276.239,76.826 276.313,77.266 276.313,77.754 C276.313,78.246 276.238,78.689 276.088,79.083 C275.938,79.477 275.713,79.788 275.413,80.016 C275.113,80.244 274.737,80.358 274.285,80.358 Z M280.423,81.18 C281.071,81.18 281.627,81.034 282.091,80.742 C282.381,80.5595 282.623344,80.3254375 282.818031,80.0398125 L282.889,79.927 L282.889,81 L283.675,81 L283.675,76.974 C283.675,76.734 283.663,76.498 283.639,76.266 C283.615,76.034 283.563,75.824 283.483,75.636 C283.311,75.216 283.018,74.895 282.604,74.673 C282.19,74.451 281.687,74.34 281.095,74.34 C280.379,74.34 279.797,74.5 279.349,74.82 C278.901,75.14 278.603,75.59 278.455,76.17 L278.455,76.17 L279.313,76.422 C279.437,75.99 279.652,75.674 279.958,75.474 C280.264,75.274 280.639,75.174 281.083,75.174 C281.727,75.174 282.179,75.328 282.439,75.636 C282.699,75.944 282.823,76.418 282.811,77.058 L282.81,76.912 L282.65575,76.93275 C282.572,76.944 282.485313,76.9553125 282.395688,76.9666875 L282.118,77.001 C281.736,77.047 281.346,77.101 280.948,77.163 C280.55,77.225 280.187,77.296 279.859,77.376 C279.535,77.46 279.25,77.582 279.004,77.742 C278.758,77.902 278.564,78.107 278.422,78.357 C278.28,78.607 278.209,78.908 278.209,79.26 C278.209,79.604 278.291,79.922 278.455,80.214 C278.619,80.506 278.866,80.74 279.196,80.916 C279.526,81.092 279.935,81.18 280.423,81.18 Z M280.525,80.418 C280.177,80.418 279.898,80.36 279.688,80.244 C279.478,80.128 279.326,79.982 279.232,79.806 C279.138,79.63 279.091,79.448 279.091,79.26 C279.091,79.028 279.146,78.834 279.256,78.678 C279.366,78.522 279.507,78.397 279.679,78.303 C279.851,78.209 280.029,78.136 280.213,78.084 C280.485,78.012 280.79,77.95 281.128,77.898 C281.466,77.846 281.81,77.8 282.16,77.76 C282.276667,77.7466667 282.390556,77.7333333 282.501667,77.72 L282.797,77.684 L282.79684,77.75724 C282.79636,77.79716 282.7958,77.8396 282.79516,77.88456 L282.793,78.027 C282.789,78.277 282.763,78.506 282.715,78.714 C282.659,79.038 282.537,79.329 282.349,79.587 C282.161,79.845 281.913,80.048 281.605,80.196 C281.297,80.344 280.937,80.418 280.525,80.418 Z M287.713,81.162 C288.241,81.162 288.709,81.046 289.117,80.814 C289.408429,80.6482857 289.654959,80.426449 289.856592,80.1484898 L289.891,80.096 L289.891,81 L290.683,81 L290.683,74.52 L289.801,74.52 L289.801,77.976 C289.801,78.34 289.759,78.667 289.675,78.957 C289.591,79.247 289.468,79.493 289.306,79.695 C289.144,79.897 288.944,80.052 288.706,80.16 C288.468,80.268 288.193,80.322 287.881,80.322 C287.541,80.322 287.252,80.26 287.014,80.136 C286.776,80.012 286.582,79.837 286.432,79.611 C286.282,79.385 286.173,79.12 286.105,78.816 C286.037,78.512 286.003,78.182 286.003,77.826 L286.003,77.826 L286.003,74.52 L285.115,74.52 L285.115,78.084 C285.115,78.376 285.143,78.669 285.199,78.963 C285.255,79.257 285.345,79.535 285.469,79.797 C285.593,80.059 285.756,80.292 285.958,80.496 C286.16,80.7 286.406,80.862 286.696,80.982 C286.986,81.102 287.325,81.162 287.713,81.162 Z M294.781,81.174 C295.577,81.174 296.202,80.999 296.656,80.649 C297.11,80.299 297.337,79.818 297.337,79.206 C297.337,78.87 297.265,78.588 297.121,78.36 C296.977,78.132 296.735,77.934 296.395,77.766 C296.055,77.598 295.587,77.438 294.991,77.286 C294.483,77.158 294.092,77.04 293.818,76.932 C293.544,76.824 293.355,76.709 293.251,76.587 C293.147,76.465 293.095,76.318 293.095,76.146 C293.095,75.838 293.239,75.591 293.527,75.405 C293.815,75.219 294.189,75.132 294.649,75.144 C295.137,75.152 295.54,75.267 295.858,75.489 C296.176,75.711 296.365,76.012 296.425,76.392 L296.425,76.392 L297.325,76.23 C297.281,75.854 297.141,75.524 296.905,75.24 C296.669,74.956 296.358,74.735 295.972,74.577 C295.586,74.419 295.149,74.34 294.661,74.34 C294.173,74.34 293.745,74.417 293.377,74.571 C293.009,74.725 292.721,74.941 292.513,75.219 C292.305,75.497 292.201,75.82 292.201,76.188 C292.201,76.492 292.271,76.749 292.411,76.959 C292.551,77.169 292.787,77.354 293.119,77.514 C293.451,77.674 293.911,77.834 294.499,77.994 C295.047,78.142 295.459,78.27 295.735,78.378 C296.011,78.486 296.194,78.603 296.284,78.729 C296.374,78.855 296.419,79.018 296.419,79.218 C296.419,79.574 296.277,79.855 295.993,80.061 C295.709,80.267 295.321,80.37 294.829,80.37 C294.325,80.37 293.902,80.261 293.56,80.043 C293.218,79.825 292.999,79.532 292.903,79.164 L292.903,79.164 L292.003,79.314 C292.115,79.898 292.416,80.354 292.906,80.682 C293.396,81.01 294.021,81.174 294.781,81.174 Z M304.351,78.006 C304.371,77.246 304.265,76.592 304.033,76.044 C303.801,75.496 303.459,75.075 303.007,74.781 C302.555,74.487 302.009,74.34 301.369,74.34 C300.745,74.34 300.204,74.48 299.746,74.76 C299.288,75.04 298.933,75.438 298.681,75.954 C298.429,76.47 298.303,77.082 298.303,77.79 C298.303,78.474 298.431,79.07 298.687,79.578 C298.943,80.086 299.302,80.48 299.764,80.76 C300.226,81.04 300.773,81.18 301.405,81.18 C302.033,81.18 302.596,81.025 303.094,80.715 C303.592,80.405 303.969,79.968 304.225,79.404 L304.225,79.404 L303.403,79.086 C303.203,79.49 302.93,79.799 302.584,80.013 C302.238,80.227 301.833,80.334 301.369,80.334 C300.689,80.334 300.164,80.109 299.794,79.659 C299.498,79.299 299.3204,78.82188 299.2612,78.22764 L299.244,78.006 L303.877,78.006 L304.351,78.006 Z M303.426,77.268 L299.263,77.268 L299.28895,77.05944 C299.35555,76.62696 299.48875,76.2636 299.68855,75.96936 L299.794,75.828 C300.164,75.376 300.697,75.15 301.393,75.15 C302.057,75.15 302.562,75.364 302.908,75.792 C303.1848,76.1344 303.356,76.60864 303.4216,77.21472 L303.426,77.268 Z M309.157,77.598 L309.157,76.842 L305.557,76.842 L305.557,77.598 L309.157,77.598 Z M312.241,81 L312.241,75.276 L314.011,75.276 L314.011,74.52 L312.241,74.52 L312.241,73.944 C312.241,73.6422857 312.30198,73.4096327 312.423939,73.2460408 L312.49,73.17 C312.656,73.006 312.907,72.924 313.243,72.924 L313.243,72.924 L314.011,72.924 L314.011,72.18 L313.183,72.18 C313.019,72.18 312.852,72.19 312.682,72.21 C312.512,72.23 312.349,72.273 312.193,72.339 C312.037,72.405 311.893,72.51 311.761,72.654 C311.641,72.782 311.553,72.921 311.497,73.071 C311.441,73.221 311.404,73.378 311.386,73.542 C311.368,73.706 311.359,73.872 311.359,74.04 L311.359,74.04 L311.359,74.52 L310.237,74.52 L310.237,75.276 L311.359,75.276 L311.359,81 L312.241,81 Z M316.153,73.29 L316.153,72.3 L315.271,72.3 L315.271,73.29 L316.153,73.29 Z M316.153,81 L316.153,74.52 L315.271,74.52 L315.271,81 L316.153,81 Z M318.955,81 L318.955,72.18 L318.073,72.18 L318.073,81 L318.955,81 Z M321.757,81 L321.757,72.18 L320.875,72.18 L320.875,81 L321.757,81 Z" id="pause-fll" fill="#02572F" fill-rule="nonzero"></path>
                <polyline id="Path-3-Copy" stroke="#245633" points="213 4 213 25 188 25 188 67"></polyline>
                <polyline id="Path-3-Copy-2" stroke="#245633" points="381 4 381.0016 25 414.5 25 414.5 67"></polyline>
                <polygon id="Path-3-Copy-4" fill="#245633" fill-rule="nonzero" points="297.625 5 297.625 67 296.625 67 296.625 5"></polygon>
                <circle id="Oval-Copy-2" fill="#245633" cx="381.125" cy="4" r="4"></circle>
                <circle id="Oval-Copy-15" fill="#245633" cx="565.125" cy="4" r="4"></circle>
                <polygon id="Path-3-Copy-3" fill="#245633" fill-rule="nonzero" points="565.625 5 565.625 67 564.625 67 564.625 5"></polygon>
            </g>
        </g>
    </g>
</svg>