<?xml version="1.0" encoding="UTF-8"?>
<svg width="864px" height="1194px" viewBox="0 0 864 1194" version="1.1" xmlns="http://www.w3.org/2000/svg" xmlns:xlink="http://www.w3.org/1999/xlink">
    <title>tablet-spec</title>
    <g id="tablet-spec" stroke="none" stroke-width="1" fill="none" fill-rule="evenodd">
        <g id="tablet">
            <path d="M814.199723,0.5 C825.949815,0.5 836.587291,5.27090638 844.287252,12.9845153 C851.987472,20.6983845 856.75,31.3551269 856.75,43.1265851 L856.75,43.1265851 L856.75,1144.87341 C856.75,1156.6442 851.987121,1167.30093 844.28674,1175.01496 C836.586602,1182.72875 825.949119,1187.5 814.199723,1187.5 L814.199723,1187.5 L43.0502766,1187.5 C31.3001855,1187.5 20.6627086,1182.72909 12.9627482,1175.01548 C5.26252803,1167.30162 0.5,1156.64487 0.5,1144.87341 L0.5,1144.87341 L0.5,43.1265851 C0.5,31.3557978 5.26287937,20.6990705 12.96326,12.9850405 C20.6633982,5.27125349 31.3008812,0.5 43.0502766,0.5 L43.0502766,0.5 Z" id="tablet-body" stroke="#245633" opacity="0.200000003"></path>
            <circle id="camera" stroke="#245633" opacity="0.200000003" cx="428.625" cy="46.125" r="5.875"></circle>
            <rect id="screen-bg" stroke="#245633" opacity="0.200000003" x="45.125" y="81.5" width="767" height="1023.5" rx="0.75"></rect>
            <g id="prohibit-thin" transform="translate(664.625000, 985.000000)" fill="#245633" fill-rule="nonzero">
                <path d="M32,9 C44.7042847,9 55,19.2957153 55,32 C55,44.7042847 44.7042847,55 32,55 C19.2957153,55 9,44.7042847 9,32 C9,19.2957153 19.2957153,9 32,9 Z M16.4594435,17.8742909 C13.0673742,21.6040276 11,26.560157 11,32 C11,43.5997153 20.4002847,53 32,53 C37.439843,53 42.3959724,50.9326258 46.1257091,47.5405565 Z M32,11 C26.560157,11 21.6040276,13.0673742 17.8742909,16.4594435 L47.5405565,46.1257091 C50.9326258,42.3959724 53,37.439843 53,32 C53,20.4002847 43.5997153,11 32,11 Z" id="Combined-Shape"></path>
            </g>
            <g id="skip-forward-thin" transform="translate(480.625000, 985.000000)" fill="#245633">
                <path d="M32.0016,6.9996 C45.7856,6.9996 57.0016,18.2156 57.0016,31.9996 C57.0016,45.7836 45.7856,56.9996 32.0016,56.9996 C18.2176,56.9996 7.0016,45.7836 7.0016,31.9996 C7.0016,18.2156 18.2176,6.9996 32.0016,6.9996 Z M32.0016,8.9996 C19.3176,8.9996 9.0016,19.3196 9.0016,31.9996 C9.0016,44.6796 19.3176,54.9996 32.0016,54.9996 C44.6856,54.9996 55.0016,44.6796 55.0016,31.9996 C55.0016,19.3196 44.6856,8.9996 32.0016,8.9996 Z M39.0016,22.9996 C39.5144358,22.9996 39.9371072,23.3856402 39.9948723,23.8829789 L40.0016,23.9996 L40.0016,39.9996 C40.0016,40.5518847 39.5538847,40.9996 39.0016,40.9996 C38.4887642,40.9996 38.0660928,40.6135598 38.0083277,40.1162211 L38.0016,39.9996 L38.0016,23.9996 C38.0016,23.4473153 38.4493153,22.9996 39.0016,22.9996 Z M24.528,23.1196 C24.856,22.9396 25.252,22.9636 25.556,23.1676 L25.556,23.1676 L37.556,31.1676 C37.832,31.3516 38,31.6676 38,31.9996 C38,32.3356 37.832,32.6476 37.556,32.8316 L37.556,32.8316 L25.556,40.8316 C25.388,40.9436 25.196,40.9996 25,40.9996 C24.84,40.9996 24.676,40.9596 24.528,40.8796 C24.204,40.7076 24,40.3676 24,39.9996 L24,39.9996 L24,23.9996 C24,23.6316 24.204,23.2916 24.528,23.1196 Z" id="Combined-Shape"></path>
            </g>
            <g id="pause-fill" transform="translate(396.625000, 985.000000)" fill="#245633">
                <path d="M40,40 C40,41.104 39.104,42 38,42 C36.896,42 36,41.104 36,40 L36,24 C36,22.896 36.896,22 38,22 C39.104,22 40,22.896 40,24 L40,40 Z M28,40 C28,41.104 27.104,42 26,42 C24.896,42 24,41.104 24,40 L24,24 C24,22.896 24.896,22 26,22 C27.104,22 28,22.896 28,24 L28,40 Z M32,6 C17.664,6 6,17.664 6,32 C6,46.336 17.664,58 32,58 C46.336,58 58,46.336 58,32 C58,17.664 46.336,6 32,6 L32,6 Z" id="pause"></path>
            </g>
            <g id="skip-back-thin" transform="translate(312.625000, 985.000000)" fill="#245633">
                <path d="M32,7 C45.784,7 57,18.216 57,32 C57,45.784 45.784,57 32,57 C18.216,57 7,45.784 7,32 C7,18.216 18.216,7 32,7 Z M32,9 C19.316,9 9,19.32 9,32 C9,44.68 19.316,55 32,55 C44.684,55 55,44.68 55,32 C55,19.32 44.684,9 32,9 Z M25,23 C25.552,23 26,23.448 26,24 L26,24 L26,40 C26,40.552 25.552,41 25,41 C24.448,41 24,40.552 24,40 L24,40 L24,24 C24,23.448 24.448,23 25,23 Z M38.4448,23.1672 C38.7488,22.9632 39.1408,22.9392 39.4728,23.1192 C39.7968,23.2912 40.0008,23.6312 40.0008,23.9992 L40.0008,23.9992 L40.0008,39.9992 C40.0008,40.3672 39.7968,40.7072 39.4728,40.8792 C39.3248,40.9592 39.1608,40.9992 39.0008,40.9992 C38.8048,40.9992 38.6128,40.9432 38.4448,40.8312 L38.4448,40.8312 L26.4448,32.8312 C26.1688,32.6472 26.0008,32.3352 26.0008,31.9992 C26.0008,31.6672 26.1688,31.3552 26.4448,31.1672 L26.4448,31.1672 Z" id="Combined-Shape"></path>
            </g>
            <g id="heart-thin" transform="translate(128.625000, 985.000000)" fill="#245633" fill-rule="nonzero">
                <path d="M44.1669216,9.00378358 C39.1817401,9.11711379 34.70195,11.7684054 32.1612239,15.8805231 L31.998,16.15 L31.9631176,16.0899668 C29.3923616,11.7658705 24.699637,9 19.5,9 C11.4917153,9 5,15.4917153 5,23.5 C5,31.0690465 10.0080878,38.918261 18.3179323,46.6687891 C21.1949637,49.3521741 24.2737859,51.8329943 27.3525791,54.0532778 C28.2764386,54.7195227 29.1441582,55.3213378 29.9398092,55.8540392 L30.5618296,56.2661138 L31.4759026,56.8516583 C31.7973096,57.0494472 32.2026904,57.0494472 32.5240974,56.8516583 L32.8289726,56.6598789 C33.0110389,56.5439867 33.2145498,56.4126002 33.4381704,56.2661138 L33.6684448,56.1146088 C34.5681614,55.5201531 35.5695848,54.8305635 36.6474209,54.0532778 C39.7262141,51.8329943 42.8050363,49.3521741 45.6820677,46.6687891 C53.9919122,38.918261 59,31.0690465 59,23.5 C59,15.4930506 52.5056204,9 44.5,9 L44.1669216,9.00378358 Z M44.5,11 C51.4011426,11 57,16.5977118 57,23.5 C57,30.3684535 52.2580878,37.800489 44.3179323,45.2062109 C41.5074637,47.8275134 38.4925359,50.2568495 35.4775791,52.4310972 C34.5733136,53.0832117 33.7248342,53.6716868 32.9481911,54.1916742 L32,54.816 L31.4340698,54.4459381 C30.5564427,53.8660774 29.5773973,53.1918974 28.5224209,52.4310972 C25.5074641,50.2568495 22.4925363,47.8275134 19.6820677,45.2062109 C11.7419122,37.800489 7,30.3684535 7,23.5 C7,16.5962847 12.5962847,11 19.5,11 C24.5670368,11 29.0757326,14.0469534 31.0148231,18.637144 C31.122216,18.8913632 31.3298931,19.0898997 31.5886856,19.1857488 L31.6966856,19.2257488 C32.1992294,19.4118761 32.7591643,19.1687574 32.9662903,18.674498 C34.8985333,14.0636356 39.416009,11 44.5,11 Z" id="Stroke-2"></path>
            </g>
            <g id="progress-bar" opacity="0.200000003" transform="translate(128.625000, 923.000000)" stroke="#245633">
                <rect id="progress-bg" x="0.5" y="10.5" width="599" height="3" rx="1.5"></rect>
                <rect id="progress-fill" x="0.5" y="10.5" width="359" height="3" rx="1.5"></rect>
                <circle id="progress-dot" cx="358.375" cy="12" r="11.5"></circle>
            </g>
            <path d="M214.257,895.18 C215.353582,895.18 216.281205,895.438024 217.033632,895.971716 C218.024685,896.744895 218.187968,897.127231 218.8148,898.13571 L218.94673,898.346055 L219.05763,895.54 L219.649002,895.54 L219.649042,907.813545 C219.641432,908.40299 219.632909,908.630862 219.619863,908.852639 C219.600956,909.174046 219.56507,909.489787 219.511052,909.806438 C219.373693,910.681198 219.096255,911.404007 218.66546,911.968748 C218.244162,912.521038 217.690698,912.929858 217.007801,913.198771 C216.28738,913.48246 215.433834,913.62 214.449,913.62 C213.834254,913.62 213.228796,913.52912 212.632581,913.347663 C212.046319,913.169235 211.505752,912.888548 211.010558,912.50623 C210.713133,912.2766 210.445494,912.004792 210.206836,911.691513 L210.033263,911.448788 L210.758509,911.045268 C211.213715,911.724063 211.680759,912.112323 212.232931,912.37994 C212.956093,912.730429 213.69503,912.904 214.449,912.904 C215.493534,912.904 216.334635,912.698114 216.980248,912.310746 C217.65405,911.906465 218.148029,911.311912 218.455105,910.520958 C218.732881,909.690916 218.850281,908.959812 218.870232,908.148927 L218.873,907.796 L218.873,904.718977 C218.317073,905.825828 217.770444,906.528069 217.057403,907.050735 C216.313949,907.595694 215.402545,907.86 214.329,907.86 C213.235098,907.86 212.297565,907.593225 211.521267,907.045463 C210.737681,906.492559 210.139548,905.742117 209.722343,904.797918 C209.292732,903.82564 209.081,902.728537 209.081,901.508 C209.081,900.29468 209.291052,899.201109 209.716997,898.228596 C210.130198,897.285182 210.722132,896.536982 211.497795,895.988164 C212.265448,895.445013 213.186675,895.18 214.257,895.18 Z M214.545,895.824 C213.493464,895.824 212.628167,896.092625 211.941,896.608 C211.258823,897.119633 210.750363,897.813044 210.422444,898.693487 C210.111141,899.529312 209.953,900.46716 209.953,901.508 C209.953,902.558203 210.11564,903.503158 210.435719,904.343899 C210.771708,905.22643 211.279138,905.919877 211.950458,906.430081 C212.630922,906.947233 213.481246,907.216 214.509,907.216 C215.552471,907.216 216.409422,906.951419 217.088145,906.44464 C217.76147,905.941891 218.268528,905.251094 218.601067,904.365822 C218.916472,903.526164 219.077,902.573929 219.077,901.508 C219.077,900.424653 218.915963,899.467963 218.600471,898.636601 C218.26743,897.758991 217.76179,897.076243 217.091968,896.581744 C216.417304,896.08367 215.570908,895.824 214.545,895.824 Z M224.773,891.22 L224.773,898.19144 C225.4495,897.057967 225.964188,896.441232 226.618878,895.975395 C227.372369,895.439257 228.301802,895.18 229.401,895.18 C230.471325,895.18 231.392552,895.445013 232.160205,895.988164 C232.935868,896.536982 233.527802,897.285182 233.941003,898.228596 C234.366948,899.201109 234.577,900.29468 234.577,901.508 C234.577,902.728537 234.365268,903.82564 233.935657,904.797918 C233.518452,905.742117 232.920319,906.492559 232.136733,907.045463 C231.360435,907.593225 230.422902,907.86 229.329,907.86 C228.258076,907.86 227.348502,907.596983 226.606131,907.054576 C225.613568,906.258127 225.45812,905.872187 224.821155,904.830154 L224.686951,904.612684 L224.59643,907.5 L223.997,907.5 L223.997,891.22 L224.773,891.22 Z M229.113,895.824 L229.113,895.824 L228.837652,895.830422 C227.934621,895.873183 227.179363,896.128949 226.566032,896.581744 C225.89621,897.076243 225.39057,897.758991 225.057529,898.636601 C224.742037,899.467963 224.581,900.424653 224.581,901.508 C224.581,902.573929 224.741528,903.526164 225.056933,904.365822 C225.389472,905.251094 225.89653,905.941891 226.569855,906.44464 C227.248578,906.951419 228.105529,907.216 229.149,907.216 C230.176754,907.216 231.027078,906.947233 231.707542,906.430081 C232.378862,905.919877 232.886292,905.22643 233.222281,904.343899 C233.54236,903.503158 233.705,902.558203 233.705,901.508 C233.705,900.466377 233.544573,899.52784 233.228771,898.691393 C232.896829,897.812194 232.388986,897.119854 231.712267,896.608953 C231.029083,896.093172 230.165469,895.824 229.113,895.824 L229.113,895.824 Z M186.765,895.18 C187.854945,895.18 188.783539,895.377407 189.546712,895.786645 C190.267101,896.172941 190.778806,896.730174 191.080923,897.467778 C191.222576,897.800662 191.313175,898.172816 191.355654,898.58345 C191.386491,898.881543 191.407033,899.183064 191.417301,899.488011 L191.425,899.948 L191.425,907.5 L190.853,907.5 L190.853,903.700401 C190.146524,905.49079 189.473235,906.442497 188.49069,907.060823 C187.636772,907.598202 186.612095,907.86 185.421,907.86 C184.540141,907.86 183.799012,907.709073 183.202294,907.390824 C182.633494,907.087464 182.204049,906.687212 181.920947,906.183153 C181.635038,905.674096 181.493,905.119549 181.493,904.52 C181.493,903.913627 181.608595,903.392577 181.853762,902.960945 C182.09812,902.530738 182.432374,902.178422 182.855614,901.903144 C183.305155,901.610759 183.826597,901.38945 184.411478,901.23776 C185.054966,901.080812 185.767148,900.941676 186.547961,900.820041 C187.338116,900.696952 188.112388,900.589738 188.872211,900.498239 C189.49368,900.421581 189.728621,900.391199 189.953066,900.361049 C190.679557,898.446061 190.351677,897.561456 189.835069,896.949474 C189.241811,896.246691 188.229414,895.848 186.741,895.848 C185.743167,895.848 184.903855,896.080836 184.217449,896.529467 C183.696374,896.870039 183.283213,897.352676 182.987615,897.985086 L182.882296,898.229275 L182.124709,898.006767 C182.463938,897.109925 182.925392,896.502743 183.563619,896.046867 C184.38505,895.46013 185.455418,895.18 186.765,895.18 Z M189.846422,900.903744 C189.522804,900.943574 189.186739,900.983404 188.838227,901.023234 C188.131696,901.10398 187.437278,901.196844 186.754971,901.301814 C186.059767,901.408769 185.4325,901.536559 184.873054,901.684647 C184.46128,901.800946 184.070638,901.960982 183.693217,902.167247 C183.280323,902.392899 182.942368,902.693468 182.678371,903.067864 C182.403912,903.457096 182.257,903.938873 182.257,904.52 C182.257,904.976805 182.369409,905.419625 182.597962,905.847554 C182.827838,906.277959 183.194171,906.641152 183.709241,906.925667 C184.189897,907.191173 184.825996,907.336 185.625,907.336 C186.532415,907.336 187.323797,907.168346 188.001556,906.84267 C188.695916,906.509016 189.253472,906.049816 189.677097,905.468458 C190.095398,904.894407 190.368586,904.247678 190.495171,903.527634 C190.599603,903.071042 190.666067,902.562825 189.846422,900.903744 Z M177.853,895.54 L177.853,907.5 L177.269,907.5 L177.269,904.402937 C176.455768,905.952685 175.824695,906.70954 174.973849,907.193355 C174.229671,907.616515 173.375287,907.824 172.413,907.824 C171.710548,907.824 171.095662,907.719434 170.570176,907.501992 C170.055172,907.288887 169.617181,907.002636 169.258291,906.640193 C168.894163,906.272459 168.600456,905.852376 168.376939,905.380105 C168.146838,904.893925 167.980081,904.377983 167.876169,903.832444 C167.77013,903.275736 167.717,902.720928 167.717,902.168 L167.717,902.168 L167.717,895.54 L168.493,895.54 L168.493,901.659645 C168.524226,902.684902 168.594814,903.230407 168.709058,903.741145 C168.859485,904.413641 169.102735,904.998778 169.434409,905.498499 C169.782192,906.022492 170.232209,906.427952 170.783972,906.715425 C171.323391,906.996467 171.977112,907.144 172.749,907.144 C173.451786,907.144 174.070008,907.018362 174.605613,906.775314 C175.154462,906.526257 175.615498,906.168615 175.989057,905.702818 C176.351374,905.25104 176.629269,904.702122 176.817259,904.053109 C176.99717,903.431986 177.089,902.731811 177.089,901.952 L177.089,901.952 L177.089,895.54 L177.853,895.54 Z M200.985,895.216 C201.687452,895.216 202.302338,895.320566 202.827824,895.538008 C203.342828,895.751113 203.780819,896.037364 204.139709,896.399807 C204.503837,896.767541 204.797544,897.187624 205.021061,897.659895 C205.251162,898.146075 205.417919,898.662017 205.521831,899.207556 C205.62787,899.764264 205.681,900.319072 205.681,900.872 L205.681,900.872 L205.681,907.5 L204.905,907.5 L204.905,901.381496 C204.879388,900.392433 204.80791,899.82121 204.688788,899.292167 C204.538371,898.624142 204.29525,898.0412 203.963591,897.541501 C203.615808,897.017508 203.165791,896.612048 202.614028,896.324575 C202.074609,896.043533 201.420888,895.896 200.649,895.896 C199.946214,895.896 199.327992,896.021638 198.792387,896.264686 C198.243538,896.513743 197.782502,896.871385 197.408943,897.337182 C197.046674,897.7889 196.768959,898.335571 196.581,898.98 C196.401049,899.596976 196.309,900.299424 196.309,901.088 L196.309,901.088 L196.309,907.5 L195.533,907.5 L195.533,895.54 L196.129,895.54 L196.129,898.632772 C196.942175,897.087279 197.573298,896.330464 198.424151,895.846645 C199.168329,895.423485 200.022713,895.216 200.985,895.216 Z M163.959644,895.43706 C164.212743,895.421519 164.451899,895.426983 164.677,895.454478 L164.677,895.454478 L164.677,896.111925 C164.266448,896.066683 163.927356,896.074647 163.572227,896.115234 C162.919359,896.189847 162.316244,896.448046 161.77403,896.889324 C161.275975,897.2767 160.903931,897.741165 160.65502,898.280471 C160.418479,898.792977 160.260505,899.336077 160.181654,899.909937 C160.106501,900.456888 160.069,900.997579 160.069,901.532 L160.069,901.532 L160.069,907.5 L159.305,907.5 L159.305,895.54 L159.889,895.54 L159.889,898.804329 C161.009502,896.999129 161.326358,896.575459 161.700725,896.289179 C162.015957,896.013076 162.352976,895.820062 162.737424,895.686191 C163.141232,895.54558 163.548592,895.4623 163.959644,895.43706 Z M145.633,891.22 L145.633,898.632772 C146.446175,897.087279 147.077298,896.330464 147.928151,895.846645 C148.672329,895.423485 149.526713,895.216 150.489,895.216 C151.191452,895.216 151.806338,895.320566 152.331824,895.538008 C152.846828,895.751113 153.284819,896.037364 153.643709,896.399807 C154.007837,896.767541 154.301544,897.187624 154.525061,897.659895 C154.755162,898.146075 154.921919,898.662017 155.025831,899.207556 C155.13187,899.764264 155.185,900.319072 155.185,900.872 L155.185,900.872 L155.185,907.5 L154.409,907.5 L154.409,901.381496 C154.383388,900.392433 154.31191,899.82121 154.192788,899.292167 C154.042371,898.624142 153.79925,898.0412 153.467591,897.541501 C153.119808,897.017508 152.669791,896.612048 152.118028,896.324575 C151.578609,896.043533 150.924888,895.896 150.153,895.896 C149.450214,895.896 148.831992,896.021638 148.296387,896.264686 C147.747538,896.513743 147.286502,896.871385 146.912943,897.337182 C146.550674,897.7889 146.272959,898.335571 146.085,898.98 C145.905049,899.596976 145.813,900.299424 145.813,901.088 L145.813,901.088 L145.813,907.5 L145.037,907.5 L145.037,891.22 L145.633,891.22 Z M131.569,891.22 L131.569,898.139 L131.569,898.138401 L131.569,907.5 L130.805,907.5 L130.805,891.22 L131.569,891.22 Z M140.165163,891.22 L141.031261,891.22 L133.460431,899.06162 L141.683603,907.5 L140.774572,907.5 L132.533,899.119 L140.165163,891.22 Z M239.221,895.54 L239.221,907.5 L238.457,907.5 L238.457,895.54 L239.221,895.54 Z M249.261,895.216 C249.963452,895.216 250.578338,895.320566 251.103824,895.538008 C251.618828,895.751113 252.056819,896.037364 252.415709,896.399807 C252.779837,896.767541 253.073544,897.187624 253.297061,897.659895 C253.527162,898.146075 253.693919,898.662017 253.797831,899.207556 C253.90387,899.764264 253.957,900.319072 253.957,900.872 L253.957,900.872 L253.957,907.5 L253.181,907.5 L253.181,901.381496 C253.155388,900.392433 253.08391,899.82121 252.964788,899.292167 C252.814371,898.624142 252.57125,898.0412 252.239591,897.541501 C251.891808,897.017508 251.441791,896.612048 250.890028,896.324575 C250.350609,896.043533 249.696888,895.896 248.925,895.896 C248.222214,895.896 247.603992,896.021638 247.068387,896.264686 C246.519538,896.513743 246.058502,896.871385 245.684943,897.337182 C245.322674,897.7889 245.044959,898.335571 244.857,898.98 C244.677049,899.596976 244.585,900.299424 244.585,901.088 L244.585,901.088 L244.585,907.5 L243.809,907.5 L243.809,895.54 L244.405,895.54 L244.405,898.632772 C245.218175,897.087279 245.849298,896.330464 246.700151,895.846645 C247.444329,895.423485 248.298713,895.216 249.261,895.216 Z M239.221,891.1 L239.221,892.08 L238.457,892.08 L238.457,891.1 L239.221,891.1 Z" id="artist" stroke="#245633" opacity="0.200000003"></path>
            <path d="M283.329,851.74 C284.789718,851.74 286.076578,851.974507 287.187787,852.451464 C288.243161,852.904455 289.026147,853.646683 289.539361,854.682729 C289.819413,855.233176 289.989567,855.795435 290.047523,856.370166 C290.097483,856.865606 290.127332,857.396024 290.137274,857.961407 L290.141,858.392 L290.141,868.5 L287.765,868.5 L287.765,865.04328 C286.841802,866.58738 285.924791,867.572475 284.853039,868.171556 C283.878162,868.716488 282.659038,868.98 281.201,868.98 C280.049319,868.98 279.072092,868.768372 278.273752,868.329778 C277.497215,867.903162 276.90727,867.337415 276.509102,866.627429 C276.107948,865.912117 275.909,865.124016 275.909,864.264 C275.909,863.50348 276.033007,862.817759 276.286648,862.208045 C276.533589,861.614437 276.914457,861.102378 277.427177,860.670364 C277.961047,860.220529 278.655134,859.856291 279.498715,859.571785 C280.175441,859.353151 280.969405,859.155808 281.88036,858.978822 C282.620804,858.834964 283.412028,858.6996 284.254367,858.57263 L284.895711,858.478975 L285.725871,858.36038 C286.005959,858.319986 286.289217,858.278757 286.575647,858.236694 C287.298385,856.549474 286.949268,855.805212 286.441286,855.27731 C285.826067,854.637964 284.804251,854.276 283.329,854.276 C282.473329,854.276 281.646619,854.474173 280.849393,854.872786 C280.212349,855.191308 279.715054,855.679785 279.365939,856.34591 L279.255067,856.574542 L276.680575,855.767088 C277.16916,854.525439 277.843132,853.654055 278.769843,852.970348 C279.896488,852.139134 281.42045,851.74 283.329,851.74 Z M286.68415,860.365217 C286.033651,860.468762 285.447868,860.563958 284.926801,860.650803 C284.087664,860.790659 283.366877,860.922502 282.76442,861.046221 C282.1466,861.173095 281.600593,861.314113 281.112832,861.473129 C280.618752,861.649586 280.202156,861.857206 279.861134,862.092394 C279.487192,862.350285 279.203144,862.649125 279.003527,862.983968 C278.794822,863.334053 278.685,863.743648 278.685,864.216 C278.685,864.747232 278.82169,865.213768 279.086878,865.618178 C279.347834,866.016137 279.725761,866.33755 280.229235,866.572941 C280.696816,866.79155 281.275516,866.908 281.969,866.908 C282.932124,866.908 283.752182,866.731426 284.432607,866.391214 C285.120602,866.047216 285.666452,865.623174 286.075363,865.12537 C286.484238,864.627609 286.75641,864.156677 286.902193,863.717804 C287.118278,863.188301 287.247041,862.580451 287.287183,861.612055 C287.298463,861.315848 287.303287,861.046928 286.68415,860.365217 Z M342.269,846.46 L342.269,868.5 L339.861,868.5 L339.861,866.620128 C338.903547,867.477324 338.653518,867.68306 338.386012,867.870564 C337.321931,868.616415 336.002088,868.98 334.433,868.98 C332.951685,868.98 331.657257,868.611873 330.552929,867.865706 C329.442045,867.115108 328.583306,866.092882 327.973012,864.802258 C327.352215,863.489426 327.045,862.008165 327.045,860.36 C327.045,858.691936 327.354264,857.2033 327.980008,855.895852 C328.59496,854.610952 329.466007,853.594578 330.596215,852.849441 C331.721679,852.107431 333.047164,851.741253 334.569562,851.740004 C336.628139,851.802893 337.937032,852.313848 339.016954,853.328112 L339.185641,853.492449 L339.368189,846.46 L342.269,846.46 Z M335.153,854.196 C333.993836,854.196 333.043003,854.49052 332.291987,855.056762 C331.545865,855.619314 330.99203,856.375329 330.636478,857.329395 C330.296914,858.240558 330.125,859.250485 330.125,860.36 C330.125,861.479544 330.294014,862.493938 330.62753,863.404042 C330.977304,864.358508 331.517219,865.111304 332.239831,865.66807 C332.970563,866.231094 333.896076,866.524 335.025,866.524 C336.187087,866.524 337.117893,866.243837 337.828461,865.712403 C338.539546,865.180584 339.064754,864.439891 339.393843,863.48254 C339.703284,862.582348 339.861,861.541872 339.861,860.36 C339.861,859.166659 339.703016,858.123248 339.393528,857.228547 C339.064965,856.2787 338.549397,855.542266 337.857359,855.011307 C337.160236,854.476445 336.262108,854.196 335.153,854.196 Z M140.609,845.98 C143.142551,845.98 145.258333,846.604 146.949,847.872 C148.506087,849.039815 149.632457,850.583231 150.332534,852.499035 L150.332534,852.499035 L147.404615,853.306321 C146.828295,851.774365 146.086123,850.759245 145.110254,849.991111 C143.953443,849.080552 142.45648,848.612 140.609,848.612 C138.948214,848.612 137.569414,848.993847 136.46567,849.737302 C135.356859,850.484169 134.520425,851.53034 133.962824,852.881229 C133.42347,854.187913 133.144134,855.719171 133.133,857.48 C133.133,859.238895 133.407101,860.771195 133.946824,862.078771 C134.504525,863.429903 135.343888,864.476351 136.458663,865.223365 C137.567706,865.966539 138.948912,866.348 140.609,866.348 C142.456981,866.348 143.954332,865.876474 145.111451,864.959944 C146.151148,864.136422 146.921708,863.037159 147.41533,861.656633 L147.41533,861.656633 L150.319487,862.457368 C149.512299,864.533934 148.425551,865.980587 146.949,867.088 C145.258333,868.356 143.142551,868.98 140.609,868.98 C138.408231,868.98 136.520612,868.505312 134.950508,867.541839 C133.388713,866.583464 132.190849,865.246275 131.35432,863.532657 C130.505095,861.793033 130.085,859.774722 130.085,857.48 C130.085,855.185278 130.505095,853.166967 131.35432,851.427343 C132.190849,849.713725 133.388713,848.376536 134.950508,847.418161 C136.520612,846.454688 138.408231,845.98 140.609,845.98 Z M162.129,851.74 C163.767741,851.74 165.197409,852.101715 166.414712,852.836121 C167.626348,853.567108 168.566827,854.576595 169.237646,855.863165 C169.917371,857.166816 170.253,858.666505 170.253,860.36 C170.253,862.063385 169.915065,863.567996 169.230354,864.871482 C168.554538,866.158037 167.611655,867.165113 166.400013,867.891097 C165.182598,868.62054 163.757884,868.98 162.129,868.98 C160.500616,868.98 159.076332,868.618129 157.859288,867.883879 C156.648186,867.153214 155.710584,866.144206 155.04506,864.858195 C154.370204,863.554149 154.037,862.054014 154.037,860.36 C154.037,858.636765 154.37691,857.124739 155.066558,855.826578 C155.747446,854.544906 156.69292,853.542731 157.904679,852.821684 C159.121686,852.097514 160.530686,851.74 162.129,851.74 Z M162.129,854.356 C160.975751,854.356 160.032654,854.625682 159.291372,855.141614 C158.545037,855.661063 157.98927,856.381238 157.630716,857.307503 C157.290605,858.186123 157.117,859.203133 157.117,860.36 C157.117,862.165803 157.54336,863.598814 158.363821,864.671725 C159.216427,865.786671 160.464256,866.364 162.129,866.364 C163.855445,866.364 165.122237,865.76741 165.957004,864.622586 C166.759103,863.522564 167.173,862.104876 167.173,860.36 C167.173,858.554788 166.749674,857.122197 165.935204,856.04962 C165.089381,854.935755 163.829111,854.356 162.129,854.356 Z M310.177,851.74 C311.450737,851.74 312.58131,851.93384 313.567305,852.328238 C314.524262,852.711021 315.299622,853.252972 315.888889,853.960092 C316.369834,854.537226 316.697012,855.197698 316.872342,855.940638 L316.872342,855.940638 L313.894831,856.473201 C313.676926,855.749429 313.321714,855.278365 312.820401,854.903551 C312.181635,854.42597 311.334657,854.144653 310.270361,854.084863 C309.24357,854.024463 308.421911,854.193613 307.796034,854.560713 C307.066499,854.988614 306.717,855.593857 306.717,856.36 C306.717,856.825701 306.876127,857.223034 307.191322,857.553238 C307.449299,857.823499 307.956602,858.112579 308.741317,858.384449 C309.427753,858.622269 310.45184,858.91469 311.813083,859.260401 C313.139918,859.599824 314.203265,859.985167 315.000584,860.422406 C315.735105,860.825208 316.2736,861.299845 316.601376,861.86039 C316.928782,862.420302 317.085,863.10034 317.085,863.896 C317.085,865.464562 316.522929,866.701928 315.380309,867.598668 C314.190772,868.532229 312.541812,868.98 310.449,868.98 C308.438807,868.98 306.799575,868.540297 305.541152,867.634233 C304.444844,866.844891 303.737197,865.76724 303.410442,864.40626 L303.410442,864.40626 L306.411609,863.942665 C306.73358,864.807084 307.188029,865.36927 307.808166,865.808136 C308.577817,866.352812 309.546183,866.636 310.721,866.636 C311.781009,866.636 312.590986,866.406799 313.166833,865.988552 C313.809063,865.52209 314.133,864.884211 314.133,864.072 C314.133,863.546128 313.994533,863.130417 313.747676,862.81303 C313.524809,862.526486 313.056081,862.22325 312.296662,861.952949 C311.658428,861.72578 310.679619,861.438527 309.360946,861.092647 C307.953734,860.72015 306.835147,860.321642 306.00724,859.892165 C305.249293,859.49898 304.695628,859.039938 304.363086,858.498368 C304.033989,857.962412 303.877,857.312051 303.877,856.552 C303.877,855.586125 304.125929,854.742579 304.633333,854.024555 C305.147555,853.296883 305.868232,852.74052 306.789083,852.347947 C307.746976,851.939582 308.876981,851.74 310.177,851.74 Z M354.881,851.74 C356.562293,851.74 357.994118,852.125334 359.171242,852.911753 C360.342479,853.694239 361.208694,854.800544 361.776538,856.225135 C362.272391,857.469117 362.501185,858.902171 362.47054,860.522907 L362.457478,860.932 L349.865915,860.932 C350.026714,862.743117 350.446373,863.881107 351.130566,864.736348 C351.987808,865.8079 353.230705,866.364 354.881,866.364 C355.932579,866.364 356.836977,866.124526 357.598126,865.658396 C358.179652,865.302267 358.662557,864.826603 359.044133,864.228916 L359.182469,863.999059 L362.026603,864.859469 C361.325808,866.184395 360.485456,867.086071 359.407853,867.760093 C358.106699,868.573943 356.672246,868.98 355.105,868.98 C353.450907,868.98 351.9968,868.626595 350.745446,867.910094 C349.503578,867.199024 348.534836,866.212361 347.838814,864.950507 C347.136064,863.676457 346.789,862.209496 346.789,860.552 C346.789,858.753648 347.129143,857.18968 347.820414,855.863051 C348.500936,854.557048 349.445466,853.542406 350.656679,852.821684 C351.873686,852.097514 353.282686,851.74 354.881,851.74 Z M355.041,854.116 C353.287108,854.116 351.992438,854.671153 350.971393,855.982253 C350.449661,856.73031 350.104887,857.692932 349.931645,859.027461 L349.931645,859.027461 L359.557201,858.905429 L359.52528,858.576668 C359.380651,857.287116 359.033468,856.303112 358.512408,855.611212 C357.777144,854.634878 356.631898,854.116 355.041,854.116 Z M434.145,851.74 C435.826293,851.74 437.258118,852.125334 438.435242,852.911753 C439.606479,853.694239 440.472694,854.800544 441.040538,856.225135 C441.536391,857.469117 441.765185,858.902171 441.73454,860.522907 L441.721478,860.932 L429.129915,860.932 C429.290714,862.743117 429.710373,863.881107 430.394566,864.736348 C431.251808,865.8079 432.494705,866.364 434.145,866.364 C435.196579,866.364 436.100977,866.124526 436.862126,865.658396 C437.443652,865.302267 437.926557,864.826603 438.308133,864.228916 L438.446469,863.999059 L441.290603,864.859469 C440.589808,866.184395 439.749456,867.086071 438.671853,867.760093 C437.370699,868.573943 435.936246,868.98 434.369,868.98 C432.714907,868.98 431.2608,868.626595 430.009446,867.910094 C428.767578,867.199024 427.798836,866.212361 427.102814,864.950507 C426.400064,863.676457 426.053,862.209496 426.053,860.552 C426.053,858.753648 426.393143,857.18968 427.084414,855.863051 C427.764936,854.557048 428.709466,853.542406 429.920679,852.821684 C431.137686,852.097514 432.546686,851.74 434.145,851.74 Z M434.305,854.116 C432.551108,854.116 431.256438,854.671153 430.235393,855.982253 C429.713661,856.73031 429.368887,857.692932 429.195645,859.027461 L429.195645,859.027461 L438.821201,858.905429 L438.78928,858.576668 C438.644651,857.287116 438.297468,856.303112 437.776408,855.611212 C437.041144,854.634878 435.895898,854.116 434.305,854.116 Z M265.441,851.74 C266.714737,851.74 267.84531,851.93384 268.831305,852.328238 C269.788262,852.711021 270.563622,853.252972 271.152889,853.960092 C271.633834,854.537226 271.961012,855.197698 272.136342,855.940638 L272.136342,855.940638 L269.158831,856.473201 C268.940926,855.749429 268.585714,855.278365 268.084401,854.903551 C267.445635,854.42597 266.598657,854.144653 265.534361,854.084863 C264.50757,854.024463 263.685911,854.193613 263.060034,854.560713 C262.330499,854.988614 261.981,855.593857 261.981,856.36 C261.981,856.825701 262.140127,857.223034 262.455322,857.553238 C262.713299,857.823499 263.220602,858.112579 264.005317,858.384449 C264.691753,858.622269 265.71584,858.91469 267.077083,859.260401 C268.403918,859.599824 269.467265,859.985167 270.264584,860.422406 C270.999105,860.825208 271.5376,861.299845 271.865376,861.86039 C272.192782,862.420302 272.349,863.10034 272.349,863.896 C272.349,865.464562 271.786929,866.701928 270.644309,867.598668 C269.454772,868.532229 267.805812,868.98 265.713,868.98 C263.702807,868.98 262.063575,868.540297 260.805152,867.634233 C259.708844,866.844891 259.001197,865.76724 258.674442,864.40626 L258.674442,864.40626 L261.675609,863.942665 C261.99758,864.807084 262.452029,865.36927 263.072166,865.808136 C263.841817,866.352812 264.810183,866.636 265.985,866.636 C267.045009,866.636 267.854986,866.406799 268.430833,865.988552 C269.073063,865.52209 269.397,864.884211 269.397,864.072 C269.397,863.546128 269.258533,863.130417 269.011676,862.81303 C268.788809,862.526486 268.320081,862.22325 267.560662,861.952949 C266.922428,861.72578 265.943619,861.438527 264.624946,861.092647 C263.217734,860.72015 262.099147,860.321642 261.27124,859.892165 C260.513293,859.49898 259.959628,859.039938 259.627086,858.498368 C259.297989,857.962412 259.141,857.312051 259.141,856.552 C259.141,855.586125 259.389929,854.742579 259.897333,854.024555 C260.411555,853.296883 261.132232,852.74052 262.053083,852.347947 C263.010976,851.939582 264.140981,851.74 265.441,851.74 Z M248.113,851.74 C249.386737,851.74 250.51731,851.93384 251.503305,852.328238 C252.460262,852.711021 253.235622,853.252972 253.824889,853.960092 C254.305834,854.537226 254.633012,855.197698 254.808342,855.940638 L254.808342,855.940638 L251.830831,856.473201 C251.612926,855.749429 251.257714,855.278365 250.756401,854.903551 C250.117635,854.42597 249.270657,854.144653 248.206361,854.084863 C247.17957,854.024463 246.357911,854.193613 245.732034,854.560713 C245.002499,854.988614 244.653,855.593857 244.653,856.36 C244.653,856.825701 244.812127,857.223034 245.127322,857.553238 C245.385299,857.823499 245.892602,858.112579 246.677317,858.384449 C247.363753,858.622269 248.38784,858.91469 249.749083,859.260401 C251.075918,859.599824 252.139265,859.985167 252.936584,860.422406 C253.671105,860.825208 254.2096,861.299845 254.537376,861.86039 C254.864782,862.420302 255.021,863.10034 255.021,863.896 C255.021,865.464562 254.458929,866.701928 253.316309,867.598668 C252.126772,868.532229 250.477812,868.98 248.385,868.98 C246.374807,868.98 244.735575,868.540297 243.477152,867.634233 C242.380844,866.844891 241.673197,865.76724 241.346442,864.40626 L241.346442,864.40626 L244.347609,863.942665 C244.66958,864.807084 245.124029,865.36927 245.744166,865.808136 C246.513817,866.352812 247.482183,866.636 248.657,866.636 C249.717009,866.636 250.526986,866.406799 251.102833,865.988552 C251.745063,865.52209 252.069,864.884211 252.069,864.072 C252.069,863.546128 251.930533,863.130417 251.683676,862.81303 C251.460809,862.526486 250.992081,862.22325 250.232662,861.952949 C249.594428,861.72578 248.615619,861.438527 247.296946,861.092647 C245.889734,860.72015 244.771147,860.321642 243.94324,859.892165 C243.185293,859.49898 242.631628,859.039938 242.299086,858.498368 C241.969989,857.962412 241.813,857.312051 241.813,856.552 C241.813,855.586125 242.061929,854.742579 242.569333,854.024555 C243.083555,853.296883 243.804232,852.74052 244.725083,852.347947 C245.682976,851.939582 246.812981,851.74 248.113,851.74 Z M415.649,851.74 C417.494139,851.74 419.059506,852.19617 420.339386,853.124711 C421.475281,853.948791 422.254529,855.044371 422.680966,856.408829 L422.680966,856.408829 L419.754691,857.201362 C419.348102,856.267427 418.871703,855.681707 418.268013,855.231261 C417.487131,854.648603 416.598412,854.356 415.601,854.356 C414.4764,854.356 413.554303,854.632995 412.826324,855.164062 C412.098898,855.694725 411.558491,856.422738 411.212343,857.353756 C410.883978,858.236946 410.717,859.238662 410.717,860.36 C410.717,862.127315 411.126166,863.549763 411.916448,864.637833 C412.743225,865.776149 413.964461,866.364 415.601,866.364 C416.761114,866.364 417.667761,866.081284 418.335623,865.551808 C418.89852,865.105547 419.348404,864.494241 419.675708,863.710706 L419.675708,863.710706 L422.633023,864.371894 C422.042824,865.884553 421.262997,866.909044 420.208082,867.655924 C418.95343,868.544217 417.415798,868.98 415.601,868.98 C413.925515,868.98 412.492917,868.613362 411.307929,867.865213 C410.128608,867.120641 409.227518,866.10306 408.602969,864.813992 C407.966976,863.501302 407.647163,862.015075 407.636991,860.363012 C407.647153,858.676164 407.976179,857.178591 408.631865,855.872302 C409.276857,854.587319 410.193587,853.576498 411.383746,852.841399 C412.579424,852.102892 414.002483,851.74 415.649,851.74 Z M396.625,851.74 C398.085718,851.74 399.372578,851.974507 400.483787,852.451464 C401.539161,852.904455 402.322147,853.646683 402.835361,854.682729 C403.115413,855.233176 403.285567,855.795435 403.343523,856.370166 C403.393483,856.865606 403.423332,857.396024 403.433274,857.961407 L403.437,858.392 L403.437,868.5 L401.061,868.5 L401.061,865.04328 C400.137802,866.58738 399.220791,867.572475 398.149039,868.171556 C397.174162,868.716488 395.955038,868.98 394.497,868.98 C393.345319,868.98 392.368092,868.768372 391.569752,868.329778 C390.793215,867.903162 390.20327,867.337415 389.805102,866.627429 C389.403948,865.912117 389.205,865.124016 389.205,864.264 C389.205,863.50348 389.329007,862.817759 389.582648,862.208045 C389.829589,861.614437 390.210457,861.102378 390.723177,860.670364 C391.257047,860.220529 391.951134,859.856291 392.794715,859.571785 C393.471441,859.353151 394.265405,859.155808 395.17636,858.978822 C395.916804,858.834964 396.708028,858.6996 397.550367,858.57263 L398.191711,858.478975 L399.021871,858.36038 C399.301959,858.319986 399.585217,858.278757 399.871647,858.236694 C400.594385,856.549474 400.245268,855.805212 399.737286,855.27731 C399.122067,854.637964 398.100251,854.276 396.625,854.276 C395.769329,854.276 394.942619,854.474173 394.145393,854.872786 C393.508349,855.191308 393.011054,855.679785 392.661939,856.34591 L392.551067,856.574542 L389.976575,855.767088 C390.46516,854.525439 391.139132,853.654055 392.065843,852.970348 C393.192488,852.139134 394.71645,851.74 396.625,851.74 Z M399.98015,860.365217 C399.329651,860.468762 398.743868,860.563958 398.222801,860.650803 C397.383664,860.790659 396.662877,860.922502 396.06042,861.046221 C395.4426,861.173095 394.896593,861.314113 394.408832,861.473129 C393.914752,861.649586 393.498156,861.857206 393.157134,862.092394 C392.783192,862.350285 392.499144,862.649125 392.299527,862.983968 C392.090822,863.334053 391.981,863.743648 391.981,864.216 C391.981,864.747232 392.11769,865.213768 392.382878,865.618178 C392.643834,866.016137 393.021761,866.33755 393.525235,866.572941 C393.992816,866.79155 394.571516,866.908 395.265,866.908 C396.228124,866.908 397.048182,866.731426 397.728607,866.391214 C398.416602,866.047216 398.962452,865.623174 399.371363,865.12537 C399.780238,864.627609 400.05241,864.156677 400.198193,863.717804 C400.414278,863.188301 400.543041,862.580451 400.583183,861.612055 C400.594463,861.315848 400.599287,861.046928 399.98015,860.365217 Z M221.265,851.74 C222.725718,851.74 224.012578,851.974507 225.123787,852.451464 C226.179161,852.904455 226.962147,853.646683 227.475361,854.682729 C227.755413,855.233176 227.925567,855.795435 227.983523,856.370166 C228.033483,856.865606 228.063332,857.396024 228.073274,857.961407 L228.077,858.392 L228.077,868.5 L225.701,868.5 L225.701,865.04328 C224.777802,866.58738 223.860791,867.572475 222.789039,868.171556 C221.814162,868.716488 220.595038,868.98 219.137,868.98 C217.985319,868.98 217.008092,868.768372 216.209752,868.329778 C215.433215,867.903162 214.84327,867.337415 214.445102,866.627429 C214.043948,865.912117 213.845,865.124016 213.845,864.264 C213.845,863.50348 213.969007,862.817759 214.222648,862.208045 C214.469589,861.614437 214.850457,861.102378 215.363177,860.670364 C215.897047,860.220529 216.591134,859.856291 217.434715,859.571785 C218.111441,859.353151 218.905405,859.155808 219.81636,858.978822 C220.556804,858.834964 221.348028,858.6996 222.190367,858.57263 L222.831711,858.478975 L223.661871,858.36038 C223.941959,858.319986 224.225217,858.278757 224.511647,858.236694 C225.234385,856.549474 224.885268,855.805212 224.377286,855.27731 C223.762067,854.637964 222.740251,854.276 221.265,854.276 C220.409329,854.276 219.582619,854.474173 218.785393,854.872786 C218.148349,855.191308 217.651054,855.679785 217.301939,856.34591 L217.191067,856.574542 L214.616575,855.767088 C215.10516,854.525439 215.779132,853.654055 216.705843,852.970348 C217.832488,852.139134 219.35645,851.74 221.265,851.74 Z M224.62015,860.365217 C223.969651,860.468762 223.383868,860.563958 222.862801,860.650803 C222.023664,860.790659 221.302877,860.922502 220.70042,861.046221 C220.0826,861.173095 219.536593,861.314113 219.048832,861.473129 C218.554752,861.649586 218.138156,861.857206 217.797134,862.092394 C217.423192,862.350285 217.139144,862.649125 216.939527,862.983968 C216.730822,863.334053 216.621,863.743648 216.621,864.216 C216.621,864.747232 216.75769,865.213768 217.022878,865.618178 C217.283834,866.016137 217.661761,866.33755 218.165235,866.572941 C218.632816,866.79155 219.211516,866.908 219.905,866.908 C220.868124,866.908 221.688182,866.731426 222.368607,866.391214 C223.056602,866.047216 223.602452,865.623174 224.011363,865.12537 C224.420238,864.627609 224.69241,864.156677 224.838193,863.717804 C225.054278,863.188301 225.183041,862.580451 225.223183,861.612055 C225.234463,861.315848 225.239287,861.046928 224.62015,860.365217 Z M236.413,852.22 L236.413,868.5 L233.557,868.5 L233.557,852.22 L236.413,852.22 Z M203.345,851.724 C204.531125,851.724 205.512762,851.91297 206.284842,852.308909 C207.042961,852.697688 207.648055,853.190911 208.095451,853.793923 C208.551782,854.408978 208.889734,855.063422 209.108003,855.757913 C209.33181,856.470025 209.477553,857.143858 209.543682,857.779721 C209.610807,858.425156 209.645,858.949232 209.645,859.352 L209.645,859.352 L209.645,868.5 L206.741,868.5 L206.741,860.674803 C206.724209,859.864434 206.687218,859.359507 206.625843,858.815905 C206.545453,858.103876 206.358924,857.417658 206.06607,856.7573 C205.757953,856.062527 205.298676,855.491724 204.688509,855.044671 C204.076957,854.596603 203.254708,854.356 202.209,854.356 C201.665093,854.356 201.127012,854.444283 200.594886,854.621658 C200.043557,854.805435 199.542909,855.118984 199.095447,855.566447 C198.659363,856.00253 198.303789,856.596516 198.040551,857.356317 C197.791111,858.076292 197.661,858.996795 197.661,860.12 L197.661,860.12 L197.661,868.5 L194.757,868.5 L194.757,852.22 L197.197,852.22 L197.197,855.107285 C198.037847,853.902043 198.698304,853.233605 199.518354,852.709246 C200.554738,852.046559 201.832193,851.724 203.345,851.724 Z M183.329,851.724 C184.515125,851.724 185.496762,851.91297 186.268842,852.308909 C187.026961,852.697688 187.632055,853.190911 188.079451,853.793923 C188.535782,854.408978 188.873734,855.063422 189.092003,855.757913 C189.31581,856.470025 189.461553,857.143858 189.527682,857.779721 C189.594807,858.425156 189.629,858.949232 189.629,859.352 L189.629,859.352 L189.629,868.5 L186.725,868.5 L186.725,860.674803 C186.708209,859.864434 186.671218,859.359507 186.609843,858.815905 C186.529453,858.103876 186.342924,857.417658 186.05007,856.7573 C185.741953,856.062527 185.282676,855.491724 184.672509,855.044671 C184.060957,854.596603 183.238708,854.356 182.193,854.356 C181.649093,854.356 181.111012,854.444283 180.578886,854.621658 C180.027557,854.805435 179.526909,855.118984 179.079447,855.566447 C178.643363,856.00253 178.287789,856.596516 178.024551,857.356317 C177.775111,858.076292 177.645,858.996795 177.645,860.12 L177.645,860.12 L177.645,868.5 L174.741,868.5 L174.741,852.22 L177.181,852.22 L177.181,855.107285 C178.021847,853.902043 178.682304,853.233605 179.502354,852.709246 C180.538738,852.046559 181.816193,851.724 183.329,851.724 Z M373.413,846.46 L386.285,846.46 L386.285,849.316 L376.269,849.316 L376.269,856.06 L384.365,856.06 L384.365,858.9 L376.269,858.9 L376.269,868.5 L373.413,868.5 L373.413,846.46 Z M298.477,852.22 L298.477,868.5 L295.621,868.5 L295.621,852.22 L298.477,852.22 Z M298.477,846.06 L298.477,848.596 L295.621,848.596 L295.621,846.06 L298.477,846.06 Z M236.413,846.06 L236.413,848.596 L233.557,848.596 L233.557,846.06 L236.413,846.06 Z" id="song" stroke="#245633" opacity="0.200000003"></path>
            <rect id="album-art" stroke="#245633" opacity="0.200000003" x="129.125" y="165.5" width="599" height="599"></rect>
            <g id="spec" transform="translate(132.500000, 1053.000000)">
                <circle id="Oval" fill="#245633" cx="28.125" cy="4" r="4"></circle>
                <circle id="Oval-Copy" fill="#245633" cx="212" cy="4" r="4"></circle>
                <circle id="Oval-Copy-16" fill="#245633" cx="296.125" cy="4" r="4"></circle>
                <polygon id="Path-3" fill="#245633" fill-rule="nonzero" points="28.625 5 28.625 67 27.625 67 27.625 5"></polygon>
                <g id="Group" transform="translate(0.000000, 67.000000)" fill-rule="nonzero">
                    <path d="M1.8,14 L1.8,10.544 C1.8,10.176 1.842,9.848 1.926,9.56 C2.01,9.272 2.133,9.027 2.295,8.825 C2.457,8.623 2.657,8.468 2.895,8.36 C3.133,8.252 3.408,8.198 3.72,8.198 C4.06,8.198 4.349,8.26 4.587,8.384 C4.825,8.508 5.019,8.683 5.169,8.909 C5.319,9.135 5.428,9.399 5.496,9.701 C5.564,10.003 5.598,10.334 5.598,10.694 L5.598,10.694 L5.598,14 L6.486,14 L6.486,10.436 C6.486,10.144 6.458,9.851 6.402,9.557 C6.346,9.263 6.256,8.985 6.132,8.723 C6.008,8.461 5.845,8.228 5.643,8.024 C5.441,7.82 5.195,7.658 4.905,7.538 C4.615,7.418 4.276,7.358 3.888,7.358 C3.36,7.358 2.892,7.474 2.484,7.706 C2.19257143,7.87171429 1.94604082,8.09355102 1.74440816,8.3715102 L1.709,8.424 L1.71,5.36 L0.912,5.36 L0.912,14 L1.8,14 Z M13.734,11.006 C13.754,10.246 13.648,9.592 13.416,9.044 C13.184,8.496 12.842,8.075 12.39,7.781 C11.938,7.487 11.392,7.34 10.752,7.34 C10.128,7.34 9.587,7.48 9.129,7.76 C8.671,8.04 8.316,8.438 8.064,8.954 C7.812,9.47 7.686,10.082 7.686,10.79 C7.686,11.474 7.814,12.07 8.07,12.578 C8.326,13.086 8.685,13.48 9.147,13.76 C9.609,14.04 10.156,14.18 10.788,14.18 C11.416,14.18 11.979,14.025 12.477,13.715 C12.975,13.405 13.352,12.968 13.608,12.404 L13.608,12.404 L12.786,12.086 C12.586,12.49 12.313,12.799 11.967,13.013 C11.621,13.227 11.216,13.334 10.752,13.334 C10.072,13.334 9.547,13.109 9.177,12.659 C8.881,12.299 8.7034,11.82188 8.6442,11.22764 L8.627,11.006 L13.26,11.006 L13.734,11.006 Z M12.809,10.268 L8.646,10.268 L8.67195,10.05944 C8.73855,9.62696 8.87175,9.2636 9.07155,8.96936 L9.177,8.828 C9.547,8.376 10.08,8.15 10.776,8.15 C11.44,8.15 11.945,8.364 12.291,8.792 C12.5678,9.1344 12.739,9.60864 12.8046,10.21472 L12.809,10.268 Z M16.914,14.18 C17.562,14.18 18.118,14.034 18.582,13.742 C18.872,13.5595 19.1143438,13.3254375 19.3090313,13.0398125 L19.38,12.927 L19.38,14 L20.166,14 L20.166,9.974 C20.166,9.734 20.154,9.498 20.13,9.266 C20.106,9.034 20.054,8.824 19.974,8.636 C19.802,8.216 19.509,7.895 19.095,7.673 C18.681,7.451 18.178,7.34 17.586,7.34 C16.87,7.34 16.288,7.5 15.84,7.82 C15.392,8.14 15.094,8.59 14.946,9.17 L14.946,9.17 L15.804,9.422 C15.928,8.99 16.143,8.674 16.449,8.474 C16.755,8.274 17.13,8.174 17.574,8.174 C18.218,8.174 18.67,8.328 18.93,8.636 C19.19,8.944 19.314,9.418 19.302,10.058 L19.301,9.912 L19.14675,9.93275 C19.063,9.944 18.9763125,9.9553125 18.8866875,9.9666875 L18.609,10.001 C18.227,10.047 17.837,10.101 17.439,10.163 C17.041,10.225 16.678,10.296 16.35,10.376 C16.026,10.46 15.741,10.582 15.495,10.742 C15.249,10.902 15.055,11.107 14.913,11.357 C14.771,11.607 14.7,11.908 14.7,12.26 C14.7,12.604 14.782,12.922 14.946,13.214 C15.11,13.506 15.357,13.74 15.687,13.916 C16.017,14.092 16.426,14.18 16.914,14.18 Z M17.016,13.418 C16.668,13.418 16.389,13.36 16.179,13.244 C15.969,13.128 15.817,12.982 15.723,12.806 C15.629,12.63 15.582,12.448 15.582,12.26 C15.582,12.028 15.637,11.834 15.747,11.678 C15.857,11.522 15.998,11.397 16.17,11.303 C16.342,11.209 16.52,11.136 16.704,11.084 C16.976,11.012 17.281,10.95 17.619,10.898 C17.957,10.846 18.301,10.8 18.651,10.76 C18.7676667,10.7466667 18.8815556,10.7333333 18.9926667,10.72 L19.288,10.684 L19.28784,10.75724 C19.28736,10.79716 19.2868,10.8396 19.28616,10.88456 L19.284,11.027 C19.28,11.277 19.254,11.506 19.206,11.714 C19.15,12.038 19.028,12.329 18.84,12.587 C18.652,12.845 18.404,13.048 18.096,13.196 C17.788,13.344 17.428,13.418 17.016,13.418 Z M22.608,14 L22.608,10.766 C22.608,10.51 22.626,10.251 22.662,9.989 C22.698,9.727 22.77,9.479 22.878,9.245 C22.986,9.011 23.148,8.81 23.364,8.642 C23.6,8.45 23.858,8.338 24.138,8.306 C24.418,8.274 24.676,8.288 24.912,8.348 L24.912,8.348 L24.912,7.52 C24.724,7.472 24.516,7.455 24.288,7.469 C24.06,7.483 23.834,7.529 23.61,7.607 C23.386,7.685 23.19,7.798 23.022,7.946 C22.886,8.05 22.76,8.183 22.644,8.345 C22.6053333,8.399 22.5691111,8.45466667 22.5353333,8.512 L22.518,8.544 L22.518,7.52 L21.726,7.52 L21.726,14 L22.608,14 Z M28.503,14.09 C28.857,14.106 29.216,14.076 29.58,14 L29.58,14 L29.58,13.226 C29.116,13.302 28.727,13.314 28.413,13.262 C28.099,13.21 27.87,13.05 27.726,12.782 C27.65,12.642 27.609,12.481 27.603,12.299 C27.597,12.117 27.594,11.89 27.594,11.618 L27.594,8.276 L29.58,8.276 L29.58,7.52 L27.594,7.52 L27.594,5.72 L26.718,5.72 L26.718,7.52 L25.332,7.52 L25.332,8.276 L26.718,8.276 L26.7189375,11.8844375 C26.7201875,12.0336875 26.7226875,12.1741875 26.7264375,12.3059375 L26.733,12.497 C26.743,12.743 26.806,12.986 26.922,13.226 C27.066,13.514 27.277,13.726 27.555,13.862 C27.833,13.998 28.149,14.074 28.503,14.09 Z M34.338,10.598 L34.338,9.842 L30.738,9.842 L30.738,10.598 L34.338,10.598 Z M38.349,14.09 C38.703,14.106 39.062,14.076 39.426,14 L39.426,14 L39.426,13.226 C38.962,13.302 38.573,13.314 38.259,13.262 C37.945,13.21 37.716,13.05 37.572,12.782 C37.496,12.642 37.455,12.481 37.449,12.299 C37.443,12.117 37.44,11.89 37.44,11.618 L37.44,8.276 L39.426,8.276 L39.426,7.52 L37.44,7.52 L37.44,5.72 L36.564,5.72 L36.564,7.52 L35.178,7.52 L35.178,8.276 L36.564,8.276 L36.5649375,11.8844375 C36.5661875,12.0336875 36.5686875,12.1741875 36.5724375,12.3059375 L36.579,12.497 C36.589,12.743 36.652,12.986 36.768,13.226 C36.912,13.514 37.123,13.726 37.401,13.862 C37.679,13.998 37.995,14.074 38.349,14.09 Z M41.586,14 L41.586,10.544 C41.586,10.176 41.628,9.848 41.712,9.56 C41.796,9.272 41.919,9.027 42.081,8.825 C42.243,8.623 42.443,8.468 42.681,8.36 C42.919,8.252 43.194,8.198 43.506,8.198 C43.846,8.198 44.135,8.26 44.373,8.384 C44.611,8.508 44.805,8.683 44.955,8.909 C45.105,9.135 45.214,9.399 45.282,9.701 C45.35,10.003 45.384,10.334 45.384,10.694 L45.384,10.694 L45.384,14 L46.272,14 L46.272,10.436 C46.272,10.144 46.244,9.851 46.188,9.557 C46.132,9.263 46.042,8.985 45.918,8.723 C45.794,8.461 45.631,8.228 45.429,8.024 C45.227,7.82 44.981,7.658 44.691,7.538 C44.401,7.418 44.062,7.358 43.674,7.358 C43.146,7.358 42.678,7.474 42.27,7.706 C41.9785714,7.87171429 41.7320408,8.09355102 41.5304082,8.3715102 L41.495,8.424 L41.496,5.36 L40.698,5.36 L40.698,14 L41.586,14 Z M48.834,6.29 L48.834,5.3 L47.952,5.3 L47.952,6.29 L48.834,6.29 Z M48.834,14 L48.834,7.52 L47.952,7.52 L47.952,14 L48.834,14 Z M51.516,14 L51.516,10.544 C51.516,10.176 51.558,9.848 51.642,9.56 C51.726,9.272 51.849,9.027 52.011,8.825 C52.173,8.623 52.373,8.468 52.611,8.36 C52.849,8.252 53.124,8.198 53.436,8.198 C53.776,8.198 54.065,8.26 54.303,8.384 C54.541,8.508 54.735,8.683 54.885,8.909 C55.035,9.135 55.144,9.399 55.212,9.701 C55.28,10.003 55.314,10.334 55.314,10.694 L55.314,10.694 L55.314,14 L56.202,14 L56.202,10.436 C56.202,10.144 56.174,9.851 56.118,9.557 C56.062,9.263 55.972,8.985 55.848,8.723 C55.724,8.461 55.561,8.228 55.359,8.024 C55.157,7.82 54.911,7.658 54.621,7.538 C54.331,7.418 53.992,7.358 53.604,7.358 C53.076,7.358 52.608,7.474 52.2,7.706 C51.9085714,7.87171429 51.6620408,8.09355102 51.4604082,8.3715102 L51.425,8.424 L51.426,7.52 L50.628,7.52 L50.628,14 L51.516,14 Z" id="heart-thin" fill="#245633"></path>
                    <path d="M150.4,14.174 C151.196,14.174 151.821,13.999 152.275,13.649 C152.729,13.299 152.956,12.818 152.956,12.206 C152.956,11.87 152.884,11.588 152.74,11.36 C152.596,11.132 152.354,10.934 152.014,10.766 C151.674,10.598 151.206,10.438 150.61,10.286 C150.102,10.158 149.711,10.04 149.437,9.932 C149.163,9.824 148.974,9.709 148.87,9.587 C148.766,9.465 148.714,9.318 148.714,9.146 C148.714,8.838 148.858,8.591 149.146,8.405 C149.434,8.219 149.808,8.132 150.268,8.144 C150.756,8.152 151.159,8.267 151.477,8.489 C151.795,8.711 151.984,9.012 152.044,9.392 L152.044,9.392 L152.944,9.23 C152.9,8.854 152.76,8.524 152.524,8.24 C152.288,7.956 151.977,7.735 151.591,7.577 C151.205,7.419 150.768,7.34 150.28,7.34 C149.792,7.34 149.364,7.417 148.996,7.571 C148.628,7.725 148.34,7.941 148.132,8.219 C147.924,8.497 147.82,8.82 147.82,9.188 C147.82,9.492 147.89,9.749 148.03,9.959 C148.17,10.169 148.406,10.354 148.738,10.514 C149.07,10.674 149.53,10.834 150.118,10.994 C150.666,11.142 151.078,11.27 151.354,11.378 C151.63,11.486 151.813,11.603 151.903,11.729 C151.993,11.855 152.038,12.018 152.038,12.218 C152.038,12.574 151.896,12.855 151.612,13.061 C151.328,13.267 150.94,13.37 150.448,13.37 C149.944,13.37 149.521,13.261 149.179,13.043 C148.837,12.825 148.618,12.532 148.522,12.164 L148.522,12.164 L147.622,12.314 C147.734,12.898 148.035,13.354 148.525,13.682 C149.015,14.01 149.64,14.174 150.4,14.174 Z M155.17,14 L155.17,10.88 L158.35,14 L159.634,14 L156.202,10.76 L159.238,7.52 L158.062,7.52 L155.17,10.64 L155.17,5.36 L154.282,5.36 L154.276,14 L155.17,14 Z M161.236,6.29 L161.236,5.3 L160.354,5.3 L160.354,6.29 L161.236,6.29 Z M161.236,14 L161.236,7.52 L160.354,7.52 L160.354,14 L161.236,14 Z M163.822,7.52 L163.03,7.52 L163.03,16.88 L163.918,16.88 L163.917,13.225 L163.959388,13.2792041 C164.052612,13.3919388 164.154,13.4958571 164.263551,13.5909592 L164.434,13.727 C164.846,14.029 165.35,14.18 165.946,14.18 C166.55,14.18 167.066,14.029 167.494,13.727 C167.922,13.425 168.25,13.016 168.478,12.5 C168.706,11.984 168.82,11.402 168.82,10.754 C168.82,10.11 168.707,9.53 168.481,9.014 C168.255,8.498 167.93,8.09 167.506,7.79 C167.082,7.49 166.574,7.34 165.982,7.34 C165.374,7.34 164.862,7.488 164.446,7.784 C164.208286,7.95314286 164.003551,8.15787755 163.831796,8.39820408 L163.821,8.414 L163.822,7.52 Z M165.856,13.358 C165.396,13.358 165.016,13.246 164.716,13.022 C164.416,12.798 164.192,12.489 164.044,12.095 C163.896,11.701 163.822,11.254 163.822,10.754 C163.822,10.246 163.896,9.797 164.044,9.407 C164.192,9.017 164.415,8.712 164.713,8.492 C165.011,8.272 165.386,8.162 165.838,8.162 C166.302,8.162 166.685,8.276 166.987,8.504 C167.289,8.732 167.514,9.042 167.662,9.434 C167.81,9.826 167.884,10.266 167.884,10.754 C167.884,11.246 167.809,11.689 167.659,12.083 C167.509,12.477 167.284,12.788 166.984,13.016 C166.684,13.244 166.308,13.358 165.856,13.358 Z M173.62,10.598 L173.62,9.842 L170.02,9.842 L170.02,10.598 L173.62,10.598 Z M178.09,14.18 C178.694,14.18 179.21,14.029 179.638,13.727 C180.066,13.425 180.394,13.016 180.622,12.5 C180.85,11.984 180.964,11.402 180.964,10.754 C180.964,10.11 180.851,9.53 180.625,9.014 C180.399,8.498 180.074,8.09 179.65,7.79 C179.226,7.49 178.718,7.34 178.126,7.34 C177.518,7.34 177.006,7.488 176.59,7.784 C176.411714,7.91085714 176.25198,8.05773469 176.110796,8.22463265 L176.061,8.288 L176.062,5.36 L175.174,5.36 L175.174,14 L175.966,14 L175.965,13.098 C176.095707,13.2839864 176.243224,13.4483061 176.407551,13.5909592 L176.578,13.727 C176.99,14.029 177.494,14.18 178.09,14.18 Z M178,13.358 C177.54,13.358 177.16,13.246 176.86,13.022 C176.56,12.798 176.336,12.489 176.188,12.095 C176.04,11.701 175.966,11.254 175.966,10.754 C175.966,10.246 176.04,9.797 176.188,9.407 C176.336,9.017 176.559,8.712 176.857,8.492 C177.155,8.272 177.53,8.162 177.982,8.162 C178.446,8.162 178.829,8.276 179.131,8.504 C179.433,8.732 179.658,9.042 179.806,9.434 C179.954,9.826 180.028,10.266 180.028,10.754 C180.028,11.246 179.953,11.689 179.803,12.083 C179.653,12.477 179.428,12.788 179.128,13.016 C178.828,13.244 178.452,13.358 178,13.358 Z M184.138,14.18 C184.786,14.18 185.342,14.034 185.806,13.742 C186.096,13.5595 186.338344,13.3254375 186.533031,13.0398125 L186.604,12.927 L186.604,14 L187.39,14 L187.39,9.974 C187.39,9.734 187.378,9.498 187.354,9.266 C187.33,9.034 187.278,8.824 187.198,8.636 C187.026,8.216 186.733,7.895 186.319,7.673 C185.905,7.451 185.402,7.34 184.81,7.34 C184.094,7.34 183.512,7.5 183.064,7.82 C182.616,8.14 182.318,8.59 182.17,9.17 L182.17,9.17 L183.028,9.422 C183.152,8.99 183.367,8.674 183.673,8.474 C183.979,8.274 184.354,8.174 184.798,8.174 C185.442,8.174 185.894,8.328 186.154,8.636 C186.414,8.944 186.538,9.418 186.526,10.058 L186.524,9.912 L186.37075,9.93275 C186.287,9.944 186.200312,9.9553125 186.110687,9.9666875 L185.833,10.001 C185.451,10.047 185.061,10.101 184.663,10.163 C184.265,10.225 183.902,10.296 183.574,10.376 C183.25,10.46 182.965,10.582 182.719,10.742 C182.473,10.902 182.279,11.107 182.137,11.357 C181.995,11.607 181.924,11.908 181.924,12.26 C181.924,12.604 182.006,12.922 182.17,13.214 C182.334,13.506 182.581,13.74 182.911,13.916 C183.241,14.092 183.65,14.18 184.138,14.18 Z M184.24,13.418 C183.892,13.418 183.613,13.36 183.403,13.244 C183.193,13.128 183.041,12.982 182.947,12.806 C182.853,12.63 182.806,12.448 182.806,12.26 C182.806,12.028 182.861,11.834 182.971,11.678 C183.081,11.522 183.222,11.397 183.394,11.303 C183.566,11.209 183.744,11.136 183.928,11.084 C184.2,11.012 184.505,10.95 184.843,10.898 C185.181,10.846 185.525,10.8 185.875,10.76 C185.991667,10.7466667 186.105556,10.7333333 186.216667,10.72 L186.512,10.684 L186.51184,10.75724 C186.51136,10.79716 186.5108,10.8396 186.51016,10.88456 L186.508,11.027 C186.504,11.277 186.478,11.506 186.43,11.714 C186.374,12.038 186.252,12.329 186.064,12.587 C185.876,12.845 185.628,13.048 185.32,13.196 C185.012,13.344 184.652,13.418 184.24,13.418 Z M191.638,14.18 C192.282,14.18 192.836,14.029 193.3,13.727 C193.764,13.425 194.116,12.986 194.356,12.41 L194.356,12.41 L193.468,12.146 C193.308,12.534 193.073,12.829 192.763,13.031 C192.453,13.233 192.078,13.334 191.638,13.334 C190.942,13.334 190.418,13.099 190.066,12.629 C189.714,12.159 189.534,11.536 189.526,10.76 C189.53,10.256 189.608,9.81 189.76,9.422 C189.912,9.034 190.144,8.731 190.456,8.513 C190.768,8.295 191.162,8.186 191.638,8.186 C192.062,8.186 192.439,8.293 192.769,8.507 C193.099,8.721 193.34,9.022 193.492,9.41 L193.492,9.41 L194.356,9.134 C194.176,8.578 193.843,8.14 193.357,7.82 C192.871,7.5 192.3,7.34 191.644,7.34 C191,7.34 190.452,7.483 190,7.769 C189.548,8.055 189.202,8.455 188.962,8.969 C188.722,9.483 188.598,10.08 188.59,10.76 C188.598,11.428 188.719,12.019 188.953,12.533 C189.187,13.047 189.53,13.45 189.982,13.742 C190.434,14.034 190.986,14.18 191.638,14.18 Z M196.48,14 L196.48,10.88 L199.66,14 L200.944,14 L197.512,10.76 L200.548,7.52 L199.372,7.52 L196.48,10.64 L196.48,5.36 L195.592,5.36 L195.586,14 L196.48,14 Z M205.024,10.598 L205.024,9.842 L201.424,9.842 L201.424,10.598 L205.024,10.598 Z M209.035,14.09 C209.389,14.106 209.748,14.076 210.112,14 L210.112,14 L210.112,13.226 C209.648,13.302 209.259,13.314 208.945,13.262 C208.631,13.21 208.402,13.05 208.258,12.782 C208.182,12.642 208.141,12.481 208.135,12.299 C208.129,12.117 208.126,11.89 208.126,11.618 L208.126,8.276 L210.112,8.276 L210.112,7.52 L208.126,7.52 L208.126,5.72 L207.25,5.72 L207.25,7.52 L205.864,7.52 L205.864,8.276 L207.25,8.276 L207.250937,11.8844375 C207.252187,12.0336875 207.254688,12.1741875 207.258438,12.3059375 L207.265,12.497 C207.275,12.743 207.338,12.986 207.454,13.226 C207.598,13.514 207.809,13.726 208.087,13.862 C208.365,13.998 208.681,14.074 209.035,14.09 Z M212.272,14 L212.272,10.544 C212.272,10.176 212.314,9.848 212.398,9.56 C212.482,9.272 212.605,9.027 212.767,8.825 C212.929,8.623 213.129,8.468 213.367,8.36 C213.605,8.252 213.88,8.198 214.192,8.198 C214.532,8.198 214.821,8.26 215.059,8.384 C215.297,8.508 215.491,8.683 215.641,8.909 C215.791,9.135 215.9,9.399 215.968,9.701 C216.036,10.003 216.07,10.334 216.07,10.694 L216.07,10.694 L216.07,14 L216.958,14 L216.958,10.436 C216.958,10.144 216.93,9.851 216.874,9.557 C216.818,9.263 216.728,8.985 216.604,8.723 C216.48,8.461 216.317,8.228 216.115,8.024 C215.913,7.82 215.667,7.658 215.377,7.538 C215.087,7.418 214.748,7.358 214.36,7.358 C213.832,7.358 213.364,7.474 212.956,7.706 C212.664571,7.87171429 212.418041,8.09355102 212.216408,8.3715102 L212.182,8.423 L212.182,5.36 L211.384,5.36 L211.384,14 L212.272,14 Z M219.52,6.29 L219.52,5.3 L218.638,5.3 L218.638,6.29 L219.52,6.29 Z M219.52,14 L219.52,7.52 L218.638,7.52 L218.638,14 L219.52,14 Z M222.202,14 L222.202,10.544 C222.202,10.176 222.244,9.848 222.328,9.56 C222.412,9.272 222.535,9.027 222.697,8.825 C222.859,8.623 223.059,8.468 223.297,8.36 C223.535,8.252 223.81,8.198 224.122,8.198 C224.462,8.198 224.751,8.26 224.989,8.384 C225.227,8.508 225.421,8.683 225.571,8.909 C225.721,9.135 225.83,9.399 225.898,9.701 C225.966,10.003 226,10.334 226,10.694 L226,10.694 L226,14 L226.888,14 L226.888,10.436 C226.888,10.144 226.86,9.851 226.804,9.557 C226.748,9.263 226.658,8.985 226.534,8.723 C226.41,8.461 226.247,8.228 226.045,8.024 C225.843,7.82 225.597,7.658 225.307,7.538 C225.017,7.418 224.678,7.358 224.29,7.358 C223.762,7.358 223.294,7.474 222.886,7.706 C222.594571,7.87171429 222.348041,8.09355102 222.146408,8.3715102 L222.112,8.423 L222.112,7.52 L221.314,7.52 L221.314,14 L222.202,14 Z" id="skip-back-thin" fill="#245633"></path>
                    <path d="M368.587,14.174 C369.383,14.174 370.008,13.999 370.462,13.649 C370.916,13.299 371.143,12.818 371.143,12.206 C371.143,11.87 371.071,11.588 370.927,11.36 C370.783,11.132 370.541,10.934 370.201,10.766 C369.861,10.598 369.393,10.438 368.797,10.286 C368.289,10.158 367.898,10.04 367.624,9.932 C367.35,9.824 367.161,9.709 367.057,9.587 C366.953,9.465 366.901,9.318 366.901,9.146 C366.901,8.838 367.045,8.591 367.333,8.405 C367.621,8.219 367.995,8.132 368.455,8.144 C368.943,8.152 369.346,8.267 369.664,8.489 C369.982,8.711 370.171,9.012 370.231,9.392 L370.231,9.392 L371.131,9.23 C371.087,8.854 370.947,8.524 370.711,8.24 C370.475,7.956 370.164,7.735 369.778,7.577 C369.392,7.419 368.955,7.34 368.467,7.34 C367.979,7.34 367.551,7.417 367.183,7.571 C366.815,7.725 366.527,7.941 366.319,8.219 C366.111,8.497 366.007,8.82 366.007,9.188 C366.007,9.492 366.077,9.749 366.217,9.959 C366.357,10.169 366.593,10.354 366.925,10.514 C367.257,10.674 367.717,10.834 368.305,10.994 C368.853,11.142 369.265,11.27 369.541,11.378 C369.817,11.486 370,11.603 370.09,11.729 C370.18,11.855 370.225,12.018 370.225,12.218 C370.225,12.574 370.083,12.855 369.799,13.061 C369.515,13.267 369.127,13.37 368.635,13.37 C368.131,13.37 367.708,13.261 367.366,13.043 C367.024,12.825 366.805,12.532 366.709,12.164 L366.709,12.164 L365.809,12.314 C365.921,12.898 366.222,13.354 366.712,13.682 C367.202,14.01 367.827,14.174 368.587,14.174 Z M373.357,14 L373.357,10.88 L376.537,14 L377.821,14 L374.389,10.76 L377.425,7.52 L376.249,7.52 L373.357,10.64 L373.357,5.36 L372.469,5.36 L372.463,14 L373.357,14 Z M379.423,6.29 L379.423,5.3 L378.541,5.3 L378.541,6.29 L379.423,6.29 Z M379.423,14 L379.423,7.52 L378.541,7.52 L378.541,14 L379.423,14 Z M382.105,16.88 L382.105,13.226 L382.146388,13.2792041 C382.239612,13.3919388 382.341,13.4958571 382.450551,13.5909592 L382.621,13.727 C383.033,14.029 383.537,14.18 384.133,14.18 C384.737,14.18 385.253,14.029 385.681,13.727 C386.109,13.425 386.437,13.016 386.665,12.5 C386.893,11.984 387.007,11.402 387.007,10.754 C387.007,10.11 386.894,9.53 386.668,9.014 C386.442,8.498 386.117,8.09 385.693,7.79 C385.269,7.49 384.761,7.34 384.169,7.34 C383.561,7.34 383.049,7.488 382.633,7.784 C382.395286,7.95314286 382.190551,8.15787755 382.018796,8.39820408 L382.009,8.413 L382.009,7.52 L381.217,7.52 L381.217,16.88 L382.105,16.88 Z M384.043,13.358 C383.583,13.358 383.203,13.246 382.903,13.022 C382.603,12.798 382.379,12.489 382.231,12.095 C382.083,11.701 382.009,11.254 382.009,10.754 C382.009,10.246 382.083,9.797 382.231,9.407 C382.379,9.017 382.602,8.712 382.9,8.492 C383.198,8.272 383.573,8.162 384.025,8.162 C384.489,8.162 384.872,8.276 385.174,8.504 C385.476,8.732 385.701,9.042 385.849,9.434 C385.997,9.826 386.071,10.266 386.071,10.754 C386.071,11.246 385.996,11.689 385.846,12.083 C385.696,12.477 385.471,12.788 385.171,13.016 C384.871,13.244 384.495,13.358 384.043,13.358 Z M391.807,10.598 L391.807,9.842 L388.207,9.842 L388.207,10.598 L391.807,10.598 Z M394.891,14 L394.891,8.276 L396.661,8.276 L396.661,7.52 L394.891,7.52 L394.891,6.944 C394.891,6.64228571 394.95198,6.40963265 395.073939,6.24604082 L395.14,6.17 C395.306,6.006 395.557,5.924 395.893,5.924 L395.893,5.924 L396.661,5.924 L396.661,5.18 L395.833,5.18 C395.669,5.18 395.502,5.19 395.332,5.21 C395.162,5.23 394.999,5.273 394.843,5.339 C394.687,5.405 394.543,5.51 394.411,5.654 C394.291,5.782 394.203,5.921 394.147,6.071 C394.091,6.221 394.054,6.378 394.036,6.542 C394.018,6.706 394.009,6.872 394.009,7.04 L394.009,7.04 L394.008,7.52 L392.887,7.52 L392.887,8.276 L394.008,8.276 L394.009,14 L394.891,14 Z M400.327,14.18 C400.967,14.18 401.517,14.036 401.977,13.748 C402.437,13.46 402.789,13.059 403.033,12.545 C403.277,12.031 403.399,11.434 403.399,10.754 C403.399,10.086 403.278,9.495 403.036,8.981 C402.794,8.467 402.444,8.065 401.986,7.775 C401.528,7.485 400.975,7.34 400.327,7.34 C399.695,7.34 399.15,7.483 398.692,7.769 C398.234,8.055 397.881,8.454 397.633,8.966 C397.385,9.478 397.261,10.074 397.261,10.754 C397.261,11.422 397.383,12.014 397.627,12.53 C397.871,13.046 398.221,13.45 398.677,13.742 C399.133,14.034 399.683,14.18 400.327,14.18 Z M400.327,13.334 C399.627,13.334 399.097,13.099 398.737,12.629 C398.377,12.159 398.197,11.534 398.197,10.754 C398.197,10.25 398.274,9.805 398.428,9.419 C398.582,9.033 398.816,8.731 399.13,8.513 C399.444,8.295 399.843,8.186 400.327,8.186 C401.043,8.186 401.578,8.418 401.932,8.882 C402.286,9.346 402.463,9.97 402.463,10.754 C402.463,11.518 402.287,12.139 401.935,12.617 C401.583,13.095 401.047,13.334 400.327,13.334 Z M405.601,14 L405.601,10.766 C405.601,10.51 405.619,10.251 405.655,9.989 C405.691,9.727 405.763,9.479 405.871,9.245 C405.979,9.011 406.141,8.81 406.357,8.642 C406.593,8.45 406.851,8.338 407.131,8.306 C407.411,8.274 407.669,8.288 407.905,8.348 L407.905,8.348 L407.905,7.52 C407.717,7.472 407.509,7.455 407.281,7.469 C407.053,7.483 406.827,7.529 406.603,7.607 C406.379,7.685 406.183,7.798 406.015,7.946 C405.879,8.05 405.753,8.183 405.637,8.345 C405.598333,8.399 405.562111,8.45466667 405.528333,8.512 L405.51,8.546 L405.511,7.52 L404.719,7.52 L404.719,14 L405.601,14 Z M411.193,14 L412.807,8.84 L414.427,14 L415.195,14 L417.175,7.52 L416.299,7.52 L414.751,12.554 L413.209,7.52 L412.405,7.52 L410.863,12.554 L409.327,7.52 L408.445,7.514 L410.425,14 L411.193,14 Z M420.109,14.18 C420.757,14.18 421.313,14.034 421.777,13.742 C422.067,13.5595 422.309344,13.3254375 422.504031,13.0398125 L422.575,12.927 L422.575,14 L423.361,14 L423.361,9.974 C423.361,9.734 423.349,9.498 423.325,9.266 C423.301,9.034 423.249,8.824 423.169,8.636 C422.997,8.216 422.704,7.895 422.29,7.673 C421.876,7.451 421.373,7.34 420.781,7.34 C420.065,7.34 419.483,7.5 419.035,7.82 C418.587,8.14 418.289,8.59 418.141,9.17 L418.141,9.17 L418.999,9.422 C419.123,8.99 419.338,8.674 419.644,8.474 C419.95,8.274 420.325,8.174 420.769,8.174 C421.413,8.174 421.865,8.328 422.125,8.636 C422.385,8.944 422.509,9.418 422.497,10.058 L422.496,9.912 L422.34175,9.93275 C422.258,9.944 422.171312,9.9553125 422.081687,9.9666875 L421.804,10.001 C421.422,10.047 421.032,10.101 420.634,10.163 C420.236,10.225 419.873,10.296 419.545,10.376 C419.221,10.46 418.936,10.582 418.69,10.742 C418.444,10.902 418.25,11.107 418.108,11.357 C417.966,11.607 417.895,11.908 417.895,12.26 C417.895,12.604 417.977,12.922 418.141,13.214 C418.305,13.506 418.552,13.74 418.882,13.916 C419.212,14.092 419.621,14.18 420.109,14.18 Z M420.211,13.418 C419.863,13.418 419.584,13.36 419.374,13.244 C419.164,13.128 419.012,12.982 418.918,12.806 C418.824,12.63 418.777,12.448 418.777,12.26 C418.777,12.028 418.832,11.834 418.942,11.678 C419.052,11.522 419.193,11.397 419.365,11.303 C419.537,11.209 419.715,11.136 419.899,11.084 C420.171,11.012 420.476,10.95 420.814,10.898 C421.152,10.846 421.496,10.8 421.846,10.76 C421.962667,10.7466667 422.076556,10.7333333 422.187667,10.72 L422.483,10.684 L422.48284,10.75724 C422.48236,10.79716 422.4818,10.8396 422.48116,10.88456 L422.479,11.027 C422.475,11.277 422.449,11.506 422.401,11.714 C422.345,12.038 422.223,12.329 422.035,12.587 C421.847,12.845 421.599,13.048 421.291,13.196 C420.983,13.344 420.623,13.418 420.211,13.418 Z M425.803,14 L425.803,10.766 C425.803,10.51 425.821,10.251 425.857,9.989 C425.893,9.727 425.965,9.479 426.073,9.245 C426.181,9.011 426.343,8.81 426.559,8.642 C426.795,8.45 427.053,8.338 427.333,8.306 C427.613,8.274 427.871,8.288 428.107,8.348 L428.107,8.348 L428.107,7.52 C427.919,7.472 427.711,7.455 427.483,7.469 C427.255,7.483 427.029,7.529 426.805,7.607 C426.581,7.685 426.385,7.798 426.217,7.946 C426.081,8.05 425.955,8.183 425.839,8.345 C425.800333,8.399 425.764111,8.45466667 425.730333,8.512 L425.713,8.544 L425.713,7.52 L424.921,7.52 L424.921,14 L425.803,14 Z M431.761,14.18 C432.357,14.18 432.861,14.029 433.273,13.727 C433.508429,13.5544286 433.711204,13.3465918 433.881327,13.1034898 L433.885,13.098 L433.885,14 L434.677,14 L434.677,5.36 L433.789,5.36 L433.789,8.288 L433.740204,8.22463265 C433.646082,8.11336735 433.543714,8.011 433.433102,7.91753061 L433.261,7.784 C432.845,7.488 432.333,7.34 431.725,7.34 C431.133,7.34 430.625,7.49 430.201,7.79 C429.777,8.09 429.452,8.498 429.226,9.014 C429,9.53 428.887,10.11 428.887,10.754 C428.887,11.402 429.001,11.984 429.229,12.5 C429.457,13.016 429.785,13.425 430.213,13.727 C430.641,14.029 431.157,14.18 431.761,14.18 Z M431.851,13.358 C431.399,13.358 431.023,13.244 430.723,13.016 C430.423,12.788 430.198,12.477 430.048,12.083 C429.898,11.689 429.823,11.246 429.823,10.754 C429.823,10.266 429.896,9.826 430.042,9.434 C430.188,9.042 430.413,8.732 430.717,8.504 C431.021,8.276 431.405,8.162 431.869,8.162 C432.321,8.162 432.696,8.272 432.994,8.492 C433.292,8.712 433.515,9.017 433.663,9.407 C433.811,9.797 433.885,10.246 433.885,10.754 C433.885,11.254 433.811,11.701 433.663,12.095 C433.515,12.489 433.291,12.798 432.991,13.022 C432.691,13.246 432.311,13.358 431.851,13.358 Z M439.837,10.598 L439.837,9.842 L436.237,9.842 L436.237,10.598 L439.837,10.598 Z M443.848,14.09 C444.202,14.106 444.561,14.076 444.925,14 L444.925,14 L444.925,13.226 C444.461,13.302 444.072,13.314 443.758,13.262 C443.444,13.21 443.215,13.05 443.071,12.782 C442.995,12.642 442.954,12.481 442.948,12.299 C442.942,12.117 442.939,11.89 442.939,11.618 L442.939,8.276 L444.925,8.276 L444.925,7.52 L442.939,7.52 L442.939,5.72 L442.063,5.72 L442.063,7.52 L440.677,7.52 L440.677,8.276 L442.063,8.276 L442.063938,11.8844375 C442.065187,12.0336875 442.067687,12.1741875 442.071438,12.3059375 L442.078,12.497 C442.088,12.743 442.151,12.986 442.267,13.226 C442.411,13.514 442.622,13.726 442.9,13.862 C443.178,13.998 443.494,14.074 443.848,14.09 Z M447.085,14 L447.085,10.544 C447.085,10.176 447.127,9.848 447.211,9.56 C447.295,9.272 447.418,9.027 447.58,8.825 C447.742,8.623 447.942,8.468 448.18,8.36 C448.418,8.252 448.693,8.198 449.005,8.198 C449.345,8.198 449.634,8.26 449.872,8.384 C450.11,8.508 450.304,8.683 450.454,8.909 C450.604,9.135 450.713,9.399 450.781,9.701 C450.849,10.003 450.883,10.334 450.883,10.694 L450.883,10.694 L450.883,14 L451.771,14 L451.771,10.436 C451.771,10.144 451.743,9.851 451.687,9.557 C451.631,9.263 451.541,8.985 451.417,8.723 C451.293,8.461 451.13,8.228 450.928,8.024 C450.726,7.82 450.48,7.658 450.19,7.538 C449.9,7.418 449.561,7.358 449.173,7.358 C448.645,7.358 448.177,7.474 447.769,7.706 C447.477571,7.87171429 447.231041,8.09355102 447.029408,8.3715102 L446.995,8.423 L446.995,5.36 L446.197,5.36 L446.197,14 L447.085,14 Z M454.333,6.29 L454.333,5.3 L453.451,5.3 L453.451,6.29 L454.333,6.29 Z M454.333,14 L454.333,7.52 L453.451,7.52 L453.451,14 L454.333,14 Z M457.015,14 L457.015,10.544 C457.015,10.176 457.057,9.848 457.141,9.56 C457.225,9.272 457.348,9.027 457.51,8.825 C457.672,8.623 457.872,8.468 458.11,8.36 C458.348,8.252 458.623,8.198 458.935,8.198 C459.275,8.198 459.564,8.26 459.802,8.384 C460.04,8.508 460.234,8.683 460.384,8.909 C460.534,9.135 460.643,9.399 460.711,9.701 C460.779,10.003 460.813,10.334 460.813,10.694 L460.813,10.694 L460.813,14 L461.701,14 L461.701,10.436 C461.701,10.144 461.673,9.851 461.617,9.557 C461.561,9.263 461.471,8.985 461.347,8.723 C461.223,8.461 461.06,8.228 460.858,8.024 C460.656,7.82 460.41,7.658 460.12,7.538 C459.83,7.418 459.491,7.358 459.103,7.358 C458.575,7.358 458.107,7.474 457.699,7.706 C457.407571,7.87171429 457.161041,8.09355102 456.959408,8.3715102 L456.925,8.423 L456.925,7.52 L456.127,7.52 L456.127,14 L457.015,14 Z" id="skip-forward-thin" fill="#245633"></path>
                    <path d="M531.185,16.88 L531.185,13.226 L531.226388,13.2792041 C531.319612,13.3919388 531.421,13.4958571 531.530551,13.5909592 L531.701,13.727 C532.113,14.029 532.617,14.18 533.213,14.18 C533.817,14.18 534.333,14.029 534.761,13.727 C535.189,13.425 535.517,13.016 535.745,12.5 C535.973,11.984 536.087,11.402 536.087,10.754 C536.087,10.11 535.974,9.53 535.748,9.014 C535.522,8.498 535.197,8.09 534.773,7.79 C534.349,7.49 533.841,7.34 533.249,7.34 C532.641,7.34 532.129,7.488 531.713,7.784 C531.475286,7.95314286 531.270551,8.15787755 531.098796,8.39820408 L531.089,8.413 L531.089,7.52 L530.297,7.52 L530.297,16.88 L531.185,16.88 Z M533.123,13.358 C532.663,13.358 532.283,13.246 531.983,13.022 C531.683,12.798 531.459,12.489 531.311,12.095 C531.163,11.701 531.089,11.254 531.089,10.754 C531.089,10.246 531.163,9.797 531.311,9.407 C531.459,9.017 531.682,8.712 531.98,8.492 C532.278,8.272 532.653,8.162 533.105,8.162 C533.569,8.162 533.952,8.276 534.254,8.504 C534.556,8.732 534.781,9.042 534.929,9.434 C535.077,9.826 535.151,10.266 535.151,10.754 C535.151,11.246 535.076,11.689 534.926,12.083 C534.776,12.477 534.551,12.788 534.251,13.016 C533.951,13.244 533.575,13.358 533.123,13.358 Z M538.289,14 L538.289,10.766 C538.289,10.51 538.307,10.251 538.343,9.989 C538.379,9.727 538.451,9.479 538.559,9.245 C538.667,9.011 538.829,8.81 539.045,8.642 C539.281,8.45 539.539,8.338 539.819,8.306 C540.099,8.274 540.357,8.288 540.593,8.348 L540.593,8.348 L540.593,7.52 C540.405,7.472 540.197,7.455 539.969,7.469 C539.741,7.483 539.515,7.529 539.291,7.607 C539.067,7.685 538.871,7.798 538.703,7.946 C538.567,8.05 538.441,8.183 538.325,8.345 C538.286333,8.399 538.250111,8.45466667 538.216333,8.512 L538.199,8.544 L538.199,7.52 L537.407,7.52 L537.407,14 L538.289,14 Z M544.439,14.18 C545.079,14.18 545.629,14.036 546.089,13.748 C546.549,13.46 546.901,13.059 547.145,12.545 C547.389,12.031 547.511,11.434 547.511,10.754 C547.511,10.086 547.39,9.495 547.148,8.981 C546.906,8.467 546.556,8.065 546.098,7.775 C545.64,7.485 545.087,7.34 544.439,7.34 C543.807,7.34 543.262,7.483 542.804,7.769 C542.346,8.055 541.993,8.454 541.745,8.966 C541.497,9.478 541.373,10.074 541.373,10.754 C541.373,11.422 541.495,12.014 541.739,12.53 C541.983,13.046 542.333,13.45 542.789,13.742 C543.245,14.034 543.795,14.18 544.439,14.18 Z M544.439,13.334 C543.739,13.334 543.209,13.099 542.849,12.629 C542.489,12.159 542.309,11.534 542.309,10.754 C542.309,10.25 542.386,9.805 542.54,9.419 C542.694,9.033 542.928,8.731 543.242,8.513 C543.556,8.295 543.955,8.186 544.439,8.186 C545.155,8.186 545.69,8.418 546.044,8.882 C546.398,9.346 546.575,9.97 546.575,10.754 C546.575,11.518 546.399,12.139 546.047,12.617 C545.695,13.095 545.159,13.334 544.439,13.334 Z M549.713,14 L549.713,10.544 C549.713,10.176 549.755,9.848 549.839,9.56 C549.923,9.272 550.046,9.027 550.208,8.825 C550.37,8.623 550.57,8.468 550.808,8.36 C551.046,8.252 551.321,8.198 551.633,8.198 C551.973,8.198 552.262,8.26 552.5,8.384 C552.738,8.508 552.932,8.683 553.082,8.909 C553.232,9.135 553.341,9.399 553.409,9.701 C553.477,10.003 553.511,10.334 553.511,10.694 L553.511,10.694 L553.511,14 L554.399,14 L554.399,10.436 C554.399,10.144 554.371,9.851 554.315,9.557 C554.259,9.263 554.169,8.985 554.045,8.723 C553.921,8.461 553.758,8.228 553.556,8.024 C553.354,7.82 553.108,7.658 552.818,7.538 C552.528,7.418 552.189,7.358 551.801,7.358 C551.273,7.358 550.805,7.474 550.397,7.706 C550.105571,7.87171429 549.859041,8.09355102 549.657408,8.3715102 L549.623,8.423 L549.623,5.36 L548.825,5.36 L548.825,14 L549.713,14 Z M556.961,6.29 L556.961,5.3 L556.079,5.3 L556.079,6.29 L556.961,6.29 Z M556.961,14 L556.961,7.52 L556.079,7.52 L556.079,14 L556.961,14 Z M561.671,14.18 C562.275,14.18 562.791,14.029 563.219,13.727 C563.647,13.425 563.975,13.016 564.203,12.5 C564.431,11.984 564.545,11.402 564.545,10.754 C564.545,10.11 564.432,9.53 564.206,9.014 C563.98,8.498 563.655,8.09 563.231,7.79 C562.807,7.49 562.299,7.34 561.707,7.34 C561.099,7.34 560.587,7.488 560.171,7.784 C559.992714,7.91085714 559.83298,8.05773469 559.691796,8.22463265 L559.643,8.287 L559.643,5.36 L558.755,5.36 L558.755,14 L559.547,14 L559.547,13.099 C559.677041,13.2843197 559.824224,13.4483061 559.988551,13.5909592 L560.159,13.727 C560.571,14.029 561.075,14.18 561.671,14.18 Z M561.581,13.358 C561.121,13.358 560.741,13.246 560.441,13.022 C560.141,12.798 559.917,12.489 559.769,12.095 C559.621,11.701 559.547,11.254 559.547,10.754 C559.547,10.246 559.621,9.797 559.769,9.407 C559.917,9.017 560.14,8.712 560.438,8.492 C560.736,8.272 561.111,8.162 561.563,8.162 C562.027,8.162 562.41,8.276 562.712,8.504 C563.014,8.732 563.239,9.042 563.387,9.434 C563.535,9.826 563.609,10.266 563.609,10.754 C563.609,11.246 563.534,11.689 563.384,12.083 C563.234,12.477 563.009,12.788 562.709,13.016 C562.409,13.244 562.033,13.358 561.581,13.358 Z M566.867,6.29 L566.867,5.3 L565.985,5.3 L565.985,6.29 L566.867,6.29 Z M566.867,14 L566.867,7.52 L565.985,7.52 L565.985,14 L566.867,14 Z M571.118,14.09 C571.472,14.106 571.831,14.076 572.195,14 L572.195,14 L572.195,13.226 C571.731,13.302 571.342,13.314 571.028,13.262 C570.714,13.21 570.485,13.05 570.341,12.782 C570.265,12.642 570.224,12.481 570.218,12.299 C570.212,12.117 570.209,11.89 570.209,11.618 L570.209,11.618 L570.208,8.276 L572.195,8.276 L572.195,7.52 L570.208,7.52 L570.209,5.72 L569.333,5.72 L569.333,7.52 L567.947,7.52 L567.947,8.276 L569.333,8.276 L569.333938,11.8844375 C569.335187,12.0336875 569.337688,12.1741875 569.341437,12.3059375 L569.348,12.497 C569.358,12.743 569.421,12.986 569.537,13.226 C569.681,13.514 569.892,13.726 570.17,13.862 C570.448,13.998 570.764,14.074 571.118,14.09 Z M576.953,10.598 L576.953,9.842 L573.353,9.842 L573.353,10.598 L576.953,10.598 Z M580.964,14.09 C581.318,14.106 581.677,14.076 582.041,14 L582.041,14 L582.041,13.226 C581.577,13.302 581.188,13.314 580.874,13.262 C580.56,13.21 580.331,13.05 580.187,12.782 C580.111,12.642 580.07,12.481 580.064,12.299 C580.058,12.117 580.055,11.89 580.055,11.618 L580.055,11.618 L580.054,8.276 L582.041,8.276 L582.041,7.52 L580.054,7.52 L580.055,5.72 L579.179,5.72 L579.178,7.52 L577.793,7.52 L577.793,8.276 L579.178,8.276 L579.179,11.654 C579.179,11.891 579.181812,12.1083125 579.187437,12.3059375 L579.194,12.497 C579.204,12.743 579.267,12.986 579.383,13.226 C579.527,13.514 579.738,13.726 580.016,13.862 C580.294,13.998 580.61,14.074 580.964,14.09 Z M584.201,14 L584.201,10.544 C584.201,10.176 584.243,9.848 584.327,9.56 C584.411,9.272 584.534,9.027 584.696,8.825 C584.858,8.623 585.058,8.468 585.296,8.36 C585.534,8.252 585.809,8.198 586.121,8.198 C586.461,8.198 586.75,8.26 586.988,8.384 C587.226,8.508 587.42,8.683 587.57,8.909 C587.72,9.135 587.829,9.399 587.897,9.701 C587.965,10.003 587.999,10.334 587.999,10.694 L587.999,10.694 L587.999,14 L588.887,14 L588.887,10.436 C588.887,10.144 588.859,9.851 588.803,9.557 C588.747,9.263 588.657,8.985 588.533,8.723 C588.409,8.461 588.246,8.228 588.044,8.024 C587.842,7.82 587.596,7.658 587.306,7.538 C587.016,7.418 586.677,7.358 586.289,7.358 C585.761,7.358 585.293,7.474 584.885,7.706 C584.593571,7.87171429 584.347041,8.09355102 584.145408,8.3715102 L584.11,8.424 L584.111,5.36 L583.313,5.36 L583.313,14 L584.201,14 Z M591.449,6.29 L591.449,5.3 L590.567,5.3 L590.567,6.29 L591.449,6.29 Z M591.449,14 L591.449,7.52 L590.567,7.52 L590.567,14 L591.449,14 Z M594.131,14 L594.131,10.544 C594.131,10.176 594.173,9.848 594.257,9.56 C594.341,9.272 594.464,9.027 594.626,8.825 C594.788,8.623 594.988,8.468 595.226,8.36 C595.464,8.252 595.739,8.198 596.051,8.198 C596.391,8.198 596.68,8.26 596.918,8.384 C597.156,8.508 597.35,8.683 597.5,8.909 C597.65,9.135 597.759,9.399 597.827,9.701 C597.895,10.003 597.929,10.334 597.929,10.694 L597.929,10.694 L597.929,14 L598.817,14 L598.817,10.436 C598.817,10.144 598.789,9.851 598.733,9.557 C598.677,9.263 598.587,8.985 598.463,8.723 C598.339,8.461 598.176,8.228 597.974,8.024 C597.772,7.82 597.526,7.658 597.236,7.538 C596.946,7.418 596.607,7.358 596.219,7.358 C595.691,7.358 595.223,7.474 594.815,7.706 C594.523571,7.87171429 594.277041,8.09355102 594.075408,8.3715102 L594.041,8.423 L594.041,7.52 L593.243,7.52 L593.243,14 L594.131,14 Z" id="prohibit-thin" fill="#245633"></path>
                    <path d="M271.722,16.88 L271.722,13.226 L271.763388,13.2792041 C271.856612,13.3919388 271.958,13.4958571 272.067551,13.5909592 L272.238,13.727 C272.65,14.029 273.154,14.18 273.75,14.18 C274.354,14.18 274.87,14.029 275.298,13.727 C275.726,13.425 276.054,13.016 276.282,12.5 C276.51,11.984 276.624,11.402 276.624,10.754 C276.624,10.11 276.511,9.53 276.285,9.014 C276.059,8.498 275.734,8.09 275.31,7.79 C274.886,7.49 274.378,7.34 273.786,7.34 C273.178,7.34 272.666,7.488 272.25,7.784 C272.012286,7.95314286 271.807551,8.15787755 271.635796,8.39820408 L271.626,8.413 L271.626,7.52 L270.834,7.52 L270.834,16.88 L271.722,16.88 Z M273.66,13.358 C273.2,13.358 272.82,13.246 272.52,13.022 C272.22,12.798 271.996,12.489 271.848,12.095 C271.7,11.701 271.626,11.254 271.626,10.754 C271.626,10.246 271.7,9.797 271.848,9.407 C271.996,9.017 272.219,8.712 272.517,8.492 C272.815,8.272 273.19,8.162 273.642,8.162 C274.106,8.162 274.489,8.276 274.791,8.504 C275.093,8.732 275.318,9.042 275.466,9.434 C275.614,9.826 275.688,10.266 275.688,10.754 C275.688,11.246 275.613,11.689 275.463,12.083 C275.313,12.477 275.088,12.788 274.788,13.016 C274.488,13.244 274.112,13.358 273.66,13.358 Z M279.798,14.18 C280.446,14.18 281.002,14.034 281.466,13.742 C281.756,13.5595 281.998344,13.3254375 282.193031,13.0398125 L282.264,12.927 L282.264,14 L283.05,14 L283.05,9.974 C283.05,9.734 283.038,9.498 283.014,9.266 C282.99,9.034 282.938,8.824 282.858,8.636 C282.686,8.216 282.393,7.895 281.979,7.673 C281.565,7.451 281.062,7.34 280.47,7.34 C279.754,7.34 279.172,7.5 278.724,7.82 C278.276,8.14 277.978,8.59 277.83,9.17 L277.83,9.17 L278.688,9.422 C278.812,8.99 279.027,8.674 279.333,8.474 C279.639,8.274 280.014,8.174 280.458,8.174 C281.102,8.174 281.554,8.328 281.814,8.636 C282.074,8.944 282.198,9.418 282.186,10.058 L282.185,9.912 L282.03075,9.93275 C281.947,9.944 281.860313,9.9553125 281.770688,9.9666875 L281.493,10.001 C281.111,10.047 280.721,10.101 280.323,10.163 C279.925,10.225 279.562,10.296 279.234,10.376 C278.91,10.46 278.625,10.582 278.379,10.742 C278.133,10.902 277.939,11.107 277.797,11.357 C277.655,11.607 277.584,11.908 277.584,12.26 C277.584,12.604 277.666,12.922 277.83,13.214 C277.994,13.506 278.241,13.74 278.571,13.916 C278.901,14.092 279.31,14.18 279.798,14.18 Z M279.9,13.418 C279.552,13.418 279.273,13.36 279.063,13.244 C278.853,13.128 278.701,12.982 278.607,12.806 C278.513,12.63 278.466,12.448 278.466,12.26 C278.466,12.028 278.521,11.834 278.631,11.678 C278.741,11.522 278.882,11.397 279.054,11.303 C279.226,11.209 279.404,11.136 279.588,11.084 C279.86,11.012 280.165,10.95 280.503,10.898 C280.841,10.846 281.185,10.8 281.535,10.76 C281.651667,10.7466667 281.765556,10.7333333 281.876667,10.72 L282.172,10.684 L282.17184,10.75724 C282.17136,10.79716 282.1708,10.8396 282.17016,10.88456 L282.168,11.027 C282.164,11.277 282.138,11.506 282.09,11.714 C282.034,12.038 281.912,12.329 281.724,12.587 C281.536,12.845 281.288,13.048 280.98,13.196 C280.672,13.344 280.312,13.418 279.9,13.418 Z M287.088,14.162 C287.616,14.162 288.084,14.046 288.492,13.814 C288.783429,13.6482857 289.029959,13.426449 289.231592,13.1484898 L289.266,13.096 L289.266,14 L290.058,14 L290.058,7.52 L289.176,7.52 L289.176,10.976 C289.176,11.34 289.134,11.667 289.05,11.957 C288.966,12.247 288.843,12.493 288.681,12.695 C288.519,12.897 288.319,13.052 288.081,13.16 C287.843,13.268 287.568,13.322 287.256,13.322 C286.916,13.322 286.627,13.26 286.389,13.136 C286.151,13.012 285.957,12.837 285.807,12.611 C285.657,12.385 285.548,12.12 285.48,11.816 C285.412,11.512 285.378,11.182 285.378,10.826 L285.378,10.826 L285.378,7.52 L284.49,7.52 L284.49,11.084 C284.49,11.376 284.518,11.669 284.574,11.963 C284.63,12.257 284.72,12.535 284.844,12.797 C284.968,13.059 285.131,13.292 285.333,13.496 C285.535,13.7 285.781,13.862 286.071,13.982 C286.361,14.102 286.7,14.162 287.088,14.162 Z M294.156,14.174 C294.952,14.174 295.577,13.999 296.031,13.649 C296.485,13.299 296.712,12.818 296.712,12.206 C296.712,11.87 296.64,11.588 296.496,11.36 C296.352,11.132 296.11,10.934 295.77,10.766 C295.43,10.598 294.962,10.438 294.366,10.286 C293.858,10.158 293.467,10.04 293.193,9.932 C292.919,9.824 292.73,9.709 292.626,9.587 C292.522,9.465 292.47,9.318 292.47,9.146 C292.47,8.838 292.614,8.591 292.902,8.405 C293.19,8.219 293.564,8.132 294.024,8.144 C294.512,8.152 294.915,8.267 295.233,8.489 C295.551,8.711 295.74,9.012 295.8,9.392 L295.8,9.392 L296.7,9.23 C296.656,8.854 296.516,8.524 296.28,8.24 C296.044,7.956 295.733,7.735 295.347,7.577 C294.961,7.419 294.524,7.34 294.036,7.34 C293.548,7.34 293.12,7.417 292.752,7.571 C292.384,7.725 292.096,7.941 291.888,8.219 C291.68,8.497 291.576,8.82 291.576,9.188 C291.576,9.492 291.646,9.749 291.786,9.959 C291.926,10.169 292.162,10.354 292.494,10.514 C292.826,10.674 293.286,10.834 293.874,10.994 C294.422,11.142 294.834,11.27 295.11,11.378 C295.386,11.486 295.569,11.603 295.659,11.729 C295.749,11.855 295.794,12.018 295.794,12.218 C295.794,12.574 295.652,12.855 295.368,13.061 C295.084,13.267 294.696,13.37 294.204,13.37 C293.7,13.37 293.277,13.261 292.935,13.043 C292.593,12.825 292.374,12.532 292.278,12.164 L292.278,12.164 L291.378,12.314 C291.49,12.898 291.791,13.354 292.281,13.682 C292.771,14.01 293.396,14.174 294.156,14.174 Z M303.726,11.006 C303.746,10.246 303.64,9.592 303.408,9.044 C303.176,8.496 302.834,8.075 302.382,7.781 C301.93,7.487 301.384,7.34 300.744,7.34 C300.12,7.34 299.579,7.48 299.121,7.76 C298.663,8.04 298.308,8.438 298.056,8.954 C297.804,9.47 297.678,10.082 297.678,10.79 C297.678,11.474 297.806,12.07 298.062,12.578 C298.318,13.086 298.677,13.48 299.139,13.76 C299.601,14.04 300.148,14.18 300.78,14.18 C301.408,14.18 301.971,14.025 302.469,13.715 C302.967,13.405 303.344,12.968 303.6,12.404 L303.6,12.404 L302.778,12.086 C302.578,12.49 302.305,12.799 301.959,13.013 C301.613,13.227 301.208,13.334 300.744,13.334 C300.064,13.334 299.539,13.109 299.169,12.659 C298.873,12.299 298.6954,11.82188 298.6362,11.22764 L298.619,11.006 L303.252,11.006 L303.726,11.006 Z M302.801,10.268 L298.638,10.268 L298.66395,10.05944 C298.73055,9.62696 298.86375,9.2636 299.06355,8.96936 L299.169,8.828 C299.539,8.376 300.072,8.15 300.768,8.15 C301.432,8.15 301.937,8.364 302.283,8.792 C302.5598,9.1344 302.731,9.60864 302.7966,10.21472 L302.801,10.268 Z M308.532,10.598 L308.532,9.842 L304.932,9.842 L304.932,10.598 L308.532,10.598 Z M311.616,14 L311.616,8.276 L313.386,8.276 L313.386,7.52 L311.616,7.52 L311.616,6.944 C311.616,6.64228571 311.67698,6.40963265 311.798939,6.24604082 L311.865,6.17 C312.031,6.006 312.282,5.924 312.618,5.924 L312.618,5.924 L313.386,5.924 L313.386,5.18 L312.558,5.18 C312.394,5.18 312.227,5.19 312.057,5.21 C311.887,5.23 311.724,5.273 311.568,5.339 C311.412,5.405 311.268,5.51 311.136,5.654 C311.016,5.782 310.928,5.921 310.872,6.071 C310.816,6.221 310.779,6.378 310.761,6.542 C310.743,6.706 310.734,6.872 310.734,7.04 L310.734,7.04 L310.734,7.52 L309.612,7.52 L309.612,8.276 L310.734,8.276 L310.734,14 L311.616,14 Z M315.528,6.29 L315.528,5.3 L314.646,5.3 L314.646,6.29 L315.528,6.29 Z M315.528,14 L315.528,7.52 L314.646,7.52 L314.646,14 L315.528,14 Z M318.33,14 L318.33,5.18 L317.448,5.18 L317.448,14 L318.33,14 Z M321.132,14 L321.132,5.18 L320.25,5.18 L320.25,14 L321.132,14 Z" id="pause-fll" fill="#02572F"></path>
                </g>
                <polyline id="Path-3-Copy" stroke="#245633" points="212 4 212 25 187 25 187 67"></polyline>
                <polyline id="Path-3-Copy-2" stroke="#245633" points="380 4 380.0016 25 413.5 25 413.5 67"></polyline>
                <polygon id="Path-3-Copy-4" fill="#245633" fill-rule="nonzero" points="296.625 5 296.625 67 295.625 67 295.625 5"></polygon>
                <circle id="Oval-Copy-2" fill="#245633" cx="380.125" cy="4" r="4"></circle>
                <circle id="Oval-Copy-15" fill="#245633" cx="564.125" cy="4" r="4"></circle>
                <polygon id="Path-3-Copy-3" fill="#245633" fill-rule="nonzero" points="564.625 5 564.625 67 563.625 67 563.625 5"></polygon>
            </g>
        </g>
    </g>
</svg>