<?xml version="1.0" encoding="UTF-8"?>
<svg width="16px" height="16px" viewBox="0 0 16 16" version="1.1" xmlns="http://www.w3.org/2000/svg" xmlns:xlink="http://www.w3.org/1999/xlink">
    <title>ph-trash-solid</title>
    <g id="Page-1" stroke="none" stroke-width="1" fill="none" fill-rule="evenodd">
        <g id="REFACTOR---Testing-32-line-style-MEDIUM---REFACTOR" transform="translate(-172.000000, -1028.000000)">
            <g id="ph-trash-solid" transform="translate(172.000000, 1028.000000)">
                <polygon id="Fill-1" points="0 16 16 16 16 0 0 0"></polygon>
                <path d="M13.5,3 C13.776,3 14,3.224 14,3.5 C14,3.776 13.776,4 13.5,4 L13.5,4 L13,4 L13,12.548 C13,13.349 12.327,14 11.5,14 L11.5,14 L4.5,14 C3.673,14 3,13.349 3,12.548 L3,12.548 L3,4 L2.5,4 C2.224,4 2,3.776 2,3.5 C2,3.224 2.224,3 2.5,3 L2.5,3 Z M9.5,6 C9.224,6 9,6.224 9,6.5 L9,6.5 L9,10.5 C9,10.776 9.224,11 9.5,11 C9.776,11 10,10.776 10,10.5 L10,10.5 L10,6.5 C10,6.224 9.776,6 9.5,6 Z M6.5,6 C6.224,6 6,6.224 6,6.5 L6,6.5 L6,10.5 C6,10.776 6.224,11 6.5,11 C6.776,11 7,10.776 7,10.5 L7,10.5 L7,6.5 C7,6.224 6.776,6 6.5,6 Z M10.5,1 C10.776,1 11,1.224 11,1.5 C11,1.776 10.776,2 10.5,2 L10.5,2 L5.5,2 C5.224,2 5,1.776 5,1.5 C5,1.224 5.224,1 5.5,1 L5.5,1 Z" id="Combined-Shape" fill="#000000"></path>
            </g>
        </g>
    </g>
</svg>