<?xml version="1.0" encoding="UTF-8"?>
<svg width="16px" height="16px" viewBox="0 0 16 16" version="1.1" xmlns="http://www.w3.org/2000/svg" xmlns:xlink="http://www.w3.org/1999/xlink">
    <title>ph-trash-duo</title>
    <g id="Page-1" stroke="none" stroke-width="1" fill="none" fill-rule="evenodd">
        <g id="REFACTOR---Testing-32-line-style-MEDIUM---REFACTOR" transform="translate(-236.000000, -804.000000)">
            <g id="ph-trash-duo" transform="translate(236.000000, 804.000000)">
                <polygon id="bg" points="0 16 16 16 16 0 0 0"></polygon>
                <path d="M12.5,3.5 L12.5,12.548 C12.5,13.073 12.052,13.5 11.5,13.5 L4.5,13.5 C3.947,13.5 3.5,13.073 3.5,12.548 L3.5,3.5" id="fill" fill="#000000" opacity="0.100000001"></path>
                <path d="M13.5,2.9999 C13.776,2.9999 14,3.2239 14,3.4999 C14,3.7769 13.776,3.9999 13.5,3.9999 L13.5,3.9999 L13,3.9999 L13,12.5479 C13,13.3489 12.327,13.9999 11.5,13.9999 L11.5,13.9999 L4.5,13.9999 C3.673,13.9999 3,13.3489 3,12.5479 L3,12.5479 L3,3.9999 L2.5,3.9999 C2.224,3.9999 2,3.7769 2,3.4999 C2,3.2239 2.224,2.9999 2.5,2.9999 L2.5,2.9999 Z M12,3.9999 L4,3.9999 L4,12.5479 C4,12.7969 4.224,12.9999 4.5,12.9999 L4.5,12.9999 L11.5,12.9999 C11.776,12.9999 12,12.7969 12,12.5479 L12,12.5479 L12,3.9999 Z M6.5,6 C6.776,6 7,6.224 7,6.5 L7,6.5 L7,10.5 C7,10.776 6.776,11 6.5,11 C6.224,11 6,10.776 6,10.5 L6,10.5 L6,6.5 C6,6.224 6.224,6 6.5,6 Z M9.5,6 C9.776,6 10,6.224 10,6.5 L10,6.5 L10,10.5 C10,10.776 9.776,11 9.5,11 C9.224,11 9,10.776 9,10.5 L9,10.5 L9,6.5 C9,6.224 9.224,6 9.5,6 Z M10.5,1 C10.776,1 11,1.224 11,1.5 C11,1.776 10.776,2 10.5,2 L10.5,2 L5.5,2 C5.224,2 5,1.776 5,1.5 C5,1.224 5.224,1 5.5,1 L5.5,1 Z" id="stroke" fill="#000000"></path>
            </g>
        </g>
    </g>
</svg>