<?xml version="1.0" encoding="UTF-8"?>
<svg width="58px" height="58px" viewBox="0 0 58 58" version="1.1" xmlns="http://www.w3.org/2000/svg" xmlns:xlink="http://www.w3.org/1999/xlink">
    <title>u-arrow-up-left</title>
    <g id="u-arrow-up-left" stroke="none" stroke-width="1" fill="none" fill-rule="evenodd">
        <polygon id="bounding-box" transform="translate(29.200000, 29.200000) scale(1, -1) rotate(90.000000) translate(-29.200000, -29.200000) " points="0.4 58 58 58 58 0.4 0.4 0.4"></polygon>
        <path d="M38.2,9.4 C39.1941125,9.4 40,10.2058875 40,11.2 C40,12.1444069 39.2726866,12.9189407 38.347628,12.9940331 L38.2,13 L18.4,13 C12.4353125,13 7.6,17.8353125 7.6,23.8 C7.6,29.6684828 12.2805926,34.4437284 18.112283,34.5962419 L18.4,34.6 L44.654,34.6 L36.9272078,26.8727922 C36.2633165,26.2089009 36.2264336,25.1554365 36.8165592,24.4482593 L36.9272078,24.3272078 C37.5910991,23.6633165 38.6445635,23.6264336 39.3517407,24.2165592 L39.4727922,24.3272078 L50.2727922,35.1272078 C50.3086835,35.1630991 50.3430661,35.200499 50.3758368,35.2393043 L50.2727922,35.1272078 C50.322523,35.1769386 50.3687356,35.2288554 50.4114298,35.2826489 C50.4303122,35.3066321 50.4485184,35.3308286 50.4661181,35.3554879 C50.4786457,35.3727743 50.4909825,35.3907223 50.5029573,35.4088392 C50.5204983,35.4356771 50.5373395,35.4626973 50.5534721,35.4901836 C50.5604155,35.501718 50.5673022,35.5137723 50.5740382,35.5258878 C50.5905898,35.5559164 50.606343,35.5862258 50.6212445,35.6170243 C50.6310894,35.6372379 50.6403272,35.6573209 50.6491756,35.6775332 C50.6615763,35.705848 50.6734867,35.7350368 50.6846414,35.7645963 C50.6896953,35.7781611 50.6944267,35.7911991 50.6990025,35.8042794 C50.7106655,35.837281 50.721476,35.8712903 50.7312871,35.9057207 C50.7358977,35.9224356 50.7403085,35.938831 50.7444838,35.9552738 C50.7807852,36.0974825 50.8,36.2464973 50.8,36.4 C50.8,36.6494086 50.7492745,36.8869696 50.6575775,37.1029292 C50.6430903,37.1371689 50.6273615,37.1712925 50.6105085,37.2049973 C50.5965597,37.232636 50.5820362,37.2598508 50.5668455,37.2866377 C50.566621,37.2873207 50.5664341,37.2876503 50.566247,37.2879798 C50.5435288,37.327754 50.5186404,37.3678619 50.492262,37.4068799 C50.4795991,37.4258795 50.4663526,37.4446817 50.4527038,37.463281 C50.4342916,37.488172 50.4153249,37.512692 50.3957513,37.5366974 C50.3915469,37.5419745 50.3875087,37.5468658 50.3834408,37.5517407 L50.3644975,37.5739923 C50.3400259,37.6024091 50.3146818,37.630053 50.2885067,37.6568825 L50.2727922,37.6727922 L39.4727922,48.4727922 C38.7698485,49.1757359 37.6301515,49.1757359 36.9272078,48.4727922 C36.2633165,47.8089009 36.2264336,46.7554365 36.8165592,46.0482593 L36.9272078,45.9272078 L44.654,38.2 L18.4,38.2 C10.4470875,38.2 4,31.7529125 4,23.8 C4,15.951731 10.2785434,9.5699209 18.0868626,9.4033373 L18.4,9.4 L38.2,9.4 Z" fill="#000000" fill-rule="nonzero" transform="translate(27.400000, 29.200000) scale(1, -1) rotate(90.000000) translate(-27.400000, -29.200000) "></path>
    </g>
</svg>