<svg xmlns="http://www.w3.org/2000/svg" width="279" height="555" viewBox="0 0 279 555">
  <g fill="none" fill-rule="evenodd" transform="rotate(-80 311.296 261.208)">
    <rect width="522.343" height="178.91" x="6.881" y=".626" stroke="#245633" stroke-width="1.251" opacity=".2"/>
    <rect width="511.083" height="167.65" x="12.511" y="6.256" stroke="#245633" stroke-width="1.251" opacity=".2"/>
    <path stroke="#245633" stroke-width="1.251" d="M433.547859,70.5945067 C438.370266,70.5945067 442.201572,71.6936532 445.024125,73.9353596 C447.684595,76.0483374 449.524197,78.9700386 450.558556,82.6898757 L450.558556,82.6898757 L444.825209,83.598821 C443.883044,81.1105956 442.657091,79.3884907 441.039115,78.0575755 C439.18984,76.5363976 436.837237,75.7616368 433.97874,75.7616963 C431.110282,75.7221313 428.732177,76.3582442 426.835183,77.6426674 C424.934862,78.9293432 423.5001,80.7374696 422.539606,83.0743404 C421.601556,85.3566069 421.127354,88.0249409 421.127354,91.0816143 C421.127354,94.1390273 421.597147,96.7933975 422.525735,99.0471578 C423.47667,101.355158 424.911311,103.149721 426.822357,104.436954 C428.724198,105.717987 431.101114,106.390229 433.964373,106.429716 C436.118586,106.449479 438.004033,106.053147 439.623825,105.253127 C441.264488,104.4428 442.607393,103.214524 443.648144,101.563332 C444.763454,99.7938503 445.487001,97.5388109 445.801181,94.7911883 L445.801181,94.7911883 L438.564854,94.7911883 L438.564854,90.721917 L451.721639,90.721917 C451.736349,90.9458425 451.746684,91.177978 451.755123,91.4395859 C451.773527,92.0100917 451.782948,92.3505541 451.782948,92.4609753 C451.782948,96.1822896 451.053459,99.490191 449.584668,102.382159 C448.128763,105.248755 446.044944,107.496547 443.331941,109.124349 C440.60657,110.759571 437.343497,111.568722 433.547859,111.568722 C431.004017,111.568722 428.618813,111.120342 426.392792,110.220848 C424.175874,109.325032 422.230574,108.008252 420.5566,106.270939 C418.877385,104.528186 417.568419,102.389142 416.62458,99.8571136 C415.672414,97.302743 415.200168,94.3770699 415.200168,91.0816143 C415.200168,86.7676207 415.996434,83.076867 417.605612,80.0139426 C419.199586,76.9799578 421.380016,74.649809 424.151891,73.0283528 C426.929829,71.4033498 430.062508,70.5945067 433.547859,70.5945067 Z M193.71019,71.4390135 L202.266089,102.442968 L210.794126,71.4915584 L216.963317,71.4427901 L225.518754,102.445071 L234.04542,71.4390135 L239.856592,71.4390135 L228.398408,110.724215 L222.638612,110.724215 L213.861464,80.2570981 L205.143822,110.724215 L199.384598,110.724215 L187.899132,71.4390135 L193.71019,71.4390135 Z M264.722679,71.4390135 L277.10843,110.724215 L271.437402,110.724215 L268.636142,101.941345 L251.753448,101.941345 L248.986594,110.724215 L243.317277,110.724215 L255.703028,71.4390135 L264.722679,71.4390135 Z M260.143236,75.307727 L253.353586,96.8592915 L267.015827,96.8592915 L260.143236,75.307727 Z M299.772377,71.4389882 C300.330022,71.4439947 300.76135,71.4574867 301.2697,71.4805935 C301.859564,71.5074055 302.404795,71.5650976 302.905301,71.6544738 C305.146981,71.9954207 306.989702,72.7267107 308.441939,73.8671178 C309.884852,75.000203 310.955399,76.4301987 311.65468,78.1562728 C312.367399,79.9155166 312.720841,81.8691318 312.720841,84.0159081 C312.720841,87.1772392 311.929149,89.897412 310.329509,92.1706329 C309.122566,93.7625282 307.85171,94.7327629 306.262994,95.4144025 L305.961323,95.5389093 L313.013607,110.724215 L306.700802,110.724215 L299.837789,96.5653035 L289.187253,96.5646118 L289.187253,110.724215 L283.65417,110.724215 L283.65417,71.4390135 L299.772377,71.4389882 Z M299.496491,76.549843 L289.187253,76.549843 L289.187253,91.4819731 L299.496491,91.4819731 L299.79822,91.4783509 C300.109094,91.4710994 300.447402,91.4529392 300.813137,91.4236804 C301.321789,91.3829882 301.789949,91.3011609 302.217924,91.1798431 C303.475186,90.8641415 304.459134,90.2991041 305.181511,89.5034426 C305.892986,88.719788 306.397558,87.8327007 306.696552,86.8429269 C306.987274,85.8805375 307.131457,84.938087 307.131457,84.0159081 C307.131457,83.0946047 306.987515,82.1480249 306.697067,81.1765253 C306.398014,80.1762469 305.893095,79.2839969 305.181511,78.5002234 C304.460017,77.7055351 303.477593,77.1409071 302.222344,76.8249985 C301.789236,76.7020226 301.315552,76.6240814 300.800717,76.5931914 C300.317671,76.5642086 299.882926,76.549843 299.496491,76.549843 L299.496491,76.549843 Z M326.718379,71.4390135 L346.485471,101.47434 L346.485471,71.4390135 L352.103004,71.4390135 L352.103004,110.724215 L346.197092,110.724215 L326.43,80.6888885 L326.43,110.724215 L320.812466,110.724215 L320.812466,71.4390135 L326.718379,71.4390135 Z M367.332276,71.4390135 L367.332276,110.724215 L361.799193,110.724215 L361.799193,71.4390135 L367.332276,71.4390135 Z M382.934377,71.4390135 L402.701469,101.47434 L402.701469,71.4390135 L408.319002,71.4390135 L408.319002,110.724215 L402.41309,110.724215 L382.645998,80.6888885 L382.645998,110.724215 L377.028464,110.724215 L377.028464,71.4390135 L382.934377,71.4390135 Z" opacity=".2"/>
    <path fill="#245633" d="M45.0403587,67.5616641 C42.7095202,67.5616641 40.8178251,65.6699691 40.8178251,63.3391305 C40.8178251,61.0026619 42.7095202,59.1165969 45.0403587,59.1165969 C47.3711973,59.1165969 49.2628924,61.0026619 49.2628924,63.3391305 C49.2628924,65.6699691 47.3711973,67.5616641 45.0403587,67.5616641 L45.0403587,67.5616641 Z M42.2253363,33.7813951 C42.2253363,32.2218726 43.4808363,30.9663726 45.0403587,30.9663726 C46.5942511,30.9663726 47.8553812,32.2218726 47.8553812,33.7813951 L47.8553812,50.6715296 C47.8553812,52.225422 46.5942511,53.486552 45.0403587,53.486552 C43.4808363,53.486552 42.2253363,52.225422 42.2253363,50.6715296 L42.2253363,33.7813951 Z M83.3021435,66.1428928 L52.348157,12.6574668 C50.8224148,10.0169758 48.091843,8.44619327 45.0403587,8.44619327 C41.9888744,8.44619327 39.2583027,10.0169758 37.7325605,12.6574668 L37.7325605,12.6574668 L6.77857399,66.1428928 C5.24157175,68.7890139 5.24157175,71.9474691 6.77294395,74.5935901 C8.29305605,77.2397112 11.0236278,78.8161238 14.0807422,78.8161238 L75.9999753,78.8161238 C79.0570897,78.8161238 81.7876614,77.2397112 83.3077735,74.5935901 C84.8391457,71.9474691 84.8391457,68.7890139 83.3021435,66.1428928 L83.3021435,66.1428928 Z" transform="translate(81.323 45.04)"/>
    <g transform="rotate(80 24.256 66.213)">
      <circle cx="39.41" cy="5.004" r="5.004" fill="#245633"/>
      <path fill="#245633" fill-rule="nonzero" d="M3.73834978,56.3004484 L5.75765919,49.8446637 L7.78447534,56.3004484 L8.74533632,56.3004484 L11.2225561,48.1931839 L10.126574,48.1931839 L8.18983857,54.4913274 L6.26060987,48.1931839 L5.25470852,48.1931839 L3.32547982,54.4913274 L1.40375785,48.1931839 L0.300269058,48.1856771 L2.77748879,56.3004484 L3.73834978,56.3004484 Z M14.8933453,56.5256502 C15.7040717,56.5256502 16.3996951,56.3429865 16.9802152,55.9776592 C17.3430404,55.7493296 17.6462417,55.4564891 17.8898194,55.0991376 L17.9786099,54.9579955 L17.9786099,56.3004484 L18.961991,56.3004484 L18.961991,51.263435 C18.961991,50.9631659 18.9469776,50.6679013 18.9169507,50.3776413 C18.8869238,50.0873812 18.8218655,49.8246457 18.7217758,49.589435 C18.506583,49.0639641 18.1400045,48.6623543 17.6220404,48.3846054 C17.1040762,48.1068565 16.4747623,47.9679821 15.7340987,47.9679821 C14.838296,47.9679821 14.1101435,48.1681614 13.5496413,48.5685202 C12.989139,48.9688789 12.6163049,49.5318834 12.431139,50.2575336 L12.431139,50.2575336 L13.5046009,50.5728161 C13.6597399,50.0323318 13.9287309,49.6369776 14.311574,49.3867534 C14.694417,49.1365291 15.1635874,49.011417 15.7190852,49.011417 C16.5248072,49.011417 17.0903139,49.2040897 17.4156054,49.589435 C17.7408969,49.9747803 17.8960359,50.5678117 17.8810224,51.3685291 L17.8797713,51.1858655 L17.6867859,51.2118262 C17.5820045,51.2259013 17.4735479,51.2400547 17.3614162,51.2542862 L17.0139955,51.2972152 C16.5360673,51.3547668 16.04813,51.4223274 15.5501839,51.4998969 C15.0522377,51.5774664 14.5980807,51.666296 14.187713,51.7663857 C13.7823498,51.8714798 13.4257803,52.0241166 13.1180045,52.224296 C12.8102287,52.4244753 12.5675112,52.6809552 12.389852,52.9937354 C12.2121928,53.3065157 12.1233632,53.6831031 12.1233632,54.1234978 C12.1233632,54.5538834 12.2259552,54.9517399 12.431139,55.3170673 C12.6363229,55.6823946 12.9453498,55.975157 13.3582197,56.1953543 C13.7710897,56.4155516 14.2827982,56.5256502 14.8933453,56.5256502 Z M15.0209596,55.572296 C14.5855695,55.572296 14.2365067,55.4997309 13.9737713,55.3546009 C13.7110359,55.2094709 13.5208655,55.0268072 13.4032601,54.8066099 C13.2856547,54.5864126 13.226852,54.3587085 13.226852,54.1234978 C13.226852,53.8332377 13.2956637,53.5905202 13.433287,53.3953453 C13.5709103,53.2001704 13.7473184,53.0437803 13.9625112,52.9261749 C14.177704,52.8085695 14.4004036,52.7172377 14.6306099,52.6521794 C14.9709148,52.5620987 15.3525067,52.4845291 15.7753857,52.4194709 C16.1982646,52.3544126 16.6286502,52.296861 17.0665426,52.2468161 C17.2125067,52.2301345 17.3549955,52.2134529 17.494009,52.1967713 L17.8635067,52.1517309 L17.8633065,52.243363 C17.862706,52.2933078 17.8620054,52.3464054 17.8612047,52.4026558 L17.8585022,52.5808655 C17.8534978,52.8936457 17.8209686,53.1801525 17.7609148,53.4403857 C17.690852,53.8457489 17.5382152,54.2098251 17.3030045,54.5326143 C17.0677937,54.8554036 16.7575157,55.1093812 16.3721704,55.2945471 C15.9868251,55.479713 15.5364215,55.572296 15.0209596,55.572296 Z M22.0172287,56.3004484 L22.0172287,52.2543229 C22.0172287,51.9340359 22.0397489,51.6099955 22.0847892,51.2822018 C22.1298296,50.9544081 22.2199103,50.64413 22.3550314,50.3513677 C22.4901525,50.0586054 22.6928341,49.80713 22.9630762,49.5969417 C23.2583408,49.3567265 23.58113,49.2166009 23.9314439,49.176565 C24.2817578,49.1365291 24.6045471,49.1540448 24.8998117,49.2291121 L24.8998117,49.2291121 L24.8998117,48.1931839 C24.6646009,48.13313 24.4043677,48.111861 24.1191121,48.1293767 C23.8338565,48.1468924 23.5511031,48.2044439 23.270852,48.3020314 C22.9906009,48.3996188 22.7453812,48.5409955 22.5351928,48.7261614 C22.3650404,48.856278 22.2073991,49.0226771 22.0622691,49.2253587 C22.0138924,49.2929193 21.968574,49.362565 21.9263139,49.434296 L21.9046278,49.4743318 L21.9046278,48.1931839 L20.9137399,48.1931839 L20.9137399,56.3004484 L22.0172287,56.3004484 Z M27.4295785,56.3004484 L27.4295785,51.976574 C27.4295785,51.5161614 27.4821256,51.1057937 27.5872197,50.7454709 C27.6923139,50.385148 27.8462018,50.0786233 28.0488834,49.8258969 C28.251565,49.5731704 28.5017892,49.3792466 28.7995561,49.2441256 C29.0973229,49.1090045 29.4413812,49.0414439 29.8317309,49.0414439 C30.2571121,49.0414439 30.6186861,49.1190135 30.9164529,49.2741525 C31.2142197,49.4292915 31.4569372,49.6482377 31.6446054,49.930991 C31.8322735,50.2137444 31.9686457,50.5440404 32.053722,50.9218789 C32.1387982,51.2997175 32.1813363,51.7138386 32.1813363,52.1642422 L32.1813363,52.1642422 L32.1813363,56.3004484 L33.2923318,56.3004484 L33.2923318,51.8414529 C33.2923318,51.4761256 33.2573004,51.1095471 33.1872377,50.7417175 C33.1171749,50.3738879 33.004574,50.0260762 32.849435,49.6982825 C32.694296,49.3704888 32.4903632,49.0789776 32.2376368,48.8237489 C31.9849103,48.5685202 31.6771345,48.3658386 31.3143094,48.215704 C30.9514843,48.0655695 30.5273543,47.9905022 30.0419193,47.9905022 C29.3813274,47.9905022 28.7958027,48.1356323 28.2853453,48.4258924 C27.9207329,48.633221 27.6122932,48.9107656 27.3600264,49.2585262 L27.3169776,49.3229462 L27.3169776,48.1931839 L26.318583,48.1931839 L26.318583,56.3004484 L27.4295785,56.3004484 Z M36.497704,46.6543049 L36.497704,45.4156951 L35.3942152,45.4156951 L35.3942152,46.6543049 L36.497704,46.6543049 Z M36.497704,56.3004484 L36.497704,48.1931839 L35.3942152,48.1931839 L35.3942152,56.3004484 L36.497704,56.3004484 Z M39.8532108,56.3004484 L39.8532108,51.976574 C39.8532108,51.5161614 39.9057578,51.1057937 40.010852,50.7454709 C40.1159462,50.385148 40.2698341,50.0786233 40.4725157,49.8258969 C40.6751973,49.5731704 40.9254215,49.3792466 41.2231883,49.2441256 C41.5209552,49.1090045 41.8650135,49.0414439 42.2553632,49.0414439 C42.6807444,49.0414439 43.0423184,49.1190135 43.3400852,49.2741525 C43.637852,49.4292915 43.8805695,49.6482377 44.0682377,49.930991 C44.2559058,50.2137444 44.392278,50.5440404 44.4773543,50.9218789 C44.5624305,51.2997175 44.6049686,51.7138386 44.6049686,52.1642422 L44.6049686,52.1642422 L44.6049686,56.3004484 L45.7159641,56.3004484 L45.7159641,51.8414529 C45.7159641,51.4761256 45.6809327,51.1095471 45.61087,50.7417175 C45.5408072,50.3738879 45.4282063,50.0260762 45.2730673,49.6982825 C45.1179283,49.3704888 44.9139955,49.0789776 44.6612691,48.8237489 C44.4085426,48.5685202 44.1007668,48.3658386 43.7379417,48.215704 C43.3751166,48.0655695 42.9509865,47.9905022 42.4655516,47.9905022 C41.8049596,47.9905022 41.219435,48.1356323 40.7089776,48.4258924 C40.3443652,48.633221 40.0359255,48.9107656 39.7836586,49.2585262 L39.7406099,49.3229462 L39.7406099,48.1931839 L38.7422152,48.1931839 L38.7422152,56.3004484 L39.8532108,56.3004484 Z M53.4581567,49.2919235 C53.2432702,48.9912459 52.9871224,48.735098 52.689713,48.5234798 C52.1692466,48.153148 51.5286726,47.9679821 50.767991,47.9679821 C50.0273274,47.9679821 49.3917578,48.1556502 48.8612825,48.5309865 C48.3308072,48.9063229 47.9241928,49.4167803 47.6414395,50.0623587 C47.3586861,50.7079372 47.2173094,51.4335874 47.2173094,52.2393094 C47.2173094,53.0500359 47.3599372,53.7781883 47.6451928,54.4237668 C47.9304484,55.0693453 48.3408161,55.5810538 48.876296,55.9588924 C49.4117758,56.3367309 50.0573543,56.5256502 50.8130314,56.5256502 C51.5586996,56.5256502 52.1892646,56.3367309 52.7047265,55.9588924 C52.9256387,55.7969616 53.1235712,55.6102126 53.2985238,55.3986455 L53.3427982,55.3408386 L53.3427982,56.1728341 C53.3469686,56.7024753 53.2920583,57.1591345 53.1780673,57.5428117 L53.102583,57.7642601 C52.937435,58.1896413 52.6734484,58.5111794 52.3106233,58.7288744 C51.9477982,58.9465695 51.4736233,59.055417 50.8880987,59.055417 C50.4627175,59.055417 50.0460942,58.9565785 49.6382287,58.7589013 C49.2303632,58.5612242 48.9138296,58.2371839 48.6886278,57.7867803 L48.6886278,57.7867803 L47.6902332,58.342278 C47.9204395,58.7626547 48.2056951,59.1042108 48.546,59.3669462 C48.8863049,59.6296816 49.2578879,59.8223543 49.6607489,59.9449641 C50.0636099,60.067574 50.4727265,60.1288789 50.8880987,60.1288789 C51.5486906,60.1288789 52.1204529,60.0337937 52.6033857,59.8436233 C53.0863184,59.6534529 53.4766682,59.3631928 53.774435,58.972843 C54.0722018,58.5824933 54.2686278,58.0845471 54.363713,57.4790045 C54.3987444,57.2738206 54.4225157,57.0648834 54.4350269,56.8521928 C54.4475381,56.6395022 54.4537937,56.4180538 54.4537937,56.1878475 L54.4537937,56.1878475 L54.4537937,48.1931839 L53.4704126,48.1931839 L53.4704126,49.3116861 L53.4581567,49.2919235 Z M50.9256323,55.4972287 C50.3601256,55.4972287 49.889704,55.3546009 49.5143677,55.0693453 C49.1390314,54.7840897 48.8575291,54.394991 48.669861,53.9020493 C48.4821928,53.4091076 48.3883587,52.854861 48.3883587,52.2393094 C48.3883587,51.6287623 48.4796906,51.0782691 48.6623543,50.5878296 C48.8450179,50.0973901 49.1265202,49.7095426 49.506861,49.424287 C49.8872018,49.1390314 50.3676323,48.9964036 50.9481525,48.9964036 C51.5136592,48.9964036 51.9828296,49.1340269 52.3556637,49.4092735 C52.7284978,49.6845202 53.0074978,50.0661121 53.1926637,50.5540493 C53.3778296,51.0419865 53.4704126,51.6037399 53.4704126,52.2393094 C53.4704126,52.86487 53.3778296,53.4241211 53.1926637,53.9170628 C53.0074978,54.4100045 52.7272466,54.7966009 52.3519103,55.076852 C51.976574,55.3571031 51.501148,55.4972287 50.9256323,55.4972287 Z M60.9095785,52.0441345 L60.9095785,51.098287 L56.4055426,51.098287 L56.4055426,52.0441345 L60.9095785,52.0441345 Z M64.7680359,56.3004484 L64.7680359,49.1390314 L66.9825202,49.1390314 L66.9825202,48.1931839 L64.7680359,48.1931839 L64.7680359,47.4725381 C64.7680359,47.095057 64.8443287,46.8039799 64.9969144,46.5993067 L65.079565,46.5041704 C65.2872511,46.2989865 65.6012825,46.1963946 66.0216592,46.1963946 L66.0216592,46.1963946 L66.9825202,46.1963946 L66.9825202,45.2655605 L65.9465919,45.2655605 C65.7414081,45.2655605 65.5324709,45.2780717 65.3197803,45.3030942 C65.1070897,45.3281166 64.903157,45.3819148 64.7079821,45.4644888 C64.5128072,45.5470628 64.3326457,45.6784305 64.1674978,45.8585919 C64.0173632,46.0187354 63.9072646,46.1926413 63.8372018,46.3803094 C63.767139,46.5679776 63.7208475,46.7644036 63.6983274,46.9695874 C63.6758072,47.1747713 63.6645471,47.3824574 63.6645471,47.5926457 L63.6645471,47.5926457 L63.6645471,48.1931839 L62.2607892,48.1931839 L62.2607892,49.1390314 L63.6645471,49.1390314 L63.6645471,56.3004484 L64.7680359,56.3004484 Z M69.6624215,46.6543049 L69.6624215,45.4156951 L68.5589327,45.4156951 L68.5589327,46.6543049 L69.6624215,46.6543049 Z M69.6624215,56.3004484 L69.6624215,48.1931839 L68.5589327,48.1931839 L68.5589327,56.3004484 L69.6624215,56.3004484 Z M73.1680628,56.3004484 L73.1680628,45.2655605 L72.064574,45.2655605 L72.064574,56.3004484 L73.1680628,56.3004484 Z M76.673704,56.3004484 L76.673704,45.2655605 L75.5702152,45.2655605 L75.5702152,56.3004484 L76.673704,56.3004484 Z"/>
      <line x1="39.41" x2="39.41" y1="6.256" y2="38.785" stroke="#245633" stroke-width="1.251"/>
    </g>
  </g>
</svg>
