<?xml version="1.0" encoding="UTF-8"?>
<svg width="223px" height="444px" viewBox="0 0 223 444" version="1.1" xmlns="http://www.w3.org/2000/svg" xmlns:xlink="http://www.w3.org/1999/xlink">
    <title>warning</title>
    <g id="warning" stroke="none" stroke-width="1" fill="none" fill-rule="evenodd">
        <g transform="translate(111.166399, 221.889681) rotate(280.000000) translate(-111.166399, -221.889681) translate(-100.833601, 146.389681)">
            <rect id="shadow" fill="#35313D" opacity="0.100000001" x="0.133042548" y="6.95073558" width="418.5" height="144"></rect>
            <rect id="body" stroke="#000000" stroke-width="4.5" fill="#FF8E51" x="7.25" y="2.25" width="414" height="139.5"></rect>
            <path d="M164.345,89 L170.9375,65.96 L177.575,89 L182.93,89 L192.38,56.6 L186.6875,56.6 L180.2525,80 L173.795,56.6 L168.1025,56.645 L161.6675,80 L155.21,56.6 L149.5175,56.6 L158.99,89 L164.345,89 Z M199.3775,89 L201.589,81.98 L214.351,81.98 L216.59,89 L222.17,89 L211.955,56.6 L204.0125,56.6 L193.7975,89 L199.3775,89 Z M212.737,76.918 L203.183,76.918 L207.931,61.847 L212.737,76.918 Z M231.6425,89 L231.6425,77.6825 L239.342,77.683 L244.8275,89 L250.97,89 L244.984,76.723 L245.220208,76.6192793 C246.465038,76.044785 247.482245,75.2390737 248.271829,74.2021456 L248.45,73.95875 C249.785,72.06125 250.4525,69.7925 250.4525,67.1525 C250.4525,65.3675 250.15625,63.74375 249.56375,62.28125 C248.97125,60.81875 248.06375,59.6075 246.84125,58.6475 C245.61875,57.6875 244.07,57.065 242.195,56.78 C241.775,56.705 241.3175,56.65625 240.8225,56.63375 C240.3275,56.61125 239.9225,56.6 239.6075,56.6 L239.6075,56.6 L226.22,56.6 L226.22,89 L231.6425,89 Z M239.3825,72.62 L231.6425,72.62 L231.6425,61.685 L239.3825,61.685 C239.6825,61.685 240.02,61.69625 240.395,61.71875 C240.77,61.74125 241.115,61.7975 241.43,61.8875 C242.33,62.1125 243.03875,62.51 243.55625,63.08 C244.07375,63.65 244.44125,64.29875 244.65875,65.02625 C244.87625,65.75375 244.985,66.4625 244.985,67.1525 C244.985,67.8425 244.87625,68.5475 244.65875,69.2675 C244.44125,69.9875 244.07375,70.6325 243.55625,71.2025 C243.03875,71.7725 242.33,72.17 241.43,72.395 C241.115,72.485 240.77,72.545 240.395,72.575 C240.02,72.605 239.6825,72.62 239.3825,72.62 L239.3825,72.62 Z M261.41,89 L261.41,66.1625 L276.44,89 L281.93,89 L281.93,56.6 L276.44,56.6 L276.44,79.4375 L261.41,56.6 L255.92,56.6 L255.92,89 L261.41,89 Z M294.1025,89 L294.1025,56.6 L288.68,56.6 L288.68,89 L294.1025,89 Z M306.3425,89 L306.3425,66.1625 L321.3725,89 L326.8625,89 L326.8625,56.6 L321.3725,56.6 L321.3725,79.4375 L306.3425,56.6 L300.8525,56.6 L300.8525,89 L306.3425,89 Z M346.5275,89.675 C349.6625,89.675 352.355,89 354.605,87.65 C356.855,86.3 358.58375,84.43625 359.79125,82.05875 C360.99875,79.68125 361.6025,76.9625 361.6025,73.9025 C361.6025,73.8125 361.595,73.535 361.58,73.07 C361.565,72.605 361.5425,72.2525 361.5125,72.0125 L361.5125,72.0125 L350.0375,72.0125 L350.0375,76.265 L355.7525,76.265 C355.4825,78.125 354.9575,79.67375 354.1775,80.91125 C353.3975,82.14875 352.3925,83.07125 351.1625,83.67875 C349.9325,84.28625 348.5,84.5825 346.865,84.5675 C344.69,84.5375 342.87875,84.035 341.43125,83.06 C339.98375,82.085 338.9,80.72375 338.18,78.97625 C337.46,77.22875 337.1,75.17 337.1,72.8 C337.1,70.43 337.46375,68.36 338.19125,66.59 C338.91875,64.82 340.0025,63.4475 341.4425,62.4725 C342.8825,61.4975 344.69,61.025 346.865,61.055 C349.025,61.055 350.8025,61.62875 352.1975,62.77625 C353.5925,63.92375 354.5975,65.4575 355.2125,67.3775 L355.2125,67.3775 L360.7475,66.5 C359.9225,63.155 358.34375,60.55625 356.01125,58.70375 C353.67875,56.85125 350.5175,55.925 346.5275,55.925 C343.6475,55.925 341.06,56.59625 338.765,57.93875 C336.47,59.28125 334.6625,61.20875 333.3425,63.72125 C332.0225,66.23375 331.3625,69.26 331.3625,72.8 C331.3625,75.5 331.7525,77.89625 332.5325,79.98875 C333.3125,82.08125 334.39625,83.8475 335.78375,85.2875 C337.17125,86.7275 338.78375,87.81875 340.62125,88.56125 C342.45875,89.30375 344.4275,89.675 346.5275,89.675 Z" id="WARNING" fill="#000000" fill-rule="nonzero"></path>
            <g id="warning-icon" transform="translate(65.000000, 36.000000)" fill="#000000">
                <path d="M36,54.0009 C34.137,54.0009 32.625,52.4889 32.625,50.6259 C32.625,48.7584 34.137,47.2509 36,47.2509 C37.863,47.2509 39.375,48.7584 39.375,50.6259 C39.375,52.4889 37.863,54.0009 36,54.0009 L36,54.0009 Z M33.75,27.0009 C33.75,25.7544 34.7535,24.7509 36,24.7509 C37.242,24.7509 38.25,25.7544 38.25,27.0009 L38.25,40.5009 C38.25,41.7429 37.242,42.7509 36,42.7509 C34.7535,42.7509 33.75,41.7429 33.75,40.5009 L33.75,27.0009 Z M66.582,52.8669 L41.841,10.1169 C40.6215,8.0064 38.439,6.7509 36,6.7509 C33.561,6.7509 31.3785,8.0064 30.159,10.1169 L30.159,10.1169 L5.418,52.8669 C4.1895,54.9819 4.1895,57.5064 5.4135,59.6214 C6.6285,61.7364 8.811,62.9964 11.2545,62.9964 L60.7455,62.9964 C63.189,62.9964 65.3715,61.7364 66.5865,59.6214 C67.8105,57.5064 67.8105,54.9819 66.582,52.8669 L66.582,52.8669 Z" id="warning"></path>
            </g>
        </g>
    </g>
</svg>