<svg xmlns="http://www.w3.org/2000/svg" width="279" height="555" viewBox="0 0 279 555">
  <g fill="none" fill-rule="evenodd">
    <g transform="rotate(-80 311.296 261.208)">
      <rect width="522.343" height="178.91" x="6.881" y=".626" stroke="#245633" stroke-width="1.251" opacity=".2"/>
      <rect width="511.083" height="167.65" x="12.511" y="6.256" stroke="#245633" stroke-width="1.251" opacity=".2"/>
      <path stroke="#245633" stroke-width="1.251" d="M433.547859,70.5945067 C438.370266,70.5945067 442.201572,71.6936532 445.024125,73.9353596 C447.684595,76.0483374 449.524197,78.9700386 450.558556,82.6898757 L450.558556,82.6898757 L444.825209,83.598821 C443.883044,81.1105956 442.657091,79.3884907 441.039115,78.0575755 C439.18984,76.5363976 436.837237,75.7616368 433.97874,75.7616963 C431.110282,75.7221313 428.732177,76.3582442 426.835183,77.6426674 C424.934862,78.9293432 423.5001,80.7374696 422.539606,83.0743404 C421.601556,85.3566069 421.127354,88.0249409 421.127354,91.0816143 C421.127354,94.1390273 421.597147,96.7933975 422.525735,99.0471578 C423.47667,101.355158 424.911311,103.149721 426.822357,104.436954 C428.724198,105.717987 431.101114,106.390229 433.964373,106.429716 C436.118586,106.449479 438.004033,106.053147 439.623825,105.253127 C441.264488,104.4428 442.607393,103.214524 443.648144,101.563332 C444.763454,99.7938503 445.487001,97.5388109 445.801181,94.7911883 L445.801181,94.7911883 L438.564854,94.7911883 L438.564854,90.721917 L451.721639,90.721917 C451.736349,90.9458425 451.746684,91.177978 451.755123,91.4395859 C451.773527,92.0100917 451.782948,92.3505541 451.782948,92.4609753 C451.782948,96.1822896 451.053459,99.490191 449.584668,102.382159 C448.128763,105.248755 446.044944,107.496547 443.331941,109.124349 C440.60657,110.759571 437.343497,111.568722 433.547859,111.568722 C431.004017,111.568722 428.618813,111.120342 426.392792,110.220848 C424.175874,109.325032 422.230574,108.008252 420.5566,106.270939 C418.877385,104.528186 417.568419,102.389142 416.62458,99.8571136 C415.672414,97.302743 415.200168,94.3770699 415.200168,91.0816143 C415.200168,86.7676207 415.996434,83.076867 417.605612,80.0139426 C419.199586,76.9799578 421.380016,74.649809 424.151891,73.0283528 C426.929829,71.4033498 430.062508,70.5945067 433.547859,70.5945067 Z M193.71019,71.4390135 L202.266089,102.442968 L210.794126,71.4915584 L216.963317,71.4427901 L225.518754,102.445071 L234.04542,71.4390135 L239.856592,71.4390135 L228.398408,110.724215 L222.638612,110.724215 L213.861464,80.2570981 L205.143822,110.724215 L199.384598,110.724215 L187.899132,71.4390135 L193.71019,71.4390135 Z M264.722679,71.4390135 L277.10843,110.724215 L271.437402,110.724215 L268.636142,101.941345 L251.753448,101.941345 L248.986594,110.724215 L243.317277,110.724215 L255.703028,71.4390135 L264.722679,71.4390135 Z M260.143236,75.307727 L253.353586,96.8592915 L267.015827,96.8592915 L260.143236,75.307727 Z M299.772377,71.4389882 C300.330022,71.4439947 300.76135,71.4574867 301.2697,71.4805935 C301.859564,71.5074055 302.404795,71.5650976 302.905301,71.6544738 C305.146981,71.9954207 306.989702,72.7267107 308.441939,73.8671178 C309.884852,75.000203 310.955399,76.4301987 311.65468,78.1562728 C312.367399,79.9155166 312.720841,81.8691318 312.720841,84.0159081 C312.720841,87.1772392 311.929149,89.897412 310.329509,92.1706329 C309.122566,93.7625282 307.85171,94.7327629 306.262994,95.4144025 L305.961323,95.5389093 L313.013607,110.724215 L306.700802,110.724215 L299.837789,96.5653035 L289.187253,96.5646118 L289.187253,110.724215 L283.65417,110.724215 L283.65417,71.4390135 L299.772377,71.4389882 Z M299.496491,76.549843 L289.187253,76.549843 L289.187253,91.4819731 L299.496491,91.4819731 L299.79822,91.4783509 C300.109094,91.4710994 300.447402,91.4529392 300.813137,91.4236804 C301.321789,91.3829882 301.789949,91.3011609 302.217924,91.1798431 C303.475186,90.8641415 304.459134,90.2991041 305.181511,89.5034426 C305.892986,88.719788 306.397558,87.8327007 306.696552,86.8429269 C306.987274,85.8805375 307.131457,84.938087 307.131457,84.0159081 C307.131457,83.0946047 306.987515,82.1480249 306.697067,81.1765253 C306.398014,80.1762469 305.893095,79.2839969 305.181511,78.5002234 C304.460017,77.7055351 303.477593,77.1409071 302.222344,76.8249985 C301.789236,76.7020226 301.315552,76.6240814 300.800717,76.5931914 C300.317671,76.5642086 299.882926,76.549843 299.496491,76.549843 L299.496491,76.549843 Z M326.718379,71.4390135 L346.485471,101.47434 L346.485471,71.4390135 L352.103004,71.4390135 L352.103004,110.724215 L346.197092,110.724215 L326.43,80.6888885 L326.43,110.724215 L320.812466,110.724215 L320.812466,71.4390135 L326.718379,71.4390135 Z M367.332276,71.4390135 L367.332276,110.724215 L361.799193,110.724215 L361.799193,71.4390135 L367.332276,71.4390135 Z M382.934377,71.4390135 L402.701469,101.47434 L402.701469,71.4390135 L408.319002,71.4390135 L408.319002,110.724215 L402.41309,110.724215 L382.645998,80.6888885 L382.645998,110.724215 L377.028464,110.724215 L377.028464,71.4390135 L382.934377,71.4390135 Z" opacity=".2"/>
      <path fill="#245633" d="M45.0403587,67.5616641 C42.7095202,67.5616641 40.8178251,65.6699691 40.8178251,63.3391305 C40.8178251,61.0026619 42.7095202,59.1165969 45.0403587,59.1165969 C47.3711973,59.1165969 49.2628924,61.0026619 49.2628924,63.3391305 C49.2628924,65.6699691 47.3711973,67.5616641 45.0403587,67.5616641 L45.0403587,67.5616641 Z M42.2253363,33.7813951 C42.2253363,32.2218726 43.4808363,30.9663726 45.0403587,30.9663726 C46.5942511,30.9663726 47.8553812,32.2218726 47.8553812,33.7813951 L47.8553812,50.6715296 C47.8553812,52.225422 46.5942511,53.486552 45.0403587,53.486552 C43.4808363,53.486552 42.2253363,52.225422 42.2253363,50.6715296 L42.2253363,33.7813951 Z M83.3021435,66.1428928 L52.348157,12.6574668 C50.8224148,10.0169758 48.091843,8.44619327 45.0403587,8.44619327 C41.9888744,8.44619327 39.2583027,10.0169758 37.7325605,12.6574668 L37.7325605,12.6574668 L6.77857399,66.1428928 C5.24157175,68.7890139 5.24157175,71.9474691 6.77294395,74.5935901 C8.29305605,77.2397112 11.0236278,78.8161238 14.0807422,78.8161238 L75.9999753,78.8161238 C79.0570897,78.8161238 81.7876614,77.2397112 83.3077735,74.5935901 C84.8391457,71.9474691 84.8391457,68.7890139 83.3021435,66.1428928 L83.3021435,66.1428928 Z" transform="translate(81.323 45.04)"/>
    </g>
    <circle cx="93" cy="459.064" r="4" fill="#245633"/>
    <line x1="93" x2="93" y1="460.064" y2="492.064" stroke="#245633"/>
    <path fill="#245633" fill-rule="nonzero" d="M65.226,506.82 L66.84,501.66 L68.46,506.82 L69.228,506.82 L71.208,500.34 L70.332,500.34 L68.784,505.374 L67.242,500.34 L66.438,500.34 L64.896,505.374 L63.36,500.34 L62.478,500.334 L64.458,506.82 L65.226,506.82 Z M74.142,507 C74.79,507 75.346,506.854 75.81,506.562 C76.1,506.3795 76.3423437,506.145438 76.5370312,505.859813 L76.608,505.747 L76.608,506.82 L77.394,506.82 L77.394,502.794 C77.394,502.554 77.382,502.318 77.358,502.086 C77.334,501.854 77.282,501.644 77.202,501.456 C77.03,501.036 76.737,500.715 76.323,500.493 C75.909,500.271 75.406,500.16 74.814,500.16 C74.098,500.16 73.516,500.32 73.068,500.64 C72.62,500.96 72.322,501.41 72.174,501.99 L72.174,501.99 L73.032,502.242 C73.156,501.81 73.371,501.494 73.677,501.294 C73.983,501.094 74.358,500.994 74.802,500.994 C75.446,500.994 75.898,501.148 76.158,501.456 C76.418,501.764 76.542,502.238 76.53,502.878 L76.529,502.732 L76.37475,502.75275 C76.291,502.764 76.2043125,502.775313 76.1146875,502.786687 L75.837,502.821 C75.455,502.867 75.065,502.921 74.667,502.983 C74.269,503.045 73.906,503.116 73.578,503.196 C73.254,503.28 72.969,503.402 72.723,503.562 C72.477,503.722 72.283,503.927 72.141,504.177 C71.999,504.427 71.928,504.728 71.928,505.08 C71.928,505.424 72.01,505.742 72.174,506.034 C72.338,506.326 72.585,506.56 72.915,506.736 C73.245,506.912 73.654,507 74.142,507 Z M74.244,506.238 C73.896,506.238 73.617,506.18 73.407,506.064 C73.197,505.948 73.045,505.802 72.951,505.626 C72.857,505.45 72.81,505.268 72.81,505.08 C72.81,504.848 72.865,504.654 72.975,504.498 C73.085,504.342 73.226,504.217 73.398,504.123 C73.57,504.029 73.748,503.956 73.932,503.904 C74.204,503.832 74.509,503.77 74.847,503.718 C75.185,503.666 75.529,503.62 75.879,503.58 C75.9956667,503.566667 76.1095556,503.553333 76.2206667,503.54 L76.516,503.504 L76.51584,503.57724 C76.51536,503.61716 76.5148,503.6596 76.51416,503.70456 L76.512,503.847 C76.508,504.097 76.482,504.326 76.434,504.534 C76.378,504.858 76.256,505.149 76.068,505.407 C75.88,505.665 75.632,505.868 75.324,506.016 C75.016,506.164 74.656,506.238 74.244,506.238 Z M79.836,506.82 L79.836,503.586 C79.836,503.33 79.854,503.071 79.89,502.809 C79.926,502.547 79.998,502.299 80.106,502.065 C80.214,501.831 80.376,501.63 80.592,501.462 C80.828,501.27 81.086,501.158 81.366,501.126 C81.646,501.094 81.904,501.108 82.14,501.168 L82.14,501.168 L82.14,500.34 C81.952,500.292 81.744,500.275 81.516,500.289 C81.288,500.303 81.062,500.349 80.838,500.427 C80.614,500.505 80.418,500.618 80.25,500.766 C80.114,500.87 79.988,501.003 79.872,501.165 C79.8333333,501.219 79.7971111,501.274667 79.7633333,501.332 L79.746,501.364 L79.746,500.34 L78.954,500.34 L78.954,506.82 L79.836,506.82 Z M84.162,506.82 L84.162,503.364 C84.162,502.996 84.204,502.668 84.288,502.38 C84.372,502.092 84.495,501.847 84.657,501.645 C84.819,501.443 85.019,501.288 85.257,501.18 C85.495,501.072 85.77,501.018 86.082,501.018 C86.422,501.018 86.711,501.08 86.949,501.204 C87.187,501.328 87.381,501.503 87.531,501.729 C87.681,501.955 87.79,502.219 87.858,502.521 C87.926,502.823 87.96,503.154 87.96,503.514 L87.96,503.514 L87.96,506.82 L88.848,506.82 L88.848,503.256 C88.848,502.964 88.82,502.671 88.764,502.377 C88.708,502.083 88.618,501.805 88.494,501.543 C88.37,501.281 88.207,501.048 88.005,500.844 C87.803,500.64 87.557,500.478 87.267,500.358 C86.977,500.238 86.638,500.178 86.25,500.178 C85.722,500.178 85.254,500.294 84.846,500.526 C84.5545714,500.691714 84.3080408,500.913551 84.1064082,501.19151 L84.072,501.243 L84.072,500.34 L83.274,500.34 L83.274,506.82 L84.162,506.82 Z M91.41,499.11 L91.41,498.12 L90.528,498.12 L90.528,499.11 L91.41,499.11 Z M91.41,506.82 L91.41,500.34 L90.528,500.34 L90.528,506.82 L91.41,506.82 Z M94.092,506.82 L94.092,503.364 C94.092,502.996 94.134,502.668 94.218,502.38 C94.302,502.092 94.425,501.847 94.587,501.645 C94.749,501.443 94.949,501.288 95.187,501.18 C95.425,501.072 95.7,501.018 96.012,501.018 C96.352,501.018 96.641,501.08 96.879,501.204 C97.117,501.328 97.311,501.503 97.461,501.729 C97.611,501.955 97.72,502.219 97.788,502.521 C97.856,502.823 97.89,503.154 97.89,503.514 L97.89,503.514 L97.89,506.82 L98.778,506.82 L98.778,503.256 C98.778,502.964 98.75,502.671 98.694,502.377 C98.638,502.083 98.548,501.805 98.424,501.543 C98.3,501.281 98.137,501.048 97.935,500.844 C97.733,500.64 97.487,500.478 97.197,500.358 C96.907,500.238 96.568,500.178 96.18,500.178 C95.652,500.178 95.184,500.294 94.776,500.526 C94.4845714,500.691714 94.2380408,500.913551 94.0364082,501.19151 L94.002,501.243 L94.002,500.34 L93.204,500.34 L93.204,506.82 L94.092,506.82 Z M104.966204,501.218204 C104.794449,500.977878 104.589714,500.773143 104.352,500.604 C103.936,500.308 103.424,500.16 102.816,500.16 C102.224,500.16 101.716,500.31 101.292,500.61 C100.868,500.91 100.543,501.318 100.317,501.834 C100.091,502.35 99.978,502.93 99.978,503.574 C99.978,504.222 100.092,504.804 100.32,505.32 C100.548,505.836 100.876,506.245 101.304,506.547 C101.732,506.849 102.248,507 102.852,507 C103.448,507 103.952,506.849 104.364,506.547 C104.540571,506.417571 104.698776,506.268306 104.838612,506.099204 L104.874,506.053 L104.874,506.718 C104.877333,507.141333 104.833444,507.506333 104.742333,507.813 L104.682,507.99 C104.55,508.33 104.339,508.587 104.049,508.761 C103.759,508.935 103.38,509.022 102.912,509.022 C102.572,509.022 102.239,508.943 101.913,508.785 C101.587,508.627 101.334,508.368 101.154,508.008 L101.154,508.008 L100.356,508.452 C100.54,508.788 100.768,509.061 101.04,509.271 C101.312,509.481 101.609,509.635 101.931,509.733 C102.253,509.831 102.58,509.88 102.912,509.88 C103.44,509.88 103.897,509.804 104.283,509.652 C104.669,509.5 104.981,509.268 105.219,508.956 C105.457,508.644 105.614,508.246 105.69,507.762 C105.718,507.598 105.737,507.431 105.747,507.261 C105.757,507.091 105.762,506.914 105.762,506.73 L105.762,506.73 L105.762,500.34 L104.976,500.34 L104.976,501.234 L104.966204,501.218204 Z M102.942,506.178 C102.49,506.178 102.114,506.064 101.814,505.836 C101.514,505.608 101.289,505.297 101.139,504.903 C100.989,504.509 100.914,504.066 100.914,503.574 C100.914,503.086 100.987,502.646 101.133,502.254 C101.279,501.862 101.504,501.552 101.808,501.324 C102.112,501.096 102.496,500.982 102.96,500.982 C103.412,500.982 103.787,501.092 104.085,501.312 C104.383,501.532 104.606,501.837 104.754,502.227 C104.902,502.617 104.976,503.066 104.976,503.574 C104.976,504.074 104.902,504.521 104.754,504.915 C104.606,505.309 104.382,505.618 104.082,505.842 C103.782,506.066 103.402,506.178 102.942,506.178 Z M110.922,503.418 L110.922,502.662 L107.322,502.662 L107.322,503.418 L110.922,503.418 Z M114.006,506.82 L114.006,501.096 L115.776,501.096 L115.776,500.34 L114.006,500.34 L114.006,499.764 C114.006,499.462286 114.06698,499.229633 114.188939,499.066041 L114.255,498.99 C114.421,498.826 114.672,498.744 115.008,498.744 L115.008,498.744 L115.776,498.744 L115.776,498 L114.948,498 C114.784,498 114.617,498.01 114.447,498.03 C114.277,498.05 114.114,498.093 113.958,498.159 C113.802,498.225 113.658,498.33 113.526,498.474 C113.406,498.602 113.318,498.741 113.262,498.891 C113.206,499.041 113.169,499.198 113.151,499.362 C113.133,499.526 113.124,499.692 113.124,499.86 L113.124,499.86 L113.124,500.34 L112.002,500.34 L112.002,501.096 L113.124,501.096 L113.124,506.82 L114.006,506.82 Z M117.918,499.11 L117.918,498.12 L117.036,498.12 L117.036,499.11 L117.918,499.11 Z M117.918,506.82 L117.918,500.34 L117.036,500.34 L117.036,506.82 L117.918,506.82 Z M120.72,506.82 L120.72,498 L119.838,498 L119.838,506.82 L120.72,506.82 Z M123.522,506.82 L123.522,498 L122.64,498 L122.64,506.82 L123.522,506.82 Z"/>
  </g>
</svg>
