<?xml version="1.0" encoding="UTF-8"?>
<svg width="223px" height="444px" viewBox="0 0 223 444" version="1.1" xmlns="http://www.w3.org/2000/svg" xmlns:xlink="http://www.w3.org/1999/xlink">
    <title>warning-spec</title>
    <g id="warning-spec" stroke="none" stroke-width="1" fill="none" fill-rule="evenodd">
        <g id="warning" transform="translate(111.166399, 221.889681) rotate(280.000000) translate(-111.166399, -221.889681) translate(-100.833601, 146.389681)">
            <rect id="body" stroke="#245633" opacity="0.200000003" x="5.5" y="0.5" width="417.5" height="143"></rect>
            <path d="M346.5275,56.425 C350.381969,56.425 353.444267,57.3035292 355.700286,59.0952874 C357.826755,60.784155 359.297118,63.1194215 360.123864,66.0926247 L360.123864,66.0926247 L355.540127,66.8193147 C354.773481,64.8090152 353.798426,63.4457156 352.515135,62.3901052 C351.037041,61.1742533 349.156645,60.555 346.871896,60.5550476 C344.579186,60.523424 342.678407,61.0318582 341.162171,62.0584761 C339.643277,63.0868944 338.496496,64.5320994 337.728789,66.3999208 C336.979022,68.224098 336.6,70.3568524 336.6,72.8 C336.6,75.2437386 336.975497,77.365332 337.717702,79.1667247 C338.477769,81.0114701 339.624453,82.4458347 341.15192,83.4746981 C342.672029,84.498606 344.571858,85.035918 346.860413,85.067479 C348.582239,85.0832755 350.089245,84.7664935 351.383917,84.1270517 C352.695272,83.4793704 353.768633,82.4976299 354.600488,81.1778606 C355.491936,79.7635434 356.070255,77.9611285 356.321374,75.765 L356.321374,75.765 L350.5375,75.765 L350.5375,72.5125 L361.053303,72.5125 C361.065389,72.694711 361.073574,72.8788558 361.08026,73.0861206 C361.094969,73.5421163 361.1025,73.8142422 361.1025,73.9025 C361.1025,76.8768838 360.519432,79.5208337 359.345452,81.832335 C358.181771,84.1235565 356.516209,85.9201791 354.347752,87.2212535 C352.169409,88.5282595 349.561289,89.175 346.5275,89.175 C344.49425,89.175 342.587796,88.8166175 340.808575,88.097667 C339.036631,87.3816566 337.481785,86.3291763 336.143806,84.9405711 C334.801638,83.5476182 333.755403,81.8379166 333.001009,79.8141088 C332.239958,77.7724433 331.8625,75.4340021 331.8625,72.8 C331.8625,69.3518976 332.498942,66.4019403 333.785131,63.9537964 C335.059168,61.5287834 336.801949,59.6663348 339.017461,58.3703322 C341.237821,57.0714946 343.741718,56.425 346.5275,56.425 Z M154.829291,57.1 L161.667877,81.8809385 L168.484194,57.1419983 L173.415124,57.1030186 L180.253341,81.8826198 L187.068562,57.1 L191.713333,57.1 L182.555,88.5 L177.951292,88.5 L170.935865,64.1481465 L163.968001,88.5 L159.36475,88.5 L150.184611,57.1 L154.829291,57.1 Z M211.588377,57.1 L221.4881,88.5 L216.955343,88.5 L214.716343,81.48 L201.22229,81.48 L199.01079,88.5 L194.4794,88.5 L204.379123,57.1 L211.588377,57.1 Z M207.928106,60.1921976 L202.501253,77.418 L213.421253,77.418 L207.928106,60.1921976 Z M239.603011,57.0999799 C240.048728,57.1039814 240.39348,57.1147654 240.799796,57.1332343 C241.271264,57.1546646 241.707058,57.200777 242.107105,57.2722138 C243.898842,57.544727 245.371697,58.1292347 246.532446,59.0407429 C247.685742,59.9463988 248.541412,61.0893703 249.100336,62.4689922 C249.67,63.8751262 249.9525,65.4366179 249.9525,67.1525 C249.9525,69.6792987 249.319714,71.853487 248.041149,73.6704342 C247.084498,74.9322062 246.077612,75.7053422 244.822545,76.2494558 L244.549731,76.3626408 L250.186503,88.5 L245.140784,88.5 L239.655294,77.1830203 L231.1425,77.1824675 L231.1425,88.5 L226.72,88.5 L226.72,57.1 L239.603011,57.0999799 Z M239.3825,61.185 L231.1425,61.185 L231.1425,73.12 L239.3825,73.12 L239.623667,73.1171048 C239.872143,73.1113089 240.142547,73.0967937 240.434873,73.0734076 C240.84143,73.040883 241.215622,72.9754799 241.557696,72.8785125 C242.562604,72.6261776 243.349057,72.1745527 243.92644,71.5385939 C244.495111,70.912232 244.898407,70.203198 245.137388,69.4120885 C245.369757,68.6428669 245.485,67.8895821 245.485,67.1525 C245.485,66.4161177 245.369949,65.6595324 245.137799,64.8830292 C244.898771,64.0835235 244.495197,63.3703632 243.92644,62.7439061 C243.349763,62.1087252 242.564528,61.6574275 241.561228,61.4049271 C241.215052,61.3066345 240.836445,61.2443375 240.424946,61.2196476 C240.038855,61.1964821 239.691371,61.185 239.3825,61.185 L239.3825,61.185 Z M261.140496,57.1 L276.94,81.1067307 L276.94,57.1 L281.43,57.1 L281.43,88.5 L276.709504,88.5 L260.91,64.4932693 L260.91,88.5 L256.42,88.5 L256.42,57.1 L261.140496,57.1 Z M293.6025,57.1 L293.6025,88.5 L289.18,88.5 L289.18,57.1 L293.6025,57.1 Z M306.072996,57.1 L321.8725,81.1067307 L321.8725,57.1 L326.3625,57.1 L326.3625,88.5 L321.642004,88.5 L305.8425,64.4932693 L305.8425,88.5 L301.3525,88.5 L301.3525,57.1 L306.072996,57.1 Z" id="WARNING" stroke="#245633" opacity="0.200000003"></path>
            <g id="warning-icon" transform="translate(65.000000, 36.000000)" fill="#245633">
                <path d="M36,54.0009 C34.137,54.0009 32.625,52.4889 32.625,50.6259 C32.625,48.7584 34.137,47.2509 36,47.2509 C37.863,47.2509 39.375,48.7584 39.375,50.6259 C39.375,52.4889 37.863,54.0009 36,54.0009 L36,54.0009 Z M33.75,27.0009 C33.75,25.7544 34.7535,24.7509 36,24.7509 C37.242,24.7509 38.25,25.7544 38.25,27.0009 L38.25,40.5009 C38.25,41.7429 37.242,42.7509 36,42.7509 C34.7535,42.7509 33.75,41.7429 33.75,40.5009 L33.75,27.0009 Z M66.582,52.8669 L41.841,10.1169 C40.6215,8.0064 38.439,6.7509 36,6.7509 C33.561,6.7509 31.3785,8.0064 30.159,10.1169 L30.159,10.1169 L5.418,52.8669 C4.1895,54.9819 4.1895,57.5064 5.4135,59.6214 C6.6285,61.7364 8.811,62.9964 11.2545,62.9964 L60.7455,62.9964 C63.189,62.9964 65.3715,61.7364 66.5865,59.6214 C67.8105,57.5064 67.8105,54.9819 66.582,52.8669 L66.582,52.8669 Z" id="warning"></path>
            </g>
            <g id="spec" transform="translate(49.481519, 59.915584) rotate(80.000000) translate(-49.481519, -59.915584) translate(17.981519, 35.415584)">
                <circle id="Oval-Copy-16" fill="#245633" cx="31.5" cy="4" r="4"></circle>
                <path d="M2.988,45 L4.602,39.84 L6.222,45 L6.99,45 L8.97,38.52 L8.094,38.52 L6.546,43.554 L5.004,38.52 L4.2,38.52 L2.658,43.554 L1.122,38.52 L0.24,38.514 L2.22,45 L2.988,45 Z M11.904,45.18 C12.552,45.18 13.108,45.034 13.572,44.742 C13.862,44.5595 14.1043437,44.3254375 14.2990312,44.0398125 L14.37,43.927 L14.37,45 L15.156,45 L15.156,40.974 C15.156,40.734 15.144,40.498 15.12,40.266 C15.096,40.034 15.044,39.824 14.964,39.636 C14.792,39.216 14.499,38.895 14.085,38.673 C13.671,38.451 13.168,38.34 12.576,38.34 C11.86,38.34 11.278,38.5 10.83,38.82 C10.382,39.14 10.084,39.59 9.936,40.17 L9.936,40.17 L10.794,40.422 C10.918,39.99 11.133,39.674 11.439,39.474 C11.745,39.274 12.12,39.174 12.564,39.174 C13.208,39.174 13.66,39.328 13.92,39.636 C14.18,39.944 14.304,40.418 14.292,41.058 L14.291,40.912 L14.13675,40.93275 C14.053,40.944 13.9663125,40.9553125 13.8766875,40.9666875 L13.599,41.001 C13.217,41.047 12.827,41.101 12.429,41.163 C12.031,41.225 11.668,41.296 11.34,41.376 C11.016,41.46 10.731,41.582 10.485,41.742 C10.239,41.902 10.045,42.107 9.903,42.357 C9.761,42.607 9.69,42.908 9.69,43.26 C9.69,43.604 9.772,43.922 9.936,44.214 C10.1,44.506 10.347,44.74 10.677,44.916 C11.007,45.092 11.416,45.18 11.904,45.18 Z M12.006,44.418 C11.658,44.418 11.379,44.36 11.169,44.244 C10.959,44.128 10.807,43.982 10.713,43.806 C10.619,43.63 10.572,43.448 10.572,43.26 C10.572,43.028 10.627,42.834 10.737,42.678 C10.847,42.522 10.988,42.397 11.16,42.303 C11.332,42.209 11.51,42.136 11.694,42.084 C11.966,42.012 12.271,41.95 12.609,41.898 C12.947,41.846 13.291,41.8 13.641,41.76 C13.7576667,41.7466667 13.8715556,41.7333333 13.9826667,41.72 L14.278,41.684 L14.27784,41.75724 C14.27736,41.79716 14.2768,41.8396 14.27616,41.88456 L14.274,42.027 C14.27,42.277 14.244,42.506 14.196,42.714 C14.14,43.038 14.018,43.329 13.83,43.587 C13.642,43.845 13.394,44.048 13.086,44.196 C12.778,44.344 12.418,44.418 12.006,44.418 Z M17.598,45 L17.598,41.766 C17.598,41.51 17.616,41.251 17.652,40.989 C17.688,40.727 17.76,40.479 17.868,40.245 C17.976,40.011 18.138,39.81 18.354,39.642 C18.59,39.45 18.848,39.338 19.128,39.306 C19.408,39.274 19.666,39.288 19.902,39.348 L19.902,39.348 L19.902,38.52 C19.714,38.472 19.506,38.455 19.278,38.469 C19.05,38.483 18.824,38.529 18.6,38.607 C18.376,38.685 18.18,38.798 18.012,38.946 C17.876,39.05 17.75,39.183 17.634,39.345 C17.5953333,39.399 17.5591111,39.4546667 17.5253333,39.512 L17.508,39.544 L17.508,38.52 L16.716,38.52 L16.716,45 L17.598,45 Z M21.924,45 L21.924,41.544 C21.924,41.176 21.966,40.848 22.05,40.56 C22.134,40.272 22.257,40.027 22.419,39.825 C22.581,39.623 22.781,39.468 23.019,39.36 C23.257,39.252 23.532,39.198 23.844,39.198 C24.184,39.198 24.473,39.26 24.711,39.384 C24.949,39.508 25.143,39.683 25.293,39.909 C25.443,40.135 25.552,40.399 25.62,40.701 C25.688,41.003 25.722,41.334 25.722,41.694 L25.722,41.694 L25.722,45 L26.61,45 L26.61,41.436 C26.61,41.144 26.582,40.851 26.526,40.557 C26.47,40.263 26.38,39.985 26.256,39.723 C26.132,39.461 25.969,39.228 25.767,39.024 C25.565,38.82 25.319,38.658 25.029,38.538 C24.739,38.418 24.4,38.358 24.012,38.358 C23.484,38.358 23.016,38.474 22.608,38.706 C22.3165714,38.8717143 22.0700408,39.093551 21.8684082,39.3715102 L21.834,39.423 L21.834,38.52 L21.036,38.52 L21.036,45 L21.924,45 Z M29.172,37.29 L29.172,36.3 L28.29,36.3 L28.29,37.29 L29.172,37.29 Z M29.172,45 L29.172,38.52 L28.29,38.52 L28.29,45 L29.172,45 Z M31.854,45 L31.854,41.544 C31.854,41.176 31.896,40.848 31.98,40.56 C32.064,40.272 32.187,40.027 32.349,39.825 C32.511,39.623 32.711,39.468 32.949,39.36 C33.187,39.252 33.462,39.198 33.774,39.198 C34.114,39.198 34.403,39.26 34.641,39.384 C34.879,39.508 35.073,39.683 35.223,39.909 C35.373,40.135 35.482,40.399 35.55,40.701 C35.618,41.003 35.652,41.334 35.652,41.694 L35.652,41.694 L35.652,45 L36.54,45 L36.54,41.436 C36.54,41.144 36.512,40.851 36.456,40.557 C36.4,40.263 36.31,39.985 36.186,39.723 C36.062,39.461 35.899,39.228 35.697,39.024 C35.495,38.82 35.249,38.658 34.959,38.538 C34.669,38.418 34.33,38.358 33.942,38.358 C33.414,38.358 32.946,38.474 32.538,38.706 C32.2465714,38.8717143 32.0000408,39.093551 31.7984082,39.3715102 L31.764,39.423 L31.764,38.52 L30.966,38.52 L30.966,45 L31.854,45 Z M42.7282041,39.3982041 C42.556449,39.1578776 42.3517143,38.9531429 42.114,38.784 C41.698,38.488 41.186,38.34 40.578,38.34 C39.986,38.34 39.478,38.49 39.054,38.79 C38.63,39.09 38.305,39.498 38.079,40.014 C37.853,40.53 37.74,41.11 37.74,41.754 C37.74,42.402 37.854,42.984 38.082,43.5 C38.31,44.016 38.638,44.425 39.066,44.727 C39.494,45.029 40.01,45.18 40.614,45.18 C41.21,45.18 41.714,45.029 42.126,44.727 C42.3025714,44.5975714 42.4607755,44.4483061 42.6006122,44.2792041 L42.636,44.233 L42.636,44.898 C42.6393333,45.3213333 42.5954444,45.6863333 42.5043333,45.993 L42.444,46.17 C42.312,46.51 42.101,46.767 41.811,46.941 C41.521,47.115 41.142,47.202 40.674,47.202 C40.334,47.202 40.001,47.123 39.675,46.965 C39.349,46.807 39.096,46.548 38.916,46.188 L38.916,46.188 L38.118,46.632 C38.302,46.968 38.53,47.241 38.802,47.451 C39.074,47.661 39.371,47.815 39.693,47.913 C40.015,48.011 40.342,48.06 40.674,48.06 C41.202,48.06 41.659,47.984 42.045,47.832 C42.431,47.68 42.743,47.448 42.981,47.136 C43.219,46.824 43.376,46.426 43.452,45.942 C43.48,45.778 43.499,45.611 43.509,45.441 C43.519,45.271 43.524,45.094 43.524,44.91 L43.524,44.91 L43.524,38.52 L42.738,38.52 L42.738,39.414 L42.7282041,39.3982041 Z M40.704,44.358 C40.252,44.358 39.876,44.244 39.576,44.016 C39.276,43.788 39.051,43.477 38.901,43.083 C38.751,42.689 38.676,42.246 38.676,41.754 C38.676,41.266 38.749,40.826 38.895,40.434 C39.041,40.042 39.266,39.732 39.57,39.504 C39.874,39.276 40.258,39.162 40.722,39.162 C41.174,39.162 41.549,39.272 41.847,39.492 C42.145,39.712 42.368,40.017 42.516,40.407 C42.664,40.797 42.738,41.246 42.738,41.754 C42.738,42.254 42.664,42.701 42.516,43.095 C42.368,43.489 42.144,43.798 41.844,44.022 C41.544,44.246 41.164,44.358 40.704,44.358 Z M48.684,41.598 L48.684,40.842 L45.084,40.842 L45.084,41.598 L48.684,41.598 Z M51.768,45 L51.768,39.276 L53.538,39.276 L53.538,38.52 L51.768,38.52 L51.768,37.944 C51.768,37.6422857 51.8289796,37.4096327 51.9509388,37.2460408 L52.017,37.17 C52.183,37.006 52.434,36.924 52.77,36.924 L52.77,36.924 L53.538,36.924 L53.538,36.18 L52.71,36.18 C52.546,36.18 52.379,36.19 52.209,36.21 C52.039,36.23 51.876,36.273 51.72,36.339 C51.564,36.405 51.42,36.51 51.288,36.654 C51.168,36.782 51.08,36.921 51.024,37.071 C50.968,37.221 50.931,37.378 50.913,37.542 C50.895,37.706 50.886,37.872 50.886,38.04 L50.886,38.04 L50.886,38.52 L49.764,38.52 L49.764,39.276 L50.886,39.276 L50.886,45 L51.768,45 Z M55.68,37.29 L55.68,36.3 L54.798,36.3 L54.798,37.29 L55.68,37.29 Z M55.68,45 L55.68,38.52 L54.798,38.52 L54.798,45 L55.68,45 Z M58.482,45 L58.482,36.18 L57.6,36.18 L57.6,45 L58.482,45 Z M61.284,45 L61.284,36.18 L60.402,36.18 L60.402,45 L61.284,45 Z" id="warning-fll" fill="#245633" fill-rule="nonzero"></path>
                <line x1="31.5" y1="5" x2="31.5" y2="31" id="Path-3-Copy-4" stroke="#245633"></line>
            </g>
        </g>
    </g>
</svg>