<svg xmlns="http://www.w3.org/2000/svg" width="279" height="555" viewBox="0 0 279 555">
  <g fill="none" fill-rule="evenodd" transform="rotate(-80 311.017 260.974)">
    <rect width="523.125" height="180" x=".166" y="8.688" fill="#35313D" opacity=".1"/>
    <rect width="517.5" height="174.375" x="9.063" y="2.813" fill="#FF8E51" stroke="#000" stroke-width="5.625"/>
    <path fill="#000" fill-rule="nonzero" d="M205.43125,111.25 L213.671875,82.45 L221.96875,111.25 L228.6625,111.25 L240.475,70.75 L233.359375,70.75 L225.315625,100 L217.24375,70.75 L210.128125,70.80625 L202.084375,100 L194.0125,70.75 L186.896875,70.75 L198.7375,111.25 L205.43125,111.25 Z M249.221875,111.25 L251.98625,102.475 L267.93875,102.475 L270.7375,111.25 L277.7125,111.25 L264.94375,70.75 L255.015625,70.75 L242.246875,111.25 L249.221875,111.25 Z M265.92125,96.1475 L253.97875,96.1475 L259.91375,77.30875 L265.92125,96.1475 Z M289.553125,111.25 L289.553125,97.103125 L299.1775,97.10375 L306.034375,111.25 L313.7125,111.25 L306.23,95.90375 L306.52526,95.7740991 C308.081297,95.0559812 309.352806,94.0488422 310.339786,92.7526819 L310.5625,92.4484375 C312.23125,90.0765625 313.065625,87.240625 313.065625,83.940625 C313.065625,81.709375 312.695312,79.6796875 311.954687,77.8515625 C311.214062,76.0234375 310.079687,74.509375 308.551562,73.309375 C307.023437,72.109375 305.0875,71.33125 302.74375,70.975 C302.21875,70.88125 301.646875,70.8203125 301.028125,70.7921875 C300.409375,70.7640625 299.903125,70.75 299.509375,70.75 L299.509375,70.75 L282.775,70.75 L282.775,111.25 L289.553125,111.25 Z M299.228125,90.775 L289.553125,90.775 L289.553125,77.10625 L299.228125,77.10625 C299.603125,77.10625 300.025,77.1203125 300.49375,77.1484375 C300.9625,77.1765625 301.39375,77.246875 301.7875,77.359375 C302.9125,77.640625 303.798437,78.1375 304.445312,78.85 C305.092187,79.5625 305.551562,80.3734375 305.823437,81.2828125 C306.095312,82.1921875 306.23125,83.078125 306.23125,83.940625 C306.23125,84.803125 306.095312,85.684375 305.823437,86.584375 C305.551562,87.484375 305.092187,88.290625 304.445312,89.003125 C303.798437,89.715625 302.9125,90.2125 301.7875,90.49375 C301.39375,90.60625 300.9625,90.68125 300.49375,90.71875 C300.025,90.75625 299.603125,90.775 299.228125,90.775 L299.228125,90.775 Z M326.7625,111.25 L326.7625,82.703125 L345.55,111.25 L352.4125,111.25 L352.4125,70.75 L345.55,70.75 L345.55,99.296875 L326.7625,70.75 L319.9,70.75 L319.9,111.25 L326.7625,111.25 Z M367.628125,111.25 L367.628125,70.75 L360.85,70.75 L360.85,111.25 L367.628125,111.25 Z M382.928125,111.25 L382.928125,82.703125 L401.715625,111.25 L408.578125,111.25 L408.578125,70.75 L401.715625,70.75 L401.715625,99.296875 L382.928125,70.75 L376.065625,70.75 L376.065625,111.25 L382.928125,111.25 Z M433.159375,112.09375 C437.078125,112.09375 440.44375,111.25 443.25625,109.5625 C446.06875,107.875 448.229687,105.545312 449.739062,102.573437 C451.248437,99.6015625 452.003125,96.203125 452.003125,92.378125 C452.003125,92.265625 451.99375,91.91875 451.975,91.3375 C451.95625,90.75625 451.928125,90.315625 451.890625,90.015625 L451.890625,90.015625 L437.546875,90.015625 L437.546875,95.33125 L444.690625,95.33125 C444.353125,97.65625 443.696875,99.5921875 442.721875,101.139062 C441.746875,102.685937 440.490625,103.839062 438.953125,104.598437 C437.415625,105.357812 435.625,105.728125 433.58125,105.709375 C430.8625,105.671875 428.598437,105.04375 426.789062,103.825 C424.979687,102.60625 423.625,100.904687 422.725,98.7203125 C421.825,96.5359375 421.375,93.9625 421.375,91 C421.375,88.0375 421.829687,85.45 422.739062,83.2375 C423.648437,81.025 425.003125,79.309375 426.803125,78.090625 C428.603125,76.871875 430.8625,76.28125 433.58125,76.31875 C436.28125,76.31875 438.503125,77.0359375 440.246875,78.4703125 C441.990625,79.9046875 443.246875,81.821875 444.015625,84.221875 L444.015625,84.221875 L450.934375,83.125 C449.903125,78.94375 447.929687,75.6953125 445.014062,73.3796875 C442.098437,71.0640625 438.146875,69.90625 433.159375,69.90625 C429.559375,69.90625 426.325,70.7453125 423.45625,72.4234375 C420.5875,74.1015625 418.328125,76.5109375 416.678125,79.6515625 C415.028125,82.7921875 414.203125,86.575 414.203125,91 C414.203125,94.375 414.690625,97.3703125 415.665625,99.9859375 C416.640625,102.601562 417.995312,104.809375 419.729687,106.609375 C421.464062,108.409375 423.479687,109.773437 425.776562,110.701562 C428.073437,111.629687 430.534375,112.09375 433.159375,112.09375 Z"/>
    <path fill="#000" d="M45,67.501125 C42.67125,67.501125 40.78125,65.611125 40.78125,63.282375 C40.78125,60.948 42.67125,59.063625 45,59.063625 C47.32875,59.063625 49.21875,60.948 49.21875,63.282375 C49.21875,65.611125 47.32875,67.501125 45,67.501125 L45,67.501125 Z M42.1875,33.751125 C42.1875,32.193 43.441875,30.938625 45,30.938625 C46.5525,30.938625 47.8125,32.193 47.8125,33.751125 L47.8125,50.626125 C47.8125,52.178625 46.5525,53.438625 45,53.438625 C43.441875,53.438625 42.1875,52.178625 42.1875,50.626125 L42.1875,33.751125 Z M83.2275,66.083625 L52.30125,12.646125 C50.776875,10.008 48.04875,8.438625 45,8.438625 C41.95125,8.438625 39.223125,10.008 37.69875,12.646125 L37.69875,12.646125 L6.7725,66.083625 C5.236875,68.727375 5.236875,71.883 6.766875,74.52675 C8.285625,77.1705 11.01375,78.7455 14.068125,78.7455 L75.931875,78.7455 C78.98625,78.7455 81.714375,77.1705 83.233125,74.52675 C84.763125,71.883 84.763125,68.727375 83.2275,66.083625 L83.2275,66.083625 Z" transform="translate(81.25 45)"/>
  </g>
</svg>
