<svg width="186" height="508" viewBox="0 0 186 508" fill="none" xmlns="http://www.w3.org/2000/svg">
<g filter="url(#filter0_d_151_3068)">
<path d="M164 177H178C181.314 177 184 179.686 184 183V211C184 214.314 181.314 217 178 217H164V177Z" fill="#2E321F"/>
<path opacity="0.2" d="M166 182C166 181.448 166.448 181 167 181H181C181.552 181 182 181.448 182 182V182C182 182.552 181.552 183 181 183H167C166.448 183 166 182.552 166 182V182Z" fill="white"/>
<path opacity="0.2" d="M166 188.5C166 187.672 166.672 187 167.5 187H180.5C181.328 187 182 187.672 182 188.5V188.5C182 189.328 181.328 190 180.5 190H167.5C166.672 190 166 189.328 166 188.5V188.5Z" fill="white"/>
<path opacity="0.2" d="M166 196C166 194.895 166.895 194 168 194H180C181.105 194 182 194.895 182 196V197C182 198.105 181.105 199 180 199H168C166.895 199 166 198.105 166 197V196Z" fill="white"/>
<path opacity="0.2" d="M166 204.5C166 203.672 166.672 203 167.5 203H180.5C181.328 203 182 203.672 182 204.5V204.5C182 205.328 181.328 206 180.5 206H167.5C166.672 206 166 205.328 166 204.5V204.5Z" fill="white"/>
<path opacity="0.2" d="M166 212C166 211.448 166.448 211 167 211H181C181.552 211 182 211.448 182 212V212C182 212.552 181.552 213 181 213H167C166.448 213 166 212.552 166 212V212Z" fill="white"/>
<mask id="path-7-outside-1_151_3068" maskUnits="userSpaceOnUse" x="3" y="0" width="170" height="506" fill="black">
<rect fill="white" x="3" width="170" height="506"/>
<path fill-rule="evenodd" clip-rule="evenodd" d="M56 1C51.5817 1 48 4.58172 48 9L48 89V89.7883C48 110.326 35.4557 128.332 22.5665 144.322C10.9525 158.73 4 177.053 4 197C4 216.947 10.9525 235.27 22.5665 249.678C35.4557 265.668 48 283.674 48 304.212V305L48 505H128L128 305V304.212C128 283.674 140.544 265.668 153.434 249.678C165.047 235.27 172 216.947 172 197C172 177.053 165.047 158.73 153.434 144.322C140.544 128.332 128 110.326 128 89.7883V89V9C128 4.58172 124.418 1 120 1L56 1Z"/>
</mask>
<path fill-rule="evenodd" clip-rule="evenodd" d="M56 1C51.5817 1 48 4.58172 48 9L48 89V89.7883C48 110.326 35.4557 128.332 22.5665 144.322C10.9525 158.73 4 177.053 4 197C4 216.947 10.9525 235.27 22.5665 249.678C35.4557 265.668 48 283.674 48 304.212V305L48 505H128L128 305V304.212C128 283.674 140.544 265.668 153.434 249.678C165.047 235.27 172 216.947 172 197C172 177.053 165.047 158.73 153.434 144.322C140.544 128.332 128 110.326 128 89.7883V89V9C128 4.58172 124.418 1 120 1L56 1Z" fill="#A4B55B"/>
<path d="M22.5665 144.322L23.3451 144.95L23.3451 144.95L22.5665 144.322ZM22.5665 249.678L21.7879 250.305L21.7879 250.305L22.5665 249.678ZM48 505H47V506H48V505ZM128 505V506H129V505H128ZM153.434 249.678L154.212 250.305L154.212 250.305L153.434 249.678ZM153.434 144.322L154.212 143.695L154.212 143.695L153.434 144.322ZM49 9C49 5.13401 52.134 2 56 2V0C51.0294 0 47 4.02944 47 9H49ZM49 89L49 9H47L47 89H49ZM47 89V89.7883H49V89H47ZM47 89.7883C47 109.937 34.686 127.694 21.7879 143.695L23.3451 144.95C36.2253 128.971 49 110.715 49 89.7883H47ZM21.7879 143.695C10.0359 158.274 3 176.817 3 197H5C5 177.29 11.8692 159.186 23.3451 144.95L21.7879 143.695ZM3 197C3 217.183 10.0359 235.726 21.7879 250.305L23.345 249.05C11.8692 234.814 5 216.71 5 197H3ZM21.7879 250.305C34.686 266.306 47 284.063 47 304.212H49C49 283.285 36.2253 265.029 23.345 249.05L21.7879 250.305ZM47 304.212V305H49V304.212H47ZM49 505L49 305H47L47 505H49ZM128 504H48V506H128V504ZM127 305L127 505H129L129 305H127ZM129 305V304.212H127V305H129ZM129 304.212C129 284.063 141.314 266.306 154.212 250.305L152.655 249.05C139.775 265.029 127 283.285 127 304.212H129ZM154.212 250.305C165.964 235.726 173 217.183 173 197H171C171 216.71 164.131 234.814 152.655 249.05L154.212 250.305ZM173 197C173 176.817 165.964 158.274 154.212 143.695L152.655 144.95C164.131 159.186 171 177.29 171 197H173ZM154.212 143.695C141.314 127.694 129 109.937 129 89.7883H127C127 110.715 139.775 128.971 152.655 144.95L154.212 143.695ZM129 89.7883V89H127V89.7883H129ZM127 9V89H129V9H127ZM120 2C123.866 2 127 5.13401 127 9H129C129 4.02944 124.971 0 120 0V2ZM56 2L120 2V0L56 0V2Z" fill="#31351F" mask="url(#path-7-outside-1_151_3068)"/>
<circle cx="88" cy="197" r="80" fill="#2E321F"/>
<circle opacity="0.3" cx="92" cy="263" r="2" fill="#C4E456"/>
<circle cx="84" cy="263" r="2" fill="#C4E456"/>
<path d="M46.8938 223.992L46.9018 222.712L52.0138 218.112C52.4404 217.728 52.7258 217.365 52.8698 217.024C53.0191 216.677 53.0938 216.323 53.0938 215.96C53.0938 215.517 52.9924 215.117 52.7898 214.76C52.5871 214.403 52.3098 214.12 51.9578 213.912C51.6111 213.704 51.2164 213.6 50.7738 213.6C50.3151 213.6 49.9071 213.709 49.5498 213.928C49.1924 214.141 48.9098 214.427 48.7018 214.784C48.4991 215.141 48.4004 215.531 48.4058 215.952H46.9498C46.9498 215.227 47.1178 214.587 47.4538 214.032C47.7898 213.472 48.2458 213.035 48.8218 212.72C49.4031 212.4 50.0618 212.24 50.7977 212.24C51.5124 212.24 52.1524 212.405 52.7178 212.736C53.2831 213.061 53.7284 213.507 54.0538 214.072C54.3844 214.632 54.5498 215.267 54.5498 215.976C54.5498 216.477 54.4858 216.912 54.3577 217.28C54.2351 217.648 54.0431 217.989 53.7818 218.304C53.5204 218.613 53.1924 218.944 52.7978 219.296L48.5498 223.112L48.3658 222.632H54.5498V223.992H46.8938ZM56.3038 225.792L56.3918 225.128C56.6158 225.144 56.7838 225.101 56.8958 225C57.0078 224.899 57.0798 224.76 57.1118 224.584C57.1438 224.408 57.1491 224.213 57.1278 224H56.3038V222.192H57.8718V224.24C57.8718 224.8 57.7331 225.221 57.4557 225.504C57.1838 225.787 56.7998 225.883 56.3038 225.792ZM64.0769 224.224C63.5062 224.224 62.9755 224.12 62.4849 223.912C61.9942 223.699 61.5702 223.4 61.2129 223.016C60.8609 222.627 60.6022 222.165 60.4369 221.632L61.8049 221.24C61.9809 221.773 62.2742 222.179 62.6849 222.456C63.0955 222.733 63.5569 222.869 64.0689 222.864C64.5382 222.853 64.9435 222.747 65.2849 222.544C65.6315 222.336 65.8982 222.053 66.0849 221.696C66.2769 221.339 66.3729 220.925 66.3729 220.456C66.3729 219.741 66.1595 219.163 65.7329 218.72C65.3062 218.272 64.7462 218.048 64.0529 218.048C63.8609 218.048 63.6582 218.075 63.4449 218.128C63.2369 218.181 63.0422 218.256 62.8609 218.352L62.1729 217.224L66.4449 213.36L66.6289 213.84H60.8929V212.48H67.6849V213.848L64.0449 217.336L64.0289 216.832C64.7915 216.779 65.4582 216.904 66.0289 217.208C66.5995 217.512 67.0422 217.947 67.3569 218.512C67.6769 219.077 67.8369 219.725 67.8369 220.456C67.8369 221.192 67.6715 221.843 67.3409 222.408C67.0102 222.973 66.5622 223.419 65.9969 223.744C65.4315 224.064 64.7915 224.224 64.0769 224.224ZM74.8929 224V221.88H69.5969V220.528L73.3969 212.48H75.0129L71.2129 220.528H74.8929V217.288H76.3329V220.528H77.5329V221.88H76.3329V224H74.8929ZM81.4561 224V214.056L79.2881 215.368V213.776L81.4561 212.48H82.9041V224H81.4561ZM92.4153 224.232C91.3859 224.232 90.5406 224.008 89.8793 223.56C89.2233 223.107 88.8206 222.475 88.6713 221.664L90.1273 221.432C90.2446 221.901 90.5139 222.275 90.9353 222.552C91.3566 222.824 91.8793 222.96 92.5033 222.96C93.0953 222.96 93.5593 222.837 93.8953 222.592C94.2313 222.347 94.3993 222.013 94.3993 221.592C94.3993 221.347 94.3433 221.149 94.2313 221C94.1193 220.845 93.8873 220.701 93.5353 220.568C93.1886 220.435 92.6633 220.275 91.9593 220.088C91.1966 219.885 90.5966 219.675 90.1593 219.456C89.7219 219.237 89.4099 218.984 89.2233 218.696C89.0366 218.408 88.9433 218.059 88.9433 217.648C88.9433 217.141 89.0819 216.699 89.3593 216.32C89.6366 215.936 90.0233 215.64 90.5193 215.432C91.0206 215.224 91.6019 215.12 92.2633 215.12C92.9193 215.12 93.5059 215.224 94.0233 215.432C94.5406 215.64 94.9566 215.936 95.2713 216.32C95.5913 216.699 95.7806 217.141 95.8393 217.648L94.3833 217.912C94.3139 217.448 94.0899 217.083 93.7113 216.816C93.3379 216.549 92.8553 216.408 92.2633 216.392C91.7033 216.371 91.2473 216.469 90.8953 216.688C90.5486 216.907 90.3753 217.203 90.3753 217.576C90.3753 217.784 90.4393 217.963 90.5673 218.112C90.7006 218.261 90.9433 218.403 91.2953 218.536C91.6526 218.669 92.1699 218.821 92.8473 218.992C93.6099 219.184 94.2099 219.395 94.6473 219.624C95.0899 219.848 95.4046 220.115 95.5913 220.424C95.7779 220.728 95.8713 221.104 95.8713 221.552C95.8713 222.384 95.5646 223.04 94.9513 223.52C94.3379 223.995 93.4926 224.232 92.4153 224.232ZM102.46 224C101.948 224.101 101.441 224.141 100.94 224.12C100.444 224.104 100.001 224.005 99.6116 223.824C99.2223 223.637 98.9263 223.349 98.7236 222.96C98.553 222.619 98.4596 222.275 98.4436 221.928C98.433 221.576 98.4276 221.179 98.4276 220.736V212.96H99.8516V220.672C99.8516 221.024 99.8543 221.325 99.8596 221.576C99.8703 221.827 99.9263 222.043 100.028 222.224C100.22 222.565 100.524 222.765 100.94 222.824C101.361 222.883 101.868 222.867 102.46 222.776V224ZM96.6756 216.536V215.36H102.46V216.536H96.6756ZM107.598 224.24C106.75 224.24 106.009 224.053 105.374 223.68C104.745 223.301 104.254 222.776 103.902 222.104C103.55 221.427 103.374 220.637 103.374 219.736C103.374 218.792 103.548 217.976 103.894 217.288C104.241 216.595 104.724 216.061 105.342 215.688C105.966 215.309 106.697 215.12 107.534 215.12C108.404 215.12 109.142 215.32 109.75 215.72C110.364 216.12 110.822 216.691 111.126 217.432C111.436 218.173 111.569 219.056 111.526 220.08H110.086V219.568C110.07 218.507 109.854 217.715 109.438 217.192C109.022 216.664 108.404 216.4 107.582 216.4C106.702 216.4 106.033 216.683 105.574 217.248C105.116 217.813 104.886 218.624 104.886 219.68C104.886 220.699 105.116 221.488 105.574 222.048C106.033 222.608 106.686 222.888 107.534 222.888C108.105 222.888 108.601 222.757 109.022 222.496C109.444 222.235 109.774 221.859 110.014 221.368L111.382 221.84C111.046 222.603 110.54 223.195 109.862 223.616C109.19 224.032 108.436 224.24 107.598 224.24ZM104.406 220.08V218.936H110.79V220.08H104.406ZM117.041 224.24C116.23 224.24 115.548 224.04 114.993 223.64C114.438 223.235 114.017 222.688 113.729 222C113.446 221.307 113.305 220.531 113.305 219.672C113.305 218.803 113.446 218.024 113.729 217.336C114.017 216.648 114.438 216.107 114.993 215.712C115.553 215.317 116.238 215.12 117.049 215.12C117.849 215.12 118.537 215.32 119.113 215.72C119.694 216.115 120.14 216.656 120.449 217.344C120.758 218.032 120.913 218.808 120.913 219.672C120.913 220.536 120.758 221.312 120.449 222C120.14 222.688 119.694 223.235 119.113 223.64C118.537 224.04 117.846 224.24 117.041 224.24ZM113.065 227.84V215.36H114.337V221.72H114.497V227.84H113.065ZM116.865 222.936C117.436 222.936 117.908 222.792 118.281 222.504C118.654 222.216 118.934 221.827 119.121 221.336C119.308 220.84 119.401 220.285 119.401 219.672C119.401 219.064 119.308 218.515 119.121 218.024C118.94 217.533 118.657 217.144 118.273 216.856C117.894 216.568 117.412 216.424 116.825 216.424C116.265 216.424 115.801 216.563 115.433 216.84C115.065 217.112 114.79 217.493 114.609 217.984C114.428 218.469 114.337 219.032 114.337 219.672C114.337 220.301 114.425 220.864 114.601 221.36C114.782 221.851 115.06 222.237 115.433 222.52C115.806 222.797 116.284 222.936 116.865 222.936ZM125.806 224.232C124.777 224.232 123.931 224.008 123.27 223.56C122.614 223.107 122.211 222.475 122.062 221.664L123.518 221.432C123.635 221.901 123.905 222.275 124.326 222.552C124.747 222.824 125.27 222.96 125.894 222.96C126.486 222.96 126.95 222.837 127.286 222.592C127.622 222.347 127.79 222.013 127.79 221.592C127.79 221.347 127.734 221.149 127.622 221C127.51 220.845 127.278 220.701 126.926 220.568C126.579 220.435 126.054 220.275 125.35 220.088C124.587 219.885 123.987 219.675 123.55 219.456C123.113 219.237 122.801 218.984 122.614 218.696C122.427 218.408 122.334 218.059 122.334 217.648C122.334 217.141 122.473 216.699 122.75 216.32C123.027 215.936 123.414 215.64 123.91 215.432C124.411 215.224 124.993 215.12 125.654 215.12C126.31 215.12 126.897 215.224 127.414 215.432C127.931 215.64 128.347 215.936 128.662 216.32C128.982 216.699 129.171 217.141 129.23 217.648L127.774 217.912C127.705 217.448 127.481 217.083 127.102 216.816C126.729 216.549 126.246 216.408 125.654 216.392C125.094 216.371 124.638 216.469 124.286 216.688C123.939 216.907 123.766 217.203 123.766 217.576C123.766 217.784 123.83 217.963 123.958 218.112C124.091 218.261 124.334 218.403 124.686 218.536C125.043 218.669 125.561 218.821 126.238 218.992C127.001 219.184 127.601 219.395 128.038 219.624C128.481 219.848 128.795 220.115 128.982 220.424C129.169 220.728 129.262 221.104 129.262 221.552C129.262 222.384 128.955 223.04 128.342 223.52C127.729 223.995 126.883 224.232 125.806 224.232Z" fill="#C4E456"/>
<path d="M101.75 183.063C100.341 183.063 98.99 182.503 97.9937 181.507C96.9974 180.51 96.4377 179.159 96.4377 177.75V173.953C96.4374 173.406 96.232 172.879 95.8621 172.476C95.4921 172.072 94.9844 171.822 94.4393 171.775C90.5252 171.463 87.8768 168.872 87.6986 165.185C87.6728 164.642 87.4462 164.129 87.0627 163.744L85.7768 162.458C85.3747 162.052 84.8288 161.82 84.2571 161.813C83.6854 161.806 83.134 162.024 82.7221 162.42C82.7167 162.427 82.711 162.432 82.7049 162.438L72.7049 172.456C72.5005 172.66 72.3385 172.903 72.2282 173.17C72.118 173.437 72.0616 173.723 72.0625 174.011C72.0634 174.3 72.1214 174.586 72.2333 174.852C72.3451 175.118 72.5086 175.36 72.7143 175.563L89.4705 191.797C89.6733 192.001 89.9145 192.162 90.1799 192.272C90.4454 192.382 90.73 192.438 91.0174 192.438H105.5C106.08 192.438 106.637 192.207 107.047 191.797C107.457 191.387 107.688 190.83 107.688 190.25V189C107.688 187.425 107.062 185.915 105.949 184.802C104.835 183.688 103.325 183.063 101.75 183.063ZM105.813 190.25C105.813 190.333 105.78 190.413 105.721 190.471C105.663 190.53 105.583 190.563 105.5 190.563H91.0174C90.974 190.562 90.9312 190.553 90.8915 190.535C90.8518 190.518 90.816 190.493 90.7861 190.461L74.0299 174.224C74.0005 174.194 73.9771 174.16 73.9613 174.121C73.9455 174.083 73.9375 174.042 73.9377 174C73.9377 173.959 73.9458 173.918 73.9616 173.88C73.9774 173.842 74.0006 173.807 74.0299 173.778L84.0189 163.778C84.0785 163.724 84.1565 163.695 84.2368 163.697C84.3171 163.699 84.3935 163.732 84.4502 163.789L85.7346 165.074C85.7897 165.129 85.8221 165.203 85.8252 165.281C85.9393 167.61 86.8268 169.635 88.3924 171.138C89.9049 172.591 91.9439 173.458 94.2893 173.647C94.3652 173.657 94.435 173.694 94.4854 173.751C94.5358 173.809 94.5633 173.883 94.5627 173.96V176.813H91.7502C91.5016 176.813 91.2631 176.911 91.0873 177.087C90.9115 177.263 90.8127 177.502 90.8127 177.75C90.8127 177.999 90.9115 178.237 91.0873 178.413C91.2631 178.589 91.5016 178.688 91.7502 178.688H94.6252C94.7724 179.81 95.1837 180.881 95.8252 181.813H93.0002C92.7516 181.813 92.5131 181.911 92.3373 182.087C92.1615 182.263 92.0627 182.502 92.0627 182.75C92.0627 182.999 92.1615 183.237 92.3373 183.413C92.5131 183.589 92.7516 183.688 93.0002 183.688H97.7049C98.8963 184.503 100.307 184.939 101.75 184.938C102.828 184.938 103.861 185.366 104.623 186.128C105.385 186.889 105.813 187.923 105.813 189V190.25ZM78.0002 187.438H73.0002C72.7516 187.438 72.5131 187.339 72.3373 187.163C72.1615 186.987 72.0627 186.749 72.0627 186.5C72.0627 186.252 72.1615 186.013 72.3373 185.837C72.5131 185.661 72.7516 185.563 73.0002 185.563H78.0002C78.2488 185.563 78.4873 185.661 78.6631 185.837C78.8389 186.013 78.9377 186.252 78.9377 186.5C78.9377 186.749 78.8389 186.987 78.6631 187.163C78.4873 187.339 78.2488 187.438 78.0002 187.438ZM83.9377 191.5C83.9377 191.749 83.8389 191.987 83.6631 192.163C83.4873 192.339 83.2488 192.438 83.0002 192.438H75.5002C75.2516 192.438 75.0131 192.339 74.8373 192.163C74.6615 191.987 74.5627 191.749 74.5627 191.5C74.5627 191.252 74.6615 191.013 74.8373 190.837C75.0131 190.661 75.2516 190.563 75.5002 190.563H83.0002C83.2488 190.563 83.4873 190.661 83.6631 190.837C83.8389 191.013 83.9377 191.252 83.9377 191.5Z" fill="#C4E456"/>
<path opacity="0.15" fill-rule="evenodd" clip-rule="evenodd" d="M31.4307 140.431C62.6726 109.19 113.326 109.19 144.568 140.431C175.81 171.673 175.81 222.327 144.568 253.569L130.426 239.427C141.284 228.569 148 213.569 148 197C148 163.863 121.137 137 88 137C71.4313 137 56.4311 143.716 45.5732 154.574L31.4307 140.431Z" fill="url(#paint0_linear_151_3068)"/>
<rect x="44" y="502" width="88" height="4" rx="2" fill="#31351F"/>
<rect opacity="0.2" x="56" y="17" width="64" height="4" rx="2" fill="#31351F"/>
<rect opacity="0.2" x="56" y="29" width="64" height="4" rx="2" fill="#31351F"/>
<rect opacity="0.2" x="56" y="41" width="64" height="4" rx="2" fill="#31351F"/>
<rect opacity="0.2" x="56" y="53" width="64" height="4" rx="2" fill="#31351F"/>
<rect opacity="0.2" x="56" y="65" width="64" height="4" rx="2" fill="#31351F"/>
<rect opacity="0.2" x="56" y="77" width="64" height="4" rx="2" fill="#31351F"/>
<rect opacity="0.2" x="56" y="89" width="64" height="4" rx="2" fill="#31351F"/>
<rect opacity="0.2" x="56" y="101" width="64" height="4" rx="2" fill="#31351F"/>
<rect opacity="0.2" x="56" y="289" width="64" height="4" rx="2" fill="#31351F"/>
<rect opacity="0.2" x="56" y="301" width="64" height="4" rx="2" fill="#31351F"/>
<rect opacity="0.2" x="56" y="313" width="64" height="4" rx="2" fill="#31351F"/>
<rect opacity="0.2" x="56" y="325" width="64" height="4" rx="2" fill="#31351F"/>
<rect opacity="0.2" x="56" y="337" width="64" height="4" rx="2" fill="#31351F"/>
<rect opacity="0.2" x="56" y="349" width="64" height="4" rx="2" fill="#31351F"/>
<rect opacity="0.2" x="56" y="361" width="64" height="4" rx="2" fill="#31351F"/>
<rect opacity="0.2" x="56" y="373" width="64" height="4" rx="2" fill="#31351F"/>
<rect opacity="0.2" x="56" y="385" width="64" height="4" rx="2" fill="#31351F"/>
<rect opacity="0.2" x="56" y="397" width="64" height="4" rx="2" fill="#31351F"/>
<rect opacity="0.2" x="56" y="409" width="64" height="4" rx="2" fill="#31351F"/>
<rect opacity="0.2" x="56" y="421" width="64" height="4" rx="2" fill="#31351F"/>
<rect opacity="0.2" x="56" y="433" width="64" height="4" rx="2" fill="#31351F"/>
<rect opacity="0.2" x="56" y="445" width="64" height="4" rx="2" fill="#31351F"/>
<rect opacity="0.2" x="56" y="457" width="64" height="4" rx="2" fill="#31351F"/>
<rect opacity="0.2" x="56" y="469" width="64" height="4" rx="2" fill="#31351F"/>
<rect opacity="0.2" x="56" y="481" width="64" height="4" rx="2" fill="#31351F"/>
</g>
<defs>
<filter id="filter0_d_151_3068" x="0" y="0" width="186" height="508" filterUnits="userSpaceOnUse" color-interpolation-filters="sRGB">
<feFlood flood-opacity="0" result="BackgroundImageFix"/>
<feColorMatrix in="SourceAlpha" type="matrix" values="0 0 0 0 0 0 0 0 0 0 0 0 0 0 0 0 0 0 127 0" result="hardAlpha"/>
<feOffset dx="2" dy="2"/>
<feComposite in2="hardAlpha" operator="out"/>
<feColorMatrix type="matrix" values="0 0 0 0 0.192157 0 0 0 0 0.207843 0 0 0 0 0.121569 0 0 0 0.2 0"/>
<feBlend mode="normal" in2="BackgroundImageFix" result="effect1_dropShadow_151_3068"/>
<feBlend mode="normal" in="SourceGraphic" in2="effect1_dropShadow_151_3068" result="shape"/>
</filter>
<linearGradient id="paint0_linear_151_3068" x1="168" y1="117" x2="100" y2="185" gradientUnits="userSpaceOnUse">
<stop stop-color="white"/>
<stop offset="1" stop-color="white" stop-opacity="0"/>
</linearGradient>
</defs>
</svg>
