<svg width="183" height="508" viewBox="0 0 183 508" fill="none" xmlns="http://www.w3.org/2000/svg">
<path opacity="0.2" d="M55 3C50.5817 3 47 6.58172 47 11V91.7883C47 112.326 34.4557 130.332 21.5665 146.322C9.95255 160.73 3 179.053 3 199C3 218.947 9.95254 237.27 21.5665 251.678C34.4557 267.668 47 285.674 47 306.212V504H45C43.8954 504 43 504.895 43 506C43 507.105 43.8954 508 45 508H129C130.105 508 131 507.105 131 506C131 504.895 130.105 504 129 504H127V306.212C127 285.674 139.544 267.668 152.434 251.678C160.035 242.248 165.639 231.141 168.604 219H177C180.314 219 183 216.314 183 213V185C183 181.686 180.314 179 177 179H168.604C165.639 166.859 160.035 155.752 152.434 146.322C139.544 130.332 127 112.326 127 91.7883V11C127 6.58172 123.418 3 119 3H55Z" fill="#3E3D3A"/>
<path d="M161 177H175C178.314 177 181 179.686 181 183V211C181 214.314 178.314 217 175 217H161V177Z" fill="#3E3D3A"/>
<path opacity="0.2" d="M163 182C163 181.448 163.448 181 164 181H178C178.552 181 179 181.448 179 182V182C179 182.552 178.552 183 178 183H164C163.448 183 163 182.552 163 182V182Z" fill="white"/>
<path opacity="0.2" d="M163 188.5C163 187.672 163.672 187 164.5 187H177.5C178.328 187 179 187.672 179 188.5V188.5C179 189.328 178.328 190 177.5 190H164.5C163.672 190 163 189.328 163 188.5V188.5Z" fill="white"/>
<path opacity="0.2" d="M163 196C163 194.895 163.895 194 165 194H177C178.105 194 179 194.895 179 196V197C179 198.105 178.105 199 177 199H165C163.895 199 163 198.105 163 197V196Z" fill="white"/>
<path opacity="0.2" d="M163 204.5C163 203.672 163.672 203 164.5 203H177.5C178.328 203 179 203.672 179 204.5V204.5C179 205.328 178.328 206 177.5 206H164.5C163.672 206 163 205.328 163 204.5V204.5Z" fill="white"/>
<path opacity="0.2" d="M163 212C163 211.448 163.448 211 164 211H178C178.552 211 179 211.448 179 212V212C179 212.552 178.552 213 178 213H164C163.448 213 163 212.552 163 212V212Z" fill="white"/>
<path d="M44.5 505V505.5H45H125H125.5V505V304.212C125.5 283.868 137.929 265.987 150.823 249.992C162.506 235.498 169.5 217.065 169.5 197C169.5 176.935 162.506 158.502 150.823 144.008C137.929 128.013 125.5 110.132 125.5 89.7883V9C125.5 4.30558 121.694 0.5 117 0.5H53C48.3056 0.5 44.5 4.30558 44.5 9V89.7883C44.5 110.132 32.0709 128.013 19.1772 144.008C7.49422 158.502 0.5 176.935 0.5 197C0.5 217.065 7.49422 235.498 19.1772 249.992C32.0708 265.987 44.5 283.868 44.5 304.212V505Z" fill="#A4B55B" stroke="#3E3D3A"/>
<circle cx="85" cy="197" r="80" fill="#3E3D3A"/>
<circle opacity="0.3" cx="89" cy="263" r="2" fill="#C4E456"/>
<circle cx="81" cy="263" r="2" fill="#C4E456"/>
<path d="M102.187 174.731C102.188 174.444 102.131 174.159 102.021 173.894C101.911 173.628 101.75 173.387 101.547 173.185L90.8137 162.453C90.6106 162.25 90.3694 162.089 90.104 161.979C89.8386 161.869 89.5541 161.812 89.2668 161.812C88.9795 161.812 88.6951 161.869 88.4297 161.979C88.1642 162.089 87.9231 162.25 87.7199 162.453L83.2309 166.942L74.0965 170.369C73.737 170.503 73.4193 170.73 73.1752 171.026C72.9311 171.323 72.7693 171.678 72.7059 172.056L69.0746 193.844C69.0519 193.978 69.0588 194.116 69.0948 194.248C69.1308 194.379 69.1951 194.501 69.2832 194.606C69.3713 194.71 69.481 194.793 69.6047 194.851C69.7285 194.908 69.8632 194.938 69.9996 194.938C70.052 194.937 70.1042 194.933 70.1559 194.925L91.9434 191.294C92.3222 191.231 92.6778 191.069 92.9743 190.825C93.2708 190.581 93.4978 190.263 93.6324 189.903L97.0574 180.769L101.548 176.278C101.751 176.075 101.913 175.834 102.022 175.569C102.132 175.303 102.188 175.019 102.187 174.731ZM91.8746 189.245C91.8554 189.297 91.8231 189.342 91.7808 189.377C91.7386 189.412 91.688 189.435 91.634 189.444L72.7324 192.594L80.9934 184.331C81.8409 184.854 82.8509 185.047 83.8315 184.875C84.8122 184.702 85.6952 184.175 86.3128 183.393C86.9304 182.612 87.2396 181.632 87.1817 180.638C87.1238 179.643 86.7028 178.705 85.9987 178.001C85.2946 177.297 84.3564 176.876 83.3623 176.818C82.3682 176.76 81.3875 177.069 80.6064 177.687C79.8253 178.305 79.2982 179.188 79.1253 180.168C78.9524 181.149 79.1456 182.159 79.6684 183.006L71.4059 191.27L74.5574 172.364C74.5667 172.311 74.5897 172.261 74.6242 172.219C74.6587 172.177 74.7036 172.144 74.7543 172.125L83.5137 168.844L95.1559 180.486L91.8746 189.245ZM80.9371 180.875C80.9371 180.443 81.0654 180.02 81.3058 179.66C81.5462 179.3 81.8878 179.02 82.2875 178.854C82.6872 178.689 83.1271 178.645 83.5514 178.73C83.9757 178.814 84.3655 179.022 84.6714 179.328C84.9774 179.634 85.1857 180.024 85.2701 180.448C85.3545 180.873 85.3112 181.313 85.1456 181.712C84.9801 182.112 84.6997 182.454 84.3399 182.694C83.9802 182.934 83.5573 183.063 83.1246 183.063C82.5445 183.063 81.9881 182.832 81.5778 182.422C81.1676 182.012 80.9371 181.455 80.9371 180.875ZM100.22 174.953L96.2496 178.924L85.0746 167.75L89.0465 163.778C89.0755 163.749 89.11 163.726 89.1479 163.71C89.1859 163.695 89.2265 163.687 89.2676 163.687C89.3087 163.687 89.3493 163.695 89.3873 163.71C89.4252 163.726 89.4597 163.749 89.4887 163.778L100.22 174.511C100.249 174.54 100.272 174.575 100.288 174.613C100.304 174.65 100.312 174.691 100.312 174.732C100.312 174.773 100.304 174.814 100.288 174.852C100.272 174.89 100.249 174.924 100.22 174.953Z" fill="#C4E456"/>
<path opacity="0.15" d="M28.4307 140.431C59.6726 109.19 110.326 109.19 141.568 140.431C172.81 171.673 172.81 222.327 141.568 253.569L127.426 239.427C138.284 228.569 145 213.569 145 197C145 163.863 118.137 137 85 137C68.4313 137 53.4311 143.716 42.5732 154.574L28.4307 140.431Z" fill="url(#paint0_linear_215_32188)"/>
<rect x="41" y="502" width="88" height="4" rx="2" fill="#3E3D3A"/>
<rect opacity="0.2" x="53" y="17" width="64" height="4" rx="2" fill="#3E3D3A"/>
<rect opacity="0.2" x="53" y="29" width="64" height="4" rx="2" fill="#3E3D3A"/>
<rect opacity="0.2" x="53" y="41" width="64" height="4" rx="2" fill="#3E3D3A"/>
<rect opacity="0.2" x="53" y="53" width="64" height="4" rx="2" fill="#3E3D3A"/>
<rect opacity="0.2" x="53" y="65" width="64" height="4" rx="2" fill="#3E3D3A"/>
<rect opacity="0.2" x="53" y="77" width="64" height="4" rx="2" fill="#3E3D3A"/>
<rect opacity="0.2" x="53" y="89" width="64" height="4" rx="2" fill="#3E3D3A"/>
<rect opacity="0.2" x="53" y="101" width="64" height="4" rx="2" fill="#3E3D3A"/>
<rect opacity="0.2" x="53" y="289" width="64" height="4" rx="2" fill="#3E3D3A"/>
<rect opacity="0.2" x="53" y="301" width="64" height="4" rx="2" fill="#3E3D3A"/>
<rect opacity="0.2" x="53" y="313" width="64" height="4" rx="2" fill="#3E3D3A"/>
<rect opacity="0.2" x="53" y="325" width="64" height="4" rx="2" fill="#3E3D3A"/>
<rect opacity="0.2" x="53" y="337" width="64" height="4" rx="2" fill="#3E3D3A"/>
<rect opacity="0.2" x="53" y="349" width="64" height="4" rx="2" fill="#3E3D3A"/>
<rect opacity="0.2" x="53" y="361" width="64" height="4" rx="2" fill="#3E3D3A"/>
<rect opacity="0.2" x="53" y="373" width="64" height="4" rx="2" fill="#3E3D3A"/>
<rect opacity="0.2" x="53" y="385" width="64" height="4" rx="2" fill="#3E3D3A"/>
<rect opacity="0.2" x="53" y="397" width="64" height="4" rx="2" fill="#3E3D3A"/>
<rect opacity="0.2" x="53" y="409" width="64" height="4" rx="2" fill="#3E3D3A"/>
<rect opacity="0.2" x="53" y="421" width="64" height="4" rx="2" fill="#3E3D3A"/>
<rect opacity="0.2" x="53" y="433" width="64" height="4" rx="2" fill="#3E3D3A"/>
<rect opacity="0.2" x="53" y="445" width="64" height="4" rx="2" fill="#3E3D3A"/>
<rect opacity="0.2" x="53" y="457" width="64" height="4" rx="2" fill="#3E3D3A"/>
<rect opacity="0.2" x="53" y="469" width="64" height="4" rx="2" fill="#3E3D3A"/>
<rect opacity="0.2" x="53" y="481" width="64" height="4" rx="2" fill="#3E3D3A"/>
<defs>
<linearGradient id="paint0_linear_215_32188" x1="165" y1="117" x2="97" y2="185" gradientUnits="userSpaceOnUse">
<stop stop-color="white"/>
<stop offset="1" stop-color="white" stop-opacity="0"/>
</linearGradient>
</defs>
</svg>
