<svg width="183" height="508" viewBox="0 0 183 508" fill="none" xmlns="http://www.w3.org/2000/svg">
<path d="M161 176.5H160.5V177V217V217.5H161H175C178.59 217.5 181.5 214.59 181.5 211V183C181.5 179.41 178.59 176.5 175 176.5H161Z" fill="#EEEAE3" stroke="#B9B7AC"/>
<path d="M163 182C163 181.448 163.448 181 164 181H178C178.552 181 179 181.448 179 182V182C179 182.552 178.552 183 178 183H164C163.448 183 163 182.552 163 182V182Z" stroke="#B9B7AC"/>
<path d="M163 188.5C163 187.672 163.672 187 164.5 187H177.5C178.328 187 179 187.672 179 188.5V188.5C179 189.328 178.328 190 177.5 190H164.5C163.672 190 163 189.328 163 188.5V188.5Z" stroke="#B9B7AC"/>
<path d="M163 196.5C163 195.119 164.119 194 165.5 194H176.5C177.881 194 179 195.119 179 196.5V196.5C179 197.881 177.881 199 176.5 199H165.5C164.119 199 163 197.881 163 196.5V196.5Z" stroke="#B9B7AC"/>
<path d="M163 204.5C163 203.672 163.672 203 164.5 203H177.5C178.328 203 179 203.672 179 204.5V204.5C179 205.328 178.328 206 177.5 206H164.5C163.672 206 163 205.328 163 204.5V204.5Z" stroke="#B9B7AC"/>
<path d="M163 212C163 211.448 163.448 211 164 211H178C178.552 211 179 211.448 179 212V212C179 212.552 178.552 213 178 213H164C163.448 213 163 212.552 163 212V212Z" stroke="#B9B7AC"/>
<path d="M44.5 505V505.5H45H125H125.5V505V304.212C125.5 283.868 137.929 265.987 150.823 249.992C162.506 235.498 169.5 217.065 169.5 197C169.5 176.935 162.506 158.502 150.823 144.008C137.929 128.013 125.5 110.132 125.5 89.7883V9C125.5 4.30558 121.694 0.5 117 0.5H53C48.3056 0.5 44.5 4.30558 44.5 9V89.7883C44.5 110.132 32.0709 128.013 19.1772 144.008C7.49422 158.502 0.5 176.935 0.5 197C0.5 217.065 7.49422 235.498 19.1772 249.992C32.0708 265.987 44.5 283.868 44.5 304.212V505Z" fill="#EEEAE3" stroke="#B9B7AC"/>
<circle opacity="0.3" cx="85" cy="197" r="80" stroke="#3C402B"/>
<circle opacity="0.12" cx="89" cy="263" r="2" fill="#3C402B"/>
<circle opacity="0.4" cx="81" cy="263" r="2" fill="#3C402B"/>
<path d="M102.187 174.731C102.187 174.444 102.131 174.159 102.021 173.894C101.911 173.628 101.75 173.387 101.546 173.185L90.8135 162.453C90.6103 162.25 90.3692 162.089 90.1038 161.979C89.8383 161.869 89.5539 161.812 89.2666 161.812C88.9793 161.812 88.6948 161.869 88.4294 161.979C88.164 162.089 87.9228 162.25 87.7197 162.453L83.2306 166.942L74.0963 170.369C73.7368 170.503 73.4191 170.73 73.175 171.026C72.9309 171.323 72.769 171.678 72.7056 172.056L69.0744 193.844C69.0517 193.978 69.0585 194.116 69.0946 194.248C69.1306 194.379 69.1949 194.501 69.2829 194.606C69.371 194.71 69.4808 194.793 69.6045 194.851C69.7282 194.908 69.863 194.938 69.9994 194.938C70.0517 194.937 70.104 194.933 70.1556 194.925L91.9431 191.294C92.322 191.231 92.6775 191.069 92.974 190.825C93.2705 190.581 93.4975 190.263 93.6322 189.903L97.0572 180.769L101.548 176.278C101.751 176.075 101.912 175.834 102.022 175.569C102.132 175.303 102.188 175.019 102.187 174.731ZM91.8744 189.245C91.8552 189.297 91.8228 189.342 91.7806 189.377C91.7384 189.412 91.6877 189.435 91.6338 189.444L72.7322 192.594L80.9931 184.331C81.8407 184.854 82.8507 185.047 83.8313 184.875C84.8119 184.702 85.6949 184.175 86.3125 183.393C86.9301 182.612 87.2394 181.632 87.1815 180.638C87.1235 179.643 86.7026 178.705 85.9984 178.001C85.2943 177.297 84.3561 176.876 83.362 176.818C82.368 176.76 81.3872 177.069 80.6061 177.687C79.825 178.305 79.298 179.188 79.125 180.168C78.9521 181.149 79.1454 182.159 79.6681 183.006L71.4056 191.27L74.5572 172.364C74.5664 172.311 74.5894 172.261 74.6239 172.219C74.6585 172.177 74.7033 172.144 74.7541 172.125L83.5135 168.844L95.1556 180.486L91.8744 189.245ZM80.9369 180.875C80.9369 180.443 81.0652 180.02 81.3056 179.66C81.5459 179.3 81.8876 179.02 82.2873 178.854C82.687 178.689 83.1268 178.645 83.5512 178.73C83.9755 178.814 84.3653 179.022 84.6712 179.328C84.9771 179.634 85.1855 180.024 85.2699 180.448C85.3543 180.873 85.3109 181.313 85.1454 181.712C84.9798 182.112 84.6994 182.454 84.3397 182.694C83.98 182.934 83.557 183.063 83.1244 183.063C82.5442 183.063 81.9878 182.832 81.5776 182.422C81.1674 182.012 80.9369 181.455 80.9369 180.875ZM100.22 174.953L96.2494 178.924L85.0744 167.75L89.0463 163.778C89.0753 163.749 89.1098 163.726 89.1477 163.71C89.1856 163.695 89.2263 163.687 89.2674 163.687C89.3084 163.687 89.3491 163.695 89.387 163.71C89.425 163.726 89.4594 163.749 89.4885 163.778L100.22 174.511C100.249 174.54 100.272 174.575 100.288 174.613C100.303 174.65 100.311 174.691 100.311 174.732C100.311 174.773 100.303 174.814 100.288 174.852C100.272 174.89 100.249 174.924 100.22 174.953Z" fill="#3C402B"/>
<rect x="41" y="502" width="88" height="4" rx="2" fill="#EEEAE3" stroke="#B9B7AC"/>
<rect opacity="0.3" x="53" y="17" width="64" height="4" rx="2" stroke="#3C402B"/>
<rect opacity="0.3" x="53" y="29" width="64" height="4" rx="2" stroke="#3C402B"/>
<rect opacity="0.3" x="53" y="41" width="64" height="4" rx="2" stroke="#3C402B"/>
<rect opacity="0.3" x="53" y="53" width="64" height="4" rx="2" stroke="#3C402B"/>
<rect opacity="0.3" x="53" y="65" width="64" height="4" rx="2" stroke="#3C402B"/>
<rect opacity="0.3" x="53" y="77" width="64" height="4" rx="2" stroke="#3C402B"/>
<rect opacity="0.3" x="53" y="89" width="64" height="4" rx="2" stroke="#3C402B"/>
<rect opacity="0.3" x="53" y="101" width="64" height="4" rx="2" stroke="#3C402B"/>
<rect opacity="0.3" x="53" y="289" width="64" height="4" rx="2" stroke="#3C402B"/>
<rect opacity="0.3" x="53" y="301" width="64" height="4" rx="2" stroke="#3C402B"/>
<rect opacity="0.3" x="53" y="313" width="64" height="4" rx="2" stroke="#3C402B"/>
<rect opacity="0.3" x="53" y="325" width="64" height="4" rx="2" stroke="#3C402B"/>
<rect opacity="0.3" x="53" y="337" width="64" height="4" rx="2" stroke="#3C402B"/>
<rect opacity="0.3" x="53" y="349" width="64" height="4" rx="2" stroke="#3C402B"/>
<rect opacity="0.3" x="53" y="361" width="64" height="4" rx="2" stroke="#3C402B"/>
<rect opacity="0.3" x="53" y="373" width="64" height="4" rx="2" stroke="#3C402B"/>
<rect opacity="0.3" x="53" y="385" width="64" height="4" rx="2" stroke="#3C402B"/>
<rect opacity="0.3" x="53" y="397" width="64" height="4" rx="2" stroke="#3C402B"/>
<rect opacity="0.3" x="53" y="409" width="64" height="4" rx="2" stroke="#3C402B"/>
<rect opacity="0.3" x="53" y="421" width="64" height="4" rx="2" stroke="#3C402B"/>
<rect opacity="0.3" x="53" y="433" width="64" height="4" rx="2" stroke="#3C402B"/>
<rect opacity="0.3" x="53" y="445" width="64" height="4" rx="2" stroke="#3C402B"/>
<rect opacity="0.3" x="53" y="457" width="64" height="4" rx="2" stroke="#3C402B"/>
<rect opacity="0.3" x="53" y="469" width="64" height="4" rx="2" stroke="#3C402B"/>
<rect opacity="0.3" x="53" y="481" width="64" height="4" rx="2" stroke="#3C402B"/>
<path d="M72.0743 147.351C71.4806 147.299 70.9916 147.106 70.6073 146.771C70.2234 146.432 69.9483 145.996 69.7821 145.464C69.6162 144.927 69.5613 144.338 69.6174 143.697C69.6746 143.043 69.8311 142.471 70.0869 141.979C70.3471 141.484 70.6973 141.107 71.1375 140.848C71.5777 140.59 72.1006 140.487 72.7063 140.54C73.2961 140.592 73.7891 140.785 74.1853 141.121C74.5815 141.457 74.8688 141.892 75.0469 142.425C75.2291 142.959 75.2921 143.547 75.236 144.188C75.1795 144.834 75.0152 145.404 74.7431 145.898C74.471 146.392 74.1085 146.772 73.6556 147.037C73.2031 147.299 72.676 147.403 72.0743 147.351ZM68.9341 149.786L69.7499 140.462L70.5389 140.531L70.1137 145.391L70.2093 145.399L69.8187 149.864L68.9341 149.786ZM72.0563 146.524C72.5066 146.564 72.8911 146.483 73.2098 146.282C73.5285 146.081 73.7787 145.791 73.9603 145.414C74.1463 145.033 74.2607 144.597 74.3035 144.107C74.3461 143.621 74.3107 143.176 74.1974 142.772C74.0842 142.369 73.886 142.041 73.6031 141.787C73.3241 141.534 72.9535 141.387 72.4912 141.346C72.041 141.307 71.6568 141.384 71.3388 141.577C71.0247 141.77 70.7769 142.056 70.5953 142.433C70.414 142.807 70.3013 143.247 70.257 143.753C70.2134 144.251 70.2481 144.704 70.361 145.111C70.4743 145.514 70.6706 145.841 70.9499 146.09C71.2293 146.339 71.5981 146.484 72.0563 146.524Z" fill="#3C402B"/>
<path d="M78.9815 147.955C78.3519 147.9 77.8182 147.713 77.3804 147.393C76.9465 147.074 76.6242 146.651 76.4135 146.122C76.2027 145.594 76.1271 144.989 76.1868 144.308C76.2485 143.602 76.4273 143.004 76.7233 142.512C77.0194 142.02 77.4067 141.654 77.8854 141.415C78.368 141.176 78.9202 141.084 79.5418 141.138C80.1793 141.194 80.7104 141.389 81.1349 141.723C81.5597 142.053 81.8638 142.502 82.0471 143.068C82.2305 143.634 82.2791 144.295 82.1929 145.05L81.2963 144.972L81.3235 144.661C81.3808 143.823 81.2548 143.175 80.9454 142.718C80.64 142.262 80.1566 142.005 79.4951 141.947C78.8017 141.886 78.2501 142.065 77.8401 142.483C77.4341 142.901 77.1947 143.527 77.1218 144.359C77.0507 145.172 77.1787 145.82 77.5059 146.302C77.8375 146.781 78.342 147.05 79.0194 147.109C79.4816 147.15 79.8933 147.079 80.2545 146.898C80.62 146.713 80.92 146.428 81.1544 146.043L81.9456 146.432C81.6414 146.971 81.2266 147.375 80.7013 147.642C80.1804 147.905 79.6071 148.01 78.9815 147.955ZM76.7896 144.577L76.8539 143.842L81.785 144.273L81.7207 145.009L76.7896 144.577Z" fill="#3C402B"/>
<path d="M87.7455 148.541L88.0337 145.248C88.065 144.889 88.0599 144.557 88.0183 144.253C87.9771 143.944 87.8905 143.671 87.7586 143.435C87.631 143.195 87.4531 143.003 87.2248 142.858C87.0006 142.714 86.7191 142.627 86.3803 142.598C86.0695 142.57 85.7899 142.6 85.5414 142.687C85.2969 142.774 85.084 142.912 84.9029 143.101C84.726 143.286 84.5832 143.518 84.4745 143.798C84.3657 144.078 84.2953 144.401 84.2632 144.767L83.6536 144.575C83.7115 143.914 83.8756 143.368 84.1462 142.938C84.4167 142.508 84.7653 142.195 85.1919 142C85.6186 141.804 86.0949 141.729 86.6209 141.775C87.0074 141.809 87.3389 141.898 87.6154 142.043C87.8958 142.188 88.1267 142.371 88.3082 142.592C88.4936 142.813 88.6366 143.06 88.7371 143.334C88.838 143.604 88.9034 143.888 88.9334 144.188C88.9638 144.484 88.9662 144.777 88.9408 145.068L88.6301 148.619L87.7455 148.541ZM83.0774 148.133L83.6421 141.677L84.4371 141.747L84.298 143.337L84.3876 143.345L83.962 148.21L83.0774 148.133Z" fill="#3C402B"/>
<path d="M90.3582 145.355L90.4241 144.602L94.0104 144.915L93.9445 145.669L90.3582 145.355Z" fill="#3C402B"/>
<path d="M99.8633 149.601L100.151 146.308C100.183 145.949 100.178 145.618 100.136 145.313C100.095 145.004 100.008 144.731 99.8764 144.495C99.7488 144.255 99.5709 144.063 99.3426 143.918C99.1183 143.774 98.8368 143.687 98.4981 143.658C98.1873 143.631 97.9076 143.66 97.6591 143.747C97.4146 143.834 97.2018 143.972 97.0206 144.161C96.8438 144.346 96.701 144.579 96.5922 144.858C96.4835 145.138 96.413 145.461 96.381 145.828L95.7714 145.636C95.8292 144.974 95.9934 144.428 96.2639 143.998C96.5344 143.568 96.883 143.255 97.3097 143.06C97.7364 142.864 98.2127 142.79 98.7387 142.836C99.1252 142.869 99.4567 142.959 99.7331 143.103C100.014 143.248 100.245 143.431 100.426 143.652C100.611 143.873 100.754 144.12 100.855 144.394C100.956 144.664 101.021 144.949 101.051 145.248C101.082 145.544 101.084 145.837 101.059 146.128L100.748 149.679L99.8633 149.601ZM95.1951 149.193L95.7599 142.738L96.5549 142.807L96.4158 144.397L96.5054 144.405L96.0797 149.27L95.1951 149.193Z" fill="#3C402B"/>
<path d="M103.091 142.144L103.177 141.158L104.055 141.235L103.969 142.221L103.091 142.144ZM102.419 149.825L102.983 143.37L103.862 143.446L103.297 149.902L102.419 149.825Z" fill="#3C402B"/>
<path d="M107.972 150.492C107.379 150.44 106.89 150.246 106.505 149.911C106.121 149.573 105.846 149.137 105.68 148.605C105.514 148.068 105.459 147.479 105.515 146.837C105.573 146.184 105.729 145.611 105.985 145.12C106.245 144.625 106.595 144.248 107.036 143.989C107.476 143.731 107.999 143.628 108.604 143.681C109.194 143.732 109.687 143.926 110.083 144.262C110.48 144.598 110.767 145.032 110.945 145.566C111.127 146.1 111.19 146.687 111.134 147.329C111.078 147.975 110.913 148.544 110.641 149.039C110.369 149.533 110.007 149.913 109.554 150.178C109.101 150.44 108.574 150.544 107.972 150.492ZM105.083 150.058L105.836 141.451L106.721 141.528L106.393 145.276L106.297 145.268L105.872 150.127L105.083 150.058ZM107.954 149.665C108.405 149.704 108.789 149.623 109.108 149.422C109.427 149.221 109.677 148.932 109.858 148.555C110.044 148.173 110.159 147.738 110.202 147.247C110.244 146.761 110.209 146.317 110.095 145.913C109.982 145.51 109.784 145.181 109.501 144.928C109.222 144.674 108.852 144.527 108.389 144.487C107.939 144.448 107.555 144.524 107.237 144.717C106.923 144.911 106.675 145.196 106.493 145.574C106.312 145.948 106.199 146.387 106.155 146.893C106.111 147.392 106.146 147.844 106.259 148.252C106.372 148.655 106.569 148.981 106.848 149.231C107.127 149.48 107.496 149.625 107.954 149.665Z" fill="#3C402B"/>
<circle cx="61.1523" cy="175.627" r="4" transform="rotate(5 61.1523 175.627)" fill="#3C402B"/>
<path d="M60.6544 175.583L44.7153 174.188C42.5146 173.996 40.8866 172.056 41.0792 169.855L43.1709 145.946C43.3634 143.745 45.3036 142.118 47.5043 142.31L63.4434 143.705" stroke="#3C402B"/>
</svg>
