<?xml version="1.0" encoding="UTF-8"?>
<svg width="16px" height="16px" viewBox="0 0 16 16" version="1.1" xmlns="http://www.w3.org/2000/svg" xmlns:xlink="http://www.w3.org/1999/xlink">
    <title>ph-wifi-low</title>
    <g id="Page-1" stroke="none" stroke-width="1" fill="none" fill-rule="evenodd">
        <g id="REFACTOR---Testing-32-line-style-MEDIUM---REFACTOR" transform="translate(-204.000000, -900.000000)">
            <g id="ph-wifi-low" transform="translate(204.000000, 900.000000)">
                <polygon id="Fill-1" points="0 16 16 16 16 0 0 0"></polygon>
                <path d="M15.4697346,4.68859162 C15.6707894,4.85582047 15.705505,5.14446392 15.5646303,5.35264953 L15.5035534,5.42655339 L15.530262,5.39747995 L8.38126201,13.82348 L8.32348394,13.8812586 L8.28745966,13.9091442 L8.24453666,13.9362769 L8.23487092,13.9416818 C8.22544129,13.9466959 8.21588259,13.9513866 8.20621147,13.955754 L8.17021248,13.9702801 L8.15445384,13.9757254 C8.13895433,13.9807324 8.12325534,13.9849649 8.10741857,13.9884227 L8.08317994,13.9930438 L8.06715843,13.9955099 C8.0524882,13.9974813 8.03774607,13.9988035 8.02297938,13.9994766 L7.99824074,14.000008 L7.97609549,13.9994336 C7.96200165,13.9987653 7.94793107,13.9975055 7.93392493,13.9956543 L7.91682521,13.9930447 L7.89265165,13.9884382 C7.87675565,13.9849698 7.86099832,13.980721 7.84544209,13.9756919 L7.82979243,13.9702819 L7.796077,13.9567805 C7.78461459,13.9516739 7.77330768,13.9461147 7.76218384,13.940103 L7.75026407,13.9332653 L7.72182905,13.9157384 C7.68438783,13.8906219 7.64964061,13.8598903 7.61879194,13.8235435 L7.68221537,13.885125 L7.67652005,13.881262 L7.61874137,13.8234839 L6.68621537,12.725125 L4.70679194,10.3925435 C4.70518205,10.3906467 4.70358876,10.3887414 4.70201206,10.3868277 L0.468741374,5.39648394 L0.41903884,5.32910788 C0.304173365,5.14752432 0.327991723,4.95312805 0.425379927,4.80591346 L0.469,4.749 L0.530320514,4.68854581 C4.84102186,1.10413233 11.1598612,1.10382182 15.4697346,4.68859162 Z M1.66109689,5.07264917 L1.566,5.144 L5.16248434,9.38267981 C5.98786557,8.81291613 6.97019568,8.5 8,8.5 C9.0298275,8.5 10.0124263,8.81293835 10.8381584,9.38249889 L14.434,5.145 L14.3389493,5.0725781 C10.5887928,2.30917949 5.41198028,2.30941139 1.66109689,5.07264917 Z" id="Combined-Shape" fill="#000000" fill-rule="nonzero"></path>
            </g>
        </g>
    </g>
</svg>